<svg width="107" height="246" viewBox="0 0 107 246" fill="none" xmlns="http://www.w3.org/2000/svg">
<g filter="url(#filter0_d_2939_3568)">
<g filter="url(#filter1_di_2939_3568)">
<path d="M11.5235 64.7138C14.9039 51.11 22.0388 38.7296 32.1146 28.9844C42.1905 19.2391 54.8018 12.5211 68.5108 9.59619C82.2199 6.67129 96.4749 7.65726 109.651 12.4416C122.826 17.226 134.393 25.6163 143.031 36.6559C136.592 43.4951 130.529 50.6793 124.869 58.1767C117.999 67.3899 113.485 78.1431 111.722 89.4996C110.58 97.4938 111.926 105.646 115.579 112.848C117.433 115.672 119.004 118.673 120.267 121.806C123.22 131.069 116.908 140.373 112.38 148.939C111.728 150.164 111.081 151.423 110.543 152.703C97.7804 157.526 83.9422 158.765 70.5261 156.287C57.11 153.81 44.6272 147.71 34.429 138.648C24.2307 129.585 16.7056 117.906 12.6682 104.874C8.63081 91.8424 8.23491 77.9545 11.5235 64.7138V64.7138Z" fill="url(#paint0_radial_2939_3568)"/>
<path d="M11.5235 64.7138C14.9039 51.11 22.0388 38.7296 32.1146 28.9844C42.1905 19.2391 54.8018 12.5211 68.5108 9.59619C82.2199 6.67129 96.4749 7.65726 109.651 12.4416C122.826 17.226 134.393 25.6163 143.031 36.6559C136.592 43.4951 130.529 50.6793 124.869 58.1767C117.999 67.3899 113.485 78.1431 111.722 89.4996C110.58 97.4938 111.926 105.646 115.579 112.848C117.433 115.672 119.004 118.673 120.267 121.806C123.22 131.069 116.908 140.373 112.38 148.939C111.728 150.164 111.081 151.423 110.543 152.703C97.7804 157.526 83.9422 158.765 70.5261 156.287C57.11 153.81 44.6272 147.71 34.429 138.648C24.2307 129.585 16.7056 117.906 12.6682 104.874C8.63081 91.8424 8.23491 77.9545 11.5235 64.7138V64.7138Z" fill="url(#paint1_angular_2939_3568)" fill-opacity="0.2"/>
</g>
<path d="M63.807 83.5534C63.7827 80.3981 64.6733 77.3033 66.3711 74.6435C68.0689 71.9838 70.5011 69.873 73.3734 68.5667C76.2457 67.2603 79.4352 66.8143 82.5557 67.2827C85.6762 67.7511 88.594 69.1138 90.9563 71.2058C93.3185 73.2979 95.0239 76.0297 95.866 79.0707C96.7081 82.1117 96.6508 85.3316 95.7012 88.3408C94.7516 91.35 92.9503 94.0194 90.5152 96.0263C88.0801 98.0331 85.1156 99.2912 81.9804 99.6484C77.4392 99.9114 72.9786 98.3661 69.5733 95.3503C66.1679 92.3344 64.0948 88.0932 63.807 83.5534V83.5534Z" fill="url(#paint2_linear_2939_3568)"/>
<path opacity="0.41" d="M64.8024 80.8112C63.8401 85.0239 64.5842 89.4464 66.8723 93.1122C69.1603 96.7781 72.8062 99.3893 77.0135 100.376C79.1771 100.726 81.3916 100.587 83.4947 99.9698C85.5977 99.3527 87.536 98.2728 89.1675 96.8093C86.7263 98.1147 83.9311 98.6036 81.1918 98.2041C78.4525 97.8047 75.9133 96.538 73.9466 94.5898C66.2529 87.0903 69.0435 72.6587 78.3157 67.6904C79.2339 67.2101 80.1906 66.8075 81.176 66.4868C77.1759 66.4906 73.3129 67.944 70.3023 70.5778C67.2918 73.2115 65.3378 76.8472 64.8024 80.8112Z" fill="url(#paint3_linear_2939_3568)"/>
<path d="M67.8059 12.8345C72.2146 11.7609 76.1933 12.5567 76.6946 14.6166C77.196 16.6766 74.0287 19.2132 69.6199 20.2868C65.2112 21.3605 61.2321 20.5612 60.7312 18.5047C60.2303 16.4482 63.3971 13.9081 67.8059 12.8345Z" fill="url(#paint4_linear_2939_3568)"/>
<path d="M67.8059 12.8345C72.2146 11.7609 76.1933 12.5567 76.6946 14.6166C77.196 16.6766 74.0287 19.2132 69.6199 20.2868C65.2112 21.3605 61.2321 20.5612 60.7312 18.5047C60.2303 16.4482 63.3971 13.9081 67.8059 12.8345Z" fill="url(#paint5_linear_2939_3568)"/>
<path d="M105.282 37.6617C100.888 31.7007 100.136 24.8015 103.598 22.2607C107.059 19.72 113.429 22.4702 117.823 28.4277C122.216 34.3851 122.968 41.2844 119.504 43.8291C116.039 46.3738 109.674 43.6017 105.282 37.6617Z" fill="url(#paint6_linear_2939_3568)"/>
<path opacity="0.74" d="M105.286 37.6617C109.68 43.6191 116.051 46.3799 119.507 43.8291C120.232 43.2624 120.784 42.5055 121.102 41.6429C117.969 42.1366 114.763 41.4742 112.082 39.7791C104.126 34.458 102.272 27.6042 103.82 22.1425C103.751 22.1838 103.668 22.202 103.6 22.2503C100.14 24.8015 100.892 31.7042 105.286 37.6617Z" fill="url(#paint7_linear_2939_3568)"/>
<path d="M23.5675 98.7333C21.9518 93.3072 23.207 88.1513 26.3518 87.2125C29.4965 86.2737 33.3645 89.9116 34.9797 95.3342C36.5949 100.757 35.3402 105.916 32.1954 106.855C29.0507 107.794 25.1827 104.156 23.5675 98.7333Z" fill="url(#paint8_linear_2939_3568)"/>
<path opacity="0.6" d="M23.5664 98.7332C25.1815 104.156 29.0495 107.794 32.1942 106.855C32.9421 106.562 33.606 106.089 34.1272 105.478C34.6483 104.867 35.0104 104.136 35.1815 103.352C31.9927 107.152 27.8352 104.185 26.4266 100.269C24.5443 95.078 23.8917 89.3659 27.8949 87.1286C27.3803 87.0424 26.8533 87.0674 26.3492 87.2019C23.1989 88.1521 21.9508 93.3071 23.5664 98.7332Z" fill="url(#paint9_linear_2939_3568)"/>
<path d="M50.0407 144.071C46.7354 142.421 44.8323 139.527 45.7919 137.607C46.7515 135.688 50.2057 135.464 53.511 137.114C56.8164 138.764 58.7189 141.655 57.7633 143.577C56.8077 145.499 53.3491 145.717 50.0407 144.071Z" fill="url(#paint10_linear_2939_3568)"/>
<path opacity="0.58" d="M50.7883 142.539C49.6646 142.063 48.6551 141.354 47.827 140.458C46.9989 139.563 46.3712 138.5 45.9858 137.343C45.9149 137.426 45.8508 137.514 45.794 137.607C44.8325 139.512 46.7376 142.42 50.043 144.07C53.3483 145.72 56.806 145.496 57.7656 143.577C57.8016 143.501 57.8072 143.411 57.8357 143.333C56.6713 143.704 55.4417 143.825 54.2273 143.688C53.0128 143.551 51.8409 143.16 50.7883 142.539V142.539Z" fill="url(#paint11_linear_2939_3568)"/>
<path d="M36.9469 42.2071C41.4338 36.3103 48.335 34.0164 52.3673 37.0816C56.3997 40.1468 56.0259 47.4145 51.539 53.3114C47.0521 59.2083 40.1475 61.5026 36.1186 58.4369C32.0897 55.3712 32.46 48.104 36.9469 42.2071Z" fill="url(#paint12_linear_2939_3568)"/>
<path opacity="0.66" d="M36.1176 58.437C37.2615 59.2018 38.5806 59.6642 39.9516 59.7813C41.3226 59.8984 42.7009 59.6663 43.9579 59.1066C42.7063 58.968 41.5115 58.5087 40.4893 57.7732C39.0498 56.4714 38.0597 54.7471 37.6608 52.8477C37.2619 50.9482 37.4747 48.9713 38.2689 47.2004C39.4132 44.2839 41.4367 41.7958 44.0588 40.0811C46.6808 38.3664 49.7715 37.5101 52.9021 37.631C52.7337 37.4382 52.5549 37.2548 52.3663 37.0817C48.334 34.0164 41.4328 36.3103 36.946 42.2072C32.4591 48.1041 32.0887 55.3713 36.1176 58.437Z" fill="url(#paint13_linear_2939_3568)"/>
<path d="M101.041 138.888C93.0551 139.879 86.1181 136.925 85.5392 132.286C84.9602 127.647 90.9658 123.084 98.9513 122.089C106.937 121.095 113.87 124.05 114.449 128.688C115.028 133.327 109.024 137.905 101.041 138.888Z" fill="url(#paint14_linear_2939_3568)"/>
<g filter="url(#filter2_i_2939_3568)">
<path d="M85.5365 132.297C86.1155 136.936 93.0524 139.89 101.038 138.899C107.878 138.049 113.241 134.566 114.272 130.67C114.173 130.754 114.052 130.809 113.946 130.888C111.261 133.194 108.166 134.974 104.821 136.134C100.566 137.557 92.161 138.125 89.4134 133.497C87.7314 130.662 90.2028 126.177 95.7376 122.732C89.4285 124.385 85.0415 128.308 85.5365 132.297Z" fill="url(#paint15_linear_2939_3568)"/>
</g>
</g>
<defs>
<filter id="filter0_d_2939_3568" x="5.31836" y="7.94971" width="141.713" height="157.581" filterUnits="userSpaceOnUse" color-interpolation-filters="sRGB">
<feFlood flood-opacity="0" result="BackgroundImageFix"/>
<feColorMatrix in="SourceAlpha" type="matrix" values="0 0 0 0 0 0 0 0 0 0 0 0 0 0 0 0 0 0 127 0" result="hardAlpha"/>
<feOffset dy="4"/>
<feGaussianBlur stdDeviation="2"/>
<feComposite in2="hardAlpha" operator="out"/>
<feColorMatrix type="matrix" values="0 0 0 0 0 0 0 0 0 0 0 0 0 0 0 0 0 0 0.25 0"/>
<feBlend mode="normal" in2="BackgroundImageFix" result="effect1_dropShadow_2939_3568"/>
<feBlend mode="normal" in="SourceGraphic" in2="effect1_dropShadow_2939_3568" result="shape"/>
</filter>
<filter id="filter1_di_2939_3568" x="9.31836" y="7.94971" width="157.713" height="237.581" filterUnits="userSpaceOnUse" color-interpolation-filters="sRGB">
<feFlood flood-opacity="0" result="BackgroundImageFix"/>
<feColorMatrix in="SourceAlpha" type="matrix" values="0 0 0 0 0 0 0 0 0 0 0 0 0 0 0 0 0 0 127 0" result="hardAlpha"/>
<feMorphology radius="40" operator="erode" in="SourceAlpha" result="effect1_dropShadow_2939_3568"/>
<feOffset dx="20" dy="84"/>
<feGaussianBlur stdDeviation="22"/>
<feComposite in2="hardAlpha" operator="out"/>
<feColorMatrix type="matrix" values="0 0 0 0 0 0 0 0 0 0.254464 0 0 0 0 0.375 0 0 0 0.38 0"/>
<feBlend mode="normal" in2="BackgroundImageFix" result="effect1_dropShadow_2939_3568"/>
<feBlend mode="normal" in="SourceGraphic" in2="effect1_dropShadow_2939_3568" result="shape"/>
<feColorMatrix in="SourceAlpha" type="matrix" values="0 0 0 0 0 0 0 0 0 0 0 0 0 0 0 0 0 0 127 0" result="hardAlpha"/>
<feOffset dy="7"/>
<feGaussianBlur stdDeviation="12"/>
<feComposite in2="hardAlpha" operator="arithmetic" k2="-1" k3="1"/>
<feColorMatrix type="matrix" values="0 0 0 0 1 0 0 0 0 1 0 0 0 0 1 0 0 0 0.63 0"/>
<feBlend mode="normal" in2="shape" result="effect2_innerShadow_2939_3568"/>
</filter>
<filter id="filter2_i_2939_3568" x="85.498" y="122.732" width="28.7734" height="20.3589" filterUnits="userSpaceOnUse" color-interpolation-filters="sRGB">
<feFlood flood-opacity="0" result="BackgroundImageFix"/>
<feBlend mode="normal" in="SourceGraphic" in2="BackgroundImageFix" result="shape"/>
<feColorMatrix in="SourceAlpha" type="matrix" values="0 0 0 0 0 0 0 0 0 0 0 0 0 0 0 0 0 0 127 0" result="hardAlpha"/>
<feOffset dy="4"/>
<feGaussianBlur stdDeviation="2"/>
<feComposite in2="hardAlpha" operator="arithmetic" k2="-1" k3="1"/>
<feColorMatrix type="matrix" values="0 0 0 0 0 0 0 0 0 0 0 0 0 0 0 0 0 0 0.25 0"/>
<feBlend mode="normal" in2="shape" result="effect1_innerShadow_2939_3568"/>
</filter>
<radialGradient id="paint0_radial_2939_3568" cx="0" cy="0" r="1" gradientUnits="userSpaceOnUse" gradientTransform="translate(87.7438 88.1401) rotate(-58.7435) scale(77.0097 101.329)">
<stop stop-color="#33C4D8"/>
<stop offset="0.526042" stop-color="#1B93A3"/>
<stop offset="1" stop-color="#106470"/>
</radialGradient>
<radialGradient id="paint1_angular_2939_3568" cx="0" cy="0" r="1" gradientUnits="userSpaceOnUse" gradientTransform="translate(79.034 83.4247) rotate(-79.9455) scale(70.979 77.2323)">
<stop offset="0.132476" stop-color="#1A8C9C" stop-opacity="0.85"/>
<stop offset="0.615534" stop-color="#144D55" stop-opacity="0.66"/>
</radialGradient>
<linearGradient id="paint2_linear_2939_3568" x1="76.8795" y1="63.1096" x2="80.1611" y2="114.425" gradientUnits="userSpaceOnUse">
<stop offset="0.004" stop-color="#0B6375"/>
<stop offset="1" stop-color="#0A2239"/>
</linearGradient>
<linearGradient id="paint3_linear_2939_3568" x1="94.0548" y1="76.0858" x2="56.6166" y2="86.9567" gradientUnits="userSpaceOnUse">
<stop offset="0.004" stop-color="#0A2239"/>
<stop offset="1" stop-color="#0B6375"/>
</linearGradient>
<linearGradient id="paint4_linear_2939_3568" x1="104.024" y1="118.486" x2="103.141" y2="132.598" gradientUnits="userSpaceOnUse">
<stop offset="0.004" stop-color="#0B6375"/>
<stop offset="1" stop-color="#0A2239"/>
</linearGradient>
<linearGradient id="paint5_linear_2939_3568" x1="39.0596" y1="19.4597" x2="41.8914" y2="31.7449" gradientUnits="userSpaceOnUse">
<stop offset="0.004" stop-color="#0A2239"/>
<stop offset="1" stop-color="#0B6375"/>
</linearGradient>
<linearGradient id="paint6_linear_2939_3568" x1="149.711" y1="-65.1107" x2="131.738" y2="-49.3221" gradientUnits="userSpaceOnUse">
<stop offset="0.004" stop-color="#0B6375"/>
<stop offset="1" stop-color="#0A2239"/>
</linearGradient>
<linearGradient id="paint7_linear_2939_3568" x1="95.4135" y1="13.2509" x2="78.9428" y2="32.7024" gradientUnits="userSpaceOnUse">
<stop offset="0.004" stop-color="#0B6375"/>
<stop offset="1" stop-color="#0A2239"/>
</linearGradient>
<linearGradient id="paint8_linear_2939_3568" x1="34.9709" y1="100.349" x2="36.9519" y2="144.113" gradientUnits="userSpaceOnUse">
<stop offset="0.004" stop-color="#0B6375"/>
<stop offset="1" stop-color="#0A2239"/>
</linearGradient>
<linearGradient id="paint9_linear_2939_3568" x1="45.8444" y1="111.377" x2="27.0889" y2="116.382" gradientUnits="userSpaceOnUse">
<stop offset="0.004" stop-color="#0B6375"/>
<stop offset="1" stop-color="#0A2239"/>
</linearGradient>
<linearGradient id="paint10_linear_2939_3568" x1="63.4978" y1="143.544" x2="83.3408" y2="159.591" gradientUnits="userSpaceOnUse">
<stop offset="0.004" stop-color="#0B6375"/>
<stop offset="1" stop-color="#0A2239"/>
</linearGradient>
<linearGradient id="paint11_linear_2939_3568" x1="75.892" y1="141.719" x2="74.0292" y2="155.64" gradientUnits="userSpaceOnUse">
<stop offset="0.004" stop-color="#0A2239"/>
<stop offset="1" stop-color="#0B6375"/>
</linearGradient>
<linearGradient id="paint12_linear_2939_3568" x1="44.0516" y1="48.2258" x2="20.1938" y2="83.6455" gradientUnits="userSpaceOnUse">
<stop offset="0.004" stop-color="#0B6375"/>
<stop offset="0.9997" stop-color="#0A2239"/>
<stop offset="0.9998" stop-color="#C77FBB"/>
<stop offset="0.9999" stop-color="#C77FBB"/>
<stop offset="1" stop-color="#0A2239"/>
</linearGradient>
<linearGradient id="paint13_linear_2939_3568" x1="46.4836" y1="73.251" x2="21.7839" y2="61.9882" gradientUnits="userSpaceOnUse">
<stop offset="0.004" stop-color="#0A2239"/>
<stop offset="1" stop-color="#0B6375"/>
</linearGradient>
<linearGradient id="paint14_linear_2939_3568" x1="112.306" y1="133.938" x2="111.548" y2="91.1868" gradientUnits="userSpaceOnUse">
<stop offset="0.004" stop-color="#0B6375"/>
<stop offset="1" stop-color="#0A2239"/>
</linearGradient>
<linearGradient id="paint15_linear_2939_3568" x1="132.415" y1="103.945" x2="122.474" y2="138.587" gradientUnits="userSpaceOnUse">
<stop offset="0.004" stop-color="#0A2239"/>
<stop offset="1" stop-color="#0B6375"/>
</linearGradient>
</defs>
</svg>
