<svg width="758" height="680" viewBox="0 0 758 680" fill="none" xmlns="http://www.w3.org/2000/svg">
<mask id="mask0_2952_3571" style="mask-type:alpha" maskUnits="userSpaceOnUse" x="0" y="0" width="790" height="680">
<rect width="790" height="680" fill="#D9D9D9"/>
</mask>
<g mask="url(#mask0_2952_3571)">
<mask id="mask1_2952_3571" style="mask-type:alpha" maskUnits="userSpaceOnUse" x="11" y="-348" width="1648" height="1051">
<path d="M1658.75 534.683L1588.86 650.189C1563.35 662.686 1536.46 668.664 1510.49 667.612C1509 667.66 1507.53 667.621 1506.07 667.495C1504.46 667.32 1502.78 667.262 1501.07 667.028C1446.4 660.776 1402.89 624.07 1367.52 582.862C1366.04 581.167 1364.63 579.355 1363.05 577.602C1361.48 575.848 1360.06 574.036 1358.58 572.341C1331.61 540.369 1303.28 506.935 1261.59 503.43C1212.41 499.224 1163.45 538.273 1118.23 571.125C1053.68 618.096 985.163 656.63 914.397 685.761C838.405 716.92 773.728 701.9 718.719 652.803C695.54 632.229 680.022 603.354 659.545 579.623C639.067 555.892 610.623 536.604 577.887 542.509C529.535 551.104 486.55 611.02 439.948 605.82C403.697 601.613 386.505 559.586 354.246 544.858C317.744 528.201 270.346 549.83 232.589 577.773C194.832 605.715 159.647 640.964 117.879 657.215C107.878 661.154 97.6252 663.365 87.5245 663.764C79.5704 664.54 71.8566 663.375 64.9436 660.352C58.0306 657.329 52.0917 652.525 47.5585 646.288C36.5347 629.396 39.7861 607.885 46.4289 584.913C55.7055 552.354 71.6236 517.106 63.5219 488.407C59.4972 477.235 54.0744 466.923 47.3854 457.72C43.4904 451.728 40.4877 445.019 38.4649 437.788C35.2405 422.488 37.6531 405.433 45.2286 389.973C51.4226 376.967 59.2626 364.746 68.4783 353.731C88.3297 329.648 112.605 308.721 127.62 281.072C158.402 224.313 133.789 149.845 80.598 138.742C64.3679 135.469 46.029 136.99 32.1905 128.456C5.5502 111.857 8.24076 66.848 21.8803 31.6588C35.5197 -3.53037 57.2582 -37.4923 60.9515 -73.9085C62.067 -87.5847 61.1308 -100.991 58.1799 -113.598L200.018 -348L1658.75 534.683Z" fill="#0D1F31"/>
</mask>
<g mask="url(#mask1_2952_3571)">
<path d="M1658.75 534.683L1588.86 650.189C1563.35 662.686 1536.46 668.664 1510.49 667.612C1509 667.66 1507.53 667.621 1506.07 667.495C1504.46 667.32 1502.78 667.262 1501.07 667.028C1446.4 660.776 1402.89 624.07 1367.52 582.862C1366.04 581.167 1364.63 579.355 1363.05 577.602C1361.48 575.848 1360.06 574.036 1358.58 572.341C1331.61 540.369 1303.28 506.935 1261.59 503.43C1212.41 499.224 1163.45 538.273 1118.23 571.125C1053.68 618.096 985.163 656.63 914.397 685.761C838.405 716.92 773.728 701.9 718.719 652.803C695.54 632.229 680.022 603.354 659.545 579.623C639.067 555.892 610.623 536.604 577.887 542.509C529.535 551.104 486.55 611.02 439.948 605.82C403.697 601.613 386.505 559.586 354.246 544.858C317.744 528.201 270.346 549.83 232.589 577.773C194.832 605.715 159.647 640.964 117.879 657.215C107.878 661.154 97.6252 663.365 87.5245 663.764C79.5704 664.54 71.8566 663.375 64.9436 660.352C58.0306 657.329 52.0917 652.525 47.5585 646.288C36.5347 629.396 39.7861 607.885 46.4289 584.913C55.7055 552.354 71.6236 517.106 63.5219 488.407C59.4972 477.235 54.0744 466.923 47.3854 457.72C43.4904 451.728 40.4877 445.019 38.4649 437.788C35.2405 422.488 37.6531 405.433 45.2286 389.973C51.4226 376.967 59.2626 364.746 68.4783 353.731C88.3297 329.648 112.605 308.721 127.62 281.072C158.402 224.313 133.789 149.845 80.598 138.742C64.3679 135.469 46.029 136.99 32.1905 128.456C5.5502 111.857 8.24076 66.848 21.8803 31.6588C35.5197 -3.53037 57.2582 -37.4923 60.9515 -73.9085C62.067 -87.5847 61.1308 -100.991 58.1799 -113.598L200.018 -348L1658.75 534.683Z" fill="#0D1F31"/>
<path d="M610 159.96C608.763 159.96 607.76 159.082 607.76 158C607.76 156.918 608.763 156.04 610 156.04C611.237 156.04 612.24 156.918 612.24 158C612.24 159.082 611.237 159.96 610 159.96Z" fill="white"/>
<path d="M545 471.96C543.763 471.96 542.76 471.082 542.76 470C542.76 468.918 543.763 468.04 545 468.04C546.237 468.04 547.24 468.918 547.24 470C547.24 471.082 546.237 471.96 545 471.96Z" fill="white"/>
<path d="M258 145.96C256.763 145.96 255.76 145.082 255.76 144C255.76 142.918 256.763 142.04 258 142.04C259.237 142.04 260.24 142.918 260.24 144C260.24 145.082 259.237 145.96 258 145.96Z" fill="white"/>
<path d="M106 559.96C104.763 559.96 103.76 559.082 103.76 558C103.76 556.918 104.763 556.04 106 556.04C107.237 556.04 108.24 556.918 108.24 558C108.24 559.082 107.237 559.96 106 559.96Z" fill="white"/>
<path d="M655.5 225.82C654.418 225.82 653.54 225.005 653.54 224C653.54 222.995 654.418 222.18 655.5 222.18C656.582 222.18 657.46 222.995 657.46 224C657.46 225.005 656.582 225.82 655.5 225.82Z" fill="white"/>
<path d="M472.5 553.82C471.418 553.82 470.54 553.005 470.54 552C470.54 550.995 471.418 550.18 472.5 550.18C473.582 550.18 474.46 550.995 474.46 552C474.46 553.005 473.582 553.82 472.5 553.82Z" fill="white"/>
<path d="M164.5 570.82C163.418 570.82 162.54 570.005 162.54 569C162.54 567.995 163.418 567.18 164.5 567.18C165.582 567.18 166.46 567.995 166.46 569C166.46 570.005 165.582 570.82 164.5 570.82Z" fill="white"/>
<path d="M646 194.74C644.995 194.74 644.18 193.737 644.18 192.5C644.18 191.263 644.995 190.26 646 190.26C647.005 190.26 647.82 191.263 647.82 192.5C647.82 193.737 647.005 194.74 646 194.74Z" fill="white"/>
<path d="M463 522.74C461.995 522.74 461.18 521.737 461.18 520.5C461.18 519.263 461.995 518.26 463 518.26C464.005 518.26 464.82 519.263 464.82 520.5C464.82 521.737 464.005 522.74 463 522.74Z" fill="white"/>
<path d="M155 539.74C153.995 539.74 153.18 538.737 153.18 537.5C153.18 536.263 153.995 535.26 155 535.26C156.005 535.26 156.82 536.263 156.82 537.5C156.82 538.737 156.005 539.74 155 539.74Z" fill="white"/>
<path d="M673.5 157.32C672.495 157.32 671.68 156.505 671.68 155.5C671.68 154.495 672.495 153.68 673.5 153.68C674.505 153.68 675.32 154.495 675.32 155.5C675.32 156.505 674.505 157.32 673.5 157.32Z" fill="white"/>
<path d="M490.5 485.32C489.495 485.32 488.68 484.505 488.68 483.5C488.68 482.495 489.495 481.68 490.5 481.68C491.505 481.68 492.32 482.495 492.32 483.5C492.32 484.505 491.505 485.32 490.5 485.32Z" fill="white"/>
<path d="M251.5 93.32C250.495 93.32 249.68 92.5052 249.68 91.5C249.68 90.4948 250.495 89.68 251.5 89.68C252.505 89.68 253.32 90.4948 253.32 91.5C253.32 92.5052 252.505 93.32 251.5 93.32Z" fill="white"/>
<path d="M182.5 502.32C181.495 502.32 180.68 501.505 180.68 500.5C180.68 499.495 181.495 498.68 182.5 498.68C183.505 498.68 184.32 499.495 184.32 500.5C184.32 501.505 183.505 502.32 182.5 502.32Z" fill="white"/>
<path d="M624 102.24C622.918 102.24 622.04 101.237 622.04 100C622.04 98.7629 622.918 97.76 624 97.76C625.082 97.76 625.96 98.7629 625.96 100C625.96 101.237 625.082 102.24 624 102.24Z" fill="white"/>
<path d="M447 458.24C445.918 458.24 445.04 457.237 445.04 456C445.04 454.763 445.918 453.76 447 453.76C448.082 453.76 448.96 454.763 448.96 456C448.96 457.237 448.082 458.24 447 458.24Z" fill="white"/>
<path d="M208 66.24C206.918 66.24 206.04 65.2371 206.04 64C206.04 62.7629 206.918 61.76 208 61.76C209.082 61.76 209.96 62.7629 209.96 64C209.96 65.2371 209.082 66.24 208 66.24Z" fill="white"/>
<path d="M124 470.24C122.918 470.24 122.04 469.237 122.04 468C122.04 466.763 122.918 465.76 124 465.76C125.082 465.76 125.96 466.763 125.96 468C125.96 469.237 125.082 470.24 124 470.24Z" fill="white"/>
<path d="M721 89C717.926 89.243 714.974 90.3008 712.452 92.0633C710.959 94.45 710.137 97.1905 710.07 100C709.866 97.1947 709.002 94.4761 707.548 92.0633C705.446 89.4177 699 89 699 89C702.059 88.9045 705.026 87.9379 707.548 86.2152C709.51 84.4051 710.07 78 710.07 78C710.07 78 710.07 84.4051 712.452 86.2152C714.981 87.924 717.944 88.8892 721 89Z" fill="#FFE6F7"/>
<path d="M591 107C587.926 107.243 584.974 108.301 582.452 110.063C580.959 112.45 580.137 115.191 580.07 118C579.866 115.195 579.002 112.476 577.548 110.063C575.446 107.418 569 107 569 107C572.059 106.905 575.026 105.938 577.548 104.215C579.51 102.405 580.07 96 580.07 96C580.07 96 580.07 102.405 582.452 104.215C584.981 105.924 587.944 106.889 591 107Z" fill="#FFE6F7"/>
<path d="M527 539C523.926 539.243 520.974 540.301 518.452 542.063C516.959 544.45 516.137 547.191 516.07 550C515.866 547.195 515.002 544.476 513.548 542.063C511.446 539.418 505 539 505 539C508.059 538.905 511.026 537.938 513.548 536.215C515.51 534.405 516.07 528 516.07 528C516.07 528 516.07 534.405 518.452 536.215C520.981 537.924 523.944 538.889 527 539Z" fill="#FFE6F7"/>
<path d="M219 556C215.926 556.243 212.974 557.301 210.452 559.063C208.959 561.45 208.137 564.191 208.07 567C207.866 564.195 207.002 561.476 205.548 559.063C203.446 556.418 197 556 197 556C200.059 555.905 203.026 554.938 205.548 553.215C207.51 551.405 208.07 545 208.07 545C208.07 545 208.07 551.405 210.452 553.215C212.981 554.924 215.944 555.889 219 556Z" fill="#FFE6F7"/>
<path d="M602 180C598.957 180.293 596.036 181.347 593.506 183.063C591.948 185.424 591.08 188.173 591 191C590.856 188.203 590.044 185.482 588.633 183.063C586.544 180.418 580 180 580 180C583.061 179.9 586.041 178.986 588.633 177.354C590.088 174.803 590.9 171.936 591 169C591.169 171.943 592.027 174.805 593.506 177.354C596.049 178.981 598.983 179.895 602 180Z" fill="#FFE6F7"/>
<path d="M434 495C430.957 495.293 428.036 496.347 425.506 498.063C423.948 500.424 423.08 503.173 423 506C422.856 503.203 422.044 500.482 420.633 498.063C418.544 495.418 412 495 412 495C415.061 494.9 418.041 493.986 420.633 492.354C422.088 489.803 422.9 486.936 423 484C423.169 486.943 424.027 489.805 425.506 492.354C428.049 493.981 430.983 494.895 434 495Z" fill="#FFE6F7"/>
<path d="M161 92C157.957 92.2931 155.036 93.3465 152.506 95.0633C150.948 97.4236 150.08 100.173 150 103C149.856 100.203 149.044 97.482 147.633 95.0633C145.544 92.4177 139 92 139 92C142.061 91.8995 145.041 90.9864 147.633 89.3544C149.088 86.8029 149.9 83.9356 150 81C150.169 83.9428 151.027 86.8046 152.506 89.3544C155.049 90.9813 157.983 91.895 161 92Z" fill="#FFE6F7"/>
<path d="M92 501C88.9568 501.293 86.0361 502.347 83.5063 504.063C81.9476 506.424 81.0795 509.173 81 512C80.8557 509.203 80.044 506.482 78.6329 504.063C76.5443 501.418 70 501 70 501C73.0614 500.9 76.0409 499.986 78.6329 498.354C80.0881 495.803 80.9005 492.936 81 490C81.1689 492.943 82.0274 495.805 83.5063 498.354C86.0494 499.981 88.9829 500.895 92 501Z" fill="#FFE6F7"/>
<path d="M693 106.569C690.603 106.767 688.299 107.576 686.311 108.919C685.211 110.766 684.588 112.856 684.5 115C684.337 112.85 683.669 110.767 682.549 108.919C680.877 106.846 676 106.569 676 106.569C678.35 106.463 680.622 105.696 682.549 104.358C684.082 102.976 684.5 98 684.5 98C684.5 98 684.5 102.976 686.451 104.358C688.378 105.696 690.65 106.463 693 106.569H693Z" fill="#FFE6F7"/>
<path d="M510 434.569C507.603 434.767 505.299 435.576 503.311 436.919C502.211 438.766 501.588 440.856 501.5 443C501.337 440.85 500.669 438.767 499.549 436.919C497.877 434.846 493 434.569 493 434.569C495.35 434.463 497.622 433.696 499.549 432.358C501.082 430.976 501.5 426 501.5 426C501.5 426 501.5 430.976 503.451 432.358C505.378 433.696 507.65 434.463 510 434.569H510Z" fill="#FFE6F7"/>
<path d="M271 42.5691C268.603 42.7667 266.299 43.5762 264.311 44.9187C263.211 46.7663 262.588 48.8556 262.5 51C262.337 48.8497 261.669 46.7671 260.549 44.9187C258.877 42.8455 254 42.5691 254 42.5691C256.35 42.4631 258.622 41.6961 260.549 40.3577C262.082 38.9756 262.5 34 262.5 34C262.5 34 262.5 38.9756 264.451 40.3577C266.378 41.6961 268.65 42.4631 271 42.5691H271Z" fill="#FFE6F7"/>
<path d="M202 451.569C199.603 451.767 197.299 452.576 195.311 453.919C194.211 455.766 193.588 457.856 193.5 460C193.337 457.85 192.669 455.767 191.549 453.919C189.877 451.846 185 451.569 185 451.569C187.35 451.463 189.622 450.696 191.549 449.358C193.082 447.976 193.5 443 193.5 443C193.5 443 193.5 447.976 195.451 449.358C197.378 450.696 199.65 451.463 202 451.569H202Z" fill="#FFE6F7"/>
<g filter="url(#filter0_di_2952_3571)">
<path d="M208.098 466.035C188.342 492.723 180.378 522.259 177.003 546.479C175.916 560.805 172.964 576.455 168.225 593.016C165.775 601.373 161.556 610.411 156.026 619.154C150.495 627.897 143.863 636.012 136.846 642.623C122.775 652.947 109.72 657.277 100.412 654.706C90.0599 654.298 79.8196 653.73 69.6911 653.004L39.495 631.723C40.6949 631.604 41.9462 631.376 43.2427 631.039C54.4352 629.43 66.8154 625.086 79.9124 618.172C86.4968 614.634 93.4421 609.282 100.179 602.555C106.917 595.827 113.254 587.915 118.673 579.467C146.135 534.224 121.953 501.269 151.581 456.84C159.233 445.913 168.137 436.186 177.217 428.835C238.739 375.772 289.178 381.634 347.342 353.516C356.13 350.145 365.661 344.337 375.305 336.477C384.949 328.617 394.486 318.884 403.285 307.921C411.425 295.784 418.109 283.088 422.802 270.848C427.495 258.608 430.067 247.165 430.311 237.435C432.224 216.933 429.527 199.833 432.098 178.846C435.698 152.759 446.776 122.227 463.78 91.5332C480.783 60.8393 502.858 31.5235 526.907 7.69845C540.816 -5.73543 555.012 -16.8478 568.735 -25.0447L592.948 -7.97999C569.876 9.58613 547.116 35.0213 528.96 63.5308C512.64 90.6612 500.886 118.325 495.138 143.13C489.389 167.934 489.898 188.801 496.6 203.169C504.283 220.22 519.268 228.406 527.874 244.446C536.48 260.486 536.869 288.784 518.801 320.699C502.171 349.826 475.785 372.317 453.203 385.375C386.507 424.104 340.866 403.812 282.763 416.298C260.293 421.124 231.168 434.796 208.098 466.035Z" fill="#0D2537"/>
</g>
<g filter="url(#filter1_d_2952_3571)">
<g filter="url(#filter2_di_2952_3571)">
<path d="M235.024 286.055C231.532 299.63 224.295 311.951 214.139 321.613C203.983 331.275 191.317 337.888 177.584 340.7C163.851 343.512 149.605 342.408 136.469 337.515C123.333 332.622 111.836 324.137 103.29 313.026C109.785 306.24 115.907 299.106 121.629 291.656C128.575 282.5 133.177 271.784 135.034 260.443C136.242 252.458 134.963 244.295 131.37 237.063C129.539 234.224 127.993 231.21 126.756 228.067C123.88 218.78 130.268 209.528 134.867 200.999C135.529 199.78 136.186 198.526 136.735 197.251C149.536 192.534 163.384 191.409 176.78 193.997C190.175 196.585 202.607 202.788 212.73 211.934C222.853 221.08 230.281 232.821 234.211 245.886C238.141 258.951 238.422 272.842 235.024 286.055Z" fill="url(#paint0_radial_2952_3571)"/>
<path d="M235.024 286.055C231.532 299.63 224.295 311.951 214.139 321.613C203.983 331.275 191.317 337.888 177.584 340.7C163.851 343.512 149.605 342.408 136.469 337.515C123.333 332.622 111.836 324.137 103.29 313.026C109.785 306.24 115.907 299.106 121.629 291.656C128.575 282.5 133.177 271.784 135.034 260.443C136.242 252.458 134.963 244.295 131.37 237.063C129.539 234.224 127.993 231.21 126.756 228.067C123.88 218.78 130.268 209.528 134.867 200.999C135.529 199.78 136.186 198.526 136.735 197.251C149.536 192.534 163.384 191.409 176.78 193.997C190.175 196.585 202.607 202.788 212.73 211.934C222.853 221.08 230.281 232.821 234.211 245.886C238.141 258.951 238.422 272.842 235.024 286.055Z" fill="url(#paint1_angular_2952_3571)" fill-opacity="0.2"/>
</g>
<path d="M182.898 266.784C182.896 269.94 181.98 273.027 180.26 275.673C178.54 278.318 176.091 280.409 173.208 281.691C170.325 282.974 167.132 283.394 164.015 282.9C160.899 282.405 157.992 281.019 155.647 278.907C153.302 276.796 151.62 274.05 150.803 271.002C149.986 267.954 150.07 264.735 151.044 261.734C152.018 258.732 153.842 256.078 156.293 254.091C158.745 252.105 161.72 250.871 164.858 250.54C169.401 250.314 173.849 251.896 177.229 254.94C180.609 257.984 182.647 262.242 182.898 266.784Z" fill="url(#paint2_linear_2952_3571)"/>
<path opacity="0.41" d="M181.878 269.518C182.875 265.313 182.168 260.885 179.91 257.2C177.652 253.516 174.028 250.874 169.829 249.853C167.668 249.486 165.453 249.606 163.345 250.206C161.237 250.805 159.29 251.869 157.646 253.319C160.098 252.034 162.897 251.568 165.633 251.99C168.369 252.412 170.898 253.7 172.848 255.664C180.48 263.227 177.57 277.635 168.257 282.527C167.335 282.999 166.375 283.394 165.387 283.707C169.387 283.736 173.262 282.314 176.294 279.706C179.326 277.097 181.31 273.477 181.878 269.518Z" fill="url(#paint3_linear_2952_3571)"/>
<path d="M178.316 337.468C173.898 338.505 169.926 337.676 169.442 335.612C168.958 333.548 172.146 331.038 176.563 330.001C180.981 328.963 184.953 329.795 185.437 331.856C185.921 333.917 182.733 336.43 178.316 337.468Z" fill="url(#paint4_linear_2952_3571)"/>
<path d="M178.316 337.468C173.898 338.505 169.926 337.676 169.442 335.612C168.958 333.548 172.146 331.038 176.563 330.001C180.981 328.963 184.953 329.795 185.437 331.856C185.921 333.917 182.733 336.43 178.316 337.468Z" fill="url(#paint5_linear_2952_3571)"/>
<path d="M141.046 312.332C145.39 318.329 146.086 325.234 142.603 327.746C139.121 330.258 132.774 327.456 128.43 321.462C124.085 315.469 123.39 308.563 126.875 306.047C130.361 303.531 136.703 306.356 141.046 312.332Z" fill="url(#paint6_linear_2952_3571)"/>
<path opacity="0.74" d="M141.043 312.332C136.698 306.339 130.35 303.525 126.873 306.047C126.144 306.608 125.585 307.36 125.26 308.22C128.397 307.753 131.597 308.441 134.265 310.159C142.176 315.545 143.974 322.414 142.381 327.863C142.45 327.822 142.533 327.805 142.602 327.757C146.083 325.234 145.387 318.326 141.043 312.332Z" fill="url(#paint7_linear_2952_3571)"/>
<path d="M223.262 251.937C224.833 257.376 223.535 262.521 220.383 263.434C217.231 264.347 213.393 260.677 211.822 255.242C210.252 249.806 211.549 244.657 214.702 243.744C217.854 242.831 221.692 246.501 223.262 251.937Z" fill="url(#paint8_linear_2952_3571)"/>
<path opacity="0.6" d="M223.262 251.937C221.692 246.501 217.854 242.832 214.702 243.744C213.951 244.031 213.284 244.499 212.757 245.106C212.231 245.712 211.863 246.44 211.686 247.223C214.906 243.449 219.039 246.45 220.415 250.377C222.254 255.584 222.86 261.301 218.838 263.506C219.352 263.596 219.879 263.575 220.384 263.445C223.542 262.521 224.833 257.376 223.262 251.937Z" fill="url(#paint9_linear_2952_3571)"/>
<path d="M197.163 206.382C200.454 208.06 202.334 210.969 201.358 212.881C200.383 214.792 196.927 214.988 193.635 213.31C190.344 211.633 188.465 208.727 189.436 206.812C190.408 204.898 193.868 204.709 197.163 206.382Z" fill="url(#paint10_linear_2952_3571)"/>
<path opacity="0.58" d="M196.402 207.908C197.522 208.393 198.526 209.11 199.346 210.013C200.167 210.915 200.786 211.983 201.162 213.143C201.233 213.061 201.298 212.974 201.356 212.881C202.333 210.984 200.452 208.06 197.16 206.383C193.869 204.705 190.409 204.901 189.434 206.813C189.397 206.888 189.391 206.978 189.362 207.056C190.529 206.694 191.76 206.583 192.973 206.73C194.186 206.877 195.355 207.279 196.402 207.908Z" fill="url(#paint11_linear_2952_3571)"/>
<path d="M209.415 308.351C204.88 314.21 197.96 316.447 193.953 313.349C189.946 310.25 190.38 302.986 194.916 297.126C199.451 291.267 206.374 289.03 210.378 292.128C214.381 295.227 213.951 302.491 209.415 308.351Z" fill="url(#paint12_linear_2952_3571)"/>
<path opacity="0.66" d="M210.379 292.128C209.241 291.354 207.926 290.881 206.556 290.752C205.186 290.624 203.806 290.845 202.544 291.394C203.795 291.543 204.985 292.012 206.002 292.756C207.43 294.069 208.406 295.802 208.789 297.705C209.173 299.607 208.943 301.582 208.135 303.347C206.966 306.254 204.922 308.725 202.286 310.418C199.65 312.111 196.552 312.942 193.423 312.795C193.59 312.989 193.767 313.174 193.954 313.349C197.961 316.447 204.881 314.21 209.416 308.351C213.952 302.491 214.382 295.227 210.379 292.128Z" fill="url(#paint13_linear_2952_3571)"/>
<path d="M146.123 211.144C154.117 210.219 161.029 213.23 161.57 217.874C162.111 222.517 156.067 227.031 148.074 227.959C140.081 228.888 133.172 225.876 132.631 221.233C132.09 216.589 138.132 212.061 146.123 211.144Z" fill="url(#paint14_linear_2952_3571)"/>
<g filter="url(#filter3_i_2952_3571)">
<path d="M161.572 217.863C161.031 213.219 154.119 210.208 146.125 211.133C139.279 211.927 133.887 215.365 132.825 219.253C132.924 219.17 133.045 219.115 133.152 219.038C135.856 216.753 138.966 214.999 142.32 213.867C146.586 212.479 154.996 211.981 157.705 216.63C159.364 219.479 156.855 223.944 151.292 227.343C157.615 225.743 162.034 221.856 161.572 217.863Z" fill="url(#paint15_linear_2952_3571)"/>
</g>
</g>
<g filter="url(#filter4_di_2952_3571)">
<path fill-rule="evenodd" clip-rule="evenodd" d="M827.307 418.347L827.084 418.83C826.076 421.134 825.034 423.367 823.943 425.583C822.542 428.367 821.036 431.112 819.355 433.683C818.722 434.703 818.088 435.72 817.419 436.672C811.987 444.865 805.547 452.074 798.214 458.278C792.779 463.012 786.803 467.101 780.495 470.61L780.424 470.643C777.546 472.27 774.546 473.744 771.544 475.044C743.514 487.52 710.036 488.454 678.772 474.82C644.608 459.914 620.756 430.974 611.649 398.212C610.976 395.871 610.376 393.5 609.894 391.116C608.95 386.979 608.32 382.781 607.948 378.508C607.858 377.738 607.765 376.969 607.745 376.169C607.484 373.295 607.398 370.43 607.431 367.552C607.406 363.46 607.624 359.341 608.118 355.268C608.38 352.922 608.711 350.548 609.199 348.228C609.786 344.924 610.56 341.571 611.49 338.279C612.642 334.159 614.054 330.131 615.69 326.128C616.064 325.185 616.49 324.259 616.916 323.338C618.162 320.497 619.564 317.712 621.106 315.035C622.558 312.439 624.098 309.933 625.78 307.532C631.471 298.921 638.378 291.371 646.172 284.992C648.133 283.318 650.252 281.698 652.387 280.201C670.313 267.429 692.08 260.24 714.75 259.725C731.075 259.364 747.959 262.551 764.189 269.583C782.587 277.621 798.038 289.763 809.731 304.403C810.305 305.121 810.917 305.908 811.493 306.624C813.895 309.701 816.096 312.874 818.072 316.194C818.454 316.784 818.787 317.357 819.119 317.93C826.911 330.828 832.084 345.108 834.298 359.853C834.84 363.279 835.208 366.701 835.384 370.165C835.578 373.579 835.634 377.059 835.531 380.481C835.039 393.23 832.42 406.065 827.307 418.347Z" fill="url(#paint16_radial_2952_3571)"/>
<path fill-rule="evenodd" clip-rule="evenodd" d="M827.307 418.347L827.084 418.83C826.076 421.134 825.034 423.367 823.943 425.583C822.542 428.367 821.036 431.112 819.355 433.683C818.722 434.703 818.088 435.72 817.419 436.672C811.987 444.865 805.547 452.074 798.214 458.278C792.779 463.012 786.803 467.101 780.495 470.61L780.424 470.643C777.546 472.27 774.546 473.744 771.544 475.044C743.514 487.52 710.036 488.454 678.772 474.82C644.608 459.914 620.756 430.974 611.649 398.212C610.976 395.871 610.376 393.5 609.894 391.116C608.95 386.979 608.32 382.781 607.948 378.508C607.858 377.738 607.765 376.969 607.745 376.169C607.484 373.295 607.398 370.43 607.431 367.552C607.406 363.46 607.624 359.341 608.118 355.268C608.38 352.922 608.711 350.548 609.199 348.228C609.786 344.924 610.56 341.571 611.49 338.279C612.642 334.159 614.054 330.131 615.69 326.128C616.064 325.185 616.49 324.259 616.916 323.338C618.162 320.497 619.564 317.712 621.106 315.035C622.558 312.439 624.098 309.933 625.78 307.532C631.471 298.921 638.378 291.371 646.172 284.992C648.133 283.318 650.252 281.698 652.387 280.201C670.313 267.429 692.08 260.24 714.75 259.725C731.075 259.364 747.959 262.551 764.189 269.583C782.587 277.621 798.038 289.763 809.731 304.403C810.305 305.121 810.917 305.908 811.493 306.624C813.895 309.701 816.096 312.874 818.072 316.194C818.454 316.784 818.787 317.357 819.119 317.93C826.911 330.828 832.084 345.108 834.298 359.853C834.84 363.279 835.208 366.701 835.384 370.165C835.578 373.579 835.634 377.059 835.531 380.481C835.039 393.23 832.42 406.065 827.307 418.347Z" fill="url(#paint17_angular_2952_3571)" fill-opacity="0.2"/>
</g>
<path fill-rule="evenodd" clip-rule="evenodd" d="M818.103 316.197C804.876 311.851 772.418 305.082 724.555 319.855C674.951 335.173 645.616 335.1 628.594 323.425C625.457 321.266 623.018 318.274 621.132 315.066C628.964 300.893 639.764 289.145 652.384 280.178C653.712 286.827 657.668 294.336 668.081 297.57C683.516 302.367 717.267 304.198 753.273 300.2C779.83 297.249 799.882 301.505 809.74 304.382C812.791 308.153 815.596 312.098 818.103 316.197Z" fill="url(#paint18_linear_2952_3571)"/>
<path fill-rule="evenodd" clip-rule="evenodd" d="M827.295 418.356L827.096 418.838C820.911 413.591 805.842 402.429 784.243 396.702C731.398 382.693 673.667 389.138 642.734 377.301C624.864 370.477 613.895 361.272 608.134 355.301C608.744 349.613 609.882 343.921 611.529 338.285C617.445 342.905 629.235 350.14 647.098 352.765C674.019 356.668 703.1 343.581 742.861 342.924C782.602 342.314 813.84 349.911 833.058 359.25C833.507 359.447 833.931 359.688 834.327 359.864C837.28 379.19 835.207 399.339 827.295 418.356Z" fill="url(#paint19_linear_2952_3571)"/>
<path fill-rule="evenodd" clip-rule="evenodd" d="M817.43 436.695C807.894 451.035 795.165 462.51 780.488 470.636L780.419 470.662C763.921 473.941 738.534 471.445 711.715 459.7C663.721 438.672 624.852 408.371 609.885 391.126C608.976 386.985 608.326 382.788 607.933 378.531C619.325 388.546 649.665 412.492 690.982 424.822C744.118 440.66 764.499 437.231 793.637 436.935C803.616 436.858 811.442 436.751 817.43 436.695Z" fill="url(#paint20_linear_2952_3571)"/>
<g filter="url(#filter5_dii_2952_3571)">
<path fill-rule="evenodd" clip-rule="evenodd" d="M817.919 316.199C804.692 311.852 772.234 305.084 724.371 319.857C674.767 335.175 645.432 335.102 628.41 323.426C625.273 321.268 622.834 318.275 620.949 315.068C628.78 300.895 639.581 289.147 652.201 280.18C653.528 286.829 657.485 294.338 667.897 297.572C683.333 302.369 717.084 304.2 753.09 300.202C779.646 297.251 799.698 301.507 809.557 304.384C812.608 308.154 815.412 312.099 817.919 316.199Z" fill="url(#paint21_linear_2952_3571)"/>
</g>
<g filter="url(#filter6_dii_2952_3571)">
<path fill-rule="evenodd" clip-rule="evenodd" d="M827.699 418.189L827.5 418.67C821.316 413.423 806.246 402.261 784.648 396.534C731.802 382.525 674.072 388.97 643.138 377.134C625.268 370.31 614.3 361.105 608.538 355.133C609.149 349.445 610.286 343.754 611.933 338.117C617.849 342.737 629.639 349.973 647.502 352.597C674.423 356.501 703.504 343.413 743.265 342.756C783.006 342.146 814.244 349.744 833.463 359.083C833.911 359.279 834.335 359.52 834.731 359.696C837.684 379.022 835.611 399.171 827.699 418.189Z" fill="url(#paint22_linear_2952_3571)"/>
</g>
<g filter="url(#filter7_dii_2952_3571)">
<path fill-rule="evenodd" clip-rule="evenodd" d="M817.559 436.457C808.023 450.797 795.293 462.272 780.617 470.398L780.548 470.423C764.05 473.703 738.663 471.206 711.844 459.462C663.85 438.433 624.981 408.133 610.014 390.888C609.105 386.746 608.455 382.55 608.062 378.293C619.454 388.307 649.794 412.253 691.11 424.584C744.247 440.421 764.628 436.992 793.766 436.696C803.745 436.619 811.571 436.512 817.559 436.457Z" fill="url(#paint23_linear_2952_3571)"/>
</g>
</g>
</g>
<defs>
<filter id="filter0_di_2952_3571" x="15.4941" y="-25.0447" width="641.455" height="808.475" filterUnits="userSpaceOnUse" color-interpolation-filters="sRGB">
<feFlood flood-opacity="0" result="BackgroundImageFix"/>
<feColorMatrix in="SourceAlpha" type="matrix" values="0 0 0 0 0 0 0 0 0 0 0 0 0 0 0 0 0 0 127 0" result="hardAlpha"/>
<feOffset dx="20" dy="84"/>
<feGaussianBlur stdDeviation="22"/>
<feComposite in2="hardAlpha" operator="out"/>
<feColorMatrix type="matrix" values="0 0 0 0 0 0 0 0 0 0.254464 0 0 0 0 0.375 0 0 0 0.38 0"/>
<feBlend mode="normal" in2="BackgroundImageFix" result="effect1_dropShadow_2952_3571"/>
<feBlend mode="normal" in="SourceGraphic" in2="effect1_dropShadow_2952_3571" result="shape"/>
<feColorMatrix in="SourceAlpha" type="matrix" values="0 0 0 0 0 0 0 0 0 0 0 0 0 0 0 0 0 0 127 0" result="hardAlpha"/>
<feOffset dy="7"/>
<feGaussianBlur stdDeviation="12"/>
<feComposite in2="hardAlpha" operator="arithmetic" k2="-1" k3="1"/>
<feColorMatrix type="matrix" values="0 0 0 0 1 0 0 0 0 1 0 0 0 0 1 0 0 0 0.29 0"/>
<feBlend mode="normal" in2="shape" result="effect2_innerShadow_2952_3571"/>
</filter>
<filter id="filter1_d_2952_3571" x="99.2891" y="192.639" width="142.092" height="157.581" filterUnits="userSpaceOnUse" color-interpolation-filters="sRGB">
<feFlood flood-opacity="0" result="BackgroundImageFix"/>
<feColorMatrix in="SourceAlpha" type="matrix" values="0 0 0 0 0 0 0 0 0 0 0 0 0 0 0 0 0 0 127 0" result="hardAlpha"/>
<feOffset dy="4"/>
<feGaussianBlur stdDeviation="2"/>
<feComposite in2="hardAlpha" operator="out"/>
<feColorMatrix type="matrix" values="0 0 0 0 0 0 0 0 0 0 0 0 0 0 0 0 0 0 0.25 0"/>
<feBlend mode="normal" in2="BackgroundImageFix" result="effect1_dropShadow_2952_3571"/>
<feBlend mode="normal" in="SourceGraphic" in2="effect1_dropShadow_2952_3571" result="shape"/>
</filter>
<filter id="filter2_di_2952_3571" x="103.289" y="192.639" width="158.092" height="237.581" filterUnits="userSpaceOnUse" color-interpolation-filters="sRGB">
<feFlood flood-opacity="0" result="BackgroundImageFix"/>
<feColorMatrix in="SourceAlpha" type="matrix" values="0 0 0 0 0 0 0 0 0 0 0 0 0 0 0 0 0 0 127 0" result="hardAlpha"/>
<feMorphology radius="40" operator="erode" in="SourceAlpha" result="effect1_dropShadow_2952_3571"/>
<feOffset dx="20" dy="84"/>
<feGaussianBlur stdDeviation="22"/>
<feComposite in2="hardAlpha" operator="out"/>
<feColorMatrix type="matrix" values="0 0 0 0 0 0 0 0 0 0.254464 0 0 0 0 0.375 0 0 0 0.38 0"/>
<feBlend mode="normal" in2="BackgroundImageFix" result="effect1_dropShadow_2952_3571"/>
<feBlend mode="normal" in="SourceGraphic" in2="effect1_dropShadow_2952_3571" result="shape"/>
<feColorMatrix in="SourceAlpha" type="matrix" values="0 0 0 0 0 0 0 0 0 0 0 0 0 0 0 0 0 0 127 0" result="hardAlpha"/>
<feOffset dy="7"/>
<feGaussianBlur stdDeviation="12"/>
<feComposite in2="hardAlpha" operator="arithmetic" k2="-1" k3="1"/>
<feColorMatrix type="matrix" values="0 0 0 0 1 0 0 0 0 1 0 0 0 0 1 0 0 0 0.63 0"/>
<feBlend mode="normal" in2="shape" result="effect2_innerShadow_2952_3571"/>
</filter>
<filter id="filter3_i_2952_3571" x="132.824" y="210.966" width="28.7812" height="20.3774" filterUnits="userSpaceOnUse" color-interpolation-filters="sRGB">
<feFlood flood-opacity="0" result="BackgroundImageFix"/>
<feBlend mode="normal" in="SourceGraphic" in2="BackgroundImageFix" result="shape"/>
<feColorMatrix in="SourceAlpha" type="matrix" values="0 0 0 0 0 0 0 0 0 0 0 0 0 0 0 0 0 0 127 0" result="hardAlpha"/>
<feOffset dy="4"/>
<feGaussianBlur stdDeviation="2"/>
<feComposite in2="hardAlpha" operator="arithmetic" k2="-1" k3="1"/>
<feColorMatrix type="matrix" values="0 0 0 0 0 0 0 0 0 0 0 0 0 0 0 0 0 0 0.25 0"/>
<feBlend mode="normal" in2="shape" result="effect1_innerShadow_2952_3571"/>
</filter>
<filter id="filter4_di_2952_3571" x="607.424" y="259.697" width="252.158" height="313.028" filterUnits="userSpaceOnUse" color-interpolation-filters="sRGB">
<feFlood flood-opacity="0" result="BackgroundImageFix"/>
<feColorMatrix in="SourceAlpha" type="matrix" values="0 0 0 0 0 0 0 0 0 0 0 0 0 0 0 0 0 0 127 0" result="hardAlpha"/>
<feMorphology radius="40" operator="erode" in="SourceAlpha" result="effect1_dropShadow_2952_3571"/>
<feOffset dx="20" dy="84"/>
<feGaussianBlur stdDeviation="22"/>
<feComposite in2="hardAlpha" operator="out"/>
<feColorMatrix type="matrix" values="0 0 0 0 0 0 0 0 0 0.254464 0 0 0 0 0.375 0 0 0 0.38 0"/>
<feBlend mode="normal" in2="BackgroundImageFix" result="effect1_dropShadow_2952_3571"/>
<feBlend mode="normal" in="SourceGraphic" in2="effect1_dropShadow_2952_3571" result="shape"/>
<feColorMatrix in="SourceAlpha" type="matrix" values="0 0 0 0 0 0 0 0 0 0 0 0 0 0 0 0 0 0 127 0" result="hardAlpha"/>
<feOffset dy="7"/>
<feGaussianBlur stdDeviation="12"/>
<feComposite in2="hardAlpha" operator="arithmetic" k2="-1" k3="1"/>
<feColorMatrix type="matrix" values="0 0 0 0 1 0 0 0 0 1 0 0 0 0 1 0 0 0 0.63 0"/>
<feBlend mode="normal" in2="shape" result="effect2_innerShadow_2952_3571"/>
</filter>
<filter id="filter5_dii_2952_3571" x="583.342" y="261.376" width="272.184" height="126.841" filterUnits="userSpaceOnUse" color-interpolation-filters="sRGB">
<feFlood flood-opacity="0" result="BackgroundImageFix"/>
<feColorMatrix in="SourceAlpha" type="matrix" values="0 0 0 0 0 0 0 0 0 0 0 0 0 0 0 0 0 0 127 0" result="hardAlpha"/>
<feOffset dy="18.8034"/>
<feGaussianBlur stdDeviation="18.8034"/>
<feColorMatrix type="matrix" values="0 0 0 0 0.00862745 0 0 0 0 0.0588235 0 0 0 0 0.0760784 0 0 0 0.25 0"/>
<feBlend mode="normal" in2="BackgroundImageFix" result="effect1_dropShadow_2952_3571"/>
<feBlend mode="normal" in="SourceGraphic" in2="effect1_dropShadow_2952_3571" result="shape"/>
<feColorMatrix in="SourceAlpha" type="matrix" values="0 0 0 0 0 0 0 0 0 0 0 0 0 0 0 0 0 0 127 0" result="hardAlpha"/>
<feOffset dy="6.26781"/>
<feGaussianBlur stdDeviation="3.1339"/>
<feComposite in2="hardAlpha" operator="arithmetic" k2="-1" k3="1"/>
<feColorMatrix type="matrix" values="0 0 0 0 0.0500392 0 0 0 0 0.341176 0 0 0 0 0.441255 0 0 0 1 0"/>
<feBlend mode="normal" in2="shape" result="effect2_innerShadow_2952_3571"/>
<feColorMatrix in="SourceAlpha" type="matrix" values="0 0 0 0 0 0 0 0 0 0 0 0 0 0 0 0 0 0 127 0" result="hardAlpha"/>
<feOffset dy="-6.26781"/>
<feGaussianBlur stdDeviation="3.1339"/>
<feComposite in2="hardAlpha" operator="arithmetic" k2="-1" k3="1"/>
<feColorMatrix type="matrix" values="0 0 0 0 0.0345098 0 0 0 0 0.235294 0 0 0 0 0.304314 0 0 0 1 0"/>
<feBlend mode="normal" in2="effect2_innerShadow_2952_3571" result="effect3_innerShadow_2952_3571"/>
</filter>
<filter id="filter6_dii_2952_3571" x="561.856" y="314.776" width="320.839" height="173.919" filterUnits="userSpaceOnUse" color-interpolation-filters="sRGB">
<feFlood flood-opacity="0" result="BackgroundImageFix"/>
<feColorMatrix in="SourceAlpha" type="matrix" values="0 0 0 0 0 0 0 0 0 0 0 0 0 0 0 0 0 0 127 0" result="hardAlpha"/>
<feOffset dy="23.3415"/>
<feGaussianBlur stdDeviation="23.3415"/>
<feColorMatrix type="matrix" values="0 0 0 0 0.00862745 0 0 0 0 0.0588235 0 0 0 0 0.0760784 0 0 0 0.25 0"/>
<feBlend mode="normal" in2="BackgroundImageFix" result="effect1_dropShadow_2952_3571"/>
<feBlend mode="normal" in="SourceGraphic" in2="effect1_dropShadow_2952_3571" result="shape"/>
<feColorMatrix in="SourceAlpha" type="matrix" values="0 0 0 0 0 0 0 0 0 0 0 0 0 0 0 0 0 0 127 0" result="hardAlpha"/>
<feOffset dy="7.7805"/>
<feGaussianBlur stdDeviation="3.89025"/>
<feComposite in2="hardAlpha" operator="arithmetic" k2="-1" k3="1"/>
<feColorMatrix type="matrix" values="0 0 0 0 0.0500392 0 0 0 0 0.341176 0 0 0 0 0.441255 0 0 0 1 0"/>
<feBlend mode="normal" in2="shape" result="effect2_innerShadow_2952_3571"/>
<feColorMatrix in="SourceAlpha" type="matrix" values="0 0 0 0 0 0 0 0 0 0 0 0 0 0 0 0 0 0 127 0" result="hardAlpha"/>
<feOffset dy="-7.7805"/>
<feGaussianBlur stdDeviation="3.89025"/>
<feComposite in2="hardAlpha" operator="arithmetic" k2="-1" k3="1"/>
<feColorMatrix type="matrix" values="0 0 0 0 0.0345098 0 0 0 0 0.235294 0 0 0 0 0.304314 0 0 0 1 0"/>
<feBlend mode="normal" in2="effect2_innerShadow_2952_3571" result="effect3_innerShadow_2952_3571"/>
</filter>
<filter id="filter7_dii_2952_3571" x="569.199" y="358.861" width="287.223" height="171.183" filterUnits="userSpaceOnUse" color-interpolation-filters="sRGB">
<feFlood flood-opacity="0" result="BackgroundImageFix"/>
<feColorMatrix in="SourceAlpha" type="matrix" values="0 0 0 0 0 0 0 0 0 0 0 0 0 0 0 0 0 0 127 0" result="hardAlpha"/>
<feOffset dy="19.4317"/>
<feGaussianBlur stdDeviation="19.4317"/>
<feColorMatrix type="matrix" values="0 0 0 0 0.00862745 0 0 0 0 0.0588235 0 0 0 0 0.0760784 0 0 0 0.25 0"/>
<feBlend mode="normal" in2="BackgroundImageFix" result="effect1_dropShadow_2952_3571"/>
<feBlend mode="normal" in="SourceGraphic" in2="effect1_dropShadow_2952_3571" result="shape"/>
<feColorMatrix in="SourceAlpha" type="matrix" values="0 0 0 0 0 0 0 0 0 0 0 0 0 0 0 0 0 0 127 0" result="hardAlpha"/>
<feOffset dy="6.47725"/>
<feGaussianBlur stdDeviation="3.23862"/>
<feComposite in2="hardAlpha" operator="arithmetic" k2="-1" k3="1"/>
<feColorMatrix type="matrix" values="0 0 0 0 0.0500392 0 0 0 0 0.341176 0 0 0 0 0.441255 0 0 0 1 0"/>
<feBlend mode="normal" in2="shape" result="effect2_innerShadow_2952_3571"/>
<feColorMatrix in="SourceAlpha" type="matrix" values="0 0 0 0 0 0 0 0 0 0 0 0 0 0 0 0 0 0 127 0" result="hardAlpha"/>
<feOffset dy="-6.47725"/>
<feGaussianBlur stdDeviation="3.23862"/>
<feComposite in2="hardAlpha" operator="arithmetic" k2="-1" k3="1"/>
<feColorMatrix type="matrix" values="0 0 0 0 0.0345098 0 0 0 0 0.235294 0 0 0 0 0.304314 0 0 0 1 0"/>
<feBlend mode="normal" in2="effect2_innerShadow_2952_3571" result="effect3_innerShadow_2952_3571"/>
</filter>
<radialGradient id="paint0_radial_2952_3571" cx="0" cy="0" r="1" gradientUnits="userSpaceOnUse" gradientTransform="translate(159 262) rotate(121.729) scale(77.0097 101.329)">
<stop stop-color="#33C4D8"/>
<stop offset="0.526042" stop-color="#1B93A3"/>
<stop offset="1" stop-color="#106470"/>
</radialGradient>
<radialGradient id="paint1_angular_2952_3571" cx="0" cy="0" r="1" gradientUnits="userSpaceOnUse" gradientTransform="translate(167.671 266.787) rotate(100.527) scale(70.979 77.2323)">
<stop offset="0.132476" stop-color="#1A8C9C" stop-opacity="0.85"/>
<stop offset="0.615534" stop-color="#144D55" stop-opacity="0.66"/>
</radialGradient>
<linearGradient id="paint2_linear_2952_3571" x1="169.657" y1="287.119" x2="166.799" y2="235.778" gradientUnits="userSpaceOnUse">
<stop offset="0.004" stop-color="#0B6375"/>
<stop offset="1" stop-color="#0A2239"/>
</linearGradient>
<linearGradient id="paint3_linear_2952_3571" x1="152.588" y1="274.002" x2="190.114" y2="263.44" gradientUnits="userSpaceOnUse">
<stop offset="0.004" stop-color="#0A2239"/>
<stop offset="1" stop-color="#0B6375"/>
</linearGradient>
<linearGradient id="paint4_linear_2952_3571" x1="142.971" y1="231.521" x2="143.971" y2="217.417" gradientUnits="userSpaceOnUse">
<stop offset="0.004" stop-color="#0B6375"/>
<stop offset="1" stop-color="#0A2239"/>
</linearGradient>
<linearGradient id="paint5_linear_2952_3571" x1="207.116" y1="331.08" x2="204.386" y2="318.772" gradientUnits="userSpaceOnUse">
<stop offset="0.004" stop-color="#0A2239"/>
<stop offset="1" stop-color="#0B6375"/>
</linearGradient>
<linearGradient id="paint6_linear_2952_3571" x1="95.7697" y1="414.734" x2="113.872" y2="399.094" gradientUnits="userSpaceOnUse">
<stop offset="0.004" stop-color="#0B6375"/>
<stop offset="1" stop-color="#0A2239"/>
</linearGradient>
<linearGradient id="paint7_linear_2952_3571" x1="150.713" y1="336.823" x2="167.344" y2="317.509" gradientUnits="userSpaceOnUse">
<stop offset="0.004" stop-color="#0B6375"/>
<stop offset="1" stop-color="#0A2239"/>
</linearGradient>
<linearGradient id="paint8_linear_2952_3571" x1="211.873" y1="250.227" x2="210.253" y2="206.448" gradientUnits="userSpaceOnUse">
<stop offset="0.004" stop-color="#0B6375"/>
<stop offset="1" stop-color="#0A2239"/>
</linearGradient>
<linearGradient id="paint9_linear_2952_3571" x1="201.089" y1="239.11" x2="219.885" y2="234.26" gradientUnits="userSpaceOnUse">
<stop offset="0.004" stop-color="#0B6375"/>
<stop offset="1" stop-color="#0A2239"/>
</linearGradient>
<linearGradient id="paint10_linear_2952_3571" x1="183.702" y1="206.798" x2="163.992" y2="190.588" gradientUnits="userSpaceOnUse">
<stop offset="0.004" stop-color="#0B6375"/>
<stop offset="1" stop-color="#0A2239"/>
</linearGradient>
<linearGradient id="paint11_linear_2952_3571" x1="171.293" y1="208.52" x2="173.27" y2="194.616" gradientUnits="userSpaceOnUse">
<stop offset="0.004" stop-color="#0A2239"/>
<stop offset="1" stop-color="#0B6375"/>
</linearGradient>
<linearGradient id="paint12_linear_2952_3571" x1="202.361" y1="302.274" x2="226.51" y2="267.052" gradientUnits="userSpaceOnUse">
<stop offset="0.004" stop-color="#0B6375"/>
<stop offset="0.9997" stop-color="#0A2239"/>
<stop offset="0.9998" stop-color="#C77FBB"/>
<stop offset="0.9999" stop-color="#C77FBB"/>
<stop offset="1" stop-color="#0A2239"/>
</linearGradient>
<linearGradient id="paint13_linear_2952_3571" x1="200.135" y1="277.229" x2="224.741" y2="288.695" gradientUnits="userSpaceOnUse">
<stop offset="0.004" stop-color="#0A2239"/>
<stop offset="1" stop-color="#0B6375"/>
</linearGradient>
<linearGradient id="paint14_linear_2952_3571" x1="134.818" y1="216.001" x2="135.223" y2="258.757" gradientUnits="userSpaceOnUse">
<stop offset="0.004" stop-color="#0B6375"/>
<stop offset="1" stop-color="#0A2239"/>
</linearGradient>
<linearGradient id="paint15_linear_2952_3571" x1="114.461" y1="245.827" x2="124.687" y2="211.268" gradientUnits="userSpaceOnUse">
<stop offset="0.004" stop-color="#0A2239"/>
<stop offset="1" stop-color="#0B6375"/>
</linearGradient>
<radialGradient id="paint16_radial_2952_3571" cx="0" cy="0" r="1" gradientUnits="userSpaceOnUse" gradientTransform="translate(750.932 379.177) rotate(93.6961) scale(107.326 149.387)">
<stop stop-color="#2BC2D6"/>
<stop offset="0.526042" stop-color="#188391"/>
<stop offset="1" stop-color="#1F6B75"/>
</radialGradient>
<radialGradient id="paint17_angular_2952_3571" cx="0" cy="0" r="1" gradientUnits="userSpaceOnUse" gradientTransform="translate(721.508 372.231) rotate(105.281) scale(106.517 126.645)">
<stop offset="0.132476" stop-color="#198796" stop-opacity="0.35"/>
<stop offset="0.615534" stop-color="#245F67" stop-opacity="0.66"/>
</radialGradient>
<linearGradient id="paint18_linear_2952_3571" x1="817.377" y1="413.447" x2="643.453" y2="426.624" gradientUnits="userSpaceOnUse">
<stop stop-color="#0C7489"/>
<stop offset="1" stop-color="#0A2239"/>
</linearGradient>
<linearGradient id="paint19_linear_2952_3571" x1="867.113" y1="493.375" x2="658.576" y2="535.698" gradientUnits="userSpaceOnUse">
<stop stop-color="#0C7489"/>
<stop offset="1" stop-color="#0A2239"/>
</linearGradient>
<linearGradient id="paint20_linear_2952_3571" x1="839.146" y1="526.956" x2="685.762" y2="582.728" gradientUnits="userSpaceOnUse">
<stop stop-color="#0C7489"/>
<stop offset="1" stop-color="#0A2239"/>
</linearGradient>
<linearGradient id="paint21_linear_2952_3571" x1="754.056" y1="265.594" x2="685.667" y2="363.445" gradientUnits="userSpaceOnUse">
<stop stop-color="#0C546D"/>
<stop offset="1" stop-color="#093F51"/>
</linearGradient>
<linearGradient id="paint22_linear_2952_3571" x1="766.241" y1="311.827" x2="693.323" y2="416.158" gradientUnits="userSpaceOnUse">
<stop stop-color="#0C546D"/>
<stop offset="1" stop-color="#093F51"/>
</linearGradient>
<linearGradient id="paint23_linear_2952_3571" x1="733.542" y1="377.736" x2="684.039" y2="448.565" gradientUnits="userSpaceOnUse">
<stop stop-color="#0C546D"/>
<stop offset="1" stop-color="#093F51"/>
</linearGradient>
</defs>
</svg>
