<svg width="77" height="78" viewBox="0 0 77 78" fill="none" xmlns="http://www.w3.org/2000/svg">
<path d="M0.5 38.9985C0.5 59.9528 17.5464 76.9991 38.4995 76.9991C59.4536 76.9991 76.5 59.9528 76.5001 38.9985C76.5001 18.0453 59.4535 0.999023 38.4995 0.999023C17.5464 0.999023 0.5 18.0454 0.5 38.9985ZM4.34371 38.9987C4.34371 20.1659 19.6668 4.84286 38.4995 4.84286C57.3333 4.84286 72.6563 20.1659 72.6563 38.9987C72.6563 57.8324 57.3331 73.1554 38.4995 73.1554C19.6668 73.1554 4.34371 57.8322 4.34371 38.9987Z" fill="#0FA3B1" stroke="#0FA3B1"/>
<path d="M54.7251 25.5547C51.185 25.5547 47.8418 26.9612 45.4449 29.41L38.5001 35.6892L38.4879 35.6766L34.7635 39.0296L34.7881 39.0547L28.1629 45.0574C27.389 45.8452 26.4706 46.4693 25.4603 46.8938C24.45 47.3183 23.3676 47.535 22.2752 47.5314C17.6781 47.5314 13.9415 43.7263 13.9415 39.0547C13.9415 34.3831 17.6781 30.578 22.2752 30.578C24.5 30.578 26.5896 31.4571 28.2735 33.165L31.0635 35.6892L34.7756 32.3361L31.6658 29.5231C30.433 28.2638 28.9687 27.266 27.357 26.5871C25.7454 25.9082 24.0182 25.5616 22.275 25.5673C14.9491 25.5547 9 31.6078 9 39.0547C9 46.5017 14.9492 52.5547 22.275 52.5547C25.8151 52.5547 29.146 51.1482 31.5552 48.7119L38.4999 42.4203L38.5122 42.4329L42.2243 39.0673L42.212 39.0547L48.8372 33.0645C49.6087 32.2726 50.5264 31.6451 51.5371 31.2183C52.5477 30.7915 53.6313 30.5738 54.7249 30.578C59.322 30.578 63.0586 34.3831 63.0586 39.0547C63.0586 43.7264 59.322 47.5314 54.7249 47.5314C52.5001 47.5314 50.4105 46.6524 48.7265 44.957L45.9365 42.4329L42.2245 45.7984L45.3342 48.6114C47.8417 51.1607 51.1728 52.5547 54.7128 52.5547C62.0508 52.5547 68 46.5017 68 39.0547C68 31.6078 62.0509 25.5547 54.7251 25.5547Z" fill="#D5330D"/>
</svg>
