<svg width="393" height="116" viewBox="0 0 393 116" fill="none" xmlns="http://www.w3.org/2000/svg">
<path d="M-90 0.0386734C-13.7433 71.7119 88.9874 115.639 202 115.639C315.013 115.639 417.743 71.7119 494 0.0386734H-90Z" fill="#0C556B"/>
<path d="M400.022 49.6909C395.804 49.6333 391.48 48.9258 387.292 48.3672C379.265 47.2942 370.77 47.4651 362.692 48.4922C361.227 48.6784 359.765 48.8883 358.302 49.0852C357.178 49.2367 358.203 49.0941 358.411 49.0668C357.412 49.1979 356.411 49.314 355.422 49.5081C353.43 49.8996 351.456 50.4461 349.499 50.979C345.57 52.0502 341.685 53.2765 337.812 54.5346C330.22 57.001 322.656 59.6045 314.872 61.4134C313.002 61.848 311.121 62.2327 309.23 62.5675C308.257 62.7389 307.276 62.8692 306.304 63.0437L306.068 63.086C305.522 63.1584 304.974 63.2242 304.427 63.2875C300.168 63.7813 295.889 64.0863 291.609 64.3207C274.463 65.2595 257.293 65.7612 240.394 69.0999C232.335 70.6919 224.2 72.2906 216.286 74.4945C208.335 76.7086 200.41 78.9505 192.443 81.1174C188.547 82.1774 184.649 83.2363 180.75 84.2943C176.887 85.3466 172.805 85.9208 168.858 86.6423C160.792 88.1168 152.71 89.4078 144.548 90.2079C128.546 91.7762 112.155 92.2912 96.3679 88.7577C88.4571 86.9871 81.0717 83.8418 73.4291 81.2337C65.6225 78.5686 57.5527 77.2875 49.3172 77.0077C41.8066 76.7527 34.2912 77.1281 26.8004 77.652C32.133 80.0665 37.5226 82.375 42.969 84.5777C50.8694 84.5412 58.724 84.9891 66.3993 87.1154C74.3304 89.3124 81.799 92.8811 89.7303 95.0853C97.6381 97.2831 105.843 98.4387 114.028 98.9304C130.63 99.9282 147.353 98.3479 163.827 96.3799C172.153 95.3852 180.424 94.1707 188.757 93.304C197.059 92.4404 205.361 91.4676 213.626 90.6359C215.539 90.4436 217.453 90.2548 219.366 90.0694C219.952 90.0128 223.81 89.5415 222.717 89.6835C224.572 89.4423 224.516 89.441 226.068 89.2372C230.218 88.6922 234.373 88.1843 238.532 87.7133C240.452 87.4987 242.373 87.2951 244.295 87.1027C245.417 86.991 246.54 86.8986 247.661 86.7798C248.408 86.701 249.142 86.616 249.889 86.5158C251.254 86.3325 251.575 86.2895 250.851 86.3867C250.388 86.4486 250.448 86.4413 251.03 86.3648C255.206 85.8448 259.383 85.3446 263.573 84.9536C281.116 83.3169 298.875 83.9296 316.234 80.5333C324.241 78.967 332.004 76.4196 339.743 73.8846C347.52 71.3374 355.326 69.0366 363.269 67.0781C367.883 65.9403 371.841 65.4519 375.531 64.5406C379.581 63.5405 383.813 63.1311 387.749 62.2854C391.685 61.4396 395.704 60.3429 399.707 59.9093C403.973 59.4472 408.326 59.3441 412.614 59.1021C413.194 59.0692 413.775 59.0399 414.355 59.0077C419.781 55.8906 425.129 52.6584 430.4 49.3109C424.472 49.4285 418.543 49.5468 412.614 49.6254C408.42 49.6802 404.216 49.7481 400.022 49.6909Z" fill="url(#paint0_linear_2892_3745)"/>
<path d="M430.733 1.7188C414.933 4.74486 398.99 6.93619 383.094 9.38184C367.224 11.8234 351.361 14.5755 335.824 18.6712C320.041 22.8314 304.931 28.8529 289.755 34.7832C274.429 40.7733 259.024 47.0214 243.014 50.9491C226.344 55.0392 209.226 56.3623 192.292 58.9436C158.489 64.0969 124.49 71.6677 90.1406 71.2439C73.1554 71.0345 56.5469 68.2268 39.8947 65.1126C31.606 63.5624 23.2168 62.3273 14.9818 60.542C7.18082 58.8522 -0.778809 57.3975 -8.74454 56.7785C-10.6055 56.634 -12.5012 56.5561 -14.3989 56.5505C-11.7296 58.1316 -9.04239 59.6849 -6.3371 61.2105C5.35233 61.1083 17.0882 62.883 28.345 65.6756C44.1358 69.5931 59.6783 73.6933 75.9595 74.9729C109.381 77.6029 142.619 71.9614 175.453 66.4445C192.129 63.6418 208.918 60.6643 225.774 59.1879C242.036 57.7634 258.119 55.8174 273.789 51.0847C289.122 46.4546 303.783 39.7365 318.928 34.5261C333.883 29.3809 349.267 25.7934 364.826 23.0191C380.38 20.2469 396.049 18.1934 411.666 15.8208C427.12 13.4716 442.924 11.1925 457.889 6.56773C461.564 5.43223 465.24 4.25973 468.812 2.83493C470.963 1.97672 473.077 0.987778 475.201 0.0386734H438.878C436.17 0.628769 433.458 1.19689 430.733 1.7188Z" fill="url(#paint1_linear_2892_3745)"/>
<path d="M97.3837 87.2937C96.838 90.5745 106.356 94.8907 118.642 96.9343C130.929 98.9779 141.331 97.975 141.877 94.6943C142.423 91.4135 132.905 87.0972 120.618 85.0536C108.332 83.01 97.9294 84.0129 97.3837 87.2937Z" fill="#0C7489"/>
<path d="M141.304 93.5499C140.759 96.8321 130.352 97.8382 118.059 95.7969C107.893 94.1093 99.6266 90.8647 97.3779 87.9363C98.0263 91.1219 107.114 95.0324 118.634 96.9454C130.926 98.9868 141.333 97.9807 141.878 94.6982C141.973 94.1306 141.76 93.5317 141.29 92.9194C141.334 93.1269 141.338 93.3407 141.304 93.5499Z" fill="#0C556B"/>
<path d="M263.17 58.216C243.198 60.5936 227.667 68.0546 228.479 74.8805C229.292 81.7065 246.141 85.3126 266.113 82.9349C286.085 80.5573 301.617 73.0964 300.804 66.2704C299.991 59.4445 283.142 55.8384 263.17 58.216Z" fill="url(#paint2_linear_2892_3745)"/>
<path d="M228.47 74.7969C229.147 81.6388 245.891 85.2953 265.868 82.964C285.845 80.6327 301.49 73.1976 300.813 66.3547C300.793 66.1668 300.76 65.9805 300.716 65.7968C295.306 70.6461 283.161 74.9772 268.766 76.6573C249.34 78.9242 232.976 75.5279 231.465 69.0479C229.368 70.9276 228.281 72.8854 228.47 74.7969Z" fill="#0C556B"/>
<path d="M266.506 81.0464C246.529 83.3777 229.785 79.7211 229.108 72.8793C229.079 72.5464 229.088 72.2113 229.134 71.8803C228.625 72.7638 228.393 73.78 228.469 74.7969C229.146 81.6388 245.89 85.2953 265.867 82.964C284.875 80.7459 299.949 73.9058 300.785 67.3537C297.615 73.2756 283.663 79.0436 266.506 81.0464Z" fill="#0C7489"/>
<path d="M354.76 67.8691C345.616 70.5257 338.805 74.7478 339.547 77.2996C340.288 79.8514 348.301 79.7665 357.445 77.1099C366.588 74.4534 373.399 70.2312 372.658 67.6794C371.916 65.1276 363.903 65.2126 354.76 67.8691Z" fill="#0C7489" fill-opacity="0.58"/>
<path d="M371.445 67.7307C372.186 70.2826 365.375 74.5048 356.231 77.1613C352.317 78.2986 348.612 78.9629 345.595 79.1523C348.803 79.0871 352.989 78.4052 357.446 77.1102C366.59 74.4536 373.401 70.2323 372.66 67.6795C372.236 66.2203 369.431 65.6248 365.398 65.8782C368.772 65.8097 371.065 66.4228 371.445 67.7307Z" fill="#0C7489"/>
<path d="M101.496 51.2023C100.936 60.6684 118.992 69.4378 141.826 70.7891C164.66 72.1405 183.625 65.5622 184.185 56.0961C184.745 46.6299 166.689 37.8605 143.855 36.5092C121.021 35.1578 102.056 41.7361 101.496 51.2023Z" fill="#0D8FA1" fill-opacity="0.62"/>
<path d="M141.825 68.2792C120.352 67.0085 103.109 59.1769 101.595 50.3757C101.546 50.6492 101.512 50.9253 101.495 51.2026C100.935 60.6688 118.991 69.4383 141.825 70.7898C164.659 72.1414 183.624 65.5628 184.184 56.0966C184.215 55.5335 184.182 54.9687 184.084 54.4132C182.502 63.432 163.988 69.5912 141.825 68.2792Z" fill="url(#paint3_linear_2892_3745)"/>
<path d="M143.853 36.5091C124.721 35.377 108.313 39.8131 103.163 46.849C108.844 53.5561 123.504 58.9327 140.972 59.9656C160.104 61.0981 176.512 56.6617 181.662 49.626C175.982 42.9197 161.32 37.5431 143.853 36.5091Z" fill="#0C657A"/>
<path d="M4.99356 48.7657C2.93943 54.8446 15.8307 64.6913 33.7869 70.7589C51.7432 76.8265 67.9648 76.8173 70.0189 70.7383C72.0731 64.6594 59.1819 54.8127 41.2256 48.7451C23.2693 42.6775 7.04769 42.6867 4.99356 48.7657Z" fill="#0C7489"/>
<path d="M68.3306 68.0031C66.1555 74.0434 49.8412 73.9862 31.8922 67.8753C19.3542 63.6054 9.34286 57.5144 5.18287 52.1696C7.46204 58.0621 18.7469 65.6467 33.5541 70.6878C51.5032 76.7987 67.8174 76.8557 69.9925 70.8157C70.6484 68.9944 69.9363 66.827 68.1408 64.5194C68.6243 65.7697 68.711 66.9456 68.3306 68.0031Z" fill="#0C657A"/>
<path d="M222.623 101.234C205.411 102.093 191.565 104.95 191.698 107.614C191.831 110.279 205.892 111.742 223.104 110.883C240.316 110.024 254.162 107.167 254.029 104.503C253.896 101.838 239.835 100.374 222.623 101.234Z" fill="#0C7489"/>
<path d="M253.489 103.674C250.796 106.032 238.257 108.337 223.104 109.094C207.775 109.859 194.955 108.781 192.237 106.654C191.871 106.975 191.681 107.296 191.698 107.615C191.831 110.279 205.892 111.743 223.104 110.884C240.315 110.025 254.161 107.166 254.028 104.502C254.003 104.333 253.942 104.172 253.849 104.029C253.756 103.886 253.633 103.765 253.489 103.674Z" fill="#0C6378"/>
<path d="M172.441 88.6032C172.362 90.3489 176.4 91.9489 181.46 92.1768C186.52 92.4047 190.685 91.1742 190.764 89.4285C190.843 87.6828 186.805 86.0828 181.745 85.8549C176.685 85.627 172.52 86.8574 172.441 88.6032Z" fill="#0C7489"/>
<path d="M190.691 88.9753C189.654 90.3747 185.787 91.255 181.337 91.0016C176.837 90.7459 173.263 89.4164 172.715 87.9012C172.58 88.0755 172.49 88.2807 172.453 88.4985C172.198 90.2351 176.085 91.876 181.139 92.1637C186.193 92.4513 190.497 91.277 190.755 89.5401C190.781 89.3495 190.759 89.1552 190.691 88.9753Z" fill="#0C556B"/>
<path d="M292.697 93.7701C289.235 94.3286 286.574 95.6817 286.753 96.7922C286.932 97.9027 289.884 98.3502 293.345 97.7916C296.807 97.2331 299.468 95.88 299.289 94.7695C299.11 93.659 296.158 93.2115 292.697 93.7701Z" fill="#0C7489"/>
<path d="M298.851 94.7504C298.968 95.8709 296.255 97.2158 292.791 97.7542C291.481 97.9724 290.149 98.0276 288.826 97.9184C290.293 98.0965 291.777 98.0599 293.233 97.8097C296.698 97.271 299.411 95.9261 299.293 94.8057C299.226 94.1649 298.247 93.7369 296.773 93.5884C297.998 93.7725 298.791 94.1757 298.851 94.7504Z" fill="#0D8C9F"/>
<defs>
<linearGradient id="paint0_linear_2892_3745" x1="228.6" y1="118.795" x2="228.6" y2="-9.79252" gradientUnits="userSpaceOnUse">
<stop stop-color="#0DB0BF"/>
<stop offset="0.349" stop-color="#0C7489"/>
<stop offset="0.777" stop-color="#0C5268"/>
<stop offset="1" stop-color="#0C556B"/>
</linearGradient>
<linearGradient id="paint1_linear_2892_3745" x1="230.401" y1="119.109" x2="230.401" y2="-9.63813" gradientUnits="userSpaceOnUse">
<stop stop-color="#0D4A8F"/>
<stop offset="0.349" stop-color="#0C556B"/>
<stop offset="0.777" stop-color="#0D7E92"/>
<stop offset="1" stop-color="#0C687E"/>
</linearGradient>
<linearGradient id="paint2_linear_2892_3745" x1="266.113" y1="82.9349" x2="263.17" y2="58.216" gradientUnits="userSpaceOnUse">
<stop stop-color="#0C556B"/>
<stop offset="1" stop-color="#0C556B" stop-opacity="0"/>
</linearGradient>
<linearGradient id="paint3_linear_2892_3745" x1="142.731" y1="75.573" x2="142.731" y2="50.573" gradientUnits="userSpaceOnUse">
<stop stop-color="#0C586E"/>
<stop offset="0.583333" stop-color="#0C7489"/>
</linearGradient>
</defs>
</svg>
