<svg width="107" height="246" viewBox="0 0 107 246" fill="none" xmlns="http://www.w3.org/2000/svg">
<g filter="url(#filter0_d_107_341)">
<g filter="url(#filter1_di_107_341)">
<path d="M11.5235 64.7138C14.9039 51.11 22.0388 38.7296 32.1146 28.9844C42.1905 19.2391 54.8018 12.5211 68.5108 9.59619C82.2199 6.67129 96.4749 7.65726 109.651 12.4416C122.826 17.226 134.393 25.6163 143.031 36.6559C136.592 43.4951 130.529 50.6793 124.869 58.1767C117.999 67.3899 113.485 78.1431 111.722 89.4996C110.58 97.4938 111.926 105.646 115.579 112.848C117.433 115.672 119.004 118.673 120.267 121.806C123.22 131.069 116.908 140.373 112.38 148.939C111.728 150.164 111.081 151.423 110.543 152.703C97.7804 157.526 83.9422 158.765 70.5261 156.287C57.11 153.81 44.6272 147.71 34.429 138.648C24.2307 129.585 16.7056 117.906 12.6682 104.874C8.63081 91.8424 8.23491 77.9545 11.5235 64.7138V64.7138Z" fill="url(#paint0_radial_107_341)"/>
<path d="M11.5235 64.7138C14.9039 51.11 22.0388 38.7296 32.1146 28.9844C42.1905 19.2391 54.8018 12.5211 68.5108 9.59619C82.2199 6.67129 96.4749 7.65726 109.651 12.4416C122.826 17.226 134.393 25.6163 143.031 36.6559C136.592 43.4951 130.529 50.6793 124.869 58.1767C117.999 67.3899 113.485 78.1431 111.722 89.4996C110.58 97.4938 111.926 105.646 115.579 112.848C117.433 115.672 119.004 118.673 120.267 121.806C123.22 131.069 116.908 140.373 112.38 148.939C111.728 150.164 111.081 151.423 110.543 152.703C97.7804 157.526 83.9422 158.765 70.5261 156.287C57.11 153.81 44.6272 147.71 34.429 138.648C24.2307 129.585 16.7056 117.906 12.6682 104.874C8.63081 91.8424 8.23491 77.9545 11.5235 64.7138V64.7138Z" fill="url(#paint1_angular_107_341)" fill-opacity="0.2"/>
</g>
<path d="M63.8078 83.5534C63.7834 80.3981 64.6741 77.3033 66.3719 74.6435C68.0697 71.9838 70.5018 69.873 73.3741 68.5667C76.2465 67.2603 79.4359 66.8143 82.5564 67.2827C85.6769 67.7511 88.5948 69.1138 90.957 71.2058C93.3193 73.2979 95.0246 76.0297 95.8667 79.0707C96.7088 82.1117 96.6516 85.3316 95.7019 88.3408C94.7523 91.35 92.951 94.0194 90.5159 96.0263C88.0809 98.0331 85.1163 99.2912 81.9812 99.6484C77.44 99.9114 72.9793 98.3661 69.574 95.3503C66.1687 92.3344 64.0956 88.0932 63.8078 83.5534V83.5534Z" fill="url(#paint2_linear_107_341)"/>
<path opacity="0.41" d="M64.8033 80.8113C63.841 85.0241 64.5852 89.4465 66.8733 93.1123C69.1613 96.7782 72.8072 99.3895 77.0144 100.376C79.178 100.726 81.3926 100.587 83.4956 99.9699C85.5987 99.3528 87.537 98.2729 89.1684 96.8094C86.7273 98.1148 83.9321 98.6037 81.1928 98.2043C78.4535 97.8048 75.9142 96.5381 73.9476 94.5899C66.2539 87.0904 69.0444 72.6588 78.3167 67.6905C79.2348 67.2103 80.1916 66.8077 81.1769 66.487C77.1769 66.4908 73.3138 67.9441 70.3033 70.5779C67.2927 73.2117 65.3388 76.8473 64.8033 80.8113Z" fill="url(#paint3_linear_107_341)"/>
<path d="M67.8059 12.8345C72.2146 11.7609 76.1933 12.5567 76.6946 14.6166C77.196 16.6766 74.0287 19.2132 69.6199 20.2868C65.2112 21.3605 61.2321 20.5612 60.7312 18.5047C60.2303 16.4482 63.3971 13.9081 67.8059 12.8345Z" fill="url(#paint4_linear_107_341)"/>
<path d="M67.8059 12.8345C72.2146 11.7609 76.1933 12.5567 76.6946 14.6166C77.196 16.6766 74.0287 19.2132 69.6199 20.2868C65.2112 21.3605 61.2321 20.5612 60.7312 18.5047C60.2303 16.4482 63.3971 13.9081 67.8059 12.8345Z" fill="url(#paint5_linear_107_341)"/>
<path d="M105.283 37.6618C100.888 31.7009 100.136 24.8016 103.598 22.2609C107.059 19.7201 113.429 22.4703 117.823 28.4278C122.217 34.3852 122.969 41.2845 119.504 43.8292C116.039 46.3739 109.674 43.6018 105.283 37.6618Z" fill="url(#paint6_linear_107_341)"/>
<path opacity="0.74" d="M105.285 37.6617C109.679 43.6191 116.05 46.3799 119.507 43.8291C120.231 43.2624 120.783 42.5055 121.102 41.6429C117.968 42.1366 114.762 41.4742 112.081 39.7791C104.125 34.458 102.271 27.6042 103.819 22.1425C103.75 22.1838 103.667 22.202 103.599 22.2503C100.139 24.8015 100.891 31.7042 105.285 37.6617Z" fill="url(#paint7_linear_107_341)"/>
<path d="M23.567 98.7332C21.9514 93.307 23.2065 88.1511 26.3513 87.2123C29.496 86.2735 33.364 89.9115 34.9792 95.3341C36.5944 100.757 35.3397 105.916 32.195 106.855C29.0502 107.794 25.1822 104.156 23.567 98.7332Z" fill="url(#paint8_linear_107_341)"/>
<path opacity="0.6" d="M23.5669 98.7331C25.182 104.156 29.05 107.794 32.1947 106.855C32.9425 106.562 33.6065 106.089 34.1276 105.478C34.6488 104.867 35.0109 104.136 35.182 103.352C31.9932 107.152 27.8357 104.185 26.4271 100.269C24.5448 95.0779 23.8922 89.3657 27.8954 87.1285C27.3808 87.0423 26.8538 87.0673 26.3497 87.2018C23.1994 88.152 21.9513 93.307 23.5669 98.7331Z" fill="url(#paint9_linear_107_341)"/>
<path d="M50.0412 144.071C46.7359 142.421 44.8328 139.527 45.7924 137.607C46.752 135.688 50.2062 135.464 53.5115 137.114C56.8169 138.764 58.7194 141.655 57.7638 143.577C56.8081 145.499 53.3496 145.717 50.0412 144.071Z" fill="url(#paint10_linear_107_341)"/>
<path opacity="0.58" d="M50.7893 142.539C49.6656 142.064 48.6561 141.354 47.828 140.459C46.9999 139.563 46.3722 138.501 45.9868 137.343C45.9159 137.426 45.8518 137.514 45.795 137.607C44.8335 139.512 46.7386 142.42 50.0439 144.07C53.3493 145.721 56.807 145.496 57.7666 143.577C57.8025 143.501 57.8082 143.411 57.8367 143.333C56.6723 143.704 55.4427 143.825 54.2282 143.688C53.0138 143.551 51.8419 143.16 50.7893 142.539V142.539Z" fill="url(#paint11_linear_107_341)"/>
<path d="M36.9474 42.2071C41.4343 36.3103 48.3354 34.0164 52.3678 37.0816C56.4002 40.1468 56.0264 47.4145 51.5395 53.3114C47.0526 59.2083 40.148 61.5026 36.1191 58.4369C32.0902 55.3712 32.4605 48.104 36.9474 42.2071Z" fill="url(#paint12_linear_107_341)"/>
<path opacity="0.66" d="M36.1181 58.4371C37.262 59.2019 38.5811 59.6644 39.9521 59.7815C41.3231 59.8985 42.7014 59.6664 43.9584 59.1067C42.7067 58.9681 41.512 58.5089 40.4898 57.7734C39.0503 56.4715 38.0602 54.7472 37.6613 52.8478C37.2624 50.9484 37.4752 48.9714 38.2694 47.2005C39.4137 44.284 41.4372 41.7959 44.0593 40.0812C46.6813 38.3665 49.772 37.5103 52.9026 37.6311C52.7342 37.4383 52.5554 37.2549 52.3668 37.0818C48.3344 34.0165 41.4333 36.3104 36.9464 42.2073C32.4595 48.1042 32.0892 55.3714 36.1181 58.4371Z" fill="url(#paint13_linear_107_341)"/>
<path d="M101.04 138.888C93.0544 139.879 86.1174 136.925 85.5384 132.286C84.9595 127.647 90.9651 123.084 98.9505 122.089C106.936 121.095 113.87 124.05 114.448 128.689C115.027 133.327 109.024 137.905 101.04 138.888Z" fill="url(#paint14_linear_107_341)"/>
<g filter="url(#filter2_i_107_341)">
<path d="M85.5363 132.297C86.1152 136.936 93.0522 139.89 101.038 138.899C107.878 138.049 113.241 134.566 114.271 130.67C114.173 130.754 114.052 130.809 113.945 130.888C111.261 133.194 108.165 134.974 104.821 136.134C100.566 137.557 92.1607 138.125 89.4132 133.497C87.7312 130.662 90.2026 126.177 95.7373 122.732C89.4283 124.385 85.0413 128.308 85.5363 132.297Z" fill="url(#paint15_linear_107_341)"/>
</g>
</g>
<defs>
<filter id="filter0_d_107_341" x="5.31836" y="7.94958" width="141.713" height="157.581" filterUnits="userSpaceOnUse" color-interpolation-filters="sRGB">
<feFlood flood-opacity="0" result="BackgroundImageFix"/>
<feColorMatrix in="SourceAlpha" type="matrix" values="0 0 0 0 0 0 0 0 0 0 0 0 0 0 0 0 0 0 127 0" result="hardAlpha"/>
<feOffset dy="4"/>
<feGaussianBlur stdDeviation="2"/>
<feComposite in2="hardAlpha" operator="out"/>
<feColorMatrix type="matrix" values="0 0 0 0 0 0 0 0 0 0 0 0 0 0 0 0 0 0 0.25 0"/>
<feBlend mode="normal" in2="BackgroundImageFix" result="effect1_dropShadow_107_341"/>
<feBlend mode="normal" in="SourceGraphic" in2="effect1_dropShadow_107_341" result="shape"/>
</filter>
<filter id="filter1_di_107_341" x="9.31836" y="7.94958" width="157.713" height="237.581" filterUnits="userSpaceOnUse" color-interpolation-filters="sRGB">
<feFlood flood-opacity="0" result="BackgroundImageFix"/>
<feColorMatrix in="SourceAlpha" type="matrix" values="0 0 0 0 0 0 0 0 0 0 0 0 0 0 0 0 0 0 127 0" result="hardAlpha"/>
<feMorphology radius="40" operator="erode" in="SourceAlpha" result="effect1_dropShadow_107_341"/>
<feOffset dx="20" dy="84"/>
<feGaussianBlur stdDeviation="22"/>
<feComposite in2="hardAlpha" operator="out"/>
<feColorMatrix type="matrix" values="0 0 0 0 0 0 0 0 0 0.254464 0 0 0 0 0.375 0 0 0 0.38 0"/>
<feBlend mode="normal" in2="BackgroundImageFix" result="effect1_dropShadow_107_341"/>
<feBlend mode="normal" in="SourceGraphic" in2="effect1_dropShadow_107_341" result="shape"/>
<feColorMatrix in="SourceAlpha" type="matrix" values="0 0 0 0 0 0 0 0 0 0 0 0 0 0 0 0 0 0 127 0" result="hardAlpha"/>
<feOffset dy="7"/>
<feGaussianBlur stdDeviation="12"/>
<feComposite in2="hardAlpha" operator="arithmetic" k2="-1" k3="1"/>
<feColorMatrix type="matrix" values="0 0 0 0 1 0 0 0 0 1 0 0 0 0 1 0 0 0 0.63 0"/>
<feBlend mode="normal" in2="shape" result="effect2_innerShadow_107_341"/>
</filter>
<filter id="filter2_i_107_341" x="85.4983" y="122.732" width="28.7729" height="20.3589" filterUnits="userSpaceOnUse" color-interpolation-filters="sRGB">
<feFlood flood-opacity="0" result="BackgroundImageFix"/>
<feBlend mode="normal" in="SourceGraphic" in2="BackgroundImageFix" result="shape"/>
<feColorMatrix in="SourceAlpha" type="matrix" values="0 0 0 0 0 0 0 0 0 0 0 0 0 0 0 0 0 0 127 0" result="hardAlpha"/>
<feOffset dy="4"/>
<feGaussianBlur stdDeviation="2"/>
<feComposite in2="hardAlpha" operator="arithmetic" k2="-1" k3="1"/>
<feColorMatrix type="matrix" values="0 0 0 0 0 0 0 0 0 0 0 0 0 0 0 0 0 0 0.25 0"/>
<feBlend mode="normal" in2="shape" result="effect1_innerShadow_107_341"/>
</filter>
<radialGradient id="paint0_radial_107_341" cx="0" cy="0" r="1" gradientUnits="userSpaceOnUse" gradientTransform="translate(87.7438 88.1401) rotate(-58.7435) scale(77.0097 101.329)">
<stop stop-color="#33C4D8"/>
<stop offset="0.526042" stop-color="#1B93A3"/>
<stop offset="1" stop-color="#106470"/>
</radialGradient>
<radialGradient id="paint1_angular_107_341" cx="0" cy="0" r="1" gradientUnits="userSpaceOnUse" gradientTransform="translate(79.034 83.4247) rotate(-79.9455) scale(70.979 77.2323)">
<stop offset="0.132476" stop-color="#1A8C9C" stop-opacity="0.85"/>
<stop offset="0.615534" stop-color="#144D55" stop-opacity="0.66"/>
</radialGradient>
<linearGradient id="paint2_linear_107_341" x1="76.8802" y1="63.1096" x2="80.1619" y2="114.425" gradientUnits="userSpaceOnUse">
<stop offset="0.004" stop-color="#0B6375"/>
<stop offset="1" stop-color="#0A2239"/>
</linearGradient>
<linearGradient id="paint3_linear_107_341" x1="94.0557" y1="76.0859" x2="56.6176" y2="86.9568" gradientUnits="userSpaceOnUse">
<stop offset="0.004" stop-color="#0A2239"/>
<stop offset="1" stop-color="#0B6375"/>
</linearGradient>
<linearGradient id="paint4_linear_107_341" x1="104.024" y1="118.486" x2="103.141" y2="132.598" gradientUnits="userSpaceOnUse">
<stop offset="0.004" stop-color="#0B6375"/>
<stop offset="1" stop-color="#0A2239"/>
</linearGradient>
<linearGradient id="paint5_linear_107_341" x1="39.0596" y1="19.4597" x2="41.8914" y2="31.7449" gradientUnits="userSpaceOnUse">
<stop offset="0.004" stop-color="#0A2239"/>
<stop offset="1" stop-color="#0B6375"/>
</linearGradient>
<linearGradient id="paint6_linear_107_341" x1="149.712" y1="-65.1106" x2="131.739" y2="-49.322" gradientUnits="userSpaceOnUse">
<stop offset="0.004" stop-color="#0B6375"/>
<stop offset="1" stop-color="#0A2239"/>
</linearGradient>
<linearGradient id="paint7_linear_107_341" x1="95.4127" y1="13.2509" x2="78.9421" y2="32.7024" gradientUnits="userSpaceOnUse">
<stop offset="0.004" stop-color="#0B6375"/>
<stop offset="1" stop-color="#0A2239"/>
</linearGradient>
<linearGradient id="paint8_linear_107_341" x1="34.9704" y1="100.349" x2="36.9514" y2="144.113" gradientUnits="userSpaceOnUse">
<stop offset="0.004" stop-color="#0B6375"/>
<stop offset="1" stop-color="#0A2239"/>
</linearGradient>
<linearGradient id="paint9_linear_107_341" x1="45.8449" y1="111.377" x2="27.0894" y2="116.381" gradientUnits="userSpaceOnUse">
<stop offset="0.004" stop-color="#0B6375"/>
<stop offset="1" stop-color="#0A2239"/>
</linearGradient>
<linearGradient id="paint10_linear_107_341" x1="63.4983" y1="143.544" x2="83.3413" y2="159.591" gradientUnits="userSpaceOnUse">
<stop offset="0.004" stop-color="#0B6375"/>
<stop offset="1" stop-color="#0A2239"/>
</linearGradient>
<linearGradient id="paint11_linear_107_341" x1="75.893" y1="141.719" x2="74.0302" y2="155.64" gradientUnits="userSpaceOnUse">
<stop offset="0.004" stop-color="#0A2239"/>
<stop offset="1" stop-color="#0B6375"/>
</linearGradient>
<linearGradient id="paint12_linear_107_341" x1="44.0521" y1="48.2258" x2="20.1943" y2="83.6455" gradientUnits="userSpaceOnUse">
<stop offset="0.004" stop-color="#0B6375"/>
<stop offset="0.9997" stop-color="#0A2239"/>
<stop offset="0.9998" stop-color="#C77FBB"/>
<stop offset="0.9999" stop-color="#C77FBB"/>
<stop offset="1" stop-color="#0A2239"/>
</linearGradient>
<linearGradient id="paint13_linear_107_341" x1="46.4841" y1="73.2512" x2="21.7843" y2="61.9883" gradientUnits="userSpaceOnUse">
<stop offset="0.004" stop-color="#0A2239"/>
<stop offset="1" stop-color="#0B6375"/>
</linearGradient>
<linearGradient id="paint14_linear_107_341" x1="112.305" y1="133.938" x2="111.547" y2="91.1869" gradientUnits="userSpaceOnUse">
<stop offset="0.004" stop-color="#0B6375"/>
<stop offset="1" stop-color="#0A2239"/>
</linearGradient>
<linearGradient id="paint15_linear_107_341" x1="132.415" y1="103.945" x2="122.474" y2="138.587" gradientUnits="userSpaceOnUse">
<stop offset="0.004" stop-color="#0A2239"/>
<stop offset="1" stop-color="#0B6375"/>
</linearGradient>
</defs>
</svg>
