<svg width="71" height="45" viewBox="0 0 71 45" fill="none" xmlns="http://www.w3.org/2000/svg">
<path fill-rule="evenodd" clip-rule="evenodd" d="M26.426 1.82928C37.636 -3.01972 50.6642 2.10228 55.5275 13.2693C60.3952 24.4319 55.2535 37.4146 44.0479 42.2593C32.8379 47.1083 19.8053 41.9863 14.942 30.8193C10.0744 19.6566 15.2161 6.67394 26.426 1.82928Z" fill="url(#paint0_linear_1012_4860)"/>
<path fill-rule="evenodd" clip-rule="evenodd" d="M39.7106 13.5678C27.0825 6.93779 14.946 2.27512 8.02951 1.40412C6.55486 1.22212 2.07436 0.654457 0.425714 3.77012C-1.83194 8.03846 5.24986 14.5645 13.1712 20.0765C13.5279 17.6671 13.8977 16.1765 14.5502 14.1961C9.89566 10.8378 7.30741 8.36779 6.10681 6.76879C6.43741 6.77746 6.84196 6.80779 7.33351 6.87279C13.541 7.65279 25.2381 12.1941 37.1354 18.4428C53.1651 26.8625 61.9869 34.1771 64.349 37.3188C64.0184 37.3058 63.6095 37.2755 63.1179 37.2148C60.6036 36.8985 57.3759 36.0231 53.4087 34.6061C52.4604 35.9235 49.572 38.8961 49.3023 39.0521C54.6311 41.0801 59.042 42.2545 62.4263 42.6791C63.8966 42.8655 68.3771 43.4331 70.0257 40.3175C74.1887 32.4525 47.8755 17.8535 39.7106 13.5678Z" fill="url(#paint1_linear_1012_4860)"/>
<defs>
<linearGradient id="paint0_linear_1012_4860" x1="8.67842" y1="6.28168" x2="16.0569" y2="53.0376" gradientUnits="userSpaceOnUse">
<stop stop-color="#0FA3B1"/>
<stop offset="0.1" stop-color="#10B8C8"/>
<stop offset="0.2" stop-color="#10B9C8"/>
<stop offset="1" stop-color="#0C7489"/>
</linearGradient>
<linearGradient id="paint1_linear_1012_4860" x1="-9.3827" y1="39.1219" x2="58.6257" y2="63.6968" gradientUnits="userSpaceOnUse">
<stop stop-color="#D5330D"/>
<stop offset="1" stop-color="#D5330D"/>
</linearGradient>
</defs>
</svg>
