<svg width="97" height="55" viewBox="0 0 97 55" fill="none" xmlns="http://www.w3.org/2000/svg">
<path fill-rule="evenodd" clip-rule="evenodd" d="M48.8051 48.055C47.7604 48.055 46.7051 47.987 45.6406 47.8475C33.7764 46.2871 25.0774 36.3255 24.748 24.739C31.0474 29.2561 38.135 33.8447 45.511 37.9914C50.6388 40.8744 55.443 43.2986 59.9002 45.3256C56.5522 47.0772 52.7643 48.055 48.8051 48.055ZM66.0592 40.7236C62.0108 39.1001 56.6187 36.4267 49.4971 32.3302C37.2206 25.2693 29.9772 20.1929 25.9337 16.5432C29.1329 6.74797 38.3454 0 48.7456 0C49.7903 0 50.8456 0.0679682 51.9101 0.208153C65.0705 1.93851 74.3354 14.0057 72.6044 27.1604C71.9046 32.4718 69.5205 37.1489 66.0592 40.7236Z" fill="url(#paint0_linear_2892_3523)"/>
<path fill-rule="evenodd" clip-rule="evenodd" d="M92.0185 54.8313C86.0762 54.8313 75.0236 52.5345 59.9941 45.7016C62.279 44.5058 64.3599 42.9503 66.1525 41.0996C69.8943 42.5999 72.488 43.2024 74.2417 43.2024C81.4356 43.2024 74.4669 33.0439 74.4669 33.0439C74.4669 33.0439 94.8141 46.2503 96.9481 52.8149C97.3313 53.9951 95.6059 54.8313 92.0185 54.8313ZM24.8411 25.115C8.23077 13.2057 -2.89472 1.79479 0.664331 0.298069C1.15162 0.0927483 1.80252 0 2.58232 0C9.64944 0 27.1685 7.59616 27.1685 7.59616C27.1685 7.59616 27.1012 7.59403 26.9815 7.59403C25.5055 7.59403 16.0706 7.93316 26.026 16.9191C25.5713 18.3111 25.2377 19.766 25.0394 21.2705C24.8694 22.5654 24.805 23.8498 24.8411 25.115Z" fill="url(#paint1_linear_2892_3523)"/>
<path fill-rule="evenodd" clip-rule="evenodd" d="M59.8893 46C55.4667 43.9577 50.6998 41.5151 45.6116 38.6104C38.2929 34.4322 31.2602 29.809 25.0096 25.2578C24.9738 23.983 25.0377 22.689 25.2064 21.3843C25.4032 19.8684 25.7342 18.4025 26.1854 17C30.1976 20.6773 37.3849 25.7921 49.5662 32.9064C56.6326 37.0338 61.9829 39.7275 66 41.3632C64.2213 43.2279 62.1565 44.7951 59.8893 46Z" fill="url(#paint2_linear_2892_3523)"/>
<defs>
<linearGradient id="paint0_linear_2892_3523" x1="33.0043" y1="56.0305" x2="79.3214" y2="39.1103" gradientUnits="userSpaceOnUse">
<stop stop-color="#0FA3B1"/>
<stop offset="0.7" stop-color="#095767"/>
<stop offset="1" stop-color="#085463"/>
</linearGradient>
<linearGradient id="paint1_linear_2892_3523" x1="-32.8653" y1="39.0495" x2="30.2846" y2="106.114" gradientUnits="userSpaceOnUse">
<stop stop-color="#0E2F50"/>
<stop offset="1" stop-color="#0A2239"/>
</linearGradient>
<linearGradient id="paint2_linear_2892_3523" x1="11.1085" y1="37.6531" x2="44.1235" y2="65.6733" gradientUnits="userSpaceOnUse">
<stop stop-color="#0A6577"/>
<stop offset="1" stop-color="#0A2239"/>
</linearGradient>
</defs>
</svg>
