<svg width="51" height="49" viewBox="0 0 51 49" fill="none" xmlns="http://www.w3.org/2000/svg">
<path fill-rule="evenodd" clip-rule="evenodd" d="M0.502572 30.852L0.483143 30.7442C0.381683 30.2365 0.294255 29.7367 0.21708 29.2342C0.125334 28.5991 0.0557149 27.9582 0.0362863 27.3261C0.0227943 27.0793 0.00984187 26.833 0.0103816 26.5934C-0.0392692 24.5702 0.197112 22.5941 0.702255 20.6823C1.0606 19.2424 1.58625 17.8476 2.23603 16.5113L2.24413 16.4973C2.53771 15.8834 2.86962 15.2809 3.22257 14.7074C6.4774 9.29616 12.0102 5.19001 18.8863 3.80349C26.4009 2.28942 33.8307 4.35986 39.2253 8.81446C39.6144 9.13024 39.9949 9.4595 40.357 9.80483C41.0036 10.3918 41.6042 11.0259 42.1704 11.7031C42.2762 11.8224 42.3825 11.9411 42.4802 12.0739C42.8628 12.5281 43.2147 13.0015 43.5482 13.491C44.0344 14.1785 44.4829 14.8993 44.8796 15.6449C45.1116 16.0716 45.3356 16.5113 45.5267 16.9604C45.817 17.5873 46.0815 18.2442 46.3124 18.9095C46.6039 19.7407 46.8402 20.5869 47.0362 21.4554C47.0842 21.6587 47.1214 21.865 47.1581 22.0709C47.2828 22.6973 47.3745 23.3325 47.4301 23.9661C47.4911 24.5753 47.5267 25.1799 47.5262 25.7835C47.5812 27.9079 47.3065 29.9965 46.7442 31.9922C46.6109 32.5061 46.4447 33.0293 46.2612 33.5338C44.7441 37.8033 41.9221 41.5838 38.1616 44.3444C35.4524 46.3308 32.231 47.7842 28.667 48.5117C24.6188 49.3253 20.5842 49.0987 16.8884 48.0072C16.7071 47.9538 16.5112 47.8931 16.3298 47.8402C15.5624 47.6043 14.8176 47.3285 14.0934 47.0013C13.9596 46.9468 13.836 46.8893 13.7124 46.8317C10.8796 45.5743 8.32527 43.7745 6.21511 41.5475C5.72022 41.0331 5.25502 40.4991 4.81733 39.9354C4.38235 39.3822 3.96302 38.8014 3.57714 38.2119C2.15832 36.0025 1.08759 33.5276 0.502572 30.852Z" fill="url(#paint0_linear_1014_0)"/>
<path fill-rule="evenodd" clip-rule="evenodd" d="M14.0879 47.0042C16.8295 46.1777 23.0979 43.4918 29.4251 35.3536C35.9817 26.9184 40.9349 23.4708 45.1795 23.4334C45.9626 23.4277 46.7263 23.645 47.4219 23.9639C47.7716 27.2793 47.335 30.5356 46.2643 33.5373C45.2573 32.5718 43.7057 31.7712 41.5696 32.4536C38.4028 33.4647 32.4981 37.1363 26.9 42.0576C22.7714 45.6877 18.89 47.3345 16.8894 48.0117C15.9309 47.7353 14.9935 47.4004 14.0879 47.0042Z" fill="url(#paint1_linear_1014_0)"/>
<path fill-rule="evenodd" clip-rule="evenodd" d="M0.503675 30.8487L0.480469 30.7439C2.14107 30.9 5.99602 31.0063 10.3113 29.4253C20.8691 25.5567 29.8408 17.6602 36.4492 16.0092C40.2653 15.053 43.1985 15.3128 44.8731 15.6411C45.4403 16.6729 45.919 17.7675 46.3055 18.9129C44.7641 18.831 41.9243 19.0005 38.6042 20.6645C33.6067 23.1808 30.2467 28.8192 23.6221 33.6196C16.9953 38.4097 10.8348 40.812 6.49523 41.5027C6.39647 41.5224 6.29663 41.5317 6.2092 41.5488C3.43469 38.6358 1.41034 34.9911 0.503675 30.8487Z" fill="url(#paint2_linear_1014_0)"/>
<path fill-rule="evenodd" clip-rule="evenodd" d="M0.00577777 26.5908C-0.076254 23.0462 0.717619 19.6085 2.23413 16.5062L2.24276 16.4937C4.63733 13.9945 9.2106 11.4216 15.1147 10.2404C25.6817 8.12846 35.8029 8.65735 40.3573 9.80224C40.9984 10.3939 41.6023 11.0254 42.1701 11.6974C39.0702 11.3511 31.1352 10.8885 22.7183 13.6808C11.8961 17.2751 8.86467 20.2576 3.9881 23.7442C2.31508 24.9342 1.00851 25.8753 0.00577777 26.5908Z" fill="url(#paint3_linear_1014_0)"/>
<defs>
<linearGradient id="paint0_linear_1014_0" x1="33.7505" y1="35.2047" x2="-13.1691" y2="5.99298" gradientUnits="userSpaceOnUse">
<stop stop-color="#0FA3B1"/>
<stop offset="1" stop-color="#085463"/>
</linearGradient>
<linearGradient id="paint1_linear_1014_0" x1="2.75367" y1="30.5076" x2="30.543" y2="7.80237" gradientUnits="userSpaceOnUse">
<stop stop-color="#0C7489"/>
<stop offset="1" stop-color="#0A2239"/>
</linearGradient>
<linearGradient id="paint2_linear_1014_0" x1="-15.0458" y1="22.8854" x2="15.1553" y2="-8.81722" gradientUnits="userSpaceOnUse">
<stop stop-color="#0C7489"/>
<stop offset="1" stop-color="#0A2239"/>
</linearGradient>
<linearGradient id="paint3_linear_1014_0" x1="-14.2879" y1="13.9205" x2="5.02555" y2="-13.5608" gradientUnits="userSpaceOnUse">
<stop stop-color="#0C7489"/>
<stop offset="1" stop-color="#0A2239"/>
</linearGradient>
</defs>
</svg>
