<svg width="129" height="129" viewBox="0 0 129 129" fill="none" xmlns="http://www.w3.org/2000/svg">
<g filter="url(#filter0_d_1014_51)">
<path d="M101.638 69.7802C99.3638 87.5379 85.2876 101.223 67.7062 102.77C64.9015 102.962 62.0818 102.855 59.2932 102.452C42.3494 100.056 28.9696 86.4603 26.6271 69.2578C26.1747 65.8784 26.1778 62.4567 26.6364 59.0872C27.4262 53.4706 29.4339 48.1136 32.5151 43.4014C36.3474 37.3311 41.8324 32.5274 48.3137 29.5652C59.9239 24.1861 73.4835 25.1542 84.3566 32.1387C95.2296 39.1231 101.943 51.1778 102.203 64.1813C102.155 66.0608 101.966 67.9326 101.638 69.7802Z" fill="#0FA3B1"/>
</g>
<path d="M102.034 69.606C100.729 79.6905 95.5172 88.7375 87.5453 94.7569C79.5733 100.776 69.4944 103.275 59.5256 101.703C42.5564 99.1813 29.0725 85.4796 26.6053 68.2511C26.1293 64.8667 26.1078 61.4434 26.5415 58.0756C27.2914 52.462 29.2615 47.1172 32.3104 42.4255L32.69 42.8113C33.2085 43.6663 33.4455 44.6616 33.366 45.6494C33.0098 48.4564 32.8633 51.2919 32.9278 54.1317C33.0144 57.1156 35.4119 59.5519 38.3513 59.6428C39.0475 59.5973 39.7943 59.2805 40.493 59.4528C41.1918 59.625 42.2903 61.9244 42.3091 63.557C42.3414 66.897 43.6022 70.1348 45.8442 72.6347C48.2078 75.0297 51.7144 75.8022 54.7642 74.5999C58.069 73.0102 60.0621 69.2272 63.6468 68.675C66.4082 69.0026 68.7404 70.9898 69.5471 73.7025C70.2439 76.4716 70.7774 79.2766 71.1447 82.1023C71.6196 84.8174 73.3684 87.1569 75.8265 88.3656C78.9227 88.9687 82.0183 87.5807 83.6116 84.875C85.0267 82.1597 86.0402 79.2402 86.6203 76.2082C87.765 72.6628 89.7521 69.4759 92.4091 66.9244C94.9294 64.2004 98.6623 62.9807 102.341 63.6792C102.371 65.6628 102.268 67.6429 102.034 69.606Z" fill="#0C7489"/>
<path d="M26.3363 68.3555C27.9886 68.4452 29.6105 68.9191 31.0764 69.7406C37.1946 73.7983 41.567 80.0906 43.2459 87.254C43.8087 89.0053 44.9144 91.2012 46.7315 90.7958C48.5487 90.3905 48.5043 87.4501 49.7207 86.327C50.5043 85.545 51.7019 85.3599 52.7173 85.8639C53.7327 86.368 54.349 87.4534 54.2593 88.5799C54.3929 90.3241 54.0463 92.2237 54.7674 93.8144C56.7049 97.8206 61.719 96.0528 64.8747 95.5064C68.0304 94.9599 68.613 94.4796 70.5936 94.2403C72.5741 94.001 75.4855 95.0291 78.0618 95.1808C81.6275 95.0702 84.9509 93.4951 87.2732 90.8152C89.5719 88.152 92.0418 85.6473 94.6676 83.3165C95.7584 82.5299 96.9588 81.9083 98.2327 81.4703C91.0799 96.6004 74.8482 104.864 58.2916 101.804C41.7349 98.7443 28.7694 85.0852 26.3875 68.193L26.3363 68.3555Z" fill="#0FA3B1"/>
<path d="M100.091 49.8433C98.949 49.7301 97.8016 49.7487 96.6711 49.8986C91.7136 50.8523 89.6098 57.0595 84.776 59.2089C81.9397 60.2973 78.7039 59.7728 76.2577 57.8282C73.8521 55.886 72.2902 53.0647 71.9245 50.0014C71.8155 47.8537 71.571 45.7112 71.1925 43.5871C70.4003 41.2645 68.7145 39.3447 66.5279 38.2751C64.3413 37.2055 61.8449 37.0795 59.6204 37.9265C57.973 38.6062 55.6575 41.1747 53.6228 40.9259C49.3923 40.3717 54.0296 35.6689 53.5636 32.9486C53.1137 31.265 51.8052 29.9353 50.1471 29.4769C49.6241 29.2738 49.0851 29.1201 48.537 29.0178C57.8608 24.7799 68.6008 24.6537 78.2598 28.6684C87.9188 32.6831 95.6551 40.489 99.6697 50.2708L100.091 49.8433Z" fill="url(#paint0_linear_1014_51)"/>
<path d="M68.2636 103.402C65.4372 103.563 62.5921 103.421 59.775 102.981C42.6585 100.362 29.0061 86.4887 26.4435 69.1106C25.9479 65.6968 25.9112 62.2458 26.3345 58.853C27.0658 53.1976 29.0283 47.8188 32.0811 43.1031C35.8755 37.0267 41.3515 32.2475 47.8538 29.3376C49.9081 28.3938 52.0478 27.6418 54.2471 27.0906C56.7042 28.7238 38.3532 36.631 34.0012 51.747C21.1441 96.0014 68.1468 102.852 68.2636 103.402Z" fill="url(#paint1_linear_1014_51)" fill-opacity="0.8"/>
<defs>
<filter id="filter0_d_1014_51" x="16.291" y="18.1206" width="95.9121" height="96.7422" filterUnits="userSpaceOnUse" color-interpolation-filters="sRGB">
<feFlood flood-opacity="0" result="BackgroundImageFix"/>
<feColorMatrix in="SourceAlpha" type="matrix" values="0 0 0 0 0 0 0 0 0 0 0 0 0 0 0 0 0 0 127 0" result="hardAlpha"/>
<feOffset dy="2"/>
<feGaussianBlur stdDeviation="5"/>
<feColorMatrix type="matrix" values="0 0 0 0 0 0 0 0 0 0 0 0 0 0 0 0 0 0 0.812254 0"/>
<feBlend mode="normal" in2="BackgroundImageFix" result="effect1_dropShadow_1014_51"/>
<feBlend mode="normal" in="SourceGraphic" in2="effect1_dropShadow_1014_51" result="shape"/>
</filter>
<linearGradient id="paint0_linear_1014_51" x1="99.0979" y1="27.4667" x2="43.9033" y2="30.8279" gradientUnits="userSpaceOnUse">
<stop stop-color="#0C7489"/>
<stop offset="1" stop-color="#0C7489"/>
</linearGradient>
<linearGradient id="paint1_linear_1014_51" x1="94.6468" y1="103.761" x2="79.3018" y2="35.904" gradientUnits="userSpaceOnUse">
<stop stop-color="#0C7489"/>
<stop offset="1" stop-color="#A9DCE6"/>
</linearGradient>
</defs>
</svg>
