<svg width="156" height="106" viewBox="0 0 156 106" fill="none" xmlns="http://www.w3.org/2000/svg">
<g filter="url(#filter0_d_2849_3808)">
<path d="M99.6205 18.2461C115.135 29.9176 120.663 50.8153 112.947 68.621C111.664 71.4324 110.093 74.0988 108.259 76.5767C97.1678 91.6633 77.4018 97.3311 60.0013 90.4143C56.5871 89.0481 53.3707 87.2193 50.441 84.9784C45.5707 81.2186 41.5799 76.421 38.7555 70.9307C35.0455 63.9903 33.3889 56.1296 33.9839 48.2891C34.9812 34.2054 42.9648 21.6259 55.2053 14.8513C67.4457 8.07665 82.2849 8.02459 94.6496 14.7129C96.3924 15.7619 98.0542 16.943 99.6205 18.2461Z" fill="#0FA3B1"/>
</g>
<path d="M99.6642 17.7685C108.468 24.4101 114.258 34.2713 115.76 45.1827C117.263 56.0941 114.355 67.1619 107.677 75.9513C96.4536 90.9948 76.5338 96.7067 59.044 89.8966C55.6126 88.5504 52.3819 86.7445 49.4408 84.5286C44.5525 80.809 40.5536 76.0542 37.7316 70.606L38.2924 70.4452C39.367 70.4007 40.4267 70.7029 41.3141 71.3068C43.7683 73.1486 46.3586 74.8031 49.063 76.2561C51.9145 77.7646 55.4563 76.749 57.0751 73.9586C57.3955 73.262 57.4871 72.3717 58.0136 71.7887C58.5401 71.2057 61.2756 71.3717 62.8208 72.2247C65.9789 73.9757 69.6816 74.4856 73.2022 73.6543C76.6876 72.6494 79.2433 69.6748 79.7034 66.0877C79.9322 62.0476 77.4141 58.1041 78.7646 54.3472C80.5132 51.8549 83.5987 50.6628 86.5707 51.3312C89.5384 52.1357 92.4547 53.1172 95.3039 54.2703C98.105 55.2604 101.218 54.8197 103.636 53.0905C105.819 50.4219 106.128 46.6915 104.415 43.7089C102.599 40.8933 100.382 38.3566 97.8331 36.1785C95.0959 33.1811 93.1352 29.5614 92.1215 25.6337C90.8744 21.746 91.6745 17.4899 94.2503 14.3097C96.1314 15.3393 97.9402 16.4949 99.6642 17.7685Z" fill="#0C7489"/>
<path d="M59.0025 90.2118C59.9487 88.6639 61.2404 87.3504 62.7777 86.3729C69.7853 82.6289 77.9839 81.7635 85.5966 83.9643C87.5372 84.3553 90.1792 84.4591 90.7458 82.4878C91.3125 80.5164 88.524 78.9903 88.1023 77.2162C87.7755 76.0421 88.2262 74.7867 89.2299 74.0749C90.2336 73.3631 91.5759 73.3471 92.5885 74.0348C94.2986 74.8365 95.9043 76.1849 97.7765 76.3372C102.555 76.6036 103.508 70.8176 104.64 67.4781C105.772 64.1387 105.624 63.3197 106.432 61.2791C107.24 59.2386 109.726 56.9754 111.213 54.568C112.969 51.0652 113.221 47.0148 111.912 43.3419C110.606 39.7007 109.539 35.9787 108.717 32.199C108.546 30.7257 108.587 29.2347 108.84 27.7706C119.338 42.7523 118.643 62.8386 107.129 77.1967C95.6148 91.5549 76.0055 96.7888 58.8764 90.0757L59.0025 90.2118Z" fill="#0FA3B1"/>
<path d="M80.0637 9.10041C79.3614 10.1432 78.7803 11.2613 78.3316 12.4331C76.6426 17.7301 81.3829 23.0742 80.8829 28.8897C80.427 32.2099 78.2458 35.0552 75.141 36.3801C72.0595 37.6671 68.5914 37.6703 65.5197 36.3889C63.443 35.3481 61.3005 34.4411 59.1054 33.6733C56.5078 33.199 53.8229 33.8028 51.6764 35.3439C49.5299 36.8851 48.1092 39.2289 47.7454 41.8293C47.5253 43.7831 48.733 47.3901 47.4377 49.2225C44.7097 53.0127 42.7058 46.0245 39.9043 45.0231C38.0863 44.5591 36.1532 45.1134 34.8572 46.4703C34.3934 46.867 33.9676 47.3056 33.5855 47.7803C34.4634 36.5139 39.9471 26.0736 48.7613 18.8869C57.5754 11.7002 68.9521 8.39353 80.2459 9.7357L80.0637 9.10041Z" fill="url(#paint0_linear_2849_3808)"/>
<path d="M113.833 68.4175C112.509 71.2328 110.892 73.9052 109.008 76.391C97.6168 91.525 77.4482 97.3083 59.7678 90.5105C56.2986 89.1676 53.0339 87.3615 50.0639 85.1423C45.1266 81.4184 41.0917 76.6528 38.2491 71.1881C34.5137 64.281 32.8755 56.442 33.5306 48.6092C33.7145 46.1215 34.1234 43.6537 34.7522 41.2354C37.5699 39.7337 35.434 61.6768 47.3801 73.9459C82.2936 109.978 113.254 68.2366 113.833 68.4175Z" fill="url(#paint1_linear_2849_3808)"/>
<g filter="url(#filter1_d_2849_3808)">
<path d="M114.441 13.0094C109.453 14.5356 104.556 16.3405 99.7713 18.4154C102.364 20.3457 104.754 22.531 106.904 24.9383C123.226 18.3731 133.053 17.4404 135.488 18.7127C135.625 19.1877 135.122 21.0455 132.227 24.7889C118.435 39.8097 102.17 52.3847 84.1347 61.9705C49.5043 82.0111 25.02 87.4896 21.0599 85.1122C20.9236 84.6371 21.4262 82.7793 24.2418 79.0588C27.9078 74.5378 32.0961 70.4609 36.7198 66.9125C35.4674 63.8836 34.5612 60.7233 34.0183 57.4909C27.6839 62.3141 21.9493 67.8705 16.9365 74.0419C11.978 80.519 10.664 85.8654 12.8692 89.9456C16.3823 95.8785 25.7524 96.362 41.6627 91.3713C57.8817 85.9178 73.4699 78.7477 88.1582 69.9848C107.277 59.7827 124.51 46.4082 139.11 30.4409C144.069 23.9638 145.303 18.6403 143.177 14.5372C139.482 8.57079 130.272 8.04165 114.441 13.0094Z" fill="url(#paint2_linear_2849_3808)"/>
</g>
<defs>
<filter id="filter0_d_2849_3808" x="23.8652" y="1.7334" width="102.539" height="103.602" filterUnits="userSpaceOnUse" color-interpolation-filters="sRGB">
<feFlood flood-opacity="0" result="BackgroundImageFix"/>
<feColorMatrix in="SourceAlpha" type="matrix" values="0 0 0 0 0 0 0 0 0 0 0 0 0 0 0 0 0 0 127 0" result="hardAlpha"/>
<feOffset dy="2"/>
<feGaussianBlur stdDeviation="5"/>
<feColorMatrix type="matrix" values="0 0 0 0 0 0 0 0 0 0 0 0 0 0 0 0 0 0 0.812254 0"/>
<feBlend mode="normal" in2="BackgroundImageFix" result="effect1_dropShadow_2849_3808"/>
<feBlend mode="normal" in="SourceGraphic" in2="effect1_dropShadow_2849_3808" result="shape"/>
</filter>
<filter id="filter1_d_2849_3808" x="2.83594" y="2.63672" width="150.338" height="103.149" filterUnits="userSpaceOnUse" color-interpolation-filters="sRGB">
<feFlood flood-opacity="0" result="BackgroundImageFix"/>
<feColorMatrix in="SourceAlpha" type="matrix" values="0 0 0 0 0 0 0 0 0 0 0 0 0 0 0 0 0 0 127 0" result="hardAlpha"/>
<feOffset dy="2"/>
<feGaussianBlur stdDeviation="4.5"/>
<feColorMatrix type="matrix" values="0 0 0 0 0 0 0 0 0 0 0 0 0 0 0 0 0 0 0.324874 0"/>
<feBlend mode="normal" in2="BackgroundImageFix" result="effect1_dropShadow_2849_3808"/>
<feBlend mode="normal" in="SourceGraphic" in2="effect1_dropShadow_2849_3808" result="shape"/>
</filter>
<linearGradient id="paint0_linear_2849_3808" x1="58.5009" y1="-1.88023" x2="31.8389" y2="52.7177" gradientUnits="userSpaceOnUse">
<stop stop-color="#0C7489"/>
<stop offset="1" stop-color="#0C7489"/>
</linearGradient>
<linearGradient id="paint1_linear_2849_3808" x1="127.933" y1="43.1277" x2="55.8567" y2="22.6318" gradientUnits="userSpaceOnUse">
<stop stop-color="#0C7489"/>
<stop offset="1" stop-color="#A9DCE6"/>
</linearGradient>
<linearGradient id="paint2_linear_2849_3808" x1="11.3908" y1="87.7494" x2="133.875" y2="104.55" gradientUnits="userSpaceOnUse">
<stop stop-color="#D5330D"/>
<stop offset="1" stop-color="#D5330D"/>
</linearGradient>
</defs>
</svg>
