<svg width="110" height="110" viewBox="0 0 110 110" fill="none" xmlns="http://www.w3.org/2000/svg">
<g filter="url(#filter0_d_1014_6)">
<path fill-rule="evenodd" clip-rule="evenodd" d="M16.2047 50.5315C18.155 67.5392 33.5237 79.7456 50.5315 77.7953C67.5392 75.8447 79.7456 60.4763 77.7953 43.4685C75.8447 26.4608 60.4763 14.2544 43.4685 16.2047C26.4608 18.155 14.2544 33.5237 16.2047 50.5315Z" fill="url(#paint0_linear_1014_6)"/>
<path fill-rule="evenodd" clip-rule="evenodd" d="M39.172 17.6387C39.3908 18.1248 40.3642 18.6403 40.7958 18.9532C41.8376 19.7094 42.8765 20.4685 43.9406 21.1925C48.3336 24.1812 53.2332 26.8468 58.6313 27.1395C59.9205 27.2093 61.4906 27.2503 62.7241 26.7736C63.8708 26.3305 64.2943 24.7883 63.8267 23.7292C63.461 22.9002 62.5828 22.2228 61.8923 21.6691C59.9078 20.0791 57.5568 18.9619 55.0825 18.4169C54.4971 18.288 53.9049 18.1885 53.3089 18.1237C53.0536 18.0958 52.7973 18.0746 52.541 18.0605C51.6608 18.0119 51.4301 17.8779 50.8622 18.6393C50.3736 19.2939 50.3341 19.3167 50.8153 19.922C51.0881 20.2651 51.4837 20.5583 51.8308 20.8251C52.4779 21.3225 53.195 21.7456 53.9368 22.0828C54.7266 22.4415 56.8595 23.4122 57.7597 23.0282C57.8478 22.8926 57.936 22.7572 58.0241 22.6219C58.4532 22.254 58.3651 22.0388 57.7597 21.9769C57.4879 21.761 57.0181 21.6428 56.7012 21.4995C55.9925 21.1795 55.2967 20.852 54.6113 20.4831C54.4624 20.403 54.5571 20.1812 54.7172 20.2403C55.0888 20.3772 61.1839 22.584 58.5723 23.4191C57.3993 23.7941 55.5662 23.1407 54.4708 22.7414C53.0876 22.2371 51.4073 21.377 50.4698 20.1835C50.0509 19.6501 49.6056 18.782 50.0291 18.1265C50.6641 17.1444 52.7426 17.6174 53.6299 17.7285C56.9664 18.1465 60.2224 19.5792 62.7472 21.8331C64.5602 23.4518 65.7193 26.2568 62.6821 27.217C59.5846 28.1961 55.7283 27.2935 52.7626 26.2701C48.9519 24.9551 45.5416 22.7634 42.2443 20.4718C40.9741 19.5894 39.0359 18.495 38.6289 17.1344C38.79 17.0889 38.9524 17.0464 39.1147 17.0034C39.0919 17.258 39.1031 17.4854 39.172 17.6387Z" fill="url(#paint1_linear_1014_6)"/>
<path fill-rule="evenodd" clip-rule="evenodd" d="M70.6546 32.9347C67.7048 34.4671 64.2953 33.7713 61.2042 33.1265C57.65 32.3849 54.082 31.6778 50.596 30.6549C44.6898 28.9221 38.8095 26.0723 35.0596 21.0294C34.5958 20.4057 34.165 19.7362 33.7949 19.0352C34.107 18.8887 34.42 18.7445 34.7382 18.6084C34.8002 18.7193 34.8618 18.8315 34.9269 18.9381C37.7052 23.4842 42.6483 26.4106 47.5226 28.2687C50.3908 29.3619 53.3745 30.1139 56.3684 30.7761C59.1763 31.397 62.0398 32.1482 64.9009 32.4693C67.6116 32.7741 71.3577 32.1689 72.4582 29.339C72.7371 29.7378 73.0074 30.1431 73.2677 30.5558C72.6629 31.5523 71.7384 32.3715 70.6546 32.9347Z" fill="url(#paint2_linear_1014_6)"/>
<path fill-rule="evenodd" clip-rule="evenodd" d="M63.8659 39.1035C58.8708 38.6258 53.9915 37.1791 49.3482 35.3105C44.7812 33.4727 39.9221 31.4098 36.1398 28.1875C33.7987 26.1932 31.7792 23.6958 30.2539 20.9445C30.4277 20.8325 30.6037 20.7235 30.78 20.6147C32.5532 23.3492 34.7728 25.7437 37.506 27.737C41.8398 30.8973 47.0613 33.1213 52.0774 34.9482C57.2217 36.8216 62.6881 38.1049 68.1903 37.9599C69.5314 37.9243 70.867 37.7988 72.1925 37.5937C73.4508 37.3991 75.048 37.2385 76.1088 36.4313C76.2527 36.8266 76.392 37.2245 76.5204 37.628C75.0159 38.6212 72.8966 38.8484 71.1998 39.0522C68.769 39.3439 66.3013 39.3365 63.8659 39.1035Z" fill="url(#paint3_linear_1014_6)"/>
<path fill-rule="evenodd" clip-rule="evenodd" d="M67.8101 42.2256C61.4698 42.6126 55.7787 42.8058 49.581 41.0214C44.55 39.5727 39.4523 37.1656 35.6801 33.4909C33.6969 31.5589 32.3765 29.1951 30.5364 27.1627C29.2768 25.7714 28.0377 24.6811 27.373 23.0645C27.4726 22.9832 27.5719 22.9015 27.6727 22.8218C28.9536 24.871 31.0571 26.0214 33.0398 27.3978C34.7093 28.5567 36.1867 29.9317 37.7968 31.1663C41.646 34.1174 45.8177 36.3326 50.4584 37.7848C55.5052 39.364 61.2198 40.2513 66.4918 40.5028C69.359 40.6396 72.2675 40.3194 75.1205 40.0322C75.7955 39.9641 76.4835 39.9125 77.1721 39.8516C77.2975 40.3851 77.41 40.9235 77.5075 41.4683C74.2414 42.0807 70.6999 42.0493 67.8101 42.2256Z" fill="url(#paint4_linear_1014_6)"/>
<path fill-rule="evenodd" clip-rule="evenodd" d="M72.6887 58.2397C69.4261 58.522 66.2005 59.1011 62.966 59.5951C57.2222 60.4722 51.2414 61.135 45.5219 59.7325C40.6099 58.5278 36.035 55.956 31.8568 53.1768C27.349 50.1788 23.1971 46.864 20.7597 41.9127C19.7081 39.7763 18.9145 37.5127 18.3066 35.2126C18.6078 34.4792 18.9396 33.7607 19.2947 33.0552C19.5865 33.8518 19.8788 34.5854 20.046 35.0717C22.1652 41.2332 26.2515 44.7456 31.3575 48.481C36.0124 51.8861 40.967 54.7002 46.495 56.4124C53.7031 58.6449 60.8706 57.544 68.224 56.9186C70.6619 56.7112 73.633 56.3535 76.4759 56.5058C76.3095 57.0155 76.1309 57.5197 75.9389 58.0183C74.8211 58.0502 73.7158 58.1509 72.6887 58.2397Z" fill="url(#paint5_linear_1014_6)"/>
<path fill-rule="evenodd" clip-rule="evenodd" d="M42.689 63.4572C39.1984 62.3756 35.9779 60.5733 32.7864 58.8226C30.3098 57.464 28.0543 56.0658 26.2734 53.8416C23.9335 50.9192 20.98 48.7137 18.5372 45.9078C17.7022 44.9485 16.9884 43.9034 16.2754 42.8656C16.383 42.0603 16.5279 41.2658 16.6971 40.479C16.9833 40.8969 17.2642 41.3236 17.5444 41.7607C19.4635 44.7558 21.8391 46.9962 24.3317 49.5081C26.5201 51.7136 28.0067 54.4415 30.612 56.2183C33.8817 58.4481 37.3137 60.0532 41.1277 61.0831C47.4728 62.7963 54.5474 61.9596 61.0862 62.2321C65.1971 62.4032 69.7309 62.8322 73.9758 62.2538C73.7526 62.6471 73.5204 63.0346 73.2808 63.4175C70.4976 63.7703 67.6393 63.8348 64.8744 64.007C57.4977 64.4669 49.8988 65.6914 42.689 63.4572Z" fill="url(#paint6_linear_1014_6)"/>
<path fill-rule="evenodd" clip-rule="evenodd" d="M16.0156 47.7021C17.3239 49.5529 18.9218 51.2661 20.5637 52.9075C24.4921 56.8353 28.7952 60.4224 32.5001 64.5567C32.5819 64.6482 32.458 64.8019 32.3511 64.7448C27.0144 61.8864 20.9831 58.2154 16.6891 53.4743C16.4837 52.5055 16.3186 51.5197 16.2038 50.5158C16.0959 49.5719 16.0384 48.6341 16.0156 47.7021Z" fill="url(#paint7_linear_1014_6)"/>
<path fill-rule="evenodd" clip-rule="evenodd" d="M71.2337 53.1305C68.2162 53.4296 65.2842 54.2063 62.2267 54.1155C52.0568 53.813 41.0618 52.3699 33.0166 45.5815C29.6069 42.7048 26.4177 39.1522 24.3519 35.174C23.3793 33.3009 22.6346 31.2039 21.3809 29.4884C21.6207 29.1339 21.8667 28.784 22.1205 28.4399C24.9641 31.8862 26.2113 36.589 29.1596 40.0505C33.1258 44.7075 39.2503 46.7861 45.0184 48.1756C51.2523 49.6771 57.6894 49.8462 64.0084 50.7646C68.1228 51.363 71.837 51.845 76.0069 51.4132C76.4385 51.3686 77.0831 51.3788 77.7102 51.3377C77.6507 51.7718 77.5777 52.2018 77.5002 52.6306C75.4286 52.9415 73.2108 52.9343 71.2337 53.1305Z" fill="url(#paint8_linear_1014_6)"/>
<path fill-rule="evenodd" clip-rule="evenodd" d="M77.8564 47.6509C77.8437 47.6026 77.845 47.554 77.8382 47.5054C72.4082 47.002 67.3703 49.9861 61.9016 49.1631C56.1317 48.2947 49.8899 47.3665 44.3123 45.6358C38.9059 43.9585 35.2238 40.0997 31.4987 36.0423C29.5857 33.9585 27.608 31.7345 26.1903 29.2759C25.5336 28.1364 25.066 26.8638 24.6719 25.5648C24.9148 25.3139 25.1673 25.0715 25.4188 24.8286C27.8904 28.4722 31.4382 31.8601 34.5217 34.6255C38.7433 38.4115 42.7325 41.7204 48.2436 43.3816C53.4425 44.9486 59.6815 47.8205 65.1847 47.4203C69.6489 47.0954 73.5718 45.3348 77.9681 45.8107C77.9955 46.5394 78.0038 47.2648 77.98 47.9841C77.9334 47.8842 77.8898 47.778 77.8564 47.6509Z" fill="url(#paint9_linear_1014_6)"/>
<path fill-rule="evenodd" clip-rule="evenodd" d="M50.3451 70.1015C45.1408 69.5072 38.5105 68.7297 34.1357 65.5998C33.7778 65.3436 34.2013 64.8156 34.5587 65.0654C39.1797 68.2944 46.8424 68.8877 52.3182 69.2986C55.4805 69.5359 58.7606 69.6307 61.9259 69.3319C64.5484 69.0844 67.0876 68.3374 69.6998 68.0782C68.9992 68.8265 68.2621 69.541 67.4893 70.2179C61.7764 70.1831 56.0836 70.7574 50.3451 70.1015Z" fill="url(#paint10_linear_1014_6)"/>
<path fill-rule="evenodd" clip-rule="evenodd" d="M41.4835 73.6568C46.109 74.7063 50.9015 74.8962 55.6113 74.3101C58.1166 73.998 60.4344 73.1772 62.8331 72.4318C63.7811 72.1371 64.9615 71.8667 66.1091 71.4899C64.1806 73.0088 62.0611 74.3042 59.7863 75.3377C54.718 75.7367 49.6601 75.696 44.6111 75.0053C35.3825 73.7425 27.9258 69.22 20.8646 63.723C20.4968 63.1452 20.1503 62.5522 19.8203 61.9482C26.2837 67.2362 33.085 71.7518 41.4835 73.6568Z" fill="url(#paint11_linear_1014_6)"/>
</g>
<defs>
<filter id="filter0_d_1014_6" x="0" y="0" width="110" height="110" filterUnits="userSpaceOnUse" color-interpolation-filters="sRGB">
<feFlood flood-opacity="0" result="BackgroundImageFix"/>
<feColorMatrix in="SourceAlpha" type="matrix" values="0 0 0 0 0 0 0 0 0 0 0 0 0 0 0 0 0 0 127 0" result="hardAlpha"/>
<feOffset dx="8" dy="8"/>
<feGaussianBlur stdDeviation="12"/>
<feColorMatrix type="matrix" values="0 0 0 0 0.0392157 0 0 0 0 0.133333 0 0 0 0 0.223529 0 0 0 0.4 0"/>
<feBlend mode="normal" in2="BackgroundImageFix" result="effect1_dropShadow_1014_6"/>
<feBlend mode="normal" in="SourceGraphic" in2="effect1_dropShadow_1014_6" result="shape"/>
</filter>
<linearGradient id="paint0_linear_1014_6" x1="6.20372" y1="61.3235" x2="62.1455" y2="86.2747" gradientUnits="userSpaceOnUse">
<stop stop-color="#0C7489"/>
<stop offset="1" stop-color="#0A2239"/>
</linearGradient>
<linearGradient id="paint1_linear_1014_6" x1="33.4148" y1="28.9627" x2="64.7978" y2="26.4988" gradientUnits="userSpaceOnUse">
<stop stop-color="#0FA3B1"/>
<stop offset="1" stop-color="#096577"/>
</linearGradient>
<linearGradient id="paint2_linear_1014_6" x1="-3.63344" y1="20.9372" x2="5.38992" y2="51.4568" gradientUnits="userSpaceOnUse">
<stop stop-color="#0FA3B1"/>
<stop offset="1" stop-color="#096577"/>
</linearGradient>
<linearGradient id="paint3_linear_1014_6" x1="74.0522" y1="31.4153" x2="66.8599" y2="11.3429" gradientUnits="userSpaceOnUse">
<stop stop-color="#0C7489"/>
<stop offset="1" stop-color="#0FA3B1"/>
</linearGradient>
<linearGradient id="paint4_linear_1014_6" x1="73.3938" y1="35.1618" x2="66.9742" y2="14.5377" gradientUnits="userSpaceOnUse">
<stop stop-color="#0C7489"/>
<stop offset="1" stop-color="#0FA3B1"/>
</linearGradient>
<linearGradient id="paint5_linear_1014_6" x1="-5.73008" y1="48.4656" x2="13.9789" y2="85.0926" gradientUnits="userSpaceOnUse">
<stop stop-color="#0FA3B1"/>
<stop offset="1" stop-color="#096577"/>
</linearGradient>
<linearGradient id="paint6_linear_1014_6" x1="-7.80784" y1="64.4323" x2="24.2724" y2="96.3163" gradientUnits="userSpaceOnUse">
<stop stop-color="#0FA3B1"/>
<stop offset="1" stop-color="#096577"/>
</linearGradient>
<linearGradient id="paint7_linear_1014_6" x1="10.6007" y1="64.5832" x2="26.2854" y2="68.0227" gradientUnits="userSpaceOnUse">
<stop stop-color="#0FA3B1"/>
<stop offset="1" stop-color="#096577"/>
</linearGradient>
<linearGradient id="paint8_linear_1014_6" x1="-3.24407" y1="53.623" x2="27.8808" y2="85.452" gradientUnits="userSpaceOnUse">
<stop stop-color="#0FA3B1"/>
<stop offset="1" stop-color="#085767"/>
</linearGradient>
<linearGradient id="paint9_linear_1014_6" x1="-7.83156" y1="39.7192" x2="12.0146" y2="78.4043" gradientUnits="userSpaceOnUse">
<stop stop-color="#0FA3B1"/>
<stop offset="1" stop-color="#096577"/>
</linearGradient>
<linearGradient id="paint10_linear_1014_6" x1="23.395" y1="70.567" x2="42.3535" y2="89.2256" gradientUnits="userSpaceOnUse">
<stop stop-color="#0FA3B1"/>
<stop offset="1" stop-color="#096577"/>
</linearGradient>
<linearGradient id="paint11_linear_1014_6" x1="10.5114" y1="77.2922" x2="66.2213" y2="71.2061" gradientUnits="userSpaceOnUse">
<stop stop-color="#0FA3B1"/>
<stop offset="1" stop-color="#096577"/>
</linearGradient>
</defs>
</svg>
