<svg width="126" height="125" viewBox="0 0 126 125" fill="none" xmlns="http://www.w3.org/2000/svg">
<g filter="url(#filter0_d_1012_4837)">
<path d="M107.9 88.18L106.085 90.9493C89.526 113.98 57.5517 119.885 33.7391 104.311L32.2028 103.273C28.4698 100.638 25.111 97.5177 22.2168 93.9955C10.2285 79.6742 6.77545 60.1343 13.1387 42.6253C14.8549 38.1195 17.206 33.8773 20.1219 30.025C21.0297 28.7789 22.0073 27.5327 22.985 26.3557C40.3328 6.26194 70.0526 2.10782 92.3279 16.6632L93.934 17.7709C116.638 33.8857 122.759 64.7417 107.9 88.18Z" fill="#2BC4D3"/>
</g>
<path d="M108.379 88.3432L106.555 91.0949C89.9426 113.97 57.8378 119.84 33.933 104.372L32.3192 103.34C12.8912 89.7239 5.0655 65.1041 13.1639 43.0775C15.2437 42.8699 17.3447 43.0806 19.3385 43.6966C23.3804 45.1263 27.0136 47.4853 29.9336 50.5759C35.5548 56.1802 39.9063 62.8846 42.7038 70.2506C43.2648 71.9701 44.0931 73.5944 45.1596 75.0662C48.4733 77.7762 52.8405 78.9096 57.0878 78.1618C59.2629 78.1618 61.5082 78.1618 63.7536 78.1618C66.6598 78.3614 69.486 79.1833 72.0331 80.5696C75.7519 82.7022 78.3481 86.3482 82.137 88.2744C86.3694 90.2551 91.2139 90.5751 95.679 89.1687C98.3785 88.2489 101.147 87.5359 103.959 87.0361C105.546 86.9226 107.12 87.3881 108.379 88.3432Z" fill="url(#paint0_linear_1012_4837)"/>
<path d="M108.138 88.2506L106.327 91.0127C89.8391 113.973 57.9742 119.865 34.248 104.339V103.994C38.8208 101.02 43.7292 98.5864 48.8728 96.7439C54.0607 94.8899 58.4898 91.396 61.4779 86.8006C62.7658 84.1456 63.4776 81.2522 63.5672 78.3074C62.8616 71.5303 63.7189 64.6829 66.0743 58.2827C69.3474 52.6896 76.033 49.9966 80.6294 45.3702C85.6803 39.0982 88.9071 31.5771 89.9614 23.6193C89.9614 22.3073 90.5882 20.9954 91.006 19.6144C91.4239 18.2333 91.6328 17.819 91.981 16.9214L93.5828 18.0262C116.411 33.9283 122.791 64.7114 108.138 88.2506Z" fill="#0FA3B1"/>
<path d="M58.2443 18.7539C56.2739 22.9588 56.9076 27.8933 59.8798 31.4903C62.7732 35.1335 65.365 38.9969 67.6307 43.0435C68.9085 47.5902 69.695 52.2556 69.9773 56.963C70.2614 60.3463 71.9915 63.455 74.7416 65.5236C79.9712 67.6475 85.9891 65.4615 88.5368 60.5125C90.8038 55.6464 92.5436 50.5612 93.7277 45.3402C94.9175 42.6715 95.846 39.8984 96.501 37.0581C97.0609 31.9351 95.2628 26.8338 91.5945 23.1385C87.9333 19.5025 83.416 16.8019 78.4393 15.274C75.0145 13.911 71.3211 13.3165 67.6307 13.5341C63.8505 13.7758 60.3917 15.6993 58.2443 18.7539Z" fill="url(#paint1_linear_1012_4837)"/>
<path d="M16.1385 73.093C15.3035 69.61 14.8836 66.0416 14.8872 62.4613C14.2472 46.1825 21.8047 30.6543 35.0471 21.0391C28.3098 31.044 25.4683 43.1416 27.0527 55.0743C27.2543 72.275 33.4719 88.871 44.6405 102.019C38.135 99.8691 32.1803 96.335 27.1917 91.6639C21.8771 86.5856 18.056 80.1654 16.1385 73.093Z" fill="#D5330D"/>
<defs>
<filter id="filter0_d_1012_4837" x="0" y="0" width="126" height="125" filterUnits="userSpaceOnUse" color-interpolation-filters="sRGB">
<feFlood flood-opacity="0" result="BackgroundImageFix"/>
<feColorMatrix in="SourceAlpha" type="matrix" values="0 0 0 0 0 0 0 0 0 0 0 0 0 0 0 0 0 0 127 0" result="hardAlpha"/>
<feOffset dy="2"/>
<feGaussianBlur stdDeviation="5"/>
<feColorMatrix type="matrix" values="0 0 0 0 0.0392157 0 0 0 0 0.133333 0 0 0 0 0.223529 0 0 0 0.721755 0"/>
<feBlend mode="normal" in2="BackgroundImageFix" result="effect1_dropShadow_1012_4837"/>
<feBlend mode="normal" in="SourceGraphic" in2="effect1_dropShadow_1012_4837" result="shape"/>
</filter>
<linearGradient id="paint0_linear_1012_4837" x1="-27.3884" y1="87.1736" x2="31.0256" y2="157.234" gradientUnits="userSpaceOnUse">
<stop stop-color="#0C7489"/>
<stop offset="1" stop-color="#033A45"/>
</linearGradient>
<linearGradient id="paint1_linear_1012_4837" x1="92.8192" y1="74.7008" x2="99.4495" y2="23.8438" gradientUnits="userSpaceOnUse">
<stop stop-color="white" stop-opacity="0.01"/>
<stop offset="1" stop-color="#FFFBFF" stop-opacity="0.582468"/>
</linearGradient>
</defs>
</svg>
