<svg width="154" height="157" viewBox="0 0 154 157" fill="none" xmlns="http://www.w3.org/2000/svg">
<g filter="url(#filter0_d_2849_3815)">
<path fill-rule="evenodd" clip-rule="evenodd" d="M16.1127 58.9626L16.0697 59.2179C15.8448 60.4196 15.6511 61.603 15.4801 62.7924C15.2769 64.2961 15.1226 65.8133 15.0796 67.3097C15.0497 67.894 15.021 68.477 15.0222 69.0441C14.9121 73.8339 15.4359 78.512 16.5551 83.0378C17.3491 86.4466 18.5138 89.7486 19.9535 92.9119L19.9714 92.9451C20.6219 94.3984 21.3573 95.8248 22.1394 97.1824C29.351 109.993 41.61 119.713 56.8453 122.996C73.4952 126.58 89.9573 121.679 101.91 111.133C102.772 110.386 103.615 109.606 104.418 108.789C105.85 107.399 107.181 105.898 108.435 104.295C108.67 104.012 108.905 103.731 109.122 103.417C109.97 102.342 110.749 101.221 111.488 100.062C112.566 98.4345 113.559 96.7283 114.438 94.9631C114.952 93.9529 115.449 92.9119 115.872 91.8489C116.515 90.3648 117.101 88.8096 117.613 87.2347C118.259 85.267 118.782 83.2637 119.217 81.2076C119.323 80.7264 119.405 80.2378 119.487 79.7505C119.763 78.2677 119.966 76.764 120.089 75.264C120.225 73.8216 120.303 72.3904 120.302 70.9615C120.424 65.9324 119.816 60.988 118.57 56.2633C118.274 55.0468 117.906 53.8083 117.499 52.6139C114.138 42.5065 107.885 33.5567 99.5533 27.0215C93.5506 22.3189 86.413 18.8781 78.5162 17.1559C69.5467 15.23 60.6072 15.7664 52.4186 18.3503C52.0168 18.4767 51.5827 18.6204 51.181 18.7456C49.4806 19.3041 47.8304 19.9571 46.2257 20.7317C45.9291 20.8606 45.6553 20.9968 45.3815 21.1331C39.1049 24.1098 33.4453 28.3705 28.7699 33.6427C27.6734 34.8604 26.6426 36.1247 25.6729 37.459C24.7091 38.7688 23.78 40.1436 22.925 41.5393C19.7813 46.7697 17.4089 52.6286 16.1127 58.9626Z" fill="url(#paint0_linear_2849_3815)"/>
<path fill-rule="evenodd" clip-rule="evenodd" d="M46.2148 20.7244C52.2893 22.6811 66.1782 29.0396 80.1974 48.3054C94.7247 68.2746 105.699 76.4364 115.104 76.5247C116.839 76.5382 118.531 76.0239 120.073 75.269C120.847 67.4203 119.88 59.7115 117.508 52.6054C115.276 54.891 111.839 56.7863 107.106 55.1709C100.089 52.7773 87.0061 44.0852 74.6024 32.4349C65.4547 23.8411 56.8548 19.9425 52.4221 18.3394C50.2984 18.9936 48.2213 19.7866 46.2148 20.7244Z" fill="url(#paint1_linear_2849_3815)"/>
<path fill-rule="evenodd" clip-rule="evenodd" d="M16.1159 58.9701L16.0645 59.2181C19.7438 58.8486 28.2852 58.597 37.8465 62.3396C61.2393 71.4981 81.1178 90.1919 95.7599 94.1003C104.215 96.3638 110.714 95.7489 114.425 94.9719C115.681 92.5291 116.742 89.9378 117.598 87.2262C114.183 87.4202 107.891 87.0188 100.535 83.0797C89.4618 77.1226 82.017 63.7746 67.339 52.4103C52.6561 41.0705 39.0064 35.3835 29.3913 33.7484C29.1725 33.7018 28.9512 33.6797 28.7575 33.6392C22.6101 40.5353 18.1248 49.1635 16.1159 58.9701Z" fill="url(#paint2_linear_2849_3815)"/>
<path fill-rule="evenodd" clip-rule="evenodd" d="M15.0128 69.0503C14.831 77.4416 16.59 85.58 19.9501 92.9242L19.9693 92.9537C25.2749 98.8703 35.4078 104.961 48.4895 107.757C71.9026 112.757 94.328 111.505 104.419 108.795C105.84 107.394 107.178 105.899 108.436 104.308C101.567 105.128 83.9859 106.223 65.3367 99.6129C41.358 91.1038 34.6413 84.0431 23.8364 75.7893C20.1295 72.9722 17.2345 70.7443 15.0128 69.0503Z" fill="url(#paint3_linear_2849_3815)"/>
</g>
<defs>
<filter id="filter0_d_2849_3815" x="0" y="0" width="161" height="164" filterUnits="userSpaceOnUse" color-interpolation-filters="sRGB">
<feFlood flood-opacity="0" result="BackgroundImageFix"/>
<feColorMatrix in="SourceAlpha" type="matrix" values="0 0 0 0 0 0 0 0 0 0 0 0 0 0 0 0 0 0 127 0" result="hardAlpha"/>
<feOffset dx="9" dy="8"/>
<feGaussianBlur stdDeviation="12"/>
<feColorMatrix type="matrix" values="0 0 0 0 0 0 0 0 0 0.00666666 0 0 0 0 0.166667 0 0 0 0.35 0"/>
<feBlend mode="normal" in2="BackgroundImageFix" result="effect1_dropShadow_2849_3815"/>
<feBlend mode="normal" in="SourceGraphic" in2="effect1_dropShadow_2849_3815" result="shape"/>
</filter>
<linearGradient id="paint0_linear_2849_3815" x1="89.7797" y1="48.6584" x2="-17.9104" y2="111.41" gradientUnits="userSpaceOnUse">
<stop stop-color="#0FA3B1"/>
<stop offset="1" stop-color="#085463"/>
</linearGradient>
<linearGradient id="paint1_linear_2849_3815" x1="21.1018" y1="59.7777" x2="85.8909" y2="109.322" gradientUnits="userSpaceOnUse">
<stop stop-color="#0C7489"/>
<stop offset="1" stop-color="#0A2239"/>
</linearGradient>
<linearGradient id="paint2_linear_2849_3815" x1="-18.3368" y1="77.8219" x2="53.2326" y2="148.137" gradientUnits="userSpaceOnUse">
<stop stop-color="#0C7489"/>
<stop offset="1" stop-color="#0A2239"/>
</linearGradient>
<linearGradient id="paint3_linear_2849_3815" x1="-16.6575" y1="99.0454" x2="30.0093" y2="161.194" gradientUnits="userSpaceOnUse">
<stop stop-color="#0C7489"/>
<stop offset="1" stop-color="#0A2239"/>
</linearGradient>
</defs>
</svg>
