<svg width="123" height="123" viewBox="0 0 123 123" fill="none" xmlns="http://www.w3.org/2000/svg">
<path d="M61.5026 122.986C95.461 122.986 122.99 95.457 122.99 61.4987C122.99 27.5404 95.461 0.0117188 61.5026 0.0117188C27.5443 0.0117188 0.015625 27.5404 0.015625 61.4987C0.015625 95.457 27.5443 122.986 61.5026 122.986Z" fill="url(#paint0_radial_2882_3521)"/>
<path opacity="0.7" d="M19.7941 62.8517C13.1608 65.8993 6.97932 69.8468 1.42414 74.5827C0.289374 69.418 -0.170446 64.1278 0.0561564 58.8447C2.04116 56.5877 3.93512 54.2587 5.71112 51.8397C11.1341 44.4517 15.7701 35.9827 23.9341 31.3847C34.6221 25.3647 48.4281 27.6847 59.4531 22.2627C68.7601 17.6877 74.9581 8.12074 84.7941 4.78074C84.8771 4.75274 84.9611 4.72772 85.0441 4.69972C96.735 9.54106 106.648 17.8708 113.431 28.5527C105.148 28.594 96.873 29.0709 88.6401 29.9817C76.7231 31.2167 64.3162 33.1007 54.3662 39.7177C47.1352 44.5267 41.7031 51.5337 34.2921 56.0837C29.7561 58.8687 24.6481 60.6267 19.7941 62.8517ZM26.1671 14.7677C28.3671 14.9677 30.3051 16.3677 32.5281 16.3147C34.9761 16.2567 37.0141 14.4937 38.8821 12.9287C45.8704 7.14679 53.9038 2.7604 62.5461 0.00773094C54.4419 -0.120611 46.3918 1.35013 38.8564 4.33579C31.321 7.32146 24.4482 11.7635 18.6312 17.4077C18.9312 17.2297 19.2232 17.0487 19.5222 16.8747C21.5622 15.6877 23.8351 14.5507 26.1671 14.7677ZM10.2271 95.4617C9.19712 93.9044 8.23581 92.2921 7.34314 90.6247C13.4509 86.3962 19.2225 81.7015 24.6061 76.5827C35.6401 66.4417 46.9062 55.5747 61.3732 50.9497C70.4662 48.0417 80.1391 47.8497 89.5411 46.2767C99.3889 44.5451 108.966 41.5255 118.026 37.2957C118.801 39.1117 119.495 40.9784 120.108 42.8957C120.146 43.0127 120.179 43.1297 120.215 43.2467C110.931 47.5922 102.24 53.1058 94.3532 59.6537C86.8112 65.9877 80.0591 73.4087 71.2531 77.9927C62.1451 82.7297 51.6752 84.0067 41.5692 85.8717C30.8902 87.8447 19.9941 90.7927 10.2271 95.4617ZM36.1392 76.4357C37.3192 80.0767 43.4391 79.3527 46.5461 78.8157C51.229 78.0099 55.6499 76.0914 59.4371 73.2217C60.1941 72.6397 61.0631 71.9267 61.9221 71.1217C64.7851 68.4437 67.5272 64.7547 65.5452 61.5047C63.3452 57.9047 56.4292 58.8647 52.8452 59.9307C48.6514 61.1137 44.7627 63.1887 41.4451 66.0137C38.7721 68.3847 34.9412 72.7367 36.1392 76.4357ZM115.339 91.1917C113.513 92.2917 111.631 93.3091 109.692 94.2437C100.192 98.8007 89.7092 100.985 79.3002 102.617C69.5092 104.153 59.5742 105.261 50.1632 108.417C44.4818 110.251 39.1616 113.056 34.4392 116.709C30.3983 114.727 26.586 112.31 23.0701 109.501C28.3815 107.132 33.9251 105.322 39.6111 104.101C51.2952 101.412 63.6111 99.6467 73.6721 93.2277C83.4261 87.0067 89.8551 77.1677 98.2081 69.3117C105.306 62.7477 113.55 57.544 122.529 53.9597C124.124 66.8178 121.608 79.8506 115.343 91.1917H115.339ZM103.954 103.674C98.5212 105.274 92.8352 106.209 87.7722 108.746C81.2452 112.015 76.2721 117.674 70.3301 121.911C70.0631 122.101 69.7931 122.285 69.5231 122.469C84.0706 120.537 97.4525 113.481 107.264 102.569C106.174 102.982 105.065 103.348 103.958 103.674H103.954Z" fill="url(#paint1_radial_2882_3521)"/>
<defs>
<radialGradient id="paint0_radial_2882_3521" cx="0" cy="0" r="1" gradientUnits="userSpaceOnUse" gradientTransform="translate(29.7753 21.7781) scale(111.783)">
<stop offset="0.081" stop-color="#2BC8D7"/>
<stop offset="0.234" stop-color="#2DC7D6"/>
<stop offset="0.54" stop-color="#2AB7C5"/>
<stop offset="0.907" stop-color="#0C7489"/>
</radialGradient>
<radialGradient id="paint1_radial_2882_3521" cx="0" cy="0" r="1" gradientUnits="userSpaceOnUse" gradientTransform="translate(90.7649 -204.002) rotate(-17.6526) scale(111.712 111.625)">
<stop offset="0.077" stop-color="#0C7489"/>
<stop offset="0.249" stop-color="#0C8F9B"/>
<stop offset="0.592" stop-color="#0FA3B1"/>
<stop offset="0.907" stop-color="#0C7489"/>
</radialGradient>
</defs>
</svg>
