<svg width="75" height="76" viewBox="0 0 75 76" fill="none" xmlns="http://www.w3.org/2000/svg">
<mask id="path-1-inside-1_2892_3722" fill="white">
<path d="M44.1257 20.413C37.9745 16.8708 30.7458 15.6845 23.7852 17.075C16.8246 18.4656 10.6064 22.3383 6.28846 27.972C1.97051 33.6057 -0.152969 40.6166 0.313238 47.6995C0.779444 54.7823 3.80361 61.4543 8.82276 66.4735C13.8419 71.4926 20.514 74.5168 27.5968 74.983C34.6796 75.4492 41.6905 73.3257 47.3242 69.0078C52.958 64.6898 56.8306 58.4717 58.2212 51.5111C59.6118 44.5505 58.4256 37.3217 54.8833 31.1706"/>
</mask>
<path d="M48.3675 13.0471C40.4301 8.47617 31.102 6.94532 22.12 8.73974L25.4504 25.4103C30.3895 24.4236 35.519 25.2654 39.8838 27.779L48.3675 13.0471ZM22.12 8.73974C13.1379 10.5341 5.11402 15.5314 -0.457911 22.8013L13.0348 33.1427C16.0988 29.1451 20.5112 26.3971 25.4504 25.4103L22.12 8.73974ZM-0.457911 22.8013C-6.02987 30.0711 -8.77 39.1181 -8.16841 48.2577L8.79488 47.1412C8.46406 42.1152 9.97089 37.1403 13.0348 33.1427L-0.457911 22.8013ZM-8.16841 48.2577C-7.56681 57.3975 -3.66441 66.0071 2.81235 72.4839L14.8332 60.4631C11.2716 56.9015 9.1257 52.1671 8.79488 47.1412L-8.16841 48.2577ZM2.81235 72.4839C9.28911 78.9606 17.8988 82.8631 27.0385 83.4646L28.1551 66.5014C23.1291 66.1705 18.3947 64.0246 14.8332 60.4631L2.81235 72.4839ZM27.0385 83.4646C36.1782 84.0662 45.2251 81.3261 52.495 75.7542L42.1535 62.2614C38.1559 65.3254 33.181 66.8322 28.1551 66.5014L27.0385 83.4646ZM52.495 75.7542C59.7648 70.1822 64.7621 62.1583 66.5565 53.1763L49.8859 49.8459C48.8992 54.7851 46.1512 59.1974 42.1535 62.2614L52.495 75.7542ZM66.5565 53.1763C68.3509 44.1943 66.8202 34.8662 62.2492 26.9288L47.5174 35.4124C50.0309 39.7772 50.8727 44.9066 49.8859 49.8459L66.5565 53.1763Z" fill="#0C8F9B" mask="url(#path-1-inside-1_2892_3722)"/>
<mask id="path-3-inside-2_2892_3722" fill="white">
<path d="M39.6897 31.4679C36.0955 28.9113 31.672 27.7985 27.2959 28.35C22.9199 28.9014 18.9107 31.0769 16.0631 34.4452C13.2155 37.8135 11.7374 42.1286 11.9216 46.5355C12.1059 50.9423 13.9391 55.1191 17.0579 58.2379C20.1767 61.3567 24.3535 63.1899 28.7603 63.3742C33.1671 63.5584 37.4823 62.0802 40.8506 59.2326C44.2189 56.385 46.3944 52.3758 46.9458 47.9997C47.4973 43.6237 46.3844 39.2001 43.8279 35.6059"/>
</mask>
<path d="M44.0369 25.3562C38.9101 21.7096 32.6003 20.1222 26.3582 20.9088L28.2336 35.7911C30.7437 35.4748 33.281 36.1131 35.3426 37.5795L44.0369 25.3562ZM26.3582 20.9088C20.1162 21.6954 14.3975 24.7986 10.3356 29.6031L21.7906 39.2873C23.424 37.3553 25.7236 36.1074 28.2336 35.7911L26.3582 20.9088ZM10.3356 29.6031C6.27378 34.4076 4.16535 40.5628 4.42816 46.8487L19.4151 46.2222C19.3094 43.6944 20.1572 41.2193 21.7906 39.2873L10.3356 29.6031ZM4.42816 46.8487C4.69097 53.1347 7.30588 59.0925 11.7546 63.5412L22.3612 52.9346C20.5723 51.1457 19.5208 48.7499 19.4151 46.2222L4.42816 46.8487ZM11.7546 63.5412C16.2033 67.9899 22.1611 70.6048 28.447 70.8676L29.0736 55.8807C26.5459 55.775 24.1501 54.7235 22.3612 52.9346L11.7546 63.5412ZM28.447 70.8676C34.7331 71.1304 40.8883 69.0218 45.6927 64.96L36.0085 53.5051C34.0764 55.1385 31.6012 55.9864 29.0736 55.8807L28.447 70.8676ZM45.6927 64.96C50.4972 60.8982 53.6004 55.1795 54.387 48.9374L39.5047 47.062C39.1883 49.5721 37.9405 51.8717 36.0085 53.5051L45.6927 64.96ZM54.387 48.9374C55.1735 42.6953 53.5862 36.3856 49.9396 31.2588L37.7163 39.9531C39.1827 42.0147 39.821 44.552 39.5047 47.062L54.387 48.9374Z" fill="#0C8F9B" mask="url(#path-3-inside-2_2892_3722)"/>
<path d="M35.1653 44.2689C35.5189 45.5368 35.4424 46.8859 34.9481 48.1058C34.4537 49.3256 33.5692 50.3473 32.4328 51.0113C31.2963 51.6752 29.9719 51.944 28.6665 51.7756C27.3611 51.6072 26.1482 51.0112 25.2174 50.0806C24.2866 49.15 23.6904 47.9373 23.5218 46.632C23.3531 45.3266 23.6216 44.0021 24.2853 42.8655C24.949 41.7289 25.9705 40.8442 27.1903 40.3496C28.41 39.855 29.7592 39.7784 31.0271 40.1317" stroke="#333333" stroke-width="1.5" stroke-miterlimit="10"/>
<path d="M31.027 40.1322C29.7608 39.7804 28.4138 39.8577 27.1962 40.3522C25.9787 40.8467 24.9591 41.7305 24.2968 42.8655C23.6346 44.0006 23.3669 45.3231 23.5355 46.6264C23.7041 47.9297 24.2996 49.1404 25.2289 50.0695C26.1582 50.9987 27.3692 51.5939 28.6725 51.7623C29.9758 51.9306 31.2981 51.6626 32.4331 51.0001C33.568 50.3376 34.4516 49.318 34.9459 48.1003C35.4401 46.8826 35.5173 45.5356 35.1652 44.2695" stroke="#D5330D" stroke-width="5.5" stroke-miterlimit="10"/>
<path d="M50.198 28.7831L30.3031 45.7149L29.0332 44.8683L46.3883 24.9735L46.8116 13.1212L59.5105 -0.000976562L59.9338 15.661L74.7491 16.0842L62.0502 28.7831H50.198Z" fill="#0C8F9B"/>
</svg>
