<svg width="81" height="87" viewBox="0 0 81 87" fill="none" xmlns="http://www.w3.org/2000/svg">
<path d="M35.2072 17.7822C22.3953 17.7822 12.0098 28.1678 12.0098 40.9797C12.0098 53.7916 22.3953 64.1771 35.2072 64.1771C48.0191 64.1771 58.4047 53.7916 58.4047 40.9797C58.4047 28.1678 48.0191 17.7822 35.2072 17.7822ZM42.9045 51.2315C42.5397 51.5944 42.1571 51.9751 41.8466 52.2866C41.5669 52.5672 41.3695 52.9133 41.2694 53.2884C41.1282 53.8178 41.0141 54.3528 40.8233 54.8664L39.1966 59.2486C37.9095 59.5292 36.5776 59.6873 35.2072 59.6873V57.1262C35.3653 55.9458 34.4926 53.7345 33.0905 52.3324C32.5292 51.7712 32.214 51.0098 32.214 50.2156V47.2215C32.214 46.1327 31.6275 45.1318 30.6744 44.6052C29.3302 43.8616 27.4183 42.8224 26.1088 42.1629C25.0349 41.6223 24.0416 40.9338 23.1483 40.1285L23.0735 40.0611C22.4346 39.4845 21.8675 38.8332 21.3842 38.1212C20.5068 36.8331 19.0775 34.7145 18.1487 33.3376C20.0634 29.0816 23.514 25.6637 27.8018 23.807L30.0477 24.9304C31.0429 25.428 32.214 24.705 32.214 23.5919V22.5349C32.9614 22.4142 33.7218 22.3375 34.4954 22.3085L37.1425 24.9557C37.7271 25.5403 37.7271 26.4878 37.1425 27.0724L36.7038 27.5102L35.7366 28.4774C35.4448 28.7692 35.4448 29.2435 35.7366 29.5353L36.1753 29.974C36.4672 30.2658 36.4672 30.7401 36.1753 31.0319L35.427 31.7802C35.2865 31.9204 35.0961 31.9992 34.8976 31.9991H34.0567C33.8621 31.9991 33.6751 32.0749 33.5348 32.2114L32.6069 33.1141C32.4931 33.2248 32.4175 33.3689 32.3909 33.5254C32.3644 33.6819 32.3882 33.8428 32.4591 33.9849L33.9173 36.9024C34.1661 37.4 33.8041 37.9855 33.2485 37.9855H32.721C32.5404 37.9855 32.3665 37.92 32.2308 37.8022L31.3628 37.0483C31.1664 36.8779 30.929 36.7615 30.6739 36.7107C30.4189 36.6598 30.155 36.6763 29.9083 36.7583L26.9927 37.7302C26.7701 37.8044 26.5765 37.9468 26.4394 38.1372C26.3022 38.3275 26.2284 38.5562 26.2285 38.7909C26.2285 39.2146 26.468 39.6009 26.8468 39.7908L27.8832 40.309C28.7634 40.7496 29.7343 40.9787 30.7183 40.9787C31.7023 40.9787 32.8314 43.5314 33.7115 43.972H39.9552C40.7494 43.972 41.5098 44.2872 42.072 44.8484L43.3525 46.129C43.8875 46.6641 44.1879 47.3899 44.1878 48.1466C44.1876 48.72 44.0742 49.2877 43.8539 49.8171C43.6337 50.3465 43.311 50.8271 42.9045 51.2315ZM51.0152 42.6868C50.4736 42.5511 50.0012 42.2191 49.6916 41.7542L48.0098 39.2315C47.7637 38.8629 47.6324 38.4296 47.6324 37.9865C47.6324 37.5433 47.7637 37.11 48.0098 36.7415L49.8422 33.9933C50.0592 33.6687 50.3567 33.405 50.7065 33.231L51.9206 32.6239C53.1852 35.142 53.9148 37.9743 53.9148 40.9797C53.9148 41.7907 53.8456 42.5848 53.7446 43.3686L51.0152 42.6868Z" fill="#0C8F9B"/>
<path d="M54.2796 68.7081C50.7233 71.1105 46.7286 72.7888 42.5236 73.6474C38.3186 74.506 33.9856 74.5279 29.7721 73.712C25.5586 72.896 21.547 71.2582 17.9665 68.892C14.386 66.5257 11.3067 63.4773 8.9043 59.9209" stroke="#D5330D" stroke-width="4.5" stroke-miterlimit="10"/>
<path d="M17.9782 61.6812L8.90372 59.921L7.14346 68.9955" stroke="#D5330D" stroke-width="4.5" stroke-miterlimit="10"/>
<path d="M51.2266 12.9697C55.009 15.1518 58.3359 18.0384 61.0168 21.4648C63.6978 24.8912 65.6804 28.7904 66.8516 32.9395C68.0229 37.0886 68.3596 41.4063 67.8429 45.6464C67.3261 49.8865 65.9659 53.9659 63.8398 57.6515" stroke="#D5330D" stroke-width="4.5" stroke-miterlimit="10"/>
<path d="M72.9691 55.8456L64.2196 57.8696L61.5977 49.2803" stroke="#D5330D" stroke-width="4.5" stroke-miterlimit="10"/>
<path d="M2.96704 41.2242C3.00776 36.9326 3.89345 32.6912 5.57339 28.7419C7.25332 24.7925 9.69469 21.2128 12.7581 18.207C15.8215 15.2012 19.4469 12.828 23.4274 11.2233C27.4079 9.61866 31.6655 8.81377 35.957 8.85449" stroke="#D5330D" stroke-width="4.5" stroke-miterlimit="10"/>
<path d="M29.3594 15.3272L35.9594 8.85528L29.4875 2.25529" stroke="#D5330D" stroke-width="4.5" stroke-miterlimit="10"/>
</svg>
