<svg xmlns="http://www.w3.org/2000/svg" fill="none" viewBox="0.72 0.01 74.5 76.55">   <path d="M35.2072 17.7827C22.3953 17.7827 12.0098 28.1683 12.0098 40.9802C12.0098 53.7921 22.3953 64.1776 35.2072 64.1776C48.0191 64.1776 58.4047 53.7921 58.4047 40.9802C58.4047 28.1683 48.0191 17.7827 35.2072 17.7827ZM42.9045 51.2319C42.5397 51.5949 42.1571 51.9756 41.8466 52.2871C41.5669 52.5677 41.3695 52.9138 41.2694 53.2889C41.1282 53.8183 41.0141 54.3533 40.8233 54.8668L39.1966 59.2491C37.9095 59.5297 36.5776 59.6878 35.2072 59.6878V57.1267C35.3653 55.9463 34.4926 53.735 33.0905 52.3329C32.5292 51.7717 32.214 51.0103 32.214 50.2161V47.222C32.214 46.1332 31.6275 45.1323 30.6744 44.6057C29.3302 43.8621 27.4183 42.8229 26.1088 42.1634C25.0349 41.6228 24.0416 40.9343 23.1483 40.129L23.0735 40.0616C22.4346 39.485 21.8675 38.8337 21.3842 38.1216C20.5068 36.8336 19.0775 34.715 18.1487 33.3381C20.0634 29.0821 23.514 25.6642 27.8018 23.8075L30.0477 24.9309C31.0429 25.4285 32.214 24.7055 32.214 23.5924V22.5354C32.9614 22.4147 33.7218 22.338 34.4954 22.309L37.1425 24.9562C37.7271 25.5408 37.7271 26.4883 37.1425 27.0729L36.7038 27.5107L35.7366 28.4779C35.4448 28.7697 35.4448 29.2439 35.7366 29.5358L36.1753 29.9745C36.4672 30.2663 36.4672 30.7406 36.1753 31.0324L35.427 31.7807C35.2865 31.9209 35.0961 31.9996 34.8976 31.9996H34.0567C33.8621 31.9996 33.6751 32.0753 33.5348 32.2119L32.6069 33.1145C32.4931 33.2253 32.4175 33.3693 32.3909 33.5259C32.3644 33.6824 32.3882 33.8433 32.4591 33.9854L33.9173 36.9028C34.1661 37.4005 33.8041 37.986 33.2485 37.986H32.721C32.5404 37.986 32.3665 37.9205 32.2308 37.8027L31.3628 37.0488C31.1664 36.8784 30.929 36.762 30.6739 36.7112C30.4189 36.6603 30.155 36.6767 29.9083 36.7588L26.9927 37.7307C26.7701 37.8049 26.5765 37.9473 26.4394 38.1376C26.3022 38.328 26.2284 38.5567 26.2285 38.7914C26.2285 39.2151 26.468 39.6014 26.8468 39.7913L27.8832 40.3095C28.7634 40.7501 29.7343 40.9792 30.7183 40.9792C31.7023 40.9792 32.8314 43.5319 33.7115 43.9725H39.9552C40.7494 43.9725 41.5098 44.2877 42.072 44.8489L43.3525 46.1294C43.8875 46.6646 44.1879 47.3904 44.1878 48.1471C44.1876 48.7204 44.0742 49.2881 43.8539 49.8175C43.6337 50.3469 43.311 50.8276 42.9045 51.2319ZM51.0152 42.6872C50.4736 42.5516 50.0012 42.2196 49.6916 41.7547L48.0098 39.2319C47.7637 38.8634 47.6324 38.4301 47.6324 37.9869C47.6324 37.5438 47.7637 37.1105 48.0098 36.742L49.8422 33.9938C50.0592 33.6692 50.3567 33.4055 50.7065 33.2315L51.9206 32.6244C53.1852 35.1425 53.9148 37.9748 53.9148 40.9802C53.9148 41.7911 53.8456 42.5853 53.7446 43.3691L51.0152 42.6872Z" fill="#0C8F9B"/>   <path d="M54.2796 68.7091C50.7233 71.1115 46.7286 72.7898 42.5236 73.6484C38.3186 74.507 33.9856 74.5289 29.7721 73.7129C25.5586 72.897 21.547 71.2592 17.9665 68.8929C14.386 66.5267 11.3067 63.4782 8.9043 59.9219" stroke="#D5330D" stroke-width="4.5" stroke-miterlimit="10"/>   <path d="M17.9782 61.6822L8.90372 59.922L7.14346 68.9965" stroke="#D5330D" stroke-width="4.5" stroke-miterlimit="10"/>   <path d="M51.2266 12.9702C55.009 15.1523 58.3359 18.0389 61.0168 21.4653C63.6978 24.8917 65.6804 28.7909 66.8516 32.94C68.0229 37.0891 68.3596 41.4068 67.8429 45.6469C67.3261 49.887 65.9659 53.9663 63.8398 57.652" stroke="#D5330D" stroke-width="4.5" stroke-miterlimit="10"/>   <path d="M72.9691 55.8466L64.2196 57.8706L61.5977 49.2812" stroke="#D5330D" stroke-width="4.5" stroke-miterlimit="10"/>   <path d="M2.96704 41.2257C3.00776 36.9341 3.89345 32.6926 5.57339 28.7433C7.25332 24.794 9.69469 21.2143 12.7581 18.2085C15.8215 15.2027 19.4469 12.8295 23.4274 11.2248C27.4079 9.62012 31.6655 8.81524 35.957 8.85596" stroke="#D5330D" stroke-width="4.5" stroke-miterlimit="10"/>   <path d="M29.3594 15.3282L35.9594 8.85626L29.4875 2.25626" stroke="#D5330D" stroke-width="4.5" stroke-miterlimit="10"/> </svg>