<svg width="61" height="115" viewBox="0 0 61 115" fill="none" xmlns="http://www.w3.org/2000/svg">
<g filter="url(#filter0_d_1012_3987)">
<path d="M37.3309 25.2672L53.7656 8.55904L54.8306 29.5093L40.9065 42.9894C40.1632 35.9979 38.7635 29.9944 37.3309 25.2672Z" fill="#0A2239"/>
<path d="M53.6324 8.00265L53.7484 10.2808L38.9093 25.2943C40.2043 29.5473 41.4729 34.8336 42.2582 40.9431L40.7114 42.4331C39.9647 35.4416 38.5583 29.4382 37.1188 24.711L53.6324 8.00265Z" fill="#061422"/>
<path d="M3.75358 10.7747L2.89528 29.8608L16.1931 43.1207C17.0595 36.1332 18.3407 29.9643 19.5442 25.113L5.84591 10.7697L3.75358 10.7747Z" fill="#0A2239"/>
<path d="M4.21219 10.7006L6.31157 10.6956L20.0559 25.0388C18.8483 29.8901 17.5628 36.059 16.6934 43.0465L14.6441 41.0099C15.4978 34.8618 16.6489 29.4175 17.7377 25.0443L4.20227 10.9188L4.21219 10.7006Z" fill="#061422"/>
<path d="M17.6251 81.5264C29.241 76.2562 37.2535 81.2446 37.615 81.4689C32.9454 99.635 25.6019 114.872 25.6019 114.872C25.6019 114.872 20.7939 98.8578 17.6251 81.5264Z" fill="#0FA3B1"/>
<path d="M28.1547 79.1912C31.3365 79.1836 33.8334 79.8997 35.4353 80.5448C34.0906 80.216 32.4724 79.9759 30.6222 79.9803C27.7322 79.9874 24.2769 80.5916 20.4147 82.3881C22.5822 94.5442 25.5373 106.053 27.1095 111.842C26.3084 113.703 25.7976 114.8 25.7363 114.932C25.7351 114.932 25.7351 114.933 25.7351 114.933C25.734 114.935 25.734 114.936 25.7329 114.937L25.7329 114.939C25.7329 114.939 25.7317 114.939 25.7317 114.94C25.7317 114.941 25.7306 114.942 25.7306 114.942L25.7306 114.944C25.7295 114.944 25.7295 114.944 25.7295 114.945L25.7295 114.945C25.7295 114.945 21.0382 98.9305 17.9461 81.5989C18.3789 81.398 18.8061 81.2122 19.2275 81.0402C21.8976 79.9511 24.3544 79.4269 26.5417 79.2563C27.0968 79.213 27.6349 79.1923 28.1547 79.1912Z" fill="#0C7489"/>
<path d="M15.4707 52.8004C15.6584 49.5519 15.9593 46.4152 16.3405 43.4368C17.2026 36.5091 18.4775 30.3928 19.6751 25.583C19.9232 24.6217 20.1601 23.7251 20.3869 22.8753C29.0652 18.8311 36.3582 22.8369 36.3582 22.8369C36.6788 23.7874 37.0006 24.8138 37.3214 25.9141C38.7082 30.6522 40.0632 36.6694 40.783 43.6769C41.0731 46.5417 41.2618 49.5652 41.291 52.7383C40.8805 52.4687 30.7812 46.0809 15.4707 52.8004V52.8004Z" fill="#0FA3B1"/>
<path d="M28.2452 20.658L28.2523 20.658C33.0542 20.6483 36.3767 22.3864 36.5167 22.4616C36.5203 22.4635 36.5215 22.4645 36.5215 22.4645C36.6467 22.8304 36.7731 23.2078 36.8983 23.5957C35.4452 23.0829 33.1148 22.4727 30.2616 22.4795C27.8055 22.4854 24.9627 22.9484 21.9606 24.3249C21.7252 25.1928 21.4793 26.1085 21.2217 27.0912C19.9785 32.0034 18.6563 38.2498 17.76 45.3244C17.4728 47.5323 17.2297 49.8256 17.0435 52.1857C16.9429 52.223 16.841 52.2608 16.7391 52.2991C16.7297 52.3027 16.719 52.3067 16.7095 52.3103C16.7024 52.3127 16.6965 52.3151 16.6906 52.3175C16.6728 52.3239 16.6562 52.3304 16.6385 52.3368C16.6373 52.3378 16.6337 52.3386 16.6313 52.3396C16.0427 52.5633 15.4457 52.8048 14.8405 53.0662C15.0354 49.7485 15.3479 46.5451 15.7437 43.5034C16.6387 36.4282 17.9622 30.1819 19.2053 25.2696C19.4629 24.2879 19.7088 23.3722 19.9442 22.5044C19.9892 22.4832 20.033 22.463 20.078 22.4428C20.0887 22.438 20.0981 22.4342 20.1076 22.4294C23.0459 21.1123 25.8271 20.6657 28.2357 20.658L28.2452 20.658Z" fill="#0C7489"/>
<path d="M19.8281 22.8489C21.3596 17.329 22.6241 14.0737 22.6241 14.0737L32.8715 14.0491C32.8715 14.0491 34.5752 17.2018 36.4863 22.8088C36.4863 22.8088 28.8798 18.7277 19.8281 22.8489Z" fill="#0A2239"/>
<path d="M22.6241 14.0737L24.2262 14.0699C23.7157 15.5374 22.8928 18.0332 21.9739 21.3431C24.9907 19.9696 27.8474 19.5077 30.3155 19.5018C32.3702 19.4968 34.1564 19.8083 35.5401 20.1732C35.8442 20.9796 36.1628 21.8585 36.4863 22.8088C36.4863 22.8088 33.1094 20.9967 28.1768 21.0066L28.1601 21.0067C25.7385 21.0135 22.9449 21.46 19.9923 22.7741C19.9828 22.7789 19.9732 22.7827 19.9625 22.7875C19.9173 22.8077 19.8733 22.8278 19.8281 22.8489C21.3596 17.329 22.6241 14.0737 22.6241 14.0737Z" fill="#061422"/>
<path fill-rule="evenodd" clip-rule="evenodd" d="M37.2995 81.5511C36.9268 81.3122 29.1382 76.3204 17.8552 81.6084C16.0903 71.6511 14.8464 61.2494 15.2941 53.1905C15.2941 53.1576 15.2968 53.1223 15.2996 53.087C15.3024 53.0516 15.3051 53.0162 15.3051 52.9832L15.3051 52.9737C30.545 46.1893 40.5981 52.6396 41.0068 52.9119L41.0068 52.9213C41.033 54.6743 41.0139 56.4744 40.938 58.3121C40.6247 65.9846 39.1902 74.0175 37.3011 81.5521L37.2995 81.5511ZM37.6996 65.5016C37.6911 61.27 33.5589 57.8495 28.4717 57.8617C23.3835 57.874 19.2763 61.3143 19.2847 65.5459C19.2931 69.7678 23.414 73.1882 28.5023 73.176C33.5894 73.1637 37.708 69.7235 37.6996 65.5016Z" fill="#0A2239"/>
<path d="M36.6188 60.8566C38.3292 62.2849 39.3881 64.2449 39.3924 66.4102C39.4011 70.7851 35.0871 74.3502 29.7574 74.3631C25.9399 74.3722 22.6427 72.5558 21.0752 69.9161C22.0938 70.7653 23.3454 71.4262 24.7429 71.8289C24.7429 71.8291 24.7441 71.8292 24.7441 71.8293C24.7524 71.8314 24.7596 71.8336 24.7667 71.8358C24.7691 71.8365 24.7715 71.837 24.7739 71.8377C24.7786 71.8391 24.7846 71.8406 24.7894 71.8421C24.7941 71.8436 24.7989 71.8449 24.8037 71.8463C24.806 71.847 24.8084 71.8474 24.8108 71.8481C25.7961 72.1254 26.8549 72.2748 27.9564 72.2722C33.2027 72.2596 37.4634 68.8047 37.587 64.5238C37.5893 64.4558 37.5903 64.3876 37.5902 64.3193L37.59 64.2364C37.59 64.2329 37.5888 64.2292 37.5888 64.2256L37.5887 64.1708C37.5875 64.1637 37.5875 64.1564 37.5875 64.1493L37.5875 64.1439C37.5862 64.1154 37.5862 64.0868 37.5849 64.0584L37.5849 64.0577C37.5837 64.0484 37.5837 64.0394 37.5837 64.03L37.5837 64.028C37.5825 64.0193 37.5824 64.0105 37.5824 64.0016L37.5824 63.9992C37.5254 62.8754 37.1851 61.8119 36.6188 60.8566Z" fill="#061422"/>
<path d="M28.8821 49.8804C36.2694 49.8626 40.7385 52.7322 41.0083 52.9119L41.0083 52.9213C41.0097 53.0395 41.0111 53.1581 41.0124 53.2767C41.0152 53.5234 41.0168 53.7711 41.0173 54.0193C39.0465 53.1201 35.4538 51.8866 30.6017 51.8984C26.7944 51.9075 22.2098 52.684 17.0258 54.9916L17.0258 55.001C17.0259 55.0671 17.0147 55.1425 17.0148 55.2084C16.6055 62.5737 17.6097 71.8957 19.1332 81.0469C18.7118 81.2196 18.287 81.4063 17.8553 81.6083C16.3456 73.0902 15.2173 64.2468 15.2025 56.8232C15.2 55.569 15.2294 54.3553 15.2941 53.1905C15.294 53.1246 15.3052 53.0493 15.3051 52.9832L15.3051 52.9737C15.8855 52.7153 16.458 52.4766 17.0226 52.2555C17.0248 52.2547 17.0282 52.2535 17.0294 52.2527C17.0464 52.2464 17.0623 52.24 17.0794 52.2336C17.085 52.2312 17.0907 52.229 17.0975 52.2265C17.1066 52.223 17.1169 52.219 17.1259 52.2154C18.5164 51.6759 19.8582 51.2466 21.1501 50.9104C23.9851 50.1729 26.5766 49.886 28.8821 49.8804Z" fill="#061422"/>
<path fill-rule="evenodd" clip-rule="evenodd" d="M38.1278 64.89C38.1359 68.9809 34.0375 72.3146 28.9754 72.3267C23.9122 72.3389 19.8118 69.025 19.8037 64.9341C19.7955 60.8339 23.8826 57.5 28.9458 57.4879C34.0079 57.4757 38.1196 60.7898 38.1278 64.89ZM35.0956 64.8972C35.0901 62.1486 32.3335 59.936 28.9512 59.9441C25.5679 59.9523 22.8325 62.1781 22.838 64.9267C22.8435 67.6661 25.5877 69.8786 28.971 69.8705C32.3533 69.8623 35.101 67.6366 35.0956 64.8972Z" fill="#0C7489"/>
<path d="M22.1818 65.1223C22.1762 62.3208 24.9642 60.0522 28.4127 60.0439C31.8602 60.0356 34.6699 62.2907 34.6755 65.0922C34.681 67.8844 31.8803 70.153 28.4329 70.1613C24.9844 70.1696 22.1873 67.9145 22.1818 65.1223Z" fill="#D5330D"/>
<path d="M28.7741 59.9444C28.7859 59.9444 28.799 59.9445 28.8109 59.9444C28.8132 59.9444 28.8156 59.9444 28.818 59.9445C28.8299 59.9445 28.8417 59.9446 28.8548 59.9446C28.856 59.9447 28.8583 59.9447 28.8607 59.9447C28.8726 59.9448 28.8845 59.9449 28.8951 59.9451L28.8987 59.9451C28.9106 59.9452 28.9224 59.9454 28.9343 59.9457C28.9379 59.9457 28.9414 59.9457 28.9438 59.9458C28.9557 59.946 28.9675 59.9463 28.9782 59.9465C28.9806 59.9466 28.9842 59.9467 28.9865 59.9467C28.996 59.9469 29.0067 59.9472 29.0162 59.9475C29.0186 59.9476 29.0221 59.9477 29.0245 59.9477C29.0352 59.948 29.0459 59.9484 29.0566 59.9487C29.0613 59.9488 29.0661 59.949 29.0696 59.9492C29.0803 59.9495 29.0898 59.9499 29.1005 59.9502C29.1052 59.9504 29.11 59.9506 29.1147 59.9508C29.1218 59.951 29.129 59.9513 29.1349 59.9517C29.1408 59.9519 29.1456 59.952 29.1503 59.9523C29.1598 59.9527 29.1693 59.9531 29.1788 59.9536C29.1847 59.9538 29.1907 59.9541 29.1966 59.9544C29.2014 59.9547 29.2073 59.955 29.2132 59.9553C29.2227 59.9558 29.2334 59.9563 29.2429 59.9569C29.2465 59.9571 29.25 59.9573 29.2536 59.9575C29.2773 59.9589 29.2999 59.9603 29.3236 59.9617C29.3248 59.9618 29.3248 59.9619 29.326 59.9619C31.2549 60.0893 32.9442 60.9032 34.0148 62.1009C32.9775 61.5311 31.7235 61.1988 30.3729 61.2021C26.8242 61.2106 23.9543 63.5305 23.96 66.396C23.9622 67.5163 24.4082 68.5514 25.1623 69.3961C23.6914 68.5885 22.6587 67.3013 22.4147 65.8121L22.4147 65.8117C22.4123 65.7922 22.4087 65.7725 22.4063 65.753C22.4063 65.7517 22.4051 65.7502 22.4051 65.749C22.4039 65.7379 22.4027 65.7268 22.4003 65.7157C22.4003 65.7136 22.4003 65.7114 22.3991 65.7094C22.3991 65.7035 22.3979 65.6977 22.3979 65.6917C22.3967 65.69 22.3967 65.6882 22.3967 65.6865C22.3955 65.6764 22.3943 65.6662 22.3931 65.6562C22.3919 65.6522 22.3919 65.6484 22.3907 65.6445C22.3907 65.6387 22.3895 65.6331 22.3895 65.6272C22.3883 65.6209 22.3882 65.6143 22.387 65.608C22.3858 65.6035 22.3858 65.599 22.3858 65.5944C22.3846 65.5885 22.3846 65.5825 22.3834 65.5765C22.3834 65.5716 22.3822 65.5663 22.3822 65.5614C22.381 65.5553 22.381 65.549 22.3798 65.543C22.3798 65.5391 22.3798 65.5352 22.3786 65.5313C22.3786 65.5231 22.3774 65.5152 22.3762 65.507L22.3761 65.4968C22.3749 65.4899 22.3749 65.4827 22.3737 65.4758L22.3737 65.4685C22.3725 65.4598 22.3725 65.4508 22.3713 65.442C22.3713 65.439 22.3713 65.4357 22.3701 65.4327C22.3701 65.4239 22.3689 65.4151 22.3688 65.4063L22.3688 65.3991C22.3676 65.3915 22.3676 65.3841 22.3676 65.3765C22.3664 65.3738 22.3664 65.371 22.3664 65.3683C22.3664 65.3593 22.3652 65.3501 22.3651 65.3411L22.3651 65.3336C22.3639 65.3249 22.3639 65.316 22.3639 65.3072L22.3639 65.3044C22.3627 65.295 22.3627 65.2853 22.3626 65.2758L22.3626 65.2683C22.3614 65.259 22.3614 65.2493 22.3614 65.24L22.3614 65.235C22.3614 65.2263 22.3602 65.2175 22.3601 65.2089L22.36 65.1384C22.3543 62.2732 25.2242 59.953 28.7741 59.9444Z" fill="#A12507"/>
<path d="M28.287 107.865C28.287 107.865 34.4533 89.3083 35.7308 81.6019C35.7308 81.6019 34.209 80.5181 31.4016 80.9954C31.4016 80.9954 34.3251 85.9048 28.287 107.865V107.865Z" fill="#2BC8D7"/>
<path d="M39.1855 50.3318C39.1855 50.3318 37.0305 48.7672 35.1132 48.9549C35.1132 48.9549 36.3312 32.5441 33.3027 24.0405C33.3027 24.0405 33.8597 24.0448 34.3296 24.1968C34.3296 24.1968 38.1389 37.5016 39.1855 50.3318H39.1855Z" fill="#2BC8D7"/>
</g>
<defs>
<filter id="filter0_d_1012_3987" x="0.894531" y="0.00268555" width="59.9355" height="114.943" filterUnits="userSpaceOnUse" color-interpolation-filters="sRGB">
<feFlood flood-opacity="0" result="BackgroundImageFix"/>
<feColorMatrix in="SourceAlpha" type="matrix" values="0 0 0 0 0 0 0 0 0 0 0 0 0 0 0 0 0 0 127 0" result="hardAlpha"/>
<feOffset dx="2" dy="-4"/>
<feGaussianBlur stdDeviation="2"/>
<feColorMatrix type="matrix" values="0 0 0 0 0 0 0 0 0 0 0 0 0 0 0 0 0 0 0.25 0"/>
<feBlend mode="normal" in2="BackgroundImageFix" result="effect1_dropShadow_1012_3987"/>
<feBlend mode="normal" in="SourceGraphic" in2="effect1_dropShadow_1012_3987" result="shape"/>
</filter>
</defs>
</svg>
