<svg width="307" height="632" viewBox="0 0 307 632" fill="none" xmlns="http://www.w3.org/2000/svg">
<path d="M284 58.96C282.763 58.96 281.76 58.0825 281.76 57C281.76 55.9175 282.763 55.04 284 55.04C285.237 55.04 286.24 55.9175 286.24 57C286.24 58.0825 285.237 58.96 284 58.96Z" fill="white"/>
<path d="M211.5 140.82C210.418 140.82 209.54 140.005 209.54 139C209.54 137.995 210.418 137.18 211.5 137.18C212.582 137.18 213.46 137.995 213.46 139C213.46 140.005 212.582 140.82 211.5 140.82V140.82Z" fill="white"/>
<path d="M73.5 109.24C72.4948 109.24 71.68 108.237 71.68 107C71.68 105.763 72.4948 104.76 73.5 104.76C74.5052 104.76 75.32 105.763 75.32 107C75.32 108.237 74.5052 109.24 73.5 109.24V109.24Z" fill="white"/>
<path d="M166.5 62.32C165.495 62.32 164.68 61.5052 164.68 60.5C164.68 59.4948 165.495 58.68 166.5 58.68C167.505 58.68 168.32 59.4948 168.32 60.5C168.32 61.5052 167.505 62.32 166.5 62.32V62.32Z" fill="white"/>
<path d="M85 24.24C83.9175 24.24 83.04 23.2371 83.04 22C83.04 20.7629 83.9175 19.76 85 19.76C86.0825 19.76 86.96 20.7629 86.96 22C86.96 23.2371 86.0825 24.24 85 24.24V24.24Z" fill="white"/>
<path d="M266 126C262.926 126.243 259.974 127.301 257.452 129.063C255.959 131.45 255.137 134.191 255.07 137C254.866 134.195 254.002 131.476 252.548 129.063C250.446 126.418 244 126 244 126C247.059 125.905 250.026 124.938 252.548 123.215C254.51 121.405 255.07 115 255.07 115C255.07 115 255.07 121.405 257.452 123.215C259.981 124.924 262.944 125.889 266 126Z" fill="#FFE6F7"/>
<path d="M25.1202 54.2432C22.0739 54.5026 19.1417 55.5235 16.5931 57.2121C15.0083 59.555 14.1098 62.2942 13.9989 65.1205C13.8856 62.3226 13.1042 59.5923 11.72 57.1581C9.66081 54.4895 3.12154 53.9992 3.12154 53.9992C6.18383 53.9327 9.1733 53.0527 11.7833 51.4496C13.2667 48.9144 14.1108 46.0562 14.2429 43.1219C14.3791 46.0664 15.2058 48.9376 16.6564 51.5036C19.1813 53.1586 22.1044 54.1048 25.1202 54.2432Z" fill="#FFE6F7"/>
<path d="M236 8.56911C233.603 8.76671 231.299 9.57616 229.311 10.9187C228.211 12.7663 227.588 14.8556 227.5 17C227.337 14.8497 226.669 12.7671 225.549 10.9187C223.877 8.84553 219 8.56911 219 8.56911C221.35 8.46309 223.622 7.69612 225.549 6.35772C227.082 4.97561 227.5 0 227.5 0C227.5 0 227.5 4.97561 229.451 6.35772C231.378 7.69612 233.65 8.46309 236 8.56911H236Z" fill="#FFE6F7"/>
<path d="M193 541.96C191.763 541.96 190.76 541.082 190.76 540C190.76 538.918 191.763 538.04 193 538.04C194.237 538.04 195.24 538.918 195.24 540C195.24 541.082 194.237 541.96 193 541.96Z" fill="white"/>
<path d="M107 608.32C105.918 608.32 105.04 607.505 105.04 606.5C105.04 605.495 105.918 604.68 107 604.68C108.082 604.68 108.96 605.495 108.96 606.5C108.96 607.505 108.082 608.32 107 608.32V608.32Z" fill="white"/>
<path d="M19.5 620.24C18.4948 620.24 17.68 619.237 17.68 618C17.68 616.763 18.4948 615.76 19.5 615.76C20.5052 615.76 21.32 616.763 21.32 618C21.32 619.237 20.5052 620.24 19.5 620.24V620.24Z" fill="white"/>
<path d="M52.5 561.32C51.4948 561.32 50.68 560.505 50.68 559.5C50.68 558.495 51.4948 557.68 52.5 557.68C53.5052 557.68 54.32 558.495 54.32 559.5C54.32 560.505 53.5052 561.32 52.5 561.32V561.32Z" fill="white"/>
<path d="M18 503.24C16.9175 503.24 16.04 502.237 16.04 501C16.04 499.763 16.9175 498.76 18 498.76C19.0825 498.76 19.96 499.763 19.96 501C19.96 502.237 19.0825 503.24 18 503.24V503.24Z" fill="white"/>
<path d="M223 621C219.926 621.243 216.974 622.301 214.452 624.063C212.959 626.45 212.137 629.191 212.07 632C211.866 629.195 211.002 626.476 209.548 624.063C207.446 621.418 201 621 201 621C204.059 620.905 207.026 619.938 209.548 618.215C211.51 616.405 212.07 610 212.07 610C212.07 610 212.07 616.405 214.452 618.215C216.981 619.924 219.944 620.889 223 621Z" fill="#FFE6F7"/>
<path d="M22 560C18.9568 560.293 16.0361 561.347 13.5063 563.063C11.9476 565.424 11.0795 568.173 11 571C10.8557 568.203 10.044 565.482 8.63291 563.063C6.5443 560.418 0 560 0 560C3.06136 559.9 6.04088 558.986 8.63291 557.354C10.0881 554.803 10.9005 551.936 11 549C11.1689 551.943 12.0274 554.805 13.5063 557.354C16.0494 558.981 18.9829 559.895 22 560Z" fill="#FFE6F7"/>
<path d="M307 451.569C304.603 451.767 302.299 452.576 300.311 453.919C299.211 455.766 298.588 457.856 298.5 460C298.337 457.85 297.669 455.767 296.549 453.919C294.877 451.846 290 451.569 290 451.569C292.35 451.463 294.622 450.696 296.549 449.358C298.082 447.976 298.5 443 298.5 443C298.5 443 298.5 447.976 300.451 449.358C302.378 450.696 304.65 451.463 307 451.569H307Z" fill="#FFE6F7"/>
</svg>
