<svg width="53" height="75" viewBox="0 0 53 75" fill="none" xmlns="http://www.w3.org/2000/svg">
<path d="M53 24.7479C53 11.1014 41.1122 -0.000976562 26.5 -0.000976562C11.8878 -0.000976562 0 11.1014 0 24.7479C0 37.3006 10.0585 47.6999 23.0435 49.2864V58.966H9.79348V65.4223H23.0435V74.999H29.9565V65.4223H43.2065V58.966H29.9565V49.2864C42.9414 47.6999 53 37.3006 53 24.7479ZM6.91304 24.7479C6.91304 14.6614 15.6998 6.45526 26.5 6.45526C37.3002 6.45526 46.087 14.6614 46.087 24.7479C46.087 34.8345 37.3004 43.0406 26.5 43.0406C15.6996 43.0406 6.91304 34.8345 6.91304 24.7479Z" fill="#0FA3B1"/>
</svg>
