<svg width="114" height="259" viewBox="0 0 114 259" fill="none" xmlns="http://www.w3.org/2000/svg">
<g filter="url(#filter0_f_3426_41165)">
<path d="M42.8761 94.0072L40.4396 109.056L40.4396 119.143L37.8243 129.979" stroke="#AABEB1" stroke-width="7"/>
</g>
<g filter="url(#filter1_f_3426_41165)">
<path d="M72.1918 175.188L58.4138 181.712L50.1038 187.43L39.6955 191.419" stroke="#AABEB1" stroke-width="7"/>
</g>
<g filter="url(#filter2_f_3426_41165)">
<path d="M12.044 153.144L14.5218 168.432L20.2792 176.715L24.3156 187.105" stroke="#AABEB1" stroke-width="7"/>
</g>
<g filter="url(#filter3_f_3426_41165)">
<path d="M-2.52759 116.476L10.0062 125.154L19.1113 129.497L27.7651 136.522" stroke="#AABEB1" stroke-width="7"/>
</g>
<g filter="url(#filter4_f_3426_41165)">
<path d="M39.6934 150.528L42.7543 163.167L42.7543 168.462L45.2979 168.463" stroke="#AABEB1" stroke-width="7"/>
</g>
<g filter="url(#filter5_f_3426_41165)">
<ellipse cx="33.715" cy="53.3848" rx="34.0002" ry="31.3848" fill="url(#paint0_radial_3426_41165)"/>
</g>
<g filter="url(#filter6_f_3426_41165)">
<ellipse cx="67.3405" cy="134.089" rx="24.2858" ry="22.4177" fill="url(#paint1_radial_3426_41165)"/>
</g>
<path d="M90.4072 128.863C88.7617 126.473 86.5569 124.521 83.9847 123.179C81.6628 121.993 79.736 120.263 77.8587 118.582C76.6067 117.418 75.287 116.328 73.9064 115.32L73.116 114.727C69.6578 112.255 65.4091 109.24 60.6169 111.118C55.8781 113.041 51.6379 116.015 48.2167 119.818C45.7959 122.487 45.6477 126.046 45.4007 129.457V130.495C45.3019 132.323 45.4007 134.399 47.8709 135.536C46.7481 138.278 46.6603 141.335 47.6239 144.137L47.8215 144.829C48.7107 147.547 49.7482 150.958 52.9594 152.738L52.0208 157.087C51.5761 158.125 51.0821 159.213 50.4893 160.448C49.8964 161.684 49.106 163.464 48.5131 165.045C48.3649 160.646 47.031 156.247 44.462 151.601L44.215 151.106C43.6222 149.97 42.8317 148.388 40.6086 148.586C38.3854 148.783 37.4962 151.65 37.4468 152.886C37.1503 160.35 37.3974 168.11 44.2644 173.646C44.4567 173.791 44.6972 173.856 44.9363 173.828C45.1753 173.801 45.3946 173.682 45.5489 173.498C45.688 173.295 45.7573 173.052 45.7465 172.806C45.7339 172.688 45.6965 172.574 45.6369 172.472C45.5773 172.37 45.4968 172.281 45.4007 172.213C39.2253 167.22 39.0277 160.152 39.3241 152.836C39.3735 151.008 39.7193 150.464 40.7568 150.365C41.7943 150.266 41.9919 150.76 42.5847 151.947C42.7329 152.144 42.7823 152.342 42.8811 152.49C46.7346 159.361 47.6733 165.737 45.7959 172.015C45.7518 172.172 45.7515 172.337 45.795 172.494C45.8386 172.651 45.9244 172.793 46.043 172.905C44.9561 176.76 43.7704 180.467 41.152 183.68C40.6086 184.372 40.8062 185.262 41.1026 186.25V186.349L41.2508 186.893C41.4278 187.719 41.379 188.577 41.1095 189.377C40.84 190.177 40.3597 190.89 39.7193 191.44C38.6044 192.557 37.5646 193.745 36.6069 194.999C35.7177 196.087 34.779 197.224 33.7909 198.212C32.5537 199.446 31.49 200.843 30.6291 202.364L33.0005 155.308L35.9647 138.799C37.7926 137.711 37.6444 135.783 37.5456 134.498C37.4813 134.056 37.4648 133.609 37.4962 133.164C38.6147 132.839 39.6556 132.291 40.5558 131.551C41.456 130.812 42.1967 129.898 42.7329 128.863C48.8095 117.149 48.8589 105.385 42.9305 94.8563H42.8811C42.9157 94.6853 42.8963 94.5077 42.8254 94.3483C42.7546 94.1889 42.636 94.0554 42.4859 93.9665C42.3883 93.893 42.2759 93.8416 42.1565 93.816C42.037 93.7904 41.9134 93.7912 41.7943 93.8183C41.6789 93.8367 41.5696 93.8821 41.4752 93.9508C41.3807 94.0195 41.3039 94.1096 41.2508 94.2137C35.7671 103.061 33.3463 113.491 33.7415 127.133C31.5184 125.848 30.5303 123.673 29.4434 121.202L29.0482 120.312C26.0346 113.639 25.0465 106.324 25.9358 97.2783C26.2816 93.9171 26.8745 90.8031 30.8761 90.0617C31.75 89.8863 32.5764 89.5267 33.3005 89.0068C34.0246 88.4869 34.6296 87.8186 35.0754 87.0465C36.0337 87.4385 37.0543 87.6561 38.089 87.6891C41.152 87.6891 43.5234 85.7613 45.6971 83.7842L45.8947 83.5865C53.4535 76.7159 61.2592 69.5487 60.0241 57.4386C60.5845 57.0765 61.0301 56.5621 61.3086 55.9557C62.7413 53.4843 63.5317 48.6896 61.605 46.7619C59.6783 44.8342 59.7771 43.5985 59.5301 41.5719V40.781C58.9866 37.0244 56.22 37.3704 54.5403 37.5681C53.9019 37.6674 53.252 37.6674 52.6136 37.5681C52.5904 36.1349 52.1808 34.7345 51.4279 33.515C49.9458 31.1424 47.278 29.6595 43.6222 29.2641C42.4859 29.1158 41.5966 28.4238 40.7074 27.6824C39.8181 26.9409 38.4842 25.9029 36.8045 25.6558C34.0379 25.2109 32.1606 25.7052 30.1351 27.4352C28.4339 28.8859 26.982 30.6058 25.837 32.5264C24.4537 30.4009 22.1317 27.9295 17.7842 29.2147C16.7514 29.4011 15.6908 29.3674 14.6718 29.1158C12.9427 28.8192 10.9172 28.4732 9.18805 30.0055C7.45893 31.5378 6.9155 33.9598 6.56967 36.2336C6.45813 37.2212 6.25975 38.1971 5.97683 39.1499C5.73146 39.891 5.54966 40.6516 5.4334 41.4236C1.0365 39.8419 -2.91577 41.473 -6.76923 43.0548C-9.83224 44.2905 -10.8203 51.5565 -9.2888 55.9063C-7.06565 62.1343 -3.55801 67.7692 -0.149181 73.2064L1.0365 75.1836C2.37039 77.2596 4.0501 77.5561 5.58161 77.5561H7.95297C10.9666 82.5485 14.6224 87.5902 20.5508 90.6054C21.6871 91.1491 22.8728 91.594 23.9597 92.0388L25.0959 92.4342C24.5192 93.9198 24.1855 95.4887 24.1079 97.0806C23.1692 106.472 24.2067 114.084 27.3685 121.054L27.7143 121.894C29.0976 125.057 30.4315 128.023 34.3344 129.407C34.8284 129.605 35.1742 130.396 35.1742 131.73C32.8882 131.862 30.6346 131.14 28.8506 129.704C19.2663 122.19 9.13865 116.061 1.33292 111.563C1.23897 111.474 1.11634 111.422 0.987096 111.415L-3.90384 110.921C-4.05003 110.896 -4.20018 110.91 -4.33901 110.962C-4.47785 111.014 -4.60043 111.102 -4.69429 111.217C-4.85561 111.447 -4.92601 111.729 -4.8919 112.008C-2.27353 123.278 5.77922 130.445 14.079 136.525C15.9069 137.859 18.0312 138.7 20.0568 139.491C21.4213 140.012 22.7571 140.606 24.0585 141.27C24.9858 141.764 26.0216 142.019 27.0721 142.011C29.2952 142.011 31.5184 140.924 33.4945 139.935L33.8897 139.787H33.9391L31.1725 155.061L29.5916 186.497C27.0721 178.984 23.515 169.988 20.8966 164.65C20.1556 163.019 19.4145 161.289 18.6735 159.41H18.6241C16.6974 154.665 14.7212 149.821 11.3618 146.312L11.2136 146.46L11.3124 146.262H11.2136L11.0654 146.163H10.3737L10.1761 146.262H10.0279L9.9291 146.411L9.83029 146.509H9.78089C5.33459 154.962 8.00237 161.585 11.1148 169.247C13.7332 175.673 17.9324 181.357 22.0329 186.794L22.9222 188.03C24.4043 190.056 27.1709 191.144 29.2458 191.688L28.3566 209.531C28.3523 209.649 28.3691 209.766 28.406 209.877C28.2835 212.163 28.4495 214.455 28.9 216.699C30.4315 225.349 31.0737 234.345 31.716 243.044L31.9136 245.911C32.1112 248.185 32.1112 250.409 32.1112 252.633C32.1112 256.588 32.1112 260.641 33.0005 264.496L34.1861 293.116C34.1988 293.356 34.3033 293.582 34.478 293.748C34.6526 293.914 34.8842 294.006 35.1248 294.005C35.3681 293.989 35.5969 293.884 35.7671 293.709C35.8512 293.625 35.9168 293.525 35.9594 293.414C36.0019 293.303 36.0206 293.185 36.0141 293.066L34.779 264.249C33.8897 260.443 33.8897 256.489 33.9391 252.633C33.9391 250.409 33.9391 248.086 33.7909 245.812L33.5439 242.945C32.9511 234.196 32.3088 225.2 30.6785 216.402C29.3446 208.938 30.6291 203.896 35.026 199.547C36.0635 198.459 37.0515 197.273 37.9902 196.136C38.9003 194.949 39.8907 193.826 40.9544 192.775L41.6461 191.984C43.1263 192.28 44.6322 192.429 46.1418 192.429C47.0166 192.429 47.8908 192.379 48.7601 192.281C54.7873 191.391 59.4807 188.178 64.1246 184.718C67.3358 182.247 72.2267 178.589 71.0411 172.311C71.0119 172.174 70.9524 172.045 70.8669 171.934C70.7814 171.823 70.6721 171.732 70.547 171.669C70.4193 171.595 70.2745 171.556 70.1271 171.556C69.9797 171.556 69.8348 171.595 69.7072 171.669L54.985 179.034C53.2277 180.106 51.5442 181.295 49.9458 182.593C47.9697 184.174 45.6971 185.954 43.0788 186.992C43.0694 186.823 43.0362 186.657 42.9799 186.497C42.9305 186.25 42.8811 186.053 42.8317 185.756C42.7823 185.459 42.6341 184.965 42.5353 184.767C45.6971 180.912 46.9322 176.365 48.1673 171.965C48.6119 170.433 49.0072 168.901 49.5506 167.368C50.094 165.836 51.2303 163.216 52.1196 161.239C52.7124 160.004 53.2558 158.817 53.7005 157.68H53.7499C54.0463 156.988 54.6885 155.407 54.985 154.616L60.5675 154.122C61.43 154.357 62.2143 154.817 62.8401 155.456C63.2079 155.824 63.7033 156.037 64.2234 156.049C64.6885 156.037 65.1447 155.918 65.5573 155.703H65.6067L66.0513 155.555C72.8321 154.076 79.0827 150.778 84.1329 146.015C84.5382 145.627 84.9672 145.263 85.4174 144.928C87.443 143.247 89.5673 141.468 88.9251 137.859C89.3461 137.581 89.7142 137.229 90.0119 136.821C91.3952 134.795 92.6303 132.225 90.4072 128.863ZM57.6527 114.578C58.8264 113.911 60.0484 113.333 61.3086 112.848C62.1022 112.526 62.9519 112.364 63.8084 112.373C64.6649 112.381 65.5113 112.56 66.2983 112.898L60.4193 117.841C59.6207 116.654 58.6928 115.56 57.6527 114.578ZM64.1246 154.122C63.7976 153.784 63.4329 153.486 63.0377 153.232C64.01 152.531 65.0532 151.935 66.1501 151.452C68.2251 150.464 70.3988 149.426 71.6339 147.004C71.7461 146.772 71.7638 146.507 71.6833 146.262C71.6045 146.046 71.4452 145.869 71.2387 145.768C71.1372 145.703 71.0229 145.66 70.9036 145.643C70.7843 145.626 70.6626 145.635 70.547 145.669C70.3175 145.746 70.1242 145.904 70.0036 146.114C69.0155 147.992 67.237 148.882 65.3597 149.772C64.0739 150.328 62.8624 151.042 61.7532 151.897L61.111 152.046C60.9628 150.365 62.2967 148.882 63.4823 147.943C67.484 144.73 68.4721 140.973 66.743 135.734H66.8912C67.8078 135.926 68.7572 135.892 69.6578 135.635C71.3094 135.251 73.0014 135.068 74.6969 135.091C76.4408 135.104 78.1807 134.921 79.8842 134.548C80.5759 134.399 81.0699 134.795 81.9098 135.437C82.4166 135.949 83.0216 136.352 83.6883 136.624L84.7752 137.217H84.8246C85.5363 137.71 86.3445 138.047 87.1959 138.205C87.5912 140.677 86.1091 141.863 84.2812 143.395L82.9473 144.532C78.1328 149.085 72.1738 152.246 65.7055 153.677L64.8656 153.924C64.2728 154.22 64.2234 154.22 64.1246 154.122ZM55.0838 151.601C55.4817 150.502 55.731 149.355 55.8248 148.19C56.0224 146.757 56.1706 145.422 56.9611 144.285C57.1002 144.087 57.1574 143.842 57.1205 143.603C57.0837 143.363 56.9558 143.147 56.7635 143C56.6646 142.927 56.5517 142.875 56.4319 142.848C56.312 142.821 56.1878 142.819 56.0671 142.842C55.9464 142.865 55.8318 142.913 55.7306 142.983C55.6294 143.053 55.5437 143.143 55.479 143.247C54.4415 144.73 54.2439 146.361 54.0463 147.992C53.9428 148.986 53.7273 149.964 53.4041 150.909C51.1809 149.426 50.341 146.806 49.5506 144.285L49.353 143.593C48.2661 140.232 48.7107 136.871 50.6375 134.202C52.5642 131.533 56.3188 129.358 60.3699 129.111C60.649 130.862 61.5422 132.456 62.8895 133.609C63.5442 134.235 64.2947 134.752 65.1126 135.141L64.9644 135.388C64.8961 135.489 64.8555 135.606 64.8468 135.727C64.8381 135.849 64.8617 135.97 64.915 136.08C66.5453 140.677 65.7549 143.791 62.3461 146.559C60.864 147.745 59.1842 149.624 59.2831 152.046H55.0838V151.601ZM85.2692 126.837L84.7258 127.924V128.023C83.7871 129.852 82.9473 131.631 81.4652 132.966C80.8477 132.679 80.1511 132.609 79.489 132.768C77.9147 133.109 76.3076 133.275 74.6969 133.263C72.8499 133.256 71.0088 133.472 69.2131 133.905C68.7608 134.015 68.2932 134.049 67.8298 134.004C68.1263 132.917 68.8179 132.027 69.6578 131.038C70.3175 130.247 70.9123 129.404 71.4363 128.517C71.5262 128.293 71.5307 128.043 71.4487 127.815C71.3668 127.587 71.2041 127.397 70.9916 127.282C70.7727 127.19 70.5298 127.173 70.3 127.232C70.0779 127.327 69.9009 127.504 69.806 127.726C69.3617 128.508 68.8314 129.238 68.2251 129.901C67.2778 130.974 66.5404 132.214 66.0513 133.559C65.3321 133.259 64.6778 132.823 64.1246 132.274C62.6425 130.939 61.9508 129.209 62.1979 127.726C62.8051 124.956 62.5108 122.063 61.358 119.472L68.1757 113.738C69.5232 114.504 70.8262 115.346 72.0785 116.259L72.869 116.803C74.2067 117.788 75.4775 118.861 76.673 120.016C78.5998 121.746 80.6253 123.525 83.1943 124.86C84.0758 125.31 84.9043 125.857 85.6644 126.491C85.5747 126.51 85.4914 126.552 85.4223 126.613C85.3532 126.673 85.3005 126.75 85.2692 126.837ZM60.4193 127.232C55.7754 127.479 51.5267 129.654 49.106 133.114C48.9577 133.361 48.7601 133.609 48.6119 133.905C47.3768 133.361 47.0804 132.669 47.1792 130.593L47.278 129.605C47.4262 126.441 47.6239 123.228 49.6 121.054C51.4865 118.927 53.6656 117.08 56.0718 115.567C59.6289 118.928 61.1604 123.08 60.4193 127.232ZM84.38 134.993C83.9096 134.737 83.4632 134.439 83.0461 134.103L82.9473 134.004C84.38 132.521 85.3186 130.791 86.2573 128.863V128.764L86.8501 127.677V127.578C87.593 128.277 88.2558 129.056 88.8263 129.901C90.3578 132.126 89.8143 133.757 88.4804 135.635C87.69 136.772 87.196 136.574 85.6644 135.685L84.38 134.993ZM42.6341 190.254C42.8176 189.843 42.9503 189.412 43.0294 188.969C46.1418 187.882 48.6119 185.904 51.0327 184.026C52.5324 182.758 54.1353 181.617 55.8248 180.615L69.3119 173.844C69.5095 178.292 65.7549 181.11 62.9883 183.235C58.542 186.547 54.0957 189.612 48.4637 190.452C46.5231 190.711 44.5528 190.644 42.6341 190.254ZM37.595 130.247C39.2747 126.293 40.5098 118.137 40.9544 114.331C40.958 114.102 40.8888 113.877 40.7568 113.689C40.5916 113.499 40.3634 113.376 40.1146 113.343C39.885 113.339 39.6601 113.408 39.4723 113.54C39.2714 113.682 39.1305 113.894 39.0771 114.134C38.6819 117.989 37.5456 124.86 36.2117 128.666C36.0182 128.415 35.7845 128.198 35.52 128.023V127.924C35.0754 114.875 37.0021 105.286 41.8437 96.7346C46.8828 106.472 46.6358 117.248 41.0532 127.974C40.6264 128.778 40.0441 129.489 39.3402 130.066C38.6363 130.643 37.8247 131.074 36.9527 131.335C36.9636 131.152 36.9469 130.969 36.9033 130.791C37.0595 130.779 37.2086 130.721 37.3317 130.624C37.4549 130.528 37.5465 130.396 37.595 130.247ZM15.7093 129.605C15.6602 129.714 15.6348 129.831 15.6348 129.951C15.6348 130.07 15.6602 130.188 15.7093 130.297C15.8043 130.519 15.9812 130.696 16.2033 130.791L18.8217 131.829C22.774 133.46 29.3446 136.08 33.1487 138.156L32.6546 138.354C30.0363 139.639 27.3191 140.973 24.9477 139.688C23.5853 138.996 22.1831 138.385 20.7484 137.859C18.7818 137.168 16.9071 136.238 15.1659 135.091C6.27325 128.567 -0.198585 122.289 -2.76756 112.898L0.591868 113.244C8.29879 117.692 18.3277 123.772 27.7143 131.187C29.96 132.975 32.8102 133.825 35.6682 133.559C35.6682 133.955 35.7177 134.35 35.7177 134.696C35.8659 136.08 35.8165 136.772 35.1742 137.217C31.5184 135.042 24.3055 132.126 19.5134 130.198L19.2663 130.099L16.895 129.111C16.785 129.062 16.6665 129.037 16.5464 129.036C16.4264 129.035 16.3075 129.058 16.1967 129.104C16.0859 129.151 15.9856 129.219 15.9018 129.305C15.8181 129.391 15.7526 129.493 15.7093 129.605ZM23.7126 89.7651C24.6513 87.9856 24.5525 86.1073 24.4043 84.3773C24.2561 82.6473 24.1079 80.9667 25.1453 79.5827C25.2705 79.375 25.3226 79.1315 25.2935 78.8907C25.2401 78.6507 25.0992 78.4392 24.8983 78.2976C24.8007 78.224 24.6883 78.1726 24.5689 78.147C24.4494 78.1214 24.3258 78.1222 24.2067 78.1493C24.0873 78.1549 23.971 78.1892 23.8678 78.2495C23.7646 78.3097 23.6774 78.3941 23.6138 78.4953C22.2305 80.4724 22.3787 82.5485 22.5764 84.5256C22.774 86.5028 22.774 87.5902 22.0823 88.8754C22.0268 89.0005 21.9934 89.1343 21.9835 89.2708L21.3413 88.9742C15.8575 86.1568 12.3993 81.3622 9.48447 76.617C8.447 74.8376 8.84223 73.0087 9.23746 71.0315C9.53723 69.802 9.68654 68.5405 9.68209 67.2749C9.58328 65.0506 10.0279 63.5183 10.9666 62.8263C11.9052 62.1343 13.7826 61.986 16.3021 62.7275C16.737 62.8822 17.1391 63.1169 17.4878 63.4195C18.2783 63.9632 19.3157 64.7541 20.7484 64.408C20.8849 64.6426 21.0509 64.8585 21.2425 65.0506C22.774 66.8795 25.5406 68.2635 27.7143 68.2635H27.7637C28.751 68.2219 29.7174 67.966 30.596 67.5137C31.4746 67.0613 32.2445 66.4233 32.8523 65.6438L33.1487 65.1495H33.1981C37.1009 67.2255 38.4348 70.8338 36.7057 74.7387C36.4587 75.3318 36.1623 75.925 35.8659 76.5181C34.6802 79.0884 33.3957 81.7082 33.6427 84.9705C33.7415 86.8488 31.6666 88.0351 30.5303 88.2328C28.7436 88.5135 27.1242 89.4469 25.9852 90.8525L24.7501 90.3582H24.6019L23.5644 89.9628L23.7126 89.7651ZM6.32266 67.5221C6.36414 67.4099 6.38119 67.2901 6.37267 67.1707C6.36415 67.0514 6.33025 66.9352 6.27325 66.8301C6.14097 66.6416 5.94979 66.5025 5.72982 66.4346C5.48577 66.3541 5.21996 66.3718 4.98877 66.4841C4.78788 66.6257 4.64697 66.8372 4.59354 67.0772C4.0501 68.9555 5.28519 69.9441 6.12504 70.5867C6.9649 71.2292 6.9649 71.1798 7.06371 71.5258L7.21192 71.8224C6.94773 73.0924 6.93096 74.4015 7.16251 75.6778H6.47087C4.79115 75.7273 3.60547 75.8261 2.568 74.195L1.38232 72.2672C-1.97711 66.8795 -5.38594 61.3435 -7.55968 55.2637C-8.84417 51.606 -7.90551 45.4768 -5.92937 44.6859L-5.23773 44.3893C-2.81612 48.0593 0.795389 50.7825 4.98877 52.1002C8.447 53.1877 10.3737 55.9557 11.1642 60.7009C10.6736 60.8294 10.2179 61.0658 9.83029 61.3929C8.3976 62.5298 7.75535 64.5069 7.85416 67.3738C7.88646 68.088 7.81996 68.8032 7.65655 69.4992L7.21192 69.1532C6.42146 68.4612 6.17445 68.2635 6.32266 67.5221ZM36.5081 27.4352C37.6444 27.6329 38.5336 28.3249 39.4229 29.0664C40.3122 29.8078 41.6461 30.8952 43.3258 31.0435C46.4382 31.3895 48.6613 32.5758 49.7976 34.4541C50.9339 36.3324 51.0327 39.0016 49.8964 42.0167C49.4428 43.3624 49.0635 44.732 48.7601 46.1193C48.2661 48.2448 47.7721 50.3208 46.6852 52.1991C45.5983 54.0774 45.4501 55.5603 46.6358 57.0431C44.9922 57.469 43.2894 57.6193 41.5966 57.488C38.8314 57.1936 36.0475 57.8377 33.6921 59.3169C33.3642 56.8203 33.8127 54.2834 34.9766 52.0508C35.0417 51.9493 35.0843 51.835 35.1013 51.7156C35.1184 51.5962 35.1095 51.4745 35.0754 51.3588C34.9987 51.1292 34.8405 50.9358 34.6308 50.8151C34.411 50.7269 34.1692 50.7096 33.9391 50.7657C33.8218 50.7962 33.7125 50.8518 33.6187 50.9285C33.5249 51.0053 33.4488 51.1015 33.3957 51.2105C31.716 54.374 31.3702 57.6857 32.21 61.64C32.3028 62.1431 32.2845 62.6603 32.1565 63.1555C32.0285 63.6507 31.7938 64.112 31.469 64.5069C31.0257 65.0594 30.471 65.5122 29.8411 65.8359C29.2112 66.1595 28.5202 66.3467 27.8131 66.3852C26.1334 66.4346 23.8608 65.2978 22.6752 63.8149C22.2098 63.3586 21.9434 62.7368 21.9341 62.0849C22.4776 59.4652 22.4776 56.7466 22.4776 54.1763C22.4776 51.606 22.4776 48.3436 23.1692 45.4768L23.3668 44.8342C24.8489 38.705 26.331 32.9713 31.3208 28.8192C32.348 27.8491 33.7124 27.3172 35.1248 27.3364L36.5081 27.4352ZM38.6819 82.9439C41.0532 80.7196 43.5234 78.4459 43.8692 76.2216C43.8863 76.0988 43.8775 75.9738 43.8435 75.8547C43.8094 75.7355 43.7509 75.6248 43.6716 75.5296C43.5247 75.3435 43.3129 75.2199 43.0788 75.1836C42.9637 75.1592 42.8444 75.1645 42.732 75.1991C42.6196 75.2337 42.5179 75.2964 42.4365 75.3813C42.3312 75.4451 42.2412 75.5313 42.1729 75.6338C42.1046 75.7363 42.0597 75.8526 42.0413 75.9744C41.7943 77.5561 39.4723 79.6816 37.4468 81.5599C36.8045 82.153 36.1129 82.7956 35.52 83.4382C35.6682 81.2633 36.6069 79.3356 37.5456 77.309C37.842 76.7159 38.1384 76.0733 38.3854 75.4801C40.5098 70.6361 38.8795 66.0886 34.0873 63.5678L33.9391 63.4689C34.1032 62.7548 34.12 62.0148 33.9885 61.294L34.1861 61.1952C36.2904 59.7359 38.8579 59.1025 41.399 59.4157C44.1162 59.6134 46.6852 59.0203 49.2048 58.3777C51.7243 57.7351 55.0838 56.8949 58.1962 57.6363C59.2831 68.8567 52.169 75.3318 44.6103 82.2025L44.4126 82.4002C41.399 85.1682 39.1265 86.4534 36.1129 85.4648C36.8045 84.6739 37.7926 83.7842 38.6819 82.9439ZM48.6613 56.5983C48.6066 56.4793 48.5214 56.377 48.4143 56.3017C47.1792 55.3626 47.8709 53.7808 48.2661 53.1383C49.5012 51.0622 50.0446 48.7885 50.5387 46.5642C50.8845 45.1802 51.1809 43.895 51.6255 42.6593C52.0278 41.6103 52.2934 40.5139 52.416 39.397C53.1725 39.4784 53.9363 39.4618 54.6885 39.3476C56.7141 39.1499 57.3563 39.1499 57.6033 41.0282L57.7021 41.7696C57.9492 43.9445 58.1962 46.0205 60.2711 48.0471C61.358 49.1345 60.864 52.9405 59.6783 55.0166C59.2831 55.758 58.9372 55.9557 58.8878 55.9557C55.2814 54.9671 51.9714 55.8074 48.7601 56.5983H48.6613ZM21.5389 44.3893L21.3907 45.0319C20.6496 48.0965 20.6496 51.1611 20.6002 54.1763C20.6752 56.7053 20.5264 59.2361 20.1556 61.7389C20.1129 62.0168 20.0964 62.2982 20.1062 62.5792C19.6616 62.6286 19.2663 62.3815 18.5747 61.8872L17.9818 61.4917C18.7723 58.872 18.3771 56.3511 17.9324 53.9291C17.6517 52.5281 17.4865 51.1063 17.4384 49.6782C17.4384 49.4292 17.3395 49.1903 17.1635 49.0141C16.9874 48.838 16.7487 48.7391 16.4997 48.7391C16.2678 48.751 16.0484 48.8486 15.8842 49.0129C15.7199 49.1773 15.6224 49.3967 15.6105 49.6288C15.6474 51.1722 15.8127 52.7098 16.1045 54.2257C16.4997 56.4994 16.895 58.6249 16.2527 60.7997C15.1812 60.4665 14.0648 60.2998 12.9427 60.3055C12.3499 56.45 10.9172 53.682 8.59521 51.9025C9.10566 51.0319 9.3539 50.0323 9.31007 49.0239C9.26625 48.0155 8.93224 47.0412 8.34819 46.2182C6.9649 44.3893 6.76729 42.4616 7.65655 39.6936C8.00466 38.6345 8.23657 37.5406 8.34819 36.4313C8.64461 34.4541 8.94103 32.5758 10.3737 31.3401C11.8064 30.1044 12.7945 30.5987 14.3754 30.8952C15.9563 31.1918 16.9444 31.2907 18.2289 30.8952C21.3907 30.0055 23.021 31.4884 24.5525 33.9598C24.5737 34.0298 24.6119 34.0935 24.6636 34.1453C24.7153 34.197 24.7789 34.2352 24.8489 34.2564C23.268 37.5681 22.3787 41.1765 21.5389 44.3893ZM7.06371 50.9634C6.56771 50.7161 6.05612 50.5015 5.5322 50.3208C1.87325 49.1927 -1.29603 46.8581 -3.45921 43.6973C-0.840828 42.7582 1.97516 42.0662 4.98877 43.203H5.33459C5.42806 44.7155 5.97947 46.1637 6.9155 47.3551C7.26991 47.8845 7.47129 48.5016 7.49744 49.1383C7.5236 49.775 7.3735 50.4066 7.06371 50.9634ZM24.4043 186.942L23.4656 185.707C19.4639 180.319 15.3635 174.783 12.7945 168.456C9.8797 161.338 7.60714 155.703 10.8678 148.536C13.5355 151.749 15.3635 156.148 16.9444 160.053C17.6854 161.882 18.4265 163.76 19.2663 165.441C22.8742 173.28 25.9926 181.336 28.6036 189.562C26.6274 188.87 25.1453 187.931 24.4043 186.942Z" fill="#231F20"/>
<defs>
<filter id="filter0_f_3426_41165" x="25.4219" y="84.4478" width="29.9102" height="55.3521" filterUnits="userSpaceOnUse" color-interpolation-filters="sRGB">
<feFlood flood-opacity="0" result="BackgroundImageFix"/>
<feBlend mode="normal" in="SourceGraphic" in2="BackgroundImageFix" result="shape"/>
<feGaussianBlur stdDeviation="4.5" result="effect1_foregroundBlur_3426_41165"/>
</filter>
<filter id="filter1_f_3426_41165" x="29.4434" y="163.024" width="53.2461" height="40.6626" filterUnits="userSpaceOnUse" color-interpolation-filters="sRGB">
<feFlood flood-opacity="0" result="BackgroundImageFix"/>
<feBlend mode="normal" in="SourceGraphic" in2="BackgroundImageFix" result="shape"/>
<feGaussianBlur stdDeviation="4.5" result="effect1_foregroundBlur_3426_41165"/>
</filter>
<filter id="filter2_f_3426_41165" x="-0.410156" y="143.584" width="36.9883" height="53.7886" filterUnits="userSpaceOnUse" color-interpolation-filters="sRGB">
<feFlood flood-opacity="0" result="BackgroundImageFix"/>
<feBlend mode="normal" in="SourceGraphic" in2="BackgroundImageFix" result="shape"/>
<feGaussianBlur stdDeviation="4.5" result="effect1_foregroundBlur_3426_41165"/>
</filter>
<filter id="filter3_f_3426_41165" x="-16.5195" y="101.599" width="58.4902" height="49.6401" filterUnits="userSpaceOnUse" color-interpolation-filters="sRGB">
<feFlood flood-opacity="0" result="BackgroundImageFix"/>
<feBlend mode="normal" in="SourceGraphic" in2="BackgroundImageFix" result="shape"/>
<feGaussianBlur stdDeviation="6" result="effect1_foregroundBlur_3426_41165"/>
</filter>
<filter id="filter4_f_3426_41165" x="24.291" y="137.705" width="33.9629" height="46.2578" filterUnits="userSpaceOnUse" color-interpolation-filters="sRGB">
<feFlood flood-opacity="0" result="BackgroundImageFix"/>
<feBlend mode="normal" in="SourceGraphic" in2="BackgroundImageFix" result="shape"/>
<feGaussianBlur stdDeviation="6" result="effect1_foregroundBlur_3426_41165"/>
</filter>
<filter id="filter5_f_3426_41165" x="-22.2852" y="0" width="112" height="106.77" filterUnits="userSpaceOnUse" color-interpolation-filters="sRGB">
<feFlood flood-opacity="0" result="BackgroundImageFix"/>
<feBlend mode="normal" in="SourceGraphic" in2="BackgroundImageFix" result="shape"/>
<feGaussianBlur stdDeviation="11" result="effect1_foregroundBlur_3426_41165"/>
</filter>
<filter id="filter6_f_3426_41165" x="21.0547" y="89.6709" width="92.5723" height="88.8354" filterUnits="userSpaceOnUse" color-interpolation-filters="sRGB">
<feFlood flood-opacity="0" result="BackgroundImageFix"/>
<feBlend mode="normal" in="SourceGraphic" in2="BackgroundImageFix" result="shape"/>
<feGaussianBlur stdDeviation="11" result="effect1_foregroundBlur_3426_41165"/>
</filter>
<radialGradient id="paint0_radial_3426_41165" cx="0" cy="0" r="1" gradientUnits="userSpaceOnUse" gradientTransform="translate(28.4842 58.6156) rotate(78.6901) scale(26.6719 28.8946)">
<stop stop-color="#A490B8"/>
<stop offset="1" stop-color="#A490B8" stop-opacity="0.14"/>
</radialGradient>
<radialGradient id="paint1_radial_3426_41165" cx="0" cy="0" r="1" gradientUnits="userSpaceOnUse" gradientTransform="translate(63.6042 137.825) rotate(78.6901) scale(19.0514 20.639)">
<stop stop-color="#A490B8"/>
<stop offset="1" stop-color="#A490B8" stop-opacity="0.14"/>
</radialGradient>
</defs>
</svg>
