<svg width="155" height="202" viewBox="0 0 155 202" fill="none" xmlns="http://www.w3.org/2000/svg">
<path d="M26.0057 98.2849C23.4779 101.649 21.1502 105.184 18.7313 108.629C16.6769 111.554 14.6524 114.5 12.7211 117.507C12.6417 117.386 12.5623 117.266 12.4848 117.144C11.8897 116.2 11.2952 115.256 10.7012 114.311C9.41658 112.265 8.12925 110.219 6.83925 108.174C4.31187 104.158 1.78518 100.144 -0.740761 96.1299C-3.43721 91.8428 -6.13253 87.5529 -8.82669 83.2602C-11.3595 79.2253 -13.7289 74.9631 -16.6581 71.2031C-16.7887 71.024 -16.9617 70.8807 -17.1619 70.7856C-17.3621 70.6906 -17.5835 70.6468 -17.8065 70.658C-17.9871 70.5224 -18.2041 70.443 -18.4311 70.4296C-20.0533 70.3465 -20.9776 72.102 -21.9275 73.2204C-23.1549 74.6656 -24.3765 76.117 -25.5922 77.5745C-28.0792 80.5507 -30.5362 83.5525 -32.963 86.5799C-35.377 89.5879 -37.8096 92.5915 -40.0846 95.7062C-41.0851 97.0761 -41.8957 98.5582 -42.9163 99.9299C-43.806 101.126 -45.1164 102.485 -45.6802 103.943C-45.8102 103.949 -45.9395 103.968 -46.0661 104C-46.1595 104.016 -46.2441 104.067 -46.3022 104.143C-46.3603 104.218 -46.3876 104.313 -46.3782 104.407C-46.314 105.3 -45.7439 105.754 -45.069 106.289C-44.0875 107.07 -43.0697 107.795 -42.0553 108.528C-39.9904 110.017 -37.924 111.501 -35.861 112.993C-31.7775 115.947 -27.8418 119.094 -23.7508 122.04C-15.7248 127.815 -7.69818 133.589 0.329069 139.362C4.92911 142.673 9.36066 146.422 14.1969 149.393C15.1352 150.417 17.0861 149.171 16.7533 147.914C17.3078 147.366 17.6857 146.581 18.1068 145.919C19.2346 144.155 20.4539 142.458 21.541 140.663C23.2834 137.783 25.0092 134.897 26.7051 131.988C27.2828 133.559 28.028 135.071 28.7053 136.594C30.1044 139.726 31.5042 142.858 32.9046 145.989C34.2403 148.969 35.4727 152.002 36.8297 154.97C37.5258 156.501 38.2231 158.031 38.9216 159.559C39.6195 161.088 40.1766 163.075 41.4416 164.202C42.3851 165.045 43.6302 164.098 43.6386 163.006C43.6391 162.958 43.6357 162.91 43.6343 162.863C43.8498 162.601 44.0453 162.314 44.2614 162.003C44.91 161.06 45.6187 160.16 46.3828 159.309C47.2077 158.39 48.0695 157.48 48.8892 156.545C49.8759 159.252 51.6407 161.823 53.0167 164.211C54.9993 167.646 57.0572 171.034 59.1905 174.373C61.2112 177.524 63.3058 180.624 65.4741 183.674C66.614 185.28 67.7704 186.873 68.9435 188.455C69.4759 189.171 69.9921 189.915 70.5608 190.602C71.1806 191.355 71.668 191.531 72.5883 191.826C72.7057 191.853 72.8283 191.852 72.9465 191.825C73.0648 191.797 73.1757 191.742 73.2708 191.666C73.3659 191.589 73.4428 191.492 73.4956 191.382C73.5484 191.272 73.5757 191.151 73.5755 191.03C73.5715 190.974 73.5699 190.923 73.5661 190.871C73.7339 190.696 73.8499 190.477 73.9012 190.241C73.9524 190.005 73.9368 189.761 73.8559 189.535C70.6227 179.5 67.0735 169.585 63.2084 159.791C61.2815 154.912 59.2005 150.109 57.1444 145.286C56.1194 142.891 55.0788 140.502 54.0225 138.12C53.097 136.039 52.2473 133.943 50.9294 132.137C50.9528 131.848 50.8943 131.56 50.7605 131.307C50.4684 130.756 50.1492 130.644 49.5411 130.588C49.2907 130.586 49.043 130.65 48.8228 130.773C48.6026 130.897 48.4177 131.076 48.2866 131.293C47.15 132.989 46.0131 134.681 44.8807 136.38C44.4849 136.973 44.0248 137.597 43.5923 138.242C43.226 137.277 42.7818 136.326 42.4336 135.419C41.7332 133.575 41.0356 131.73 40.3405 129.885C38.9434 126.192 37.5463 122.498 36.149 118.802C34.7921 115.219 33.4261 111.64 32.0511 108.066C31.3305 106.193 30.6241 104.321 29.8057 102.494C29.4231 101.64 29.0482 100.782 28.6578 99.9334C28.6172 99.8461 28.5771 99.7667 28.5349 99.6856C29.0877 98.3544 26.9662 97.0056 26.0057 98.2849ZM27.189 103.359C27.7789 105.212 28.4486 107.022 29.1349 108.84C30.5252 112.523 31.924 116.203 33.3313 119.878C34.6969 123.442 36.0638 127.007 37.4321 130.571C38.1332 132.397 38.833 134.225 39.5317 136.054C40.2041 137.818 40.6933 140.068 41.8259 141.573C42.0064 141.807 42.2577 141.976 42.5433 142.054C42.7282 142.243 42.9737 142.361 43.2381 142.387C43.5026 142.414 43.7697 142.347 43.9942 142.199C45.4896 141.137 46.5184 139.092 47.5226 137.578C48.2775 136.445 49.031 135.311 49.783 134.176C49.9827 134.678 50.2001 135.172 50.4036 135.669C50.9216 136.943 51.4844 138.195 52.0376 139.454C53.0546 141.767 54.0559 144.087 55.0415 146.414C57.1055 151.289 58.9999 156.25 60.9049 161.19C63.7415 168.548 66.4335 175.966 68.981 183.443C68.6888 183.033 68.3951 182.629 68.1069 182.218C65.9782 179.194 63.9187 176.123 61.9285 173.003C59.959 169.918 58.063 166.788 56.2404 163.612C55.2999 161.967 54.3902 160.304 53.4707 158.643C52.4111 156.72 51.4393 154.698 49.8386 153.173C49.7171 153.043 49.5581 152.955 49.3833 152.92C49.2084 152.885 49.0261 152.905 48.8607 152.976C48.6604 152.972 48.4604 153.008 48.2736 153.085C48.0867 153.162 47.9171 153.276 47.7755 153.421C46.3323 154.812 45.0855 156.395 44.0711 158.123C43.6905 158.758 43.19 159.439 42.7402 160.152C42.5097 159.7 42.2738 159.258 42.0817 158.834C41.3827 157.289 40.6837 155.745 39.9849 154.203C38.3949 150.693 36.6778 147.242 35.0603 143.743C33.6677 140.729 32.2725 137.717 30.8747 134.707C30.5616 134.033 28.5065 128.524 27.0202 129.01C26.3935 128.387 25.3351 128.25 24.7457 129.241C22.7414 132.608 20.7742 135.996 18.8442 139.403C17.8455 141.164 17.0144 143.006 16.0342 144.77C15.7695 145.248 15.4309 145.764 15.1885 146.298C11.5515 143.371 7.46346 140.888 3.66629 138.207C-0.299128 135.405 -4.23531 132.56 -8.18612 129.737C-16.3794 123.884 -24.624 118.131 -32.89 112.39C-35.1016 110.855 -37.2855 109.284 -39.4768 107.721C-40.5396 106.962 -41.5933 106.187 -42.6691 105.443C-43.0771 105.165 -43.513 104.806 -43.9746 104.512C-43.7486 104.255 -43.5346 103.972 -43.2869 103.681C-42.6374 102.907 -41.9855 102.14 -41.3576 101.348C-40.1486 99.8156 -38.7567 98.495 -37.5317 96.9874C-35.2324 94.1537 -32.9546 91.3018 -30.6491 88.4696C-28.2955 85.5764 -25.9225 82.6996 -23.5302 79.8393C-22.3061 78.3762 -21.0762 76.918 -19.8406 75.4647C-19.3713 74.9121 -18.7493 74.3456 -18.2482 73.7294C-16.0868 77.6564 -13.6143 81.4135 -11.2421 85.2101C-8.67837 89.309 -6.11734 93.408 -3.55899 97.5074C-1.02872 101.563 1.50173 105.621 4.03239 109.682C5.32063 111.75 6.6103 113.819 7.90142 115.889C8.49746 116.845 9.09281 117.8 9.68742 118.754C10.3267 119.776 10.8174 120.925 11.935 121.463C12.1344 121.567 12.3583 121.617 12.5848 121.608C12.8113 121.599 13.0327 121.531 13.2272 121.411C13.4218 121.291 13.5828 121.123 13.6947 120.923C13.8066 120.723 13.8655 120.499 13.8655 120.272C13.8674 120.213 13.8633 120.156 13.8614 120.102L13.8782 120.082C18.3521 114.283 22.7031 108.318 26.8329 102.256C26.9503 102.624 27.0716 102.991 27.189 103.359Z" fill="#F2C94C"/>
<path d="M26.8324 102.256C26.9498 102.624 27.0712 102.991 27.1885 103.359C27.7784 105.212 28.4481 107.022 29.1344 108.84C30.5248 112.523 31.9235 116.203 33.3308 119.878C34.6964 123.442 36.0633 127.007 37.4316 130.571C38.1327 132.397 38.8326 134.225 39.5312 136.054C40.2036 137.818 40.6928 140.068 41.8254 141.573C42.0059 141.807 42.2573 141.976 42.5428 142.054C42.7277 142.243 42.9732 142.361 43.2377 142.387C43.5021 142.414 43.7692 142.347 43.9938 142.199C45.4891 141.137 46.5179 139.092 47.5222 137.578C48.2771 136.445 49.0305 135.311 49.7825 134.176C49.9823 134.678 50.1997 135.172 50.4032 135.669C50.9211 136.943 51.484 138.195 52.0372 139.454C53.0542 141.767 54.0554 144.087 55.0411 146.414C57.105 151.289 58.9994 156.25 60.9044 161.19C63.741 168.548 66.433 175.966 68.9805 183.443C68.6883 183.033 68.3946 182.629 68.1065 182.218C65.9777 179.194 63.9182 176.123 61.928 173.003C59.9585 169.918 58.0625 166.788 56.24 163.612C55.2994 161.967 54.3898 160.304 53.4702 158.643C52.4106 156.72 51.4389 154.698 49.8381 153.173C49.7166 153.043 49.5577 152.955 49.3828 152.92C49.208 152.885 49.0256 152.904 48.8603 152.976C48.6599 152.971 48.4599 153.008 48.2731 153.085C48.0863 153.162 47.9167 153.276 47.7751 153.421C46.3318 154.812 45.085 156.395 44.0706 158.123C43.6901 158.758 43.1895 159.439 42.7398 160.152C42.5092 159.7 42.2734 159.258 42.0813 158.834C41.3822 157.289 40.6833 155.745 39.9844 154.203C38.3945 150.693 36.6774 147.242 35.0599 143.743C33.6673 140.729 32.272 137.717 30.8742 134.707C30.5611 134.033 28.5061 128.524 27.0197 129.01C26.393 128.387 25.3347 128.25 24.7453 129.241C22.7409 132.608 20.7738 135.996 18.8437 139.403C17.8451 141.164 17.0139 143.006 16.0337 144.77C15.769 145.248 15.4304 145.764 15.188 146.298C11.551 143.371 7.463 140.888 3.66583 138.207C-0.299592 135.405 -4.23577 132.56 -8.18658 129.737C-16.3798 123.884 -24.6245 118.131 -32.8905 112.39C-35.102 110.855 -37.2859 109.284 -39.4773 107.721C-40.54 106.961 -41.5938 106.187 -42.6696 105.443C-43.0775 105.165 -43.5135 104.806 -43.975 104.512C-43.7491 104.255 -43.5351 103.972 -43.2874 103.681C-42.6379 102.907 -41.986 102.14 -41.3581 101.348C-40.149 99.8156 -38.7571 98.495 -37.5322 96.9874C-35.2329 94.1537 -32.9551 91.3018 -30.6496 88.4696C-28.296 85.5763 -25.923 82.6996 -23.5306 79.8393C-22.3065 78.3762 -21.0767 76.918 -19.8411 75.4647C-19.3717 74.912 -18.7498 74.3456 -18.2487 73.7293C-16.0872 77.6564 -13.6148 81.4135 -11.2425 85.2101C-8.67883 89.3089 -6.1178 93.408 -3.55945 97.5074C-1.02918 101.563 1.50126 105.621 4.03192 109.681C5.32017 111.75 6.60984 113.819 7.90095 115.889C8.49699 116.845 9.09235 117.8 9.68696 118.754C10.3262 119.776 10.817 120.925 11.9345 121.463C12.1339 121.567 12.3578 121.617 12.5843 121.608C12.8108 121.599 13.0322 121.531 13.2267 121.411C13.4213 121.291 13.5824 121.123 13.6943 120.923C13.8061 120.723 13.865 120.499 13.8651 120.272C13.8669 120.213 13.8628 120.156 13.8609 120.102L13.8777 120.082C18.3516 114.283 22.7026 108.318 26.8324 102.256Z" fill="#F2C94C"/>
<path d="M61.5792 44.0815C59.1867 47.3777 57.0414 50.8838 54.7819 54.2819C52.8627 57.1663 50.9799 60.0779 49.2097 63.0669C49.1047 62.9266 48.9996 62.7863 48.8965 62.6439C48.1035 61.5471 47.3113 60.4496 46.5196 59.3514C44.8068 56.9734 43.0911 54.5953 41.3724 52.2171C38.0042 47.5499 34.6368 42.8834 31.2703 38.2176C27.6763 33.2345 24.0832 28.2486 20.491 23.2597C17.114 18.5705 13.8904 13.6576 10.1048 9.21243C9.93459 9.00194 9.72145 8.82437 9.48411 8.69533C9.24678 8.5663 8.99249 8.4897 8.74361 8.47233C8.52295 8.30205 8.26889 8.18771 8.01231 8.14318C6.18032 7.83897 5.37503 9.61107 4.4567 10.6923C3.27006 12.0895 2.09081 13.4941 0.918917 14.9062C-1.47914 17.7889 -3.84001 20.7032 -6.16366 23.6491C-8.47558 26.5757 -10.8088 29.4952 -12.9506 32.5555C-13.8925 33.9014 -14.6063 35.3935 -15.5705 36.7388C-16.4111 37.9116 -17.7021 39.2054 -18.1422 40.7038C-18.2873 40.6933 -18.4299 40.6969 -18.5677 40.7146C-18.6706 40.719 -18.7587 40.7628 -18.814 40.8369C-18.8692 40.9109 -18.8872 41.0096 -18.8643 41.1123C-18.6742 42.084 -17.9742 42.6494 -17.1457 43.3165C-15.9407 44.2889 -14.7022 45.2057 -13.4665 46.1312C-10.9516 48.0117 -8.43568 49.8858 -5.92256 51.7685C-0.947756 55.4974 3.8864 59.4135 8.86841 63.1339C18.6419 70.4276 28.4159 77.7206 38.1906 85.0129C43.7923 89.194 49.2628 93.8257 55.0847 97.672C56.2734 98.9006 58.2985 97.8141 57.7587 96.414C58.3086 95.8958 58.629 95.0986 59.0142 94.4404C60.0467 92.6861 61.191 91.0158 62.1739 89.223C63.7488 86.3455 65.3041 83.4587 66.8231 80.5446C67.6793 82.3156 68.7159 84.0463 69.6776 85.7791C71.6626 89.3445 73.6482 92.9092 75.6344 96.4732C77.528 99.8661 79.3126 103.301 81.2286 106.684C82.2125 108.429 83.1976 110.171 84.1839 111.913C85.1696 113.655 86.0578 115.873 87.6269 117.257C88.7976 118.291 90.0699 117.434 89.9349 116.257C89.9291 116.205 89.9189 116.153 89.9112 116.102C90.1184 115.848 90.2999 115.564 90.5013 115.257C91.1047 114.326 91.7812 113.448 92.5263 112.63C93.3307 111.748 94.1777 110.88 94.9742 109.98C96.4399 113.031 98.7611 116.039 100.622 118.798C103.302 122.767 106.06 126.695 108.896 130.581C111.581 134.248 114.343 137.871 117.18 141.449C118.672 143.333 120.181 145.206 121.707 147.067C122.4 147.911 123.078 148.782 123.807 149.599C124.602 150.493 125.173 150.748 126.245 151.188C126.38 151.232 126.518 151.248 126.647 151.233C126.776 151.219 126.893 151.175 126.99 151.105C127.086 151.035 127.16 150.94 127.204 150.828C127.249 150.716 127.264 150.59 127.248 150.459C127.236 150.398 127.227 150.343 127.216 150.286C127.381 150.119 127.483 149.899 127.509 149.651C127.535 149.403 127.485 149.137 127.365 148.883C122.408 137.626 117.112 126.457 111.477 115.376C108.669 109.856 105.698 104.398 102.751 98.9217C101.284 96.201 99.7998 93.4856 98.299 90.7754C96.9848 88.4075 95.7537 86.0334 94.0353 83.9097C94.0235 83.6013 93.9196 83.2827 93.7359 82.9912C93.3352 82.3589 92.962 82.1952 92.2719 82.0544C91.9906 82.0189 91.721 82.0552 91.4902 82.1597C91.2594 82.2641 91.0755 82.4329 90.9571 82.6493C89.9055 84.329 88.8531 86.0043 87.8068 87.6886C87.4409 88.2756 87.007 88.8887 86.6068 89.5269C86.068 88.4379 85.4436 87.3528 84.9328 86.3278C83.9026 84.2448 82.8754 82.162 81.8511 80.0792C79.7942 75.909 77.7371 71.7373 75.6797 67.5642C73.6825 63.5177 71.6757 59.4752 69.6594 55.4368C68.6027 53.3204 67.5621 51.2067 66.4017 49.1262C65.8592 48.1546 65.3249 47.1789 64.7744 46.2114C64.7172 46.1117 64.6617 46.0208 64.6036 45.9276C65.048 44.5643 62.4882 42.8281 61.5792 44.0815ZM63.5788 49.7139C64.486 51.791 65.4773 53.8336 66.4882 55.8855C68.5362 60.0445 70.5931 64.2002 72.659 68.3525C74.6635 72.3797 76.6695 76.4069 78.677 80.4342C79.7056 82.4976 80.7329 84.5623 81.7591 86.6285C82.7473 88.621 83.5941 91.1138 85.0647 92.8884C85.2982 93.1646 85.6027 93.3797 85.9336 93.5023C86.1661 93.7305 86.4573 93.8899 86.7576 93.9535C87.058 94.017 87.3491 93.9808 87.5816 93.8509C89.1195 92.9018 90.0039 90.832 90.931 89.3311C91.6285 88.2083 92.3242 87.0839 93.0182 85.9581C93.3088 86.5261 93.6182 87.0881 93.9124 87.6519C94.6624 89.0954 95.4598 90.5208 96.2474 91.9525C97.695 94.5834 99.1259 97.2195 100.54 99.861C103.502 105.395 106.285 110.999 109.077 116.582C113.234 124.897 117.237 133.258 121.086 141.664C120.704 141.183 120.321 140.708 119.943 140.226C117.153 136.682 114.435 133.095 111.788 129.465C109.17 125.875 106.627 122.247 104.161 118.578C102.888 116.679 101.647 114.763 100.395 112.85C98.9508 110.635 97.5925 108.324 95.5938 106.466C95.4402 106.31 95.2501 106.194 95.0492 106.133C94.8483 106.072 94.6462 106.069 94.4701 106.125C94.2446 106.093 94.025 106.106 93.8254 106.164C93.6258 106.222 93.4505 106.323 93.3108 106.461C91.8748 107.771 90.6845 109.314 89.7744 111.045C89.4313 111.68 88.9595 112.349 88.5489 113.058C88.2303 112.54 87.9071 112.032 87.6354 111.549C86.6463 109.789 85.6575 108.031 84.6689 106.274C82.4198 102.276 80.0357 98.3247 77.7572 94.3348C75.7952 90.8984 73.8305 87.4634 71.8632 84.0298C71.4226 83.2614 68.387 77.0447 66.7826 77.3718C65.9968 76.6167 64.7907 76.3295 64.2601 77.3204C62.4557 80.689 60.6956 84.0844 58.9799 87.5065C58.0917 89.2739 57.4024 91.1518 56.5355 92.9264C56.3016 93.4065 55.9898 93.919 55.7883 94.4632C51.3185 90.8237 46.4011 87.6034 41.7839 84.2073C36.9619 80.6593 32.167 77.0686 27.3586 73.4992C17.3871 66.0993 7.37114 58.8004 -2.66722 51.5116C-5.35282 49.5627 -8.01226 47.5777 -10.6789 45.6011C-11.9723 44.6413 -13.2576 43.6664 -14.5636 42.7214C-15.0584 42.3668 -15.5953 41.9218 -16.1523 41.5436C-15.9327 41.2958 -15.7298 41.0193 -15.4903 40.7373C-14.8636 39.9886 -14.2333 39.2466 -13.6332 38.4754C-12.4788 36.9816 -11.091 35.7407 -9.91541 34.2757C-7.70923 31.522 -5.52961 28.7458 -3.31632 25.9944C-1.05706 23.1836 1.22615 20.3931 3.53324 17.6229C4.71379 16.206 5.90142 14.7951 7.09614 13.3903C7.54991 12.856 8.17309 12.327 8.65413 11.7283C11.5999 16.252 14.8724 20.6336 18.0376 25.0444C21.4577 29.8068 24.8748 34.5691 28.289 39.3313C31.6658 44.0423 35.0431 48.7562 38.4211 53.4731C40.1408 55.8752 41.8622 58.2789 43.5855 60.684C44.381 61.794 45.1756 62.9031 45.9693 64.0116C46.8221 65.1994 47.5251 66.5044 48.8507 67.2325C49.0883 67.3712 49.3462 67.4547 49.5993 67.4747C49.8523 67.4948 50.0918 67.4508 50.2943 67.347C50.4968 67.2431 50.6554 67.083 50.7546 66.8824C50.8538 66.6817 50.8902 66.4473 50.8602 66.2021C50.8544 66.1389 50.8424 66.0776 50.8331 66.0185L50.8493 65.9995C55.1042 60.3327 59.1992 54.4719 63.0332 48.4768C63.2136 48.8891 63.3984 49.3016 63.5788 49.7139Z" fill="#F2C94C"/>
<path d="M63.0337 48.4768C63.2141 48.8892 63.3989 49.3016 63.5793 49.7139C64.4865 51.791 65.4779 53.8336 66.4887 55.8855C68.5367 60.0445 70.5937 64.2002 72.6596 68.3525C74.664 72.3797 76.67 76.407 78.6775 80.4342C79.7061 82.4976 80.7335 84.5623 81.7597 86.6285C82.7478 88.621 83.5946 91.1138 85.0652 92.8884C85.2988 93.1647 85.6032 93.3797 85.9342 93.5023C86.1667 93.7305 86.4578 93.8899 86.7582 93.9535C87.0585 94.017 87.3496 93.9808 87.5821 93.8509C89.1201 92.9018 90.0045 90.832 90.9315 89.3312C91.6291 88.2083 92.3247 87.084 93.0187 85.9581C93.3093 86.5261 93.6187 87.0882 93.913 87.6519C94.6629 89.0954 95.4604 90.5208 96.2479 91.9525C97.6955 94.5834 99.1264 97.2195 100.541 99.861C103.502 105.395 106.285 110.999 109.077 116.582C113.235 124.897 117.238 133.258 121.087 141.664C120.705 141.183 120.321 140.708 119.944 140.226C117.154 136.682 114.436 133.095 111.789 129.465C109.17 125.875 106.628 122.247 104.162 118.578C102.888 116.679 101.647 114.764 100.395 112.85C98.9514 110.635 97.593 108.324 95.5943 106.466C95.4408 106.31 95.2507 106.194 95.0498 106.133C94.8488 106.072 94.6467 106.069 94.4707 106.125C94.2451 106.093 94.0255 106.106 93.8259 106.164C93.6263 106.222 93.4511 106.323 93.3113 106.461C91.8753 107.771 90.685 109.314 89.7749 111.045C89.4318 111.68 88.9601 112.349 88.5495 113.058C88.2308 112.54 87.9076 112.032 87.6359 111.549C86.6468 109.789 85.658 108.031 84.6695 106.274C82.4204 102.276 80.0363 98.3247 77.7577 94.3348C75.7957 90.8984 73.8311 87.4634 71.8637 84.0298C71.4231 83.2614 68.3875 77.0447 66.7832 77.3718C65.9973 76.6167 64.7912 76.3295 64.2607 77.3204C62.4562 80.689 60.6961 84.0844 58.9804 87.5065C58.0922 89.2739 57.4029 91.1518 56.5361 92.9264C56.3021 93.4065 55.9903 93.919 55.7889 94.4632C51.319 90.8237 46.4016 87.6034 41.7844 84.2073C36.9624 80.6593 32.1676 77.0686 27.3591 73.4992C17.3876 66.0993 7.37167 58.8004 -2.6667 51.5116C-5.3523 49.5627 -8.01174 47.5777 -10.6784 45.6011C-11.9718 44.6413 -13.2571 43.6664 -14.5631 42.7214C-15.0579 42.3668 -15.5947 41.9218 -16.1517 41.5436C-15.9321 41.2958 -15.7293 41.0193 -15.4898 40.7373C-14.8631 39.9886 -14.2328 39.2466 -13.6327 38.4754C-12.4782 36.9815 -11.0905 35.7407 -9.91489 34.2757C-7.70871 31.522 -5.52909 28.7457 -3.31579 25.9944C-1.05654 23.1836 1.22668 20.3931 3.53376 17.6229C4.71431 16.206 5.90194 14.7951 7.09666 13.3903C7.55043 12.856 8.17361 12.327 8.65465 11.7283C11.6005 16.252 14.8729 20.6336 18.0381 25.0444C21.4582 29.8068 24.8753 34.5691 28.2895 39.3313C31.6663 44.0423 35.0437 48.7562 38.4216 53.4731C40.1413 55.8752 41.8628 58.2789 43.586 60.684C44.3815 61.794 45.1761 62.9031 45.9698 64.0116C46.8226 65.1994 47.5256 66.5044 48.8512 67.2325C49.0888 67.3712 49.3467 67.4547 49.5998 67.4747C49.8528 67.4948 50.0923 67.4508 50.2948 67.347C50.4973 67.2431 50.6559 67.083 50.7551 66.8824C50.8543 66.6817 50.8907 66.4473 50.8607 66.2021C50.855 66.1389 50.8429 66.0776 50.8336 66.0185L50.8498 65.9995C55.1047 60.3327 59.1998 54.4719 63.0337 48.4768Z" fill="#F2C94C"/>
</svg>
