<svg width="810" height="716" viewBox="0 0 810 716" fill="none" xmlns="http://www.w3.org/2000/svg">
<mask id="mask0_101_75" style="mask-type:alpha" maskUnits="userSpaceOnUse" x="0" y="0" width="810" height="711">
<path d="M10.396 6.02775L809.637 8.27802e-05L808.657 671.188C764.553 698.932 709.3 712.818 653.522 710.177C634.067 707.831 615.525 702.149 599.176 693.522C582.826 684.895 569.056 673.528 558.815 660.204C538.489 633.297 527.901 602.379 528.205 570.829C528.021 562.356 528.034 553.411 526.864 544.632C527.375 536.176 525.17 527.779 520.457 520.235C515.744 512.692 508.679 506.251 499.932 501.523C468.423 488.108 436.269 512.046 402.357 525.641C389.363 531.65 374.523 534.593 359.585 534.124C344.232 531.805 330.49 525.172 320.851 515.426C311.212 505.681 306.316 493.47 307.05 481.008C307.736 415.877 410.237 392.193 415.852 325.143C416.638 319.033 415.705 312.874 413.119 307.116C407.027 299.045 397.184 293.227 385.697 290.909C374.21 288.59 361.992 289.956 351.658 294.712C324.646 305.901 303.324 333.681 287.925 354.041C264.826 384.188 232.042 434.809 174.735 411.231C141.847 397.67 142.69 360.315 149.827 331.072C156.963 301.83 162.73 265.693 133.002 247.87C114.102 236.557 88.0891 237.852 65.2394 232.375C64.8988 232.402 64.5568 232.35 64.2544 232.225C43.4014 226.678 25.7351 215.453 14.3401 200.51C2.94515 185.566 -1.4546 167.854 1.90906 150.465C2.93973 145.915 4.46264 141.441 6.4607 137.092C16.3529 119.949 24.0378 102.066 29.3963 83.7205C32.7826 58.7434 17.6447 34.8476 11.375 10.2572C10.9536 8.86313 10.6268 7.4514 10.396 6.02775Z" fill="url(#paint0_linear_101_75)"/>
</mask>
<g mask="url(#mask0_101_75)">
<path d="M14.3951 6.02775L813.636 8.27802e-05L812.656 671.188C768.552 698.932 713.299 712.818 657.522 710.177C638.066 707.831 619.525 702.149 603.175 693.522C586.825 684.895 573.055 673.528 562.814 660.204C542.489 633.297 531.9 602.379 532.205 570.829C532.02 562.356 532.033 553.411 530.863 544.632C531.374 536.176 529.169 527.779 524.456 520.235C519.743 512.692 512.679 506.251 503.931 501.523C472.422 488.108 440.268 512.046 406.356 525.641C393.362 531.65 378.522 534.593 363.584 534.124C348.231 531.805 334.489 525.172 324.85 515.426C315.211 505.681 310.315 493.47 311.049 481.008C311.736 415.877 414.236 392.193 419.851 325.143C420.637 319.033 419.704 312.874 417.118 307.116C411.026 299.045 401.183 293.227 389.696 290.909C378.209 288.59 365.991 289.956 355.657 294.712C328.645 305.901 307.323 333.681 291.924 354.041C268.825 384.188 236.041 434.809 178.734 411.231C145.847 397.67 146.689 360.315 153.826 331.072C160.962 301.83 166.729 265.693 137.001 247.87C118.101 236.557 92.0883 237.852 69.2386 232.375C68.898 232.402 68.5559 232.35 68.2535 232.225C47.4005 226.678 29.7342 215.453 18.3393 200.51C6.9443 185.566 2.54455 167.854 5.90821 150.465C6.93888 145.915 8.46179 141.441 10.4599 137.092C20.3521 119.949 28.0369 102.066 33.3955 83.7205C36.7818 58.7434 21.6439 34.8476 15.3742 10.2572C14.9527 8.86313 14.6259 7.4514 14.3951 6.02775Z" fill="url(#paint1_linear_101_75)"/>
<g filter="url(#filter0_di_101_75)">
<path d="M437.639 2.84384L669.568 1.09928C671.057 22.3128 664.134 43.4333 649.777 61.4802C622.523 104.506 595.203 147.585 567.817 190.717C558.225 203.871 551.663 218.265 548.445 233.214C546.885 240.689 547.826 248.339 551.172 255.392C554.518 262.444 560.15 268.65 567.502 273.382C588.57 284.988 616.954 278.186 641.987 273.135C667.019 268.085 698.942 267.531 711.528 285.161C717.033 294.53 718.271 305.162 715.032 315.25C708.087 349.026 689.716 380.849 680.801 414.326C673.271 443.871 678.734 481.789 713.596 492.82C747.473 503.702 783.17 481.788 809.801 461.667C810.787 460.875 811.971 460.082 812.957 459.29L812.775 586.814C795.262 593.479 776.448 597.656 757.189 599.153C736.226 601.068 715.047 598.84 695.532 592.666C676.017 586.492 658.768 576.564 645.316 563.761C625.268 540.189 615.676 511.908 618.041 483.344C618.672 455.105 625.412 426.977 626.438 398.736C627.461 371.906 617.064 339.045 584.56 332.858C562.496 328.789 540.018 339.154 517.359 337.756C501.872 335.565 487.819 329.278 477.465 319.908C467.111 310.538 461.06 298.632 460.289 286.109C459.545 260.96 466.907 236.011 481.674 213.638C496.463 191.309 505.983 167.043 509.757 142.058C511.385 129.563 508.239 117.007 500.73 106.035C493.221 95.0643 481.7 86.1898 467.676 80.5745C429.268 68.9425 388.051 92.9376 362.397 118.855C334.573 146.984 300.019 196.496 246.233 190.313C213.134 186.484 225.19 161.139 208.663 143.696C200.358 135.094 188.956 128.718 175.952 125.401C162.947 122.084 148.946 121.982 135.781 125.108C121.274 130.264 108.521 138.136 98.6207 148.047C88.7205 157.959 81.9697 169.612 78.9497 182.003C74.2234 198.567 70.9729 215.365 69.2226 232.27C68.882 232.297 68.5399 232.245 68.2375 232.12C47.3843 226.575 29.7177 215.355 18.3222 200.419C6.92676 185.482 2.52645 167.778 5.88955 150.397C6.92008 145.85 8.44284 141.377 10.4408 137.03C17.3323 134.019 23.9842 130.669 30.3571 126.999C72.5607 102.526 103.744 67.9402 143.783 41.2875C164.69 27.3271 195.053 15.4915 217.696 27.2421C250.382 44.5639 235.333 95.8115 272.363 106.356C294.621 112.776 317.106 97.863 333.677 84.092C366.058 55.226 400.788 28.0836 437.639 2.84384V2.84384Z" fill="url(#paint2_radial_101_75)" fill-opacity="0.33" shape-rendering="crispEdges"/>
</g>
<path d="M475.378 382.191C475.232 382.068 475.112 381.916 475.025 381.746C474.937 381.576 474.884 381.391 474.869 381.2C474.853 381.01 474.875 380.818 474.934 380.636C474.992 380.454 475.086 380.285 475.209 380.139C475.333 379.994 475.484 379.874 475.654 379.786C475.824 379.699 476.01 379.646 476.2 379.63C476.391 379.615 476.583 379.637 476.765 379.695C476.947 379.754 477.116 379.847 477.261 379.971C477.556 380.221 477.739 380.577 477.77 380.962C477.802 381.347 477.68 381.728 477.43 382.023C477.18 382.317 476.824 382.5 476.439 382.532C476.054 382.564 475.672 382.441 475.378 382.191V382.191Z" fill="white"/>
<path d="M517.034 370.489C516.758 370.251 516.588 369.913 516.561 369.55C516.533 369.186 516.651 368.827 516.888 368.55C517.127 368.273 517.467 368.103 517.831 368.077C518.196 368.051 518.556 368.17 518.833 368.41C519.109 368.649 519.28 368.988 519.306 369.353C519.332 369.718 519.212 370.078 518.973 370.354C518.733 370.628 518.395 370.797 518.032 370.822C517.668 370.847 517.31 370.727 517.034 370.489V370.489Z" fill="white"/>
<path d="M744.551 517.113C744.227 516.834 744.028 516.437 743.997 516.01C743.966 515.584 744.105 515.163 744.385 514.839C744.664 514.515 745.061 514.316 745.487 514.285C745.914 514.254 746.335 514.393 746.659 514.673C746.819 514.811 746.95 514.98 747.045 515.169C747.14 515.358 747.197 515.564 747.213 515.776C747.228 515.987 747.202 516.199 747.135 516.4C747.069 516.601 746.963 516.787 746.825 516.947C746.686 517.107 746.518 517.239 746.329 517.334C746.139 517.429 745.933 517.486 745.722 517.501C745.511 517.516 745.299 517.49 745.098 517.424C744.897 517.357 744.711 517.251 744.551 517.113V517.113Z" fill="white"/>
<path d="M724.312 617.023C724.07 616.815 723.895 616.541 723.809 616.234C723.723 615.927 723.73 615.601 723.829 615.298C723.928 614.995 724.115 614.728 724.366 614.532C724.616 614.335 724.92 614.217 725.238 614.193C725.556 614.169 725.874 614.239 726.151 614.396C726.429 614.553 726.654 614.788 726.798 615.073C726.942 615.357 726.998 615.678 726.959 615.995C726.92 616.311 726.789 616.609 726.581 616.851C726.301 617.171 725.906 617.368 725.482 617.401C725.057 617.433 724.637 617.297 724.312 617.023V617.023Z" fill="white"/>
<path d="M743.83 554.014C743.507 553.734 743.307 553.338 743.276 552.911C743.245 552.485 743.384 552.063 743.664 551.74C743.944 551.416 744.34 551.217 744.767 551.186C745.193 551.155 745.614 551.294 745.938 551.574C746.262 551.853 746.461 552.25 746.492 552.676C746.523 553.103 746.384 553.524 746.104 553.848C745.825 554.171 745.428 554.37 745.002 554.402C744.575 554.433 744.154 554.293 743.83 554.014V554.014Z" fill="white"/>
<path d="M776.492 536.956C776.25 536.749 776.074 536.474 775.988 536.167C775.902 535.86 775.909 535.535 776.008 535.232C776.108 534.929 776.294 534.662 776.545 534.465C776.796 534.268 777.1 534.15 777.418 534.126C777.735 534.102 778.053 534.173 778.331 534.329C778.609 534.486 778.834 534.722 778.978 535.006C779.121 535.291 779.177 535.612 779.139 535.928C779.1 536.245 778.968 536.543 778.76 536.784C778.482 537.107 778.087 537.307 777.662 537.339C777.236 537.371 776.816 537.234 776.492 536.956V536.956Z" fill="white"/>
<path d="M684.535 501.024C684.212 500.745 684.012 500.348 683.981 499.922C683.95 499.495 684.09 499.074 684.369 498.75C684.649 498.427 685.045 498.227 685.472 498.196C685.898 498.165 686.319 498.305 686.643 498.584C686.967 498.864 687.166 499.26 687.197 499.687C687.228 500.113 687.089 500.534 686.809 500.858C686.53 501.182 686.133 501.381 685.707 501.412C685.28 501.443 684.859 501.304 684.535 501.024V501.024Z" fill="white"/>
<path d="M243.708 328.829C243.472 328.628 243.302 328.361 243.218 328.063C243.134 327.765 243.141 327.448 243.237 327.154C243.333 326.859 243.515 326.6 243.759 326.409C244.003 326.217 244.298 326.103 244.607 326.08C244.916 326.057 245.225 326.126 245.494 326.278C245.764 326.431 245.982 326.66 246.122 326.937C246.261 327.214 246.315 327.526 246.276 327.833C246.238 328.141 246.109 328.43 245.906 328.664C245.636 328.976 245.253 329.169 244.841 329.2C244.429 329.23 244.022 329.097 243.708 328.829Z" fill="white"/>
<path d="M270.026 304.787C269.794 304.586 269.627 304.321 269.546 304.025C269.465 303.73 269.473 303.417 269.569 303.126C269.665 302.835 269.846 302.579 270.087 302.39C270.329 302.201 270.621 302.088 270.927 302.065C271.232 302.042 271.538 302.11 271.805 302.261C272.072 302.411 272.289 302.638 272.428 302.911C272.566 303.184 272.621 303.493 272.585 303.797C272.548 304.102 272.423 304.388 272.224 304.622C271.953 304.934 271.571 305.126 271.159 305.157C270.747 305.188 270.34 305.055 270.026 304.787V304.787Z" fill="white"/>
<path d="M239.165 284.324C238.934 284.122 238.768 283.857 238.689 283.56C238.609 283.264 238.618 282.951 238.716 282.661C238.814 282.37 238.995 282.115 239.238 281.927C239.481 281.74 239.773 281.628 240.079 281.607C240.385 281.585 240.691 281.655 240.957 281.807C241.223 281.959 241.439 282.187 241.576 282.461C241.713 282.735 241.766 283.044 241.728 283.348C241.69 283.653 241.563 283.939 241.362 284.171C241.228 284.326 241.065 284.453 240.882 284.544C240.699 284.636 240.5 284.69 240.296 284.705C240.091 284.719 239.886 284.693 239.692 284.627C239.498 284.562 239.319 284.459 239.165 284.324V284.324Z" fill="white"/>
<path d="M184.558 332.412C184.327 332.21 184.161 331.944 184.081 331.648C184.001 331.352 184.011 331.039 184.108 330.748C184.206 330.457 184.388 330.202 184.631 330.015C184.873 329.827 185.166 329.716 185.472 329.694C185.778 329.673 186.083 329.742 186.35 329.894C186.616 330.046 186.831 330.274 186.969 330.548C187.106 330.823 187.159 331.131 187.121 331.436C187.083 331.74 186.955 332.026 186.755 332.258C186.621 332.413 186.458 332.54 186.275 332.632C186.092 332.723 185.892 332.778 185.688 332.792C185.484 332.806 185.279 332.78 185.085 332.715C184.891 332.649 184.712 332.546 184.558 332.412Z" fill="white"/>
<path d="M282.13 278.061C281.899 277.859 281.733 277.593 281.653 277.297C281.573 277.001 281.583 276.688 281.681 276.397C281.778 276.106 281.96 275.851 282.203 275.663C282.445 275.476 282.738 275.364 283.044 275.343C283.35 275.322 283.656 275.391 283.922 275.543C284.188 275.695 284.404 275.923 284.541 276.197C284.678 276.471 284.731 276.78 284.693 277.084C284.655 277.389 284.528 277.675 284.327 277.907C284.055 278.217 283.672 278.407 283.26 278.436C282.849 278.465 282.442 278.33 282.13 278.061V278.061Z" fill="white"/>
<path d="M468.698 310.261C468.41 310.242 468.133 310.139 467.904 309.963C467.674 309.787 467.502 309.547 467.409 309.274C467.316 309 467.306 308.705 467.381 308.425C467.456 308.146 467.613 307.896 467.83 307.705C468.048 307.515 468.317 307.394 468.604 307.357C468.891 307.32 469.182 307.369 469.441 307.498C469.7 307.627 469.914 307.829 470.058 308.081C470.201 308.332 470.267 308.62 470.246 308.908C470.234 309.099 470.184 309.285 470.1 309.457C470.015 309.628 469.898 309.781 469.754 309.907C469.61 310.032 469.443 310.128 469.261 310.189C469.08 310.25 468.889 310.274 468.698 310.261V310.261Z" fill="white"/>
<path d="M489.354 340.623C489.152 340.628 488.95 340.591 488.763 340.514C488.575 340.438 488.406 340.323 488.265 340.177C488.125 340.031 488.016 339.857 487.946 339.667C487.876 339.477 487.847 339.274 487.86 339.072C487.872 338.87 487.927 338.672 488.02 338.492C488.114 338.313 488.243 338.154 488.401 338.027C488.559 337.9 488.742 337.807 488.937 337.755C489.133 337.702 489.338 337.691 489.538 337.722C489.898 337.777 490.224 337.965 490.453 338.249C490.681 338.533 490.795 338.892 490.772 339.256C490.749 339.62 490.591 339.962 490.329 340.215C490.066 340.468 489.719 340.613 489.354 340.623Z" fill="white"/>
<path d="M235.383 119.938C235.066 119.918 234.763 119.805 234.512 119.612C234.26 119.42 234.071 119.157 233.969 118.857C233.867 118.557 233.857 118.233 233.939 117.927C234.021 117.621 234.192 117.346 234.431 117.138C234.669 116.929 234.964 116.796 235.279 116.756C235.593 116.715 235.912 116.769 236.196 116.91C236.479 117.051 236.715 117.273 236.872 117.548C237.029 117.823 237.101 118.138 237.079 118.454C237.066 118.664 237.011 118.868 236.919 119.056C236.826 119.244 236.697 119.412 236.54 119.549C236.382 119.687 236.199 119.793 236 119.859C235.801 119.926 235.592 119.953 235.383 119.938Z" fill="white"/>
<path d="M151.917 173.919C151.861 174.801 152.53 175.561 153.412 175.616C154.293 175.672 155.053 175.003 155.109 174.121C155.165 173.24 154.495 172.48 153.614 172.424C152.732 172.368 151.973 173.038 151.917 173.919Z" fill="white"/>
<path d="M144.422 141.577C144.106 141.557 143.803 141.443 143.552 141.251C143.301 141.059 143.112 140.797 143.009 140.498C142.907 140.199 142.896 139.876 142.977 139.57C143.058 139.264 143.228 138.99 143.465 138.78C143.703 138.571 143.997 138.437 144.31 138.395C144.624 138.353 144.943 138.405 145.227 138.545C145.511 138.684 145.747 138.904 145.906 139.178C146.065 139.451 146.139 139.766 146.119 140.081C146.089 140.504 145.894 140.897 145.577 141.177C145.259 141.457 144.844 141.6 144.422 141.577Z" fill="white"/>
<path d="M173.2 116.024C173.144 116.905 173.814 117.665 174.695 117.721C175.577 117.777 176.337 117.107 176.392 116.226C176.448 115.344 175.779 114.584 174.897 114.528C174.016 114.473 173.256 115.142 173.2 116.024Z" fill="white"/>
<path d="M139.22 94.3632C138.905 94.3432 138.602 94.2301 138.351 94.0381C138.099 93.8462 137.911 93.5839 137.808 93.2846C137.706 92.9853 137.694 92.6624 137.776 92.3567C137.857 92.051 138.027 91.7762 138.264 91.5671C138.502 91.358 138.796 91.2239 139.109 91.1819C139.423 91.14 139.742 91.1919 140.026 91.3311C140.31 91.4704 140.546 91.6908 140.705 91.9643C140.864 92.2379 140.938 92.5524 140.918 92.8681C140.906 93.0782 140.852 93.284 140.761 93.4733C140.669 93.6626 140.54 93.8317 140.382 93.9709C140.224 94.11 140.04 94.2163 139.841 94.2837C139.641 94.351 139.43 94.3781 139.22 94.3632V94.3632Z" fill="white"/>
<path d="M505.323 313.057C505.035 313.039 504.759 312.936 504.53 312.761C504.3 312.586 504.128 312.346 504.035 312.073C503.941 311.8 503.931 311.506 504.005 311.227C504.079 310.948 504.234 310.697 504.451 310.506C504.667 310.315 504.936 310.193 505.222 310.155C505.508 310.116 505.799 310.164 506.058 310.291C506.317 310.418 506.533 310.619 506.678 310.869C506.822 311.118 506.89 311.405 506.872 311.693C506.861 311.885 506.813 312.073 506.729 312.246C506.645 312.418 506.527 312.573 506.383 312.7C506.239 312.827 506.071 312.924 505.889 312.985C505.707 313.046 505.515 313.071 505.323 313.057V313.057Z" fill="white"/>
<path d="M526.369 336.093C526.318 336.898 526.929 337.591 527.734 337.642C528.538 337.693 529.231 337.082 529.282 336.278C529.333 335.473 528.722 334.78 527.918 334.729C527.113 334.678 526.42 335.289 526.369 336.093Z" fill="white"/>
<path d="M523.969 401.554C523.695 401.312 523.526 400.971 523.501 400.606C523.476 400.241 523.596 399.881 523.835 399.604C524.075 399.327 524.414 399.157 524.779 399.131C525.144 399.104 525.504 399.224 525.78 399.463C526.057 399.703 526.227 400.042 526.253 400.407C526.279 400.771 526.16 401.132 525.92 401.408C525.68 401.685 525.34 401.855 524.975 401.883C524.609 401.91 524.248 401.792 523.969 401.554V401.554Z" fill="white"/>
<path d="M496.624 376.057C496.487 375.939 496.375 375.795 496.294 375.633C496.213 375.471 496.164 375.295 496.151 375.114C496.138 374.933 496.161 374.752 496.218 374.58C496.275 374.408 496.365 374.25 496.484 374.113C496.602 373.976 496.747 373.864 496.909 373.782C497.07 373.701 497.247 373.653 497.427 373.64C497.608 373.627 497.789 373.649 497.961 373.707C498.133 373.764 498.292 373.854 498.429 373.973C498.705 374.212 498.875 374.551 498.902 374.916C498.928 375.281 498.808 375.641 498.569 375.917C498.329 376.194 497.99 376.364 497.625 376.39C497.261 376.416 496.9 376.297 496.624 376.057V376.057Z" fill="white"/>
<path d="M489.643 358.979C487.352 359.021 485.112 359.666 483.15 360.849C481.925 362.523 481.173 364.496 480.975 366.56C480.985 364.495 480.496 362.458 479.55 360.621C478.092 358.517 473.344 357.948 473.344 357.948C475.615 358.01 477.858 357.439 479.823 356.299C481.379 355.005 482.004 350.307 482.004 350.307C482.004 350.307 482.07 354.99 483.47 356.53C485.254 357.914 487.395 358.763 489.643 358.979V358.979Z" fill="#FFE6F7"/>
<path d="M207.834 160.448C205.312 160.49 202.846 161.198 200.686 162.5C199.333 164.351 198.508 166.534 198.298 168.817C198.317 166.532 197.777 164.277 196.725 162.249C195.14 159.938 189.892 159.313 189.892 159.313C192.39 159.389 194.859 158.767 197.024 157.519C198.74 156.095 199.428 150.945 199.428 150.945C199.387 153.318 199.938 155.665 201.032 157.772C203.001 159.288 205.36 160.216 207.834 160.448Z" fill="#FFE6F7"/>
<path d="M137.428 122.709C134.906 122.751 132.44 123.459 130.28 124.76C128.927 126.611 128.102 128.795 127.891 131.078C127.908 128.795 127.373 126.541 126.33 124.51C124.733 122.21 119.497 121.575 119.497 121.575C121.995 121.646 124.463 121.025 126.629 119.78C128.334 118.356 129.022 113.205 129.022 113.205C129.022 113.205 129.092 118.392 130.626 120.033C132.592 121.554 134.952 122.483 137.428 122.709V122.709Z" fill="#FFE6F7"/>
<path d="M227.295 293.145C224.705 293.193 222.173 293.925 219.956 295.265C218.564 297.175 217.714 299.425 217.497 301.777C217.519 299.422 216.964 297.097 215.878 295.007C214.239 292.623 208.864 291.978 208.864 291.978C211.431 292.036 213.965 291.387 216.188 290.102C217.954 288.635 218.664 283.322 218.664 283.322C218.622 285.77 219.188 288.189 220.313 290.363C222.331 291.931 224.752 292.895 227.295 293.145V293.145Z" fill="#FFE6F7"/>
<path d="M236.667 363.431C234.078 363.48 231.548 364.207 229.328 365.54C227.937 367.454 227.087 369.708 226.868 372.064C226.891 369.705 226.335 367.377 225.25 365.282C223.611 362.909 218.236 362.265 218.236 362.265C220.804 362.329 223.339 361.68 225.56 360.389C227.326 358.921 228.035 353.621 228.035 353.621C228.035 353.621 228.107 358.959 229.684 360.65C231.704 362.215 234.124 363.179 236.667 363.431V363.431Z" fill="#FFE6F7"/>
<path d="M427.708 93.8292C427.472 93.628 427.302 93.3614 427.218 93.0631C427.134 92.7647 427.141 92.4483 427.237 92.1537C427.333 91.8592 427.515 91.5999 427.759 91.4087C428.003 91.2175 428.298 91.1029 428.607 91.0797C428.916 91.0565 429.225 91.1257 429.494 91.2783C429.764 91.431 429.982 91.6602 430.122 91.9371C430.261 92.2139 430.315 92.5259 430.276 92.8334C430.238 93.1409 430.109 93.43 429.906 93.6642C429.636 93.9761 429.253 94.1686 428.841 94.1995C428.429 94.2304 428.022 94.0973 427.708 93.8292Z" fill="white"/>
<path d="M454.026 69.7867C453.794 69.5859 453.627 69.321 453.546 69.0254C453.465 68.7298 453.473 68.4168 453.569 68.1257C453.665 67.8347 453.846 67.5786 454.087 67.3899C454.329 67.2012 454.621 67.0883 454.927 67.0653C455.232 67.0424 455.538 67.1104 455.805 67.2609C456.072 67.4114 456.289 67.6376 456.428 67.911C456.566 68.1844 456.621 68.4928 456.585 68.7972C456.548 69.1016 456.423 69.3885 456.224 69.6216C455.953 69.9336 455.571 70.1261 455.159 70.157C454.747 70.1879 454.34 70.0548 454.026 69.7867V69.7867Z" fill="white"/>
<path d="M423.165 49.3242C422.934 49.1223 422.768 48.8565 422.689 48.5605C422.609 48.2644 422.618 47.9512 422.716 47.6606C422.814 47.3699 422.995 47.1147 423.238 46.9272C423.481 46.7396 423.773 46.6281 424.079 46.6067C424.385 46.5854 424.691 46.6551 424.957 46.8071C425.223 46.9591 425.439 47.1866 425.576 47.4609C425.713 47.7352 425.766 48.0439 425.728 48.3482C425.69 48.6525 425.563 48.9387 425.362 49.1708C425.228 49.3256 425.065 49.4525 424.882 49.5441C424.699 49.6357 424.5 49.6903 424.296 49.7045C424.091 49.7188 423.886 49.6925 423.692 49.6273C423.498 49.562 423.319 49.459 423.165 49.3242V49.3242Z" fill="white"/>
<path d="M368.558 97.4117C368.327 97.2097 368.161 96.944 368.081 96.6479C368.001 96.3518 368.011 96.0387 368.108 95.748C368.206 95.4573 368.388 95.2021 368.631 95.0145C368.873 94.827 369.166 94.7155 369.472 94.6942C369.778 94.6728 370.083 94.7424 370.35 94.8944C370.616 95.0465 370.831 95.274 370.969 95.5483C371.106 95.8225 371.159 96.1313 371.121 96.4356C371.083 96.74 370.955 97.0262 370.755 97.2583C370.621 97.4132 370.458 97.5401 370.275 97.6317C370.092 97.7233 369.892 97.7777 369.688 97.792C369.484 97.8063 369.279 97.78 369.085 97.7147C368.891 97.6495 368.712 97.5465 368.558 97.4117Z" fill="white"/>
<path d="M466.13 43.0605C465.899 42.8586 465.733 42.5929 465.653 42.2968C465.573 42.0007 465.583 41.6876 465.681 41.3969C465.778 41.1062 465.96 40.851 466.203 40.6635C466.445 40.4759 466.738 40.3644 467.044 40.3431C467.35 40.3217 467.656 40.3914 467.922 40.5434C468.188 40.6954 468.404 40.9229 468.541 41.1971C468.678 41.4714 468.731 41.7802 468.693 42.0845C468.655 42.3888 468.528 42.675 468.327 42.9071C468.055 43.2171 467.672 43.4072 467.26 43.436C466.849 43.4647 466.442 43.3298 466.13 43.0605V43.0605Z" fill="white"/>
<path d="M411.295 58.1445C408.705 58.1932 406.173 58.9247 403.956 60.2653C402.564 62.1748 401.714 64.4248 401.497 66.7774C401.519 64.4222 400.964 62.0974 399.878 60.0073C398.239 57.6226 392.864 56.9784 392.864 56.9784C395.431 57.0361 397.965 56.3871 400.188 55.1023C401.954 53.6348 402.664 48.3222 402.664 48.3222C402.622 50.7695 403.188 53.1891 404.313 55.3632C406.331 56.9307 408.752 57.8949 411.295 58.1445V58.1445Z" fill="#FFE6F7"/>
<path d="M420.667 128.431C418.078 128.48 415.548 129.207 413.328 130.54C411.937 132.454 411.087 134.708 410.868 137.064C410.891 134.705 410.335 132.377 409.25 130.282C407.611 127.909 402.236 127.265 402.236 127.265C404.804 127.329 407.339 126.68 409.56 125.389C411.326 123.921 412.035 118.621 412.035 118.621C412.035 118.621 412.107 123.959 413.684 125.65C415.704 127.215 418.124 128.179 420.667 128.431V128.431Z" fill="#FFE6F7"/>
<path d="M712.044 541.153C709.364 541.203 706.746 541.961 704.454 543.351C703.011 545.322 702.132 547.648 701.911 550.08C701.934 547.647 701.359 545.244 700.236 543.085C698.543 540.638 692.984 539.947 692.984 539.947C695.63 540.034 698.248 539.39 700.553 538.086C702.38 536.564 703.113 531.078 703.113 531.078C703.069 533.608 703.654 536.109 704.817 538.356C706.918 539.945 709.421 540.914 712.044 541.153V541.153Z" fill="#FFE6F7"/>
<path d="M467.528 325.64C465.745 325.675 464.003 326.178 462.476 327.098C461.52 328.412 460.937 329.959 460.789 331.577C460.799 329.958 460.418 328.361 459.68 326.921C458.543 325.282 454.852 324.838 454.852 324.838C456.617 324.884 458.36 324.444 459.892 323.566C461.126 322.556 461.591 318.901 461.591 318.901C461.591 318.901 461.639 322.577 462.723 323.745C464.115 324.816 465.78 325.472 467.528 325.64V325.64Z" fill="#FFE6F7"/>
<path d="M520.788 295.086C519.009 295.115 517.271 295.615 515.748 296.533C514.789 297.845 514.205 299.393 514.061 301.012C514.071 299.392 513.686 297.794 512.94 296.355C511.873 294.732 508.123 294.284 508.123 294.284C509.886 294.331 511.628 293.887 513.152 293C514.386 291.99 514.862 288.347 514.862 288.347C514.833 290.027 515.222 291.688 515.995 293.18C517.382 294.252 519.043 294.913 520.788 295.086V295.086Z" fill="#FFE6F7"/>
<path d="M181.827 90.0674C179.876 90.1076 177.969 90.6607 176.298 91.6711C175.245 93.1095 174.604 94.8079 174.443 96.5836C174.458 94.8073 174.038 93.0543 173.222 91.4765C171.979 89.6783 167.928 89.188 167.928 89.188C169.864 89.2419 171.776 88.7597 173.455 87.7948C174.787 86.7093 175.323 82.6842 175.323 82.6842C175.323 82.6842 175.372 86.7112 176.566 87.9916C178.089 89.1666 179.913 89.8864 181.827 90.0674V90.0674Z" fill="#FFE6F7"/>
<path d="M748.385 589.488C746.303 589.53 744.268 590.119 742.486 591.197C741.369 592.731 740.689 594.54 740.517 596.43C740.534 594.537 740.086 592.669 739.212 590.99C737.894 589.082 733.576 588.551 733.576 588.551C735.638 588.609 737.675 588.094 739.461 587.064C740.88 585.89 741.454 581.622 741.454 581.622C741.42 583.587 741.876 585.529 742.781 587.274C744.402 588.527 746.345 589.295 748.385 589.488V589.488Z" fill="#FFE6F7"/>
<mask id="mask1_101_75" style="mask-type:alpha" maskUnits="userSpaceOnUse" x="1" y="2" width="818" height="709">
<path d="M10.9502 8.50005L818.123 2.95966L816.166 671.03C771.585 698.62 715.764 712.41 659.437 709.749C639.792 707.403 621.075 701.737 604.576 693.14C588.076 684.544 574.187 673.222 563.863 659.954C543.375 633.16 532.726 602.38 533.079 570.976C532.905 562.543 532.931 553.639 531.762 544.9C532.29 536.484 530.075 528.124 525.327 520.613C520.578 513.102 513.452 506.687 504.625 501.976C472.823 488.605 440.316 512.414 406.048 525.926C392.917 531.899 377.925 534.82 362.84 534.345C347.338 532.028 333.469 525.417 323.749 515.712C314.029 506.006 309.101 493.849 309.861 481.445C310.648 416.618 414.198 393.102 419.966 326.366C420.769 320.285 419.835 314.155 417.232 308.422C411.091 300.384 401.159 294.588 389.561 292.274C377.964 289.96 365.622 291.312 355.179 296.04C327.883 307.161 306.31 334.8 290.728 355.056C267.357 385.051 234.175 435.418 176.334 411.917C143.14 398.399 144.045 361.218 151.295 332.115C158.544 303.013 164.42 267.047 134.423 249.29C115.352 238.019 89.0795 239.292 66.0111 233.828C65.6671 233.854 65.3218 233.802 65.0166 233.678C43.9648 228.145 26.1396 216.962 14.6532 202.081C3.1668 187.201 -1.25104 169.568 2.17101 152.262C3.21846 147.734 4.76291 143.281 6.78705 138.953C16.802 121.895 24.5888 104.1 30.0269 85.8429C33.4828 60.9838 18.2293 37.1902 11.9328 12.7104C11.5092 11.3226 11.1812 9.91722 10.9502 8.50005Z" fill="url(#paint3_linear_101_75)"/>
</mask>
<g mask="url(#mask1_101_75)">
<path d="M635.223 704.278C626.721 703.75 618.276 702.673 609.947 701.053C606.289 700.275 602.678 699.32 599.127 698.193C593.645 696.433 588.37 694.153 583.378 691.386C583.117 691.239 582.865 691.077 582.624 690.902C580.966 689.966 579.374 688.929 577.857 687.797C566.658 678.963 557.915 667.623 552.376 654.75C551.772 653.461 551.159 652.125 550.595 650.779C544.328 635.684 539.623 620.014 536.548 603.993C535.576 599.478 534.703 594.944 533.78 590.42C532.255 582.764 530.573 575.09 528.428 567.65C528.345 567.226 528.215 566.812 528.037 566.416C527.162 563.192 526.09 560.005 524.93 556.884C568.118 560.73 609.079 590.746 627.439 636.701C636.096 658.104 638.778 681.384 635.223 704.278V704.278Z" fill="url(#paint4_linear_101_75)"/>
<path d="M623.107 687.925C617.355 689.518 608.447 675.311 603.214 656.226C597.981 637.142 598.409 620.393 604.165 618.819C609.921 617.245 618.829 631.428 624.058 650.514C629.286 669.599 628.862 686.346 623.107 687.925Z" fill="url(#paint5_linear_101_75)"/>
<path d="M608.8 624.339C617.723 637.761 623.208 653.172 624.77 669.213C625.667 675.39 625.291 681.685 623.666 687.711C628.882 685.222 629.113 668.958 624.057 650.514C618.828 631.428 609.924 617.239 604.164 618.819C603.83 618.911 603.513 619.054 603.223 619.243C605.377 620.587 607.268 622.314 608.8 624.339V624.339Z" fill="url(#paint6_linear_101_75)"/>
<path d="M583.491 634.695C580.333 637.15 574.166 634.504 569.748 628.782C565.33 623.06 564.268 616.44 567.43 613.983C570.593 611.527 576.755 614.174 581.173 619.896C585.591 625.618 586.641 632.251 583.491 634.695Z" fill="url(#paint7_linear_101_75)"/>
<path d="M582.472 626.191C583.178 627.707 583.44 629.392 583.227 631.051C583.015 632.71 582.337 634.274 581.272 635.564C582.072 635.483 582.835 635.184 583.476 634.698C586.638 632.242 585.604 625.616 581.163 619.899C576.721 614.181 570.559 611.534 567.42 613.986C567.276 614.106 567.139 614.235 567.009 614.37C570.518 614.406 573.92 615.577 576.707 617.708C579.495 619.838 581.517 622.815 582.472 626.191Z" fill="url(#paint8_linear_101_75)"/>
<path d="M585.206 690.406C583.614 689.457 582.084 688.408 580.626 687.265C569.852 678.349 561.402 666.953 556.001 654.054C555.412 652.761 554.815 651.422 554.264 650.074C566.344 651.382 578.096 662.061 583.001 677.452C584.347 681.643 585.089 686.005 585.206 690.406Z" fill="url(#paint9_linear_101_75)"/>
<path d="M585.206 690.406C583.614 689.457 582.084 688.408 580.626 687.265C580.467 685.938 580.253 684.574 579.973 683.125C578.581 676.733 575.684 670.765 571.525 665.716C567.366 660.667 562.063 656.682 556.056 654.091C556.044 654.094 556.031 654.091 556.021 654.084C556.01 654.077 556.003 654.066 556.001 654.054C555.412 652.761 554.815 651.422 554.264 650.074C566.344 651.382 578.096 662.061 583.001 677.452C584.347 681.643 585.089 686.005 585.206 690.406Z" fill="url(#paint10_linear_101_75)"/>
<path d="M542.178 591.859C540.64 591.216 539.14 590.485 537.685 589.671C536.161 582.014 534.489 574.338 532.375 566.893C532.293 566.468 532.165 566.054 531.992 565.658C533.825 565.158 535.717 564.908 537.617 564.913C538.368 564.883 539.121 564.916 539.866 565.013C540.65 565.056 541.396 565.155 542.189 565.244C543.847 565.472 545.485 565.82 547.092 566.287C548.82 566.792 550.52 567.386 552.186 568.069C555.009 569.226 557.687 570.712 560.164 572.494C561.065 573.144 561.966 573.795 562.782 574.51C563.599 575.225 564.322 575.959 565.045 576.692C565.695 577.397 566.307 578.137 566.878 578.908C566.88 578.92 566.887 578.931 566.898 578.938C566.908 578.945 566.921 578.948 566.933 578.946C567.435 579.668 567.889 580.423 568.29 581.205L568.795 582.32C568.97 582.722 569.088 583.087 569.207 583.452C569.435 584.132 569.571 584.839 569.612 585.555C569.702 586.519 569.609 587.49 569.34 588.419C569.281 588.683 569.201 588.941 569.101 589.192C566.348 595.782 554.269 596.995 542.178 591.859Z" fill="url(#paint11_linear_101_75)"/>
<path d="M569.337 588.416C567.792 577.128 551.475 565.148 532.372 566.889C532.29 566.465 532.161 566.051 531.989 565.654C533.817 565.133 535.713 564.882 537.614 564.91C538.365 564.879 539.118 564.913 539.863 565.01C540.647 565.053 541.393 565.151 542.186 565.241C543.843 565.468 545.482 565.817 547.089 566.284C548.817 566.788 550.517 567.383 552.183 568.065C555.006 569.223 557.684 570.708 560.161 572.491C561.062 573.141 561.963 573.792 562.779 574.507C563.596 575.222 564.319 575.955 565.042 576.689C565.692 577.394 566.303 578.134 566.874 578.905C566.877 578.917 566.884 578.928 566.894 578.935C566.905 578.942 566.918 578.945 566.93 578.942C567.419 579.721 567.9 580.452 568.286 581.202L568.792 582.316C568.967 582.719 569.085 583.084 569.204 583.449C569.432 584.129 569.568 584.836 569.609 585.552C569.699 586.515 569.606 587.487 569.337 588.416V588.416Z" fill="url(#paint12_linear_101_75)"/>
<path d="M611.395 700.772C607.895 699.964 604.437 698.98 601.035 697.824C601.747 696.76 602.744 695.918 603.911 695.393C605.078 694.868 606.37 694.682 607.638 694.855C608.76 695.384 609.709 696.221 610.375 697.269C611.04 698.317 611.394 699.531 611.395 700.772Z" fill="url(#paint13_linear_101_75)"/>
<g filter="url(#filter1_di_101_75)">
<path d="M548.226 306.885C542.658 302.036 539.252 295.156 538.757 287.76C538.263 280.365 540.721 273.061 545.59 267.46C548.499 264.058 552.205 261.434 556.373 259.828C562.002 264.261 567.228 268.89 571.843 271.99C577.72 277.014 585.646 278.912 593.179 277.099C596.405 286.545 594.271 297.028 587.603 304.493C577.327 316.043 559.712 317.113 548.226 306.885V306.885Z" fill="url(#paint14_linear_101_75)"/>
</g>
</g>
</g>
<g filter="url(#filter2_di_101_75)">
<path d="M267.872 189.935C289.802 215.497 291.372 252.963 271.657 280.25C268.436 284.535 264.779 288.466 260.747 291.98C236.329 313.401 200.728 315.63 173.829 297.421C168.554 293.833 163.787 289.534 159.66 284.645C152.811 276.458 147.84 266.842 145.103 256.487C141.407 243.345 141.532 229.409 145.465 216.348C152.409 192.86 170.627 174.526 193.892 167.615C217.156 160.704 242.316 166.152 260.768 182.095C263.33 184.523 265.704 187.144 267.872 189.935V189.935Z" fill="#051627"/>
<path d="M267.872 189.935C289.802 215.497 291.372 252.963 271.657 280.25C268.436 284.535 264.779 288.466 260.747 291.98C236.329 313.401 200.728 315.63 173.829 297.421C168.554 293.833 163.787 289.534 159.66 284.645C152.811 276.458 147.84 266.842 145.103 256.487C141.407 243.345 141.532 229.409 145.465 216.348C152.409 192.86 170.627 174.526 193.892 167.615C217.156 160.704 242.316 166.152 260.768 182.095C263.33 184.523 265.704 187.144 267.872 189.935V189.935Z" fill="url(#paint15_radial_101_75)" fill-opacity="0.9"/>
</g>
<g opacity="0.82" filter="url(#filter3_if_101_75)">
<path fill-rule="evenodd" clip-rule="evenodd" d="M237.31 167.979C237.584 167.695 237.864 167.417 238.15 167.145L238.222 168.289C237.918 168.184 237.615 168.08 237.31 167.979ZM237.31 167.979C218.922 161.848 198.795 163.305 181.468 172.048C163.854 180.935 150.669 196.577 144.979 215.337C145.804 214.675 146.688 214.091 147.622 213.592C150.324 211.777 153.806 211.559 156.713 213.023C158.351 214.05 159.486 216.459 160.583 218.787C162.413 222.671 164.135 226.326 167.909 222.948C169.778 221.245 170.138 217.881 170.462 214.847C170.637 213.209 170.802 211.669 171.188 210.537C172.775 206.267 176.056 202.826 180.267 201.016C184.479 199.206 189.253 199.185 193.477 200.957C196.909 203.077 200.2 205.413 203.33 207.951C208.056 211.267 213.933 212.556 219.634 211.525C225.388 210.439 230.145 206.432 232.156 200.977C233.535 196.559 233.022 191.899 232.52 187.344C231.925 181.935 231.346 176.675 233.972 172.145C234.953 170.656 236.071 169.261 237.31 167.979ZM286.159 243.592C287.684 224.546 281.553 205.679 269.116 191.143C266.671 188.343 264.037 185.71 261.235 183.264C255.684 187.691 252.741 194.603 253.404 201.655C253.656 208.687 255.627 215.551 259.146 221.65C262.652 226.291 265.462 231.416 267.487 236.863C269.278 242.555 267.362 248.76 262.669 252.467C257.926 254.494 252.489 254.079 248.112 251.357C243.716 248.341 239.141 245.59 234.413 243.12C229.628 240.879 223.956 241.747 220.064 245.317C217.923 248.717 217.965 252.709 218.008 256.782C218.039 259.73 218.07 262.72 217.274 265.558C215.157 271.464 209.717 275.55 203.438 275.952C197.163 276.047 191.08 273.802 186.383 269.657C184.083 267.636 179.511 266.334 178.401 267.125C177.683 267.637 177.226 268.436 176.775 269.223C176.529 269.652 176.285 270.077 176.002 270.451C172.219 274.575 165.839 274.974 161.571 271.355C157.531 267.884 153.76 264.115 150.29 260.079C149.011 258.725 147.329 257.818 145.492 257.492L144.482 257.556C147.23 267.838 152.231 277.386 159.125 285.511C163.281 290.362 168.081 294.627 173.392 298.187C200.482 316.249 236.361 314.003 260.987 292.704C275.58 280.304 284.634 262.638 286.159 243.592Z" fill="#051627"/>
<path fill-rule="evenodd" clip-rule="evenodd" d="M237.31 167.979C237.584 167.695 237.864 167.417 238.15 167.145L238.222 168.289C237.918 168.184 237.615 168.08 237.31 167.979ZM237.31 167.979C218.922 161.848 198.795 163.305 181.468 172.048C163.854 180.935 150.669 196.577 144.979 215.337C145.804 214.675 146.688 214.091 147.622 213.592C150.324 211.777 153.806 211.559 156.713 213.023C158.351 214.05 159.486 216.459 160.583 218.787C162.413 222.671 164.135 226.326 167.909 222.948C169.778 221.245 170.138 217.881 170.462 214.847C170.637 213.209 170.802 211.669 171.188 210.537C172.775 206.267 176.056 202.826 180.267 201.016C184.479 199.206 189.253 199.185 193.477 200.957C196.909 203.077 200.2 205.413 203.33 207.951C208.056 211.267 213.933 212.556 219.634 211.525C225.388 210.439 230.145 206.432 232.156 200.977C233.535 196.559 233.022 191.899 232.52 187.344C231.925 181.935 231.346 176.675 233.972 172.145C234.953 170.656 236.071 169.261 237.31 167.979ZM286.159 243.592C287.684 224.546 281.553 205.679 269.116 191.143C266.671 188.343 264.037 185.71 261.235 183.264C255.684 187.691 252.741 194.603 253.404 201.655C253.656 208.687 255.627 215.551 259.146 221.65C262.652 226.291 265.462 231.416 267.487 236.863C269.278 242.555 267.362 248.76 262.669 252.467C257.926 254.494 252.489 254.079 248.112 251.357C243.716 248.341 239.141 245.59 234.413 243.12C229.628 240.879 223.956 241.747 220.064 245.317C217.923 248.717 217.965 252.709 218.008 256.782C218.039 259.73 218.07 262.72 217.274 265.558C215.157 271.464 209.717 275.55 203.438 275.952C197.163 276.047 191.08 273.802 186.383 269.657C184.083 267.636 179.511 266.334 178.401 267.125C177.683 267.637 177.226 268.436 176.775 269.223C176.529 269.652 176.285 270.077 176.002 270.451C172.219 274.575 165.839 274.974 161.571 271.355C157.531 267.884 153.76 264.115 150.29 260.079C149.011 258.725 147.329 257.818 145.492 257.492L144.482 257.556C147.23 267.838 152.231 277.386 159.125 285.511C163.281 290.362 168.081 294.627 173.392 298.187C200.482 316.249 236.361 314.003 260.987 292.704C275.58 280.304 284.634 262.638 286.159 243.592Z" fill="url(#paint16_radial_101_75)" fill-opacity="0.61"/>
</g>
<g filter="url(#filter4_f_101_75)">
<path d="M172.21 296.706C174.391 294.436 177.069 292.693 180.038 291.61C193.307 287.881 207.52 289.474 219.596 296.042C222.738 297.428 227.175 298.59 228.87 295.461C230.566 292.333 226.411 288.707 226.358 285.544C226.243 283.433 227.474 281.474 229.44 280.643C231.406 279.811 233.686 280.285 235.145 281.828C237.744 283.824 239.961 286.708 243.076 287.664C251.072 289.898 254.845 280.451 258.009 275.216C261.172 269.98 261.228 268.538 263.358 265.382C265.488 262.226 270.543 259.319 273.96 255.795C278.241 250.516 280.18 243.748 279.332 237.038C278.479 230.382 278.059 223.678 278.076 216.968C278.336 214.408 278.963 211.897 279.937 209.511C292.134 238.809 283.463 272.579 258.6 292.609C233.737 312.639 198.563 314.191 172.048 296.428L172.21 296.706Z" fill="#051627"/>
<path d="M172.21 296.706C174.391 294.436 177.069 292.693 180.038 291.61C193.307 287.881 207.52 289.474 219.596 296.042C222.738 297.428 227.175 298.59 228.87 295.461C230.566 292.333 226.411 288.707 226.358 285.544C226.243 283.433 227.474 281.474 229.44 280.643C231.406 279.811 233.686 280.285 235.145 281.828C237.744 283.824 239.961 286.708 243.076 287.664C251.072 289.898 254.845 280.451 258.009 275.216C261.172 269.98 261.228 268.538 263.358 265.382C265.488 262.226 270.543 259.319 273.96 255.795C278.241 250.516 280.18 243.748 279.332 237.038C278.479 230.382 278.059 223.678 278.076 216.968C278.336 214.408 278.963 211.897 279.937 209.511C292.134 238.809 283.463 272.579 258.6 292.609C233.737 312.639 198.563 314.191 172.048 296.428L172.21 296.706Z" fill="url(#paint17_radial_101_75)" fill-opacity="0.9"/>
</g>
<g filter="url(#filter5_i_101_75)">
<path d="M294.933 186.593C285.915 187.318 276.944 188.549 268.064 190.279C271.736 194.516 274.969 199.11 277.715 203.991C307.816 198.957 324.812 201.043 328.464 204.107C328.517 204.962 326.973 207.922 320.671 213.184C291.702 233.487 259.456 248.723 225.325 258.235C159.18 279.269 115.655 279.417 109.833 273.912C109.779 273.056 111.324 270.096 117.482 264.843C125.379 258.552 133.996 253.207 143.153 248.92C142.161 243.322 141.805 237.63 142.091 231.951C129.56 237.759 117.772 245.033 106.977 253.619C96.1603 262.742 91.9397 271.31 94.1537 279.045C97.8921 290.407 113.586 294.721 142.403 292.202C171.915 289.013 200.999 282.681 229.152 273.314C265.348 263.162 299.533 246.932 330.224 225.327C341.041 216.204 345.118 207.645 343.048 199.901C339.013 188.414 323.606 184.082 294.933 186.593Z" fill="url(#paint18_linear_101_75)"/>
</g>
<defs>
<filter id="filter0_di_101_75" x="-19.2111" y="1.09912" width="896.168" height="726.721" filterUnits="userSpaceOnUse" color-interpolation-filters="sRGB">
<feFlood flood-opacity="0" result="BackgroundImageFix"/>
<feColorMatrix in="SourceAlpha" type="matrix" values="0 0 0 0 0 0 0 0 0 0 0 0 0 0 0 0 0 0 127 0" result="hardAlpha"/>
<feOffset dx="20" dy="84"/>
<feGaussianBlur stdDeviation="22"/>
<feComposite in2="hardAlpha" operator="out"/>
<feColorMatrix type="matrix" values="0 0 0 0 0 0 0 0 0 0.254464 0 0 0 0 0.375 0 0 0 0.38 0"/>
<feBlend mode="normal" in2="BackgroundImageFix" result="effect1_dropShadow_101_75"/>
<feBlend mode="normal" in="SourceGraphic" in2="effect1_dropShadow_101_75" result="shape"/>
<feColorMatrix in="SourceAlpha" type="matrix" values="0 0 0 0 0 0 0 0 0 0 0 0 0 0 0 0 0 0 127 0" result="hardAlpha"/>
<feOffset dy="7"/>
<feGaussianBlur stdDeviation="12"/>
<feComposite in2="hardAlpha" operator="arithmetic" k2="-1" k3="1"/>
<feColorMatrix type="matrix" values="0 0 0 0 1 0 0 0 0 1 0 0 0 0 1 0 0 0 0.29 0"/>
<feBlend mode="normal" in2="shape" result="effect2_innerShadow_101_75"/>
</filter>
<filter id="filter1_di_101_75" x="538.695" y="259.828" width="79.9636" height="142.08" filterUnits="userSpaceOnUse" color-interpolation-filters="sRGB">
<feFlood flood-opacity="0" result="BackgroundImageFix"/>
<feColorMatrix in="SourceAlpha" type="matrix" values="0 0 0 0 0 0 0 0 0 0 0 0 0 0 0 0 0 0 127 0" result="hardAlpha"/>
<feMorphology radius="40" operator="erode" in="SourceAlpha" result="effect1_dropShadow_101_75"/>
<feOffset dx="20" dy="84"/>
<feGaussianBlur stdDeviation="22"/>
<feComposite in2="hardAlpha" operator="out"/>
<feColorMatrix type="matrix" values="0 0 0 0 0 0 0 0 0 0.254464 0 0 0 0 0.375 0 0 0 0.38 0"/>
<feBlend mode="normal" in2="BackgroundImageFix" result="effect1_dropShadow_101_75"/>
<feBlend mode="normal" in="SourceGraphic" in2="effect1_dropShadow_101_75" result="shape"/>
<feColorMatrix in="SourceAlpha" type="matrix" values="0 0 0 0 0 0 0 0 0 0 0 0 0 0 0 0 0 0 127 0" result="hardAlpha"/>
<feOffset dy="7"/>
<feGaussianBlur stdDeviation="12"/>
<feComposite in2="hardAlpha" operator="arithmetic" k2="-1" k3="1"/>
<feColorMatrix type="matrix" values="0 0 0 0 1 0 0 0 0 1 0 0 0 0 1 0 0 0 0.63 0"/>
<feBlend mode="normal" in2="shape" result="effect2_innerShadow_101_75"/>
</filter>
<filter id="filter2_di_101_75" x="142.42" y="164.675" width="167.026" height="233.026" filterUnits="userSpaceOnUse" color-interpolation-filters="sRGB">
<feFlood flood-opacity="0" result="BackgroundImageFix"/>
<feColorMatrix in="SourceAlpha" type="matrix" values="0 0 0 0 0 0 0 0 0 0 0 0 0 0 0 0 0 0 127 0" result="hardAlpha"/>
<feMorphology radius="40" operator="erode" in="SourceAlpha" result="effect1_dropShadow_101_75"/>
<feOffset dx="20" dy="84"/>
<feGaussianBlur stdDeviation="22"/>
<feComposite in2="hardAlpha" operator="out"/>
<feColorMatrix type="matrix" values="0 0 0 0 0 0 0 0 0 0.254464 0 0 0 0 0.375 0 0 0 0.38 0"/>
<feBlend mode="normal" in2="BackgroundImageFix" result="effect1_dropShadow_101_75"/>
<feBlend mode="normal" in="SourceGraphic" in2="effect1_dropShadow_101_75" result="shape"/>
<feColorMatrix in="SourceAlpha" type="matrix" values="0 0 0 0 0 0 0 0 0 0 0 0 0 0 0 0 0 0 127 0" result="hardAlpha"/>
<feOffset dy="7"/>
<feGaussianBlur stdDeviation="12"/>
<feComposite in2="hardAlpha" operator="arithmetic" k2="-1" k3="1"/>
<feColorMatrix type="matrix" values="0 0 0 0 1 0 0 0 0 1 0 0 0 0 1 0 0 0 0.63 0"/>
<feBlend mode="normal" in2="shape" result="effect2_innerShadow_101_75"/>
</filter>
<filter id="filter3_if_101_75" x="139.482" y="159.244" width="151.907" height="157.104" filterUnits="userSpaceOnUse" color-interpolation-filters="sRGB">
<feFlood flood-opacity="0" result="BackgroundImageFix"/>
<feBlend mode="normal" in="SourceGraphic" in2="BackgroundImageFix" result="shape"/>
<feColorMatrix in="SourceAlpha" type="matrix" values="0 0 0 0 0 0 0 0 0 0 0 0 0 0 0 0 0 0 127 0" result="hardAlpha"/>
<feOffset dx="2" dy="6"/>
<feGaussianBlur stdDeviation="3.5"/>
<feComposite in2="hardAlpha" operator="arithmetic" k2="-1" k3="1"/>
<feColorMatrix type="matrix" values="0 0 0 0 0.979167 0 0 0 0 0.979167 0 0 0 0 0.979167 0 0 0 0.14 0"/>
<feBlend mode="normal" in2="shape" result="effect1_innerShadow_101_75"/>
<feGaussianBlur stdDeviation="2.5" result="effect2_foregroundBlur_101_75"/>
</filter>
<filter id="filter4_f_101_75" x="169.048" y="206.511" width="119.359" height="105.251" filterUnits="userSpaceOnUse" color-interpolation-filters="sRGB">
<feFlood flood-opacity="0" result="BackgroundImageFix"/>
<feBlend mode="normal" in="SourceGraphic" in2="BackgroundImageFix" result="shape"/>
<feGaussianBlur stdDeviation="1.5" result="effect1_foregroundBlur_101_75"/>
</filter>
<filter id="filter5_i_101_75" x="93.5832" y="185.904" width="251.985" height="110.993" filterUnits="userSpaceOnUse" color-interpolation-filters="sRGB">
<feFlood flood-opacity="0" result="BackgroundImageFix"/>
<feBlend mode="normal" in="SourceGraphic" in2="BackgroundImageFix" result="shape"/>
<feColorMatrix in="SourceAlpha" type="matrix" values="0 0 0 0 0 0 0 0 0 0 0 0 0 0 0 0 0 0 127 0" result="hardAlpha"/>
<feOffset dx="2" dy="4"/>
<feGaussianBlur stdDeviation="3"/>
<feComposite in2="hardAlpha" operator="arithmetic" k2="-1" k3="1"/>
<feColorMatrix type="matrix" values="0 0 0 0 0.991667 0 0 0 0 0.991667 0 0 0 0 0.991667 0 0 0 0.32 0"/>
<feBlend mode="normal" in2="shape" result="effect1_innerShadow_101_75"/>
</filter>
<linearGradient id="paint0_linear_101_75" x1="-5.57221" y1="655.274" x2="777.895" y2="-120.365" gradientUnits="userSpaceOnUse">
<stop stop-color="#0A1D2B"/>
<stop offset="1" stop-color="#001013"/>
</linearGradient>
<linearGradient id="paint1_linear_101_75" x1="-1.57306" y1="655.274" x2="781.894" y2="-120.365" gradientUnits="userSpaceOnUse">
<stop stop-color="#0A1D2B"/>
<stop offset="1" stop-color="#001013"/>
</linearGradient>
<radialGradient id="paint2_radial_101_75" cx="0" cy="0" r="1" gradientUnits="userSpaceOnUse" gradientTransform="translate(408.884 302.697) rotate(-0.430967) scale(404.312 299.629)">
<stop stop-color="#0E8798"/>
<stop offset="1" stop-color="#0D485C"/>
</radialGradient>
<linearGradient id="paint3_linear_101_75" x1="319.941" y1="499.245" x2="803.183" y2="-85.6417" gradientUnits="userSpaceOnUse">
<stop stop-color="#0A1D2B"/>
<stop offset="1" stop-color="#0B5E6E"/>
</linearGradient>
<linearGradient id="paint4_linear_101_75" x1="619.866" y1="602.693" x2="482.288" y2="666.121" gradientUnits="userSpaceOnUse">
<stop offset="0.011" stop-color="#0FB9C9"/>
<stop offset="0.390761" stop-color="#0B4D5C"/>
<stop offset="1" stop-color="#091624"/>
</linearGradient>
<linearGradient id="paint5_linear_101_75" x1="742.884" y1="638.66" x2="796.584" y2="633.068" gradientUnits="userSpaceOnUse">
<stop stop-color="#091624"/>
<stop offset="1" stop-color="#C73BA6"/>
</linearGradient>
<linearGradient id="paint6_linear_101_75" x1="743.249" y1="638.078" x2="794.65" y2="630.239" gradientUnits="userSpaceOnUse">
<stop stop-color="#0B4D5B"/>
<stop offset="1" stop-color="#770663"/>
</linearGradient>
<linearGradient id="paint7_linear_101_75" x1="1384.02" y1="912.798" x2="1409.51" y2="919.189" gradientUnits="userSpaceOnUse">
<stop stop-color="#091624"/>
<stop offset="1" stop-color="#AC2C90"/>
</linearGradient>
<linearGradient id="paint8_linear_101_75" x1="1384.59" y1="912.726" x2="1409.68" y2="916.429" gradientUnits="userSpaceOnUse">
<stop stop-color="#0FB9C9"/>
<stop offset="1" stop-color="#091624"/>
</linearGradient>
<linearGradient id="paint9_linear_101_75" x1="545.296" y1="668.514" x2="589.229" y2="663.213" gradientUnits="userSpaceOnUse">
<stop stop-color="#091725"/>
<stop offset="0.682292" stop-color="#0B3140"/>
<stop offset="1" stop-color="#0FA6B6"/>
</linearGradient>
<linearGradient id="paint10_linear_101_75" x1="581.894" y1="725.903" x2="557.434" y2="633.408" gradientUnits="userSpaceOnUse">
<stop stop-color="#091725"/>
<stop offset="1" stop-color="#0B4352"/>
</linearGradient>
<linearGradient id="paint11_linear_101_75" x1="514.14" y1="560.165" x2="579.209" y2="597.135" gradientUnits="userSpaceOnUse">
<stop stop-color="#091624"/>
<stop offset="1" stop-color="#0B3A49"/>
</linearGradient>
<linearGradient id="paint12_linear_101_75" x1="525.477" y1="557.162" x2="571.592" y2="592.907" gradientUnits="userSpaceOnUse">
<stop stop-color="#0FB9C9"/>
<stop offset="1" stop-color="#091624"/>
</linearGradient>
<linearGradient id="paint13_linear_101_75" x1="600.59" y1="694.122" x2="609.165" y2="704.098" gradientUnits="userSpaceOnUse">
<stop stop-color="#D733BD"/>
<stop offset="1" stop-color="#972298"/>
</linearGradient>
<linearGradient id="paint14_linear_101_75" x1="610.429" y1="320.423" x2="608.881" y2="249.543" gradientUnits="userSpaceOnUse">
<stop stop-color="#0FA3B1"/>
<stop offset="1" stop-color="#0C7489"/>
</linearGradient>
<radialGradient id="paint15_radial_101_75" cx="0" cy="0" r="1" gradientUnits="userSpaceOnUse" gradientTransform="translate(173.338 259.639) rotate(-46.7813) scale(144.752 197.777)">
<stop stop-color="#2BC4D3" stop-opacity="0.94"/>
<stop offset="0.526042" stop-color="#0C8F9B" stop-opacity="0.67"/>
<stop offset="1" stop-color="#054D54" stop-opacity="0.73"/>
</radialGradient>
<radialGradient id="paint16_radial_101_75" cx="0" cy="0" r="1" gradientUnits="userSpaceOnUse" gradientTransform="translate(173.841 257.318) rotate(-43.6359) scale(144.685 197.852)">
<stop stop-color="#4BC0CB"/>
<stop offset="0.526042" stop-color="#0C8F9B" stop-opacity="0.67"/>
<stop offset="1" stop-color="#001D20" stop-opacity="0.73"/>
</radialGradient>
<radialGradient id="paint17_radial_101_75" cx="0" cy="0" r="1" gradientUnits="userSpaceOnUse" gradientTransform="translate(194.989 275.466) rotate(-40.5234) scale(108.02 142.069)">
<stop stop-color="#2BC4D3" stop-opacity="0.94"/>
<stop offset="0.526042" stop-color="#0C8F9B" stop-opacity="0.67"/>
<stop offset="1" stop-color="#054D54" stop-opacity="0.73"/>
</radialGradient>
<linearGradient id="paint18_linear_101_75" x1="92.4682" y1="274.773" x2="293.71" y2="348.927" gradientUnits="userSpaceOnUse">
<stop stop-color="#D5330D"/>
<stop offset="1" stop-color="#9D1E00"/>
</linearGradient>
</defs>
</svg>
