<svg width="547" height="951" viewBox="0 0 547 951" fill="none" xmlns="http://www.w3.org/2000/svg">
<g clip-path="url(#clip0_3019_5461)">
<path fill-rule="evenodd" clip-rule="evenodd" d="M95.3 0C89.367 3.272 83.177 6.19 76.757 8.715C51.977 18.457 26.11 22.24 0 23.352V25.915C26.38 24.805 52.54 20.96 77.672 11.085C85.607 7.96 93.187 4.235 100.377 0H95.3Z" fill="#103151" fill-opacity="0.3"/>
<path fill-rule="evenodd" clip-rule="evenodd" d="M184.192 0C158.032 29.785 122.937 52.808 82.825 65.417C55.872 73.89 28.04 78.015 0 80.005V82.545C28.26 80.555 56.347 76.393 83.57 67.835C124.877 54.845 160.937 30.945 187.55 0H184.192Z" fill="#103151" fill-opacity="0.3"/>
<path fill-rule="evenodd" clip-rule="evenodd" d="M242.772 0C242.04 1.037 241.345 2.075 240.6 3.112C200.647 58.703 141.772 97.412 70.362 115.053C47.07 120.8 23.169 124.83 0 127.967V130.518C23.352 127.38 47.459 123.315 70.959 117.518C142.97 99.732 202.332 60.68 242.64 4.59C243.737 3.065 244.787 1.538 245.85 0H242.772Z" fill="#103151" fill-opacity="0.3"/>
<path fill-rule="evenodd" clip-rule="evenodd" d="M265.839 865.652C289.971 887.308 331.744 883.133 368.671 879.445C441.839 872.12 516.826 859.378 597.919 840.455C621.906 834.865 646.221 828.348 669.731 822.072C720.428 808.522 772.834 794.51 825.336 788.6C903.046 779.885 982.059 785.28 1056.34 791.53C1124.41 797.293 1202.74 800.832 1270.88 770.095C1322.49 746.803 1365.11 705.605 1394.13 650.955C1421.67 599.087 1434.19 539.09 1429.36 482.02C1423.22 409.255 1395.66 345.24 1351.76 301.772C1333.87 284.06 1312.71 269.167 1292.25 254.763C1260.53 232.435 1227.73 209.353 1207.49 175.66C1176.51 124.098 1188.49 55.41 1234.77 19.303C1292.83 -26 1370.88 3.75 1401.75 18.655C1423.14 28.97 1443.76 41.152 1463.68 52.92C1503.25 76.283 1544.15 100.442 1592.22 110.61C1655.82 124.05 1721.2 118.74 1784.38 113.6L1790.53 113.1C1915.8 102.945 2044.68 102.005 2123.49 209.095C2153.81 250.295 2171.69 299.525 2189 347.132C2195.71 365.64 2202.67 384.78 2210.26 403.175C2214.46 413.417 2218.93 423.77 2223.22 433.79C2244.93 484.217 2267.36 536.368 2267.9 592.592C2268.58 664.625 2226.55 722.72 2183.43 776.027L2174.03 787.647C2129.69 842.36 2087.82 894.045 2053.35 955.567C2048.15 964.87 2043.15 974.27 2037.82 984.23C2011.75 1033.13 1984.8 1083.69 1939.36 1112.04C1885.6 1145.58 1818.12 1135.33 1758.58 1126.27L1754.99 1125.74C1680.79 1114.48 1608.01 1106.23 1533.68 1128.91C1494.34 1140.87 1457.32 1159.38 1421.51 1177.27C1392.34 1191.85 1362.18 1206.91 1331.12 1218.24C1322.28 1221.46 1313.46 1224.66 1304.66 1227.83C1243.04 1250.05 1184.85 1271.05 1128.14 1303.74C1076.42 1333.55 1032.54 1369.26 986.079 1407.11C976.669 1414.77 967.229 1422.44 957.699 1430.11C935.796 1447.68 914.666 1461.94 893.989 1473H914.154C930.549 1463.18 947.129 1451.54 963.969 1438.04C973.529 1430.35 982.979 1422.66 992.399 1414.99C1038.55 1377.42 1082.12 1341.95 1133.14 1312.53C1189.07 1280.3 1246.87 1259.45 1308.05 1237.36C1316.86 1234.18 1325.7 1231.01 1334.55 1227.76C1366.14 1216.24 1396.56 1201.05 1425.98 1186.36C1461.42 1168.63 1498.05 1150.34 1536.58 1138.6C1608.92 1116.55 1680.47 1124.66 1753.5 1135.75L1757.09 1136.3C1818.32 1145.61 1887.75 1156.16 1944.68 1120.63C1992.39 1090.87 2020 1039.09 2046.71 989.01C2051.98 979.1 2056.96 969.753 2062.14 960.55C2096.18 899.782 2137.77 848.415 2181.84 794.045L2191.24 782.425C2233.58 730.08 2278.69 667.897 2277.96 592.495C2277.43 534.217 2254.57 481.118 2232.48 429.763C2228.18 419.777 2223.74 409.45 2219.54 399.295C2212.04 381.092 2205.14 362.063 2198.44 343.655C2180.91 295.362 2162.77 245.438 2131.57 203.053C2049.71 91.8 1917.8 92.618 1789.73 102.993L1783.58 103.493C1721.08 108.572 1656.48 113.833 1594.27 100.685C1547.81 90.86 1509.43 68.19 1468.78 44.18C1448.66 32.303 1427.86 20.01 1406.1 9.51C1373.55 -6.2 1291.1 -37.473 1228.61 11.292C1178.35 50.502 1165.29 125.015 1198.88 180.91C1220.22 216.433 1253.91 240.138 1286.49 263.075C1306.61 277.235 1327.42 291.885 1344.71 308.998C1386.9 350.77 1413.4 412.515 1419.34 482.875C1429.2 599.6 1365.02 716.505 1266.75 760.843C1200.81 790.603 1124 787.088 1057.18 781.447C982.399 775.125 902.826 769.705 824.223 778.543C770.979 784.522 718.194 798.635 667.156 812.282C643.719 818.532 619.476 825.027 595.649 830.567C514.971 849.393 440.411 862.088 367.609 869.362C332.806 872.83 293.366 876.785 272.541 858.082C261.811 848.465 256.426 833.548 256.084 812.478C255.231 758.938 276.654 702.797 319.756 645.645C328.339 634.255 337.176 622.792 345.721 611.697C379.901 567.322 415.251 521.438 442.719 470.485C473.224 413.93 502.936 346.683 533.576 264.92C564.569 182.205 576.056 108.083 568.671 38.32C566.216 15.03 561.151 -6.518 554.279 -27H543.706C550.884 -6.26 556.146 15.518 558.674 39.395C565.876 107.545 554.584 180.14 524.164 261.342C493.684 342.678 464.154 409.5 433.881 465.652C406.794 515.87 371.709 561.428 337.774 605.482C329.206 616.603 320.354 628.09 311.736 639.515C267.241 698.513 245.136 756.765 246.026 812.647C246.404 836.697 252.886 854.03 265.839 865.652Z" fill="#103151" fill-opacity="0.3"/>
<path fill-rule="evenodd" clip-rule="evenodd" d="M671.79 1489.58C658.68 1485.18 645.13 1480.62 631.932 1476.42C568.482 1456.22 496.667 1430.22 447.472 1376.91C410.34 1336.67 400.5 1282.79 390.979 1230.67C388.38 1216.41 385.692 1201.68 382.482 1187.47C374.635 1152.71 364.965 1117.85 352.917 1080.91C349.22 1069.53 345.715 1057.64 342.334 1046.12C335.057 1021.36 327.527 995.777 317.102 972.192C301.427 936.793 270.787 926.952 245.837 922.315C214.417 916.505 181.115 909.473 149.817 893.335C100.939 868.115 65.502 824.513 38.305 756.128C24.402 721.155 11.95 684.925 0 649.428V680.737C9.107 707.24 18.627 733.888 28.967 759.888C56.725 829.713 94.762 876.317 145.227 902.345C177.747 919.115 211.865 926.343 244.017 932.3C277.917 938.575 297.022 951.732 307.897 976.317C318.067 999.293 325.5 1024.56 332.677 1049C336.084 1060.57 339.612 1072.56 343.36 1084.06C355.31 1120.7 364.892 1155.27 372.667 1189.72C375.83 1203.74 378.49 1218.36 381.08 1232.5C390.857 1286.04 400.977 1341.41 440.1 1383.81C490.967 1438.94 564.22 1465.5 628.907 1486.08C642.017 1490.26 655.53 1494.8 668.602 1499.2C669.397 1499.46 670.202 1499.73 670.995 1500H703.1C692.602 1496.58 682.165 1493.07 671.79 1489.58Z" fill="#103151" fill-opacity="0.3"/>
<path fill-rule="evenodd" clip-rule="evenodd" d="M242.772 0C242.04 1.037 241.345 2.075 240.6 3.112C200.647 58.703 141.772 97.412 70.362 115.053C47.07 120.8 23.169 124.83 0 127.967V130.518C23.352 127.38 47.459 123.315 70.959 117.518C142.97 99.732 202.332 60.68 242.64 4.59C243.737 3.065 244.787 1.538 245.85 0H242.772Z" fill="#103151" fill-opacity="0.3"/>
<path fill-rule="evenodd" clip-rule="evenodd" d="M265.839 865.652C289.971 887.308 331.744 883.133 368.671 879.445C441.839 872.12 516.826 859.378 597.919 840.455C621.906 834.865 646.221 828.348 669.731 822.072C720.428 808.522 772.834 794.51 825.336 788.6C903.046 779.885 982.059 785.28 1056.34 791.53C1124.41 797.293 1202.74 800.832 1270.88 770.095C1322.49 746.803 1365.11 705.605 1394.13 650.955C1421.67 599.087 1434.19 539.09 1429.36 482.02C1423.22 409.255 1395.66 345.24 1351.76 301.772C1333.87 284.06 1312.71 269.167 1292.25 254.763C1260.53 232.435 1227.73 209.353 1207.49 175.66C1176.51 124.098 1188.49 55.41 1234.77 19.303C1292.83 -26 1370.88 3.75 1401.75 18.655C1423.14 28.97 1443.76 41.152 1463.68 52.92C1503.25 76.283 1544.15 100.442 1592.22 110.61C1655.82 124.05 1721.2 118.74 1784.38 113.6L1790.53 113.1C1915.8 102.945 2044.68 102.005 2123.49 209.095C2153.81 250.295 2171.69 299.525 2189 347.132C2195.71 365.64 2202.67 384.78 2210.26 403.175C2214.46 413.417 2218.93 423.77 2223.22 433.79C2244.93 484.217 2267.36 536.368 2267.9 592.592C2268.58 664.625 2226.55 722.72 2183.43 776.027L2174.03 787.647C2129.69 842.36 2087.82 894.045 2053.35 955.567C2048.15 964.87 2043.15 974.27 2037.82 984.23C2011.75 1033.13 1984.8 1083.69 1939.36 1112.04C1885.6 1145.58 1818.12 1135.33 1758.58 1126.27L1754.99 1125.74C1680.79 1114.48 1608.01 1106.23 1533.68 1128.91C1494.34 1140.87 1457.32 1159.38 1421.51 1177.27C1392.34 1191.85 1362.18 1206.91 1331.12 1218.24C1322.28 1221.46 1313.46 1224.66 1304.66 1227.83C1243.04 1250.05 1184.85 1271.05 1128.14 1303.74C1076.42 1333.55 1032.54 1369.26 986.079 1407.11C976.669 1414.77 967.229 1422.44 957.699 1430.11C935.796 1447.68 914.666 1461.94 893.989 1473H914.154C930.549 1463.18 947.129 1451.54 963.969 1438.04C973.529 1430.35 982.979 1422.66 992.399 1414.99C1038.55 1377.42 1082.12 1341.95 1133.14 1312.53C1189.07 1280.3 1246.87 1259.45 1308.05 1237.36C1316.86 1234.18 1325.7 1231.01 1334.55 1227.76C1366.14 1216.24 1396.56 1201.05 1425.98 1186.36C1461.42 1168.63 1498.05 1150.34 1536.58 1138.6C1608.92 1116.55 1680.47 1124.66 1753.5 1135.75L1757.09 1136.3C1818.32 1145.61 1887.75 1156.16 1944.68 1120.63C1992.39 1090.87 2020 1039.09 2046.71 989.01C2051.98 979.1 2056.96 969.753 2062.14 960.55C2096.18 899.782 2137.77 848.415 2181.84 794.045L2191.24 782.425C2233.58 730.08 2278.69 667.897 2277.96 592.495C2277.43 534.217 2254.57 481.118 2232.48 429.763C2228.18 419.777 2223.74 409.45 2219.54 399.295C2212.04 381.092 2205.14 362.063 2198.44 343.655C2180.91 295.362 2162.77 245.438 2131.57 203.053C2049.71 91.8 1917.8 92.618 1789.73 102.993L1783.58 103.493C1721.08 108.572 1656.48 113.833 1594.27 100.685C1547.81 90.86 1509.43 68.19 1468.78 44.18C1448.66 32.303 1427.86 20.01 1406.1 9.51C1373.55 -6.2 1291.1 -37.473 1228.61 11.292C1178.35 50.502 1165.29 125.015 1198.88 180.91C1220.22 216.433 1253.91 240.138 1286.49 263.075C1306.61 277.235 1327.42 291.885 1344.71 308.998C1386.9 350.77 1413.4 412.515 1419.34 482.875C1429.2 599.6 1365.02 716.505 1266.75 760.843C1200.81 790.603 1124 787.088 1057.18 781.447C982.399 775.125 902.826 769.705 824.223 778.543C770.979 784.522 718.194 798.635 667.156 812.282C643.719 818.532 619.476 825.027 595.649 830.567C514.971 849.393 440.411 862.088 367.609 869.362C332.806 872.83 293.366 876.785 272.541 858.082C261.811 848.465 256.426 833.548 256.084 812.478C255.231 758.938 276.654 702.797 319.756 645.645C328.339 634.255 337.176 622.792 345.721 611.697C379.901 567.322 415.251 521.438 442.719 470.485C473.224 413.93 502.936 346.683 533.576 264.92C564.569 182.205 576.056 108.083 568.671 38.32C566.216 15.03 561.151 -6.518 554.279 -27H543.706C550.884 -6.26 556.146 15.518 558.674 39.395C565.876 107.545 554.584 180.14 524.164 261.342C493.684 342.678 464.154 409.5 433.881 465.652C406.794 515.87 371.709 561.428 337.774 605.482C329.206 616.603 320.354 628.09 311.736 639.515C267.241 698.513 245.136 756.765 246.026 812.647C246.404 836.697 252.886 854.03 265.839 865.652Z" fill="#103151" fill-opacity="0.3"/>
<path fill-rule="evenodd" clip-rule="evenodd" d="M671.79 1489.58C658.68 1485.18 645.13 1480.62 631.932 1476.42C568.482 1456.22 496.667 1430.22 447.472 1376.91C410.34 1336.67 400.5 1282.79 390.979 1230.67C388.38 1216.41 385.692 1201.68 382.482 1187.47C374.635 1152.71 364.965 1117.85 352.917 1080.91C349.22 1069.53 345.715 1057.64 342.334 1046.12C335.057 1021.36 327.527 995.777 317.102 972.192C301.427 936.793 270.787 926.952 245.837 922.315C214.417 916.505 181.115 909.473 149.817 893.335C100.939 868.115 65.502 824.513 38.305 756.128C24.402 721.155 11.95 684.925 0 649.428V680.737C9.107 707.24 18.627 733.888 28.967 759.888C56.725 829.713 94.762 876.317 145.227 902.345C177.747 919.115 211.865 926.343 244.017 932.3C277.917 938.575 297.022 951.732 307.897 976.317C318.067 999.293 325.5 1024.56 332.677 1049C336.084 1060.57 339.612 1072.56 343.36 1084.06C355.31 1120.7 364.892 1155.27 372.667 1189.72C375.83 1203.74 378.49 1218.36 381.08 1232.5C390.857 1286.04 400.977 1341.41 440.1 1383.81C490.967 1438.94 564.22 1465.5 628.907 1486.08C642.017 1490.26 655.53 1494.8 668.602 1499.2C669.397 1499.46 670.202 1499.73 670.995 1500H703.1C692.602 1496.58 682.165 1493.07 671.79 1489.58Z" fill="#103151" fill-opacity="0.3"/>
<path fill-rule="evenodd" clip-rule="evenodd" d="M1316.59 318.018C1285.61 292.87 1253.58 266.87 1230.3 233.485C1194.42 182.007 1192.7 110.607 1225.91 51.6C1237.55 30.92 1252.39 13.538 1269.49 0H1265.49C1249.17 13.44 1234.97 30.37 1223.72 50.355C1190.04 110.205 1191.81 182.665 1228.23 234.938C1251.71 268.627 1283.9 294.74 1315.01 319.982C1334.24 335.595 1354.14 351.732 1371.69 369.458C1416.83 415.015 1440.49 478.442 1436.6 543.458C1432.59 610.205 1400.46 672.107 1348.44 713.283C1270.01 775.343 1173.68 770.447 1080.52 765.735C1030.35 763.195 978.468 760.56 929.956 768.407C915.443 770.753 900.771 772.633 886.573 774.438C870.471 776.49 853.808 778.612 837.331 781.445C808.338 786.425 779.126 792.675 750.881 798.73C740.906 800.855 730.933 803.003 720.948 805.077L715.21 806.275C652.148 819.457 580.666 834.425 515.113 827.93C476.208 824.072 446.228 810.18 430.688 788.817C418.848 772.522 415.393 752.16 420.436 728.295C429.286 686.328 453.896 649.475 477.686 613.83C490.651 594.422 504.041 574.353 514.601 553.833C534.168 515.783 549.378 474.78 564.076 435.132C567.751 425.232 571.411 415.345 575.136 405.518C581.153 389.672 587.488 373.645 593.616 358.143C606.116 326.55 619.043 293.885 629.846 260.998C660.133 168.8 667.151 84.765 651.295 0H648.73C664.626 84.498 657.656 168.263 627.453 260.205C616.676 293.005 603.773 325.647 591.286 357.203C585.146 372.717 578.808 388.745 572.791 404.615C569.056 414.44 565.393 424.34 561.721 434.24C547.033 473.828 531.861 514.757 512.366 552.672C501.881 573.06 488.513 593.067 475.598 612.415C451.673 648.268 426.928 685.328 417.971 727.77C412.781 752.367 416.383 773.412 428.663 790.308C444.631 812.28 475.246 826.537 514.855 830.445C580.798 836.987 652.491 821.973 715.723 808.765L721.46 807.567C731.446 805.47 741.431 803.345 751.406 801.197C779.628 795.165 808.813 788.915 837.746 783.96C854.176 781.128 870.813 779.005 886.891 776.952C901.111 775.147 915.808 773.268 930.348 770.91C978.601 763.11 1030.35 765.735 1080.39 768.263C1174.02 773.01 1270.83 777.905 1349.99 715.27C1402.58 673.645 1435.06 611.085 1439.1 543.615C1443.04 477.868 1419.11 413.732 1373.48 367.663C1355.82 349.842 1335.88 333.667 1316.59 318.018Z" fill="#103151" fill-opacity="0.3"/>
<path fill-rule="evenodd" clip-rule="evenodd" d="M1268.31 339.283C1250.46 322.46 1232.01 305.065 1215.6 286.5C1165.09 229.357 1147.19 165.663 1162.4 97.217C1170.42 61.132 1184.22 27.845 1202.09 0H1199.11C1181.49 27.82 1167.89 60.888 1159.95 96.655C1144.54 165.955 1162.63 230.395 1213.72 288.183C1230.2 306.835 1248.7 324.268 1266.59 341.125C1295.9 368.75 1326.21 397.315 1348.36 431.922C1384.9 488.99 1386.78 555.712 1353.38 610.413C1313.15 676.33 1245.36 699.987 1195.58 708.228C1146.84 716.297 1096.19 718.152 1047.22 719.935C1020.51 720.91 992.907 721.913 965.99 723.925C915.93 727.65 865.662 735.34 817.04 742.76C789.294 747.01 760.62 751.393 732.275 754.992L731.957 755.03C683.595 761.183 633.582 767.553 586.695 756.482C563.342 750.978 546.435 741.223 536.425 727.515C517.945 702.185 526.952 668.178 537.78 635.522C548.352 603.625 558.544 571.007 568.395 539.465C581.847 496.41 595.752 451.88 610.827 408.57C618.25 387.243 626.439 365.638 634.35 344.74C653.49 294.225 673.29 241.993 684.35 188.415C696.85 127.868 698.717 64.527 689.952 0H687.415C696.192 64.355 694.36 127.527 681.885 187.902C670.862 241.272 651.11 293.408 632.007 343.835C624.072 364.745 615.882 386.377 608.459 407.728C593.372 451.087 579.455 495.63 565.99 538.708C556.14 570.24 545.959 602.845 535.387 634.717C527.245 659.325 513.597 700.5 534.4 729.015C544.775 743.225 562.169 753.295 586.12 758.947C604.967 763.402 624.28 765.063 643.762 765.063C673.205 765.063 703.04 761.268 732.275 757.545L732.592 757.508C760.962 753.895 789.66 749.513 817.419 745.275C865.99 737.842 916.209 730.175 966.175 726.44C993.042 724.438 1020.63 723.438 1047.3 722.46C1096.36 720.678 1147.09 718.822 1195.99 710.73C1246.29 702.405 1314.78 678.467 1355.53 611.743C1389.44 556.19 1387.56 488.453 1350.49 430.555C1328.16 395.678 1297.73 367.005 1268.31 339.283Z" fill="#103151" fill-opacity="0.3"/>
<path fill-rule="evenodd" clip-rule="evenodd" d="M0 186.107C5.407 184.583 10.802 183.08 16.125 181.605C72.875 165.808 131.555 149.475 182.617 117.895C230.932 88 267.675 47.095 303.137 0H299.975C265.027 46.24 228.747 86.377 181.3 115.735C130.542 147.132 72.032 163.415 15.454 179.163C10.365 180.578 5.187 182.02 0 183.473V186.107Z" fill="#103151" fill-opacity="0.3"/>
<path fill-rule="evenodd" clip-rule="evenodd" d="M592.005 60.62C587.06 39.855 579.222 19.397 569.115 0H566.297C576.587 19.555 584.557 40.223 589.562 61.217C604.517 123.925 597.044 190.808 565.345 278.075C537.232 355.445 505.225 424.183 470.202 482.385C441.43 530.2 405.885 568.908 368.25 609.888C358.52 620.495 348.45 631.458 338.597 642.505C328.37 653.955 318.187 665.783 308.337 677.223C294.555 693.237 280.297 709.777 265.747 725.563C262.927 728.6 260.057 731.8 257.117 735.07C238.525 755.725 217.455 779.125 192.479 787.987C185.645 790.405 178.662 791.65 171.705 791.65H171.692C122.032 791.625 81.407 729.395 66.247 702.638C38.915 654.395 18.75 601.928 0 550.232V557.592C18.127 607.275 37.78 657.495 64.062 703.895C83.167 737.61 122.557 794.165 171.692 794.165H171.705C178.942 794.165 186.217 792.895 193.31 790.38C218.897 781.3 240.185 757.643 258.972 736.768C261.915 733.507 264.782 730.322 267.59 727.283C282.177 711.475 296.435 694.91 310.242 678.895C320.08 667.455 330.26 655.64 340.467 644.19C350.305 633.167 360.375 622.205 370.104 611.61C407.825 570.533 443.457 531.737 472.35 483.703C507.457 425.355 539.537 356.47 567.712 278.942C599.584 191.188 607.08 123.853 592.005 60.62Z" fill="#103151" fill-opacity="0.3"/>
<path fill-rule="evenodd" clip-rule="evenodd" d="M0 268.567C1.709 266.467 3.539 264.405 5.542 262.402C29.394 238.598 60.51 224.183 90.6 210.243C94.762 208.3 98.937 206.373 103.075 204.42C155.14 179.882 222.62 144.788 282.837 90.832C293.2 81.542 303.37 71.167 314.122 60.18C335.962 37.902 358.277 15.138 383.667 0H378.82C354.65 15.235 333.277 37.035 312.342 58.41C301.612 69.36 291.467 79.7 281.165 88.94C221.18 142.688 153.907 177.66 102.002 202.125C97.875 204.078 93.712 206.005 89.537 207.935C59.252 221.973 27.942 236.487 3.772 260.607C2.442 261.928 1.197 263.283 0 264.66V268.567Z" fill="#103151" fill-opacity="0.3"/>
<path fill-rule="evenodd" clip-rule="evenodd" d="M553.32 73.315C544.055 45.74 526.122 18.03 501.685 0H497.314C522.79 17.59 541.455 45.922 550.939 74.12C567.895 124.525 565.442 183.178 543.457 253.442C522.985 318.822 490.82 388.183 450.415 454.015C414.832 512 369.74 557.092 312.987 606.958C310.462 609.18 307.85 611.5 305.14 613.893C268.945 645.973 219.372 689.917 171.07 689.917H171.057C163.415 689.917 155.97 688.77 148.937 686.522C100.842 671.118 73.132 622.547 50.342 572.34C28.65 524.547 13.38 473.975 0 423.607V433.325C12.829 480.785 27.587 528.295 48.06 573.4C71.082 624.12 99.144 673.23 148.18 688.94C155.457 691.26 163.147 692.445 171.057 692.445C171.07 692.445 171.07 692.445 171.07 692.445C220.325 692.445 270.312 648.145 306.8 615.795C309.51 613.402 312.122 611.085 314.635 608.875C371.57 558.85 416.81 513.598 452.552 455.348C493.067 389.342 525.33 319.788 545.85 254.2C568.017 183.41 570.459 124.23 553.32 73.315Z" fill="#103151" fill-opacity="0.3"/>
<path fill-rule="evenodd" clip-rule="evenodd" d="M437.292 67.98C408.35 67.98 373.937 83.507 335.01 114.123C277.015 159.74 215.27 199.268 157.189 235.192C153.697 237.353 150.157 239.515 146.607 241.675C123.705 255.603 100.037 270.02 82.2868 290.125C57.3848 318.348 51.1718 354.945 50.3538 380.678C50.1348 387.792 50.1948 395.57 50.5618 404.455C60.9868 470.63 77.2348 538.135 125 582.592C142.175 598.56 162.33 606.665 184.9 606.665H184.912C226.502 606.665 269.225 579.712 297.755 559.435C393.372 491.493 466.505 381.775 503.675 250.525C516.712 204.48 529.967 138.39 494.715 96.192C479.064 77.477 459.752 67.98 437.292 67.98ZM184.912 609.192H184.9C161.669 609.192 140.942 600.868 123.302 584.447C74.9622 539.465 58.5702 471.473 48.0602 404.7C47.6802 395.605 47.6202 387.768 47.8402 380.59C48.6822 354.442 55.0052 317.225 80.4072 288.44C98.4002 268.055 122.252 253.54 145.312 239.502C148.852 237.342 152.38 235.192 155.872 233.033C213.892 197.143 275.562 157.665 333.472 112.123C372.84 81.1519 407.775 65.4419 437.292 65.4419C460.522 65.4419 480.492 75.2449 496.642 94.5549C532.665 137.683 519.287 204.615 506.092 251.22C468.775 383.02 395.3 493.225 299.207 561.51C270.41 581.982 227.209 609.192 184.912 609.192Z" fill="#103151" fill-opacity="0.3"/>
<path fill-rule="evenodd" clip-rule="evenodd" d="M968.833 844.532C956.469 844.532 944.299 844.947 932.676 845.825C853.441 851.66 777.671 872.755 714.001 892.628C693.774 898.95 672.764 904.81 652.451 910.497C603.551 924.145 552.989 938.282 507.116 960.133C468.859 978.37 424.436 1013.99 430.089 1080.15C447.656 1191.46 497.264 1340.11 633.849 1415.77C705.894 1455.67 774.621 1478.05 838.121 1482.33C842.771 1482.64 847.496 1482.81 852.159 1482.81C907.346 1482.81 962.816 1461.47 1026.73 1415.65C1040.27 1405.93 1053.87 1395.92 1067.02 1386.28C1112.07 1353.15 1158.65 1318.9 1209.26 1291.67C1236.25 1277.17 1264.77 1264.11 1292.34 1251.49C1331.48 1233.57 1371.95 1215.06 1408.75 1192.02C1425.27 1181.69 1441.59 1170.14 1457.36 1158.99C1497.83 1130.35 1539.67 1100.73 1589.4 1088.33C1614.89 1081.96 1642.38 1078.98 1675.85 1078.98C1701.61 1078.98 1727.83 1080.76 1753.2 1082.5C1771.71 1083.74 1790.84 1085.06 1809.42 1085.62C1817.33 1085.87 1824.68 1085.99 1831.88 1085.99C1879.83 1085.99 1950.1 1081.15 2006.42 1039.41C2043.28 1012.08 2071.78 974.902 2099.34 938.915C2109.98 925.025 2120.99 910.67 2132.3 897.12C2144.09 883.008 2156.42 868.897 2168.36 855.25C2201.95 816.87 2236.69 777.173 2263.16 732.495C2298.14 673.388 2302.81 605.48 2277 530.688C2253.73 463.232 2222.36 392.59 2183.76 320.703C2151.49 260.632 2109.21 219.555 2058.03 198.62C2014.72 180.895 1966.63 172.645 1906.69 172.645C1867.65 172.645 1827.51 176.123 1788.67 179.493C1750 182.837 1710.01 186.303 1671.29 186.303C1657.35 186.303 1644.51 185.877 1631.98 184.998C1595.17 182.385 1564.31 175.513 1537.69 163.978C1517.5 155.225 1499.34 142.518 1481.77 130.225C1470.43 122.303 1458.7 114.1 1446.56 107.055C1422.95 93.3483 1402.28 86.6953 1383.38 86.6953C1375.39 86.6953 1367.61 87.9023 1360.25 90.3083C1330.15 100.123 1314.68 127.308 1321.78 157.97C1330.52 195.777 1369.21 218.237 1403.37 238.038C1410.51 242.188 1417.25 246.105 1423.51 250.038C1467.8 277.857 1497.92 328.112 1515.61 403.663C1530.64 467.785 1545.29 551.623 1525.17 631.47C1507.9 699.95 1471.86 764.49 1426.28 808.52C1383.74 849.635 1324.51 869.63 1245.2 869.63C1198.79 869.63 1151.33 863.013 1113.18 857.715C1066.49 851.22 1018.2 844.532 968.833 844.532ZM852.172 1485.33C852.172 1485.33 852.172 1485.33 852.16 1485.33C847.437 1485.33 842.662 1485.18 837.952 1484.86C774.084 1480.57 705.005 1458.06 632.642 1417.99C495.165 1341.84 445.252 1192.41 427.587 1080.45C421.802 1012.75 467.064 976.415 506.042 957.838C552.1 935.888 602.77 921.728 651.782 908.058C672.07 902.367 693.067 896.51 713.257 890.21C777.062 870.313 853.002 849.145 932.495 843.285C944.177 842.433 956.407 841.992 968.834 841.992C1018.37 841.992 1066.75 848.705 1113.54 855.2C1151.59 860.497 1198.96 867.09 1245.2 867.09C1323.83 867.09 1382.48 847.34 1424.53 806.69C1469.79 762.975 1505.58 698.89 1522.73 630.848C1542.72 551.538 1528.13 468.09 1513.17 404.248C1495.63 329.382 1465.87 279.638 1422.18 252.185C1415.95 248.28 1409.23 244.373 1402.11 240.235C1367.52 220.165 1328.31 197.425 1319.32 158.545C1311.93 126.525 1328.06 98.1323 1359.48 87.8903C1367.09 85.4123 1375.13 84.1553 1383.38 84.1553C1402.73 84.1553 1423.81 90.9303 1447.81 104.857C1460.06 111.95 1471.83 120.19 1483.2 128.15C1500.67 140.368 1518.72 152.99 1538.67 161.645C1565.04 173.072 1595.6 179.882 1632.15 182.47C1644.6 183.35 1657.42 183.777 1671.29 183.777C1709.91 183.777 1749.85 180.31 1788.48 176.965C1827.34 173.595 1867.55 170.105 1906.69 170.105C1966.97 170.105 2015.36 178.417 2058.98 196.277C2110.69 217.433 2153.42 258.9 2185.99 319.495C2224.66 391.505 2256.08 462.28 2279.39 529.857C2305.44 605.395 2300.71 674.01 2265.31 733.79C2238.74 778.662 2203.93 818.457 2170.26 856.933C2158.33 870.558 2145.99 884.668 2134.23 898.755C2122.95 912.255 2111.96 926.612 2101.34 940.478C2073.66 976.588 2045.07 1013.92 2007.91 1041.43C1950.98 1083.64 1880.17 1088.5 1831.88 1088.5C1824.66 1088.5 1817.28 1088.4 1809.35 1088.16C1790.72 1087.57 1771.56 1086.28 1753.03 1085.01C1727.71 1083.3 1701.51 1081.52 1675.85 1081.52C1642.58 1081.52 1615.31 1084.47 1589.99 1090.77C1540.72 1103.08 1499.08 1132.54 1458.8 1161.06C1443 1172.24 1426.66 1183.81 1410.08 1194.19C1373.13 1217.29 1332.59 1235.84 1293.38 1253.81C1265.84 1266.41 1237.38 1279.44 1210.45 1293.92C1159.98 1321.07 1113.48 1355.25 1068.5 1388.3C1055.35 1398 1041.73 1407.98 1028.18 1417.7C963.83 1463.84 907.897 1485.33 852.172 1485.33Z" fill="#103151" fill-opacity="0.3"/>
<path fill-rule="evenodd" clip-rule="evenodd" d="M111.339 429.53C116.174 459.325 130.259 511.487 170.421 528.797C181.494 533.57 193.394 535.987 205.809 535.987C239.451 535.987 277.806 518.603 319.811 484.303C387.841 428.772 440.674 332.995 454.429 240.295C458.739 211.268 458.921 173.755 435.326 159.79C427.976 155.445 419.494 153.235 410.094 153.235C377.989 153.235 339.964 178.625 314.806 195.422C311.974 197.315 309.276 199.11 306.736 200.783C292.161 210.353 277.099 219.64 262.524 228.612C233.006 246.79 202.501 265.587 174.999 287.5C155.259 303.223 138.853 322.033 123.351 346.667C109.458 368.763 110.313 396.41 111.144 423.145C111.204 425.28 111.279 427.417 111.339 429.53ZM205.809 546.13H205.796C192.029 546.118 178.784 543.433 166.454 538.11C121.726 518.835 106.456 462.61 101.341 430.81L101.281 430.14C101.219 427.93 101.159 425.708 101.086 423.462C100.244 396.51 99.3043 365.967 114.844 341.248C130.969 315.612 148.094 296.007 168.749 279.553C196.726 257.263 227.501 238.305 257.261 219.97C271.776 211.022 286.791 201.783 301.231 192.297C303.759 190.638 306.431 188.855 309.239 186.975C335.411 169.507 374.949 143.103 410.094 143.103C421.311 143.103 431.516 145.777 440.429 151.05C463.256 164.563 471.311 195.092 464.391 241.785C450.279 336.853 396.019 435.145 326.146 492.175C282.311 527.978 241.821 546.13 205.809 546.13Z" fill="#103151" fill-opacity="0.3"/>
<path fill-rule="evenodd" clip-rule="evenodd" d="M525.027 1109.23C549.734 1231.37 633.704 1344.68 739.027 1397.9C778.614 1417.89 821.279 1428.49 862.392 1428.49C887.929 1428.49 912.989 1424.49 936.854 1416.58C989.919 1399.05 1037.36 1365.33 1083.26 1332.74C1096.48 1323.34 1110.16 1313.62 1123.64 1304.54C1166.15 1275.9 1211.07 1249.54 1254.52 1224.05C1278.34 1210.06 1302.98 1195.61 1326.87 1180.98C1355.41 1163.5 1381.83 1141.48 1405.41 1115.55C1418.36 1101.32 1429.6 1085.08 1440.48 1069.38C1450.44 1055 1460.75 1040.14 1472.48 1026.56C1492.71 1003.17 1520.62 991.798 1557.79 991.798C1582.35 991.798 1607.59 996.51 1631.98 1001.05C1641.11 1002.76 1649.73 1004.34 1658.15 1005.69C1709.47 1013.79 1762.53 1022.19 1815.01 1022.19C1840.72 1022.19 1864.06 1020.21 1886.35 1016.16C1922.46 1009.59 1954.93 997.46 1982.88 980.077C2002.71 967.75 2019.9 951.317 2036.5 935.45C2044.83 927.49 2053.44 919.287 2062.33 911.598C2077.98 898.072 2091.82 881.737 2105.22 865.918C2112.67 857.152 2120.36 848.072 2128.29 839.55C2131.28 836.378 2134.25 833.178 2137.23 829.98C2159.4 806.3 2182.33 781.787 2201.81 755.335C2231.69 714.795 2264.04 650.732 2248.49 575.77C2236.89 519.873 2207.96 467.663 2179.98 417.175C2174.68 407.618 2169.19 397.717 2163.99 388.063C2136.47 337.123 2100.71 281.178 2043.78 252.527C2000.49 230.712 1950.17 220.995 1880.64 220.995C1868.82 220.995 1855.96 221.265 1841.28 221.825L1833.45 222.12C1763.94 224.755 1692.06 227.465 1627.44 253.578C1560.91 280.445 1562.82 346.41 1570.46 411.683C1571.95 424.45 1573.71 437.72 1575.39 450.55C1583.13 509.46 1591.14 570.362 1582.57 628.235C1574.05 685.815 1550.27 741.112 1527.24 794.58C1523.25 803.883 1519.26 813.16 1515.39 822.362C1513.65 826.513 1511.92 830.713 1510.17 834.96C1500.61 858.277 1490.72 882.372 1475.41 902.393C1454.17 930.175 1422.63 936.28 1394.58 938.575C1385.68 939.308 1376.33 939.673 1366.78 939.673C1323.83 939.673 1280.33 932.3 1238.28 925.17C1226.05 923.095 1213.4 920.947 1201.11 919.067C1180.74 915.918 1159.97 912.305 1139.9 908.838C1088.8 899.95 1035.99 890.795 983.877 888.135C976.089 887.72 968.142 887.525 960.267 887.525C902.114 887.525 842.299 898.12 777.407 919.872C707.044 943.482 648.182 968.872 597.449 997.485C544.497 1027.34 520.132 1064.94 525.027 1109.23ZM862.403 1438.62H862.391C819.716 1438.62 775.488 1427.66 734.511 1406.96C680.273 1379.54 631.018 1336.94 592.078 1283.71C554.028 1231.74 527.418 1172.02 515.126 1111.01L515.053 1110.57C509.545 1061.77 535.621 1020.75 592.531 988.647C643.823 959.718 703.261 934.082 774.23 910.277C840.161 888.16 901.013 877.393 960.266 877.393C968.311 877.393 976.428 877.612 984.388 878.003C1037.1 880.713 1090.22 889.918 1141.61 898.827C1161.64 902.32 1182.35 905.907 1202.64 909.032C1215 910.938 1227.68 913.11 1239.95 915.185C1281.6 922.24 1324.67 929.54 1366.78 929.54C1376.06 929.54 1385.13 929.175 1393.76 928.468C1419.62 926.367 1448.59 920.85 1467.43 896.215C1481.93 877.245 1491.56 853.785 1500.87 831.103C1502.63 826.83 1504.37 822.582 1506.13 818.407C1510.01 809.18 1514 799.902 1518.02 790.553C1540.77 737.683 1564.31 683.007 1572.61 626.745C1580.96 570.275 1573.05 510.095 1565.4 451.88C1563.72 439.013 1561.96 425.708 1560.47 412.865C1552.71 346.728 1550.56 273.705 1623.68 244.165C1689.94 217.408 1762.69 214.66 1833.06 212L1840.89 211.695C1855.69 211.132 1868.7 210.865 1880.64 210.865C1951.81 210.865 2003.51 220.91 2048.29 243.458C2107.69 273.377 2144.58 330.895 2172.83 383.215C2178.03 392.835 2183.49 402.697 2188.77 412.243C2217.11 463.39 2246.43 516.285 2258.35 573.695C2271.26 635.95 2254.49 700.855 2209.89 761.378C2190.06 788.305 2166.92 813.013 2144.55 836.938C2141.6 840.112 2138.62 843.31 2135.64 846.485C2127.88 854.835 2120.26 863.817 2112.89 872.51C2099.24 888.598 2085.11 905.25 2068.9 919.287C2060.18 926.808 2051.66 934.938 2043.43 942.798C2026.44 959.032 2008.86 975.805 1988.18 988.697C1959.15 1006.74 1925.49 1019.36 1888.16 1026.15C1865.23 1030.3 1841.31 1032.33 1815.01 1032.33C1761.74 1032.33 1708.3 1023.88 1656.59 1015.7C1648.02 1014.33 1639.35 1012.72 1630.15 1011.01C1606.2 1006.57 1581.42 1001.95 1557.79 1001.95C1523.23 1001.95 1498.53 1011.89 1480.08 1033.23C1468.69 1046.39 1458.54 1061.04 1448.73 1075.2C1437.67 1091.16 1426.23 1107.67 1412.83 1122.41C1388.61 1149.05 1361.45 1171.66 1332.1 1189.63C1308.12 1204.32 1283.45 1218.8 1259.59 1232.81C1216.27 1258.23 1171.48 1284.52 1129.23 1312.96C1115.86 1321.97 1102.23 1331.67 1089.06 1341.01C1042.56 1374.05 994.483 1408.2 939.991 1426.22C915.113 1434.45 889.003 1438.62 862.403 1438.62Z" fill="#103151" fill-opacity="0.3"/>
<path fill-rule="evenodd" clip-rule="evenodd" d="M342.075 267.627C317.453 267.627 283.788 284.875 271.102 291.37C240.94 306.822 171.75 350.147 180.858 418.505C190.013 451.928 213.56 458.973 231.7 458.973C249.02 458.985 269.565 452.38 288.082 440.857C311.998 425.978 332.53 404.272 347.457 378.075C355.15 364.575 379.393 317.933 368.565 284.425C364.963 273.28 356.053 267.627 342.075 267.627ZM231.701 461.51C212.681 461.51 188.011 454.138 178.404 419.007C169.041 348.877 239.319 304.81 269.969 289.112C282.786 282.545 316.844 265.1 342.076 265.1C357.274 265.1 366.991 271.337 370.971 283.643C382.116 318.14 357.456 365.612 349.644 379.333C334.509 405.895 313.684 427.917 289.404 443.018C270.506 454.772 249.474 461.51 231.701 461.51Z" fill="#103151" fill-opacity="0.3"/>
<path fill-rule="evenodd" clip-rule="evenodd" d="M335.45 1454.69C302.93 1439.06 284.79 1421.34 278.382 1398.92C270.727 1372.17 278.027 1343.82 285.082 1316.43C285.865 1313.43 286.632 1310.45 287.377 1307.47C308.459 1223.37 303.979 1155 273.669 1098.46C244.385 1043.82 193.97 1010.01 145.215 977.32C95.655 944.093 44.41 909.74 15.564 853.515C9.607 841.92 4.505 829.857 0 817.553V824.683C3.955 834.912 8.337 844.947 13.33 854.688C42.467 911.5 93.995 946.02 143.81 979.442C192.322 1011.96 242.467 1045.58 271.459 1099.66C301.452 1155.62 305.86 1223.39 284.937 1306.86C284.192 1309.82 283.422 1312.79 282.655 1315.79C275.842 1342.24 268.115 1372.19 275.952 1399.61C284.667 1430.08 313.465 1446.92 334.362 1456.96C373.169 1475.58 414.037 1489.06 454.895 1500H464.832C421.02 1488.65 377.027 1474.63 335.45 1454.69Z" fill="#103151" fill-opacity="0.3"/>
<path fill-rule="evenodd" clip-rule="evenodd" d="M192.212 1124.17C167.247 1071.31 119.702 1037.5 73.729 1004.81C48.267 986.695 22.327 968.237 0 946.41V949.878C22.044 971.117 47.387 989.16 72.277 1006.86C117.992 1039.38 165.26 1073 189.942 1125.25C241.04 1233.45 130.152 1333.06 56.775 1398.97L47.875 1407.01C31.275 1421.97 14.832 1437.82 0 1455.35V1459.3C15.247 1440.97 32.3 1424.44 49.547 1408.89L58.447 1400.88C132.385 1334.45 244.115 1234.08 192.212 1124.17Z" fill="#103151" fill-opacity="0.3"/>
<path d="M351.176 897V880.2H354.608V897H351.176ZM358.23 897V880.2H361.662V897H358.23ZM373.349 897.288C368.333 897.288 364.661 893.544 364.661 888.6C364.661 883.656 368.333 879.912 373.349 879.912C377.357 879.912 380.477 882.384 381.461 885.96H377.789C376.997 884.232 375.389 883.176 373.325 883.176C370.229 883.176 368.117 885.456 368.117 888.6C368.117 891.744 370.229 894.024 373.325 894.024C375.389 894.024 376.997 892.968 377.789 891.24H381.461C380.477 894.816 377.357 897.288 373.349 897.288ZM403.514 897L402.098 893.04H395.306L393.866 897H390.242L396.53 880.2H400.874L407.162 897H403.514ZM396.482 889.776H400.898L398.69 883.68L396.482 889.776ZM414.811 897.288C410.851 897.288 407.947 894.312 407.947 890.4C407.947 886.488 410.851 883.512 414.835 883.512C418.051 883.512 420.907 885.456 421.411 888.816H417.883C417.475 887.376 416.227 886.68 414.835 886.68C412.747 886.68 411.403 888.216 411.427 890.4C411.403 892.608 412.795 894.12 414.811 894.12C416.227 894.12 417.475 893.4 417.883 891.96H421.411C420.883 895.44 417.979 897.288 414.811 897.288ZM433.451 883.8H436.883L436.859 897H433.427V895.224C432.515 896.472 431.147 897.288 429.299 897.288C425.843 897.288 423.275 894.456 423.275 890.4C423.275 886.32 425.891 883.512 429.275 883.512C431.147 883.512 432.539 884.376 433.451 885.648V883.8ZM430.067 894.024C431.987 894.024 433.451 892.584 433.451 890.4C433.451 888.24 431.987 886.776 430.067 886.776C428.147 886.776 426.731 888.24 426.731 890.4C426.731 892.584 428.171 894.024 430.067 894.024ZM449.674 878.52H453.106V897H449.674V895.224C448.762 896.472 447.37 897.288 445.522 897.288C442.09 897.288 439.498 894.456 439.498 890.4C439.498 886.32 442.114 883.512 445.498 883.512C447.37 883.512 448.762 884.376 449.674 885.648V878.52ZM446.29 894.024C448.21 894.024 449.674 892.584 449.674 890.4C449.674 888.24 448.21 886.776 446.29 886.776C444.37 886.776 442.954 888.24 442.954 890.4C442.954 892.584 444.394 894.024 446.29 894.024ZM462.413 883.512C466.781 883.512 469.493 886.944 469.157 891.288H459.029C459.245 893.4 460.685 894.456 462.461 894.456C463.781 894.456 464.933 893.856 465.389 892.8H468.941C467.957 895.92 465.317 897.288 462.485 897.288C458.357 897.288 455.525 894.36 455.525 890.424C455.525 886.464 458.381 883.512 462.413 883.512ZM462.389 886.344C460.709 886.344 459.629 887.352 459.197 888.768H465.509C465.125 887.328 464.045 886.344 462.389 886.344ZM487.285 883.512C490.093 883.512 491.845 885.456 491.845 888.648V897H488.413V889.392C488.413 887.712 487.789 886.776 486.133 886.776C484.333 886.776 483.397 887.976 483.397 890.064V897H479.965V889.392C479.965 887.712 479.341 886.776 477.685 886.776C475.885 886.776 474.925 887.976 474.925 890.064L474.949 897H471.493V883.8H474.949V885.552C475.885 884.232 477.133 883.512 478.861 883.512C480.757 883.512 482.149 884.4 482.869 886.008C483.829 884.448 485.341 883.512 487.285 883.512ZM503.822 883.8H507.494L498.902 903H495.254L498.71 895.248L493.622 883.8H497.27L500.534 891.528L503.822 883.8Z" fill="white"/>
</g>
<defs>
<clipPath id="clip0_3019_5461">
<rect width="547" height="951" fill="white"/>
</clipPath>
</defs>
</svg>
