<svg width="547" height="440" viewBox="0 0 547 440" fill="none" xmlns="http://www.w3.org/2000/svg">
<path d="M750.28 371.64C759.683 348.945 760.353 322.792 753.557 297.505C748.005 276.853 745.127 243.013 766 203.833C800.558 138.982 822.07 91.2737 766.506 47.2842C710.942 3.29542 469.322 37.3255 374.637 119.104C288.887 193.164 283.454 268.979 363.797 328.79C436.68 383.044 711.624 464.901 750.279 371.639L750.28 371.64Z" fill="#BC824D"/>
<path d="M135.302 181.174C163.278 172.354 199.705 147.923 211.018 128.537C222.272 109.469 208.411 95.4482 211.76 77.692C215.037 60.3195 207.725 42.5362 192.042 34.2662C176.427 25.6349 130.672 6.54783 102.158 18.2165C73.6566 29.8234 68.1038 56.9972 46.161 69.5942C24.1113 82.7559 7.43877 101.306 4.02437 119.41C2.36934 128.189 5.78727 139.986 13.066 150.643C20.3266 161.385 31.4479 170.992 44.8142 177.412C58.1627 183.917 73.7582 187.241 89.585 187.447C105.396 187.745 121.438 184.923 135.302 181.174Z" fill="#AAD0AB"/>
<path d="M0 349H229C279.258 349 320 389.742 320 440H0V349Z" fill="#28518F"/>
</svg>
