<svg width="546" height="434" viewBox="0 0 546 434" fill="none" xmlns="http://www.w3.org/2000/svg">
<mask id="mask0_3067_3714" style="mask-type:alpha" maskUnits="userSpaceOnUse" x="-3" y="0" width="777" height="435">
<path d="M-2.40917 111.78L-2.46094 102.36L-0.537748 102.349L-0.494807 110.163L4.26885 110.137L4.27768 111.743L-2.40917 111.78Z" fill="white"/>
<path d="M-2.40917 111.78L-2.46094 102.36L-0.537748 102.349L-0.494807 110.163L4.26885 110.137L4.27768 111.743L-2.40917 111.78Z" fill="url(#paint0_linear_3067_3714)" fill-opacity="0.69"/>
<path d="M-2.40917 111.78L-2.46094 102.36L-0.537748 102.349L-0.494807 110.163L4.26885 110.137L4.27768 111.743L-2.40917 111.78Z" fill="url(#paint1_radial_3067_3714)"/>
<path d="M-2.40917 111.78L-2.46094 102.36L-0.537748 102.349L-0.494807 110.163L4.26885 110.137L4.27768 111.743L-2.40917 111.78Z" fill="#6294C5" fill-opacity="0.9"/>
<path d="M413.595 305.177L385.907 289.393L386.406 288.513L414.093 304.297L413.595 305.177Z" fill="white"/>
<path d="M413.595 305.177L385.907 289.393L386.406 288.513L414.093 304.297L413.595 305.177Z" fill="url(#paint2_linear_3067_3714)" fill-opacity="0.69"/>
<path d="M413.595 305.177L385.907 289.393L386.406 288.513L414.093 304.297L413.595 305.177Z" fill="url(#paint3_radial_3067_3714)"/>
<path d="M413.595 305.177L385.907 289.393L386.406 288.513L414.093 304.297L413.595 305.177Z" fill="#6294C5" fill-opacity="0.9"/>
<path d="M414.092 304.298L636.359 430.997L634.337 431.008L413.595 305.177L414.092 304.298Z" fill="white"/>
<path d="M414.092 304.298L636.359 430.997L634.337 431.008L413.595 305.177L414.092 304.298Z" fill="url(#paint4_linear_3067_3714)" fill-opacity="0.69"/>
<path d="M414.092 304.298L636.359 430.997L634.337 431.008L413.595 305.177L414.092 304.298Z" fill="url(#paint5_radial_3067_3714)"/>
<path d="M414.092 304.298L636.359 430.997L634.337 431.008L413.595 305.177L414.092 304.298Z" fill="#6294C5" fill-opacity="0.9"/>
<path d="M771.517 96.1947L194.753 433.423L192.731 433.434L771.511 95.0266L771.517 96.1947Z" fill="white"/>
<path d="M771.517 96.1947L194.753 433.423L192.731 433.434L771.511 95.0266L771.517 96.1947Z" fill="url(#paint6_linear_3067_3714)" fill-opacity="0.69"/>
<path d="M771.517 96.1947L194.753 433.423L192.731 433.434L771.511 95.0266L771.517 96.1947Z" fill="url(#paint7_radial_3067_3714)"/>
<path d="M771.517 96.1947L194.753 433.423L192.731 433.434L771.511 95.0266L771.517 96.1947Z" fill="#6294C5" fill-opacity="0.9"/>
<path d="M413.765 336.169L441.277 320.082L441.786 320.957L414.272 337.044L413.765 336.17L413.765 336.169Z" fill="white"/>
<path d="M413.765 336.169L441.277 320.082L441.786 320.957L414.272 337.044L413.765 336.17L413.765 336.169Z" fill="url(#paint8_linear_3067_3714)" fill-opacity="0.69"/>
<path d="M413.765 336.169L441.277 320.082L441.786 320.957L414.272 337.044L413.765 336.17L413.765 336.169Z" fill="url(#paint9_radial_3067_3714)"/>
<path d="M413.765 336.169L441.277 320.082L441.786 320.957L414.272 337.044L413.765 336.17L413.765 336.169Z" fill="#6294C5" fill-opacity="0.9"/>
<path d="M413.197 1.96613L415.561 432.21L413.528 432.221L411.164 1.97729L413.197 1.96613Z" fill="white"/>
<path d="M413.197 1.96613L415.561 432.21L413.528 432.221L411.164 1.97729L413.197 1.96613Z" fill="url(#paint10_linear_3067_3714)" fill-opacity="0.69"/>
<path d="M413.197 1.96613L415.561 432.21L413.528 432.221L411.164 1.97729L413.197 1.96613Z" fill="url(#paint11_radial_3067_3714)"/>
<path d="M413.197 1.96613L415.561 432.21L413.528 432.221L411.164 1.97729L413.197 1.96613Z" fill="#6294C5" fill-opacity="0.9"/>
<path d="M136.515 433.743L413.16 271.991L414.177 273.741L140.563 433.721L136.515 433.743Z" fill="white"/>
<path d="M136.515 433.743L413.16 271.991L414.177 273.741L140.563 433.721L136.515 433.743Z" fill="url(#paint12_linear_3067_3714)" fill-opacity="0.69"/>
<path d="M136.515 433.743L413.16 271.991L414.177 273.741L140.563 433.721L136.515 433.743Z" fill="url(#paint13_radial_3067_3714)"/>
<path d="M136.515 433.743L413.16 271.991L414.177 273.741L140.563 433.721L136.515 433.743Z" fill="#6294C5" fill-opacity="0.9"/>
<path d="M688.525 430.71L413.17 273.747L414.167 271.986L692.573 430.688L688.525 430.71Z" fill="white"/>
<path d="M688.525 430.71L413.17 273.747L414.167 271.986L692.573 430.688L688.525 430.71Z" fill="url(#paint14_linear_3067_3714)" fill-opacity="0.69"/>
<path d="M688.525 430.71L413.17 273.747L414.167 271.986L692.573 430.688L688.525 430.71Z" fill="url(#paint15_radial_3067_3714)"/>
<path d="M688.525 430.71L413.17 273.747L414.167 271.986L692.573 430.688L688.525 430.71Z" fill="#6294C5" fill-opacity="0.9"/>
<path d="M246.918 433.137L771.683 126.311L771.696 128.649L250.967 433.114L246.918 433.137Z" fill="white"/>
<path d="M246.918 433.137L771.683 126.311L771.696 128.649L250.967 433.114L246.918 433.137Z" fill="url(#paint16_linear_3067_3714)" fill-opacity="0.69"/>
<path d="M246.918 433.137L771.683 126.311L771.696 128.649L250.967 433.114L246.918 433.137Z" fill="url(#paint17_radial_3067_3714)"/>
<path d="M246.918 433.137L771.683 126.311L771.696 128.649L250.967 433.114L246.918 433.137Z" fill="#6294C5" fill-opacity="0.9"/>
<path d="M385.648 288.956L384.072 2.12622L385.088 2.12064L386.664 288.95L385.648 288.956Z" fill="white"/>
<path d="M385.648 288.956L384.072 2.12622L385.088 2.12064L386.664 288.95L385.648 288.956Z" fill="url(#paint18_linear_3067_3714)" fill-opacity="0.69"/>
<path d="M385.648 288.956L384.072 2.12622L385.088 2.12064L386.664 288.95L385.648 288.956Z" fill="url(#paint19_radial_3067_3714)"/>
<path d="M385.648 288.956L384.072 2.12622L385.088 2.12064L386.664 288.95L385.648 288.956Z" fill="#6294C5" fill-opacity="0.9"/>
<path d="M302.99 177.424L746.763 430.39L744.741 430.401L302.491 178.303L302.989 177.424L302.99 177.424Z" fill="white"/>
<path d="M302.99 177.424L746.763 430.39L744.741 430.401L302.491 178.303L302.989 177.424L302.99 177.424Z" fill="url(#paint20_linear_3067_3714)" fill-opacity="0.69"/>
<path d="M302.99 177.424L746.763 430.39L744.741 430.401L302.491 178.303L302.989 177.424L302.99 177.424Z" fill="url(#paint21_radial_3067_3714)"/>
<path d="M302.99 177.424L746.763 430.39L744.741 430.401L302.491 178.303L302.989 177.424L302.99 177.424Z" fill="#6294C5" fill-opacity="0.9"/>
<path d="M773.271 415.477L302.066 146.873L303.064 145.112L773.258 413.14L773.271 415.477Z" fill="white"/>
<path d="M773.271 415.477L302.066 146.873L303.064 145.112L773.258 413.14L773.271 415.477Z" fill="url(#paint22_linear_3067_3714)" fill-opacity="0.69"/>
<path d="M773.271 415.477L302.066 146.873L303.064 145.112L773.258 413.14L773.271 415.477Z" fill="url(#paint23_radial_3067_3714)"/>
<path d="M773.271 415.477L302.066 146.873L303.064 145.112L773.258 413.14L773.271 415.477Z" fill="#6294C5" fill-opacity="0.9"/>
<path d="M468.6 177.39L413.573 209.563L413.066 208.689L468.091 176.516L468.6 177.391L468.6 177.39Z" fill="white"/>
<path d="M468.6 177.39L413.573 209.563L413.066 208.689L468.091 176.516L468.6 177.391L468.6 177.39Z" fill="url(#paint24_linear_3067_3714)" fill-opacity="0.69"/>
<path d="M468.6 177.39L413.573 209.563L413.066 208.689L468.091 176.516L468.6 177.391L468.6 177.39Z" fill="url(#paint25_radial_3067_3714)"/>
<path d="M468.6 177.39L413.573 209.563L413.066 208.689L468.091 176.516L468.6 177.391L468.6 177.39Z" fill="#6294C5" fill-opacity="0.9"/>
<path d="M467.888 1.66556L468.852 176.947L467.836 176.952L466.873 1.67114L467.888 1.66556Z" fill="white"/>
<path d="M467.888 1.66556L468.852 176.947L467.836 176.952L466.873 1.67114L467.888 1.66556Z" fill="url(#paint26_linear_3067_3714)" fill-opacity="0.69"/>
<path d="M467.888 1.66556L468.852 176.947L467.836 176.952L466.873 1.67114L467.888 1.66556Z" fill="url(#paint27_radial_3067_3714)"/>
<path d="M467.888 1.66556L468.852 176.947L467.836 176.952L466.873 1.67114L467.888 1.66556Z" fill="#6294C5" fill-opacity="0.9"/>
<path d="M468.594 176.513L772.911 349.985L772.917 351.152L468.095 177.393L468.594 176.513Z" fill="white"/>
<path d="M468.594 176.513L772.911 349.985L772.917 351.152L468.095 177.393L468.594 176.513Z" fill="url(#paint28_linear_3067_3714)" fill-opacity="0.69"/>
<path d="M468.594 176.513L772.911 349.985L772.917 351.152L468.095 177.393L468.594 176.513Z" fill="url(#paint29_radial_3067_3714)"/>
<path d="M468.594 176.513L772.911 349.985L772.917 351.152L468.095 177.393L468.594 176.513Z" fill="#6294C5" fill-opacity="0.9"/>
<path d="M772.22 224.258L467.144 50.3541L468.143 48.5936L772.207 221.92L772.22 224.257L772.22 224.258Z" fill="white"/>
<path d="M772.22 224.258L467.144 50.3541L468.143 48.5936L772.207 221.92L772.22 224.257L772.22 224.258Z" fill="url(#paint30_linear_3067_3714)" fill-opacity="0.69"/>
<path d="M772.22 224.258L467.144 50.3541L468.143 48.5936L772.207 221.92L772.22 224.257L772.22 224.258Z" fill="url(#paint31_radial_3067_3714)"/>
<path d="M772.22 224.258L467.144 50.3541L468.143 48.5936L772.207 221.92L772.22 224.257L772.22 224.258Z" fill="#6294C5" fill-opacity="0.9"/>
<path d="M330.389 2.42125L772.385 254.376L772.392 255.544L328.365 2.43237L330.389 2.42125Z" fill="white"/>
<path d="M330.389 2.42125L772.385 254.376L772.392 255.544L328.365 2.43237L330.389 2.42125Z" fill="url(#paint32_linear_3067_3714)" fill-opacity="0.69"/>
<path d="M330.389 2.42125L772.385 254.376L772.392 255.544L328.365 2.43237L330.389 2.42125Z" fill="url(#paint33_radial_3067_3714)"/>
<path d="M330.389 2.42125L772.385 254.376L772.392 255.544L328.365 2.43237L330.389 2.42125Z" fill="#6294C5" fill-opacity="0.9"/>
<path d="M329.744 160.902L467.31 80.4689L468.328 82.2183L330.763 162.651L329.744 160.902Z" fill="white"/>
<path d="M329.744 160.902L467.31 80.4689L468.328 82.2183L330.763 162.651L329.744 160.902Z" fill="url(#paint34_linear_3067_3714)" fill-opacity="0.69"/>
<path d="M329.744 160.902L467.31 80.4689L468.328 82.2183L330.763 162.651L329.744 160.902Z" fill="url(#paint35_radial_3067_3714)"/>
<path d="M329.744 160.902L467.31 80.4689L468.328 82.2183L330.763 162.651L329.744 160.902Z" fill="#6294C5" fill-opacity="0.9"/>
<path d="M26.1139 434.35L385.297 224.338L386.315 226.088L30.1621 434.328L26.1139 434.35Z" fill="white"/>
<path d="M26.1139 434.35L385.297 224.338L386.315 226.088L30.1621 434.328L26.1139 434.35Z" fill="url(#paint36_linear_3067_3714)" fill-opacity="0.69"/>
<path d="M26.1139 434.35L385.297 224.338L386.315 226.088L30.1621 434.328L26.1139 434.35Z" fill="url(#paint37_radial_3067_3714)"/>
<path d="M26.1139 434.35L385.297 224.338L386.315 226.088L30.1621 434.328L26.1139 434.35Z" fill="#6294C5" fill-opacity="0.9"/>
<path d="M385.36 98.1706L303.076 146.281L304.651 432.819L303.634 432.825L302.056 145.704L384.852 97.2948L385.361 98.1693L385.36 98.1706Z" fill="white"/>
<path d="M385.36 98.1706L303.076 146.281L304.651 432.819L303.634 432.825L302.056 145.704L384.852 97.2948L385.361 98.1693L385.36 98.1706Z" fill="url(#paint38_linear_3067_3714)" fill-opacity="0.69"/>
<path d="M385.36 98.1706L303.076 146.281L304.651 432.819L303.634 432.825L302.056 145.704L384.852 97.2948L385.361 98.1693L385.36 98.1706Z" fill="url(#paint39_radial_3067_3714)"/>
<path d="M385.36 98.1706L303.076 146.281L304.651 432.819L303.634 432.825L302.056 145.704L384.852 97.2948L385.361 98.1693L385.36 98.1706Z" fill="#6294C5" fill-opacity="0.9"/>
<path d="M551.193 1.20796L467.898 49.9108L467.389 49.0363L549.17 1.21908L551.193 1.20796Z" fill="white"/>
<path d="M551.193 1.20796L467.898 49.9108L467.389 49.0363L549.17 1.21908L551.193 1.20796Z" fill="url(#paint40_linear_3067_3714)" fill-opacity="0.69"/>
<path d="M551.193 1.20796L467.898 49.9108L467.389 49.0363L549.17 1.21908L551.193 1.20796Z" fill="url(#paint41_radial_3067_3714)"/>
<path d="M551.193 1.20796L467.898 49.9108L467.389 49.0363L549.17 1.21908L551.193 1.20796Z" fill="#6294C5" fill-opacity="0.9"/>
<path d="M607.408 0.898947L495.842 66.1318L494.824 64.3824L603.359 0.921193L607.408 0.898947Z" fill="white"/>
<path d="M607.408 0.898947L495.842 66.1318L494.824 64.3824L603.359 0.921193L607.408 0.898947Z" fill="url(#paint42_linear_3067_3714)" fill-opacity="0.69"/>
<path d="M607.408 0.898947L495.842 66.1318L494.824 64.3824L603.359 0.921193L607.408 0.898947Z" fill="url(#paint43_radial_3067_3714)"/>
<path d="M607.408 0.898947L495.842 66.1318L494.824 64.3824L603.359 0.921193L607.408 0.898947Z" fill="#6294C5" fill-opacity="0.9"/>
</mask>
<g mask="url(#mask0_3067_3714)">
<g filter="url(#filter0_ii_3067_3714)">
<rect x="30.2852" y="-1.37573" width="712.363" height="479.811" rx="70" transform="rotate(-0.314857 30.2852 -1.37573)" fill="white"/>
<rect x="30.2852" y="-1.37573" width="712.363" height="479.811" rx="70" transform="rotate(-0.314857 30.2852 -1.37573)" fill="url(#paint44_linear_3067_3714)" fill-opacity="0.69"/>
<rect x="30.2852" y="-1.37573" width="712.363" height="479.811" rx="70" transform="rotate(-0.314857 30.2852 -1.37573)" fill="url(#paint45_radial_3067_3714)" style="mix-blend-mode:overlay"/>
<rect x="30.2852" y="-1.37573" width="712.363" height="479.811" rx="70" transform="rotate(-0.314857 30.2852 -1.37573)" fill="#6294C5" fill-opacity="0.9" style="mix-blend-mode:color"/>
</g>
</g>
<defs>
<filter id="filter0_ii_3067_3714" x="30.668" y="-6.40674" width="714.223" height="485.951" filterUnits="userSpaceOnUse" color-interpolation-filters="sRGB">
<feFlood flood-opacity="0" result="BackgroundImageFix"/>
<feBlend mode="normal" in="SourceGraphic" in2="BackgroundImageFix" result="shape"/>
<feColorMatrix in="SourceAlpha" type="matrix" values="0 0 0 0 0 0 0 0 0 0 0 0 0 0 0 0 0 0 127 0" result="hardAlpha"/>
<feOffset dy="3"/>
<feGaussianBlur stdDeviation="0.75"/>
<feComposite in2="hardAlpha" operator="arithmetic" k2="-1" k3="1"/>
<feColorMatrix type="matrix" values="0 0 0 0 1 0 0 0 0 1 0 0 0 0 1 0 0 0 0.4 0"/>
<feBlend mode="normal" in2="shape" result="effect1_innerShadow_3067_3714"/>
<feColorMatrix in="SourceAlpha" type="matrix" values="0 0 0 0 0 0 0 0 0 0 0 0 0 0 0 0 0 0 127 0" result="hardAlpha"/>
<feOffset dy="-3"/>
<feGaussianBlur stdDeviation="0.75"/>
<feComposite in2="hardAlpha" operator="arithmetic" k2="-1" k3="1"/>
<feColorMatrix type="matrix" values="0 0 0 0 0 0 0 0 0 0 0 0 0 0 0 0 0 0 0.5 0"/>
<feBlend mode="normal" in2="effect1_innerShadow_3067_3714" result="effect2_innerShadow_3067_3714"/>
</filter>
<linearGradient id="paint0_linear_3067_3714" x1="-2.42066" y1="109.689" x2="4.65236" y2="108.861" gradientUnits="userSpaceOnUse">
<stop stop-color="#576265"/>
<stop offset="0.192708" stop-color="#9EA1A1"/>
<stop offset="0.431144" stop-color="#848B8A"/>
<stop offset="0.479303" stop-color="#576265"/>
<stop offset="0.792245" stop-color="#576265"/>
<stop offset="0.878824" stop-color="#757A7B"/>
<stop offset="1" stop-color="#576265"/>
</linearGradient>
<radialGradient id="paint1_radial_3067_3714" cx="0" cy="0" r="1" gradientUnits="userSpaceOnUse" gradientTransform="translate(-2.76915 101.456) rotate(58.7472) scale(7.32014 11.7431)">
<stop stop-color="white"/>
<stop offset="1" stop-color="white" stop-opacity="0"/>
</radialGradient>
<linearGradient id="paint2_linear_3067_3714" x1="385.974" y1="301.596" x2="414.109" y2="294.053" gradientUnits="userSpaceOnUse">
<stop stop-color="#576265"/>
<stop offset="0.192708" stop-color="#9EA1A1"/>
<stop offset="0.431144" stop-color="#848B8A"/>
<stop offset="0.479303" stop-color="#576265"/>
<stop offset="0.792245" stop-color="#576265"/>
<stop offset="0.878824" stop-color="#757A7B"/>
<stop offset="1" stop-color="#576265"/>
</linearGradient>
<radialGradient id="paint3_radial_3067_3714" cx="0" cy="0" r="1" gradientUnits="userSpaceOnUse" gradientTransform="translate(384.619 286.907) rotate(35.0025) scale(19.3837 33.2639)">
<stop stop-color="white"/>
<stop offset="1" stop-color="white" stop-opacity="0"/>
</radialGradient>
<linearGradient id="paint4_linear_3067_3714" x1="414.137" y1="403.819" x2="635.322" y2="342.269" gradientUnits="userSpaceOnUse">
<stop stop-color="#576265"/>
<stop offset="0.192708" stop-color="#9EA1A1"/>
<stop offset="0.431144" stop-color="#848B8A"/>
<stop offset="0.479303" stop-color="#576265"/>
<stop offset="0.792245" stop-color="#576265"/>
<stop offset="0.878824" stop-color="#757A7B"/>
<stop offset="1" stop-color="#576265"/>
</linearGradient>
<radialGradient id="paint5_radial_3067_3714" cx="0" cy="0" r="1" gradientUnits="userSpaceOnUse" gradientTransform="translate(403.452 292.058) rotate(33.9862) scale(151.29 256.224)">
<stop stop-color="white"/>
<stop offset="1" stop-color="white" stop-opacity="0"/>
</radialGradient>
<linearGradient id="paint6_linear_3067_3714" x1="192.322" y1="359.015" x2="770.825" y2="198.392" gradientUnits="userSpaceOnUse">
<stop stop-color="#576265"/>
<stop offset="0.192708" stop-color="#9EA1A1"/>
<stop offset="0.431144" stop-color="#848B8A"/>
<stop offset="0.479303" stop-color="#576265"/>
<stop offset="0.792245" stop-color="#576265"/>
<stop offset="0.878824" stop-color="#757A7B"/>
<stop offset="1" stop-color="#576265"/>
</linearGradient>
<radialGradient id="paint7_radial_3067_3714" cx="0" cy="0" r="1" gradientUnits="userSpaceOnUse" gradientTransform="translate(164.381 66.136) rotate(34.0468) scale(395.854 670.974)">
<stop stop-color="white"/>
<stop offset="1" stop-color="white" stop-opacity="0"/>
</radialGradient>
<linearGradient id="paint8_linear_3067_3714" x1="413.75" y1="333.314" x2="441.885" y2="325.77" gradientUnits="userSpaceOnUse">
<stop stop-color="#576265"/>
<stop offset="0.192708" stop-color="#9EA1A1"/>
<stop offset="0.431144" stop-color="#848B8A"/>
<stop offset="0.479303" stop-color="#576265"/>
<stop offset="0.792245" stop-color="#576265"/>
<stop offset="0.878824" stop-color="#757A7B"/>
<stop offset="1" stop-color="#576265"/>
</linearGradient>
<radialGradient id="paint9_radial_3067_3714" cx="0" cy="0" r="1" gradientUnits="userSpaceOnUse" gradientTransform="translate(412.394 318.625) rotate(35.0021) scale(19.3839 33.264)">
<stop stop-color="white"/>
<stop offset="1" stop-color="white" stop-opacity="0"/>
</radialGradient>
<linearGradient id="paint10_linear_3067_3714" x1="413.004" y1="336.706" x2="415.181" y2="336.692" gradientUnits="userSpaceOnUse">
<stop stop-color="#576265"/>
<stop offset="0.192708" stop-color="#9EA1A1"/>
<stop offset="0.431144" stop-color="#848B8A"/>
<stop offset="0.479303" stop-color="#576265"/>
<stop offset="0.792245" stop-color="#576265"/>
<stop offset="0.878824" stop-color="#757A7B"/>
<stop offset="1" stop-color="#576265"/>
</linearGradient>
<radialGradient id="paint11_radial_3067_3714" cx="0" cy="0" r="1" gradientUnits="userSpaceOnUse" gradientTransform="translate(410.845 -39.3836) rotate(89.4566) scale(286.765 4.16134)">
<stop stop-color="white"/>
<stop offset="1" stop-color="white" stop-opacity="0"/>
</radialGradient>
<linearGradient id="paint12_linear_3067_3714" x1="136.32" y1="398.172" x2="413.695" y2="320.884" gradientUnits="userSpaceOnUse">
<stop stop-color="#576265"/>
<stop offset="0.192708" stop-color="#9EA1A1"/>
<stop offset="0.431144" stop-color="#848B8A"/>
<stop offset="0.479303" stop-color="#576265"/>
<stop offset="0.792245" stop-color="#576265"/>
<stop offset="0.878824" stop-color="#757A7B"/>
<stop offset="1" stop-color="#576265"/>
</linearGradient>
<radialGradient id="paint13_radial_3067_3714" cx="0" cy="0" r="1" gradientUnits="userSpaceOnUse" gradientTransform="translate(122.919 258.182) rotate(33.9503) scale(189.678 321.081)">
<stop stop-color="white"/>
<stop offset="1" stop-color="white" stop-opacity="0"/>
</radialGradient>
<linearGradient id="paint14_linear_3067_3714" x1="413.845" y1="396.648" x2="691.221" y2="319.359" gradientUnits="userSpaceOnUse">
<stop stop-color="#576265"/>
<stop offset="0.192708" stop-color="#9EA1A1"/>
<stop offset="0.431144" stop-color="#848B8A"/>
<stop offset="0.479303" stop-color="#576265"/>
<stop offset="0.792245" stop-color="#576265"/>
<stop offset="0.878824" stop-color="#757A7B"/>
<stop offset="1" stop-color="#576265"/>
</linearGradient>
<radialGradient id="paint15_radial_3067_3714" cx="0" cy="0" r="1" gradientUnits="userSpaceOnUse" gradientTransform="translate(400.444 256.657) rotate(33.9503) scale(189.678 321.081)">
<stop stop-color="white"/>
<stop offset="1" stop-color="white" stop-opacity="0"/>
</radialGradient>
<linearGradient id="paint16_linear_3067_3714" x1="246.547" y1="365.663" x2="771.061" y2="220.03" gradientUnits="userSpaceOnUse">
<stop stop-color="#576265"/>
<stop offset="0.192708" stop-color="#9EA1A1"/>
<stop offset="0.431144" stop-color="#848B8A"/>
<stop offset="0.479303" stop-color="#576265"/>
<stop offset="0.792245" stop-color="#576265"/>
<stop offset="0.878824" stop-color="#757A7B"/>
<stop offset="1" stop-color="#576265"/>
</linearGradient>
<radialGradient id="paint17_radial_3067_3714" cx="0" cy="0" r="1" gradientUnits="userSpaceOnUse" gradientTransform="translate(221.214 100.117) rotate(34.0468) scale(358.91 608.354)">
<stop stop-color="white"/>
<stop offset="1" stop-color="white" stop-opacity="0"/>
</radialGradient>
<linearGradient id="paint18_linear_3067_3714" x1="385.299" y1="225.279" x2="386.387" y2="225.273" gradientUnits="userSpaceOnUse">
<stop stop-color="#576265"/>
<stop offset="0.192708" stop-color="#9EA1A1"/>
<stop offset="0.431144" stop-color="#848B8A"/>
<stop offset="0.479303" stop-color="#576265"/>
<stop offset="0.792245" stop-color="#576265"/>
<stop offset="0.878824" stop-color="#757A7B"/>
<stop offset="1" stop-color="#576265"/>
</linearGradient>
<radialGradient id="paint19_radial_3067_3714" cx="0" cy="0" r="1" gradientUnits="userSpaceOnUse" gradientTransform="translate(383.875 -25.4478) rotate(89.5138) scale(191.176 2.07987)">
<stop stop-color="white"/>
<stop offset="1" stop-color="white" stop-opacity="0"/>
</radialGradient>
<linearGradient id="paint20_linear_3067_3714" x1="303.578" y1="376.125" x2="744.765" y2="253.49" gradientUnits="userSpaceOnUse">
<stop stop-color="#576265"/>
<stop offset="0.192708" stop-color="#9EA1A1"/>
<stop offset="0.431144" stop-color="#848B8A"/>
<stop offset="0.479303" stop-color="#576265"/>
<stop offset="0.792245" stop-color="#576265"/>
<stop offset="0.878824" stop-color="#757A7B"/>
<stop offset="1" stop-color="#576265"/>
</linearGradient>
<radialGradient id="paint21_radial_3067_3714" cx="0" cy="0" r="1" gradientUnits="userSpaceOnUse" gradientTransform="translate(282.268 152.984) rotate(34.0164) scale(301.83 511.392)">
<stop stop-color="white"/>
<stop offset="1" stop-color="white" stop-opacity="0"/>
</radialGradient>
<linearGradient id="paint22_linear_3067_3714" x1="303.224" y1="357.465" x2="771.641" y2="228.228" gradientUnits="userSpaceOnUse">
<stop stop-color="#576265"/>
<stop offset="0.192708" stop-color="#9EA1A1"/>
<stop offset="0.431144" stop-color="#848B8A"/>
<stop offset="0.479303" stop-color="#576265"/>
<stop offset="0.792245" stop-color="#576265"/>
<stop offset="0.878824" stop-color="#757A7B"/>
<stop offset="1" stop-color="#576265"/>
</linearGradient>
<radialGradient id="paint23_radial_3067_3714" cx="0" cy="0" r="1" gradientUnits="userSpaceOnUse" gradientTransform="translate(280.611 118.996) rotate(34.2192) scale(320.901 545.193)">
<stop stop-color="white"/>
<stop offset="1" stop-color="white" stop-opacity="0"/>
</radialGradient>
<linearGradient id="paint24_linear_3067_3714" x1="413.031" y1="202.296" x2="468.669" y2="187.119" gradientUnits="userSpaceOnUse">
<stop stop-color="#576265"/>
<stop offset="0.192708" stop-color="#9EA1A1"/>
<stop offset="0.431144" stop-color="#848B8A"/>
<stop offset="0.479303" stop-color="#576265"/>
<stop offset="0.792245" stop-color="#576265"/>
<stop offset="0.878824" stop-color="#757A7B"/>
<stop offset="1" stop-color="#576265"/>
</linearGradient>
<radialGradient id="paint25_radial_3067_3714" cx="0" cy="0" r="1" gradientUnits="userSpaceOnUse" gradientTransform="translate(410.347 173.686) rotate(34.5297) scale(38.1997 65.1644)">
<stop stop-color="white"/>
<stop offset="1" stop-color="white" stop-opacity="0"/>
</radialGradient>
<linearGradient id="paint26_linear_3067_3714" x1="467.622" y1="138.04" x2="468.71" y2="138.033" gradientUnits="userSpaceOnUse">
<stop stop-color="#576265"/>
<stop offset="0.192708" stop-color="#9EA1A1"/>
<stop offset="0.431144" stop-color="#848B8A"/>
<stop offset="0.479303" stop-color="#576265"/>
<stop offset="0.792245" stop-color="#576265"/>
<stop offset="0.878824" stop-color="#757A7B"/>
<stop offset="1" stop-color="#576265"/>
</linearGradient>
<radialGradient id="paint27_radial_3067_3714" cx="0" cy="0" r="1" gradientUnits="userSpaceOnUse" gradientTransform="translate(466.734 -15.1792) rotate(89.4049) scale(116.828 2.07889)">
<stop stop-color="white"/>
<stop offset="1" stop-color="white" stop-opacity="0"/>
</radialGradient>
<linearGradient id="paint28_linear_3067_3714" x1="468.844" y1="313.682" x2="771.802" y2="229.975" gradientUnits="userSpaceOnUse">
<stop stop-color="#576265"/>
<stop offset="0.192708" stop-color="#9EA1A1"/>
<stop offset="0.431144" stop-color="#848B8A"/>
<stop offset="0.479303" stop-color="#576265"/>
<stop offset="0.792245" stop-color="#576265"/>
<stop offset="0.878824" stop-color="#757A7B"/>
<stop offset="1" stop-color="#576265"/>
</linearGradient>
<radialGradient id="paint29_radial_3067_3714" cx="0" cy="0" r="1" gradientUnits="userSpaceOnUse" gradientTransform="translate(454.217 159.643) rotate(34.1799) scale(207.493 352.335)">
<stop stop-color="white"/>
<stop offset="1" stop-color="white" stop-opacity="0"/>
</radialGradient>
<linearGradient id="paint30_linear_3067_3714" x1="467.893" y1="186.561" x2="771.309" y2="103.135" gradientUnits="userSpaceOnUse">
<stop stop-color="#576265"/>
<stop offset="0.192708" stop-color="#9EA1A1"/>
<stop offset="0.431144" stop-color="#848B8A"/>
<stop offset="0.479303" stop-color="#576265"/>
<stop offset="0.792245" stop-color="#576265"/>
<stop offset="0.878824" stop-color="#757A7B"/>
<stop offset="1" stop-color="#576265"/>
</linearGradient>
<radialGradient id="paint31_radial_3067_3714" cx="0" cy="0" r="1" gradientUnits="userSpaceOnUse" gradientTransform="translate(453.25 31.6274) rotate(34.3127) scale(207.997 353.815)">
<stop stop-color="white"/>
<stop offset="1" stop-color="white" stop-opacity="0"/>
</radialGradient>
<linearGradient id="paint32_linear_3067_3714" x1="329.458" y1="201.245" x2="770.464" y2="78.7975" gradientUnits="userSpaceOnUse">
<stop stop-color="#576265"/>
<stop offset="0.192708" stop-color="#9EA1A1"/>
<stop offset="0.431144" stop-color="#848B8A"/>
<stop offset="0.479303" stop-color="#576265"/>
<stop offset="0.792245" stop-color="#576265"/>
<stop offset="0.878824" stop-color="#757A7B"/>
<stop offset="1" stop-color="#576265"/>
</linearGradient>
<radialGradient id="paint33_radial_3067_3714" cx="0" cy="0" r="1" gradientUnits="userSpaceOnUse" gradientTransform="translate(308.158 -22.0239) rotate(34.0468) scale(301.769 511.499)">
<stop stop-color="white"/>
<stop offset="1" stop-color="white" stop-opacity="0"/>
</radialGradient>
<linearGradient id="paint34_linear_3067_3714" x1="329.655" y1="144.579" x2="468.435" y2="106.59" gradientUnits="userSpaceOnUse">
<stop stop-color="#576265"/>
<stop offset="0.192708" stop-color="#9EA1A1"/>
<stop offset="0.431144" stop-color="#848B8A"/>
<stop offset="0.479303" stop-color="#576265"/>
<stop offset="0.792245" stop-color="#576265"/>
<stop offset="0.878824" stop-color="#757A7B"/>
<stop offset="1" stop-color="#576265"/>
</linearGradient>
<radialGradient id="paint35_radial_3067_3714" cx="0" cy="0" r="1" gradientUnits="userSpaceOnUse" gradientTransform="translate(322.96 73.4338) rotate(34.4348) scale(95.218 162.231)">
<stop stop-color="white"/>
<stop offset="1" stop-color="white" stop-opacity="0"/>
</radialGradient>
<linearGradient id="paint36_linear_3067_3714" x1="25.8601" y1="388.166" x2="385.736" y2="287.971" gradientUnits="userSpaceOnUse">
<stop stop-color="#576265"/>
<stop offset="0.192708" stop-color="#9EA1A1"/>
<stop offset="0.431144" stop-color="#848B8A"/>
<stop offset="0.479303" stop-color="#576265"/>
<stop offset="0.792245" stop-color="#576265"/>
<stop offset="0.878824" stop-color="#757A7B"/>
<stop offset="1" stop-color="#576265"/>
</linearGradient>
<radialGradient id="paint37_radial_3067_3714" cx="0" cy="0" r="1" gradientUnits="userSpaceOnUse" gradientTransform="translate(8.4747 206.409) rotate(33.9724) scale(246.131 416.769)">
<stop stop-color="white"/>
<stop offset="1" stop-color="white" stop-opacity="0"/>
</radialGradient>
<linearGradient id="paint38_linear_3067_3714" x1="303.226" y1="358.438" x2="392.609" y2="354.449" gradientUnits="userSpaceOnUse">
<stop stop-color="#576265"/>
<stop offset="0.192708" stop-color="#9EA1A1"/>
<stop offset="0.431144" stop-color="#848B8A"/>
<stop offset="0.479303" stop-color="#576265"/>
<stop offset="0.792245" stop-color="#576265"/>
<stop offset="0.878824" stop-color="#757A7B"/>
<stop offset="1" stop-color="#576265"/>
</linearGradient>
<radialGradient id="paint39_radial_3067_3714" cx="0" cy="0" r="1" gradientUnits="userSpaceOnUse" gradientTransform="translate(297.826 65.5598) rotate(77.7935) scale(228.228 167.419)">
<stop stop-color="white"/>
<stop offset="1" stop-color="white" stop-opacity="0"/>
</radialGradient>
<linearGradient id="paint40_linear_3067_3714" x1="467.335" y1="39.2034" x2="551.023" y2="15.83" gradientUnits="userSpaceOnUse">
<stop stop-color="#576265"/>
<stop offset="0.192708" stop-color="#9EA1A1"/>
<stop offset="0.431144" stop-color="#848B8A"/>
<stop offset="0.479303" stop-color="#576265"/>
<stop offset="0.792245" stop-color="#576265"/>
<stop offset="0.878824" stop-color="#757A7B"/>
<stop offset="1" stop-color="#576265"/>
</linearGradient>
<radialGradient id="paint41_radial_3067_3714" cx="0" cy="0" r="1" gradientUnits="userSpaceOnUse" gradientTransform="translate(463.291 -2.94702) rotate(33.8869) scale(57.2041 96.7489)">
<stop stop-color="white"/>
<stop offset="1" stop-color="white" stop-opacity="0"/>
</radialGradient>
<linearGradient id="paint42_linear_3067_3714" x1="494.755" y1="51.7921" x2="607.131" y2="20.3153" gradientUnits="userSpaceOnUse">
<stop stop-color="#576265"/>
<stop offset="0.192708" stop-color="#9EA1A1"/>
<stop offset="0.431144" stop-color="#848B8A"/>
<stop offset="0.479303" stop-color="#576265"/>
<stop offset="0.792245" stop-color="#576265"/>
<stop offset="0.878824" stop-color="#757A7B"/>
<stop offset="1" stop-color="#576265"/>
</linearGradient>
<radialGradient id="paint43_radial_3067_3714" cx="0" cy="0" r="1" gradientUnits="userSpaceOnUse" gradientTransform="translate(489.323 -4.66435) rotate(33.8084) scale(76.7744 129.707)">
<stop stop-color="white"/>
<stop offset="1" stop-color="white" stop-opacity="0"/>
</radialGradient>
<linearGradient id="paint44_linear_3067_3714" x1="30.2852" y1="371.916" x2="754.317" y2="203.268" gradientUnits="userSpaceOnUse">
<stop stop-color="#576265"/>
<stop offset="0.192708" stop-color="#9EA1A1"/>
<stop offset="0.431144" stop-color="#848B8A"/>
<stop offset="0.479303" stop-color="#576265"/>
<stop offset="0.792245" stop-color="#576265"/>
<stop offset="0.878824" stop-color="#757A7B"/>
<stop offset="1" stop-color="#576265"/>
</linearGradient>
<radialGradient id="paint45_radial_3067_3714" cx="0" cy="0" r="1" gradientUnits="userSpaceOnUse" gradientTransform="translate(-2.01966 -47.5022) rotate(38.5783) scale(512.834 909.499)">
<stop stop-color="white"/>
<stop offset="1" stop-color="white" stop-opacity="0"/>
</radialGradient>
</defs>
</svg>
