<svg width="547" height="448" viewBox="0 0 547 448" fill="none" xmlns="http://www.w3.org/2000/svg">
<path d="M493.867 26.81C492.354 27.2082 485.346 27.8451 478.258 28.2433C458.668 29.2786 460.26 30.4731 446.722 44.1705C442.024 48.9487 442.9 52.6917 440.59 61.8499C435.016 83.9887 456.119 83.9089 467.428 69.6541C476.825 57.7883 482.797 53.9659 498.486 49.9045C512.979 46.1616 516.961 43.1354 516.961 35.9682C516.961 28.1638 505.972 23.7042 493.867 26.81ZM496.575 44.6488C480.249 48.551 469.259 54.0457 462.65 62.0093C452.217 74.5122 448.474 77.1403 447.917 72.1233C447.598 69.5749 452.138 55.0012 453.89 52.6917L459.783 44.9669C467.985 34.1364 467.428 34.5346 481.444 33.8179C488.133 33.4993 495.221 32.8628 497.132 32.4647C509.555 29.8367 508.44 41.7819 496.575 44.6488Z" fill="#0097B5"/>
<path d="M603.924 36.9243C599.146 30.7127 591.899 20.5194 587.838 14.3874C563.549 -22.0859 545.87 -28.298 501.034 -15.9544C483.116 -11.0169 480.887 -11.1759 452.456 -20.8119C415.983 -33.1554 374.174 -7.9906 383.571 26.014C389.464 47.4361 389.544 47.1179 383.651 67.7436C375.448 96.7311 376.006 109.075 386.438 128.665C417.815 187.516 492.593 185.286 513.059 125.001C519.43 106.287 521.819 101.509 527.792 95.6162C538.304 85.2635 542.047 85.0246 554.868 94.4217C573.025 107.721 589.351 111.145 605.039 104.934C629.169 95.3775 628.85 69.4158 603.924 36.9243ZM564.823 90.2011C537.348 70.531 514.254 82.0779 501.114 122.135C493.071 146.663 488.771 152.317 471.967 160.758C443.219 175.172 406.984 153.751 393.366 114.331C388.349 99.6777 389.385 87.095 397.906 60.8151C402.047 48.0733 402.206 45.0469 399.419 34.6145C395.198 18.767 394.959 16.9358 396.233 10.8038C401.808 -15.7946 424.265 -22.2451 453.651 -12.6888C479.692 -4.16776 486.063 -4.08844 512.582 -11.415C542.047 -19.6175 554.152 -14.6797 572.866 13.1929C581.308 25.7754 586.006 32.3055 594.129 42.6582C626.859 84.4672 605.358 119.268 564.823 90.2011Z" fill="#0097B5"/>
<path d="M551.604 25.5358C531.296 9.76783 535.437 0.529734 501.035 2.91882C484.789 4.03372 491.956 7.37843 460.42 10.0861C437.485 12.077 418.213 16.6959 418.213 39.9496C418.213 46.5594 417.815 49.984 416.541 54.2047C406.984 85.661 420.921 121.019 442.741 120.94C456.916 120.86 465.358 114.091 477.144 93.2264C484.311 80.5643 494.266 70.8485 503.663 67.9816C505.096 67.5834 513.936 66.9462 523.333 66.6277C550.489 65.672 558.771 61.3715 562.753 46.161C564.903 38.0382 562.912 34.2957 551.604 25.5358ZM518.953 63.3629C491.877 63.3629 482.957 69.1759 469.021 95.5354C444.334 142.122 408.975 108.994 427.371 56.3551C430.079 48.6304 430.238 47.8335 429.681 41.5423C428.327 25.0576 438.759 17.9703 468.065 15.1831C484.63 13.5904 488.611 12.1569 498.646 9.21037C503.902 7.61765 512.98 7.21963 517.758 8.17526C522.218 9.05126 531.296 20.9964 544.118 30.9509C566.018 47.9133 554.072 63.2833 518.953 63.3629Z" fill="#0097B5"/>
<path d="M46.6403 238.55C47.1692 244.535 40.6274 254.018 36.4528 256.278C36.4341 256.538 36.4067 256.818 36.3702 257.117C35.9536 260.523 34.9662 272.8 34.9118 274.337C34.8302 276.643 34.6617 279.004 34.4732 281.359C35.4495 278.984 36.7054 276.712 37.9954 274.45C41.3713 268.532 48.1669 265.228 56.5021 265.805C61.1137 266.124 68.031 269.36 65.6127 274.45C64.5688 276.648 61.8106 278.537 59.5114 280.113C59.0694 280.415 58.6443 280.707 58.2517 280.986C51.6645 285.676 42.1681 290.051 33.7065 291.879C33.3392 300.15 35.2995 308.168 36.3702 316.34C37.0623 320.663 37.7459 324.934 38.6765 329.161C40.6387 320.199 50.2421 305.709 57.8889 304.624C61.6177 304.095 65.6623 304.24 67.5542 307.619C69.0175 310.233 68.194 314.005 67.0421 316.547C65.0272 320.993 61.2212 324.836 57.2274 327.998C52.3213 331.884 46.6537 333.963 40.095 334.802C40.434 335.984 40.8017 337.162 41.2038 338.337C43.1746 344.096 45.8023 349.645 48.4719 355.282C49.1712 356.759 49.8735 358.242 50.5675 359.736C50.9033 360.459 51.2358 361.183 51.5697 361.907C52.9659 365.023 54.4326 368.131 56.0815 371.158C55.2395 364.911 57.2845 355.309 63.2019 350.6C68.5033 346.382 76.6437 348.659 76.6437 354.857C76.6437 363.708 65.9577 370.987 58.5742 375.497C61.9884 381.465 64.9826 387.473 67.774 393.698C68.7119 395.79 69.8273 398.059 70.9775 400.4C71.3753 401.208 71.7723 402.017 72.1667 402.827C72.2625 401.945 72.4288 401.024 72.5809 400.183C73.2879 396.271 73.0264 392.075 75.1713 388.477C76.9473 385.498 79.9213 382.627 82.9164 380.585C85.3932 378.897 89.1737 377.969 92.1763 379.079C96.078 380.52 97.0472 384.494 96.9983 387.818C96.8673 396.722 82.6739 407.128 75.1075 409.143C76.1089 411.451 76.9756 413.701 77.5734 415.793C80.4453 425.844 83.8134 437.653 85.6195 446.499C85.6195 447.604 75.6349 448.979 75.0968 446.989C74.9331 445.854 74.7789 444.788 74.6337 443.784C73.3903 435.187 72.801 431.113 72.5265 426.898C72.0844 420.111 69.3391 410.484 66.7339 403.077C60.7884 403.115 54.9469 403.643 49.0345 404.261C42.0626 404.99 26.6848 406.329 25.2659 397.311C24.7872 394.268 25.7935 390.992 27.9756 388.609C31.3449 384.93 34.636 383.377 39.9666 383.957C44.8496 384.488 51.7007 388.335 55.7341 390.79C57.2128 391.69 58.6125 392.72 60.0132 393.75C61.421 394.785 62.8297 395.822 64.3201 396.728C64.0656 396.115 63.823 395.552 63.5958 395.045C60.4981 388.137 57.1594 381.527 53.2748 374.954C51.3333 371.67 49.7058 368.264 48.1489 364.899C43.7494 365.059 35.8162 365.24 31.496 364.689C31.2266 364.655 30.9419 364.619 30.6439 364.582C24.0938 363.765 11.1205 362.148 13.1255 354.085C13.6489 351.98 15.1818 350.123 17.1368 348.867C19.7811 347.17 22.6107 347.502 25.6242 347.856C26.0488 347.906 26.4769 347.956 26.9088 348.001C30.5022 348.376 34.1718 349.106 37.3208 350.751C39.5717 351.927 41.56 353.438 43.5142 354.986C41.1146 349.903 38.7345 344.722 36.9109 339.393C35.9608 336.617 35.1912 333.797 34.5364 330.958C32.8965 331.356 28.0604 330.283 23.8246 329.344C22.2882 329.003 20.8306 328.68 19.6334 328.451C12.5164 327.088 1.82124 323.725 1.75364 315.907C1.73401 313.637 2.27019 308.359 5.63683 307.864C8.77454 307.402 12.5365 308.292 15.3875 309.371C23.5753 312.468 30.32 320.326 33.3126 325.006C32.7881 322.165 32.332 319.322 31.8796 316.502C31.3187 313.005 30.7633 309.544 30.0899 306.163C29.0062 300.722 28.9651 295.486 29.2788 290.165C29.3834 288.39 29.6052 286.508 29.8774 284.604C28.0783 285.372 24.5719 285.563 22.9584 285.651C22.7875 285.661 22.6378 285.669 22.5137 285.676C19.7802 285.843 16.7231 285.445 14.1072 284.734C6.19894 282.586 1.95335 275.797 0.196007 268.875C-0.401833 266.521 0.350548 262.421 2.69234 260.833C4.00733 259.941 5.64685 259.971 7.2183 260C7.30297 260.001 7.38744 260.003 7.47166 260.004C15.8218 260.142 22.8422 268.979 28.1195 275.622C29.0622 276.809 29.9494 277.926 30.7785 278.911C31.3105 275.673 31.7937 272.622 31.8796 270.195C31.9798 267.363 32.9667 260.458 33.926 256.353C32.1403 254.353 30.9509 245.301 30.9509 240.134C30.9509 239.763 30.9486 239.395 30.9462 239.029C30.9174 234.593 30.8912 230.55 35.1654 227.426C39.2585 224.433 41.1241 226.577 43.5525 229.93C45.3126 232.361 46.3893 235.709 46.6403 238.55Z" fill="#192F51"/>
</svg>
