<svg width="524" height="394" viewBox="0 0 524 394" fill="none" xmlns="http://www.w3.org/2000/svg">
<path d="M43.3184 372.669C45.398 373.542 47.512 374.277 49.6606 374.886L118.885 305.662C118.276 303.513 117.541 301.399 116.668 299.319L43.3184 372.669Z" fill="#FFC263"/>
<path d="M34.3691 367.923C36.1385 369.083 37.9539 370.118 39.8037 371.048L115.049 295.803C114.118 293.942 113.084 292.127 111.923 290.369L34.3691 367.923Z" fill="#FFC263"/>
<path d="M26.7051 361.868C28.1987 363.27 29.7498 364.58 31.3468 365.786L109.786 287.347C108.58 285.75 107.27 284.199 105.868 282.705L26.7051 361.868Z" fill="#FFC263"/>
<path d="M46.9045 267.964C39.0342 270.641 31.6464 275.111 25.3731 281.373C19.0998 287.646 14.6419 295.034 11.9648 302.904L46.9045 267.964Z" fill="#FFC263"/>
<path d="M119.933 332.053C120.564 328.87 120.921 325.653 121.001 322.425L66.4258 377C69.6543 376.92 72.8829 376.563 76.054 375.932L119.933 332.053Z" fill="#FFC263"/>
<path d="M53.8105 375.897C56.3153 376.402 58.8315 376.736 61.3706 376.896L120.898 317.369C120.737 314.83 120.404 312.302 119.898 309.809L53.8105 375.897Z" fill="#FFC263"/>
<path d="M14.9512 346.197C15.8818 348.058 16.9159 349.873 18.0763 351.631L95.6307 274.077C93.8613 272.916 92.0459 271.882 90.1961 270.952L14.9512 346.197Z" fill="#FFC263"/>
<path d="M10.0685 309.947C9.43659 313.13 9.08043 316.347 9 319.575L63.5753 265C60.3467 265.08 57.1182 265.437 53.9471 266.069L10.0685 309.947Z" fill="#FFC263"/>
<path d="M83.0957 374.036C90.966 371.359 98.3538 366.889 104.627 360.628C110.9 354.354 115.358 346.967 118.035 339.096L83.0957 374.036Z" fill="#FFC263"/>
<path d="M11.1133 336.327C11.7222 338.476 12.4575 340.59 13.3308 342.669L86.6799 269.32C84.6003 268.447 82.4863 267.711 80.3377 267.103L11.1133 336.327Z" fill="#FFC263"/>
<path d="M9.10352 324.63C9.26437 327.169 9.59756 329.697 10.1031 332.19L76.1909 266.103C73.6862 265.597 71.17 265.264 68.6308 265.103L9.10352 324.63Z" fill="#FFC263"/>
<path d="M20.2129 354.653C21.4193 356.25 22.7291 357.801 24.1308 359.295L103.305 280.121C101.812 278.719 100.26 277.409 98.6635 276.203L20.2129 354.653Z" fill="#FFC263"/>
<path d="M118.75 345.652C118.925 345.954 119.095 346.259 119.26 346.567C118.96 346.371 118.759 346.035 118.75 345.652Z" fill="white"/>
<path d="M112.59 337.885C113.115 338.377 113.623 338.885 114.115 339.41C113.925 339.761 113.553 340 113.125 340C112.504 340 112 339.496 112 338.875C112 338.447 112.239 338.075 112.59 337.885Z" fill="white"/>
<path d="M105.433 332.74C105.741 332.905 106.046 333.075 106.348 333.25C105.965 333.241 105.629 333.04 105.433 332.74Z" fill="white"/>
<path d="M72.6518 333.25C72.9539 333.075 73.2591 332.905 73.5671 332.74C73.3708 333.04 73.035 333.241 72.6518 333.25Z" fill="white"/>
<path d="M64.8849 339.41C65.3769 338.885 65.8854 338.377 66.4096 337.885C66.7612 338.075 67 338.447 67 338.875C67 339.496 66.4963 340 65.875 340C65.4472 340 65.0751 339.761 64.8849 339.41Z" fill="white"/>
<path d="M59.7401 346.567C59.9054 346.259 60.0752 345.954 60.2497 345.652C60.2407 346.035 60.0402 346.371 59.7401 346.567Z" fill="white"/>
<path d="M119.26 378.433C119.095 378.741 118.925 379.046 118.75 379.348C118.759 378.965 118.96 378.629 119.26 378.433Z" fill="white"/>
<path d="M114.115 385.59C113.925 385.239 113.553 385 113.125 385C112.504 385 112 385.504 112 386.125C112 386.553 112.239 386.925 112.59 387.115C113.115 386.623 113.623 386.115 114.115 385.59Z" fill="white"/>
<path d="M106.348 391.75C105.965 391.759 105.629 391.96 105.433 392.26C105.741 392.095 106.046 391.925 106.348 391.75Z" fill="white"/>
<path d="M73.5671 392.26C73.3708 391.96 73.035 391.759 72.6518 391.75C72.9539 391.925 73.2591 392.095 73.5671 392.26Z" fill="white"/>
<path d="M66.4096 387.115C66.7612 386.925 67 386.553 67 386.125C67 385.504 66.4963 385 65.875 385C65.4472 385 65.0751 385.239 64.8849 385.59C65.3769 386.115 65.8854 386.623 66.4096 387.115Z" fill="white"/>
<path d="M60.2497 379.348C60.2407 378.965 60.0402 378.629 59.7401 378.433C59.9054 378.741 60.0752 379.046 60.2497 379.348Z" fill="white"/>
<path d="M80.5 332.125C80.5 332.746 79.9963 333.25 79.375 333.25C78.7537 333.25 78.25 332.746 78.25 332.125C78.25 331.504 78.7537 331 79.375 331C79.9963 331 80.5 331.504 80.5 332.125Z" fill="white"/>
<path d="M87.25 332.125C87.25 332.746 86.7463 333.25 86.125 333.25C85.5037 333.25 85 332.746 85 332.125C85 331.504 85.5037 331 86.125 331C86.7463 331 87.25 331.504 87.25 332.125Z" fill="white"/>
<path d="M94 332.125C94 332.746 93.4963 333.25 92.875 333.25C92.2537 333.25 91.75 332.746 91.75 332.125C91.75 331.504 92.2537 331 92.875 331C93.4963 331 94 331.504 94 332.125Z" fill="white"/>
<path d="M100.75 332.125C100.75 332.746 100.246 333.25 99.625 333.25C99.0037 333.25 98.5 332.746 98.5 332.125C98.5 331.504 99.0037 331 99.625 331C100.246 331 100.75 331.504 100.75 332.125Z" fill="white"/>
<path d="M73.75 338.875C73.75 339.496 73.2463 340 72.625 340C72.0037 340 71.5 339.496 71.5 338.875C71.5 338.254 72.0037 337.75 72.625 337.75C73.2463 337.75 73.75 338.254 73.75 338.875Z" fill="white"/>
<path d="M80.5 338.875C80.5 339.496 79.9963 340 79.375 340C78.7537 340 78.25 339.496 78.25 338.875C78.25 338.254 78.7537 337.75 79.375 337.75C79.9963 337.75 80.5 338.254 80.5 338.875Z" fill="white"/>
<path d="M87.25 338.875C87.25 339.496 86.7463 340 86.125 340C85.5037 340 85 339.496 85 338.875C85 338.254 85.5037 337.75 86.125 337.75C86.7463 337.75 87.25 338.254 87.25 338.875Z" fill="white"/>
<path d="M94 338.875C94 339.496 93.4963 340 92.875 340C92.2537 340 91.75 339.496 91.75 338.875C91.75 338.254 92.2537 337.75 92.875 337.75C93.4963 337.75 94 338.254 94 338.875Z" fill="white"/>
<path d="M100.75 338.875C100.75 339.496 100.246 340 99.625 340C99.0037 340 98.5 339.496 98.5 338.875C98.5 338.254 99.0037 337.75 99.625 337.75C100.246 337.75 100.75 338.254 100.75 338.875Z" fill="white"/>
<path d="M107.5 338.875C107.5 339.496 106.996 340 106.375 340C105.754 340 105.25 339.496 105.25 338.875C105.25 338.254 105.754 337.75 106.375 337.75C106.996 337.75 107.5 338.254 107.5 338.875Z" fill="white"/>
<path d="M67 345.625C67 346.246 66.4963 346.75 65.875 346.75C65.2537 346.75 64.75 346.246 64.75 345.625C64.75 345.004 65.2537 344.5 65.875 344.5C66.4963 344.5 67 345.004 67 345.625Z" fill="white"/>
<path d="M73.75 345.625C73.75 346.246 73.2463 346.75 72.625 346.75C72.0037 346.75 71.5 346.246 71.5 345.625C71.5 345.004 72.0037 344.5 72.625 344.5C73.2463 344.5 73.75 345.004 73.75 345.625Z" fill="white"/>
<path d="M80.5 345.625C80.5 346.246 79.9963 346.75 79.375 346.75C78.7537 346.75 78.25 346.246 78.25 345.625C78.25 345.004 78.7537 344.5 79.375 344.5C79.9963 344.5 80.5 345.004 80.5 345.625Z" fill="white"/>
<path d="M87.25 345.625C87.25 346.246 86.7463 346.75 86.125 346.75C85.5037 346.75 85 346.246 85 345.625C85 345.004 85.5037 344.5 86.125 344.5C86.7463 344.5 87.25 345.004 87.25 345.625Z" fill="white"/>
<path d="M94 345.625C94 346.246 93.4963 346.75 92.875 346.75C92.2537 346.75 91.75 346.246 91.75 345.625C91.75 345.004 92.2537 344.5 92.875 344.5C93.4963 344.5 94 345.004 94 345.625Z" fill="white"/>
<path d="M100.75 345.625C100.75 346.246 100.246 346.75 99.625 346.75C99.0037 346.75 98.5 346.246 98.5 345.625C98.5 345.004 99.0037 344.5 99.625 344.5C100.246 344.5 100.75 345.004 100.75 345.625Z" fill="white"/>
<path d="M107.5 345.625C107.5 346.246 106.996 346.75 106.375 346.75C105.754 346.75 105.25 346.246 105.25 345.625C105.25 345.004 105.754 344.5 106.375 344.5C106.996 344.5 107.5 345.004 107.5 345.625Z" fill="white"/>
<path d="M114.25 345.625C114.25 346.246 113.746 346.75 113.125 346.75C112.504 346.75 112 346.246 112 345.625C112 345.004 112.504 344.5 113.125 344.5C113.746 344.5 114.25 345.004 114.25 345.625Z" fill="white"/>
<path d="M60.25 352.375C60.25 352.996 59.7463 353.5 59.125 353.5C58.5037 353.5 58 352.996 58 352.375C58 351.754 58.5037 351.25 59.125 351.25C59.7463 351.25 60.25 351.754 60.25 352.375Z" fill="white"/>
<path d="M67 352.375C67 352.996 66.4963 353.5 65.875 353.5C65.2537 353.5 64.75 352.996 64.75 352.375C64.75 351.754 65.2537 351.25 65.875 351.25C66.4963 351.25 67 351.754 67 352.375Z" fill="white"/>
<path d="M73.75 352.375C73.75 352.996 73.2463 353.5 72.625 353.5C72.0037 353.5 71.5 352.996 71.5 352.375C71.5 351.754 72.0037 351.25 72.625 351.25C73.2463 351.25 73.75 351.754 73.75 352.375Z" fill="white"/>
<path d="M80.5 352.375C80.5 352.996 79.9963 353.5 79.375 353.5C78.7537 353.5 78.25 352.996 78.25 352.375C78.25 351.754 78.7537 351.25 79.375 351.25C79.9963 351.25 80.5 351.754 80.5 352.375Z" fill="white"/>
<path d="M87.25 352.375C87.25 352.996 86.7463 353.5 86.125 353.5C85.5037 353.5 85 352.996 85 352.375C85 351.754 85.5037 351.25 86.125 351.25C86.7463 351.25 87.25 351.754 87.25 352.375Z" fill="white"/>
<path d="M94 352.375C94 352.996 93.4963 353.5 92.875 353.5C92.2537 353.5 91.75 352.996 91.75 352.375C91.75 351.754 92.2537 351.25 92.875 351.25C93.4963 351.25 94 351.754 94 352.375Z" fill="white"/>
<path d="M100.75 352.375C100.75 352.996 100.246 353.5 99.625 353.5C99.0037 353.5 98.5 352.996 98.5 352.375C98.5 351.754 99.0037 351.25 99.625 351.25C100.246 351.25 100.75 351.754 100.75 352.375Z" fill="white"/>
<path d="M107.5 352.375C107.5 352.996 106.996 353.5 106.375 353.5C105.754 353.5 105.25 352.996 105.25 352.375C105.25 351.754 105.754 351.25 106.375 351.25C106.996 351.25 107.5 351.754 107.5 352.375Z" fill="white"/>
<path d="M114.25 352.375C114.25 352.996 113.746 353.5 113.125 353.5C112.504 353.5 112 352.996 112 352.375C112 351.754 112.504 351.25 113.125 351.25C113.746 351.25 114.25 351.754 114.25 352.375Z" fill="white"/>
<path d="M121 352.375C121 352.996 120.496 353.5 119.875 353.5C119.254 353.5 118.75 352.996 118.75 352.375C118.75 351.754 119.254 351.25 119.875 351.25C120.496 351.25 121 351.754 121 352.375Z" fill="white"/>
<path d="M60.25 359.125C60.25 359.746 59.7463 360.25 59.125 360.25C58.5037 360.25 58 359.746 58 359.125C58 358.504 58.5037 358 59.125 358C59.7463 358 60.25 358.504 60.25 359.125Z" fill="white"/>
<path d="M67 359.125C67 359.746 66.4963 360.25 65.875 360.25C65.2537 360.25 64.75 359.746 64.75 359.125C64.75 358.504 65.2537 358 65.875 358C66.4963 358 67 358.504 67 359.125Z" fill="white"/>
<path d="M73.75 359.125C73.75 359.746 73.2463 360.25 72.625 360.25C72.0037 360.25 71.5 359.746 71.5 359.125C71.5 358.504 72.0037 358 72.625 358C73.2463 358 73.75 358.504 73.75 359.125Z" fill="white"/>
<path d="M80.5 359.125C80.5 359.746 79.9963 360.25 79.375 360.25C78.7537 360.25 78.25 359.746 78.25 359.125C78.25 358.504 78.7537 358 79.375 358C79.9963 358 80.5 358.504 80.5 359.125Z" fill="white"/>
<path d="M87.25 359.125C87.25 359.746 86.7463 360.25 86.125 360.25C85.5037 360.25 85 359.746 85 359.125C85 358.504 85.5037 358 86.125 358C86.7463 358 87.25 358.504 87.25 359.125Z" fill="white"/>
<path d="M94 359.125C94 359.746 93.4963 360.25 92.875 360.25C92.2537 360.25 91.75 359.746 91.75 359.125C91.75 358.504 92.2537 358 92.875 358C93.4963 358 94 358.504 94 359.125Z" fill="white"/>
<path d="M100.75 359.125C100.75 359.746 100.246 360.25 99.625 360.25C99.0037 360.25 98.5 359.746 98.5 359.125C98.5 358.504 99.0037 358 99.625 358C100.246 358 100.75 358.504 100.75 359.125Z" fill="white"/>
<path d="M107.5 359.125C107.5 359.746 106.996 360.25 106.375 360.25C105.754 360.25 105.25 359.746 105.25 359.125C105.25 358.504 105.754 358 106.375 358C106.996 358 107.5 358.504 107.5 359.125Z" fill="white"/>
<path d="M114.25 359.125C114.25 359.746 113.746 360.25 113.125 360.25C112.504 360.25 112 359.746 112 359.125C112 358.504 112.504 358 113.125 358C113.746 358 114.25 358.504 114.25 359.125Z" fill="white"/>
<path d="M121 359.125C121 359.746 120.496 360.25 119.875 360.25C119.254 360.25 118.75 359.746 118.75 359.125C118.75 358.504 119.254 358 119.875 358C120.496 358 121 358.504 121 359.125Z" fill="white"/>
<path d="M60.25 365.875C60.25 366.496 59.7463 367 59.125 367C58.5037 367 58 366.496 58 365.875C58 365.254 58.5037 364.75 59.125 364.75C59.7463 364.75 60.25 365.254 60.25 365.875Z" fill="white"/>
<path d="M67 365.875C67 366.496 66.4963 367 65.875 367C65.2537 367 64.75 366.496 64.75 365.875C64.75 365.254 65.2537 364.75 65.875 364.75C66.4963 364.75 67 365.254 67 365.875Z" fill="white"/>
<path d="M73.75 365.875C73.75 366.496 73.2463 367 72.625 367C72.0037 367 71.5 366.496 71.5 365.875C71.5 365.254 72.0037 364.75 72.625 364.75C73.2463 364.75 73.75 365.254 73.75 365.875Z" fill="white"/>
<path d="M80.5 365.875C80.5 366.496 79.9963 367 79.375 367C78.7537 367 78.25 366.496 78.25 365.875C78.25 365.254 78.7537 364.75 79.375 364.75C79.9963 364.75 80.5 365.254 80.5 365.875Z" fill="white"/>
<path d="M87.25 365.875C87.25 366.496 86.7463 367 86.125 367C85.5037 367 85 366.496 85 365.875C85 365.254 85.5037 364.75 86.125 364.75C86.7463 364.75 87.25 365.254 87.25 365.875Z" fill="white"/>
<path d="M94 365.875C94 366.496 93.4963 367 92.875 367C92.2537 367 91.75 366.496 91.75 365.875C91.75 365.254 92.2537 364.75 92.875 364.75C93.4963 364.75 94 365.254 94 365.875Z" fill="white"/>
<path d="M100.75 365.875C100.75 366.496 100.246 367 99.625 367C99.0037 367 98.5 366.496 98.5 365.875C98.5 365.254 99.0037 364.75 99.625 364.75C100.246 364.75 100.75 365.254 100.75 365.875Z" fill="white"/>
<path d="M107.5 365.875C107.5 366.496 106.996 367 106.375 367C105.754 367 105.25 366.496 105.25 365.875C105.25 365.254 105.754 364.75 106.375 364.75C106.996 364.75 107.5 365.254 107.5 365.875Z" fill="white"/>
<path d="M114.25 365.875C114.25 366.496 113.746 367 113.125 367C112.504 367 112 366.496 112 365.875C112 365.254 112.504 364.75 113.125 364.75C113.746 364.75 114.25 365.254 114.25 365.875Z" fill="white"/>
<path d="M121 365.875C121 366.496 120.496 367 119.875 367C119.254 367 118.75 366.496 118.75 365.875C118.75 365.254 119.254 364.75 119.875 364.75C120.496 364.75 121 365.254 121 365.875Z" fill="white"/>
<path d="M60.25 372.625C60.25 373.246 59.7463 373.75 59.125 373.75C58.5037 373.75 58 373.246 58 372.625C58 372.004 58.5037 371.5 59.125 371.5C59.7463 371.5 60.25 372.004 60.25 372.625Z" fill="white"/>
<path d="M67 372.625C67 373.246 66.4963 373.75 65.875 373.75C65.2537 373.75 64.75 373.246 64.75 372.625C64.75 372.004 65.2537 371.5 65.875 371.5C66.4963 371.5 67 372.004 67 372.625Z" fill="white"/>
<path d="M73.75 372.625C73.75 373.246 73.2463 373.75 72.625 373.75C72.0037 373.75 71.5 373.246 71.5 372.625C71.5 372.004 72.0037 371.5 72.625 371.5C73.2463 371.5 73.75 372.004 73.75 372.625Z" fill="white"/>
<path d="M80.5 372.625C80.5 373.246 79.9963 373.75 79.375 373.75C78.7537 373.75 78.25 373.246 78.25 372.625C78.25 372.004 78.7537 371.5 79.375 371.5C79.9963 371.5 80.5 372.004 80.5 372.625Z" fill="white"/>
<path d="M87.25 372.625C87.25 373.246 86.7463 373.75 86.125 373.75C85.5037 373.75 85 373.246 85 372.625C85 372.004 85.5037 371.5 86.125 371.5C86.7463 371.5 87.25 372.004 87.25 372.625Z" fill="white"/>
<path d="M94 372.625C94 373.246 93.4963 373.75 92.875 373.75C92.2537 373.75 91.75 373.246 91.75 372.625C91.75 372.004 92.2537 371.5 92.875 371.5C93.4963 371.5 94 372.004 94 372.625Z" fill="white"/>
<path d="M100.75 372.625C100.75 373.246 100.246 373.75 99.625 373.75C99.0037 373.75 98.5 373.246 98.5 372.625C98.5 372.004 99.0037 371.5 99.625 371.5C100.246 371.5 100.75 372.004 100.75 372.625Z" fill="white"/>
<path d="M107.5 372.625C107.5 373.246 106.996 373.75 106.375 373.75C105.754 373.75 105.25 373.246 105.25 372.625C105.25 372.004 105.754 371.5 106.375 371.5C106.996 371.5 107.5 372.004 107.5 372.625Z" fill="white"/>
<path d="M114.25 372.625C114.25 373.246 113.746 373.75 113.125 373.75C112.504 373.75 112 373.246 112 372.625C112 372.004 112.504 371.5 113.125 371.5C113.746 371.5 114.25 372.004 114.25 372.625Z" fill="white"/>
<path d="M121 372.625C121 373.246 120.496 373.75 119.875 373.75C119.254 373.75 118.75 373.246 118.75 372.625C118.75 372.004 119.254 371.5 119.875 371.5C120.496 371.5 121 372.004 121 372.625Z" fill="white"/>
<path d="M67 379.375C67 379.996 66.4963 380.5 65.875 380.5C65.2537 380.5 64.75 379.996 64.75 379.375C64.75 378.754 65.2537 378.25 65.875 378.25C66.4963 378.25 67 378.754 67 379.375Z" fill="white"/>
<path d="M73.75 379.375C73.75 379.996 73.2463 380.5 72.625 380.5C72.0037 380.5 71.5 379.996 71.5 379.375C71.5 378.754 72.0037 378.25 72.625 378.25C73.2463 378.25 73.75 378.754 73.75 379.375Z" fill="white"/>
<path d="M80.5 379.375C80.5 379.996 79.9963 380.5 79.375 380.5C78.7537 380.5 78.25 379.996 78.25 379.375C78.25 378.754 78.7537 378.25 79.375 378.25C79.9963 378.25 80.5 378.754 80.5 379.375Z" fill="white"/>
<path d="M87.25 379.375C87.25 379.996 86.7463 380.5 86.125 380.5C85.5037 380.5 85 379.996 85 379.375C85 378.754 85.5037 378.25 86.125 378.25C86.7463 378.25 87.25 378.754 87.25 379.375Z" fill="white"/>
<path d="M94 379.375C94 379.996 93.4963 380.5 92.875 380.5C92.2537 380.5 91.75 379.996 91.75 379.375C91.75 378.754 92.2537 378.25 92.875 378.25C93.4963 378.25 94 378.754 94 379.375Z" fill="white"/>
<path d="M100.75 379.375C100.75 379.996 100.246 380.5 99.625 380.5C99.0037 380.5 98.5 379.996 98.5 379.375C98.5 378.754 99.0037 378.25 99.625 378.25C100.246 378.25 100.75 378.754 100.75 379.375Z" fill="white"/>
<path d="M107.5 379.375C107.5 379.996 106.996 380.5 106.375 380.5C105.754 380.5 105.25 379.996 105.25 379.375C105.25 378.754 105.754 378.25 106.375 378.25C106.996 378.25 107.5 378.754 107.5 379.375Z" fill="white"/>
<path d="M114.25 379.375C114.25 379.996 113.746 380.5 113.125 380.5C112.504 380.5 112 379.996 112 379.375C112 378.754 112.504 378.25 113.125 378.25C113.746 378.25 114.25 378.754 114.25 379.375Z" fill="white"/>
<path d="M73.75 386.125C73.75 386.746 73.2463 387.25 72.625 387.25C72.0037 387.25 71.5 386.746 71.5 386.125C71.5 385.504 72.0037 385 72.625 385C73.2463 385 73.75 385.504 73.75 386.125Z" fill="white"/>
<path d="M80.5 386.125C80.5 386.746 79.9963 387.25 79.375 387.25C78.7537 387.25 78.25 386.746 78.25 386.125C78.25 385.504 78.7537 385 79.375 385C79.9963 385 80.5 385.504 80.5 386.125Z" fill="white"/>
<path d="M87.25 386.125C87.25 386.746 86.7463 387.25 86.125 387.25C85.5037 387.25 85 386.746 85 386.125C85 385.504 85.5037 385 86.125 385C86.7463 385 87.25 385.504 87.25 386.125Z" fill="white"/>
<path d="M94 386.125C94 386.746 93.4963 387.25 92.875 387.25C92.2537 387.25 91.75 386.746 91.75 386.125C91.75 385.504 92.2537 385 92.875 385C93.4963 385 94 385.504 94 386.125Z" fill="white"/>
<path d="M100.75 386.125C100.75 386.746 100.246 387.25 99.625 387.25C99.0037 387.25 98.5 386.746 98.5 386.125C98.5 385.504 99.0037 385 99.625 385C100.246 385 100.75 385.504 100.75 386.125Z" fill="white"/>
<path d="M107.5 386.125C107.5 386.746 106.996 387.25 106.375 387.25C105.754 387.25 105.25 386.746 105.25 386.125C105.25 385.504 105.754 385 106.375 385C106.996 385 107.5 385.504 107.5 386.125Z" fill="white"/>
<path d="M80.5 392.875C80.5 393.496 79.9963 394 79.375 394C78.7537 394 78.25 393.496 78.25 392.875C78.25 392.254 78.7537 391.75 79.375 391.75C79.9963 391.75 80.5 392.254 80.5 392.875Z" fill="white"/>
<path d="M87.25 392.875C87.25 393.496 86.7463 394 86.125 394C85.5037 394 85 393.496 85 392.875C85 392.254 85.5037 391.75 86.125 391.75C86.7463 391.75 87.25 392.254 87.25 392.875Z" fill="white"/>
<path d="M94 392.875C94 393.496 93.4963 394 92.875 394C92.2537 394 91.75 393.496 91.75 392.875C91.75 392.254 92.2537 391.75 92.875 391.75C93.4963 391.75 94 392.254 94 392.875Z" fill="white"/>
<path d="M100.75 392.875C100.75 393.496 100.246 394 99.625 394C99.0037 394 98.5 393.496 98.5 392.875C98.5 392.254 99.0037 391.75 99.625 391.75C100.246 391.75 100.75 392.254 100.75 392.875Z" fill="white"/>
<path d="M495.812 45.2503L495.366 44.9094C501.297 37.1228 504.432 27.8208 504.432 18.0049C504.432 2.79864 496.782 -11.1911 483.967 -19.4182L484.271 -19.8901C497.249 -11.5634 504.993 2.60463 504.993 18.0049C504.993 27.9414 501.816 37.364 495.812 45.2503Z" fill="#649B95"/>
<path d="M460 63C435.188 63 415 42.8124 415 18C415 -6.8124 435.188 -27 460 -27V-26.4389C435.497 -26.4389 415.566 -6.50304 415.566 17.9948C415.566 42.4978 435.502 62.4285 460 62.4285C467.404 62.4285 474.734 60.5722 481.194 57.0591L481.462 57.552C474.918 61.1228 467.493 63 460 63Z" fill="#649B95"/>
<path d="M438.705 52.6388C426.582 45.172 419.346 32.2205 419.346 18H420.473C420.473 31.8272 427.51 44.4169 439.297 51.6792L438.705 52.6388Z" fill="#649B95"/>
<path d="M460 58.6583C455.543 58.6583 451.165 57.94 446.98 56.5295L447.342 55.465C451.411 56.8388 455.669 57.5362 460.005 57.5362C480.366 57.5362 497.276 42.2828 499.327 22.0532L500.449 22.1686C498.33 42.9644 480.943 58.6583 460 58.6583Z" fill="#649B95"/>
<path d="M499.023 11.6868C497.55 2.51589 492.841 -5.88948 485.757 -11.9772C478.6 -18.1331 469.45 -21.5205 460.001 -21.5205C452.372 -21.5205 444.968 -19.3444 438.586 -15.223C431.151 -10.4199 425.478 -3.18383 422.609 5.15339L421.545 4.78635C424.492 -3.78683 430.328 -11.2274 437.973 -16.1668C444.538 -20.4036 452.151 -22.6426 459.996 -22.6426C469.717 -22.6426 479.124 -19.1556 486.486 -12.8267C493.769 -6.56591 498.614 2.08068 500.13 11.5138L499.023 11.6868Z" fill="#649B95"/>
<path d="M460.001 47.3638C443.808 47.3638 430.637 34.1921 430.637 18C430.637 11.4456 432.75 5.24776 436.74 0.0776367L437.632 0.764538C433.793 5.74065 431.764 11.6973 431.764 18C431.764 33.5681 444.432 46.2365 460.001 46.2365C462.764 46.2365 465.496 45.8379 468.112 45.0514L468.437 46.1316C465.711 46.9548 462.869 47.3638 460.001 47.3638Z" fill="#649B95"/>
<path d="M479.831 39.656L479.07 38.8275C484.896 33.4896 488.236 25.9022 488.236 18.0054C488.236 12.4473 486.621 7.06739 483.569 2.44783L484.508 1.8291C487.685 6.63218 489.363 12.227 489.363 18.0106C489.358 26.2168 485.887 34.1083 479.831 39.656Z" fill="#649B95"/>
<path d="M459.999 42.3195C456.045 42.3195 452.118 41.3495 448.646 39.5142L448.909 39.0161C452.301 40.8094 456.134 41.7585 459.993 41.7585C470.654 41.7585 480.071 34.5906 482.897 24.3237L483.437 24.4758C480.553 34.9838 470.911 42.3195 459.999 42.3195Z" fill="#649B95"/>
<path d="M442.808 35.2038C438.214 30.6105 435.682 24.5018 435.682 18.0051C435.682 4.59734 446.588 -6.31445 460.001 -6.31445C473.409 -6.31445 484.321 4.59734 484.321 18.0051H483.76C483.76 4.90671 473.105 -5.74816 460.006 -5.74816C446.908 -5.74816 436.253 4.90671 436.253 18.0051C436.253 24.3497 438.723 30.3169 443.217 34.8053L442.808 35.2038Z" fill="#649B95"/>
<path d="M459.999 33.1273C451.656 33.1273 444.871 26.3421 444.871 17.9997C444.871 9.6572 451.656 2.87207 459.999 2.87207V3.99944C452.28 3.99944 445.998 10.2812 445.998 17.9997C445.998 25.7181 452.28 31.9999 459.999 31.9999C467.717 31.9999 473.999 25.7181 473.999 17.9997H475.126C475.121 26.3421 468.336 33.1273 459.999 33.1273Z" fill="#649B95"/>
<path d="M460 25.5189C455.852 25.5189 452.48 22.1473 452.48 17.9997H453.042C453.042 21.8327 456.161 24.9526 459.994 24.9526C463.827 24.9526 466.947 21.8327 466.947 17.9997C466.947 14.1667 463.827 11.0468 459.994 11.0468C457.866 11.0468 455.884 12.0011 454.552 13.6685L454.111 13.3172C455.548 11.5134 457.693 10.4805 459.994 10.4805C464.142 10.4805 467.514 13.8521 467.514 17.9997C467.514 22.1473 464.142 25.5189 460 25.5189Z" fill="#649B95"/>
<path d="M497.476 9L523.919 35.4431C516.618 42.7439 504.777 42.7439 497.476 35.4431C490.175 28.1422 490.175 16.3046 497.476 9Z" fill="#1F2627"/>
<path d="M423.199 33.5556L407 17.3561C411.475 12.8813 418.728 12.8813 423.199 17.3561C427.674 21.828 427.674 29.0808 423.199 33.5556Z" fill="white"/>
<mask id="path-27-outside-1_3067_3705" maskUnits="userSpaceOnUse" x="-1.81577" y="275.321" width="58.1319" height="66.6334" fill="black">
<rect fill="white" x="-1.81577" y="275.321" width="58.1319" height="66.6334"/>
<path fill-rule="evenodd" clip-rule="evenodd" d="M39.4737 332.712L31.4829 316.724C31.4327 316.749 31.3824 316.774 31.3321 316.799C22.7988 320.959 12.3785 317.261 7.99126 308.483C3.604 299.704 6.90137 289.15 15.3514 284.823C15.4012 284.798 15.4513 284.772 15.5015 284.747L15.5791 284.902L23.4922 300.736C32.0531 296.457 42.5707 300.147 46.9839 308.977C51.397 317.807 48.0346 328.434 39.4737 332.712ZM8.14176 308.408C3.79734 299.715 7.06207 289.264 15.4289 284.978L15.4293 284.979L15.4557 285.032L15.4823 285.085L15.5091 285.139L15.536 285.193L15.563 285.247L15.5902 285.301L15.6176 285.356L15.6452 285.411L15.6728 285.466L15.7007 285.522L15.7287 285.578L15.7568 285.634L15.7851 285.691L15.8136 285.748L15.8422 285.805L15.8709 285.863L15.8998 285.921L15.9288 285.979L15.958 286.037L15.9873 286.096L16.0168 286.155L16.0464 286.214L16.0762 286.274L16.1061 286.333L16.1362 286.393L16.1663 286.454L16.1967 286.515L16.2271 286.576L16.2577 286.637L16.2885 286.698L16.3193 286.76L16.3504 286.822L16.3815 286.884L16.4128 286.947L16.4442 287.01L16.4757 287.073L16.5074 287.136L16.5392 287.2L16.5711 287.264L16.6032 287.328L16.6354 287.392L16.6677 287.457L16.7002 287.522L16.7327 287.587L16.7654 287.653L16.7982 287.718L16.8312 287.784L16.8642 287.85L16.8974 287.917L16.9307 287.983L16.9641 288.05L16.9977 288.117L17.0313 288.185L17.0651 288.252L17.099 288.32L17.133 288.388L17.1671 288.456L17.2014 288.525L17.2357 288.594L17.2702 288.663L17.3048 288.732L17.3394 288.801L17.3742 288.871L17.4091 288.941L17.4441 289.011L17.4792 289.081L17.5145 289.151L17.5498 289.222L17.5852 289.293L17.6207 289.364L17.6564 289.435L17.6921 289.507L17.7279 289.578L17.7639 289.65L17.7999 289.722L17.8361 289.795L17.8723 289.867L17.9086 289.94L17.945 290.013L17.9816 290.086L18.0182 290.159L18.0549 290.233L18.0917 290.306L18.1286 290.38L18.1656 290.454L18.2026 290.528L18.2398 290.603L18.2771 290.677L18.3144 290.752L18.3518 290.827L18.3893 290.902L18.4269 290.977L18.4646 291.052L18.5024 291.128L18.5402 291.204L18.5782 291.28L18.6162 291.356L18.6543 291.432L18.6924 291.508L18.7307 291.585L18.769 291.661L18.8074 291.738L18.8459 291.815L18.8844 291.892L18.9231 291.97L18.9618 292.047L19.0005 292.125L19.0394 292.202L19.0783 292.28L19.1173 292.358L19.1563 292.436L19.1955 292.515L19.2346 292.593L19.2739 292.672L19.3132 292.75L19.3526 292.829L19.3921 292.908L19.4316 292.987L19.4712 293.066L19.5108 293.146L19.5505 293.225L19.5903 293.305L19.6301 293.384L19.67 293.464L19.7099 293.544L19.7499 293.624L19.7899 293.704L19.83 293.784L19.8702 293.865L19.9104 293.945L19.9507 294.026L19.991 294.106L20.0313 294.187L20.0718 294.268L20.1122 294.349L20.1527 294.43L20.1933 294.511L20.2339 294.593L20.2746 294.674L20.3153 294.755L20.356 294.837L20.3968 294.918L20.4376 295L20.4785 295.082L20.5194 295.164L20.5603 295.246L20.6013 295.328L20.6423 295.41L20.6834 295.492L20.7245 295.574L20.7656 295.656L20.8068 295.739L20.848 295.821L20.8893 295.904L20.9305 295.986L20.9718 296.069L21.0132 296.152L21.0545 296.234L21.0959 296.317L21.1373 296.4L21.1788 296.483L21.2203 296.566L21.2618 296.649L21.3033 296.732L21.3448 296.815L21.3864 296.899L21.428 296.982L21.4696 297.065L21.5112 297.148L21.5529 297.232L21.5946 297.315L21.6363 297.398L21.678 297.482L21.7197 297.565L21.7614 297.649L21.8032 297.732L21.845 297.816L21.8868 297.9L21.9285 297.983L21.9704 298.067L22.0122 298.151L22.054 298.234L22.0958 298.318L22.1377 298.402L22.1795 298.485L22.2214 298.569L22.2633 298.653L22.3051 298.737L22.347 298.821L22.3889 298.904L22.4308 298.988L22.4726 299.072L22.5145 299.156L22.5564 299.24L22.5983 299.323L22.6401 299.407L22.682 299.491L22.7239 299.575L22.7658 299.658L22.8076 299.742L22.8495 299.826L22.8913 299.91L22.9332 299.993L22.975 300.077L23.0168 300.161L23.0586 300.244L23.1004 300.328L23.1422 300.412L23.184 300.495L23.2257 300.579L23.2675 300.662L23.3092 300.746L23.3509 300.829L23.3926 300.913L23.4343 300.996L23.476 301.079L23.5176 301.163L23.5592 301.246L23.6008 301.329L23.6424 301.413L23.684 301.496L23.7255 301.579L23.767 301.662L23.8085 301.745L23.8499 301.828L23.8914 301.911L23.9328 301.993L23.9741 302.076L24.0155 302.159L24.0568 302.242L24.0981 302.324L24.1393 302.407L24.1805 302.489L24.2217 302.572L24.2629 302.654L24.304 302.736L24.3451 302.818L24.3861 302.901L24.4271 302.983L24.4681 303.065L24.509 303.146L24.5499 303.228L24.5907 303.31L24.6315 303.392L24.6723 303.473L24.713 303.555L24.7536 303.636L24.7943 303.717L24.8348 303.798L24.8754 303.879L24.9158 303.96L24.9563 304.041L24.9967 304.122L25.037 304.203L25.0773 304.283L25.1175 304.364L25.1577 304.444L25.1978 304.525L25.2378 304.605L25.2779 304.685L25.3178 304.765L25.3577 304.845L25.3975 304.924L25.4373 305.004L25.477 305.083L25.5167 305.163L25.5563 305.242L25.5958 305.321L25.6353 305.4L25.6747 305.479L25.7141 305.558L25.7533 305.636L25.7926 305.715L25.8317 305.793L25.8708 305.871L25.9098 305.949L25.9487 306.027L25.9876 306.105L26.0264 306.183L26.0651 306.26L26.1038 306.337L26.1423 306.415L26.1808 306.492L26.2193 306.568L26.2576 306.645L26.2959 306.722L26.3341 306.798L26.3722 306.874L26.4102 306.951L26.4482 307.026L26.4861 307.102L26.5239 307.178L26.5616 307.253L26.5992 307.329L26.6367 307.404L26.6742 307.479L26.7115 307.553L26.7488 307.628L26.786 307.702L26.8231 307.777L26.8601 307.851L26.8971 307.925L26.9339 307.998L26.9706 308.072L27.0073 308.145L27.0438 308.218L27.0803 308.291L27.1166 308.364L27.1529 308.437L27.1891 308.509L27.2251 308.581L27.2611 308.653L27.297 308.725L27.3327 308.796L27.3684 308.868L27.404 308.939L27.4394 309.01L27.4748 309.081L27.51 309.151L27.5452 309.221L27.5802 309.292L27.6152 309.361L27.65 309.431L27.6847 309.501L27.7193 309.57L27.7538 309.639L27.7882 309.708L27.8225 309.776L27.8566 309.845L27.8907 309.913L27.9246 309.981L27.9584 310.048L27.9921 310.116L28.0257 310.183L28.0591 310.25L28.0925 310.317L28.1257 310.383L28.1588 310.449L28.1918 310.515L28.2246 310.581L28.2574 310.646L28.29 310.712L28.3225 310.777L28.3548 310.841L28.387 310.906L28.4192 310.97L28.4511 311.034L28.483 311.098L28.5147 311.161L28.5463 311.224L28.5777 311.287L28.609 311.35L28.6402 311.412L28.6713 311.475L28.7022 311.536L28.733 311.598L28.7636 311.659L28.7941 311.72L28.8245 311.781L28.8547 311.842L28.8848 311.902L28.9148 311.962L28.9446 312.021L28.9743 312.081L29.0038 312.14L29.0332 312.199L29.0624 312.257L29.0915 312.315L29.1204 312.373L29.1492 312.431L29.1778 312.488L29.2063 312.545L29.2347 312.602L29.2629 312.658L29.2909 312.714L29.3188 312.77L29.3465 312.826L29.3741 312.881L29.4016 312.936L29.4288 312.99L29.4559 313.045L29.4829 313.099L29.5097 313.152L29.5363 313.205L29.5628 313.258L29.5891 313.311L29.6153 313.363L29.6413 313.415L29.6671 313.467L29.6928 313.518L29.7183 313.57L29.7436 313.62L29.7688 313.671L29.7938 313.721L29.8186 313.77L29.8433 313.82L29.8677 313.869L29.8921 313.917L29.9162 313.966L29.9402 314.014L29.964 314.061L29.9876 314.108L30.0111 314.155L30.0343 314.202L30.0574 314.248L30.0804 314.294L30.1031 314.34L30.1257 314.385L30.1481 314.429L30.1703 314.474L30.1923 314.518L30.2141 314.562L30.2358 314.605L30.2572 314.648L30.2785 314.691L30.2996 314.733L30.3205 314.775L30.3413 314.816L30.3618 314.857L30.3821 314.898L30.4023 314.938L30.4223 314.978L30.442 315.018L30.4616 315.057L30.481 315.096L30.5002 315.134L30.5192 315.172L30.538 315.21L30.5566 315.247L30.575 315.284L30.5932 315.32L30.6112 315.356L30.629 315.392L30.6466 315.427L30.664 315.462L30.6812 315.496L30.6982 315.53L30.715 315.564L30.7316 315.597L30.748 315.63L30.7641 315.662L30.7801 315.694L30.7959 315.726L30.8114 315.757L30.8267 315.787L30.8419 315.818L30.8568 315.848L30.8715 315.877L30.886 315.906L30.9002 315.934L30.9143 315.963L30.9281 315.99L30.9418 316.018L30.9552 316.044L30.9684 316.071L30.9813 316.097L30.9941 316.122L31.0066 316.147L31.0189 316.172L31.031 316.196L31.0428 316.22L31.0545 316.243L31.0659 316.266L31.0771 316.288L31.088 316.31L31.0987 316.332L31.1092 316.353L31.1195 316.373L31.1295 316.393L31.1394 316.413L31.1489 316.432L31.1583 316.451L31.1674 316.469L31.1762 316.487L31.1849 316.504L31.1933 316.521L31.2014 316.537L31.2094 316.553L31.2171 316.568L31.2245 316.583L31.2317 316.598L31.2387 316.612L31.2454 316.625L31.2519 316.638L31.2545 316.643C22.8043 320.762 12.4862 317.1 8.14176 308.408Z"/>
</mask>
<path fill-rule="evenodd" clip-rule="evenodd" d="M39.4737 332.712L31.4829 316.724C31.4327 316.749 31.3824 316.774 31.3321 316.799C22.7988 320.959 12.3785 317.261 7.99126 308.483C3.604 299.704 6.90137 289.15 15.3514 284.823C15.4012 284.798 15.4513 284.772 15.5015 284.747L15.5791 284.902L23.4922 300.736C32.0531 296.457 42.5707 300.147 46.9839 308.977C51.397 317.807 48.0346 328.434 39.4737 332.712ZM8.14176 308.408C3.79734 299.715 7.06207 289.264 15.4289 284.978L15.4293 284.979L15.4557 285.032L15.4823 285.085L15.5091 285.139L15.536 285.193L15.563 285.247L15.5902 285.301L15.6176 285.356L15.6452 285.411L15.6728 285.466L15.7007 285.522L15.7287 285.578L15.7568 285.634L15.7851 285.691L15.8136 285.748L15.8422 285.805L15.8709 285.863L15.8998 285.921L15.9288 285.979L15.958 286.037L15.9873 286.096L16.0168 286.155L16.0464 286.214L16.0762 286.274L16.1061 286.333L16.1362 286.393L16.1663 286.454L16.1967 286.515L16.2271 286.576L16.2577 286.637L16.2885 286.698L16.3193 286.76L16.3504 286.822L16.3815 286.884L16.4128 286.947L16.4442 287.01L16.4757 287.073L16.5074 287.136L16.5392 287.2L16.5711 287.264L16.6032 287.328L16.6354 287.392L16.6677 287.457L16.7002 287.522L16.7327 287.587L16.7654 287.653L16.7982 287.718L16.8312 287.784L16.8642 287.85L16.8974 287.917L16.9307 287.983L16.9641 288.05L16.9977 288.117L17.0313 288.185L17.0651 288.252L17.099 288.32L17.133 288.388L17.1671 288.456L17.2014 288.525L17.2357 288.594L17.2702 288.663L17.3048 288.732L17.3394 288.801L17.3742 288.871L17.4091 288.941L17.4441 289.011L17.4792 289.081L17.5145 289.151L17.5498 289.222L17.5852 289.293L17.6207 289.364L17.6564 289.435L17.6921 289.507L17.7279 289.578L17.7639 289.65L17.7999 289.722L17.8361 289.795L17.8723 289.867L17.9086 289.94L17.945 290.013L17.9816 290.086L18.0182 290.159L18.0549 290.233L18.0917 290.306L18.1286 290.38L18.1656 290.454L18.2026 290.528L18.2398 290.603L18.2771 290.677L18.3144 290.752L18.3518 290.827L18.3893 290.902L18.4269 290.977L18.4646 291.052L18.5024 291.128L18.5402 291.204L18.5782 291.28L18.6162 291.356L18.6543 291.432L18.6924 291.508L18.7307 291.585L18.769 291.661L18.8074 291.738L18.8459 291.815L18.8844 291.892L18.9231 291.97L18.9618 292.047L19.0005 292.125L19.0394 292.202L19.0783 292.28L19.1173 292.358L19.1563 292.436L19.1955 292.515L19.2346 292.593L19.2739 292.672L19.3132 292.75L19.3526 292.829L19.3921 292.908L19.4316 292.987L19.4712 293.066L19.5108 293.146L19.5505 293.225L19.5903 293.305L19.6301 293.384L19.67 293.464L19.7099 293.544L19.7499 293.624L19.7899 293.704L19.83 293.784L19.8702 293.865L19.9104 293.945L19.9507 294.026L19.991 294.106L20.0313 294.187L20.0718 294.268L20.1122 294.349L20.1527 294.43L20.1933 294.511L20.2339 294.593L20.2746 294.674L20.3153 294.755L20.356 294.837L20.3968 294.918L20.4376 295L20.4785 295.082L20.5194 295.164L20.5603 295.246L20.6013 295.328L20.6423 295.41L20.6834 295.492L20.7245 295.574L20.7656 295.656L20.8068 295.739L20.848 295.821L20.8893 295.904L20.9305 295.986L20.9718 296.069L21.0132 296.152L21.0545 296.234L21.0959 296.317L21.1373 296.4L21.1788 296.483L21.2203 296.566L21.2618 296.649L21.3033 296.732L21.3448 296.815L21.3864 296.899L21.428 296.982L21.4696 297.065L21.5112 297.148L21.5529 297.232L21.5946 297.315L21.6363 297.398L21.678 297.482L21.7197 297.565L21.7614 297.649L21.8032 297.732L21.845 297.816L21.8868 297.9L21.9285 297.983L21.9704 298.067L22.0122 298.151L22.054 298.234L22.0958 298.318L22.1377 298.402L22.1795 298.485L22.2214 298.569L22.2633 298.653L22.3051 298.737L22.347 298.821L22.3889 298.904L22.4308 298.988L22.4726 299.072L22.5145 299.156L22.5564 299.24L22.5983 299.323L22.6401 299.407L22.682 299.491L22.7239 299.575L22.7658 299.658L22.8076 299.742L22.8495 299.826L22.8913 299.91L22.9332 299.993L22.975 300.077L23.0168 300.161L23.0586 300.244L23.1004 300.328L23.1422 300.412L23.184 300.495L23.2257 300.579L23.2675 300.662L23.3092 300.746L23.3509 300.829L23.3926 300.913L23.4343 300.996L23.476 301.079L23.5176 301.163L23.5592 301.246L23.6008 301.329L23.6424 301.413L23.684 301.496L23.7255 301.579L23.767 301.662L23.8085 301.745L23.8499 301.828L23.8914 301.911L23.9328 301.993L23.9741 302.076L24.0155 302.159L24.0568 302.242L24.0981 302.324L24.1393 302.407L24.1805 302.489L24.2217 302.572L24.2629 302.654L24.304 302.736L24.3451 302.818L24.3861 302.901L24.4271 302.983L24.4681 303.065L24.509 303.146L24.5499 303.228L24.5907 303.31L24.6315 303.392L24.6723 303.473L24.713 303.555L24.7536 303.636L24.7943 303.717L24.8348 303.798L24.8754 303.879L24.9158 303.96L24.9563 304.041L24.9967 304.122L25.037 304.203L25.0773 304.283L25.1175 304.364L25.1577 304.444L25.1978 304.525L25.2378 304.605L25.2779 304.685L25.3178 304.765L25.3577 304.845L25.3975 304.924L25.4373 305.004L25.477 305.083L25.5167 305.163L25.5563 305.242L25.5958 305.321L25.6353 305.4L25.6747 305.479L25.7141 305.558L25.7533 305.636L25.7926 305.715L25.8317 305.793L25.8708 305.871L25.9098 305.949L25.9487 306.027L25.9876 306.105L26.0264 306.183L26.0651 306.26L26.1038 306.337L26.1423 306.415L26.1808 306.492L26.2193 306.568L26.2576 306.645L26.2959 306.722L26.3341 306.798L26.3722 306.874L26.4102 306.951L26.4482 307.026L26.4861 307.102L26.5239 307.178L26.5616 307.253L26.5992 307.329L26.6367 307.404L26.6742 307.479L26.7115 307.553L26.7488 307.628L26.786 307.702L26.8231 307.777L26.8601 307.851L26.8971 307.925L26.9339 307.998L26.9706 308.072L27.0073 308.145L27.0438 308.218L27.0803 308.291L27.1166 308.364L27.1529 308.437L27.1891 308.509L27.2251 308.581L27.2611 308.653L27.297 308.725L27.3327 308.796L27.3684 308.868L27.404 308.939L27.4394 309.01L27.4748 309.081L27.51 309.151L27.5452 309.221L27.5802 309.292L27.6152 309.361L27.65 309.431L27.6847 309.501L27.7193 309.57L27.7538 309.639L27.7882 309.708L27.8225 309.776L27.8566 309.845L27.8907 309.913L27.9246 309.981L27.9584 310.048L27.9921 310.116L28.0257 310.183L28.0591 310.25L28.0925 310.317L28.1257 310.383L28.1588 310.449L28.1918 310.515L28.2246 310.581L28.2574 310.646L28.29 310.712L28.3225 310.777L28.3548 310.841L28.387 310.906L28.4192 310.97L28.4511 311.034L28.483 311.098L28.5147 311.161L28.5463 311.224L28.5777 311.287L28.609 311.35L28.6402 311.412L28.6713 311.475L28.7022 311.536L28.733 311.598L28.7636 311.659L28.7941 311.72L28.8245 311.781L28.8547 311.842L28.8848 311.902L28.9148 311.962L28.9446 312.021L28.9743 312.081L29.0038 312.14L29.0332 312.199L29.0624 312.257L29.0915 312.315L29.1204 312.373L29.1492 312.431L29.1778 312.488L29.2063 312.545L29.2347 312.602L29.2629 312.658L29.2909 312.714L29.3188 312.77L29.3465 312.826L29.3741 312.881L29.4016 312.936L29.4288 312.99L29.4559 313.045L29.4829 313.099L29.5097 313.152L29.5363 313.205L29.5628 313.258L29.5891 313.311L29.6153 313.363L29.6413 313.415L29.6671 313.467L29.6928 313.518L29.7183 313.57L29.7436 313.62L29.7688 313.671L29.7938 313.721L29.8186 313.77L29.8433 313.82L29.8677 313.869L29.8921 313.917L29.9162 313.966L29.9402 314.014L29.964 314.061L29.9876 314.108L30.0111 314.155L30.0343 314.202L30.0574 314.248L30.0804 314.294L30.1031 314.34L30.1257 314.385L30.1481 314.429L30.1703 314.474L30.1923 314.518L30.2141 314.562L30.2358 314.605L30.2572 314.648L30.2785 314.691L30.2996 314.733L30.3205 314.775L30.3413 314.816L30.3618 314.857L30.3821 314.898L30.4023 314.938L30.4223 314.978L30.442 315.018L30.4616 315.057L30.481 315.096L30.5002 315.134L30.5192 315.172L30.538 315.21L30.5566 315.247L30.575 315.284L30.5932 315.32L30.6112 315.356L30.629 315.392L30.6466 315.427L30.664 315.462L30.6812 315.496L30.6982 315.53L30.715 315.564L30.7316 315.597L30.748 315.63L30.7641 315.662L30.7801 315.694L30.7959 315.726L30.8114 315.757L30.8267 315.787L30.8419 315.818L30.8568 315.848L30.8715 315.877L30.886 315.906L30.9002 315.934L30.9143 315.963L30.9281 315.99L30.9418 316.018L30.9552 316.044L30.9684 316.071L30.9813 316.097L30.9941 316.122L31.0066 316.147L31.0189 316.172L31.031 316.196L31.0428 316.22L31.0545 316.243L31.0659 316.266L31.0771 316.288L31.088 316.31L31.0987 316.332L31.1092 316.353L31.1195 316.373L31.1295 316.393L31.1394 316.413L31.1489 316.432L31.1583 316.451L31.1674 316.469L31.1762 316.487L31.1849 316.504L31.1933 316.521L31.2014 316.537L31.2094 316.553L31.2171 316.568L31.2245 316.583L31.2317 316.598L31.2387 316.612L31.2454 316.625L31.2519 316.638L31.2545 316.643C22.8043 320.762 12.4862 317.1 8.14176 308.408Z" fill="#1F2627"/>
<path fill-rule="evenodd" clip-rule="evenodd" d="M39.4737 332.712L31.4829 316.724C31.4327 316.749 31.3824 316.774 31.3321 316.799C22.7988 320.959 12.3785 317.261 7.99126 308.483C3.604 299.704 6.90137 289.15 15.3514 284.823C15.4012 284.798 15.4513 284.772 15.5015 284.747L15.5791 284.902L23.4922 300.736C32.0531 296.457 42.5707 300.147 46.9839 308.977C51.397 317.807 48.0346 328.434 39.4737 332.712ZM8.14176 308.408C3.79734 299.715 7.06207 289.264 15.4289 284.978L15.4293 284.979L15.4557 285.032L15.4823 285.085L15.5091 285.139L15.536 285.193L15.563 285.247L15.5902 285.301L15.6176 285.356L15.6452 285.411L15.6728 285.466L15.7007 285.522L15.7287 285.578L15.7568 285.634L15.7851 285.691L15.8136 285.748L15.8422 285.805L15.8709 285.863L15.8998 285.921L15.9288 285.979L15.958 286.037L15.9873 286.096L16.0168 286.155L16.0464 286.214L16.0762 286.274L16.1061 286.333L16.1362 286.393L16.1663 286.454L16.1967 286.515L16.2271 286.576L16.2577 286.637L16.2885 286.698L16.3193 286.76L16.3504 286.822L16.3815 286.884L16.4128 286.947L16.4442 287.01L16.4757 287.073L16.5074 287.136L16.5392 287.2L16.5711 287.264L16.6032 287.328L16.6354 287.392L16.6677 287.457L16.7002 287.522L16.7327 287.587L16.7654 287.653L16.7982 287.718L16.8312 287.784L16.8642 287.85L16.8974 287.917L16.9307 287.983L16.9641 288.05L16.9977 288.117L17.0313 288.185L17.0651 288.252L17.099 288.32L17.133 288.388L17.1671 288.456L17.2014 288.525L17.2357 288.594L17.2702 288.663L17.3048 288.732L17.3394 288.801L17.3742 288.871L17.4091 288.941L17.4441 289.011L17.4792 289.081L17.5145 289.151L17.5498 289.222L17.5852 289.293L17.6207 289.364L17.6564 289.435L17.6921 289.507L17.7279 289.578L17.7639 289.65L17.7999 289.722L17.8361 289.795L17.8723 289.867L17.9086 289.94L17.945 290.013L17.9816 290.086L18.0182 290.159L18.0549 290.233L18.0917 290.306L18.1286 290.38L18.1656 290.454L18.2026 290.528L18.2398 290.603L18.2771 290.677L18.3144 290.752L18.3518 290.827L18.3893 290.902L18.4269 290.977L18.4646 291.052L18.5024 291.128L18.5402 291.204L18.5782 291.28L18.6162 291.356L18.6543 291.432L18.6924 291.508L18.7307 291.585L18.769 291.661L18.8074 291.738L18.8459 291.815L18.8844 291.892L18.9231 291.97L18.9618 292.047L19.0005 292.125L19.0394 292.202L19.0783 292.28L19.1173 292.358L19.1563 292.436L19.1955 292.515L19.2346 292.593L19.2739 292.672L19.3132 292.75L19.3526 292.829L19.3921 292.908L19.4316 292.987L19.4712 293.066L19.5108 293.146L19.5505 293.225L19.5903 293.305L19.6301 293.384L19.67 293.464L19.7099 293.544L19.7499 293.624L19.7899 293.704L19.83 293.784L19.8702 293.865L19.9104 293.945L19.9507 294.026L19.991 294.106L20.0313 294.187L20.0718 294.268L20.1122 294.349L20.1527 294.43L20.1933 294.511L20.2339 294.593L20.2746 294.674L20.3153 294.755L20.356 294.837L20.3968 294.918L20.4376 295L20.4785 295.082L20.5194 295.164L20.5603 295.246L20.6013 295.328L20.6423 295.41L20.6834 295.492L20.7245 295.574L20.7656 295.656L20.8068 295.739L20.848 295.821L20.8893 295.904L20.9305 295.986L20.9718 296.069L21.0132 296.152L21.0545 296.234L21.0959 296.317L21.1373 296.4L21.1788 296.483L21.2203 296.566L21.2618 296.649L21.3033 296.732L21.3448 296.815L21.3864 296.899L21.428 296.982L21.4696 297.065L21.5112 297.148L21.5529 297.232L21.5946 297.315L21.6363 297.398L21.678 297.482L21.7197 297.565L21.7614 297.649L21.8032 297.732L21.845 297.816L21.8868 297.9L21.9285 297.983L21.9704 298.067L22.0122 298.151L22.054 298.234L22.0958 298.318L22.1377 298.402L22.1795 298.485L22.2214 298.569L22.2633 298.653L22.3051 298.737L22.347 298.821L22.3889 298.904L22.4308 298.988L22.4726 299.072L22.5145 299.156L22.5564 299.24L22.5983 299.323L22.6401 299.407L22.682 299.491L22.7239 299.575L22.7658 299.658L22.8076 299.742L22.8495 299.826L22.8913 299.91L22.9332 299.993L22.975 300.077L23.0168 300.161L23.0586 300.244L23.1004 300.328L23.1422 300.412L23.184 300.495L23.2257 300.579L23.2675 300.662L23.3092 300.746L23.3509 300.829L23.3926 300.913L23.4343 300.996L23.476 301.079L23.5176 301.163L23.5592 301.246L23.6008 301.329L23.6424 301.413L23.684 301.496L23.7255 301.579L23.767 301.662L23.8085 301.745L23.8499 301.828L23.8914 301.911L23.9328 301.993L23.9741 302.076L24.0155 302.159L24.0568 302.242L24.0981 302.324L24.1393 302.407L24.1805 302.489L24.2217 302.572L24.2629 302.654L24.304 302.736L24.3451 302.818L24.3861 302.901L24.4271 302.983L24.4681 303.065L24.509 303.146L24.5499 303.228L24.5907 303.31L24.6315 303.392L24.6723 303.473L24.713 303.555L24.7536 303.636L24.7943 303.717L24.8348 303.798L24.8754 303.879L24.9158 303.96L24.9563 304.041L24.9967 304.122L25.037 304.203L25.0773 304.283L25.1175 304.364L25.1577 304.444L25.1978 304.525L25.2378 304.605L25.2779 304.685L25.3178 304.765L25.3577 304.845L25.3975 304.924L25.4373 305.004L25.477 305.083L25.5167 305.163L25.5563 305.242L25.5958 305.321L25.6353 305.4L25.6747 305.479L25.7141 305.558L25.7533 305.636L25.7926 305.715L25.8317 305.793L25.8708 305.871L25.9098 305.949L25.9487 306.027L25.9876 306.105L26.0264 306.183L26.0651 306.26L26.1038 306.337L26.1423 306.415L26.1808 306.492L26.2193 306.568L26.2576 306.645L26.2959 306.722L26.3341 306.798L26.3722 306.874L26.4102 306.951L26.4482 307.026L26.4861 307.102L26.5239 307.178L26.5616 307.253L26.5992 307.329L26.6367 307.404L26.6742 307.479L26.7115 307.553L26.7488 307.628L26.786 307.702L26.8231 307.777L26.8601 307.851L26.8971 307.925L26.9339 307.998L26.9706 308.072L27.0073 308.145L27.0438 308.218L27.0803 308.291L27.1166 308.364L27.1529 308.437L27.1891 308.509L27.2251 308.581L27.2611 308.653L27.297 308.725L27.3327 308.796L27.3684 308.868L27.404 308.939L27.4394 309.01L27.4748 309.081L27.51 309.151L27.5452 309.221L27.5802 309.292L27.6152 309.361L27.65 309.431L27.6847 309.501L27.7193 309.57L27.7538 309.639L27.7882 309.708L27.8225 309.776L27.8566 309.845L27.8907 309.913L27.9246 309.981L27.9584 310.048L27.9921 310.116L28.0257 310.183L28.0591 310.25L28.0925 310.317L28.1257 310.383L28.1588 310.449L28.1918 310.515L28.2246 310.581L28.2574 310.646L28.29 310.712L28.3225 310.777L28.3548 310.841L28.387 310.906L28.4192 310.97L28.4511 311.034L28.483 311.098L28.5147 311.161L28.5463 311.224L28.5777 311.287L28.609 311.35L28.6402 311.412L28.6713 311.475L28.7022 311.536L28.733 311.598L28.7636 311.659L28.7941 311.72L28.8245 311.781L28.8547 311.842L28.8848 311.902L28.9148 311.962L28.9446 312.021L28.9743 312.081L29.0038 312.14L29.0332 312.199L29.0624 312.257L29.0915 312.315L29.1204 312.373L29.1492 312.431L29.1778 312.488L29.2063 312.545L29.2347 312.602L29.2629 312.658L29.2909 312.714L29.3188 312.77L29.3465 312.826L29.3741 312.881L29.4016 312.936L29.4288 312.99L29.4559 313.045L29.4829 313.099L29.5097 313.152L29.5363 313.205L29.5628 313.258L29.5891 313.311L29.6153 313.363L29.6413 313.415L29.6671 313.467L29.6928 313.518L29.7183 313.57L29.7436 313.62L29.7688 313.671L29.7938 313.721L29.8186 313.77L29.8433 313.82L29.8677 313.869L29.8921 313.917L29.9162 313.966L29.9402 314.014L29.964 314.061L29.9876 314.108L30.0111 314.155L30.0343 314.202L30.0574 314.248L30.0804 314.294L30.1031 314.34L30.1257 314.385L30.1481 314.429L30.1703 314.474L30.1923 314.518L30.2141 314.562L30.2358 314.605L30.2572 314.648L30.2785 314.691L30.2996 314.733L30.3205 314.775L30.3413 314.816L30.3618 314.857L30.3821 314.898L30.4023 314.938L30.4223 314.978L30.442 315.018L30.4616 315.057L30.481 315.096L30.5002 315.134L30.5192 315.172L30.538 315.21L30.5566 315.247L30.575 315.284L30.5932 315.32L30.6112 315.356L30.629 315.392L30.6466 315.427L30.664 315.462L30.6812 315.496L30.6982 315.53L30.715 315.564L30.7316 315.597L30.748 315.63L30.7641 315.662L30.7801 315.694L30.7959 315.726L30.8114 315.757L30.8267 315.787L30.8419 315.818L30.8568 315.848L30.8715 315.877L30.886 315.906L30.9002 315.934L30.9143 315.963L30.9281 315.99L30.9418 316.018L30.9552 316.044L30.9684 316.071L30.9813 316.097L30.9941 316.122L31.0066 316.147L31.0189 316.172L31.031 316.196L31.0428 316.22L31.0545 316.243L31.0659 316.266L31.0771 316.288L31.088 316.31L31.0987 316.332L31.1092 316.353L31.1195 316.373L31.1295 316.393L31.1394 316.413L31.1489 316.432L31.1583 316.451L31.1674 316.469L31.1762 316.487L31.1849 316.504L31.1933 316.521L31.2014 316.537L31.2094 316.553L31.2171 316.568L31.2245 316.583L31.2317 316.598L31.2387 316.612L31.2454 316.625L31.2519 316.638L31.2545 316.643C22.8043 320.762 12.4862 317.1 8.14176 308.408Z" stroke="#1F2627" stroke-width="2" mask="url(#path-27-outside-1_3067_3705)"/>
</svg>
