<svg width="55" height="48" viewBox="0 0 55 48" fill="none" xmlns="http://www.w3.org/2000/svg">
<path d="M55 20.2808C54.8583 20.4508 54.7166 20.6067 54.575 20.7484C50.6008 24.8538 45.8468 28.1243 40.5919 30.3679C39.7877 30.8859 38.8413 31.1386 37.8859 31.0905C34.3158 31.0763 29.3289 28.6962 26.8213 28.0162C24.2712 27.3078 21.9477 26.2594 20.6868 23.7802C20.3468 23.1001 20.106 22.3918 19.766 21.7117C18.8888 20.2441 17.8427 18.8842 16.6492 17.6599C16.465 17.419 16.2667 17.1782 16.0967 16.9374C14.9491 15.3931 13.9715 13.0555 15.0058 11.2138C16.5456 8.97926 18.2555 6.8668 20.1202 4.89518C20.422 4.51044 20.7435 4.14159 21.0835 3.79014C22.5144 2.34508 24.2145 1.43837 26.1837 2.74176C28.1491 3.78218 30.3709 4.23932 32.5873 4.05931C32.7857 4.05931 32.984 4.05932 33.1682 4.07348C34.4716 4.08765 35.7892 4.15848 37.0926 4.28599C40.1777 6.11021 43.1103 8.18064 45.8621 10.4771C46.4713 10.9871 47.0805 11.5113 47.6613 12.0497C47.888 12.248 48.1147 12.4605 48.3272 12.6588C49.8325 14.065 51.2473 15.565 52.5632 17.1499L55 20.2808Z" fill="url(#paint0_linear)"/>
<path d="M15.5906 29.1864C14.2118 30.0677 12.624 30.5678 10.9891 30.6357C8.9249 30.5351 7.2064 28.8478 5.16772 28.9484C4.47636 28.9838 3.8927 29.0731 3.45068 29.0901C2.43631 29.1312 2.06935 28.8067 2.54962 26.6462C3.06149 25.0123 3.84246 23.4753 4.86032 22.0985C5.14367 21.6508 5.50349 20.9552 5.90726 20.2568C6.32792 19.3394 6.98757 18.5521 7.81704 17.9773C8.15438 17.853 8.50903 17.7823 8.86822 17.7676C9.49635 17.7012 10.1281 17.6747 10.7596 17.6883C11.7829 17.6603 12.7775 18.0283 13.5364 18.7154C15.0154 20.22 14.3722 22.7375 14.9772 24.7634C15.5297 26.608 18.009 27.9184 15.5906 29.1864Z" fill="url(#paint1_linear)"/>
<path d="M48.1229 43.7048C47.6599 44.0215 47.1383 44.2425 46.5887 44.3546C46.0391 44.4668 45.4726 44.4679 44.9225 44.3579C43.8209 44.1309 42.6798 44.185 41.6046 44.5152C41.2263 44.681 40.8877 44.9204 40.5123 45.0819C40.0047 45.2742 39.4631 45.3609 38.9208 45.3365C38.3786 45.3121 37.8469 45.1773 37.3586 44.9402C35.0833 43.94 34.7816 43.2331 35.31 42.1393C35.7082 41.4254 36.1433 40.7326 36.6134 40.0639C37.5697 38.5805 38.8334 35.3972 41.0378 35.4992C41.0737 35.497 41.1097 35.497 41.1455 35.4992C41.2852 35.514 41.4238 35.5372 41.5606 35.5686C43.5767 36.0503 50.9465 41.2298 48.1229 43.7048Z" fill="url(#paint2_linear)"/>
<path d="M52.5632 17.1498C52.3858 17.503 52.1772 17.8396 51.9399 18.1557C51.4145 18.7233 50.7965 19.1975 50.1123 19.5582C46.6555 21.655 43.1987 23.7376 39.7419 25.8343C39.1341 26.3513 38.385 26.6737 37.5917 26.7596C36.7984 26.8455 35.9977 26.6909 35.2933 26.316C33.6074 25.6926 31.9924 24.9276 30.3065 24.2901C28.8294 23.5491 27.3056 22.9055 25.7446 22.3633C25.1354 22.2217 24.512 22.1508 23.917 21.9666C22.9979 21.6216 22.1341 21.1443 21.3527 20.5499C20.2194 19.7991 19.0718 19.0907 17.8959 18.4248C17.5417 18.2265 17.1026 17.929 16.6492 17.6598C17.8427 18.8841 18.8888 20.244 19.766 21.7116C20.106 22.3917 20.3469 23.1 20.6869 23.7801C21.9478 26.2593 24.2712 27.3077 26.8213 28.0161C29.3289 28.6961 34.3158 31.0762 37.886 31.0904C38.8413 31.1385 39.7877 30.8858 40.5919 30.3678C45.8469 28.1242 50.6008 24.8537 54.575 20.7483C54.7167 20.6066 54.8583 20.4508 55 20.2807L52.5632 17.1498Z" fill="url(#paint3_linear)"/>
<path d="M15.5904 29.1863C14.2116 30.0676 12.6238 30.5676 10.9888 30.6356C8.92466 30.535 7.20616 28.8477 5.16748 28.9483C4.47612 28.9837 3.89246 29.073 3.45044 29.09C4.44144 28.1097 5.5119 27.2132 6.65084 26.4095C6.81421 26.269 7.01513 26.1793 7.22885 26.1517C7.40082 26.1587 7.56853 26.2073 7.71762 26.2933C8.78757 26.8206 9.77576 27.4996 10.6516 28.3093C10.7928 28.4728 10.9841 28.5849 11.1957 28.6281C11.433 28.6173 11.6571 28.5159 11.8219 28.3448C12.5803 27.718 13.2977 27.0432 13.9696 26.3245C13.3881 25.302 12.9463 24.2061 12.6563 23.066C12.6152 22.2812 13.6084 21.9171 13.5064 21.0486C13.4209 20.6435 13.2348 20.2663 12.9652 19.9521C12.6017 19.4148 12.1896 18.9121 11.734 18.4503C11.4341 18.1666 11.1088 17.911 10.7622 17.6867C11.7855 17.6588 12.7802 18.0267 13.539 18.7139C15.018 20.2184 14.3748 22.7359 14.9798 24.7619C15.5295 26.6079 18.0088 27.9183 15.5904 29.1863Z" fill="url(#paint4_linear)"/>
<path d="M48.1229 43.705C47.6599 44.0216 47.1383 44.2426 46.5887 44.3547C46.0391 44.4669 45.4726 44.468 44.9225 44.3581C43.8209 44.1311 42.6798 44.1851 41.6046 44.5153C41.2263 44.6811 40.8877 44.9205 40.5123 45.082C40.0047 45.2743 39.4631 45.361 38.9208 45.3366C38.3785 45.3123 37.8469 45.1774 37.3586 44.9403C35.0833 43.9401 34.7816 43.2332 35.31 42.1395L36.9775 43.2573C37.2064 43.43 37.4613 43.5654 37.7326 43.6582C38.5827 43.9005 39.4115 43.3083 40.2062 42.9286C40.9149 42.5908 41.6856 42.4026 42.4702 42.3758C43.2548 42.349 44.0366 42.4841 44.7667 42.7727C44.948 41.7669 45.0793 40.7544 45.1605 39.7353C45.1988 39.4911 45.1754 39.2413 45.0925 39.0085C44.9877 38.8164 44.8428 38.6492 44.6675 38.5183C43.4595 37.5143 42.252 36.508 41.0449 35.4993C41.0808 35.4972 41.1168 35.4972 41.1526 35.4993C41.2922 35.5141 41.4309 35.5373 41.5677 35.5687C43.5766 36.0504 50.9464 41.2299 48.1229 43.705Z" fill="url(#paint5_linear)"/>
<path d="M19.8927 8.33778C19.7698 8.52366 19.7187 8.74792 19.7489 8.96871C19.7791 9.1895 19.8887 9.39175 20.057 9.53775L23.409 9.21473C23.7579 9.17393 24.109 9.155 24.4602 9.15806C24.8599 9.1805 25.2576 9.23068 25.6503 9.30824L28.0148 9.72334C28.3172 9.80236 28.6345 9.80576 28.9385 9.73325C29.0891 9.69279 29.2205 9.60031 29.3095 9.47221C29.3984 9.3441 29.4392 9.18865 29.4244 9.03339C29.3561 8.8346 29.2254 8.66317 29.0518 8.54462L27.9185 7.58833C27.4814 7.1804 26.9815 6.84554 26.438 6.59662C25.391 6.18293 24.5722 6.79213 23.5819 7.03014C22.9879 7.13609 22.388 7.20517 21.7855 7.23698C21.3086 7.24214 20.8442 7.39019 20.4523 7.662C20.2309 7.85596 20.042 8.0841 19.8927 8.33778Z" fill="#244A6E"/>
<path d="M24.7295 12.8344C24.537 12.8123 24.3517 12.7479 24.1869 12.6459C23.5423 12.3059 21.9782 11.3171 23.1017 10.6625C23.3399 10.5855 23.5912 10.5571 23.8405 10.5791C24.0899 10.6011 24.3324 10.6729 24.5535 10.7904C24.7745 10.9079 24.9698 11.0686 25.1275 11.263C25.2853 11.4574 25.4024 11.6815 25.4719 11.922C25.4862 12.0312 25.4782 12.1421 25.4482 12.2481C25.4182 12.3541 25.3668 12.4528 25.2973 12.5382C25.2278 12.6236 25.1416 12.6939 25.044 12.7449C24.9463 12.7958 24.8393 12.8263 24.7295 12.8344Z" fill="#244A6E"/>
<path d="M18.9629 12.1162C19.4639 12.2775 20.0071 12.2457 20.4859 12.027C20.6658 11.9703 20.8797 11.874 20.8939 11.6841C20.9066 11.5198 20.7522 11.4008 20.6106 11.3059C20.3144 11.099 19.9699 10.9721 19.6103 10.9375C19.4307 10.9223 19.2503 10.9563 19.0885 11.0359C18.9268 11.1156 18.7898 11.2378 18.6923 11.3894C18.6253 11.4992 18.6015 11.63 18.6257 11.7564C18.6517 11.8376 18.6955 11.912 18.7538 11.9743C18.8121 12.0365 18.8835 12.085 18.9629 12.1162Z" fill="#244A6E"/>
<path d="M39.4019 19.0737C38.8838 19.2948 38.32 19.3872 37.7585 19.3428C37.279 19.2742 36.8104 19.1437 36.3644 18.9547C36.0471 18.8371 35.6787 18.6557 35.6475 18.32C35.6494 18.1863 35.6907 18.0563 35.7664 17.9461C35.842 17.8359 35.9485 17.7506 36.0726 17.7008C36.3215 17.6058 36.5755 17.5245 36.8333 17.4572C37.2332 17.2973 37.5644 17.0025 37.7693 16.6238C37.9743 16.2452 38.0401 15.8067 37.9554 15.3845C38.3582 15.3826 38.7573 15.4612 39.1293 15.6157C39.5013 15.7702 39.8387 15.9974 40.1216 16.2841C40.3952 16.5795 40.5592 16.9596 40.5866 17.3612C40.6139 17.7629 40.5028 18.1617 40.2718 18.4914C40.034 18.7539 39.7352 18.9539 39.4019 19.0737Z" fill="#244A6E"/>
<path d="M24.0763 20.0002C24.9645 20.5157 25.8165 21.0913 26.6264 21.7229C26.7518 21.8324 26.8957 21.9188 27.0514 21.9779C27.1705 22.0001 27.2929 21.9972 27.4107 21.9692C27.5286 21.9413 27.6393 21.8891 27.7358 21.8158C27.8322 21.7426 27.9123 21.65 27.9708 21.5439C28.0294 21.4379 28.0651 21.3208 28.0757 21.2001C28.0818 20.9546 28.0298 20.7112 27.9239 20.4896C27.818 20.268 27.6613 20.0746 27.4665 19.9251C27.0734 19.6308 26.6574 19.3684 26.2226 19.1402C25.8802 18.901 25.5203 18.6879 25.1459 18.5027C24.9575 18.4112 24.7517 18.3609 24.5424 18.3553C24.333 18.3497 24.1248 18.3888 23.9318 18.4701C23.7432 18.5602 23.5957 18.7185 23.5192 18.9131C23.4427 19.1077 23.4428 19.324 23.5195 19.5185C23.657 19.7275 23.8497 19.8942 24.0763 20.0002Z" fill="#244A6E"/>
<path d="M22.6045 22.6608C22.3769 22.8256 22.222 23.0723 22.1726 23.3489C22.1232 23.6256 22.183 23.9106 22.3395 24.1441C22.6759 24.6006 23.1678 24.9181 23.7223 25.0366C23.8375 25.0813 23.9637 25.0892 24.0836 25.0593C24.3542 24.9587 24.3471 24.5705 24.2522 24.2971C24.0309 23.6604 23.6176 23.108 23.0692 22.716C22.9926 22.6505 22.8975 22.6104 22.7972 22.6013C22.7289 22.604 22.6625 22.6245 22.6045 22.6608Z" fill="#244A6E"/>
<path d="M33.8084 20.2369V20.1944C33.7348 18.9618 34.3156 19.0709 34.9588 19.8997C36.1248 21.4043 37.7994 23.7702 35.5567 25.2719C35.4364 25.2909 35.3133 25.2741 35.2025 25.2238C35.0917 25.1734 34.9981 25.0916 34.9333 24.9886C34.8085 24.7786 34.728 24.5452 34.6967 24.3029C34.3201 22.9664 34.0234 21.6087 33.8084 20.2369Z" fill="#244A6E"/>
<path d="M47.6609 12.0496C46.9438 11.9208 46.2508 11.6818 45.6066 11.3413C45.3941 11.2137 45.1391 10.9871 45.2524 10.7604C45.3304 10.651 45.4468 10.5751 45.5783 10.5479C45.671 10.5176 45.7656 10.494 45.8616 10.4771C46.4708 10.9871 47.0801 11.5113 47.6609 12.0496Z" fill="#244A6E"/>
<path d="M47.7791 17.6853C48.4657 17.5837 49.1067 17.2804 49.6208 16.814C49.7405 16.6933 49.8336 16.5488 49.894 16.3899C49.9545 16.2309 49.9809 16.0611 49.9717 15.8913C49.9625 15.7215 49.9178 15.5556 49.8406 15.4041C49.7633 15.2526 49.6551 15.1191 49.523 15.012C48.433 15.2887 47.4803 15.951 46.8412 16.8764C46.7381 17.0021 46.6802 17.1587 46.6768 17.3212C46.6976 17.4298 46.7518 17.5291 46.8318 17.6053C46.9119 17.6815 47.0137 17.7308 47.1231 17.7462C47.3436 17.7727 47.5672 17.7519 47.7791 17.6853Z" fill="#244A6E"/>
<path d="M9.02597 21.6196C9.32632 21.5034 9.62947 21.2838 10.0177 21.0954C10.2582 20.989 10.4679 20.8234 10.6271 20.614C10.7864 20.4047 10.8902 20.1585 10.9286 19.8983C10.9538 19.6368 10.8792 19.3755 10.7197 19.1669C10.5601 18.9582 10.3276 18.8176 10.0687 18.7734C9.38723 18.7167 7.15443 20.2978 7.58654 21.1209C7.67141 21.2549 7.78764 21.3663 7.92516 21.4453C8.07536 21.5719 8.25728 21.655 8.45129 21.6857C8.64529 21.7165 8.84402 21.6936 9.02597 21.6196Z" fill="#244A6E"/>
<path d="M10.417 24.4162C10.2753 23.8977 10.0897 23.1822 10.2116 23.0774C10.7131 22.6524 12.1114 25.0735 11.8862 25.5807C11.6093 25.602 11.3309 25.5727 11.0645 25.4943C10.9316 25.4531 10.8123 25.3769 10.7191 25.2737C10.6259 25.1705 10.5621 25.0441 10.5346 24.9078C10.5232 24.82 10.4751 24.6358 10.417 24.4162Z" fill="#244A6E"/>
<path d="M5.04985 24.9943C5.0881 25.104 5.16597 25.1955 5.26818 25.2508C5.37039 25.3061 5.48955 25.3213 5.60234 25.2932C5.82614 25.2288 6.02958 25.1078 6.19309 24.9419C6.27954 24.8814 6.34536 24.7959 6.38154 24.6968C6.42546 24.5126 6.25261 24.3426 6.07411 24.2817C5.8884 24.2254 5.68878 24.2363 5.51029 24.3124C5.33181 24.3886 5.18586 24.5252 5.09801 24.6982C5.05132 24.7894 5.03447 24.893 5.04985 24.9943Z" fill="#244A6E"/>
<path d="M42.5753 38.5651C42.2422 38.1168 41.8045 37.7568 41.3002 37.5167C41.0449 37.4052 40.7582 37.3882 40.4915 37.469C40.2249 37.5497 39.9957 37.7229 39.8452 37.9573C40.3386 38.7082 41.1075 39.2349 41.9859 39.4236C42.2692 39.5228 42.6489 39.5922 42.8119 39.34C42.9748 39.0879 42.7665 38.7847 42.5753 38.5651Z" fill="#244A6E"/>
<path d="M37.7681 41.2683C37.7226 41.1117 37.7266 40.9449 37.7796 40.7907C37.8327 40.6365 37.932 40.5024 38.0642 40.4069C39.0559 39.9252 39.5291 41.7032 38.7032 42.1197C38.2215 42.3606 37.8432 41.8151 37.7681 41.2683Z" fill="#244A6E"/>
<path d="M25.742 38.1825C25.7797 38.093 25.7971 37.9962 25.793 37.8992C25.7677 37.4981 25.6449 37.1092 25.4353 36.7663C25.2257 36.4234 24.9356 36.1368 24.5902 35.9314C23.8922 35.5279 23.1223 35.2642 22.3235 35.155C21.612 34.9742 20.868 34.9636 20.1517 35.1238C19.7955 35.2117 19.4746 35.4063 19.2321 35.6815C18.9895 35.9567 18.8369 36.2994 18.7944 36.6638C19.2006 37.5497 19.6076 38.4357 20.0156 39.3216C20.0469 39.5 20.1234 39.6674 20.2378 39.8078C20.3523 39.9482 20.5008 40.0568 20.6693 40.1233C20.8378 40.1899 21.0205 40.2121 21.2 40.1878C21.3795 40.1635 21.5497 40.0935 21.6944 39.9846L25.2646 38.5311C25.4614 38.4781 25.6316 38.3539 25.742 38.1825Z" fill="url(#paint6_linear)"/>
<path d="M12.6175 39.3783C12.7156 39.629 12.8597 39.8592 13.0425 40.0569L13.5964 40.7242C13.6351 40.7928 13.6893 40.8514 13.7547 40.8952C13.8201 40.939 13.8949 40.9669 13.9731 40.9766C14.0512 40.9862 14.1305 40.9774 14.2046 40.9508C14.2788 40.9241 14.3456 40.8805 14.3998 40.8233C14.9643 40.5465 15.4613 40.1495 15.8561 39.6602C16.0474 39.4114 16.154 39.1078 16.1604 38.794C16.1667 38.4803 16.0725 38.1727 15.8916 37.9162C15.4835 37.4473 14.7794 37.4218 14.2028 37.1895C13.7538 37.3942 13.3439 37.6756 12.9915 38.0211C12.8183 38.1964 12.6929 38.4133 12.6275 38.6509C12.562 38.8885 12.5586 39.139 12.6175 39.3783Z" fill="url(#paint7_linear)"/>
<path d="M27.0764 43.3209C26.5664 43.7984 26.5366 44.6172 26.0847 45.1499C26.5805 45.5919 28.2976 47.2524 28.8742 47.3019C29.0964 47.294 29.3084 47.2064 29.4713 47.0549C29.6341 46.9035 29.737 46.6985 29.761 46.4774C29.7947 46.0333 29.7173 45.5878 29.5358 45.1811C29.3516 44.6522 29.167 44.1247 28.9819 43.5986C28.3401 43.1722 27.7847 42.6607 27.0764 43.3209Z" fill="url(#paint8_linear)"/>
<path d="M12.1481 3.64982C12.0645 3.24034 11.8359 2.87481 11.5043 2.62049C11.1726 2.36618 10.7603 2.24018 10.3432 2.26569C9.92829 2.31276 9.53564 2.47796 9.21191 2.74166C8.88818 3.00536 8.64699 3.35647 8.51698 3.75325C8.39537 4.15386 8.36026 4.57575 8.414 4.99096C8.46773 5.40616 8.60908 5.80522 8.82867 6.16168C8.92987 6.35687 9.07905 6.52312 9.26219 6.64478C9.86998 7.00321 10.5996 6.44928 11.0771 5.93642C11.4109 5.65594 11.6797 5.30609 11.8647 4.9112C12.0496 4.51632 12.1463 4.08588 12.1481 3.64982Z" fill="url(#paint9_linear)"/>
<path d="M2.684 7.92694C2.46629 7.713 2.20545 7.548 1.91887 7.44294C1.63229 7.33789 1.32656 7.2952 1.02217 7.31775C0.719368 7.35438 0.443153 7.50863 0.253101 7.74719C0.0630487 7.98574 -0.0255641 8.28948 0.0064006 8.5928C0.320539 9.45579 0.875657 10.2105 1.60589 10.7675C1.79167 10.8958 2.00173 10.9847 2.22316 11.0289C2.44458 11.073 2.67269 11.0714 2.89347 11.0242C3.11426 10.977 3.32305 10.8851 3.50703 10.7542C3.691 10.6233 3.8463 10.4562 3.96333 10.2631C3.82576 9.35789 3.37262 8.53042 2.684 7.92694Z" fill="url(#paint10_linear)"/>
<path d="M4.11543 2.03332C4.42413 2.10132 4.74641 2.07008 5.0363 1.94407C6.15411 1.09403 4.08142 0.25108 3.38721 0.0938237C3.02143 -0.0159966 2.63353 -0.0296589 2.26093 0.0541555C2.07615 0.100709 1.91133 0.205716 1.79108 0.353531C1.67084 0.501347 1.60159 0.684058 1.59363 0.874438C1.61913 1.38871 3.08121 1.91715 4.11543 2.03332Z" fill="url(#paint11_linear)"/>
<defs>
<linearGradient id="paint0_linear" x1="14.5684" y1="16.6047" x2="55" y2="16.6047" gradientUnits="userSpaceOnUse">
<stop stop-color="#0C8F9B"/>
<stop offset="1" stop-color="#244A6E"/>
</linearGradient>
<linearGradient id="paint1_linear" x1="140.604" y1="315.258" x2="154.066" y2="315.258" gradientUnits="userSpaceOnUse">
<stop stop-color="#0C8F9B"/>
<stop offset="1" stop-color="#244A6E"/>
</linearGradient>
<linearGradient id="paint2_linear" x1="177.082" y1="315.552" x2="189.333" y2="315.552" gradientUnits="userSpaceOnUse">
<stop stop-color="#0C8F9B"/>
<stop offset="1" stop-color="#244A6E"/>
</linearGradient>
<linearGradient id="paint3_linear" x1="16.6492" y1="24.123" x2="55" y2="24.123" gradientUnits="userSpaceOnUse">
<stop stop-color="#0C8F9B"/>
<stop offset="1" stop-color="#244A6E"/>
</linearGradient>
<linearGradient id="paint4_linear" x1="142.759" y1="315.259" x2="154.055" y2="315.259" gradientUnits="userSpaceOnUse">
<stop stop-color="#0C8F9B"/>
<stop offset="1" stop-color="#244A6E"/>
</linearGradient>
<linearGradient id="paint5_linear" x1="177.082" y1="315.579" x2="189.333" y2="315.579" gradientUnits="userSpaceOnUse">
<stop stop-color="#0C8F9B"/>
<stop offset="1" stop-color="#244A6E"/>
</linearGradient>
<linearGradient id="paint6_linear" x1="159.912" y1="322.466" x2="166.918" y2="322.466" gradientUnits="userSpaceOnUse">
<stop stop-color="#0C8F9B"/>
<stop offset="1" stop-color="#244A6E"/>
</linearGradient>
<linearGradient id="paint7_linear" x1="154.652" y1="326.863" x2="158.007" y2="326.863" gradientUnits="userSpaceOnUse">
<stop stop-color="#0C8F9B"/>
<stop offset="1" stop-color="#244A6E"/>
</linearGradient>
<linearGradient id="paint8_linear" x1="169.806" y1="325.065" x2="173.762" y2="325.065" gradientUnits="userSpaceOnUse">
<stop stop-color="#0C8F9B"/>
<stop offset="1" stop-color="#244A6E"/>
</linearGradient>
<linearGradient id="paint9_linear" x1="134.702" y1="297.692" x2="142.644" y2="297.692" gradientUnits="userSpaceOnUse">
<stop stop-color="#0C8F9B"/>
<stop offset="1" stop-color="#244A6E"/>
</linearGradient>
<linearGradient id="paint10_linear" x1="128.162" y1="306.097" x2="139.64" y2="306.097" gradientUnits="userSpaceOnUse">
<stop stop-color="#0C8F9B"/>
<stop offset="1" stop-color="#41309C"/>
<stop offset="1" stop-color="#244A6E"/>
</linearGradient>
<linearGradient id="paint11_linear" x1="-4.08738" y1="-269.788" x2="2.77278" y2="-269.788" gradientUnits="userSpaceOnUse">
<stop stop-color="#0C8F9B"/>
<stop offset="0.362" stop-color="#0C8F9B"/>
<stop offset="0.765" stop-color="#244A6E"/>
<stop offset="1" stop-color="#244A6E"/>
</linearGradient>
</defs>
</svg>
