<svg width="707" height="726" viewBox="0 0 707 726" fill="none" xmlns="http://www.w3.org/2000/svg">
<g clip-path="url(#clip0)">
<path d="M283.064 131.963C283.064 131.963 352.341 128.438 396.5 131.963C409.807 133.026 417.427 132.795 430.5 135.5C445 138.5 436 135.5 461.5 143.5C487 151.5 533.705 179.293 562.952 205.596C584.303 223.1 601.158 245.359 612.138 270.551C623.05 296.276 618.27 325.897 599.806 346.98C585.669 358.554 569.348 367.234 551.792 372.517C526.895 380.803 505.689 397.399 491.807 419.462C481.854 442.646 479.283 468.284 484.439 492.954C489.591 517.497 490.441 542.733 486.95 567.559C482.952 585.001 469.011 610.762 447.799 614.64C426.587 618.519 407.985 601.278 397.66 587.236C385.063 569.685 377.088 547.448 357.726 538.412C337.727 531.448 315.487 535.71 299.566 549.559C282.889 561.852 269.715 578.36 252.687 590.301C236.354 603.668 213.817 606.828 194.37 598.477C174.141 586.99 169.548 560.583 168.286 537.692C167.024 514.8 165.781 488.939 148.403 473.628C139.478 466.424 128.672 461.871 117.238 460.497C82.145 456.048 46.5563 463.314 16.1125 481.144C4.10401 487.727 -7.39374 495.184 -18.2859 503.452L-17.4713 379.434C0.485882 381.949 18.7108 377.223 33.1099 366.315C54.0731 354.209 76.422 344.621 99.6827 337.756C123.109 329.005 149.208 330.64 171.335 342.244C188.361 354.783 199.158 373.924 201.004 394.843C204.2 418.97 199.433 445.84 220.688 462.399C237.096 477.048 262.105 476.833 278.249 461.904C288.56 451.141 292.547 435.446 303.384 425.211C317.199 412.963 337.765 411.863 352.837 422.567C364.784 431.554 374.559 448.562 389.235 445.339C393.664 444.091 397.615 441.562 400.582 438.077C410.674 422.998 415.39 405.017 413.983 386.984C414.21 369.219 417.062 351.583 422.448 334.635C428.038 317.253 440.135 302.646 456.262 293.807C465.296 289.325 475.196 287.294 484.056 282.461C492.916 277.628 501.802 268.778 499.218 258.979C488.907 215.939 407.397 153.218 283.064 131.963Z" fill="#0B6375"/>
<path d="M218.163 183.4L452.163 251.4L381.218 592.491L122.999 524.839L218.163 183.4Z" fill="url(#paint0_linear)"/>
<path fill-rule="evenodd" clip-rule="evenodd" d="M376.61 600.07C376.521 600.051 376.434 600.032 376.345 600.009L123.638 541.08C114.695 538.993 109.202 529.978 111.45 521.075L118.412 493.497L127.483 457.563L185.216 228.866L192.297 200.817C195.311 188.878 205.956 180.878 217.71 180.711C216.691 181.687 215.923 182.957 215.557 184.445L132.781 520.667C131.986 523.893 133.738 527.204 136.857 528.35C162.228 537.658 211.71 549.479 259.63 559.885C308.52 570.501 355.785 579.643 374.154 583.141C378.6 583.987 382.894 581.084 383.768 576.645L447.469 252.729C448.223 248.888 445.75 245.189 441.964 244.367C441.862 244.344 441.757 244.324 441.654 244.306C432.819 242.783 423.862 241.019 414.85 239.062C349.825 224.942 282.379 200.878 245.667 186.837L444.103 236.931C456.213 239.988 463.802 251.998 461.365 264.246L430.774 417.991L425.675 443.618L424.712 448.455L420.591 469.171L397.236 586.545C395.876 593.376 390.676 598.441 384.352 599.978C381.889 600.581 379.255 600.645 376.611 600.071L376.61 600.07Z" fill="url(#paint1_linear)"/>
<path fill-rule="evenodd" clip-rule="evenodd" d="M161.975 544.713L161.943 544.705L133.888 537.234C124.468 534.726 118.745 524.997 121.131 515.545L131.859 473.048C131.953 472.677 132.328 472.455 132.703 472.543C133.074 472.639 133.3 473.015 133.206 473.389L122.478 515.885C120.277 524.602 125.555 533.58 134.245 535.893L162.301 543.362C162.671 543.462 162.892 543.842 162.793 544.212C162.697 544.572 162.336 544.791 161.975 544.713Z" fill="#2BC8D7"/>
<path fill-rule="evenodd" clip-rule="evenodd" d="M135.383 460.331L135.361 460.326C134.988 460.232 134.763 459.854 134.857 459.483L136.595 452.601C136.688 452.231 137.067 452.009 137.438 452.096C137.809 452.193 138.035 452.568 137.941 452.942L136.204 459.824C136.112 460.189 135.748 460.41 135.383 460.331Z" fill="#0FA3B1"/>
<path fill-rule="evenodd" clip-rule="evenodd" d="M259.525 561.405C211.428 550.961 161.763 539.095 136.301 529.745C133.17 528.594 131.413 525.266 132.212 522.022L215.429 183.935C215.797 182.438 216.569 181.161 217.592 180.179C219.411 178.434 222.027 177.624 224.6 178.183C225.023 178.275 225.444 178.403 225.861 178.571C230.648 180.496 237.374 183.159 245.651 186.327C282.497 200.431 350.189 224.601 415.453 238.773C424.499 240.737 433.489 242.507 442.357 244.035C442.46 244.053 442.565 244.074 442.668 244.096C446.467 244.921 448.948 248.639 448.19 252.501L384.125 578.208C383.246 582.673 378.935 585.593 374.472 584.744C356.035 581.234 308.595 572.06 259.525 561.404L259.525 561.405ZM225.766 187.349C221.896 186.509 217.924 188.885 216.94 192.884L136.856 518.239C136.088 521.36 137.778 524.566 140.791 525.672C165.295 534.667 213.087 546.088 259.374 556.139C306.596 566.393 352.253 575.222 369.995 578.601C374.289 579.419 378.438 576.607 379.283 572.311L440.935 258.869C441.667 255.152 439.28 251.574 435.619 250.779C435.523 250.758 435.421 250.738 435.321 250.721C426.79 249.252 418.136 247.547 409.432 245.657C332.514 228.955 252.093 197.822 226.978 187.722C226.577 187.561 226.172 187.437 225.765 187.349L225.766 187.349Z" fill="url(#paint2_linear)"/>
<path fill-rule="evenodd" clip-rule="evenodd" d="M374.287 475.52L374.26 475.514L259.968 447.93C263.375 446.476 266.61 444.662 269.614 442.533L375.609 469.626C376.283 469.798 376.707 470.495 376.55 471.171L375.768 474.578C375.617 475.246 374.954 475.664 374.288 475.52L374.287 475.52Z" fill="#D5330D"/>
<path fill-rule="evenodd" clip-rule="evenodd" d="M208.023 455.569C205.061 454.926 200.579 454.192 196.623 453.546C194.573 453.211 192.711 452.903 191.363 452.662C190.751 452.549 190.135 452.676 189.673 453.009C189.295 453.282 189.052 453.672 188.989 454.108L187.05 467.589C186.847 468.998 187.889 470.375 189.474 470.79L205.226 474.924C206.679 475.24 208.09 474.512 208.439 473.267C210.101 467.325 211.589 461.736 211.537 458.694C211.516 457.358 210.422 456.132 208.938 455.777C208.654 455.709 208.348 455.64 208.023 455.569ZM204.931 476.282C204.866 476.268 204.8 476.253 204.734 476.236L189.12 472.135C186.853 471.539 185.372 469.498 185.675 467.39L187.614 453.909C187.731 453.098 188.174 452.38 188.861 451.883C189.627 451.332 190.629 451.117 191.611 451.294C192.952 451.537 194.807 451.84 196.848 452.173C201.264 452.896 206.354 453.733 209.261 454.426C211.385 454.936 212.893 456.681 212.927 458.669C212.981 461.899 211.467 467.595 209.776 473.641C209.23 475.593 207.102 476.753 204.931 476.282Z" fill="#D5330D"/>
<path fill-rule="evenodd" clip-rule="evenodd" d="M192.793 454.531C196.138 455.134 203.467 456.215 206.867 457.028C208.307 457.373 209.348 458.559 209.371 459.888C209.414 462.472 208.111 467.271 206.874 471.691C206.503 473.016 205.011 473.77 203.52 473.379L191.043 470.101C189.508 469.7 188.496 468.327 188.697 466.926L190.248 456.152C190.408 455.04 191.553 454.307 192.793 454.531Z" fill="#D5330D"/>
<path fill-rule="evenodd" clip-rule="evenodd" d="M221.161 465.982C220.488 465.81 219.945 466.234 219.952 466.93L220.013 472.746C220.02 473.442 220.579 474.142 221.254 474.305L366.278 509.305C366.954 509.468 367.633 509.05 367.789 508.373L368.572 504.963C368.725 504.286 368.301 503.59 367.628 503.418L221.161 465.982L221.161 465.982Z" fill="#D5330D"/>
<path fill-rule="evenodd" clip-rule="evenodd" d="M199.91 489.339C196.948 488.696 192.465 487.961 188.51 487.313C186.461 486.977 184.598 486.673 183.25 486.429C182.638 486.318 182.022 486.446 181.559 486.779C181.181 487.052 180.938 487.442 180.876 487.874L178.937 501.355C178.734 502.765 179.776 504.141 181.36 504.56L197.112 508.694C198.566 509.01 199.977 508.279 200.326 507.034C201.988 501.091 203.476 495.505 203.425 492.461C203.402 491.128 202.309 489.902 200.824 489.547C200.541 489.476 200.235 489.409 199.91 489.339ZM196.818 510.052C196.752 510.037 196.687 510.02 196.622 510.003L181.008 505.901C178.74 505.306 177.259 503.265 177.562 501.157L179.502 487.676C179.618 486.865 180.061 486.146 180.747 485.653C181.514 485.099 182.516 484.883 183.498 485.061C184.839 485.304 186.694 485.61 188.734 485.943C193.151 486.666 198.239 487.5 201.147 488.196C203.273 488.702 204.78 490.448 204.813 492.439C204.868 495.669 203.355 501.362 201.663 507.408C201.117 509.36 198.988 510.523 196.818 510.052Z" fill="#D5330D"/>
<path fill-rule="evenodd" clip-rule="evenodd" d="M184.76 487.927C188.104 488.534 195.434 489.612 198.834 490.424C200.274 490.769 201.315 491.955 201.338 493.285C201.381 495.869 200.077 500.668 198.84 505.09C198.47 506.412 196.978 507.167 195.487 506.775L183.009 503.5C181.475 503.096 180.463 501.726 180.664 500.323L182.214 489.552C182.374 488.437 183.52 487.703 184.76 487.927Z" fill="#D5330D"/>
<path fill-rule="evenodd" clip-rule="evenodd" d="M212.382 499.217C211.709 499.044 211.165 499.472 211.172 500.165L211.234 505.981C211.241 506.677 211.799 507.38 212.474 507.543L357.5 542.543C358.175 542.706 358.854 542.285 359.008 541.607L359.79 538.198C359.947 537.521 359.522 536.828 358.849 536.656L212.382 499.216L212.382 499.217Z" fill="#D5330D"/>
<path fill-rule="evenodd" clip-rule="evenodd" d="M343.366 184.478C339.936 183.612 337.858 180.13 338.724 176.701C339.59 173.271 343.072 171.193 346.501 172.059C349.931 172.924 352.009 176.406 351.143 179.836C350.277 183.265 346.795 185.344 343.366 184.478ZM358.969 168.814C352.434 161.297 345.512 159.667 340.298 159.873C335.542 160.062 331.594 163.612 330.854 168.314L327.181 191.685L351.526 200.181C351.526 200.181 371.786 183.556 358.969 168.814Z" fill="url(#paint3_linear)"/>
<path fill-rule="evenodd" clip-rule="evenodd" d="M333.299 175.481C332.942 175.403 332.704 175.059 332.761 174.694L333.205 171.868C333.915 167.353 337.729 163.945 342.273 163.765C345.479 163.638 348.585 164.287 351.505 165.696C351.851 165.863 351.996 166.278 351.829 166.623C351.663 166.969 351.248 167.115 350.902 166.947C348.189 165.639 345.304 165.035 342.329 165.153C338.444 165.307 335.185 168.222 334.578 172.084L334.133 174.91C334.074 175.289 333.718 175.548 333.339 175.488L333.299 175.481ZM332.153 182.774C331.796 182.697 331.557 182.353 331.614 181.988L332.2 178.266C332.259 177.887 332.615 177.628 332.994 177.688C333.379 177.755 333.631 178.103 333.572 178.482L332.987 182.203C332.927 182.582 332.572 182.841 332.193 182.782L332.153 182.774Z" fill="#2BC8D7"/>
<path fill-rule="evenodd" clip-rule="evenodd" d="M289.288 197.827L292.187 186.342C293.188 182.378 297.275 180.032 301.203 181.168L379.697 203.87C383.181 204.877 385.327 208.369 384.653 211.933L382.528 223.134L289.288 197.827L289.288 197.827Z" fill="url(#paint4_linear)"/>
<path d="M322.363 191.192L322.34 191.187L318.935 190.327C318.563 190.233 318.337 189.856 318.431 189.483C318.525 189.112 318.888 188.889 319.275 188.98L322.68 189.84C323.052 189.934 323.278 190.312 323.183 190.684C323.092 191.048 322.728 191.271 322.363 191.192Z" fill="#2BC8D7"/>
<path fill-rule="evenodd" clip-rule="evenodd" d="M294.481 195.165L294.458 195.159C294.087 195.066 293.861 194.688 293.955 194.316L295.128 189.67C296.044 186.041 299.747 183.845 303.372 184.749L315.891 187.91C316.263 188.004 316.488 188.381 316.395 188.753C316.301 189.125 315.918 189.35 315.551 189.257L303.032 186.096C300.151 185.377 297.204 187.123 296.475 190.01L295.302 194.656C295.21 195.02 294.846 195.244 294.481 195.165Z" fill="#2BC8D7"/>
<path fill-rule="evenodd" clip-rule="evenodd" d="M265.841 187.534L404.303 222.483C409.283 223.74 412.633 228.397 412.245 233.517L412.192 234.224C411.765 239.832 406.386 243.702 400.934 242.326L258.881 206.466C255.617 205.642 253.705 202.256 254.685 199.036L256.595 192.755C257.79 188.827 261.859 186.528 265.841 187.534L265.841 187.534Z" fill="url(#paint5_linear)"/>
<path fill-rule="evenodd" clip-rule="evenodd" d="M380.079 322.155C380.338 321.246 380.207 320.271 379.717 319.463C369.104 301.938 352.604 287.97 332.062 280.806C331.171 280.495 330.191 280.571 329.358 281.014C328.525 281.458 327.912 282.228 327.672 283.141L319.201 315.412C318.769 317.059 319.626 318.762 321.204 319.402C330.743 323.27 338.709 329.877 344.235 338.04C345.187 339.445 347.033 339.93 348.548 339.17L378.343 324.244C379.187 323.821 379.817 323.063 380.079 322.155Z" fill="url(#paint6_linear)"/>
<path fill-rule="evenodd" clip-rule="evenodd" d="M318.181 277.378C296.769 273.529 275.524 277.59 257.671 287.644C256.848 288.107 256.257 288.893 256.038 289.812C255.82 290.73 255.994 291.701 256.522 292.484L275.13 320.111C276.082 321.524 277.927 322.005 279.45 321.242C288.25 316.833 298.29 314.951 308.69 316.326C310.379 316.549 311.988 315.486 312.421 313.839L320.889 281.575C321.129 280.662 320.961 279.686 320.452 278.89C319.944 278.095 319.11 277.545 318.181 277.378Z" fill="url(#paint7_linear)"/>
<path fill-rule="evenodd" clip-rule="evenodd" d="M386.651 332.408C386.295 331.533 385.591 330.847 384.707 330.514C383.823 330.181 382.84 330.23 381.996 330.652L352.196 345.602C350.673 346.364 349.96 348.131 350.519 349.737C353.408 358.024 354.172 367.194 352.391 376.262C352.046 378.014 353.12 379.733 354.847 380.186L386.995 388.625C387.885 388.858 388.833 388.719 389.618 388.24C390.401 387.76 390.958 386.982 391.156 386.083C395.28 367.523 393.357 348.927 386.651 332.408Z" fill="url(#paint8_linear)"/>
<path fill-rule="evenodd" clip-rule="evenodd" d="M239.266 350.119L217.805 344.486C216.915 344.252 216.159 343.664 215.711 342.862C215.262 342.059 215.16 341.108 215.427 340.228C220.952 322.037 231.754 306.804 245.71 295.711C246.449 295.123 247.399 294.87 248.332 295.013C248.401 295.023 248.469 295.036 248.537 295.051C249.386 295.235 250.135 295.74 250.623 296.464L269.249 324.066C270.201 325.477 269.961 327.369 268.684 328.494C262.097 334.299 256.921 341.932 254.021 350.712C253.845 351.244 253.55 351.705 253.173 352.073C252.191 351.799 251.196 351.553 250.187 351.334C246.522 350.539 242.868 350.143 239.266 350.119Z" fill="#D5330D"/>
<path fill-rule="evenodd" clip-rule="evenodd" d="M303.8 358.208C302.896 357.971 301.948 358.3 301.386 359.047C300.627 360.057 300.83 361.496 301.84 362.256C302.08 362.436 302.347 362.566 302.634 362.641C303.538 362.879 304.486 362.549 305.048 361.802C305.416 361.313 305.571 360.71 305.486 360.104C305.4 359.498 305.083 358.961 304.595 358.594C304.354 358.413 304.087 358.283 303.8 358.208ZM299.221 373.478C294.749 372.304 291.334 368.77 290.31 364.256C289.504 360.707 289.762 355.561 295.562 351.196C303.738 345.041 323.038 327.059 330.956 319.615C331.639 318.972 332.589 318.73 333.497 318.968C333.83 319.056 334.14 319.205 334.419 319.41C335.471 320.188 335.816 321.606 335.241 322.781L315.076 363.786C314.893 364.276 314.039 366.438 312.419 368.706C309.594 372.663 304.688 374.6 299.922 373.641C299.686 373.593 299.452 373.539 299.221 373.478Z" fill="url(#paint9_linear)"/>
<path fill-rule="evenodd" clip-rule="evenodd" d="M300.786 363.436C299.057 362.135 298.71 359.679 300.01 357.95C301.311 356.221 303.767 355.874 305.496 357.174C307.225 358.475 307.572 360.931 306.272 362.66C304.971 364.389 302.515 364.736 300.786 363.436ZM313.503 363.026L333.705 321.944C333.933 321.475 333.797 320.909 333.377 320.599C332.956 320.288 332.374 320.322 331.993 320.68C323.452 328.711 304.618 346.238 296.463 352.376C291.615 356.025 291.018 360.247 291.819 363.777C292.755 367.901 296.021 371.092 300.167 371.927C304.312 372.761 308.562 371.083 311.019 367.642C312.71 365.275 313.503 363.026 313.503 363.026Z" fill="url(#paint10_linear)"/>
<path fill-rule="evenodd" clip-rule="evenodd" d="M387.176 412.332L210.596 370.826C209.183 370.493 207.437 369.596 206.717 368.832L202.612 364.478C203.666 363.982 204.745 363.506 205.857 363.047L382.455 405.307C384.265 407.626 385.845 409.974 387.176 412.332L387.176 412.332Z" fill="#D5330D"/>
<path fill-rule="evenodd" clip-rule="evenodd" d="M382.265 434.396L206.17 393.271C204.829 392.958 203.164 392.147 202.471 391.469L197.19 386.307C196.518 385.65 196.992 385.353 198.24 385.624C198.281 385.633 198.322 385.643 198.364 385.652L383.27 429.551C383.188 430.441 383.052 431.326 382.861 432.204C382.699 432.949 382.501 433.677 382.265 434.396L382.265 434.396Z" fill="#D5330D"/>
<path fill-rule="evenodd" clip-rule="evenodd" d="M216.441 421.838C213.479 421.194 208.997 420.46 205.041 419.814C202.991 419.479 201.129 419.172 199.781 418.931C199.169 418.817 198.553 418.945 198.091 419.278C197.713 419.551 197.47 419.941 197.407 420.376L195.468 433.857C195.265 435.267 196.307 436.643 197.891 437.058L213.644 441.193C215.097 441.508 216.508 440.781 216.857 439.535C218.519 433.593 220.007 428.004 219.955 424.962C219.934 423.627 218.84 422.4 217.355 422.046C217.072 421.978 216.766 421.908 216.441 421.838ZM213.349 442.55C213.283 442.536 213.218 442.522 213.152 442.504L197.538 438.403C195.271 437.807 193.79 435.767 194.093 433.659L196.032 420.178C196.149 419.366 196.592 418.648 197.279 418.152C198.045 417.601 199.047 417.385 200.029 417.563C201.37 417.806 203.225 418.108 205.266 418.442C209.682 419.165 214.772 420.002 217.679 420.694C219.803 421.204 221.311 422.95 221.345 424.938C221.399 428.167 219.885 433.864 218.194 439.91C217.648 441.862 215.52 443.022 213.349 442.55Z" fill="#D5330D"/>
<path fill-rule="evenodd" clip-rule="evenodd" d="M260.101 447.955L229.367 440.538C228.692 440.375 228.134 439.672 228.126 438.979L228.064 433.164C228.057 432.484 228.577 432.06 229.229 432.202L229.275 432.212L269.748 442.557C266.743 444.687 263.508 446.501 260.101 447.955Z" fill="#D5330D"/>
<path fill-rule="evenodd" clip-rule="evenodd" d="M204.334 438.052C204.334 438.052 200.192 435.111 198.545 426.056C198.307 424.751 199.093 423.468 200.369 423.096C200.779 422.978 201.196 422.968 201.586 423.053C202.462 423.243 203.206 423.905 203.455 424.835L205.146 431.147C205.229 431.462 205.472 431.66 205.745 431.719C206.023 431.78 206.333 431.695 206.538 431.436L214.152 421.814L215.124 420.584L218.498 416.322C218.735 416.022 219.066 415.938 219.363 416.003C219.815 416.101 220.189 416.544 220.039 417.103C219.712 418.324 219.246 419.787 218.59 421.392C218.42 421.807 218.236 422.236 218.039 422.668C215.769 427.667 211.671 433.694 204.334 438.052Z" fill="#D5330D"/>
<path fill-rule="evenodd" clip-rule="evenodd" d="M249.897 352.824C249.849 352.814 249.801 352.802 249.754 352.79L239.067 349.985C242.669 350.009 246.323 350.404 249.988 351.2C250.997 351.419 251.992 351.665 252.974 351.939C252.184 352.711 251.037 353.072 249.897 352.824Z" fill="#D5330D"/>
<path d="M89.5949 549C89.5949 549 80.1042 545.736 64.698 545.743C64.4669 545.743 64.2358 545.743 64 545.746C64.228 545.702 64.4591 545.655 64.6887 545.609C77.4722 542.961 89.1095 535 89.1095 535C89.1095 535 95.2763 541.188 89.5949 549Z" fill="#244A6E"/>
<path d="M66.7187 545H66.4503C65.224 545.387 64.2556 545.709 63 546C63 546 63.2583 546.5 63.5006 546.5C79.6556 546.491 88.8393 550 88.8393 550C89.2963 549.297 89.6801 548.605 90.0005 547.925C85.9687 546.793 77.8042 544.993 66.7187 545Z" fill="#0A2239"/>
<path d="M90 535.862C89.5657 535.305 89.2423 535 89.2423 535C89.2423 535 80.077 540.858 69 544C77.6898 542.17 85.7534 538.2 90 535.862Z" fill="#0A2239"/>
<path d="M111 420.829C109.612 423.933 108.022 426.488 106.494 428.152C101.757 433.316 98.712 435.525 93.8613 435.93C91.908 436.093 89.6613 435.963 86.8959 435.617C84.688 435.339 82.2813 435.26 79.8762 435.301H79.8731C78.2428 433.219 76.3314 431.581 74.2104 430.539C70.2386 428.582 65.5355 428.705 60.5436 431.884C59.8185 432.345 59.1586 432.817 58.5561 433.29C58.3714 433.433 58.1943 433.579 58.022 433.726C56.5112 432.74 54.8498 431.533 53.2335 430.121L53.2288 430.119C50.5753 427.797 48.0444 424.934 46.4808 421.568C41.9423 411.8 42.495 392.044 57.8854 380.849C71.6376 370.849 90.8662 370.309 103.89 379.777C103.854 379.754 103.819 379.728 103.783 379.705C103.783 379.705 86.8742 384.166 72.8891 400.798C71.7308 400.246 70.6501 400.411 70.6501 400.411C67.2885 401.326 66.2622 404.666 65.9982 407.301C65.7311 409.935 67.0028 412.569 70.6501 412.422C72.209 412.36 73.4915 411.711 74.3719 410.635C75.6342 411.611 77.3111 412.615 79.5284 413.593C90.4765 418.422 101.997 422.213 111 420.829Z" fill="#0C8F9B"/>
<path d="M74.6259 411.108C73.7517 412.152 72.478 412.783 70.9299 412.842C67.8461 412.964 66.4722 411.127 66.2965 409C66.1716 409.542 66.0868 410.081 66.0343 410.592C65.7676 413.149 67.032 415.706 70.6539 415.563C72.2005 415.503 73.4741 414.873 74.3499 413.829C75.6035 414.776 77.2673 415.751 79.4707 416.7C89.8679 421.182 100.785 424.741 109.54 423.867C110.042 422.982 110.533 422.024 111 421.003C102.06 422.346 90.6188 418.666 79.7467 413.98C77.5448 413.03 75.8795 412.056 74.6259 411.108Z" fill="#0C7489"/>
<path d="M108.712 421.234C107.598 423.366 106.401 425.137 105.244 426.393C100.534 431.499 97.505 433.683 92.6824 434.083C90.7405 434.245 88.5067 434.117 85.7574 433.774C83.5623 433.499 81.1711 433.421 78.7783 433.461H78.7752C77.1559 431.403 75.254 429.783 73.1454 428.753C69.1981 426.818 64.5207 426.939 59.5577 430.083C58.8368 430.539 58.1807 431.005 57.5833 431.474C57.3996 431.615 57.2221 431.758 57.0507 431.905C55.5487 430.93 53.8969 429.736 52.2899 428.34L52.2853 428.337C50.7617 427.012 49.2797 425.506 48 423.831C49.5113 426.264 51.4996 428.389 53.5635 430.185L53.5681 430.187C55.1751 431.583 56.8269 432.777 58.3289 433.752C58.5003 433.606 58.6762 433.462 58.8599 433.321C59.4589 432.853 60.115 432.386 60.8359 431.931C65.7989 428.787 70.4747 428.666 74.4235 430.601C76.5322 431.631 78.4325 433.251 80.0534 435.309H80.0565C82.4477 435.268 84.8404 435.347 87.0356 435.621C89.7849 435.964 92.0187 436.092 93.9606 435.931C98.7831 435.53 101.81 433.346 106.52 428.24C108.039 426.595 109.62 424.068 111 421C110.256 421.114 109.49 421.189 108.712 421.234Z" fill="#0C7489"/>
<path d="M71.6503 399.074C70.4898 398.514 65.0167 409.02 66.266 410C66.0186 409.247 65.9502 408.407 66.0342 407.567C66.2987 404.894 67.327 401.505 70.6951 400.577C70.6951 400.577 71.7779 400.409 72.9385 400.97C86.9509 384.096 103.893 379.57 103.893 379.57C103.928 379.593 103.964 379.619 104 379.642C103.205 379.057 102.387 378.51 101.548 378C97.6387 379.291 83.5843 384.704 71.6503 399.074Z" fill="#0C7489"/>
<path d="M60 499.245C59.9679 499.343 59.9342 499.44 59.9005 499.54C58.41 504.12 57.7535 508.924 57.6418 513.627C44.8943 519.184 37.529 513.239 37.529 513.239C27.5988 489.818 37.0944 433.591 37.0944 433.591C43.7282 430.265 49.4103 429.829 53.0187 430.047L53.0233 430.049C54.6164 431.47 56.2538 432.686 57.7428 433.678C48.9344 441.253 54.3363 449.831 54.3363 449.831C54.3363 449.831 49.6414 464.854 53.6798 473.691C46.6955 482.528 56.6257 485.954 56.6257 485.954C56.6257 485.954 57.1628 492.378 60 499.245Z" fill="#D5330D"/>
<path fill-rule="evenodd" clip-rule="evenodd" d="M53.8792 430.946C53.891 430.947 53.9022 430.948 53.9127 430.949C53.8832 430.947 53.8575 430.945 53.8318 430.944C53.8061 430.942 53.7803 430.94 53.7509 430.938C53.7958 430.941 53.8408 430.944 53.8792 430.946ZM53.1001 483.667L53.1001 483.667C51.8645 482.379 50.9598 480.54 51.6129 478.06C50.96 480.54 51.866 482.38 53.1017 483.668L53.1006 483.667C53.1002 483.667 53.1002 483.667 53.1001 483.667ZM52.4448 478.154C52.4497 478.135 52.4546 478.116 52.46 478.097C52.4546 478.116 52.4497 478.135 52.4448 478.154ZM52.5036 477.984C52.484 478.021 52.4709 478.059 52.46 478.097C52.4709 478.06 52.484 478.023 52.5036 477.984ZM52.4808 478.049C52.47 478.076 52.4592 478.102 52.452 478.129C52.4594 478.102 52.4704 478.074 52.4814 478.047C52.4882 478.03 52.495 478.013 52.5009 477.996L52.5021 477.993C52.4957 478.012 52.4882 478.03 52.4808 478.049ZM52.5036 477.988C52.5091 477.975 52.5141 477.961 52.5181 477.947C52.5138 477.963 52.5082 477.978 52.5021 477.993L52.5036 477.988ZM52.5026 477.991C52.5057 477.982 52.5084 477.973 52.5108 477.964C52.5087 477.972 52.5063 477.981 52.5036 477.988L52.5026 477.991ZM52.5026 477.991C52.4982 478.002 52.4935 478.013 52.4887 478.024C52.4929 478.015 52.497 478.005 52.5009 477.996L52.5026 477.991ZM52.4887 478.024C52.4776 478.049 52.4666 478.074 52.4592 478.101C52.4666 478.076 52.4776 478.05 52.4886 478.024L52.4887 478.024Z" fill="#878787"/>
<path d="M53.0979 484C51.3406 483.252 44.3066 479.634 50.5082 471.774C46.4401 462.855 51.1679 447.694 51.1679 447.694C51.1679 447.694 45.7279 439.037 54.6009 431.391C53.9674 430.968 53.306 430.502 52.6324 430C52.8143 430.007 52.9916 430.015 53.1627 430.024C53.1688 430.025 53.175 430.025 53.1796 430.025C53.1858 430.026 53.192 430.026 53.1981 430.027C53.2136 430.027 53.2274 430.028 53.2413 430.029L53.2459 430.032C54.8507 431.466 56.5001 432.692 58 433.694C54.0136 437.128 52.916 440.767 52.9176 443.733C52.9176 447.37 54.5686 449.996 54.5686 449.996C54.5686 449.996 52.2563 457.409 52.2563 464.917C52.2563 468.146 52.6833 471.394 53.9072 474.076C53.8995 474.085 53.8934 474.094 53.8857 474.103C53.881 474.108 53.878 474.114 53.8733 474.12C53.8702 474.123 53.8672 474.126 53.8656 474.129C53.861 474.135 53.8564 474.14 53.8533 474.145C53.8502 474.149 53.8471 474.152 53.844 474.156C53.8394 474.162 53.8348 474.168 53.8302 474.174C53.8286 474.177 53.8255 474.18 53.824 474.183C53.8194 474.188 53.8163 474.193 53.8117 474.198C53.8086 474.202 53.8055 474.206 53.8024 474.21C53.7978 474.215 53.7947 474.221 53.7901 474.226C53.787 474.229 53.7839 474.233 53.7824 474.236C53.7778 474.242 53.7731 474.247 53.7685 474.253C53.767 474.256 53.7639 474.259 53.7623 474.262C53.7577 474.268 53.7515 474.275 53.7469 474.282C53.7454 474.284 53.7438 474.285 53.7423 474.287C53.7377 474.294 53.733 474.3 53.7284 474.306C53.7269 474.309 53.7238 474.312 53.7223 474.315C53.7161 474.321 53.7115 474.327 53.7068 474.334C53.7053 474.336 53.7038 474.338 53.7022 474.34C53.6976 474.347 53.693 474.353 53.6868 474.36C53.6868 474.361 53.6837 474.364 53.6822 474.366C53.6714 474.381 53.6591 474.397 53.6467 474.413V474.414C53.6082 474.465 53.5712 474.515 53.5342 474.566C53.5326 474.566 53.5326 474.567 53.5326 474.567C53.5203 474.584 53.5095 474.599 53.4972 474.616C53.4957 474.617 53.4957 474.618 53.4941 474.619C53.4895 474.627 53.4833 474.635 53.4772 474.642C53.4772 474.643 53.4772 474.644 53.4756 474.644C53.471 474.651 53.4648 474.66 53.4602 474.667C53.4587 474.668 53.4571 474.67 53.4571 474.671C53.4448 474.687 53.434 474.703 53.4217 474.719C53.4217 474.72 53.4217 474.72 53.4201 474.721C52.7773 475.615 52.3102 476.452 51.988 477.233C51.9865 477.234 51.9865 477.236 51.9865 477.236C51.9834 477.243 51.9803 477.249 51.9788 477.256C51.9772 477.257 51.9772 477.258 51.9772 477.259C51.9742 477.264 51.9726 477.27 51.9695 477.276C51.9695 477.278 51.968 477.281 51.9665 477.283C51.9649 477.289 51.9618 477.294 51.9603 477.299C51.9603 477.301 51.9587 477.303 51.9572 477.305C51.9557 477.311 51.9541 477.316 51.951 477.321C51.951 477.323 51.9495 477.325 51.9495 477.327C51.9464 477.333 51.9449 477.339 51.9418 477.344C51.9418 477.346 51.9418 477.347 51.9402 477.349C51.9387 477.354 51.9356 477.36 51.9341 477.365C51.9325 477.369 51.931 477.372 51.9295 477.376C51.9279 477.38 51.9264 477.385 51.9248 477.389C51.9248 477.39 51.9233 477.393 51.9218 477.395C51.9202 477.4 51.9187 477.405 51.9156 477.411C51.9156 477.412 51.9156 477.413 51.914 477.414C51.911 477.425 51.9063 477.436 51.9017 477.448C51.9002 477.45 51.9002 477.453 51.8986 477.455C51.8955 477.463 51.894 477.469 51.8909 477.476V477.477C51.8894 477.482 51.8863 477.487 51.8848 477.492C51.8832 477.495 51.8832 477.497 51.8817 477.5C51.8801 477.505 51.8786 477.509 51.877 477.514C51.8755 477.516 51.874 477.519 51.874 477.522C51.8724 477.526 51.8709 477.53 51.8693 477.534C51.8678 477.538 51.8663 477.542 51.8647 477.546C51.8632 477.549 51.8632 477.552 51.8616 477.555C51.8601 477.56 51.8585 477.564 51.857 477.569C51.8555 477.572 51.8539 477.574 51.8539 477.577C51.8508 477.582 51.8493 477.587 51.8478 477.592C51.8462 477.595 51.8462 477.597 51.8447 477.6C51.8431 477.605 51.8416 477.609 51.84 477.614C51.8385 477.617 51.8385 477.619 51.837 477.622C51.8354 477.628 51.8323 477.633 51.8308 477.639C51.8308 477.64 51.8293 477.642 51.8293 477.644C51.8277 477.65 51.8246 477.656 51.8231 477.661C51.8216 477.663 51.8216 477.665 51.8216 477.666C51.8185 477.673 51.8169 477.678 51.8154 477.685C51.8138 477.686 51.8138 477.688 51.8123 477.689C50.818 480.524 51.7645 482.589 53.0979 484Z" fill="#A12507"/>
<path fill-rule="evenodd" clip-rule="evenodd" d="M56.8897 486.091C56.8042 486.061 55.2344 485.507 53.7962 484.312C55.2365 485.507 56.8042 486.061 56.8897 486.091ZM53.7962 484.312C53.6984 484.231 53.6012 484.147 53.5051 484.06C53.5051 484.059 53.5047 484.059 53.5043 484.059C53.5039 484.059 53.5035 484.059 53.5035 484.059C53.6002 484.146 53.6979 484.231 53.7962 484.312ZM47.335 516.081C50.1516 516.08 53.5378 515.524 57.43 513.919C53.5362 515.524 50.1516 516.08 47.335 516.081Z" fill="#878787"/>
<path d="M129.413 451.154L129.415 451.157C128.829 458.783 132.768 462.897 134.492 464.441C134.611 464.549 134.72 464.643 134.815 464.726L134.82 464.73C135.036 464.915 135.183 465.038 135.243 465.105C136.656 465.711 137.957 466.082 138.824 466.216C142.612 466.803 149.308 465.056 154.548 461.926C159.791 458.795 165.005 453.585 160.691 447.489C157.826 443.444 151.114 446.911 145.772 448.913C140.43 450.914 145.55 447.916 147.089 444.575C148.625 441.233 145.289 440.627 139.634 443.271C133.981 445.918 129.545 450.96 129.545 450.96C129.499 451.026 129.456 451.09 129.413 451.154Z" fill="#244A6E"/>
<path d="M143.448 447.521C143.662 447.582 144.264 447.428 145.44 446.996C145.95 446.402 146.46 445.741 146.846 445.056L146.847 445.053C146.854 445.04 146.861 445.028 146.867 445.015L146.869 445.015C146.874 445.002 146.882 444.99 146.889 444.977C146.89 444.975 146.89 444.973 146.893 444.972C146.897 444.961 146.902 444.951 146.909 444.941C146.91 444.938 146.911 444.934 146.913 444.932C146.919 444.92 146.926 444.908 146.931 444.896L146.931 444.896C146.938 444.884 146.944 444.872 146.951 444.861C146.952 444.857 146.955 444.853 146.956 444.848C146.96 444.841 146.965 444.833 146.969 444.825C146.972 444.821 146.973 444.816 146.976 444.812C146.981 444.801 146.986 444.79 146.993 444.779C146.994 444.775 146.997 444.771 146.999 444.767C147.003 444.759 147.007 444.751 147.011 444.744C147.012 444.739 147.015 444.735 147.017 444.73C147.021 444.722 147.025 444.713 147.03 444.705C147.031 444.701 147.034 444.698 147.035 444.694C147.04 444.683 147.045 444.671 147.052 444.66C147.053 444.657 147.054 444.652 147.057 444.649C147.061 444.641 147.064 444.632 147.068 444.623C147.071 444.62 147.072 444.616 147.073 444.612C147.08 444.6 147.086 444.589 147.091 444.577C147.096 444.566 147.101 444.555 147.106 444.544L147.108 444.537C147.118 444.515 147.128 444.493 147.138 444.472L147.14 444.465C147.145 444.454 147.15 444.444 147.154 444.434L147.155 444.433C147.16 444.422 147.163 444.411 147.168 444.4C147.168 444.398 147.169 444.396 147.172 444.394C147.174 444.384 147.179 444.374 147.184 444.365L147.184 444.362C147.189 444.351 147.192 444.34 147.197 444.33L147.199 444.324C147.204 444.314 147.206 444.305 147.211 444.296L147.212 444.291C147.217 444.281 147.22 444.27 147.225 444.26L147.227 444.254C147.231 444.246 147.233 444.237 147.237 444.229L147.24 444.221C147.242 444.211 147.247 444.202 147.25 444.193C147.251 444.189 147.254 444.186 147.255 444.182L147.26 444.163C147.263 444.159 147.264 444.155 147.265 444.151C147.268 444.143 147.272 444.135 147.274 444.127L147.278 444.111C147.282 444.107 147.283 444.103 147.284 444.098L147.289 444.082C147.292 444.078 147.293 444.075 147.294 444.072L147.303 444.04C147.305 444.038 147.306 444.035 147.306 444.033C147.561 443.25 147.501 442.653 147.17 442.249C147.131 442.347 147.089 442.449 147.04 442.553C145.896 445.038 142.777 447.331 143.448 447.521Z" fill="#273D38"/>
<path d="M137.525 465.922L137.532 465.924C137.987 466.052 138.395 466.145 138.741 466.203C138.77 466.208 138.798 466.213 138.825 466.217C142.613 466.803 149.309 465.056 154.55 461.926C154.559 461.92 154.569 461.914 154.58 461.909C154.58 461.908 154.582 461.907 154.582 461.906C154.592 461.901 154.599 461.896 154.608 461.891C154.61 461.89 154.612 461.889 154.613 461.888C154.622 461.883 154.629 461.878 154.638 461.873C154.64 461.872 154.642 461.871 154.645 461.87C154.654 461.864 154.661 461.859 154.67 461.854C154.67 461.853 154.672 461.853 154.673 461.852C154.684 461.846 154.693 461.84 154.703 461.834C154.703 461.834 154.703 461.833 154.705 461.834C154.714 461.828 154.723 461.822 154.733 461.816C154.733 461.815 154.735 461.814 154.737 461.814C154.744 461.809 154.751 461.805 154.76 461.8C154.763 461.798 154.765 461.797 154.767 461.795C154.797 461.777 154.825 461.759 154.855 461.741C154.856 461.74 154.858 461.739 154.86 461.739C154.867 461.734 154.876 461.729 154.883 461.724C154.886 461.723 154.888 461.721 154.89 461.72C154.918 461.702 154.948 461.684 154.976 461.666C154.981 461.664 154.983 461.662 154.988 461.66C154.992 461.657 154.997 461.654 155.002 461.651C155.007 461.648 155.011 461.644 155.018 461.641C155.021 461.638 155.027 461.636 155.03 461.633C155.035 461.63 155.039 461.627 155.044 461.624C155.051 461.62 155.058 461.615 155.065 461.611C155.072 461.608 155.076 461.604 155.083 461.601C155.088 461.598 155.093 461.595 155.097 461.592C155.104 461.588 155.111 461.583 155.116 461.579C155.118 461.578 155.121 461.577 155.123 461.576C155.13 461.571 155.137 461.566 155.144 461.561C155.144 461.561 155.146 461.561 155.146 461.561C159.175 459.026 162.972 455.284 162.186 450.879C161.698 454.612 158.106 457.749 154.499 459.903C149.258 463.033 142.564 464.781 138.774 464.194C138.411 464.138 137.969 464.039 137.476 463.899C136.795 463.706 136.014 463.434 135.195 463.083C135.135 463.016 134.986 462.893 134.772 462.708L134.768 462.704C134.672 462.621 134.561 462.526 134.442 462.418C132.975 461.104 129.902 457.922 129.386 452.298C129.245 459.207 132.88 462.992 134.516 464.458C134.636 464.566 134.746 464.66 134.841 464.744L134.845 464.747C135.049 464.923 135.193 465.042 135.258 465.111C135.287 465.124 135.316 465.136 135.345 465.148C135.386 465.165 135.426 465.182 135.465 465.198C136.197 465.502 136.894 465.742 137.509 465.917L137.525 465.922Z" fill="#0A2239"/>
<path d="M104.992 468.336C104.992 468.336 108.067 472.105 112.386 470.472C109.905 465.342 110.189 453.286 110.31 450.211C110.332 449.74 110.341 449.48 110.341 449.48C110.341 449.48 110.175 449.671 109.914 450.023C108.478 451.985 103.921 459.031 104.992 468.336Z" fill="#244A6E"/>
<path d="M111.211 470.796C111.591 470.73 111.983 470.624 112.386 470.472C112.383 470.464 112.378 470.455 112.374 470.447C112.372 470.441 112.368 470.435 112.366 470.43C112.364 470.428 112.365 470.426 112.363 470.424C111.847 469.34 111.451 467.952 111.149 466.408C110.4 462.569 110.234 457.768 110.234 454.261C110.234 452.476 110.277 451.027 110.309 450.211C110.325 449.853 110.336 449.616 110.34 449.524C110.34 449.494 110.341 449.48 110.341 449.48C110.341 449.48 110.175 449.671 109.914 450.023C109.689 450.33 109.389 450.76 109.047 451.304L109.047 451.305C109.037 451.318 109.029 451.332 109.02 451.345L109.02 451.346C109.012 451.359 109.005 451.371 108.996 451.384C107.492 453.786 105.216 458.303 104.874 464.061C105.85 458.325 108.554 454.197 109.6 452.767C109.861 452.415 110.026 452.224 110.026 452.224C110.026 452.224 110.017 452.484 109.995 452.954C109.891 455.614 109.665 464.991 111.211 470.796Z" fill="#0A2239"/>
<path fill-rule="evenodd" clip-rule="evenodd" d="M103.328 467.894C104.362 468.188 104.992 468.333 104.992 468.333C104.569 464.662 105.022 461.342 105.814 458.548C107.031 454.259 109.044 451.208 109.914 450.02C110.173 449.667 110.341 449.477 110.341 449.477C104.676 443.316 99.4412 440.568 96.1994 439.368C98.9676 440.393 103.189 442.546 107.89 446.988C103.915 443.642 100.409 441.92 98.0227 441.048C96.3306 441.709 94.6085 442.199 92.8733 442.559C92.9167 442.852 93.3303 446.273 93.1076 451.375C94.1183 452.144 94.8792 452.867 95.3268 453.322C96.8305 454.508 97.7066 455.528 97.7066 455.528C97.5849 459.281 96.9468 462.558 96.1065 465.311C95.599 465.086 95.0857 464.848 94.576 464.598C97.9203 466.241 101.357 467.335 103.328 467.894ZM98.984 442.532C98.984 442.532 103.877 444.582 109.419 449.556C109.419 449.556 107.91 451.385 107.345 453.16C107.345 453.16 100.141 446.103 95.7677 444.181C95.7677 444.181 98.3666 443.378 98.984 442.532ZM93.1893 464.743L93.2959 464.797C93.1363 464.718 92.9772 464.637 92.8348 464.561C92.9453 464.62 93.0661 464.681 93.1891 464.743L93.1893 464.743Z" fill="#0C8F9B"/>
<path d="M93.1071 451.376C93.3298 446.273 92.9162 442.853 92.8729 442.56C94.6081 442.2 96.3301 441.71 98.0223 441.049C100.409 441.92 103.914 443.643 107.889 446.989C103.188 442.546 98.9672 440.393 96.1989 439.368C96.1973 439.367 96.1955 439.367 96.1938 439.366C96.1833 439.362 96.1747 439.359 96.166 439.356C96.1625 439.355 96.1608 439.354 96.1591 439.353C96.1504 439.35 96.1417 439.347 96.133 439.344C96.1226 439.34 96.1104 439.336 96.1 439.332C94.4079 439.993 92.6842 440.482 90.9507 440.843C90.9504 440.843 90.9502 440.844 90.9518 440.845C90.9959 441.163 91.428 444.754 91.1663 450.069C91.1761 450.075 91.1876 450.082 91.1991 450.089C91.2008 450.09 91.2007 450.09 91.2024 450.091C91.2122 450.097 91.222 450.102 91.2318 450.108C91.2335 450.109 91.2335 450.109 91.2352 450.11C91.9176 450.515 92.5379 450.944 93.0852 451.359C93.0852 451.359 93.0852 451.359 93.0835 451.358C93.0914 451.364 93.0993 451.37 93.1072 451.376" fill="#0C7489"/>
<path fill-rule="evenodd" clip-rule="evenodd" d="M111.767 468.856C115.508 468.806 125.436 468.204 133.133 463.495C133.089 463.444 132.989 463.358 132.847 463.236L132.847 463.236C132.806 463.201 132.761 463.162 132.713 463.121L132.708 463.117C132.677 463.09 132.644 463.061 132.61 463.032C132.539 462.97 132.463 462.904 132.383 462.831C130.721 461.343 127.001 457.464 127.262 450.354C128.518 450.77 129.371 451.108 129.437 451.169C129.34 451.078 127.429 450.348 125.05 449.674C123.659 449.279 122.11 448.903 120.666 448.683C120.658 448.682 120.651 448.681 120.645 448.68C117.448 448.359 111.95 449.213 110.87 449.385C110.84 449.391 110.81 449.396 110.781 449.401L110.751 449.406C110.713 449.411 110.677 449.417 110.646 449.424C110.449 449.457 110.343 449.48 110.343 449.48L110.342 449.524C110.34 449.574 110.336 449.664 110.33 449.792L110.33 449.792L110.33 449.792C110.325 449.904 110.318 450.045 110.311 450.212C110.29 450.726 110.266 451.491 110.25 452.433C110.183 456.597 110.296 464.213 111.767 468.856ZM124.066 450.961C125.45 451.353 126.285 451.715 126.285 451.715C125.803 453.237 126.252 454.609 126.252 454.609C121.131 456.317 111.426 454.581 111.426 454.581C110.868 452.461 111.673 450.764 111.673 450.764C116.511 449.297 121.35 450.19 124.066 450.961Z" fill="#0C8F9B"/>
<path d="M112.391 470.456C112.391 470.456 125.591 471.042 135.269 465.123C135.209 465.056 135.06 464.933 134.846 464.748L134.841 464.745C134.746 464.661 134.637 464.567 134.516 464.459C132.794 462.915 128.855 458.801 129.441 451.175L129.438 451.172L129.438 451.171L129.438 451.171C129.436 451.17 129.436 451.17 129.436 451.17L129.436 451.17C129.371 451.109 128.518 450.771 127.262 450.355C127.001 457.464 130.721 461.343 132.383 462.832C132.501 462.94 132.613 463.034 132.708 463.118L132.712 463.121C132.926 463.306 133.075 463.43 133.133 463.496C125.436 468.204 115.507 468.807 111.767 468.857C111.954 469.442 112.16 469.979 112.391 470.456Z" fill="#0C7489"/>
<path d="M111.425 454.58C111.425 454.58 121.129 456.316 126.25 454.608C126.25 454.608 125.802 453.236 126.283 451.714C126.283 451.714 125.448 451.353 124.065 450.96C121.349 450.19 116.51 449.296 111.672 450.764C111.672 450.764 110.866 452.46 111.425 454.58Z" fill="#2BC8D7"/>
<path d="M107.344 453.16C107.909 451.385 109.419 449.556 109.419 449.556C103.876 444.582 98.9831 442.533 98.9831 442.533C98.3657 443.378 95.7668 444.181 95.7668 444.181C100.14 446.103 107.344 453.16 107.344 453.16Z" fill="#2BC8D7"/>
<path d="M47.0148 516H47.0071C40.8511 515.998 37.4071 513.353 37.2755 513.25C37.2724 513.248 37.2709 513.247 37.2709 513.247C37.26 513.22 37.2492 513.194 37.2384 513.168C37.2368 513.166 37.2368 513.165 37.2353 513.164C37.1563 512.976 37.0774 512.785 37 512.594C38.6175 513.191 40.8357 513.724 43.6017 513.724C46.5396 513.724 50.0935 513.123 54.2016 511.357C54.3146 506.666 54.9771 501.876 56.4863 497.307C56.5204 497.207 56.5529 497.11 56.5869 497.013C54.0437 490.943 53.3286 485.224 53.1986 484C54.7078 485.369 56.4925 485.998 56.5838 486.03C56.5838 486.03 56.5838 486.03 56.5854 486.031V486.031C56.5854 486.031 56.5869 486.031 56.5869 486.031V486.031C56.5869 486.031 57.1302 492.439 60 499.289C59.9675 499.386 59.9334 499.483 59.8994 499.583C58.3917 504.151 57.7277 508.942 57.6147 513.633C57.5992 513.64 57.5822 513.647 57.5667 513.653C57.5373 513.666 57.5079 513.678 57.4785 513.691C57.4739 513.693 57.4677 513.695 57.463 513.697C57.4027 513.723 57.3423 513.749 57.2804 513.774C57.2804 513.774 57.2804 513.775 57.2788 513.775C57.2773 513.776 57.2757 513.776 57.2742 513.777C57.2448 513.789 57.2138 513.802 57.1829 513.815C57.1813 513.816 57.1798 513.816 57.1767 513.817C57.1596 513.825 57.1426 513.832 57.124 513.839C53.2311 515.443 49.8443 515.998 47.0272 516H47.0148Z" fill="#A12507"/>
<path d="M98 492L94.5085 498C93.8002 495.28 93 493.832 93 493.832C96.5683 493.027 97.9315 492.052 98 492Z" fill="#0A2239"/>
<path d="M93.5546 494.079C95.4708 493.647 96.7471 493.167 97.5322 492.805L98 492C97.9315 492.052 96.5683 493.027 93 493.832C93 493.832 93.8002 495.28 94.5085 498L94.836 497.436C94.1945 495.242 93.5546 494.079 93.5546 494.079Z" fill="#0A2239"/>
<path d="M98.1761 491.937L98.173 491.939C98.1093 491.994 96.841 493.029 93.521 493.883C92.6164 494.117 91.5564 494.335 90.3238 494.516C88.6172 494.771 86.5842 494.952 84.1766 495C84.0352 493.416 83.8424 491.65 83.572 489.751C83.4088 488.598 83.2223 487.394 83 486.151C87.7888 486.943 92.5387 486.128 96.5146 484.919C97.3959 484.651 98.1093 484.365 98.6813 484L98.6875 484.029C98.8507 485.568 98.9533 486.467 98.9533 486.467C98.9533 486.467 99.2859 488.655 98.1761 491.937Z" fill="#244A6E"/>
<path d="M95.1526 492.565C94.2682 492.777 93.2336 492.974 92.0306 493.138C90.3665 493.368 88.3823 493.532 86.0309 493.575C85.8929 492.143 85.7048 490.546 85.4408 488.829C85.362 488.307 85.277 487.773 85.1845 487.229C84.4578 487.184 83.7297 487.112 83 487C83.2169 488.124 83.399 489.212 83.5583 490.254C83.8222 491.971 84.0103 493.568 84.1484 495C86.4982 494.957 88.4824 494.793 90.1481 494.563C91.351 494.399 92.3856 494.202 93.2685 493.99C96.5088 493.218 97.7467 492.283 97.8089 492.233L97.8119 492.23C97.8802 492.043 97.9424 491.86 98 491.681C97.3037 491.962 96.3692 492.275 95.1526 492.565Z" fill="#0A2239"/>
<path d="M99.9787 487C99.9787 487 99.6009 485.894 99 484C99.744 484.86 100.093 485.856 99.9787 487Z" fill="#86A7B6"/>
<path d="M98.3391 484.565L98.3346 484.567C97.7844 484.928 97.0981 485.21 96.2503 485.475C92.4254 486.667 87.856 487.471 83.2492 486.691C83.0936 485.799 82.9232 484.889 82.7348 483.961C82.1606 481.117 81.4205 478.122 80.4695 475.089C80.613 475.009 85.9182 464.369 85.5563 451.385V451.375C85.5787 450.874 85.5548 450.33 85.4801 449.739C84.7474 443.973 82.7961 438.777 80 435.01C82.3161 434.969 84.6337 435.049 86.76 435.332C89.423 435.684 91.5866 435.817 93.4676 435.651C93.5424 435.804 96.8753 442.591 99 451.691C97.5945 451.947 96.5687 452.194 96.5687 452.194C96.2293 462.44 97.7231 478.493 98.3391 484.565Z" fill="#C7D6DD"/>
<path d="M86.9423 487C85.6412 487 84.3222 486.912 83 486.713C84.169 486.888 85.3363 486.977 86.489 486.995C85.9086 484.495 85.1929 481.896 84.3076 479.267C84.4641 479.186 90.2487 468.384 89.8541 455.204V455.194C89.8786 454.686 89.8509 454.133 89.771 453.533C88.9721 447.68 86.8444 442.405 83.794 438.581C84.2016 438.574 84.6092 438.571 85.0152 438.571C87.1298 438.571 89.2215 438.667 91.1666 438.907C92.9747 439.131 94.5708 439.266 96.0137 439.297C95.0355 436.977 94.2611 435.44 94.0344 435C94.5447 435.993 97.8446 442.557 100 451.156C99.5614 451.23 99.1555 451.304 98.8017 451.371V451.371C98.5913 451.411 98.399 451.449 98.2278 451.483C98.2245 451.484 98.2229 451.484 98.2196 451.485V451.485C97.7387 451.581 97.4289 451.649 97.362 451.663V451.663C97.3572 451.664 97.3555 451.665 97.3523 451.666C97.3523 451.666 97.3506 451.666 97.3506 451.666C97.3506 451.666 97.349 451.666 97.349 451.666C97.3131 452.702 97.2952 453.797 97.2952 454.934C97.2936 465.214 98.6745 478.978 99.2794 484.528L99.2745 484.531C98.6745 484.896 97.9262 485.183 97.0017 485.452C96.9463 485.467 96.8925 485.483 96.8371 485.499C96.7996 485.51 96.7621 485.521 96.7229 485.531C96.7115 485.535 96.6985 485.538 96.6854 485.542C93.7377 486.375 90.4019 487 86.9423 487Z" fill="#0C8F9B"/>
<path d="M84.23 487.036C84.07 487.012 83.93 486.988 83.77 486.964C83.93 486.988 84.07 487.012 84.23 487.036Z" fill="#ADC3CD"/>
<path fill-rule="evenodd" clip-rule="evenodd" d="M91.9559 437.411C90.7302 437.406 89.3838 436.889 87.8779 435.942C89.3838 436.888 90.7302 437.406 91.9559 437.411Z" fill="#ADC3CD"/>
<path d="M84.04 487.007C84.02 487.003 83.98 486.997 83.96 486.993C83.98 486.997 84.02 487.003 84.04 487.007Z" fill="#16201E"/>
<path d="M84.08 487.013V487.011C84.04 487.005 83.98 486.997 83.94 486.991C83.94 486.989 83.92 486.989 83.92 486.987C83.98 486.995 84.02 487.003 84.08 487.013Z" fill="#878787"/>
<path d="M84.07 487.01C84.05 487.008 84.03 487.006 84.03 487.004C83.99 487 83.97 486.994 83.93 486.99C83.97 486.996 84.03 487.004 84.07 487.01Z" fill="#273D38"/>
<path d="M84.07 487.011C84.01 487.003 83.97 486.997 83.93 486.989C83.93 486.991 83.95 486.993 83.97 486.995V486.997C84.01 487.001 84.03 487.007 84.07 487.011Z" fill="#16201E"/>
<path d="M84.37 487.059V487.057C84.13 487.019 83.87 486.979 83.63 486.941C83.89 486.981 84.13 487.021 84.37 487.059Z" fill="#878787"/>
<path d="M84.37 487.058H84.35C84.11 487.02 83.87 486.98 83.63 486.942C83.87 486.98 84.13 487.02 84.37 487.058Z" fill="#273D38"/>
<path d="M84.36 487.058C84.12 487.02 83.88 486.98 83.64 486.942C83.88 486.98 84.12 487.02 84.36 487.058Z" fill="#16201E"/>
<path d="M94.705 437.803C94.465 436.875 94.325 436.333 94.295 436.197C94.325 436.333 94.465 436.875 94.705 437.803Z" fill="#878787"/>
<path d="M92 437.398C92.6972 437.396 93.3626 437.138 94 436.602C93.3607 437.138 92.6972 437.396 92 437.398Z" fill="#86A7B7"/>
<path d="M80 436.044C80.3328 435.986 80.6672 435.956 81 435.956C80.6672 435.956 80.3328 435.986 80 436.044Z" fill="#86A7B7"/>
<path d="M86.8914 487C85.7891 486.982 84.6728 486.895 83.5549 486.722C83.5533 486.721 83.5502 486.721 83.5486 486.721C83.533 486.718 83.5174 486.716 83.5019 486.713C83.4941 486.712 83.4878 486.711 83.4816 486.71C83.4691 486.708 83.4582 486.706 83.4457 486.704C83.427 486.701 83.4083 486.698 83.388 486.695C83.2259 485.803 83.0481 484.893 82.8517 483.965C82.253 481.121 81.4812 478.126 80.4896 475.093C80.6346 475.015 85.8094 465.066 85.8125 452.672C85.8125 452.246 85.8063 451.818 85.7938 451.387V451.376C85.8 451.251 85.8032 451.123 85.8016 450.993C85.8016 450.601 85.772 450.183 85.7143 449.74C84.9503 443.973 82.9156 438.778 80 435.01C80.067 435.009 80.1341 435.008 80.2011 435.007C80.5208 435.003 80.8419 435 81.1616 435C81.1631 435 81.1647 435 81.1662 435C81.1725 435 81.1772 435 81.1834 435C83.1557 435.001 85.1047 435.091 86.9257 435.316C86.9663 435.321 87.0068 435.327 87.0489 435.332C87.1004 435.338 87.1518 435.345 87.2033 435.351C87.5198 435.391 87.8301 435.428 88.1341 435.461C89.6511 435.629 91.0076 435.721 92.2424 435.722H92.2674C92.849 435.722 93.4025 435.701 93.9357 435.659C93.9715 435.657 94.0074 435.654 94.0433 435.651C94.0479 435.661 94.0698 435.704 94.1072 435.776C94.3239 436.21 95.0645 437.724 96 440.009C94.6202 439.979 93.0937 439.846 91.3646 439.626C89.5046 439.389 87.5042 439.294 85.482 439.294C85.0937 439.294 84.704 439.298 84.3142 439.304C87.2313 443.072 89.266 448.268 90.03 454.034C90.1064 454.625 90.1329 455.17 90.1095 455.67V455.681C90.4868 468.665 84.955 479.306 84.8053 479.387C85.6519 481.976 86.3364 484.536 86.8914 487Z" fill="#0C7489"/>
<path d="M86.456 452C86.256 451.338 85.896 450.672 85.436 450C86.436 450.723 86.756 451.388 86.456 452Z" fill="#E4EDF2"/>
<path d="M105.106 485.068C105.106 485.068 101.977 487.178 98.1776 486.988C98.2089 486.041 98.1133 485.218 97.9095 484.507L97.908 484.474C97.2621 478.212 95.6961 461.656 96.0519 451.089C96.0519 451.089 97.1273 450.835 98.6008 450.57C101.159 450.113 104.92 449.631 106.337 450.42C106.337 450.42 108.461 472.629 105.106 485.068Z" fill="#0FA3B1"/>
<path fill-rule="evenodd" clip-rule="evenodd" d="M99.5547 486.838C103.075 486.831 105.894 484.989 105.894 484.989C105.894 484.989 103.075 486.831 99.5547 486.838Z" fill="#878787"/>
<path d="M97.495 453.002C97.495 453.002 97.505 453 97.505 452.998C97.505 453 97.495 453.002 97.495 453.002Z" fill="#86A7B5"/>
<path d="M98 453.704C98.2983 453.274 98.6335 452.8 99 452.296C98.6335 452.8 98.2983 453.274 98 453.704Z" fill="#86A7B5"/>
<path d="M98.5768 487C98.4343 487 98.2902 486.997 98.1446 486.99C98.1325 486.989 98.1188 486.989 98.1067 486.988C98.1112 486.87 98.1127 486.755 98.1127 486.641C98.1127 485.844 98.0202 485.14 97.8473 484.521L97.8458 484.489C97.2831 478.883 95.9985 464.981 96 454.598C96 453.45 96.0167 452.344 96.0501 451.298C96.0501 451.298 96.0516 451.298 96.0516 451.298C96.0516 451.297 96.0531 451.297 96.0531 451.297C96.0561 451.297 96.0576 451.296 96.0622 451.295V451.295C96.1244 451.28 96.4141 451.211 96.86 451.114V451.114C96.863 451.114 96.8645 451.113 96.8675 451.113C97.0268 451.078 97.2058 451.04 97.4014 451C97.1921 461.521 98.6223 477.048 99.226 483.054L99.2275 483.086C99.4232 483.793 99.5172 484.612 99.4869 485.553C99.6446 485.561 99.8023 485.565 99.9585 485.565C102.039 485.565 103.87 484.87 105 484.316C104.939 484.574 104.876 484.829 104.81 485.079C104.81 485.079 102.049 486.992 98.5981 487H98.5768Z" fill="#0C7489"/>
<path d="M88.821 534.993C88.821 534.993 76.9431 543.147 63.8952 545.86C63.6609 545.906 63.425 545.955 63.1923 546C63.1923 546 56.6098 530.534 57.0183 513.821C57.1338 509.088 57.8114 504.255 59.3565 499.646C59.3897 499.546 59.4246 499.447 59.4578 499.349C60.6863 502.245 62.3359 505.215 64.5348 507.821C64.9321 508.296 65.3517 508.758 65.7902 509.207C65.7902 509.207 67.0313 510.949 67.5585 518.21C68.0857 525.472 69.9664 534.217 74.0317 533.179C78.094 532.142 83.7393 529.327 82.9873 523.841C82.2353 518.357 81.7921 516.061 84.4232 518.135C87.0511 520.21 89.2342 522.878 89.9862 519.469C90.7381 516.061 90.6637 512.355 84.4184 503.091C84.4184 503.091 84.496 499.958 84.0432 495.097C86.4954 495.05 88.5661 494.872 90.3044 494.622C91.5597 494.444 92.6394 494.23 93.5608 494C93.5608 494 94.3191 495.51 94.9903 498.346C96.4832 504.665 97.5502 517.573 88.821 534.993Z" fill="#0C8F9B"/>
<path d="M89.6837 497.173C91.0487 496.997 92.2227 496.785 93.2262 496.557C93.2262 496.557 94.0507 498.053 94.7788 500.863C96.1696 506.223 97.2127 516.367 91.5376 530C98.4675 515.075 97.378 503.996 95.9028 498.306C95.173 495.496 94.3485 494 94.3485 494C93.3467 494.228 92.1727 494.44 90.8078 494.616C88.9178 494.864 86.6663 495.041 84 495.087C84.093 495.99 84.1635 496.833 84.2203 497.607C86.3083 497.533 88.1225 497.378 89.6837 497.173Z" fill="#0C7489"/>
<path d="M63.849 510.284C64.2417 510.769 64.6546 511.241 65.0846 511.699C65.0846 511.699 66.3078 513.478 66.8266 520.892C67.3455 528.306 73.0717 536.971 77.0731 535.911C80.5571 534.988 81.3487 532.95 82 528.665C80.2907 531.294 76.9017 532.829 74.2139 533.54C70.2125 534.6 68.3614 525.671 67.8426 518.257C67.3237 510.843 66.1021 509.064 66.1021 509.064C65.6705 508.606 65.2576 508.134 64.8665 507.65C62.7022 504.989 61.0786 501.956 59.8695 499C59.8367 499.1 59.8025 499.2 59.7697 499.303C59.483 500.188 59.2275 501.081 59 501.98C60.1936 504.826 61.7689 507.727 63.849 510.284Z" fill="#0C7489"/>
<path d="M85 503.012C86.8533 505.815 88.1365 508.093 89 510C88.3577 507.943 87.1376 505.39 85.003 502C85.0075 502.656 85 503.012 85 503.012Z" fill="#0C8F9B"/>
<path d="M95.9548 498.346C95.26 495.51 94.475 494 94.475 494C94.4554 494.005 94.4324 494.01 94.4111 494.015C94.5668 494.518 94.729 495.086 94.8847 495.726C96.4317 502.046 97.5362 514.953 88.4985 532.375C88.4985 532.375 76.2046 540.529 62.6981 543.241C62.4654 543.285 62.2327 543.331 62 543.373C62.6211 545.052 63.039 546 63.039 546C63.2799 545.955 63.524 545.906 63.7666 545.86C77.2731 543.147 89.5686 534.993 89.5686 534.993C98.6047 517.573 97.5002 504.665 95.9548 498.346Z" fill="#0C7489"/>
<path d="M67.0172 515.579C67.3751 520.025 68.3006 525.023 70 528C69.0163 525.136 68.4346 521.515 68.1666 518.201C67.5796 510.932 66.1974 509.188 66.1974 509.188C66.1305 509.126 66.067 509.062 66 509C66.372 510.383 66.7669 512.477 67.0172 515.579Z" fill="#0C7489"/>
<path d="M82.4638 502.269C90.184 511.714 90.2759 515.492 89.3464 518.968C88.8376 520.873 87.7945 520.915 86.4227 520.217C89.5088 522.287 92.0431 524.681 92.9374 521.336C93.8669 517.86 93.773 514.082 86.0528 504.637C86.0528 504.637 86.1507 501.443 85.589 496.486C88.6223 496.439 91.182 496.257 93.3288 496.002C93.9178 495.933 94.4736 495.859 95 495.781C94.3483 493.96 93.7652 493 93.7652 493C92.6262 493.234 91.2916 493.453 89.7397 493.634C87.591 493.889 85.0313 494.071 82 494.118C82.5597 499.075 82.4638 502.269 82.4638 502.269Z" fill="#0C7489"/>
<path d="M76.0875 534.912C80.6696 533.83 87.0357 530.892 86.1875 525.166C85.4268 520.033 84.9482 517.578 87 518.689C86.2393 518.121 85.4089 517.428 84.5321 516.788C81.5643 514.623 82.0643 517.02 82.9125 522.742C83.7607 528.468 77.3929 531.406 72.8107 532.488C72.5304 532.555 72.2607 532.581 72 532.574C73.0625 534.334 74.4089 535.309 76.0875 534.912Z" fill="#0C7489"/>
<path d="M84.9949 502.951C78.627 493.791 64.0554 503.832 66.0107 509C65.5638 508.556 65.1363 508.099 64.7314 507.63C62.4904 505.052 60.8094 502.114 59.5574 499.25C56.5663 492.415 56 486.021 56 486.021C58.3071 480.634 63.3988 477.864 68.3372 476.45C70.8233 475.736 73.2691 475.368 75.3019 475.182C78.2963 474.906 80.392 475.026 80.392 475.026C81.4181 478.012 82.2167 480.96 82.8362 483.76C83.0395 484.674 83.2234 485.57 83.3912 486.448C83.6219 487.655 83.8155 488.824 83.9849 489.944C84.2656 491.79 84.4657 493.505 84.6125 495.044C85.0739 499.852 84.9949 502.951 84.9949 502.951Z" fill="#0C8F9B"/>
<path d="M64.0707 506.053C64.3766 506.596 64.6914 507.134 65.0241 507.659C65.4394 508.321 65.8798 508.967 66.3417 509.596C64.7828 503.576 75.0005 501.5 84.4997 503C82.4997 494 64.6973 499.344 64.0707 506.053Z" fill="#0C7489"/>
<path d="M84.6274 495.797C84.4863 494.2 84.2939 492.421 84.0241 490.507C83.8612 489.344 83.6751 488.132 83.4532 486.879C83.2919 485.968 83.1151 485.039 82.9197 484.091C82.324 481.186 81.9865 478.101 81 475.004C81 475.004 79.985 474.995 79 475.006C79.7988 477.666 80.441 480.285 80.956 482.79C81.1498 483.738 81.3282 484.667 81.4895 485.578C81.7098 486.83 81.8975 488.043 82.0588 489.205C82.3287 491.12 82.521 492.899 82.6622 494.496C82.9677 497.919 83.0267 500.507 83.0344 501.794C83.7464 502.361 84.4072 503.088 84.995 504C84.995 504 85.0711 500.786 84.6274 495.797Z" fill="#0B6071"/>
<path d="M90.0913 579.083C88.5576 579.329 86.9133 579.665 85.1632 580.094C68.9526 584.054 64.065 597 64.065 597C61.7216 596.772 60.1801 596.588 60.1801 596.588C56.1831 552.711 63.6212 546.003 63.6212 546.003C63.8579 546 64.0899 546 64.3219 546C79.7882 545.992 89.3159 549.3 89.3159 549.3C91.9006 559.06 90.9617 571.848 90.0913 579.083Z" fill="#0C8F9B"/>
<path d="M63.6209 548.324C63.8576 548.321 64.0896 548.321 64.3216 548.321C79.7886 548.314 89.3166 551.55 89.3166 551.55C90.486 555.871 90.9329 560.8 90.9921 565.557C91.0622 560.111 90.6791 553.959 89.3166 548.927C89.3166 548.927 80 545.5 64.3216 546C64.0896 546 63.8576 546 63.6209 546.003C63.6209 546.003 58.8421 550.223 59.004 574C59.1566 552.268 63.6209 548.324 63.6209 548.324Z" fill="#0C7489"/>
<path d="M89.3093 548.934C89.3093 548.934 88.1416 548.528 85.9657 548C88.5308 557.823 87.593 570.649 86.7207 577.917C85.181 578.164 83.5303 578.503 81.7733 578.935C65.4992 582.926 60.5924 595.97 60.5924 595.97C60.3877 595.951 60.1923 595.931 60 595.912C60.0203 596.138 60.0391 596.358 60.0594 596.585C60.0594 596.585 61.6069 596.77 63.9595 597C63.9595 597 68.8663 583.954 85.1403 579.964C86.8973 579.532 88.548 579.193 90.0878 578.946C90.9616 571.655 91.9042 558.769 89.3093 548.934Z" fill="#0C7489"/>
<path d="M106.756 595.773C106.756 595.773 83.2045 599.711 64.0047 597.113H64C64 597.113 68.9138 583.65 85.2113 579.532C86.9709 579.086 88.6239 578.736 90.1659 578.481C102.905 576.38 108.249 580.981 106.756 595.773Z" fill="#244A6E"/>
<path d="M68.1312 593.953H68.1248C68.1248 593.953 70.4194 588.053 77.0434 583C66.4363 588.308 63 597.147 63 597.147H63.0048C82.6717 599.647 106.796 595.857 106.796 595.857C106.891 594.973 106.958 594.128 107 593.319C98.9328 594.279 82.3655 595.763 68.1312 593.953Z" fill="#0A2239"/>
<path d="M85 450C85 450 80.3089 445.833 73.7362 444.256C70.6057 443.505 67.0509 443.344 63.3698 444.498C60.4827 445.403 57.5196 447.12 54.6294 450C54.6294 450 49.2599 441.282 58.0154 433.583C58.1843 433.432 58.3577 433.283 58.5387 433.138C59.1289 432.653 59.7754 432.171 60.4857 431.699C65.3761 428.446 69.9836 428.321 73.8746 430.323C75.9524 431.389 77.8249 433.065 79.4221 435.194H79.4251C82.2696 438.981 84.2547 444.204 85 450Z" fill="#244A6E"/>
<path d="M71.6341 429.974C73.9216 431.091 75.983 432.846 77.7413 435.078H77.743C80.5361 438.615 82.5724 443.351 83.5638 448.641C85.7273 449.925 87 451 87 451C86.1795 444.927 83.9941 439.455 80.8627 435.487H80.8593C79.101 433.256 77.0396 431.5 74.7522 430.384C72.962 429.507 71.0329 429.021 69 429C69.9059 429.232 70.7851 429.559 71.6341 429.974Z" fill="#0A2239"/>
<path d="M60.5638 444.011C58.3601 444.806 55.928 445.872 53.6734 448.046C54.0697 449.622 54.6935 450.897 54.6935 450.897C57.5659 447.532 60.4802 445.55 63.3006 444.533C65.601 443.702 67.8393 443.514 69.9437 443.734C67.0931 442.948 63.8955 442.809 60.5638 444.011Z" fill="#0A2239"/>
<path d="M86.456 452C86.256 451.338 85.896 450.672 85.436 450C86.436 450.723 86.756 451.388 86.456 452Z" fill="#C7D6DD"/>
<path d="M80.6086 475C78.7656 473.758 76.9826 472.794 75.2707 472.057C72.7834 470.991 70.4476 470.404 68.2951 470.158C59.5444 469.142 53.8527 473.667 53.6932 473.794L53.6916 473.796C49.5239 465.047 54.3691 450.174 54.3691 450.174C57.3697 447.368 60.4461 445.695 63.4436 444.814C67.2654 443.69 70.9562 443.847 74.2063 444.578C81.0303 446.114 85.9008 450.174 85.9008 450.174C85.9371 450.712 85.9655 451.245 85.9813 451.776V451.786C86.3635 464.501 80.7603 474.921 80.6086 475Z" fill="#0C8F9B"/>
<path d="M86.9808 452.691V452.681C86.9647 452.148 86.9355 451.612 86.8983 451.072C86.8983 451.072 86.3643 450.637 85.4079 450C85.4208 450.263 85.4321 450.524 85.4402 450.785V450.795C85.8319 463.563 80.0902 474.026 79.9348 474.105C78.0463 472.858 76.2192 471.889 74.465 471.15C71.9178 470.079 69.5227 469.49 67.317 469.243C59.991 468.41 54.7591 471.29 53 472.441C53.2379 473.26 53.5324 474.048 53.8933 474.791L53.8949 474.789C54.0584 474.661 59.8907 470.118 68.8576 471.138C71.0633 471.386 73.4568 471.974 76.0056 473.045C77.7598 473.785 79.5869 474.753 81.4754 476C81.6308 475.921 87.3725 465.458 86.9808 452.691Z" fill="#0B6071"/>
<path d="M80 475.013C80 475.013 77.9823 474.893 75.0995 475.168C73.1425 475.354 70.7878 475.722 68.3942 476.436C63.6398 477.849 58.7377 480.616 56.5166 486C56.5166 486 46.4377 482.593 53.5266 473.804L53.5282 473.801C53.6851 473.674 59.2829 469.129 67.8894 470.149C70.0065 470.397 72.3037 470.986 74.7501 472.057C76.4338 472.797 78.1874 473.766 80 475.013Z" fill="#244A6E"/>
<path d="M74.6034 471.884C72.265 471.122 69.1335 470.122 67 470C68.3095 470.218 71 471.5 71.975 471.884C73.7675 472.457 75.6449 473.236 77.5982 474.265C77.5982 474.265 75.4885 474.276 72.5015 474.699C70.4725 474.985 68.0387 475.461 65.581 476.255C60.922 477.756 56.1884 480.393 54.0005 485.019C55.3408 485.716 56.5485 486 56.5485 486C58.5812 480.96 63.801 478.208 68.68 476.636C71.1361 475.843 75.151 475.423 77.18 475.136C80.68 475.136 81.5004 476 81.5004 476C79.9154 474.515 76.265 472.622 74.6034 471.884Z" fill="#0A2239"/>
<path d="M89.6837 519.769C88.9529 523.286 86.8315 520.533 84.2777 518.393C81.7209 516.252 82.1516 518.622 82.8824 524.279C83.6131 529.939 78.1272 532.844 74.1796 533.913C70.229 534.984 68.4014 525.961 67.8891 518.47C67.3768 510.978 66.1707 509.181 66.1707 509.181C64.3061 503.791 78.201 493.317 84.2731 502.872C90.3421 512.429 90.4144 516.252 89.6837 519.769Z" fill="#244A6E"/>
<path d="M83.7225 518.05C83.6008 517.953 83.479 517.856 83.3573 517.761C80.6596 515.671 81.1125 517.984 81.8851 523.508C82.6561 529.035 76.8679 531.87 72.7028 532.916C72.461 532.976 72.2272 533.001 72 532.996C72.7824 533.811 73.693 534.18 74.748 533.915C78.9131 532.871 84.7013 530.035 83.9303 524.508C83.3962 520.689 83.0164 518.406 83.7225 518.05Z" fill="#0A2239"/>
<path d="M84.7819 503.288C83.7292 501.556 82.42 500.516 81 500C81.7373 500.568 82.4172 501.328 83.0143 502.312C88.5441 511.423 88.6114 515.067 87.9456 518.419C87.7241 519.539 87.3597 519.989 86.8873 520.021C88.2287 521.194 89.2618 521.665 89.7118 519.395C90.3776 516.043 90.3117 512.399 84.7819 503.288Z" fill="#0A2239"/>
<path d="M112.986 414.911C112.951 415.034 112.912 415.155 112.873 415.279C112.826 415.44 112.776 415.597 112.725 415.753C112.662 415.957 112.597 416.154 112.534 416.348C112.496 416.467 112.456 416.583 112.417 416.697C112.379 416.812 112.34 416.923 112.3 417.034C112.274 417.11 112.249 417.186 112.223 417.259C112.207 417.304 112.192 417.347 112.177 417.388C112.16 417.438 112.141 417.488 112.123 417.536C112.113 417.564 112.103 417.589 112.095 417.617C112.09 417.632 112.083 417.65 112.078 417.665C112.013 417.841 111.953 418.011 111.891 418.172C111.748 418.553 111.612 418.899 111.494 419.201C111.338 419.582 111.179 419.955 111.02 420.321C110.993 420.387 110.968 420.442 110.945 420.493C110.878 420.639 110.841 420.715 110.841 420.715C101.903 422.085 90.463 418.331 79.5924 413.551C77.3908 412.582 75.7258 411.588 74.4723 410.622C75.6471 409.192 76.0989 406.998 75.5084 404.422C75.0335 402.346 73.9882 401.352 73 400.883C86.8863 384.417 103.676 380 103.676 380C103.711 380.022 103.746 380.048 103.782 380.071C118.086 389.62 115.605 406.165 112.986 414.911Z" fill="#0A2239"/>
<path d="M111 422C111 422 111.167 421.692 111.465 421.097C111.569 420.893 111.681 420.666 111.806 420.399C111.868 420.266 111.938 420.133 112 420C111.938 420.133 111.868 420.266 111.806 420.399C111.681 420.666 111.569 420.893 111.465 421.097C111.167 421.692 111 422 111 422Z" fill="#878787"/>
<path fill-rule="evenodd" clip-rule="evenodd" d="M111.39 421.631C111.371 421.633 111.35 421.636 111.33 421.639H111.345C111.359 421.636 111.374 421.633 111.39 421.631ZM111.39 421.631C111.428 421.625 111.463 421.62 111.492 421.615C111.475 421.618 111.457 421.621 111.438 421.624C111.422 421.626 111.406 421.628 111.39 421.631ZM106.872 422.11C107.269 422.109 107.662 422.034 108.052 421.882C107.662 422.034 107.269 422.11 106.872 422.11ZM108.052 421.882C108.212 421.819 108.372 421.743 108.531 421.654C108.372 421.743 108.212 421.819 108.052 421.882Z" fill="#86A7B7"/>
<path fill-rule="evenodd" clip-rule="evenodd" d="M110.744 420.972C110.068 421.628 109.376 422.095 108.672 422.385C109.376 422.095 110.068 421.628 110.746 420.972H110.744ZM111.63 421.594C111.471 421.619 111.315 421.644 111.141 421.669C111.244 421.653 111.347 421.637 111.45 421.622C111.553 421.606 111.656 421.59 111.759 421.574C111.715 421.581 111.673 421.587 111.63 421.594Z" fill="#86A7B7"/>
<path d="M106.556 421H106.524C98.5424 420.992 89.1172 417.775 80.0552 413.785C79.8782 413.707 79.7027 413.629 79.5256 413.551C77.3463 412.582 75.6982 411.588 74.4574 410.622C75.2754 409.617 75.7394 408.233 75.7394 406.605C75.7394 405.918 75.6569 405.187 75.483 404.422C75.0129 402.346 73.9782 401.352 73 400.883C86.7456 384.417 103.365 380 103.365 380C103.4 380.022 103.435 380.048 103.47 380.071C103.588 380.15 103.701 380.23 103.815 380.31C97.8419 382.879 87.5331 388.497 78.4726 399.351C79.4508 399.82 80.4855 400.814 80.9556 402.89C81.5401 405.465 81.0929 407.66 79.93 409.09C81.1708 410.056 82.8174 411.05 84.9982 412.019C93.8481 415.95 103.078 419.184 111 419.448C110.893 419.709 110.786 419.969 110.678 420.223C110.664 420.256 110.649 420.288 110.635 420.321C110.608 420.387 110.583 420.442 110.56 420.493C110.495 420.639 110.458 420.715 110.458 420.715C110.437 420.718 110.417 420.721 110.394 420.725C110.39 420.725 110.383 420.726 110.377 420.727C109.666 420.835 108.937 420.909 108.195 420.953C107.658 420.984 107.111 421 106.559 421H106.556Z" fill="#244A6E"/>
<path d="M112 419C111.583 419.869 111.244 420.545 111 421C111.336 420.347 111.671 419.68 112 419Z" fill="#EFF4F7"/>
<path d="M74.6569 411.065C73.7504 412.226 72.4299 412.927 70.8249 412.994C67.0696 413.153 65.7603 410.309 66.0352 407.464C66.307 404.619 67.3637 401.013 70.8249 400.025C70.8249 400.025 71.9376 399.846 73.1302 400.443C74.1549 400.955 75.2404 402.039 75.7328 404.303C76.3435 407.112 75.8751 409.505 74.6569 411.065Z" fill="#244A6E"/>
<path d="M75.7252 404.837C75.2188 402.712 74.1025 401.694 73.0486 401.214C72.8546 401.125 72.6623 401.056 72.4748 401C73.1325 401.602 73.7178 402.512 74.0449 403.89C74.6746 406.526 74.1929 408.773 72.9401 410.237C72.0079 411.327 70.6482 411.985 68.9992 412.047C68.2364 412.077 67.5738 411.995 67 411.826C67.8007 412.593 69.0025 413.059 70.6778 412.994C72.3285 412.932 73.6865 412.274 74.6187 411.184C75.8715 409.72 76.3533 407.473 75.7252 404.837Z" fill="#0A2239"/>
<path d="M50.7789 422C50.7789 422 43.4696 409.874 49.1821 396.737C54.8931 383.6 72.0308 375.115 88 376.074C88 376.074 50.5781 386.23 50.7789 422Z" fill="#2BC8D7"/>
<path d="M56.1698 468C56.1698 468 55.198 455.911 57.9039 450.256C57.9039 450.256 59.28 446.022 65.6008 447.21C65.6008 447.21 67.522 457.026 62.9353 466.217C62.9353 466.217 60.5079 465.499 56.1698 468Z" fill="#2BC8D7"/>
<path d="M59 484.978C59 484.978 61.8482 480.409 65.3304 479C65.3304 479 68.6548 487.463 70 498.326C70 498.326 66.5967 500.063 65.3304 502C65.3304 502 60.622 494.757 59 484.978Z" fill="#2BC8D7"/>
<path d="M60 514C60 514 60.0905 531.463 64.407 541C64.407 541 66.918 540.807 69 539.325C69 539.325 65.3457 529.595 64.6064 523.602C63.8655 517.609 62.5228 515.846 60 514Z" fill="#2BC8D7"/>
<path d="M63.7815 589C63.7815 589 61.2688 565.581 65.2545 551.53C65.2545 551.53 69.1539 550.338 73.1411 551.53C73.1411 551.53 75.803 568.245 71.7545 579.973C71.7545 579.973 66.7354 581.654 63.7815 589Z" fill="#2BC8D7"/>
<path d="M83 398C83 398 95.9327 387.054 100.445 384.847C104.96 382.64 106.695 384.935 108.779 389.526C110.861 394.116 97.9287 391.026 83 398H83Z" fill="#244A6E"/>
</g>
<defs>
<linearGradient id="paint0_linear" x1="341.93" y1="215.826" x2="246.499" y2="529" gradientUnits="userSpaceOnUse">
<stop stop-color="white"/>
<stop offset="1" stop-color="#EDF0F1"/>
</linearGradient>
<linearGradient id="paint1_linear" x1="191.5" y1="229" x2="432.999" y2="728" gradientUnits="userSpaceOnUse">
<stop stop-color="#2BC8D7"/>
<stop offset="1" stop-color="#0C7489"/>
</linearGradient>
<linearGradient id="paint2_linear" x1="61.7206" y1="593.791" x2="415.018" y2="279.514" gradientUnits="userSpaceOnUse">
<stop stop-color="#0C7489"/>
<stop offset="1" stop-color="#0C8F9B"/>
</linearGradient>
<linearGradient id="paint3_linear" x1="378.387" y1="131.404" x2="333.5" y2="202" gradientUnits="userSpaceOnUse">
<stop stop-color="#2BC8D7"/>
<stop offset="1" stop-color="#0FA3B1"/>
</linearGradient>
<linearGradient id="paint4_linear" x1="399.5" y1="231" x2="261.5" y2="176" gradientUnits="userSpaceOnUse">
<stop stop-color="#0C7489"/>
<stop offset="1" stop-color="#2BC8D7"/>
</linearGradient>
<linearGradient id="paint5_linear" x1="317" y1="235.5" x2="314" y2="189" gradientUnits="userSpaceOnUse">
<stop stop-color="#0C7489"/>
<stop offset="0.997086" stop-color="#2BC8D7"/>
</linearGradient>
<linearGradient id="paint6_linear" x1="285.87" y1="290.322" x2="417.804" y2="339.35" gradientUnits="userSpaceOnUse">
<stop stop-color="#0C7489"/>
<stop offset="1" stop-color="#0C8F9B"/>
</linearGradient>
<linearGradient id="paint7_linear" x1="284.467" y1="294.525" x2="416.401" y2="343.552" gradientUnits="userSpaceOnUse">
<stop stop-color="#35536B"/>
<stop offset="1" stop-color="#0A2239"/>
</linearGradient>
<linearGradient id="paint8_linear" x1="275.169" y1="320.202" x2="407.103" y2="369.23" gradientUnits="userSpaceOnUse">
<stop stop-color="#0FA3B1"/>
<stop offset="1" stop-color="#2BC8D7"/>
</linearGradient>
<linearGradient id="paint9_linear" x1="299.178" y1="373.511" x2="290.106" y2="395.523" gradientUnits="userSpaceOnUse">
<stop stop-color="#35536B"/>
<stop offset="1" stop-color="#1A0E90"/>
</linearGradient>
<linearGradient id="paint10_linear" x1="305.939" y1="338.77" x2="323.056" y2="351.647" gradientUnits="userSpaceOnUse">
<stop stop-color="#0A2239"/>
<stop offset="1" stop-color="#244A6E"/>
</linearGradient>
<clipPath id="clip0">
<rect width="726" height="726" fill="white" transform="translate(-19)"/>
</clipPath>
</defs>
</svg>
