<svg xmlns="http://www.w3.org/2000/svg" width="79" height="82" viewBox="0 0 79 82">
    <g fill="none" fill-rule="evenodd">
        <g>
            <g>
                <path stroke="#0C7489" stroke-width="2" d="M74 1L54 45" transform="translate(-553 -2850) translate(554 2851)"/>
                <path stroke="#1D3667" stroke-width="2" d="M54 39L42 30" transform="translate(-553 -2850) translate(554 2851)"/>
                <path stroke="#0C7489" stroke-width="2" d="M19 41L0 79M76 79.063L0 79" transform="translate(-553 -2850) translate(554 2851)"/>
                <path stroke="#0C7489" stroke-width="2" d="M65 2.113L75 1 76 11" transform="translate(-553 -2850) translate(554 2851) rotate(-6 70.5 6)"/>
                <path stroke="#0C7489" stroke-width="2" d="M55 45L18 41" transform="translate(-553 -2850) translate(554 2851)"/>
                <g>
                    <path fill="#0A2239" stroke="#0A2239" stroke-width="6" d="M14.82 34c-1.834.57-3.644 1.636-5.156 3.173-1.536 1.512-2.602 3.32-3.172 5.155-.57 1.834-.645 3.718-.223 5.403 1.71.422 3.594.347 5.428-.223s3.618-1.61 5.155-3.147c1.537-1.537 2.578-3.322 3.148-5.156" transform="translate(-553 -2850) translate(554 2851) rotate(10 -13.72 98.58)"/>
                    <path fill="#0A2239" stroke="#0A2239" stroke-width="5" d="M7.249 23.872l-7.11 7.063h7.11c6.382 2.37 11.256 6.887 14.22 14.125v7.037l7.11-7.037-3.567-10.607c8.592-.574 15.954-3.643 21.33-10.58C51.418 16.883 53.051 9.197 51.67.937c-8.819-2.022-16.582-.45-23.09 5.29-6.33 6.564-9.873 13.626-10.677 21.163L7.249 23.872z" transform="translate(-553 -2850) translate(554 2851) rotate(10 -13.72 98.58)"/>
                    <path fill="#0A2239" stroke="#D5330D" stroke-width="2" d="M14.32 34.58c-1.834.57-3.643 1.637-5.155 3.173-1.537 1.512-2.603 3.322-3.173 5.156-.57 1.834-.644 3.718-.223 5.403 1.71.422 3.594.347 5.428-.223s3.619-1.61 5.156-3.148c1.536-1.536 2.577-3.32 3.148-5.155" transform="translate(-553 -2850) translate(554 2851) rotate(10 -13.72 98.58)"/>
                    <path fill="#0A2239" stroke="#0FA3B1" stroke-width="2" d="M7.11 23.775L0 30.837h7.11c6.382 2.371 11.256 6.888 14.22 14.125V52l7.11-7.038-3.567-10.606c8.593-.574 15.954-3.643 21.33-10.581C51.28 16.787 52.913 9.1 51.53.84 42.711-1.18 34.948.391 28.44 6.131c-6.33 6.563-9.873 13.626-10.677 21.163L7.11 23.774z" transform="translate(-553 -2850) translate(554 2851) rotate(10 -13.72 98.58)"/>
                    <path fill="#0FA3B1" stroke="#0FA3B1" stroke-width="2" d="M43.52 15.537c-1.947 1.95-5.093 1.95-7.04 0-1.973-1.95-1.973-5.125 0-7.075 1.947-1.95 5.093-1.95 7.04 0 1.973 1.95 1.973 5.126 0 7.075z" transform="translate(-553 -2850) translate(554 2851) rotate(10 -13.72 98.58)"/>
                </g>
            </g>
        </g>
    </g>
</svg>
