<?xml version="1.0" encoding="UTF-8" standalone="no"?><!DOCTYPE svg PUBLIC "-//W3C//DTD SVG 1.1//EN" "http://www.w3.org/Graphics/SVG/1.1/DTD/svg11.dtd"><svg width="100%" height="100%" viewBox="0 0 435 160" version="1.1" xmlns="http://www.w3.org/2000/svg" xmlns:xlink="http://www.w3.org/1999/xlink" xml:space="preserve" xmlns:serif="http://www.serif.com/" style="fill-rule:evenodd;clip-rule:evenodd;stroke-linejoin:round;stroke-miterlimit:2;"><g id="Layer-2-line-gold" serif:id="Layer 2 line gold"><path d="M103.787,26.561c16.558,9.577 26.843,27.396 26.843,46.497c0,19.104 -10.285,36.919 -26.843,46.498l5.82,10.061c20.137,-11.649 32.647,-33.32 32.647,-56.559c0,-23.238 -12.51,-44.91 -32.647,-56.559l-5.82,10.062Zm-92.013,46.497c0,23.239 12.51,44.91 32.646,56.559l5.822,-10.061c-16.558,-9.579 -26.844,-27.395 -26.844,-46.498c0,-19.101 10.286,-36.92 26.844,-46.497l-5.821,-10.062c-20.137,11.648 -32.647,33.321 -32.647,56.559Zm81.912,-28.996c10.33,5.972 16.746,17.085 16.746,28.996c0,11.912 -6.416,23.022 -16.746,28.998l3.535,6.109c12.502,-7.231 20.27,-20.683 20.27,-35.107c0,-14.423 -7.768,-27.875 -20.27,-35.107l-3.535,6.111Zm-57.147,28.996c0,14.422 7.767,27.876 20.27,35.107l3.533,-6.109c-10.328,-5.976 -16.745,-17.086 -16.745,-28.998c0,-11.911 6.417,-23.024 16.746,-28.996l-3.533,-6.111c-12.504,7.232 -20.271,20.684 -20.271,35.107Zm50.721,-17.864c6.367,3.682 10.32,10.527 10.32,17.864c0,7.338 -3.955,14.183 -10.32,17.865l2.285,3.953c7.774,-4.495 12.601,-12.855 12.601,-21.818c0,-8.962 -4.827,-17.322 -12.601,-21.817l-2.285,3.953Zm-35.378,17.864c0,8.962 4.829,17.323 12.601,21.818l2.286,-3.953c-6.366,-3.683 -10.32,-10.527 -10.32,-17.865c0,-7.337 3.954,-14.182 10.32,-17.864l-2.285,-3.953c-7.773,4.495 -12.602,12.855 -12.602,21.817Zm18.953,-0.165c0,2.181 1.134,4.23 2.955,5.343l1.302,-2.126c-1.089,-0.666 -1.765,-1.897 -1.765,-3.217c0,-2.072 1.684,-3.76 3.753,-3.76c0.857,0 1.662,0.279 2.326,0.807c0.905,0.716 1.424,1.785 1.424,2.93c0,1.654 -1.063,3.093 -2.645,3.58c-0.648,0.2 -1.327,0.503 -1.888,1.343c-0.556,0.833 -0.568,1.881 -0.566,2.066c0,0.094 -0.001,0.949 -0.003,2.167l-0.85,0l0,7.058l-3.618,0c-1.416,0 -2.703,1.66 -2.703,3.322l16.796,0c0,-1.248 -1.29,-3.322 -2.702,-3.322l-3.622,0l0,-7.058l-0.81,0c0.002,-1.655 0.002,-2.076 0.001,-2.076l0.003,0c-0.005,-0.413 0.06,-0.579 0.145,-0.708c0.127,-0.189 0.205,-0.304 0.552,-0.412c2.633,-0.81 4.4,-3.207 4.4,-5.96c0,-1.908 -0.861,-3.688 -2.365,-4.881c-1.109,-0.881 -2.45,-1.346 -3.875,-1.346c-3.443,0 -6.245,2.804 -6.245,6.25Zm-2.599,57.29l17.022,0l0,-35.702l-17.022,0l0,35.702Zm0.321,1.931c0.127,1.38 1.287,2.46 2.703,2.46l11.391,0c1.412,0 2.574,-1.08 2.702,-2.46l-16.796,0Zm5.042,3.807c0,0 0.77,20.936 1.473,20.936c0.642,0 1.677,-4.769 2.584,-9.753c-1.314,-0.813 -2.192,-2.267 -2.192,-3.924c0,-2.201 1.544,-4.042 3.606,-4.5c0.26,-1.673 0.42,-2.759 0.42,-2.759l-5.891,0Z" style="fill:url(#_Linear1);fill-rule:nonzero;"/><path d="M251.875,110.592c-1.381,0 -2.5,1.119 -2.5,2.5c0,1.381 1.119,2.5 2.5,2.5c1.381,0 2.5,-1.119 2.5,-2.5c0,-1.381 -1.119,-2.5 -2.5,-2.5m13.125,-12.926l9,0l0,22l4,0l0,-22l15,0l0,22l4,0l0,-22l9,0l0,-4l-41,0l0,4Zm-45,1l6,0l0,21l4,0l0,-21l6,0l0,-4l-16,0l0,4Zm106.161,8.536c0,-7.559 -1.418,-9.629 -6.597,-9.629c-5.487,0 -6.463,2.523 -6.463,9.629c0,7.107 0.976,9.629 6.463,9.629c5.179,0 6.597,-2.069 6.597,-9.629m4,0c0,4.763 0,13.629 -10.597,13.629c-10.463,0 -10.463,-8.531 -10.463,-13.629c0,-5.097 0,-13.629 10.463,-13.629c10.597,0 10.597,8.867 10.597,13.629m21.834,0c0,-7.559 -1.418,-9.629 -6.598,-9.629c-5.486,0 -6.462,2.523 -6.462,9.629c0,7.107 0.976,9.629 6.462,9.629c5.18,0 6.598,-2.069 6.598,-9.629m4,0c0,4.763 0,13.629 -10.598,13.629c-10.462,0 -10.462,-8.531 -10.462,-13.629c0,-5.097 0,-13.629 10.462,-13.629c10.598,0 10.598,8.867 10.598,13.629m-101.863,-12.536l8.983,23.365l-3.734,1.436l-7.507,-19.526l-7.505,19.526l-3.734,-1.436l8.981,-23.365l4.516,0Z" style="fill:#f2d477;fill-rule:nonzero;"/><path d="M375,81.33l-13.217,-27.664l-2.783,0l0,31l2,0l0,-27.999l13.377,27.999l2.623,0l0,-31l-2,0l0,27.664Zm-82,3.336l15,0l0,-2l-13,0l0,-15l8,0l0,-2l-8,0l0,-10l13,0l0,-2l-15,0l0,31Zm112,-29l0,-2l-15,0l0,31l15,0l0,-2l-13,0l0,-16l9,0l0,-2l-9,0l0,-9l13,0Zm-61,29l2,0l0,-31l-2,0l0,31Zm-124.088,-20.488c0,-4.421 -0.934,-8.512 -7.713,-8.512l-6.199,0l0,17l6.199,0c6.779,0 7.713,-4.08 7.713,-8.488m-4.251,10.074l5.856,10.446l-1.745,0.979l-6.206,-11.073c-0.434,0.038 -0.885,0.062 -1.367,0.062l-6.199,0l0,10l-2,0l0,-31l8.199,0c9.713,0 9.713,7.912 9.713,10.512c0,2.239 -0.006,8.422 -6.251,10.074m62.57,-10.074c0,-4.421 -0.934,-8.512 -7.712,-8.512l-5.519,0l0,17l5.519,0c6.778,0 7.712,-4.08 7.712,-8.488m2,0c0,2.594 0,10.488 -9.712,10.488l-5.519,0l0,10l-2,0l0,-31l7.519,0c9.712,0 9.712,7.912 9.712,10.512m-96.231,3.488l5,0l0,7.23c0,5.189 -2.045,7.785 -6.08,7.785c-6.248,0 -6.932,-4.454 -6.932,-13.83c0,-8.966 1.17,-13.588 7.563,-13.588c2.829,0 5.311,2.403 5.311,4.403l2,0c0,-3 -3.348,-6.403 -7.311,-6.403c-8.825,0 -9.563,7.806 -9.563,15.658c0,7.765 0,15.795 8.932,15.795c3.018,0 8.08,-1.276 8.08,-9.82l0,-9.23l-7,0l0,2Zm141.456,15l-0.261,0l-8.328,-29.647l-1.926,0.541l8.739,31.106l3.292,0l8.738,-31.142l-1.926,-0.54l-8.328,29.682Zm-82.215,-29l8.738,31.121l-1.926,0.541l-8.327,-29.662l-0.262,0l-8.328,29.604l-1.926,-0.541l8.738,-31.063l3.293,0Z" style="fill:#f2d477;fill-rule:nonzero;"/></g><defs><linearGradient id="_Linear1" x1="0" y1="0" x2="1" y2="0" gradientUnits="userSpaceOnUse" gradientTransform="matrix(-3.1e-06,69.9204,-69.9204,-3.1e-06,77.0142,54.8738)"><stop offset="0" style="stop-color:#8c6239;stop-opacity:1"/><stop offset="0.12" style="stop-color:#c8994c;stop-opacity:1"/><stop offset="0.24" style="stop-color:#efc675;stop-opacity:1"/><stop offset="0.34" style="stop-color:#f3e080;stop-opacity:1"/><stop offset="0.53" style="stop-color:#a67c52;stop-opacity:1"/><stop offset="0.72" style="stop-color:#c8994c;stop-opacity:1"/><stop offset="0.83" style="stop-color:#efc675;stop-opacity:1"/><stop offset="1" style="stop-color:#f3e080;stop-opacity:1"/></linearGradient></defs></svg>