<svg width="80" height="77" viewBox="0 0 80 77" fill="none" xmlns="http://www.w3.org/2000/svg">
<path d="M41.4847 38.1638C39.2338 38.1324 37.2945 36.2641 37.4915 34.0408C37.6749 31.9705 39.4804 30.5679 41.5763 30.5901C43.6763 30.6122 45.4567 32.0618 45.5902 34.1399C45.7336 36.3711 43.7393 38.1952 41.4847 38.1638ZM49.4471 46.1289C49.4471 46.1289 45.2136 48.2799 42.2787 48.4319C41.5464 48.4699 41.1324 48.4654 40.4013 48.409C37.4914 48.1843 33.3456 45.9318 33.3456 45.9318L33.2931 45.736L33.4151 44.7128L33.4163 44.6153L33.661 43.6546L33.7177 43.4967L34.1262 42.5869L34.1827 42.4412L34.714 41.5817L35.5771 40.47L36.3257 39.7717L36.4502 39.6757L37.3077 39.0275L37.4866 38.9687L37.9972 38.6822C37.9972 38.6822 40.0385 39.8155 41.4644 39.8346C42.8955 39.8538 44.9723 38.7676 44.9723 38.7676L44.9717 38.8164L45.5306 39.0671L46.0462 39.4882L46.4948 39.7987L47.01 40.2563L47.3476 40.6752L47.7938 41.1807L48.1307 41.6483L48.694 42.6676L48.9608 43.2808L49.1333 43.7465L49.3029 44.456L49.4082 44.8111L49.4495 45.9338L49.4471 46.1289ZM32.4194 27.3073C38.1284 23.6593 41.621 24.0918 41.621 24.0918C45.5117 24.3706 48.0816 25.4294 50.8289 28.1273C53.4959 30.7463 54.568 33.4272 54.5347 36.9738C54.504 40.245 51.2873 44.6877 51.2873 44.6877L51.2879 44.6389L51.0263 43.6111L50.6288 42.484L50.5215 42.2875L50.0804 41.3673L49.9053 41.109L49.4082 40.2856L49.1776 40.0876L48.6102 39.4098L48.339 39.1626L47.716 38.545L47.4308 38.3342L46.6296 37.7144L46.2888 37.5639C46.2888 37.5639 47.4954 35.5692 47.4813 34.1631C47.4506 31.0969 44.689 28.9413 41.5967 28.907C38.5084 28.8727 35.7128 30.9574 35.6004 34.0176C35.5489 35.4212 36.6965 37.4464 36.6965 37.4464L36.1857 37.7451L35.951 37.8887L35.1488 38.4888L34.9688 38.6451L34.2894 39.2954L34.1648 39.3915L33.5246 40.201L33.3578 40.3941L32.7724 41.2042L32.7157 41.3499L32.3084 42.1621L32.1964 42.3681L31.8433 43.2299L31.7718 43.4729L31.5413 44.3972L31.5407 44.4459C26.9649 39.7669 26.7105 30.9553 32.4194 27.3073ZM55.4197 36.9738C55.7696 32.732 54.4618 29.2634 51.3643 26.363C48.2481 23.4451 43.5869 22.6691 43.5869 22.6691C43.5869 22.6691 38.7151 20.9232 32.773 26.0833C26.8309 31.2435 25.2448 39.4089 31.0603 44.713L32.3084 45.9338C32.3084 45.9338 37.5761 49.365 41.4997 49.4163C45.4335 49.4677 46.8889 48.3251 50.6288 46.1289C51.0953 45.855 52.1662 43.9075 52.5197 43.4967C55.1401 40.452 55.0659 41.262 55.4197 36.9738Z" fill="#D5330D"/>
<path d="M62.4769 73.0809C60.5227 74.196 58.2782 72.9164 57 71C55.142 68.2141 52.3681 63.1456 52.3681 63.1456L59.4417 60.0251C59.4417 60.0251 63 65 64 68C64.655 69.9651 64.2448 72.072 62.4769 73.0809ZM56.7801 55.2686L58.7034 58.6474L51.6052 61.8052L49.6816 58.4262L56.7801 55.2686ZM50.4788 52.0214L52.1773 51.1587L54.2414 54.7201L50.7019 56.3078L48.6715 52.7576L50.4788 52.0214ZM25.6799 42.8C21.0592 34.6187 24.2532 24.8775 32.8109 21.0513C37.1056 19.1092 41.9853 19.0512 46.3174 20.4716C50.6495 21.892 54.5471 24.828 56.858 28.9359C61.4888 37.0864 58.2948 46.8277 49.727 50.6847C41.0992 54.5333 30.3538 51.0101 25.6799 42.8ZM57.8229 53.9978C57.6195 53.5798 57.1558 53.5992 56.6918 53.627C56.2471 53.6535 55.6501 54.0918 55.6501 54.0918L53.4957 50.3078C60.535 45.3818 62.7892 36.1386 58.2688 28.2628C53.2055 19.3685 41.4194 15.5041 32.0726 19.6735C22.7112 23.8494 19.2079 34.5341 24.2826 43.4321C26.8228 47.9104 31.0085 51.0772 35.7704 52.6385C40.5323 54.1999 47.1391 53.1522 47.1391 53.1522L49.2366 56.9176C49.2366 56.9176 48.4975 57.0536 48.206 57.386C47.9281 57.7028 47.649 58.0524 47.8698 58.4113C51 63.5 55.5 71.5 55.5 71.5C55.5 71.5 57.2219 74.0387 58.9394 74.6238C60.5268 75.1646 61.7215 75.153 63.2287 74.4176C64.6292 73.7342 64.9855 72.8492 65.5 71.5C66.0721 70 66 68 65.5 67C62.6957 61.3915 60.5 59.5 57.8229 53.9978Z" fill="#0C7489"/>
<path d="M2.02442 9.27088V1.85958H66.8385V9.27088H2.02442ZM67.9193 0H1.00454L0 0.902856V56.0972L1.00454 57H46L47 56L46 55.1944H2.02442V11.117H66.8385V55.1944H61L60 56L61 57H67.9193L69 56.0972V0.902856L67.9193 0Z" fill="#0FA3B1"/>
<path d="M7 5C7 5.553 6.553 6 6 6C5.447 6 5 5.553 5 5C5 4.447 5.447 4 6 4C6.553 4 7 4.447 7 5Z" fill="#2BC8D7"/>
<path d="M11 5C11 5.553 10.553 6 10 6C9.447 6 9 5.553 9 5C9 4.447 9.447 4 10 4C10.553 4 11 4.447 11 5Z" fill="#2BC8D7"/>
<path d="M55 36C55 43.1469 48.9892 49 41.5 49C34.0108 49 28 43.1469 28 36C28 28.8531 34.0108 23 41.5 23C48.9892 23 55 28.8531 55 36Z" stroke="#D5330D" stroke-width="2"/>
</svg>
