<svg xmlns="http://www.w3.org/2000/svg" width="91" height="90" viewBox="0 0 91 90">
    <g fill="none" fill-rule="evenodd" stroke-linejoin="round" stroke-width="2">
        <path stroke="#0FA3B1" stroke-linecap="round" d="M59.833 1v3M83.333 13l2-2M72.433 7l.8-3M46.233 7l-.8-3"/>
        <path stroke="#D5330D" stroke-linecap="round" d="M48.436 70.311s-1.114-5.902-3.342-8.86c-5.12-6.784-10.76-15.104-10.76-23.851 0-14.138 11.364-25.6 25.384-25.6s25.385 11.462 25.385 25.6l4.23 12.8h-7.05v8.533c0 3.142-2.527 5.69-5.642 5.69H74.3a4.238 4.238 0 0 0-4.104 3.228 21.304 21.304 0 0 0-.606 4.992V76H48.436"/>
        <path stroke="#0FA3B1" stroke-linecap="round" d="M55.048 62c0-8.625 0-17.25-5.715-23h20c-5.714 5.75-5.714 14.375-5.714 23"/>
        <path stroke="#0FA3B1" stroke-linecap="square" d="M48.333 82a7 7 0 0 0 7 7h7a7 7 0 0 0 7-7"/>
        <path stroke="#0C7489" stroke-linecap="square" d="M39.905 12h-4.286a2.855 2.855 0 0 0-2.857 2.852v1.198a2.852 2.852 0 0 1-1.757 2.638l-7.343 3.023a2.861 2.861 0 0 1-3.114-.614l-.843-.84a2.86 2.86 0 0 0-4.043 0l-6.057 6.002a2.85 2.85 0 0 0 0 4.036l1.514 1.511c.41.407.534 1.02.314 1.554l-3.4 8.214A2.857 2.857 0 0 1 5.39 43.37h-1.2a2.855 2.855 0 0 0-2.857 2.852v8.556A2.855 2.855 0 0 0 4.19 57.63h1.2a2.857 2.857 0 0 1 2.643 1.754l3.029 7.329a2.848 2.848 0 0 1-.614 3.108l-.843.842a2.85 2.85 0 0 0 0 4.035l6.014 6.046a2.86 2.86 0 0 0 4.043 0l.843-.841a2.861 2.861 0 0 1 3.114-.614l7.343 3.023a2.852 2.852 0 0 1 1.8 2.638v1.198A2.855 2.855 0 0 0 35.619 89h5.714"/>
        <path stroke="#0C7489" stroke-linecap="round" d="M24.901 39a19.588 19.588 0 0 0-1.307 20.405C27.024 65.918 33.819 70 41.228 70h7.105"/>
    </g>
</svg>
