<svg xmlns="http://www.w3.org/2000/svg" width="367" height="309" viewBox="0 0 367 309">
    <defs>
        <linearGradient id="xlycj31xqa" x1="4.321%" x2="94.55%" y1="27.988%" y2="68.232%">
            <stop offset="0%" stop-color="#0C7489"/>
            <stop offset="100%" stop-color="#0A2239"/>
        </linearGradient>
        <linearGradient id="c5u12r4qub" x1="-22.069%" x2="99.594%" y1="50.274%" y2="49.615%">
            <stop offset="0%" stop-color="#0FA3B1"/>
            <stop offset="100%" stop-color="#096577"/>
        </linearGradient>
        <linearGradient id="wzb6lab5jc" x1="-26.197%" x2="78.84%" y1="36.979%" y2="57.462%">
            <stop offset="0%" stop-color="#0FA3B1"/>
            <stop offset="100%" stop-color="#096577"/>
        </linearGradient>
        <linearGradient id="b31qhm4mvd" x1="60.747%" x2=".48%" y1="56.184%" y2="45.149%">
            <stop offset="0%" stop-color="#0C7489"/>
            <stop offset="100%" stop-color="#0FA3B1"/>
        </linearGradient>
        <linearGradient id="6qk4v51hpe" x1="56.5%" x2=".48%" y1="56.271%" y2="45.412%">
            <stop offset="0%" stop-color="#0C7489"/>
            <stop offset="100%" stop-color="#0FA3B1"/>
        </linearGradient>
        <linearGradient id="arv5zn2fzf" x1="-3.913%" x2="81.28%" y1="41.841%" y2="58.549%">
            <stop offset="0%" stop-color="#0FA3B1"/>
            <stop offset="100%" stop-color="#096577"/>
        </linearGradient>
        <linearGradient id="hwrioxfldg" x1="-22.069%" x2="71.998%" y1="50.288%" y2="57.253%">
            <stop offset="0%" stop-color="#0FA3B1"/>
            <stop offset="100%" stop-color="#096577"/>
        </linearGradient>
        <linearGradient id="5wd1u4i29h" x1="-17.545%" x2="71.214%" y1="51.628%" y2="73.08%">
            <stop offset="0%" stop-color="#0FA3B1"/>
            <stop offset="100%" stop-color="#096577"/>
        </linearGradient>
        <linearGradient id="r7xw4jtxui" x1="-22.069%" x2="70.784%" y1="50.338%" y2="59.338%">
            <stop offset="0%" stop-color="#0FA3B1"/>
            <stop offset="100%" stop-color="#085767"/>
        </linearGradient>
        <linearGradient id="ngmkvkoz9j" x1="-16.572%" x2="82.629%" y1="41.829%" y2="60.538%">
            <stop offset="0%" stop-color="#0FA3B1"/>
            <stop offset="100%" stop-color="#096577"/>
        </linearGradient>
        <linearGradient id="tdkf7wm2gk" x1="-22.069%" x2="80.194%" y1="50.037%" y2="50.389%">
            <stop offset="0%" stop-color="#0FA3B1"/>
            <stop offset="100%" stop-color="#096577"/>
        </linearGradient>
        <linearGradient id="z0lys4wdul" x1="-22.069%" x2="99.594%" y1="50.141%" y2="49.801%">
            <stop offset="0%" stop-color="#0FA3B1"/>
            <stop offset="100%" stop-color="#096577"/>
        </linearGradient>
        <linearGradient id="1e42od7mpm" x1="97.647%" x2="1.205%" y1="97.772%" y2="176.118%">
            <stop offset="0%" stop-color="#B42B0B"/>
            <stop offset="100%" stop-color="#D5330D"/>
        </linearGradient>
    </defs>
    <g fill="none" fill-rule="evenodd">
        <g>
            <g>
                <g>
                    <path fill="url(#xlycj31xqa)" d="M1.02 172.1c9.72 84.765 86.316 145.6 171.08 135.88 84.765-9.721 145.6-86.316 135.88-171.08C298.259 52.135 221.664-8.7 136.9 1.02 52.135 10.74-8.7 87.336 1.02 172.1z" transform="translate(-120 -5370) translate(120 5367.367) translate(58 2.633)"/>
                    <path fill="url(#c5u12r4qub)" d="M115.484 8.166c1.09 2.423 5.942 4.992 8.093 6.551 5.192 3.77 10.37 7.553 15.673 11.16 21.894 14.896 46.313 28.181 73.217 29.64 6.425.348 14.25.552 20.398-1.823 5.715-2.209 7.825-9.895 5.495-15.174-1.823-4.131-6.2-7.507-9.64-10.267-9.891-7.924-21.608-13.492-33.94-16.208-2.918-.643-5.869-1.139-8.84-1.461-1.272-.14-2.55-.245-3.827-.315-4.386-.243-5.536-.91-8.367 2.884-2.435 3.263-2.632 3.376-.233 6.393 1.36 1.71 3.331 3.171 5.06 4.5 3.226 2.48 6.8 4.589 10.497 6.27 3.936 1.787 14.566 6.624 19.053 4.71l1.318-2.024c2.138-1.834 1.699-2.906-1.318-3.215-1.355-1.076-3.696-1.665-5.276-2.379-3.532-1.595-7-3.227-10.415-5.066-.742-.399-.27-1.504.527-1.21 1.852.682 32.23 11.681 19.213 15.843-5.846 1.87-14.981-1.387-20.44-3.378-6.895-2.513-15.269-6.8-19.94-12.748-2.089-2.658-4.308-6.985-2.197-10.251 3.164-4.895 13.523-2.538 17.945-1.984 16.63 2.083 32.857 9.223 45.44 20.457 9.036 8.067 14.812 22.047-.325 26.832-15.437 4.88-34.656.381-49.437-4.719-18.992-6.554-35.989-17.477-52.422-28.898-6.33-4.398-15.99-9.852-18.019-16.633.803-.227 1.612-.439 2.422-.653-.114 1.269-.058 2.402.285 3.166z" transform="translate(-120 -5370) translate(120 5367.367) translate(58 2.633)"/>
                    <path fill="url(#wzb6lab5jc)" d="M272.392 84.4c-14.702 7.638-31.694 4.17-47.1.956-17.713-3.696-35.496-7.22-52.87-12.318-29.435-8.636-58.742-22.839-77.431-47.972-2.312-3.108-4.459-6.445-6.303-9.939 1.555-.73 3.115-1.449 4.7-2.127.31.553.617 1.112.941 1.643 13.847 22.657 38.483 37.242 62.776 46.502 14.295 5.45 29.165 9.197 44.086 12.497 13.995 3.095 28.266 6.839 42.525 8.44 13.51 1.518 32.18-1.498 37.665-15.602 1.39 1.987 2.737 4.008 4.034 6.064-3.014 4.967-7.622 9.05-13.023 11.856z" transform="translate(-120 -5370) translate(120 5367.367) translate(58 2.633)"/>
                    <path fill="url(#b31qhm4mvd)" d="M238.56 115.146c-24.895-2.381-49.213-9.592-72.355-18.904-22.761-9.16-46.978-19.44-65.829-35.5-11.668-9.94-21.733-22.387-29.334-36.098.865-.559 1.743-1.102 2.621-1.644 8.838 13.628 19.9 25.562 33.522 35.496 21.599 15.751 47.622 26.835 72.622 35.94 25.638 9.337 52.882 15.733 80.305 15.01 6.684-.177 13.34-.803 19.946-1.825 6.271-.97 14.232-1.77 19.518-5.793.717 1.97 1.412 3.953 2.052 5.964-7.499 4.95-18.06 6.082-26.517 7.098-12.115 1.454-24.414 1.417-36.552.256z" transform="translate(-120 -5370) translate(120 5367.367) translate(58 2.633)"/>
                    <path fill="url(#6qk4v51hpe)" d="M258.218 130.706c-31.6 1.929-59.963 2.892-90.851-6.002-25.075-7.22-50.48-19.216-69.28-37.53-9.885-9.63-16.466-21.41-25.637-31.54C66.173 48.7 59.997 43.267 56.685 35.21c.496-.405.99-.813 1.493-1.21 6.384 10.213 16.868 15.946 26.75 22.806 8.32 5.776 15.683 12.629 23.708 18.782 19.184 14.708 39.974 25.748 63.103 32.986 25.153 7.87 53.634 12.292 79.908 13.546 14.29.682 28.786-.914 43.005-2.345 3.364-.34 6.793-.597 10.225-.9.625 2.658 1.185 5.342 1.671 8.057-16.278 3.052-33.928 2.895-48.33 3.774z" transform="translate(-120 -5370) translate(120 5367.367) translate(58 2.633)"/>
                    <path fill="url(#arv5zn2fzf)" d="M282.53 210.516c-16.26 1.407-32.336 4.293-48.456 6.756-28.626 4.37-58.434 7.674-86.94.684-24.48-6.004-47.28-18.821-68.104-32.672-22.466-14.942-43.159-31.463-55.306-56.14-5.242-10.647-9.197-21.929-12.226-33.392 1.5-3.655 3.154-7.236 4.924-10.752 1.454 3.97 2.911 7.627 3.744 10.05 10.562 30.708 30.928 48.213 56.376 66.83 23.2 16.971 47.892 30.996 75.443 39.53 35.924 11.126 71.646 5.639 108.294 2.522 12.15-1.034 26.958-2.816 41.127-2.057-.83 2.54-1.72 5.053-2.677 7.538-5.57.159-11.08.66-16.198 1.103z" transform="translate(-120 -5370) translate(120 5367.367) translate(58 2.633)"/>
                    <path fill="url(#hwrioxfldg)" d="M133.014 236.52c-17.396-5.39-33.447-14.373-49.353-23.098-12.343-6.771-23.584-13.74-32.46-24.824-11.661-14.565-26.382-25.557-38.556-39.542-4.162-4.78-7.72-9.99-11.273-15.162.537-4.013 1.259-7.973 2.102-11.894 1.427 2.083 2.827 4.21 4.223 6.388C17.262 143.315 29.1 154.48 41.524 167c10.907 10.992 18.315 24.588 31.3 33.443 16.296 11.113 33.4 19.112 52.409 24.245 31.623 8.538 66.882 4.368 99.47 5.726 20.489.854 43.085 2.992 64.24.109-1.112 1.96-2.27 3.891-3.463 5.8-13.871 1.758-28.117 2.08-41.896 2.938-36.765 2.292-74.637 8.394-110.57-2.74z" transform="translate(-120 -5370) translate(120 5367.367) translate(58 2.633)"/>
                    <path fill="url(#5wd1u4i29h)" d="M.082 158c6.52 9.224 14.484 17.762 22.667 25.943 19.579 19.575 41.025 37.453 59.49 58.058.407.456-.21 1.222-.743.937C54.9 228.692 24.84 210.397 3.44 186.768c-1.024-4.829-1.847-9.742-2.419-14.745C.482 167.319.196 162.645.082 158z" transform="translate(-120 -5370) translate(120 5367.367) translate(58 2.633)"/>
                    <path fill="url(#r7xw4jtxui)" d="M275.274 185.054c-15.039 1.491-29.652 5.362-44.89 4.91-50.686-1.508-105.483-8.7-145.58-42.533-16.993-14.337-32.887-32.042-43.183-51.87-4.847-9.335-8.559-19.786-14.807-28.335 1.195-1.767 2.42-3.511 3.686-5.226 14.172 17.176 20.388 40.614 35.082 57.866 19.767 23.21 50.29 33.569 79.038 40.494 31.07 7.483 63.15 8.326 94.644 12.903 20.505 2.982 39.017 5.385 59.799 3.233 2.15-.223 5.363-.172 8.489-.376-.297 2.163-.66 4.306-1.047 6.443-10.324 1.55-21.377 1.514-31.231 2.491z" transform="translate(-120 -5370) translate(120 5367.367) translate(58 2.633)"/>
                    <path fill="url(#ngmkvkoz9j)" d="M308.284 157.743c-.063-.24-.057-.483-.09-.725-27.063-2.509-52.171 12.364-79.427 8.262-28.756-4.328-59.864-8.954-87.662-17.58-26.945-8.36-45.296-27.591-63.862-47.812-9.534-10.386-19.39-21.47-26.456-33.723-3.273-5.68-5.604-12.022-7.568-18.496 1.21-1.25 2.47-2.458 3.723-3.669 12.318 18.16 30 35.044 45.368 48.826 21.04 18.87 40.921 35.36 68.388 43.64 25.91 7.81 57.005 22.123 84.432 20.128 22.249-1.62 41.8-10.394 63.71-8.022.137 3.632.179 7.247.06 10.832-.232-.498-.45-1.027-.616-1.66z" transform="translate(-120 -5370) translate(120 5367.367) translate(58 2.633)"/>
                    <path fill="url(#tdkf7wm2gk)" d="M170.546 270.425c-25.937-2.962-58.982-6.837-80.785-22.436-1.784-1.276.327-3.908 2.108-2.663 23.03 16.093 61.22 19.05 88.511 21.098 15.76 1.182 32.108 1.655 47.884.166 13.07-1.234 25.725-4.957 38.744-6.249-3.492 3.73-7.165 7.29-11.017 10.664-28.472-.173-56.845 2.689-85.445-.58z" transform="translate(-120 -5370) translate(120 5367.367) translate(58 2.633)"/>
                    <path fill="url(#z0lys4wdul)" d="M127.004 287.354c23.053 5.23 46.938 6.177 70.412 3.256 12.485-1.555 24.037-5.647 35.992-9.361 4.725-1.47 10.607-2.816 16.327-4.695-9.612 7.57-20.175 14.027-31.512 19.177-25.26 1.989-50.468 1.786-75.631-1.656-45.994-6.294-83.158-28.834-118.35-56.23-1.833-2.88-3.56-5.835-5.204-8.845 32.212 26.354 66.109 48.86 107.966 58.354z" transform="translate(-120 -5370) translate(120 5367.367) translate(58 2.633)"/>
                </g>
                <g fill="url(#1e42od7mpm)" fill-rule="nonzero" transform="translate(-120 -5370) translate(120 5367.367) matrix(-1 0 0 1 168 72.633)">
                    <path d="M16.302 0S126.26 35.308 159.937 69.616C193.614 103.924 110.908 146 110.908 146s75.147-44.882 43.988-71.636C123.74 47.607 30.544 17.384 0 10.45L16.302 0z"/>
                </g>
                <g fill-rule="nonzero">
                    <path fill="#0A2239" d="M21.232 133.365L1.46 158.078.232 127.013l16.75-19.935c.875 10.368 2.541 19.273 4.25 26.287z" transform="translate(-120 -5370) translate(120 5367.367) rotate(69 132.775 194.127)"/>
                    <path fill="#061422" d="M1.62 158.903l-.134-3.378 17.852-22.206c-1.545-6.31-3.055-14.152-3.983-23.213l1.86-2.203c.88 10.368 2.554 19.273 4.271 26.287L1.62 158.903z" transform="translate(-120 -5370) translate(120 5367.367) rotate(69 132.775 194.127)"/>
                    <path fill="#0A2239" d="M61.512 154.97l1.076-28.293-15.934-19.706c-1.057 10.356-2.61 19.497-4.066 26.686l16.411 21.314h2.513z" transform="translate(-120 -5370) translate(120 5367.367) rotate(69 132.775 194.127)"/>
                    <path fill="#061422" d="M60.963 155.079h-2.521l-16.467-21.314c1.461-7.188 3.02-16.33 4.08-26.686l2.456 3.027c-1.04 9.112-2.435 17.18-3.753 23.659l16.217 20.99-.012.324z" transform="translate(-120 -5370) translate(120 5367.367) rotate(69 132.775 194.127)"/>
                    <path fill="#0FA3B1" d="M45.027 50.026c-13.958 7.772-23.566.347-24 .014C26.677 23.123 35.53.559 35.53.559s5.734 23.76 9.497 49.467z" transform="translate(-120 -5370) translate(120 5367.367) rotate(69 132.775 194.127)"/>
                    <path fill="#0C7489" d="M32.378 53.45c-3.82 0-6.816-1.07-8.738-2.032 1.614.492 3.556.854 5.777.854 3.47 0 7.62-.884 12.261-3.534-2.573-18.03-6.093-35.102-7.967-43.69C34.677 2.29 35.293.665 35.367.47l.001-.001.003-.006V.46l.001-.002.002-.004V.452h.001V.45s5.594 23.76 9.265 49.466c-.52.297-1.033.57-1.54.824-3.208 1.605-6.16 2.374-8.786 2.619-.666.062-1.312.09-1.936.09z" transform="translate(-120 -5370) translate(120 5367.367) rotate(69 132.775 194.127)"/>
                    <path fill="#0FA3B1" d="M47.544 92.622c-.233 4.816-.602 9.465-1.066 13.88-1.052 10.267-2.597 19.33-4.047 26.458-.3 1.424-.586 2.752-.86 4.011-10.43 5.965-19.176 0-19.176 0-.383-1.41-.766-2.933-1.149-4.565-1.654-7.03-3.266-15.956-4.113-26.348-.342-4.248-.561-8.731-.589-13.436.493.402 12.603 9.908 31 0z" transform="translate(-120 -5370) translate(120 5367.367) rotate(69 132.775 194.127)"/>
                    <path fill="#0C7489" d="M32.13 140.23h-.009c-5.765-.002-9.75-2.59-9.918-2.703l-.006-.004c-.149-.543-.3-1.103-.45-1.679 1.744.766 4.54 1.679 7.966 1.679 2.949 0 6.363-.676 9.97-2.706.285-1.286.583-2.643.894-4.099 1.505-7.278 3.107-16.534 4.2-27.02.35-3.272.648-6.671.877-10.17l.366-.167.035-.016.023-.011.063-.028c.001-.002.005-.003.008-.005.707-.329 1.425-.685 2.152-1.07-.242 4.918-.625 9.666-1.107 14.174-1.092 10.486-2.696 19.742-4.2 27.02-.312 1.455-.61 2.812-.894 4.098l-.16.09-.036.02c-3.531 1.943-6.871 2.595-9.763 2.598h-.011z" transform="translate(-120 -5370) translate(120 5367.367) rotate(69 132.775 194.127)"/>
                    <path fill="#0A2239" d="M42.242 137.012c-1.852 8.179-3.378 13-3.378 13H26.56s-2.038-4.68-4.32-13c0 0 9.123 6.078 20 0z" transform="translate(-120 -5370) translate(120 5367.367) rotate(69 132.775 194.127)"/>
                    <path fill="#061422" d="M38.864 150.012H36.94c.617-2.174 1.61-5.871 2.722-10.775-3.625 2.026-7.056 2.7-10.02 2.7-2.466 0-4.61-.468-6.27-1.014-.364-1.196-.744-2.5-1.13-3.91 0 0 4.05 2.698 9.972 2.7h.02c2.907 0 6.262-.653 9.81-2.59l.036-.02.162-.09c-1.852 8.178-3.378 13-3.378 13z" transform="translate(-120 -5370) translate(120 5367.367) rotate(69 132.775 194.127)"/>
                    <path fill="#0A2239" d="M31.946 85.072c-6.107 0-11.06-5.086-11.06-11.36 0-6.259 4.953-11.345 11.06-11.345 6.11 0 11.049 5.086 11.049 11.346 0 6.273-4.94 11.36-11.049 11.36zM44.75 49.904c-13.579 7.81-22.925.349-23.347.014-2.286 11.164-4.028 23.068-4.422 34.442-.096 2.724-.123 5.393-.096 7.992v.014c.49.405 12.545 10.004 30.858 0v-.014c0-.098.014-.21.014-.307.557-11.947-.912-27.373-3.007-42.141z" transform="translate(-120 -5370) translate(120 5367.367) rotate(69 132.775 194.127)"/>
                    <path fill="#061422" d="M22.174 80.603c-2.05-2.124-3.316-5.033-3.316-8.244 0-6.486 5.188-11.756 11.587-11.756 4.583 0 8.537 2.705 10.413 6.624-1.221-1.263-2.722-2.247-4.399-2.849h-.001l-.028-.01-.008-.003-.019-.007-.017-.006-.009-.003c-1.182-.414-2.453-.64-3.775-.64-6.299 0-11.423 5.107-11.581 11.454-.003.1-.004.201-.004.303V75.685c.002.012.002.022.002.033v.008c.002.042.002.085.003.127.002.014.002.028.002.042v.003l.001.039v.003c.066 1.667.472 3.245 1.15 4.663z" transform="translate(-120 -5370) translate(120 5367.367) rotate(69 132.775 194.127)"/>
                    <path fill="#061422" d="M31.435 96.904c-8.87 0-14.228-4.27-14.551-4.538v-.014l-.004-.527c-.003-.366-.005-.733-.005-1.101 2.364 1.34 6.675 3.182 12.5 3.182 4.571 0 10.078-1.135 16.307-4.538v-.014c0-.098.014-.21.014-.307.509-10.918-.675-24.743-2.482-38.316.507-.254 1.017-.53 1.536-.827 1.792 12.634 3.125 25.749 3.125 36.755 0 1.86-.038 3.659-.118 5.386 0 .097-.014.209-.014.307v.014c-.697.38-1.385.733-2.064 1.059l-.008.004-.06.028-.022.01-.034.017c-1.67.795-3.283 1.426-4.834 1.92-3.406 1.083-6.518 1.5-9.286 1.5z" transform="translate(-120 -5370) translate(120 5367.367) rotate(69 132.775 194.127)"/>
                    <path fill="#0C7489" d="M31.377 81.983c-4.06 0-7.365-3.29-7.365-7.365 0-4.062 3.304-7.352 7.365-7.352 4.062 0 7.352 3.29 7.352 7.352 0 4.075-3.29 7.365-7.352 7.365zm0-18.358c-6.077 0-11.006 4.928-11.006 10.993 0 6.079 4.929 11.007 11.006 11.007 6.08 0 10.994-4.928 10.994-11.007 0-6.065-4.915-10.993-10.994-10.993z" transform="translate(-120 -5370) translate(120 5367.367) rotate(69 132.775 194.127)"/>
                    <path fill="#D5330D" d="M39.517 74.33c0 4.154-3.353 7.507-7.493 7.507-4.139 0-7.507-3.353-7.507-7.507 0-4.14 3.368-7.493 7.507-7.493 4.14 0 7.493 3.354 7.493 7.493z" transform="translate(-120 -5370) translate(120 5367.367) rotate(69 132.775 194.127)"/>
                    <path fill="#A12507" d="M31.591 81.983H31.487l-.04-.001h-.005l-.043-.001h-.011l-.042-.002h-.01l-.035-.001h-.01l-.039-.002h-.015l-.037-.003h-.017l-.025-.002h-.018l-.034-.003-.022-.001-.02-.002-.035-.002h-.013l-.084-.007h-.003c-2.316-.197-4.342-1.41-5.624-3.189 1.244.849 2.748 1.346 4.37 1.346 4.26 0 7.712-3.43 7.712-7.678 0-1.66-.533-3.197-1.437-4.452 1.764 1.203 3.001 3.115 3.29 5.323v.001c.003.029.008.058.01.087l.002.006c.001.017.003.033.006.05l.001.009.001.026c.002.003.002.005.002.008l.004.045.003.017.001.026c.002.009.002.019.003.028.002.007.002.014.002.02l.003.027.001.022c.001.01.001.019.003.028l.001.017.003.036v.015c.002.01.002.021.003.031v.011l.003.04.001.013.002.04v.01l.001.033c.002.004.002.009.002.013V74.016c.002.013.002.026.002.04v.003c.002.014.002.029.002.043v.01l.001.043v.007l.002.04v.104c0 4.247-3.452 7.677-7.714 7.677z" transform="translate(-120 -5370) translate(120 5367.367) rotate(69 132.775 194.127)"/>
                    <path fill="#2BC8D7" d="M32.289 10.94s-7.448 27.489-9 38.91c0 0 1.824 1.612 5.196.914 0 0-3.498-7.289 3.804-39.825zM19.067 96.198s2.584 2.327 4.886 2.056c0 0-1.502 24.326 2.114 36.944 0 0-.669-.009-1.233-.236 0 0-4.541-19.739-5.767-38.764z" transform="translate(-120 -5370) translate(120 5367.367) rotate(69 132.775 194.127)"/>
                </g>
            </g>
        </g>
    </g>
</svg>
