<svg xmlns="http://www.w3.org/2000/svg" xmlns:xlink="http://www.w3.org/1999/xlink" width="526" height="641" viewBox="0 0 526 641">
    <defs>
        <linearGradient id="r2sjs9c35c" x1="105.685%" x2="-8.68%" y1="37.631%" y2="64.192%">
            <stop offset="0%" stop-color="#0C7489"/>
            <stop offset="100%" stop-color="#0C7489"/>
        </linearGradient>
        <linearGradient id="wmb43nz8nd" x1="103.172%" x2="10.181%" y1="78.767%" y2="43.884%">
            <stop offset="0%" stop-color="#0C7489"/>
            <stop offset="100%" stop-color="#A9DCE6"/>
        </linearGradient>
        <linearGradient id="l39u9gm9rg" x1="7.066%" x2="96.861%" y1="47.667%" y2="49.806%">
            <stop offset="0%" stop-color="#D5330D"/>
            <stop offset="100%" stop-color="#D5330D"/>
        </linearGradient>
        <linearGradient id="a9bj1tqvdk" x1="-.178%" x2="99.471%" y1="43.188%" y2="57.728%">
            <stop offset="0%" stop-color="#D5330D"/>
            <stop offset="100%" stop-color="#E74F2B"/>
        </linearGradient>
        <filter id="jv23dmas3a" width="122.4%" height="122.1%" x="-11.2%" y="-9.7%" filterUnits="objectBoundingBox">
            <feOffset dy="2" in="SourceAlpha" result="shadowOffsetOuter1"/>
            <feGaussianBlur in="shadowOffsetOuter1" result="shadowBlurOuter1" stdDeviation="5"/>
            <feColorMatrix in="shadowBlurOuter1" values="0 0 0 0 0 0 0 0 0 0 0 0 0 0 0 0 0 0 0.812254152 0"/>
        </filter>
        <filter id="rmjpc2r54e" width="111.4%" height="130.2%" x="-5.7%" y="-13%" filterUnits="objectBoundingBox">
            <feOffset dy="2" in="SourceAlpha" result="shadowOffsetOuter1"/>
            <feGaussianBlur in="shadowOffsetOuter1" result="shadowBlurOuter1" stdDeviation="4.5"/>
            <feColorMatrix in="shadowBlurOuter1" values="0 0 0 0 0 0 0 0 0 0 0 0 0 0 0 0 0 0 0.324874344 0"/>
        </filter>
        <filter id="x568pz2d4h" width="134%" height="134%" x="-17%" y="-14.4%" filterUnits="objectBoundingBox">
            <feOffset dy="4" in="SourceAlpha" result="shadowOffsetOuter1"/>
            <feGaussianBlur in="shadowOffsetOuter1" result="shadowBlurOuter1" stdDeviation="8"/>
            <feColorMatrix in="shadowBlurOuter1" values="0 0 0 0 0.0160096617 0 0 0 0 0.204024768 0 0 0 0 0.241989357 0 0 0 0.725824956 0"/>
        </filter>
        <path id="t5cfhvic5b" d="M146.627 96.71c20.29 26.881 19.517 64.372-1.865 90.374-3.483 4.075-7.378 7.77-11.621 11.025-25.71 19.855-61.38 19.855-87.089 0-5.04-3.91-9.53-8.498-13.343-13.636-6.324-8.598-10.685-18.507-12.77-29.013-2.867-13.347-1.871-27.247 2.87-40.037 8.398-23.009 27.726-40.168 51.377-45.612 23.65-5.444 48.42 1.565 65.841 18.63 2.405 2.583 4.611 5.347 6.6 8.269z"/>
        <path id="dde75y4j1f" d="M170.509 87.549c-9.047.16-18.077.828-27.048 2 3.4 4.459 6.34 9.246 8.776 14.288 30.357-3.143 47.19 0 50.642 3.287 0 .857-1.726 3.714-8.344 8.572-30.181 18.453-63.317 31.646-97.975 39.007-67.33 16.86-110.779 14.288-116.246 8.43 0-.858 1.727-3.715 8.2-8.573 8.276-5.786 17.21-10.582 26.617-14.288-.64-5.65-.64-11.353 0-17.003-12.87 5.014-25.09 11.537-36.4 19.432-11.365 8.43-16.112 16.717-14.386 24.575 3.021 11.573 18.415 16.86 47.333 16.146 29.653-1.34 59.076-5.842 87.76-13.431 36.76-7.87 71.891-21.933 103.873-41.578 11.365-8.43 15.97-16.717 14.387-24.576-3.31-11.716-18.416-17.002-47.19-16.288z"/>
        <path id="0kd2nsm6vi" d="M587.15 185.809c-21.394 14.295-48.547 16.886-72.262 6.896l-2.131-1.014-2.132-.913c-37.087-18.339-52.868-62.815-35.624-100.403 1.124-2.516 2.412-4.956 3.857-7.302 3.824-6.501 8.615-12.383 14.209-17.444 17.81-16.199 42.213-23.075 65.868-18.56 6.027 1.133 11.89 3.006 17.457 5.579l5.48 2.84c34.714 19.422 48.744 62.185 32.275 98.374-3.05 6.715-7.086 12.936-11.976 18.458-4.397 5.132-9.447 9.666-15.02 13.489z"/>
        <radialGradient id="aiz0vukihj" cx="92.598%" cy="60.973%" r="74.072%" fx="92.598%" fy="60.973%">
            <stop offset="0%" stop-color="#048794"/>
            <stop offset="100%" stop-color="#0FB8C8"/>
        </radialGradient>
    </defs>
    <g fill="none">
        <g>
            <g transform="rotate(90 275.5 275.5) translate(126.5 177.5) rotate(-106 89.837 140.5)">
                <use fill="#000" filter="url(#jv23dmas3a)" xlink:href="#t5cfhvic5b"/>
                <use fill="#0FA3B1" xlink:href="#t5cfhvic5b"/>
            </g>
            <path fill="#0C7489" d="M31.26 97.904C42.783 82.632 59.89 72.588 78.819 69.98c18.928-2.607 38.128 2.437 53.376 14.022 26.096 19.47 36.005 54.026 24.191 84.367-2.335 5.952-5.468 11.557-9.312 16.659-6.453 8.48-14.701 15.417-24.152 20.312l-.28-.972c-.076-1.865.448-3.703 1.495-5.242 3.196-4.258 6.066-8.751 8.586-13.443 2.617-4.946.855-11.09-3.985-13.899-1.209-.556-2.753-.714-3.764-1.628-1.012-.913-.724-5.659.756-8.34 3.037-5.478 3.922-11.9 2.48-18.008-1.743-6.047-6.904-10.48-13.126-11.278-7.009-.397-13.85 3.971-20.367 1.628-4.324-3.033-6.392-8.385-5.232-13.541 1.396-5.148 3.098-10.208 5.098-15.15 1.718-4.86.954-10.259-2.046-14.455-4.63-3.786-11.1-4.322-16.275-1.35-4.884 3.15-9.285 6.996-13.063 11.417-5.2 4.749-11.48 8.15-18.293 9.908-6.744 2.164-14.127.776-19.644-3.692 1.786-3.264 3.79-6.401 6-9.392z" transform="rotate(90 275.5 275.5) translate(126.5 177.5)"/>
            <path fill="#0FA3B1" d="M156.932 168.443c-2.685-1.641-4.964-3.882-6.66-6.549-6.495-12.156-7.996-26.379-4.178-39.585.678-3.366.858-7.95-2.561-8.932-3.42-.983-6.068 3.854-9.145 4.585-2.037.567-4.215-.214-5.45-1.956-1.234-1.74-1.262-4.07-.07-5.826 1.392-2.967 3.73-5.752 3.995-9 .462-8.289-9.575-9.942-15.368-11.906-5.793-1.964-7.214-1.708-10.754-3.11-3.54-1.401-7.466-5.713-11.642-8.292-6.077-3.046-13.103-3.484-19.475-1.213-6.316 2.265-12.773 4.116-19.33 5.543-2.556.296-5.142.224-7.682-.214 25.99-18.212 60.834-17.006 85.742 2.968s33.987 53.991 22.342 83.706l.236-.219z" transform="rotate(90 275.5 275.5) translate(126.5 177.5)"/>
            <path fill="url(#r2sjs9c35c)" d="M100.496 147.47c-1.67 1.402-3.173 2.989-4.482 4.728-5.349 8.026 0 19.204-3.614 28.662-2.348 5.319-7.346 9.02-13.157 9.745-5.754.673-11.538-.98-16.048-4.585-2.965-2.729-6.104-5.266-9.397-7.596-4.105-2.033-8.871-2.31-13.188-.766-4.316 1.543-7.806 4.772-9.656 8.935-1.301 3.153-1.012 9.745-4.048 12.181-6.361 5.016-6.361-7.595-10.554-10.605-2.81-1.643-6.299-1.643-9.109 0-.963.44-1.882.968-2.747 1.577 6.852-18.368 20.988-33.156 39.122-40.925 18.135-7.77 38.687-7.844 56.878-.205v-1.147z" transform="rotate(90 275.5 275.5) translate(126.5 177.5) rotate(-106 52.496 171.44)"/>
            <path fill="url(#wmb43nz8nd)" d="M173.845 171.897c-3.554 4.062-7.528 7.745-11.858 10.99-26.233 19.79-62.63 19.79-88.863 0-5.142-3.899-9.723-8.472-13.614-13.592-6.453-8.571-10.903-18.447-13.03-28.92-2.926-13.303-1.91-27.158 2.928-39.907 1.496-4.06 3.358-7.98 5.563-11.712 5.417-1.157-8.637 34.413 5.417 60.585 40.99 76.779 112.579 21.978 113.457 22.556z" transform="rotate(90 275.5 275.5) translate(126.5 177.5) rotate(-106 109.345 143.229)"/>
            <g transform="rotate(90 275.5 275.5) translate(126.5 177.5) rotate(-106 91 135.485)">
                <use fill="#000" filter="url(#rmjpc2r54e)" xlink:href="#dde75y4j1f"/>
                <use fill="url(#l39u9gm9rg)" xlink:href="#dde75y4j1f"/>
            </g>
        </g>
        <path fill="#FFF" d="M237.46 142.5c0 1.237-.878 2.24-1.96 2.24-1.082 0-1.96-1.003-1.96-2.24 0-1.237.878-2.24 1.96-2.24 1.082 0 1.96 1.003 1.96 2.24zM248.32 84c0 1.082-.815 1.96-1.82 1.96-1.005 0-1.82-.878-1.82-1.96 0-1.082.815-1.96 1.82-1.96 1.005 0 1.82.878 1.82 1.96zM217.24 93.5c0 1.005-1.003 1.82-2.24 1.82-1.237 0-2.24-.815-2.24-1.82 0-1.005 1.003-1.82 2.24-1.82 1.237 0 2.24.815 2.24 1.82zM179.82 66c0 1.005-.815 1.82-1.82 1.82-1.005 0-1.82-.815-1.82-1.82 0-1.005.815-1.82 1.82-1.82 1.005 0 1.82.815 1.82 1.82zM56.74 428.5c0 1.082-1.003 1.96-2.24 1.96-1.237 0-2.24-.878-2.24-1.96.078-1.053 1.037-1.892 2.24-1.96 1.237 0 2.24.878 2.24 1.96zM13.24 514.5c0 1.005-1.003 1.82-2.24 1.82-1.237 0-2.24-.815-2.24-1.82 0-1.005 1.003-1.82 2.24-1.82 1.237 0 2.24.815 2.24 1.82zM152.74 109.5c0 1.082-1.003 1.96-2.24 1.96-1.237 0-2.24-.878-2.24-1.96 0-1.082 1.003-1.96 2.24-1.96 1.237 0 2.24.878 2.24 1.96z" transform="rotate(90 275.5 275.5)"/>
        <path fill="#FFE6F7" d="M233.5 29.5c.243 3.074 1.3 6.026 3.063 8.548 2.387 1.493 5.128 2.315 7.937 2.382-2.805.204-5.524 1.068-7.937 2.522-2.645 2.102-3.063 8.548-3.063 8.548-.095-3.059-1.062-6.026-2.785-8.548-1.81-1.962-8.215-2.522-8.215-2.522s6.405 0 8.215-2.382c1.709-2.53 2.674-5.492 2.785-8.548zM178.5 156.5c.293 3.043 1.347 5.964 3.063 8.494 2.36 1.558 5.11 2.426 7.937 2.506-2.797.144-5.518.956-7.937 2.367-2.645 2.089-3.063 8.633-3.063 8.633-.1-3.061-1.014-6.04-2.646-8.633-2.551-1.455-5.418-2.267-8.354-2.367 2.943-.169 5.805-1.027 8.354-2.506 1.627-2.543 2.541-5.477 2.646-8.494zM409.346 484.5c.246 3.059 1.417 5.997 3.385 8.494 2.6 1.572 5.642 2.441 8.769 2.506-3.093.128-6.104.94-8.77 2.367-3.076 2.228-3.384 8.633-3.384 8.633-.129-2.865-1.083-5.649-2.77-8.076-2.765-1.449-5.882-2.262-9.076-2.367 3.202-.175 6.312-1.034 9.077-2.506 1.893-2.702 2.857-5.852 2.77-9.051zM11.5 394.5c.305 3.084 1.356 6.047 3.063 8.633 2.392 1.471 5.13 2.288 7.937 2.367-2.816.147-5.547 1.01-7.937 2.506-2.645 2.089-3.063 8.494-3.063 8.494-.095-3.04-1.062-5.988-2.785-8.494C6.905 405.918.5 405.5.5 405.5s6.405 0 8.215-2.506c1.723-2.506 2.69-5.454 2.785-8.494zM129.07 46.5c.197 2.397 1.006 4.7 2.349 6.689 1.847 1.1 3.937 1.723 6.081 1.811-2.15.163-4.233.831-6.081 1.95-2.073 1.673-2.35 6.55-2.35 6.55-.106-2.35-.873-4.622-2.211-6.55C125.476 55.419 120.5 55 120.5 55s4.976 0 6.358-1.95c1.338-1.928 2.105-4.2 2.211-6.55zM131 469.5c.2 2.397 1.015 4.7 2.369 6.689 1.863 1.1 3.969 1.723 6.131 1.811-2.168.163-4.268.831-6.131 1.95-2.09 1.673-2.369 6.55-2.369 6.55-.139-2.323-.857-4.575-2.09-6.55-1.946-1.161-4.147-1.83-6.41-1.95 2.263-.12 4.464-.789 6.41-1.95 1.329-1.93 2.056-4.208 2.09-6.55zM366.07 533.5c.16 2.361.975 4.63 2.349 6.55 1.816 1.19 3.917 1.864 6.081 1.95-2.139.12-4.22.74-6.081 1.811-2.073 1.673-2.35 6.689-2.35 6.689-.117-2.391-.882-4.705-2.211-6.689C362.476 542.28 357.5 542 357.5 542s4.976 0 6.358-1.95c1.318-1.938 2.083-4.204 2.211-6.55zM532.5 255c.264 3.1 1.466 6.08 3.481 8.633 2.712 1.484 5.826 2.3 9.019 2.367-3.188.203-6.277 1.061-9.019 2.506-3.006 2.089-3.481 8.494-3.481 8.494-.109-3.04-1.207-5.988-3.165-8.494C527.278 266.557 520 266 520 266s7.278 0 9.335-2.367c1.955-2.56 3.052-5.551 3.165-8.633z" transform="rotate(90 275.5 275.5)"/>
        <g transform="rotate(90 275.5 275.5) rotate(-73 544.524 122.21)">
            <use fill="#000" filter="url(#x568pz2d4h)" xlink:href="#0kd2nsm6vi"/>
            <use fill="url(#aiz0vukihj)" xlink:href="#0kd2nsm6vi"/>
        </g>
        <path fill="url(#a9bj1tqvdk)" d="M664.15 168.125c1.517-4.749-1.215-10.324-8.298-17.447-9.204-8.189-19.407-15.129-30.355-20.648-.08 1.341-.08 2.686 0 4.027 10.094 5.302 19.508 11.855 28.028 19.511 5.869 5.575 8.398 10.324 7.285 13.628-2.024 5.988-16.29 8.156-38.247 5.781-28.655-3.884-56.835-10.803-84.084-20.647-43.914-15.073-82.667-34.895-98.756-50.38-5.868-5.678-8.398-10.324-7.285-13.627 2.429-7.434 20.237-9.395 51.806-3.923.91-1.652 1.214-1.962 2.024-3.407-31.367-5.678-53.627-4.852-57.27 6.194-1.619 4.749 1.214 10.324 8.297 17.447 16.695 16.105 55.044 35.72 99.97 51.619 27.524 9.848 55.973 16.768 84.893 20.647 17.201 1.342 38.55 1.445 41.991-8.775z" transform="rotate(90 275.5 275.5) rotate(-73 546.555 127.537)"/>
    </g>
</svg>
