<svg width="77" height="66" viewBox="0 0 77 66" fill="none" xmlns="http://www.w3.org/2000/svg">
<path d="M73.7215 61.9595C73.332 63.0601 72.6264 63.9137 71.4589 63.9137C47.5 63.9137 25.5 63.9137 5.54102 63.9137C4.37362 63.9137 3.6683 63.06 3.27892 61.9595C3.01672 61.2184 3.27892 59.9466 3.27892 59.9466H73.7215C73.7215 59.9466 73.9837 61.2184 73.7215 61.9595ZM8.56303 50.6901H68.4373L72.8955 57.919H4.10484L8.56303 50.6901ZM9.05838 20.5699C9.05838 19.2407 10.0002 18.3072 11.2899 18.3072C11.9347 18.3072 13.2525 18.3072 13.2525 18.3072V43.7845L14.3425 44.7542H62.6579L63.7479 43.7845V18.3072C63.7479 18.3072 65.3728 18.1588 66.0002 18.3072C67.2939 18.6133 67.9342 19.2406 67.942 20.5699C68.0002 30.5 67.942 48.6185 67.942 48.6185H9.05838C9.05838 48.6185 9.05838 31 9.05838 20.5699ZM15.5146 2.08641H61.4853V8.44836H15.5146V2.08641ZM15.5146 10.476H61.4853V42.7413H15.5146V10.476ZM76.0002 58.9034L75.9337 58.5948L75.8677 58.4626V58.4039L70.2207 49.4118C70.2207 49.4118 70.0002 31 70.0002 20.5699C70.0002 18.0532 67.942 16.2943 65.3987 16.2943C64.754 16.2943 63.7479 16.2943 63.7479 16.2943V1.04318L62.6579 0H14.3425L13.2525 1.04318V16.2943C13.2525 16.2943 12.2461 16.2943 11.6012 16.2943C8.56303 16.2943 7.00019 18.0533 7.00019 20.5699C7.00019 31 6.77965 49.4118 6.77965 49.4118L1.13222 58.4039V58.4626L1.0662 58.5948L1.00019 58.9034C1.00019 58.9034 0.676767 60.8106 1.00019 61.9595C1.64344 64.2443 3.16731 66 5.54102 66C27.5 66 48 66 71.4589 66C73.8327 66 75.3569 64.2445 76.0002 61.9595C76.3236 60.8106 76.0002 58.9034 76.0002 58.9034Z" fill="#0FA3B1"/>
<path d="M19 5C19 5.553 18.553 6 18 6C17.447 6 17 5.553 17 5C17 4.447 17.447 4 18 4C18.553 4 19 4.447 19 5Z" fill="#0C7489"/>
<path d="M22 5C22 5.553 21.553 6 21 6C20.447 6 20 5.553 20 5C20 4.447 20.447 4 21 4C21.553 4 22 4.447 22 5Z" fill="#0C7489"/>
<path d="M25 5C25 5.553 24.553 6 24 6C23.447 6 23 5.553 23 5C23 4.447 23.447 4 24 4C24.553 4 25 4.447 25 5Z" fill="#0C7489"/>
<path d="M46 19L53 26L46 33" stroke="#D5330D" stroke-width="2" stroke-linecap="round" stroke-linejoin="round"/>
<path d="M30 19L23 26L30 33" stroke="#D5330D" stroke-width="2" stroke-linecap="round" stroke-linejoin="round"/>
<path d="M40 19L36 33" stroke="#D5330D" stroke-width="2" stroke-linecap="round" stroke-linejoin="round"/>
</svg>
