<svg xmlns="http://www.w3.org/2000/svg" width="90" height="90" viewBox="0 0 90 90">
    <g fill="none" fill-rule="evenodd" stroke-linejoin="round" stroke-width="2">
        <path stroke="#0C7489" d="M14 58v4.227c0 .778.63 1.41 1.41 1.41h2a1.41 1.41 0 0 1 1.31.873l3.1 7.468a1.41 1.41 0 0 1-.31 1.536l-1.409 1.41a1.41 1.41 0 0 0 0 2L26.09 82.9a1.41 1.41 0 0 0 1.987 0l1.409-1.41a1.41 1.41 0 0 1 1.536-.31l7.468 3.1c.53.219.877.737.874 1.311v2c0 .78.63 1.41 1.409 1.41h8.454c.778 0 1.41-.63 1.41-1.41v-2a1.41 1.41 0 0 1 .873-1.31l7.468-3.1a1.41 1.41 0 0 1 1.536.31l1.41 1.409a1.41 1.41 0 0 0 1.986 0l5.989-5.975a1.41 1.41 0 0 0 0-2l-1.41-1.41a1.41 1.41 0 0 1-.31-1.536l3.1-7.468a1.41 1.41 0 0 1 1.311-.874h2c.78 0 1.41-.63 1.41-1.409V58"/>
        <path stroke="#0C7489" d="M59 58c0 7.732-6.268 14-14 14s-14-6.268-14-14"/>
        <path stroke="#0FA3B1" stroke-linecap="square" d="M81.903 75h4.258A2.842 2.842 0 0 0 89 72.154V3.846A2.842 2.842 0 0 0 86.161 1H3.84A2.842 2.842 0 0 0 1 3.846v68.308A2.842 2.842 0 0 0 3.839 75h4.258"/>
        <path stroke="#0FA3B1" stroke-linecap="round" d="M1 15h88"/>
        <path stroke="#0FA3B1" d="M8 8h3M15 8h3M22 8h3"/>
        <path stroke="#D5330D" stroke-linecap="round" d="M34 28l7 7-7 7M18 28l-7 7 7 7M28 28l-4 14"/>
    </g>
</svg>
