<svg xmlns="http://www.w3.org/2000/svg" width="255" height="275" viewBox="0 0 255 275">
    <defs>
        <linearGradient id="a" x1="-3.317%" x2="98.513%" y1="20.302%" y2="81.432%">
            <stop offset="0%" stop-color="#0C7489"/>
            <stop offset="100%" stop-color="#0A2239"/>
        </linearGradient>
        <linearGradient id="b" x1="-3.317%" x2="98.513%" y1="24.393%" y2="77.102%">
            <stop offset="0%" stop-color="#0C7489"/>
            <stop offset="100%" stop-color="#0A2239"/>
        </linearGradient>
        <linearGradient id="c" x1="94.881%" x2="3.498%" y1="8.616%" y2="113.083%">
            <stop offset="0%" stop-color="#FFF"/>
            <stop offset="100%" stop-color="#9AC5C9"/>
        </linearGradient>
        <linearGradient id="d" x1="81.571%" x2="17.289%" y1="-7.801%" y2="138.107%">
            <stop offset="0%" stop-color="#FFF"/>
            <stop offset="100%" stop-color="#9AC5C9"/>
        </linearGradient>
        <linearGradient id="e" x1="61.044%" x2="38.557%" y1="-7.801%" y2="138.107%">
            <stop offset="0%" stop-color="#0C7489"/>
            <stop offset="100%" stop-color="#9AC5C9"/>
        </linearGradient>
        <linearGradient id="f" x1="84.362%" x2="14.397%" y1="-7.801%" y2="138.107%">
            <stop offset="0%" stop-color="#FFF"/>
            <stop offset="100%" stop-color="#9AC5C9"/>
        </linearGradient>
        <linearGradient id="g" x1="84.79%" x2="13.953%" y1="-7.801%" y2="138.107%">
            <stop offset="0%" stop-color="#FFF"/>
            <stop offset="100%" stop-color="#9AC5C9"/>
        </linearGradient>
        <linearGradient id="h" x1="-3.317%" x2="98.513%" y1="24.806%" y2="76.665%">
            <stop offset="0%" stop-color="#0C7489"/>
            <stop offset="100%" stop-color="#0A2239"/>
        </linearGradient>
        <linearGradient id="i" x1="82.134%" x2="16.706%" y1="-7.801%" y2="138.107%">
            <stop offset="0%" stop-color="#FFF"/>
            <stop offset="100%" stop-color="#9AC5C9"/>
        </linearGradient>
        <linearGradient id="j" x1="94.881%" x2="3.498%" y1="2.231%" y2="122.816%">
            <stop offset="0%" stop-color="#FFF"/>
            <stop offset="100%" stop-color="#9AC5C9"/>
        </linearGradient>
        <linearGradient id="k" x1="94.881%" x2="3.498%" y1="15.798%" y2="102.134%">
            <stop offset="0%" stop-color="#FFF"/>
            <stop offset="100%" stop-color="#9AC5C9"/>
        </linearGradient>
        <linearGradient id="l" x1="94.881%" x2="3.498%" y1="1.431%" y2="124.034%">
            <stop offset="0%" stop-color="#FFF"/>
            <stop offset="100%" stop-color="#9AC5C9"/>
        </linearGradient>
        <linearGradient id="m" x1="94.881%" x2="3.498%" y1="20.937%" y2="94.301%">
            <stop offset="0%" stop-color="#FFF"/>
            <stop offset="100%" stop-color="#9AC5C9"/>
        </linearGradient>
        <linearGradient id="n" x1="86.614%" x2="12.063%" y1="-7.801%" y2="138.107%">
            <stop offset="0%" stop-color="#FFF"/>
            <stop offset="100%" stop-color="#9AC5C9"/>
        </linearGradient>
        <linearGradient id="o" x1="82.134%" x2="16.706%" y1="-7.801%" y2="138.107%">
            <stop offset="0%" stop-color="#FFF"/>
            <stop offset="100%" stop-color="#9AC5C9"/>
        </linearGradient>
        <linearGradient id="p" x1="82.568%" x2="16.256%" y1="-7.801%" y2="138.107%">
            <stop offset="0%" stop-color="#FFF"/>
            <stop offset="100%" stop-color="#9AC5C9"/>
        </linearGradient>
        <linearGradient id="q" x1="94.881%" x2="3.498%" y1="-7.801%" y2="138.107%">
            <stop offset="0%" stop-color="#FFF"/>
            <stop offset="100%" stop-color="#9AC5C9"/>
        </linearGradient>
        <linearGradient id="r" x1="69.947%" x2="29.332%" y1="-7.801%" y2="138.107%">
            <stop offset="0%" stop-color="#FFF"/>
            <stop offset="100%" stop-color="#9AC5C9"/>
        </linearGradient>
        <linearGradient id="s" x1="-3.317%" x2="98.513%" y1="22.543%" y2="79.061%">
            <stop offset="0%" stop-color="#0C7489"/>
            <stop offset="100%" stop-color="#0A2239"/>
        </linearGradient>
    </defs>
    <g fill="none" fill-rule="nonzero">
        <path fill="url(#a)" d="M81.2 137.984a15.499 15.499 0 0 1-10.61-27.402 15.498 15.498 0 0 1 24.912 15.81A15.5 15.5 0 0 1 81.2 137.985z" transform="matrix(-1 0 0 1 255 0)"/>
        <path fill="url(#b)" d="M62.08 184.332c-5.158 6.165-14.362 7.489-21.163 3.043-6.36-4.91-7.796-13.677-3.316-20.237 5.556-4.102 13.252-4.19 18.909-.217 5.656 3.973 7.923 11.06 5.57 17.41z" transform="matrix(-1 0 0 1 255 0)"/>
        <path fill="url(#c)" d="M79 108.693s37.863-29.5 49.924-12.317S96.557 135 96.557 135a38.083 38.083 0 0 0-6.26-15.206A46.629 46.629 0 0 0 79 108.694z" transform="matrix(-1 0 0 1 255 0)"/>
        <path fill="url(#d)" d="M77.305 107a43.467 43.467 0 0 0-1.078 15.9A32.512 32.512 0 0 0 81 137.844s-23.71 2.226-25.865-10.176C52.98 115.268 77.305 107 77.305 107z" transform="matrix(-1 0 0 1 255 0)"/>
        <path fill="url(#e)" d="M231.32 58.315a44.562 44.562 0 0 0-34.872 5.78 159.168 159.168 0 0 1-2.906 85.787A91.094 91.094 0 0 1 181 173.458a65.887 65.887 0 0 0 38.237 10.495c8.106-2.737 21.871-34.223 24.013-64.036 2.141-29.812.153-54.149-11.93-61.602z" transform="matrix(-1 0 0 1 255 0)"/>
        <path fill="url(#f)" d="M197.52 65.081c-1.393-5.184-2.322-8.081-2.322-8.081l-76.479 29.427c3.715 15.75.632 32.313-8.514 45.742-12.54 18.144-29.105 15.247-32.821 23.023-10.992 22.26 46.444 47.266 67.963 45.742 15.268-3.997 28.366-13.672 36.537-26.988a91.024 91.024 0 0 0 12.694-23.633 158.07 158.07 0 0 0 2.942-85.232z" transform="matrix(-1 0 0 1 255 0)"/>
        <path fill="url(#g)" d="M193.037 34.514l-.915-2.868v-1.359l-1.22-3.17-1.676-3.473-1.981-3.17a43.261 43.261 0 0 0-5.335-6.492l-2.438-2.415-2.591-2.265a15.23 15.23 0 0 0-3.049-2.264l-3.048-1.812-3.048-1.51h-.915a34.821 34.821 0 0 0-7.01-2.415l-4.116-.906h-2.896a47.236 47.236 0 0 0-12.193 0A48.474 48.474 0 0 0 115 13.53s1.067 68.692 1.372 68.842l1.676 1.51 1.677 1.359 1.829 1.208 1.981 1.056a7.18 7.18 0 0 0 1.83 1.057l1.676.906 2.286 1.057h2.134a20.103 20.103 0 0 0 4.267 1.359h1.982c.76.07 1.526.07 2.286 0 1.316.156 2.647.156 3.963 0 1.673.15 3.356.15 5.03 0H156c26.132-4.385 43.734-28.915 39.323-54.802l-2.286-2.567z" transform="matrix(-1 0 0 1 255 0)"/>
        <path fill="url(#h)" d="M173.913 54.67c-.518 8.516-4.09 16.574-10.081 22.74a71.121 71.121 0 0 1-32.57 5.34c-5.164.333-10.344.333-15.509 0h-.93a14.464 14.464 0 0 0-1.551-1.526 47.115 47.115 0 0 1-8.84-12.971 31.447 31.447 0 0 1-1.861-4.578l-.931-3.205v-.916a30.127 30.127 0 0 1-.93-3.51c-2.712-15.464 2.445-31.255 13.803-42.272 8.29-1.03 16.68-1.03 24.97 0a72.185 72.185 0 0 1 31.018 9.31 12.355 12.355 0 0 1 3.257 2.746 49.137 49.137 0 0 1 .155 28.843z" transform="matrix(-1 0 0 1 255 0)"/>
        <path fill="#FFF" d="M136.482 34.343c2.475 7.553 7.89 12.69 11.756 11.48 3.868-1.208 4.95-8.458 2.32-16.162-2.629-7.704-7.734-12.69-11.756-11.48-4.021 1.208-4.95 8.76-2.32 16.162zM125.306 20c1.2 1.95 3.3 2.7 4.5 1.95 1.2-.75 1.05-3 0-4.95-1.05-1.95-3.3-2.7-4.5-1.95-1.2.75-1.35 3 0 4.95zM134.823 54.967c0 4.05.75 7.35 2.7 7.65 1.95.3 4.05-2.7 4.5-6.75.45-4.05 0-7.35-2.55-7.5-2.55-.15-4.05 2.7-4.65 6.6z" opacity=".67"/>
        <path fill="url(#a)" d="M221.669 124.218a15.497 15.497 0 0 1-20.358 20.493 15.498 15.498 0 0 1 1.138-28.862c7.608-2.622 15.957 1.014 19.22 8.369z" transform="matrix(-1 0 0 1 255 0)"/>
        <path fill="url(#i)" d="M193.874 135s-29.86-37.812-12.392-49.906C198.95 73 220 117.242 220 117.242a36.247 36.247 0 0 0-14.93 6.43A47.166 47.166 0 0 0 193.875 135z" transform="matrix(-1 0 0 1 255 0)"/>
        <path fill="url(#j)" d="M200 143.321a44.942 44.942 0 0 0 14.22-7.911 31.051 31.051 0 0 0 9.533-12.41s15.627 18.925 6.251 27.457C220.628 158.988 200 143.32 200 143.32z" transform="matrix(-1 0 0 1 255 0)"/>
        <path fill="url(#k)" d="M234.95 147.773a8.934 8.934 0 0 0 6.544 1.782c3.57 0 6.991-4.753 9.073-3.268 2.083 1.486 5.653 6.832 4.016 9.505a10.865 10.865 0 0 1-9.37 4.307s4.462 1.04 4.164 4.01c-.297 2.97-7.288 2.525-13.089-1.93a22.738 22.738 0 0 1-7.288-7.575l5.95-6.831z" transform="matrix(-1 0 0 1 255 0)"/>
        <path fill="url(#a)" d="M229.415 156.782a2.4 2.4 0 0 1-3.3 0 2.4 2.4 0 0 1 0-3.45l5.4-7.05a2.25 2.25 0 0 1 3.3 0 2.1 2.1 0 0 1 0 3.3l-5.4 7.2z" transform="matrix(-1 0 0 1 255 0)"/>
        <path fill="url(#l)" d="M53.13 124.156a8.92 8.92 0 0 1-7.012-1.55c-3.116-2.17-4.051-7.904-6.7-7.594-2.65.31-8.57 3.565-8.415 6.664a11.009 11.009 0 0 0 6.389 8.679s-4.675-1.24-5.766 1.705c-1.09 2.944 5.298 5.889 12.934 4.65A23.934 23.934 0 0 0 55 133.454l-1.87-9.3z" transform="matrix(-1 0 0 1 255 0)"/>
        <path fill="url(#a)" d="M51.776 134.22a2.4 2.4 0 0 0 2.7 2.1 2.55 2.55 0 0 0 2.1-2.7l-1.35-9a2.7 2.7 0 0 0-2.85-1.95 2.55 2.55 0 0 0-1.95 2.7l1.35 8.85z" transform="matrix(-1 0 0 1 255 0)"/>
        <path fill="url(#m)" d="M104.646 157.197c-5.549-15.328-53.69 2.606-53.69 2.606a24.246 24.246 0 0 0 1.05 16.401c1.49 5.46 4.641 10.291 8.999 13.796 0 0 48.59-17.781 43.641-32.803z" transform="matrix(-1 0 0 1 255 0)"/>
        <path fill="url(#n)" d="M20.355 183.251C16.899 169.091 39.832 163 39.832 163a30.882 30.882 0 0 0 0 16.292c.988 5.525 3.865 10.566 8.168 14.313 0 0-24.347 3.502-27.645-10.354z" transform="matrix(-1 0 0 1 255 0)"/>
        <path fill="url(#o)" d="M19.385 179.335h-2.77a23.042 23.042 0 0 0-8.153-8.344A29.09 29.09 0 0 0 0 168l5.385 21.41c.9 3.265 4.164 5.214 7.384 4.408l6.616-1.731L22 190.04l-2.615-10.705z" transform="matrix(-1 0 0 1 255 0)"/>
        <path fill="url(#a)" d="M22.3 191.625a2.25 2.25 0 0 1-2.7-1.65l-2.55-9.75a2.4 2.4 0 0 1 1.65-2.85 2.25 2.25 0 0 1 2.7 1.65l2.55 9.75a2.4 2.4 0 0 1-1.65 2.85zM127.125 238.94a15.498 15.498 0 1 0-17.05-24.915 15.497 15.497 0 0 0-2.48 17.321c3.554 7.215 12.036 10.513 19.53 7.595z" transform="matrix(-1 0 0 1 255 0)"/>
        <path fill="url(#p)" d="M151.254 176.174c13.93 9.364-15.478 52.807-15.478 52.807a23.813 23.813 0 0 1-15.477-4.913A26.335 26.335 0 0 1 109 211.941s29.253-44.67 42.254-35.767z" transform="matrix(-1 0 0 1 255 0)"/>
        <path fill="url(#q)" d="M103.013 250.707c11.482 8.461 25.987-9.216 25.987-9.216a31.729 31.729 0 0 1-15.109-6.648A24.325 24.325 0 0 1 103.92 222s-12.691 20.397-.906 28.707z" transform="matrix(-1 0 0 1 255 0)"/>
        <path fill="url(#r)" d="M105.554 251.862l-.765 2.712a23.888 23.888 0 0 1 4.13 11.011c.229 3.16-.03 6.34-.765 9.415l-16.827-13.883c-1.255-.981-2.077-2.45-2.279-4.073a6.253 6.253 0 0 1 1.208-4.544l4.283-5.585L97.293 245l8.26 6.862z" transform="matrix(-1 0 0 1 255 0)"/>
        <path fill="url(#a)" d="M95.848 244.768a2.4 2.4 0 0 0 0 3.15l7.95 6.3a2.4 2.4 0 0 0 3.3 0 2.25 2.25 0 0 0 0-3.15l-7.95-6.3a2.25 2.25 0 0 0-3.15 0h-.15z" transform="matrix(-1 0 0 1 255 0)"/>
        <path fill="url(#s)" d="M124.067 103c-1.844 1.703-1.383 8.359-5.687 19.04-4.304 10.68-9.53 14.085-9.377 15.478a33.537 33.537 0 0 0 12.298 9.443 48.154 48.154 0 0 0 23.825 6.037 39.632 39.632 0 0 0 13.681-19.969 47.838 47.838 0 0 0 0-28.636c-6.758-.39-13.532-.39-20.29 0-9.53-.31-13.066-1.393-14.45-1.393z" transform="matrix(-1 0 0 1 255 0)"/>
        <path fill="url(#a)" d="M223.28 165.478c-.75 2.85-3 4.8-5.1 4.2-2.1-.6-3.15-3.15-2.4-6.15.75-3 3-4.8 5.1-4.2 2.1.6 3 3.15 2.4 6.15z" transform="matrix(-1 0 0 1 255 0)"/>
        <path fill="#FFF" d="M97.881 117.398c0 3 2.85 4.8 4.95 4.35 2.1-.45 3.15-3.3 2.4-6.15-.75-2.85-3-4.8-4.95-4.35a4.8 4.8 0 0 0-2.4 6.15z"/>
        <path fill="#0A2239" d="M102.54 118.828c-28.13 11.69-12.519 56.456-17.31 79.684-4.142 16.097-19.022 27.124-35.703 26.46-30.912-2.923-46.367-46.15-16.383-61.533 2.782-1.539 4.482 3.076 1.7 4.46a25.848 25.848 0 0 0-13.367 18.813 25.766 25.766 0 0 0 7.03 21.953c6.54 7.777 16.646 11.648 26.736 10.24 10.09-1.408 18.738-7.895 22.877-17.162 10.665-20.152-13.6-72.455 22.72-87.53 2.937-1.231 4.483 3.23 1.7 4.46v.155z"/>
    </g>
</svg>
