<svg width="88" height="63" viewBox="0 0 88 63" fill="none" xmlns="http://www.w3.org/2000/svg">
<path d="M85.2488 60.569H53.1251V20.1207H85.2488V60.569ZM50.4514 20.1207V42.5345H2.67373V2.37932H65.971V17.8104H53.1251L50.4514 20.1207ZM50.4514 52.0172H2.67373V44.8966H50.4514V52.0172ZM39.2338 60.569H29.4689L31.4059 54.3793H37.2962L39.2338 60.569ZM85.2488 17.8104H68.6252V2.37932L65.971 0H2.67373L0 2.37932V52.0172L2.67373 54.3793H28.5773L26.6403 60.569H22.3583L21.0019 61.7759L22.3583 63H46.3444L47.6422 61.7759L46.3444 60.569H41.9849L40.0474 54.3793H50.4514V60.569L53.1251 63H85.2488L88 60.569V20.1207L85.2488 17.8104Z" fill="#0FA3B1"/>
<path d="M52.7729 53H85.3269L87 52.0365L85.3269 51H52.7729L51 52.0365L52.7729 53Z" fill="#0FA3B1"/>
<path d="M71 56.5C71 57.3295 70.3295 58 69.5 58C68.6705 58 68 57.3295 68 56.5C68 55.6705 68.6705 55 69.5 55C70.3295 55 71 55.6705 71 56.5Z" fill="#D5330D"/>
<path d="M8 48.5C8 49.3295 7.3295 50 6.5 50C5.6705 50 5 49.3295 5 48.5C5 47.6705 5.6705 47 6.5 47C7.3295 47 8 47.6705 8 48.5Z" fill="#D5330D"/>
<path d="M13 48.5C13 49.3295 12.3295 50 11.5 50C10.6705 50 10 49.3295 10 48.5C10 47.6705 10.6705 47 11.5 47C12.3295 47 13 47.6705 13 48.5Z" fill="#D5330D"/>
<path d="M15.8205 26.3149L16.7237 26.068L36.0662 7.6403L36.0221 6.19066L34.4409 6.21585L15.0983 24.6436L15.0805 26.0291L15.8205 26.3149Z" fill="#0C7489"/>
<path d="M47.2117 5.05298L15.4872 34.036L15.5403 35.7839L16.3536 36.112L17.4452 35.7591L49.1896 6.77729L49.1956 5.03309L47.2117 5.05298Z" fill="#0C7489"/>
</svg>
