<svg width="59" height="58" viewBox="0 0 59 58" fill="none" xmlns="http://www.w3.org/2000/svg">
<path d="M57.2248 46.1318H17.397V1.52431H47.152V9.74211L48.0139 10.5559H57.2248V46.1318ZM51.6545 50.4298H11.7753V5.82231H15.5831V46.9455L16.4965 47.702H51.6545V50.4298ZM56.0026 8.97419H48.9273V2.67042L56.0026 8.97419ZM59 9.69621L58.9485 9.50138V9.40974L58.7299 9.21483L48.6571 0.194823L48.387 0.0458201H48.3355L48.0654 0H16.4965L15.5831 0.756382V4.25209H10.9134L10 5.05438V51.1863L10.9134 52H52.5164L53.3655 51.1863V47.702H58.0866L59 46.9455V9.69621Z" fill="#0FA3B1"/>
<path d="M22.132 11H42.8509L44 9.97103L42.8509 9H22.132L21 9.97103L22.132 11Z" fill="#0FA3B1"/>
<path d="M21 16.029L22.0055 17H52.9792L54 16.029L52.9792 15H22.0055L21 16.029Z" fill="#0FA3B1"/>
<path d="M21 34.029L22.0055 35H52.9792L54 34.029L52.9792 33H22.0055L21 34.029Z" fill="#0FA3B1"/>
<path d="M21 40.029L22.0055 41H52.9792L54 40.029L52.9792 39H22.0055L21 40.029Z" fill="#0FA3B1"/>
<path d="M21 22.029L22.0055 23H52.9792L54 22.029L52.9792 21H22.0055L21 22.029Z" fill="#0FA3B1"/>
<path d="M21 28.029L22.0055 29H52.9792L54 28.029L52.9792 27H22.0055L21 28.029Z" fill="#0FA3B1"/>
<ellipse cx="15.5" cy="43" rx="14.5" ry="13" fill="#0A2239"/>
<path d="M15.5204 56.2493C8.01269 56.2493 1.87001 50.7626 1.87001 43.9815C1.87001 37.2003 8.01269 31.6398 15.5204 31.6398C23.0281 31.6398 29.1162 37.2003 29.1162 43.9815C29.1162 50.7626 23.0281 56.2493 15.5204 56.2493ZM15.5204 30C6.93431 30 0 36.2633 0 43.9815C0 51.675 6.93431 58 15.5204 58C24.0519 58 31 51.675 31 43.9815C31 36.2633 24.0519 30 15.5204 30Z" fill="#2BC8D7"/>
<path d="M12.798 49.4769V38.4615L20.6024 43.9508L12.798 49.4769ZM12.4592 36.0493L11.4823 36L11 36.7631V51.1262L11.4823 51.8892L11.8732 52L12.4592 51.7908L22.6219 44.6154L23 43.9508L22.6219 43.2738L12.4592 36.0493Z" fill="#D5330D"/>
</svg>
