<svg width="83" height="80" viewBox="0 0 83 80" fill="none" xmlns="http://www.w3.org/2000/svg">
<path d="M2.17827 66.0511H73.8217V1.94895H2.17827V66.0511ZM74.9109 68H1.08914C0.486365 68 0 67.5636 0 67.0255V0.974474C0 0.435941 0.486365 0 1.08914 0H74.9109C75.5135 0 76 0.435941 76 0.974474V67.0255C76 67.5636 75.5135 68 74.9109 68Z" fill="#0FA3B1"/>
<path d="M74.9083 13H1.09175C0.48753 13 0 12.5522 0 12C0 11.4475 0.48753 11 1.09175 11H74.9083C75.5125 11 76 11.4475 76 12C76 12.5522 75.5125 13 74.9083 13Z" fill="#0FA3B1"/>
<path d="M7 8C6.73328 8 6.48 7.89326 6.29328 7.70666C6.10656 7.5199 6 7.26657 6 6.9998C6 6.93306 6.00656 6.87321 6.01984 6.80648C6.03328 6.73974 6.05328 6.67973 6.07328 6.61972L6.16672 6.44641L6.29328 6.29294L6.44 6.16635C6.5 6.1329 6.55328 6.09962 6.61328 6.07961C6.67328 6.05305 6.74 6.03304 6.8 6.0196C7.12672 5.95287 7.47328 6.05961 7.70656 6.29294C7.89328 6.47969 8 6.73975 8 6.9998C8 7.25921 7.89328 7.5199 7.70656 7.70666L7.55328 7.8334C7.5 7.86669 7.44 7.9 7.37984 7.92592C7.32 7.94673 7.26 7.96671 7.19328 7.98C7.12672 7.99344 7.06656 8 7 8Z" fill="#D5330D"/>
<path d="M11 8C10.7333 8 10.48 7.89326 10.2933 7.70666C10.1066 7.5199 10 7.26657 10 6.9998C10 6.93306 10.0066 6.87321 10.0198 6.80648C10.0333 6.73974 10.0533 6.67973 10.0733 6.61972L10.1667 6.44641L10.2933 6.29294L10.44 6.16635C10.5 6.1329 10.5533 6.09962 10.6133 6.07961C10.6733 6.05305 10.74 6.03304 10.8 6.0196C11.1267 5.95287 11.4733 6.05961 11.7066 6.29294C11.8933 6.47969 12 6.73975 12 6.9998C12 7.25921 11.8933 7.5199 11.7066 7.70666L11.5533 7.8334C11.5 7.86669 11.44 7.9 11.3798 7.92592C11.32 7.94673 11.26 7.96671 11.1933 7.98C11.1267 7.99344 11.0666 8 11 8Z" fill="#D5330D"/>
<path d="M15 8C14.7333 8 14.48 7.89326 14.2933 7.70666C14.1066 7.5199 14 7.26657 14 6.9998C14 6.93306 14.0066 6.87321 14.0198 6.80648C14.0333 6.73974 14.0533 6.67973 14.0733 6.61972L14.1667 6.44641L14.2933 6.29294L14.44 6.16635C14.5 6.1329 14.5533 6.09962 14.6133 6.07961C14.6733 6.05305 14.74 6.03304 14.8 6.0196C15.1267 5.95287 15.4733 6.05961 15.7066 6.29294C15.8933 6.47969 16 6.73975 16 6.9998C16 7.25921 15.8933 7.5199 15.7066 7.70666L15.5533 7.8334C15.5 7.86669 15.44 7.9 15.3798 7.92592C15.32 7.94673 15.26 7.96671 15.1933 7.98C15.1267 7.99344 15.0666 8 15 8Z" fill="#D5330D"/>
<path d="M19.3471 20C14.838 20 11.1783 23.3646 11.1783 27.5C11.1783 31.6352 14.838 35 19.3471 35H55.6529C60.1549 35 63.8217 31.6352 63.8217 27.5C63.8217 23.3646 60.1549 20 55.6529 20H19.3471ZM55.6529 37H19.3471C13.6399 37 9 32.7379 9 27.5C9 22.2613 13.6399 18 19.3471 18H55.6529C61.353 18 66 22.2613 66 27.5C66 32.7379 61.353 37 55.6529 37Z" fill="#0FA3B1"/>
<path d="M19.0033 22.276C16.2614 22.276 14.026 24.5073 14.026 27.2499C14.026 29.9925 16.2614 32.224 19.0033 32.224C21.7453 32.224 23.974 29.9925 23.974 27.2499C23.974 24.5073 21.7453 22.276 19.0033 22.276ZM19.0033 34.25C15.1404 34.25 12 31.1095 12 27.2499C12 23.3902 15.1404 20.25 19.0033 20.25C22.8595 20.25 26 23.3902 26 27.2499C26 31.1095 22.8595 34.25 19.0033 34.25Z" fill="#0C7489"/>
<path d="M19.3471 42.8947C14.838 42.8947 11.1783 46.0823 11.1783 50C11.1783 53.9183 14.838 57.1053 19.3471 57.1053H55.6529C60.1549 57.1053 63.8217 53.9183 63.8217 50C63.8217 46.0823 60.1549 42.8947 55.6529 42.8947H19.3471ZM55.6529 59H19.3471C13.6399 59 9 54.963 9 50C9 45.0378 13.6399 41 19.3471 41H55.6529C61.353 41 66 45.0378 66 50C66 54.963 61.353 59 55.6529 59Z" fill="#0FA3B1"/>
<path d="M56 45.1117C53.2567 45.1117 51.027 47.327 51.027 50.05C51.027 52.7731 53.2567 54.9885 56 54.9885C58.7433 54.9885 60.973 52.7731 60.973 50.05C60.973 47.327 58.7433 45.1117 56 45.1117ZM56 57.0001C52.1352 57.0001 49 53.882 49 50.05C49 46.2179 52.1352 43.1001 56 43.1001C59.8648 43.1001 63 46.2179 63 50.05C63 53.882 59.8648 57.0001 56 57.0001Z" fill="#0C7489"/>
<path d="M65.2673 70.6371L71.6452 64.321L71.3824 64.5479L71.4724 64.9351L71 63.0128L65.2673 65.5L72.0895 73.9988L67.5239 67.8824L67.1783 67.6861L66.8904 67.8703L63.6442 73.4039L72.0895 59.5416L58.8006 52.096L65.2673 70.6371ZM57.8659 51.3771L63.1173 74.5365L63.4293 74.881L63.8373 74.7381L67.2892 68.8275L71.6851 74.7165L72.1527 74.8833L74.734 73.4414L76.8547 71.3735L76.8233 70.881L72.4275 64.992L79.0758 63.3633L79.3288 63.0128L79.2515 62.7162L79.1093 62.5992L58.3992 50.979L57.985 51.0033L57.8659 51.3771Z" fill="#0A2239"/>
<path d="M77.8736 62.7824L71.6452 64.321L71.3824 64.5479L71.4724 64.9351L76.0379 71.0515L74.2395 72.7789L72.0895 73.9988L67.5239 67.8824L67.1783 67.6861L66.8904 67.8703L63.6442 73.4039L58.8006 52.096L77.8736 62.7824ZM57.8659 51.3771L63.1173 74.5365L63.4293 74.881L63.8373 74.7381L67.2892 68.8275L71.6851 74.7165L72.1527 74.8833L74.734 73.4414L76.8547 71.3735L76.8233 70.881L72.4275 64.992L79.0758 63.3633L79.3288 63.0128L79.2515 62.7162L79.1093 62.5992L58.3992 50.979L57.985 51.0033L57.8659 51.3771Z" fill="#2BC8D7"/>
</svg>
