<svg width="94" height="71" viewBox="0 0 94 71" fill="none" xmlns="http://www.w3.org/2000/svg">
<path d="M90.8688 52.8983C90.3148 54.6908 89.1517 56.0872 87.2755 56.0872C60.4907 56.0872 41.6553 56.0872 21.0865 56.0872C19.2155 56.0872 18.063 55.2877 17.511 53.5C17.1958 52.4792 17.511 50.1627 17.511 50.1627H90.8688C90.8688 50.1627 91.1843 51.8776 90.8688 52.8983ZM60.4907 63.9656H47.8203V58.2287H60.4907V63.9656ZM67.1553 69H41.1553L44.1553 66.1072H64.1553L67.1553 69ZM17.511 5.40858C17.511 3.52125 19.1992 2.15715 21.0865 2.15715C43.1553 2.15717 64.582 2.15711 87.2755 2.15715C89.168 2.15715 90.7735 3.51849 90.8688 5.40858C91.6553 21 90.8688 48.0055 90.8688 48.0055H17.511C17.511 48.0055 17.5108 22.9997 17.511 5.40858ZM87.2755 3.12777e-08C83.6553 0.000353779 41.6553 5.71325e-05 21.0865 3.12777e-08C17.9518 -8.67108e-06 15.1553 2.27386 15.1553 5.40858C15.1554 26.9997 15.1552 37 15.1553 52.8983C15.1553 56.0125 17.9723 58.2287 21.0865 58.2287C28.6553 58.2287 45.4478 58.2287 45.4478 58.2287V63.9656H43.7285L35.6553 71H38.4332H69.9461H72.1553L64.582 63.9656H62.932V58.2287C62.932 58.2287 76.6553 58.2287 87.2755 58.2287C90.3748 58.2287 93.1553 55.9976 93.1553 52.8983C93.1553 37.5 93.1553 5.40858 93.1553 5.40858C93.1553 3 90.8957 -0.000353716 87.2755 3.12777e-08Z" fill="#0FA3B1"/>
<path d="M12.5 48L16.5 45L18 52.5L12 57L12.5 48Z" fill="#0A2239"/>
<path d="M13.5 44L17.5 41L19 48.5L13 53L13.5 44Z" fill="#0A2239"/>
<path d="M72.1448 13.3351L65.2475 9.59589H79.1273L72.1448 13.3351ZM74.2935 14.5L81.1902 10.7142V18.2393L74.2935 14.5ZM72.1448 15.6183L79.1273 19.3575H65.2475L72.1448 15.6183ZM70.0819 14.5L63.0994 18.2393V10.7142L70.0819 14.5ZM84.0477 8.52422L83.79 8.24462L83.7041 8.18641L83.253 8.09318V8.04661L82.716 8H61.5952L61.1441 8.04661L61.0365 8.09318L60.5205 8.24462L60.2412 8.52422L60.1553 8.76884V20.1846L60.2412 20.4758L60.3271 20.5224L60.5205 20.7088L60.6929 20.767L61.0365 20.9068H61.1441L61.5952 21H82.6301L83.253 20.9068L83.7041 20.767L83.79 20.7088L83.9618 20.5224L84.0477 20.4758L84.1553 20.1846V8.76884L84.0477 8.52422Z" fill="#D5330D"/>
<path d="M24.9489 11H53.3625L55.1553 9.4452L53.3625 8H24.9489L23.1553 9.4452L24.9489 11Z" fill="#2BC8D7"/>
<path d="M24.9489 19H53.3625L55.1553 17.4452L53.3625 16H24.9489L23.1553 17.4452L24.9489 19Z" fill="#2BC8D7"/>
<path d="M25.4085 27H82.902L85.1553 25.4565L82.902 24H25.4085L23.1553 25.4565L25.4085 27Z" fill="#2BC8D7"/>
<path d="M42.2406 35H81.0717L85.1553 33.4565L81.0717 32H42.2406L38.1553 33.4565L42.2406 35Z" fill="#2BC8D7"/>
<path d="M42.2406 43H81.0717L85.1553 41.4565L81.0717 40H42.2406L38.1553 41.4565L42.2406 43Z" fill="#2BC8D7"/>
<path d="M4.66645 56.1713C5.66376 51.0087 13.1669 45.0374 17.7186 41.8546C17.7186 41.8546 19.127 42.6607 19.7811 43.4372C20.4352 44.2136 20.9907 45.7383 20.9907 45.7383C17.0815 49.6838 9.89968 56.0364 4.66645 56.1713ZM21.2041 39.5216L21.2074 39.4706L22.9083 40.8025L23.9355 42.6537L23.8814 42.6993L21.9929 44.6887C21.9929 44.6887 21.3472 43.3489 20.7422 42.6274C20.1281 41.895 18.8993 41.0168 18.8993 41.0168L21.2041 39.5216ZM24.6981 34.1629C27.107 32.2967 32.3845 32.8187 32.3845 32.8187L31.2854 37.1737C29.8597 41.0311 27.7951 42.7704 25.1028 42.3221C25.1028 42.3221 24.4964 40.8066 23.8423 40.0156C23.6514 39.7846 23.3214 39.4522 23.3214 39.4522C23.755 38.4832 25.3903 35.8499 29.9744 35.0545L30.4247 34.3251L29.708 33.8179C24.9824 34.6239 23.0047 37.3043 22.3312 38.6203L21.817 38.3534C21.817 38.3534 23.1282 35.3792 24.6981 34.1629ZM32.446 37.6447C34.1162 33.1708 34.6561 31.5002 34.6561 31.5002C34.4255 31.5012 28.1559 30.9998 24.1556 33.0001C20.1554 35.0004 20.5583 38.4117 20.5583 38.4117L20.5041 38.4573C19.4451 39.096 4.02161 48.6611 3.31973 56.702L3.47517 57.175L3.9147 57.4082C11.9581 58.0812 24.0023 44.5051 24.8174 43.5769L24.8716 43.5313C28.1424 44.1442 30.7758 42.1185 32.446 37.6447Z" fill="#0C7489"/>
</svg>
