<svg xmlns="http://www.w3.org/2000/svg" xmlns:xlink="http://www.w3.org/1999/xlink" width="597" height="689" viewBox="0 0 597 689">
    <defs>
        <path id="a" d="M653.5.934v478.88a167.52 167.52 0 0 1-10.834 16.488 47.447 47.447 0 0 1-2.888 4.484 256.219 256.219 0 0 1-24.556 29.794 27.464 27.464 0 0 1-4.045 4.195c-2.889 3.037-5.922 6.074-9.1 8.822l-3.756 3.327c-2.889 2.603-5.922 5.062-8.955 7.52-43.334 34.713-160.625 74.776-201.36 12.44a68.782 68.782 0 0 1-3.466-49.176c2.167-11.426 4.911-22.418 5.922-31.385a39.377 39.377 0 0 0-8.522-34.568 40.835 40.835 0 0 0-43.334-3.76L213.66 493.699a392.917 392.917 0 0 1-122.347 30.517c-31.345 1.013-66.59-8.1-82.623-35.145-17.912-29.795-4.334-70.147 20.367-94.59 24.7-24.443 57.778-37.605 89.412-52.647 19.5-9.401 41.312-25.021 39-46.427a57.846 57.846 0 0 0-26.144-35.146 120.446 120.446 0 0 1-43.334-52.936c-7.223-21.84 0-50.043 21.811-57.853 21.812-7.81 52.146 5.93 70.635-9.835a36.915 36.915 0 0 0 8.955-36.592 118.22 118.22 0 0 0-18.055-35.001 176.555 176.555 0 0 1-30.19-64.651V.5L653.5.934z"/>
        <filter id="b" width="100.9%" height="101%" x="-.5%" y="-.5%" filterUnits="objectBoundingBox">
            <feGaussianBlur in="SourceAlpha" result="shadowBlurInner1" stdDeviation="2.5"/>
            <feOffset dy="1" in="shadowBlurInner1" result="shadowOffsetInner1"/>
            <feComposite in="shadowOffsetInner1" in2="SourceAlpha" k2="-1" k3="1" operator="arithmetic" result="shadowInnerInner1"/>
            <feColorMatrix in="shadowInnerInner1" values="0 0 0 0 0 0 0 0 0 0 0 0 0 0 0 0 0 0 0.989537806 0"/>
        </filter>
        <path id="d" d="M654 244.36v152.706a677.28 677.28 0 0 1-59.556 76.498 143.979 143.979 0 0 1-53.616 40.558c-21.281 9.059-45.879 5.311-63.468-9.67a113.17 113.17 0 0 1-21.447-39.115c-7.008-20.309-20.892-37.556-39.27-48.785a103.116 103.116 0 0 0-61.005-5.63 182.126 182.126 0 0 1-61.874 2.454c-14.491-3.175-35.937-14.433-39.27-31.754-3.333-17.32 10.868-32.62 22.46-41.135 14.491-10.392 32.894-17.032 40.284-32.909 5.669-16.386 2.012-34.545-9.563-47.486-10.289-13.567-24.055-24.248-34.053-38.104a45.899 45.899 0 0 1-7.1-47.631c9.418-16.599 31.299-20.496 50.282-21.65 18.982-1.155 40.428-2.31 53.035-16.599a49.693 49.693 0 0 0 10.723-25.547A129.482 129.482 0 0 0 362.884 28 226.682 226.682 0 0 0 344.19 0h102.883a55.122 55.122 0 0 0 11.158 41.28 248.915 248.915 0 0 1 24.054 54.27 71.048 71.048 0 0 1-3.333 58.6c-10.309 13.986-26.128 22.915-43.471 24.537-19.997 2.742-42.313-1.01-55.934 16.454-12.063 13.492-11.748 33.936.724 47.054 8.985 8.371 22.026 11.546 30.576 20.35 10.236 11.23 11.26 28.035 2.463 40.415-7.39 9.815-21.446 17.897-18.693 29.877a18.902 18.902 0 0 0 6.086 9.238 67.587 67.587 0 0 0 42.458 10.68 151.687 151.687 0 0 1 43.472 6.64c14.45 4.476 26.632 14.287 34.052 27.424 3.768 7.36 5.507 15.443 9.564 22.66 4.058 7.217 11.448 14.434 19.563 12.269 35.646-8.66 87.233-75.632 104.187-177.388z"/>
        <filter id="c" width="114%" height="110.8%" x="-7%" y="-5%" filterUnits="objectBoundingBox">
            <feOffset dy="2" in="SourceAlpha" result="shadowOffsetOuter1"/>
            <feGaussianBlur in="shadowOffsetOuter1" result="shadowBlurOuter1" stdDeviation="9"/>
            <feColorMatrix in="shadowBlurOuter1" values="0 0 0 0 0.00431904151 0 0 0 0 0.0510121628 0 0 0 0 0.0957597373 0 0 0 0.889286495 0"/>
        </filter>
        <linearGradient id="g" x1="5002.682%" x2="4890.069%" y1="-4683.962%" y2="-4643.493%">
            <stop offset="0%" stop-color="#140A42"/>
            <stop offset="100%" stop-color="#00D8E5"/>
        </linearGradient>
        <path id="f" d="M240.5 406.5s-97.18 43.728-101.425 46.79a8.756 8.756 0 0 0-6.54 7.69 8.74 8.74 0 0 0 5.077 8.72 8.808 8.808 0 0 0 9.951-1.835c4.245-2.04 92.937-61.365 92.937-61.365z"/>
        <filter id="e" width="118.5%" height="131.3%" x="-9.3%" y="-12.5%" filterUnits="objectBoundingBox">
            <feOffset dy="2" in="SourceAlpha" result="shadowOffsetOuter1"/>
            <feGaussianBlur in="shadowOffsetOuter1" result="shadowBlurOuter1" stdDeviation="3"/>
            <feColorMatrix in="shadowBlurOuter1" values="0 0 0 0 0.0128022114 0 0 0 0 0.072985541 0 0 0 0 0.130661232 0 0 0 1 0"/>
        </filter>
        <linearGradient id="j" x1="6847.031%" x2="6732.208%" y1="-6076.378%" y2="-6036.726%">
            <stop offset="0%" stop-color="#0FA3B1"/>
            <stop offset="100%" stop-color="#0FA3B1"/>
        </linearGradient>
        <path id="i" d="M106 430s-72.918 32.364-75.689 34.067c-3.126 1.736-4.232 5.599-2.479 8.659a6.388 6.388 0 0 0 3.922 3.045 6.57 6.57 0 0 0 4.974-.632C40.228 473.435 106 430 106 430z"/>
        <filter id="h" width="125.3%" height="143.5%" x="-12.7%" y="-17.4%" filterUnits="objectBoundingBox">
            <feOffset dy="2" in="SourceAlpha" result="shadowOffsetOuter1"/>
            <feGaussianBlur in="shadowOffsetOuter1" result="shadowBlurOuter1" stdDeviation="3"/>
            <feColorMatrix in="shadowBlurOuter1" values="0 0 0 0 0.0128022114 0 0 0 0 0.072985541 0 0 0 0 0.130661232 0 0 0 1 0"/>
        </filter>
        <linearGradient id="m" x1="6744.395%" x2="6630.245%" y1="-6365.319%" y2="-6324.195%">
            <stop offset="0%" stop-color="#140A42"/>
            <stop offset="100%" stop-color="#00D8E5"/>
        </linearGradient>
        <path id="l" d="M514.5 235.5s-72.491 32.851-75.1 34.58a6.484 6.484 0 0 0-3.894 5.656 6.476 6.476 0 0 0 3.388 5.969 6.558 6.558 0 0 0 6.885-.386c3.044-1.73 68.721-45.819 68.721-45.819z"/>
        <filter id="k" width="125.3%" height="142.6%" x="-12.7%" y="-17%" filterUnits="objectBoundingBox">
            <feOffset dy="2" in="SourceAlpha" result="shadowOffsetOuter1"/>
            <feGaussianBlur in="shadowOffsetOuter1" result="shadowBlurOuter1" stdDeviation="3"/>
            <feColorMatrix in="shadowBlurOuter1" values="0 0 0 0 0.0128022114 0 0 0 0 0.072985541 0 0 0 0 0.130661232 0 0 0 1 0"/>
        </filter>
        <linearGradient id="p" x1="88.01%" x2=".097%" y1="12.098%" y2="88.413%">
            <stop offset="0%" stop-color="#0FA3B1"/>
            <stop offset="100%" stop-color="#0C7489"/>
        </linearGradient>
        <path id="o" d="M434.14 488.1a27.807 27.807 0 0 1-12.619 17.21 28.1 28.1 0 0 1-21.166 3.281 26.94 26.94 0 0 1-11.74-6.058c1.344-7.038 3.047-13.81 3.674-19.333a24.129 24.129 0 0 0-5.287-21.292c6.9-7.213 17.189-10.145 26.885-7.662 14.984 3.804 24.044 18.948 20.253 33.854z"/>
        <filter id="n" width="154.2%" height="146.4%" x="-27.1%" y="-19.6%" filterUnits="objectBoundingBox">
            <feOffset dy="2" in="SourceAlpha" result="shadowOffsetOuter1"/>
            <feGaussianBlur in="shadowOffsetOuter1" result="shadowBlurOuter1" stdDeviation="4"/>
            <feColorMatrix in="shadowBlurOuter1" values="0 0 0 0 0 0 0 0 0 0 0 0 0 0 0 0 0 0 0.5 0"/>
        </filter>
        <path id="r" d="M250.05 229.173c20.29 26.881 19.516 64.373-1.866 90.375a76.676 76.676 0 0 1-11.62 11.025 71.113 71.113 0 0 1-87.09 0 70.277 70.277 0 0 1-13.343-13.636 72.927 72.927 0 0 1-12.769-29.013 71.825 71.825 0 0 1 2.87-40.038c8.397-23.008 27.725-40.168 51.376-45.612 23.651-5.444 48.421 1.565 65.842 18.63a69.64 69.64 0 0 1 6.6 8.27z"/>
        <filter id="q" width="122.4%" height="122.1%" x="-11.2%" y="-9.7%" filterUnits="objectBoundingBox">
            <feOffset dy="2" in="SourceAlpha" result="shadowOffsetOuter1"/>
            <feGaussianBlur in="shadowOffsetOuter1" result="shadowBlurOuter1" stdDeviation="5"/>
            <feColorMatrix in="shadowBlurOuter1" values="0 0 0 0 0 0 0 0 0 0 0 0 0 0 0 0 0 0 0.812254152 0"/>
        </filter>
        <linearGradient id="s" x1="105.685%" x2="-8.68%" y1="37.631%" y2="64.192%">
            <stop offset="0%" stop-color="#0C7489"/>
            <stop offset="100%" stop-color="#0C7489"/>
        </linearGradient>
        <linearGradient id="t" x1="103.172%" x2="10.181%" y1="78.767%" y2="43.884%">
            <stop offset="0%" stop-color="#0C7489"/>
            <stop offset="100%" stop-color="#A9DCE6"/>
        </linearGradient>
        <linearGradient id="w" x1="7.066%" x2="96.861%" y1="47.667%" y2="49.806%">
            <stop offset="0%" stop-color="#D5330D"/>
            <stop offset="100%" stop-color="#D5330D"/>
        </linearGradient>
        <path id="v" d="M273.931 220.012c-9.046.16-18.076.828-27.047 2a83.338 83.338 0 0 1 8.776 14.289c30.356-3.144 47.189 0 50.642 3.286 0 .857-1.727 3.715-8.345 8.573a312.138 312.138 0 0 1-97.974 39.006c-67.33 16.86-110.78 14.288-116.246 8.43 0-.857 1.726-3.715 8.2-8.573a128.904 128.904 0 0 1 26.616-14.288 75.493 75.493 0 0 1 0-17.003 173.897 173.897 0 0 0-36.399 19.432c-11.365 8.43-16.113 16.717-14.387 24.576 3.022 11.573 18.416 16.86 47.333 16.145a416.56 416.56 0 0 0 87.76-13.43 330.763 330.763 0 0 0 103.873-41.579c11.366-8.43 15.97-16.717 14.387-24.575-3.309-11.716-18.415-17.003-47.189-16.289z"/>
        <filter id="u" width="111.4%" height="130.2%" x="-5.7%" y="-13%" filterUnits="objectBoundingBox">
            <feOffset dy="2" in="SourceAlpha" result="shadowOffsetOuter1"/>
            <feGaussianBlur in="shadowOffsetOuter1" result="shadowBlurOuter1" stdDeviation="4.5"/>
            <feColorMatrix in="shadowBlurOuter1" values="0 0 0 0 0 0 0 0 0 0 0 0 0 0 0 0 0 0 0.324874344 0"/>
        </filter>
        <path id="y" d="M596.309 492.834l-2.62 4.035c-23.901 33.558-70.053 42.163-104.424 19.47l-2.218-1.513a73.807 73.807 0 0 1-14.413-13.518 76.62 76.62 0 0 1-13.104-74.854 74.368 74.368 0 0 1 10.08-18.36 107.644 107.644 0 0 1 4.132-5.347c25.04-29.28 67.938-35.333 100.09-14.123l2.318 1.614c32.771 23.481 41.606 68.443 20.159 102.596z"/>
        <filter id="x" width="120.9%" height="120.9%" x="-10.5%" y="-9.2%" filterUnits="objectBoundingBox">
            <feOffset dy="2" in="SourceAlpha" result="shadowOffsetOuter1"/>
            <feGaussianBlur in="shadowOffsetOuter1" result="shadowBlurOuter1" stdDeviation="5"/>
            <feColorMatrix in="shadowBlurOuter1" values="0 0 0 0 0.0392156863 0 0 0 0 0.133333333 0 0 0 0 0.223529412 0 0 0 0.721754808 0"/>
        </filter>
        <linearGradient id="z" x1="-2.257%" x2="81.52%" y1="35.149%" y2="72.038%">
            <stop offset="0%" stop-color="#0C7489"/>
            <stop offset="100%" stop-color="#033A45"/>
        </linearGradient>
        <linearGradient id="A" x1="45.585%" x2="50.762%" y1="111.111%" y2="14.154%">
            <stop offset="0%" stop-color="#FFF" stop-opacity="0"/>
            <stop offset="100%" stop-color="#FFFBFF" stop-opacity=".582"/>
        </linearGradient>
        <radialGradient id="D" cx="92.598%" cy="60.973%" r="74.072%" fx="92.598%" fy="60.973%">
            <stop offset="0%" stop-color="#048794"/>
            <stop offset="100%" stop-color="#0FB8C8"/>
        </radialGradient>
        <path id="C" d="M635.442 186.295a76.573 76.573 0 0 1-72.262 6.896l-2.132-1.014-2.13-.913c-37.088-18.339-52.869-62.815-35.625-100.403a62.559 62.559 0 0 1 3.857-7.302 74.35 74.35 0 0 1 14.209-17.444 76.564 76.564 0 0 1 65.868-18.56 74.331 74.331 0 0 1 17.457 5.579l5.48 2.84c34.714 19.422 48.744 62.185 32.275 98.374a74.029 74.029 0 0 1-11.976 18.458 77.52 77.52 0 0 1-15.02 13.489z"/>
        <filter id="B" width="134%" height="134%" x="-17%" y="-14.4%" filterUnits="objectBoundingBox">
            <feOffset dy="4" in="SourceAlpha" result="shadowOffsetOuter1"/>
            <feGaussianBlur in="shadowOffsetOuter1" result="shadowBlurOuter1" stdDeviation="8"/>
            <feColorMatrix in="shadowBlurOuter1" values="0 0 0 0 0.0160096617 0 0 0 0 0.204024768 0 0 0 0 0.241989357 0 0 0 0.725824956 0"/>
        </filter>
        <linearGradient id="E" x1="-.178%" x2="99.471%" y1="43.188%" y2="57.728%">
            <stop offset="0%" stop-color="#D5330D"/>
            <stop offset="100%" stop-color="#E74F2B"/>
        </linearGradient>
    </defs>
    <g fill="none" fill-rule="evenodd">
        <g fill-rule="nonzero">
            <g transform="rotate(90 300 300)">
                <use fill="#0A2239" xlink:href="#a"/>
                <use fill="#000" filter="url(#b)" xlink:href="#a"/>
            </g>
            <g transform="rotate(90 300 300)">
                <use fill="#000" filter="url(#c)" xlink:href="#d"/>
                <use fill="#0B6375" xlink:href="#d"/>
            </g>
            <g transform="rotate(90 300 300)">
                <use fill="#000" filter="url(#e)" xlink:href="#f"/>
                <use fill="url(#g)" xlink:href="#f"/>
            </g>
            <g transform="rotate(90 300 300)">
                <use fill="#000" filter="url(#h)" xlink:href="#i"/>
                <use fill="url(#j)" xlink:href="#i"/>
            </g>
            <g transform="rotate(90 300 300)">
                <use fill="#000" filter="url(#k)" xlink:href="#l"/>
                <use fill="url(#m)" xlink:href="#l"/>
            </g>
            <g transform="rotate(92 298.793 305.016)">
                <use fill="#000" filter="url(#n)" xlink:href="#o"/>
                <use fill="url(#p)" xlink:href="#o"/>
            </g>
            <g transform="rotate(-16 -23.413 -242.824)">
                <use fill="#000" filter="url(#q)" xlink:href="#r"/>
                <use fill="#0FA3B1" xlink:href="#r"/>
            </g>
            <path fill="#0C7489" d="M369.633 134.683a71.847 71.847 0 0 1 27.922 47.557c2.607 18.929-2.437 38.129-14.022 53.376-19.47 26.097-54.026 36.006-84.366 24.192a70.431 70.431 0 0 1-16.66-9.312 71.914 71.914 0 0 1-20.312-24.153l.973-.279a8.68 8.68 0 0 1 5.242 1.495 105.87 105.87 0 0 0 13.442 8.586c4.947 2.617 11.091.855 13.9-3.986.555-1.208.714-2.753 1.627-3.764.914-1.011 5.66-.723 8.34.756a25.2 25.2 0 0 0 18.009 2.48c6.046-1.743 10.48-6.903 11.278-13.126.397-7.008-3.972-13.85-1.629-20.367a13.05 13.05 0 0 1 13.542-5.232 133.471 133.471 0 0 1 15.15 5.099 15.807 15.807 0 0 0 14.454-2.047 14.383 14.383 0 0 0 1.35-16.274 59.84 59.84 0 0 0-11.417-13.064 43.095 43.095 0 0 1-9.908-18.292 21.01 21.01 0 0 1 3.693-19.645 82.36 82.36 0 0 1 9.392 6z"/>
            <path fill="#0FA3B1" d="M299.093 260.354a20.675 20.675 0 0 1 6.55-6.66c12.156-6.494 26.378-7.995 39.584-4.177 3.367.678 7.95.858 8.933-2.562.983-3.42-3.855-6.067-4.586-9.145a5.031 5.031 0 0 1 1.956-5.45 5.117 5.117 0 0 1 5.827-.069c2.966 1.391 5.752 3.73 9 3.994 8.289.463 9.942-9.575 11.906-15.368 1.964-5.793 1.708-7.214 3.11-10.754 1.401-3.54 5.713-7.466 8.292-11.642a24.83 24.83 0 0 0 1.213-19.474 154.744 154.744 0 0 1-5.543-19.33 26.937 26.937 0 0 1 .214-7.682c18.212 25.99 17.005 60.834-2.969 85.742-19.974 24.907-53.991 33.987-83.706 22.341l.219.236z"/>
            <path fill="url(#s)" d="M203.919 279.933a28.767 28.767 0 0 0-4.482 4.729c-5.35 8.025 0 19.203-3.615 28.662-2.347 5.318-7.345 9.02-13.156 9.745a21.677 21.677 0 0 1-16.048-4.586 94.394 94.394 0 0 0-9.398-7.595 16.906 16.906 0 0 0-13.187-.767 16.713 16.713 0 0 0-9.656 8.935c-1.302 3.153-1.012 9.745-4.048 12.182-6.362 5.016-6.362-7.596-10.555-10.605a9.032 9.032 0 0 0-9.108 0c-.963.44-1.883.967-2.747 1.576 6.851-18.367 20.987-33.155 39.122-40.925a72.877 72.877 0 0 1 56.878-.205v-1.146z" transform="rotate(-16 -300.474 -268.797)"/>
            <path fill="url(#t)" d="M277.268 304.36a77.502 77.502 0 0 1-11.859 10.99c-26.232 19.79-62.63 19.79-88.862 0a70.849 70.849 0 0 1-13.615-13.592 71.865 71.865 0 0 1-13.03-28.919 70.027 70.027 0 0 1 2.929-39.907 71.894 71.894 0 0 1 5.563-11.712c5.416-1.157-8.638 34.413 5.416 60.584 40.991 76.78 112.58 21.978 113.458 22.557z" transform="rotate(-16 44.672 -152.596)"/>
            <g transform="rotate(-16 1.654 -258.454)">
                <use fill="#000" filter="url(#u)" xlink:href="#v"/>
                <use fill="url(#w)" xlink:href="#v"/>
            </g>
            <path fill="#FFF" d="M469.5 307.46c-1.237 0-2.24-.878-2.24-1.96 0-1.082 1.003-1.96 2.24-1.96 1.237 0 2.24.878 2.24 1.96 0 1.082-1.003 1.96-2.24 1.96zM528 318.32c-1.082 0-1.96-.815-1.96-1.82 0-1.005.878-1.82 1.96-1.82 1.082 0 1.96.815 1.96 1.82 0 1.005-.878 1.82-1.96 1.82zM518.5 287.24c-1.005 0-1.82-1.003-1.82-2.24 0-1.237.815-2.24 1.82-2.24 1.005 0 1.82 1.003 1.82 2.24 0 1.237-.815 2.24-1.82 2.24zM546 249.82a1.82 1.82 0 1 1 0-3.64 1.82 1.82 0 0 1 0 3.64zM183.5 126.74c-1.082 0-1.96-1.003-1.96-2.24 0-1.237.878-2.24 1.96-2.24 1.053.078 1.892 1.037 1.96 2.24 0 1.237-.878 2.24-1.96 2.24zM97.5 83.24c-1.005 0-1.82-1.003-1.82-2.24 0-1.237.815-2.24 1.82-2.24 1.005 0 1.82 1.003 1.82 2.24 0 1.237-.815 2.24-1.82 2.24zM502.5 222.74c-1.082 0-1.96-1.003-1.96-2.24 0-1.237.878-2.24 1.96-2.24 1.082 0 1.96 1.003 1.96 2.24 0 1.237-.878 2.24-1.96 2.24z"/>
            <path fill="#FFE6F7" d="M582.5 303.5a17.305 17.305 0 0 0-8.548 3.063 15.662 15.662 0 0 0-2.382 7.937 17.882 17.882 0 0 0-2.522-7.937c-2.102-2.645-8.548-3.063-8.548-3.063a16.043 16.043 0 0 0 8.548-2.785c1.962-1.81 2.522-8.215 2.522-8.215s0 6.405 2.382 8.215a16.325 16.325 0 0 0 8.548 2.785zM455.5 248.5a18.24 18.24 0 0 0-8.494 3.063 15.177 15.177 0 0 0-2.506 7.937 17.544 17.544 0 0 0-2.367-7.937c-2.089-2.645-8.633-3.063-8.633-3.063 3.061-.1 6.04-1.014 8.633-2.646a18.101 18.101 0 0 0 2.367-8.354 18.797 18.797 0 0 0 2.506 8.354 16.848 16.848 0 0 0 8.494 2.646zM127.5 519.346c-3.059.246-5.997 1.417-8.494 3.385-1.572 2.6-2.441 5.642-2.506 8.769-.128-3.093-.94-6.104-2.367-8.77-2.228-3.076-8.633-3.384-8.633-3.384 2.865-.129 5.649-1.083 8.076-2.77 1.449-2.765 2.262-5.882 2.367-9.076.175 3.202 1.034 6.312 2.506 9.077 2.702 1.893 5.852 2.857 9.051 2.77zM217.5 81.5a19.076 19.076 0 0 0-8.633 3.063A16.013 16.013 0 0 0 206.5 92.5a16.57 16.57 0 0 0-2.506-7.937c-2.089-2.645-8.494-3.063-8.494-3.063a15.873 15.873 0 0 0 8.494-2.785c2.088-1.81 2.506-8.215 2.506-8.215s0 6.405 2.506 8.215A15.873 15.873 0 0 0 217.5 81.5zM565.5 199.07a14.008 14.008 0 0 0-6.689 2.349A12.914 12.914 0 0 0 557 207.5a13.742 13.742 0 0 0-1.95-6.081c-1.673-2.073-6.55-2.35-6.55-2.35a12.469 12.469 0 0 0 6.55-2.211c1.532-1.382 1.95-6.358 1.95-6.358s0 4.976 1.95 6.358a12.469 12.469 0 0 0 6.55 2.211zM142.5 201c-2.397.2-4.7 1.015-6.689 2.369A13.098 13.098 0 0 0 134 209.5a13.934 13.934 0 0 0-1.95-6.131c-1.673-2.09-6.55-2.369-6.55-2.369a13.934 13.934 0 0 0 6.55-2.09 13.934 13.934 0 0 0 1.95-6.41c.12 2.263.789 4.464 1.95 6.41a11.844 11.844 0 0 0 6.55 2.09zM78.5 476.07c-2.361.16-4.63.975-6.55 2.349A11.957 11.957 0 0 0 70 484.5c-.12-2.139-.74-4.22-1.811-6.081-1.673-2.073-6.689-2.35-6.689-2.35a13.17 13.17 0 0 0 6.689-2.211C69.72 472.476 70 467.5 70 467.5s0 4.976 1.95 6.358a12.89 12.89 0 0 0 6.55 2.211z"/>
            <path fill="#FFF" d="M244 606.32c-1.082 0-1.96-.815-1.96-1.82 0-1.005.878-1.82 1.96-1.82 1.082 0 1.96.815 1.96 1.82 0 1.005-.878 1.82-1.96 1.82zM289.5 625.46a1.96 1.96 0 0 1-1.96-1.96 2.1 2.1 0 0 1 1.96-1.96 1.96 1.96 0 0 1 0 3.92zM274 583.32c-1.237 0-2.24-.815-2.24-1.82 0-1.005 1.003-1.82 2.24-1.82 1.237 0 2.24.815 2.24 1.82 0 1.005-1.003 1.82-2.24 1.82zM312.5 550.46c-1.237 0-2.24-.878-2.24-1.96.078-1.053 1.037-1.892 2.24-1.96 1.237 0 2.24.878 2.24 1.96 0 1.082-1.003 1.96-2.24 1.96zM264.5 523.46c-1.203-.068-2.162-.907-2.24-1.96 0-1.082 1.003-1.96 2.24-1.96 1.237 0 2.24.878 2.24 1.96 0 1.082-1.003 1.96-2.24 1.96z"/>
            <path fill="#FFE6F7" d="M357 602.5c-3.1.264-6.08 1.466-8.633 3.481-1.484 2.712-2.3 5.826-2.367 9.019-.203-3.188-1.061-6.277-2.506-9.019-2.089-3.006-8.494-3.481-8.494-3.481 3.04-.109 5.988-1.207 8.494-3.165C345.443 597.278 346 590 346 590s0 7.278 2.367 9.335c2.56 1.955 5.551 3.052 8.633 3.165zM264.5 559.5c-3.059.339-5.994 1.486-8.548 3.342a19.321 19.321 0 0 0-2.522 8.658 20.332 20.332 0 0 0-2.382-8.658c-2.102-2.886-8.548-3.342-8.548-3.342 3.056-.12 6.019-1.174 8.548-3.038 1.962-1.975 2.382-8.962 2.382-8.962s0 6.987 2.522 8.962c2.53 1.864 5.492 2.917 8.548 3.038zM317.5 514.79a14.432 14.432 0 0 0-6.857 2.528 11.806 11.806 0 0 0-2 6.182 12.192 12.192 0 0 0-1.286-5.9c-1.714-2.249-6.857-2.53-6.857-2.53a13.009 13.009 0 0 0 6.857-2.107c1.572-1.405 1.857-6.463 1.857-6.463.123 2.282.81 4.5 2 6.463a13.016 13.016 0 0 0 6.286 1.826z"/>
            <g transform="translate(-384 79)">
                <use fill="#000" filter="url(#x)" xlink:href="#y"/>
                <use fill="#2BC4D3" xlink:href="#y"/>
            </g>
            <path fill="url(#z)" d="M628 473.071l-2.633 4.01c-23.978 33.332-70.318 41.885-104.822 19.347l-2.33-1.504c-28.042-19.84-39.337-55.715-27.648-87.811a22.397 22.397 0 0 1 8.912.902 38.821 38.821 0 0 1 15.293 10.024 81.296 81.296 0 0 1 18.433 28.67 25.46 25.46 0 0 0 3.544 7.016 21.223 21.223 0 0 0 17.217 4.51h9.622a28.982 28.982 0 0 1 11.95 3.51c5.368 3.107 9.115 8.42 14.584 11.226a26.786 26.786 0 0 0 19.547 1.303 80.368 80.368 0 0 1 11.95-3.107A9.385 9.385 0 0 1 628 473.07z" transform="translate(-415 99)"/>
            <path fill="#0FA3B1" d="M212.652 571.937l-2.613 4.025C186.24 609.419 140.246 618.004 106 595.38v-.504c6.6-4.334 13.685-7.88 21.11-10.564a36.294 36.294 0 0 0 18.194-14.489 30.712 30.712 0 0 0 3.015-12.376 65.56 65.56 0 0 1 3.619-29.179c4.724-8.15 14.374-12.074 21.009-18.815a64.225 64.225 0 0 0 13.47-31.694c0-1.912.904-3.824 1.507-5.836.603-2.012.905-2.616 1.408-3.924l2.311 1.61c32.95 23.172 42.16 68.027 21.01 102.327z"/>
            <path fill="url(#A)" d="M474.635 401.67a17.577 17.577 0 0 0 2.361 18.559 126.33 126.33 0 0 1 11.188 16.834 97.097 97.097 0 0 1 3.387 20.283 17.49 17.49 0 0 0 6.876 12.474c7.549 3.095 16.235-.09 19.912-7.302 3.273-7.09 5.784-14.5 7.493-22.108a66.572 66.572 0 0 0 4.003-12.068c.808-7.465-1.787-14.898-7.082-20.283a46.08 46.08 0 0 0-18.988-11.46 36.106 36.106 0 0 0-15.601-2.535c-5.457.352-10.45 3.155-13.549 7.606z" transform="translate(-334 69)"/>
            <path fill="#D5330D" d="M79.86 549.85a66.757 66.757 0 0 1-1.806-15.492c-.923-23.72 9.985-46.347 29.099-60.358a72.374 72.374 0 0 0-11.54 49.594A108.204 108.204 0 0 0 121 592a67.996 67.996 0 0 1-25.185-15.09 58.78 58.78 0 0 1-15.955-27.06z"/>
            <g transform="rotate(17 -1037.76 -28.7)">
                <use fill="#000" filter="url(#B)" xlink:href="#C"/>
                <use fill="url(#D)" xlink:href="#C"/>
            </g>
            <path fill="url(#E)" d="M712.441 168.61c1.518-4.748-1.214-10.323-8.297-17.446a141.484 141.484 0 0 0-30.355-20.648c-.08 1.341-.08 2.686 0 4.026a137.827 137.827 0 0 1 28.028 19.512c5.868 5.575 8.398 10.324 7.285 13.628-2.024 5.987-16.29 8.155-38.247 5.78a409.206 409.206 0 0 1-84.084-20.647c-43.914-15.072-82.667-34.894-98.756-50.38-5.868-5.677-8.398-10.323-7.285-13.627 2.428-7.433 20.237-9.394 51.806-3.923.91-1.651 1.214-1.961 2.024-3.406-31.367-5.678-53.628-4.853-57.27 6.194-1.62 4.749 1.214 10.324 8.297 17.447 16.695 16.105 55.044 35.72 99.97 51.618a416.246 416.246 0 0 0 84.893 20.648c17.201 1.342 38.55 1.445 41.991-8.775z" transform="rotate(17 -1028.383 -49.637)"/>
        </g>
    </g>
</svg>
