<svg width="73" height="60" viewBox="0 0 73 60" fill="none" xmlns="http://www.w3.org/2000/svg">
<path fill-rule="evenodd" clip-rule="evenodd" d="M66 42H7V4.15385C7 2.40977 8.38805 1 10.1053 1H62.8947C64.6119 1 66 2.40977 66 4.15385V42Z" stroke="#0FA3B1" stroke-width="2"/>
<path fill-rule="evenodd" clip-rule="evenodd" d="M65.9905 42H7.00945L2.16058 55.2713C1.49316 57.1045 2.98942 59 5.10963 59H67.8904C70.0106 59 71.5068 57.1045 70.8394 55.2713L65.9905 42Z" stroke="#0FA3B1" stroke-width="2"/>
<path d="M33 56H40" stroke="#0FA3B1" stroke-width="2"/>
<path d="M7 10H65V8H7V10Z" fill="#0FA3B1"/>
<path d="M13 5C13 5.553 12.553 6 12 6C11.447 6 11 5.553 11 5C11 4.447 11.447 4 12 4C12.553 4 13 4.447 13 5Z" fill="#D5330D"/>
<path d="M17 5C17 5.553 16.553 6 16 6C15.447 6 15 5.553 15 5C15 4.447 15.447 4 16 4C16.553 4 17 4.447 17 5Z" fill="#D5330D"/>
<path d="M55.4191 18.2485H17.5697V14.1579H55.4191V18.2485ZM55.4191 27.5453H48.3051V23.4969H55.4191V27.5453ZM40.057 27.5453H32.943V23.4969H40.057V27.5453ZM24.6837 27.5453H17.5697V23.4969H24.6837V27.5453ZM40.057 36.8421H17.5697V32.7938H40.057V36.8421ZM48.3051 32.7938H55.4191V36.8421H48.3051V32.7938ZM56.1868 13H16.8135L16 13.6001V18.8485L16.8135 19.4064H20.342V22.3306H16.8135L16 22.8969V28.1454L16.8135 28.7032H20.342V31.6274H16.8135L16 32.1937V37.4422L16.8135 38H40.8132L41.6264 37.4422V35.3969H46.7358V37.4422L47.5493 38H56.1868L57 37.4422V32.1937L56.1868 31.6274H47.5493L46.7358 32.1937V34.2305H41.6264V32.1937L40.8132 31.6274H21.9114V28.7032H25.4511L26.2531 28.1454V22.8969L25.4511 22.3306H21.9114V19.4064H35.7038V22.3306H32.1756L31.3621 22.8969V28.1454L32.1756 28.7032H40.8132L41.6264 28.1454V22.8969L40.8132 22.3306H37.2847V19.4064H51.0774V22.3306H47.5493L46.7358 22.8969V28.1454L47.5493 28.7032H56.1868L57 28.1454V22.8969L56.1868 22.3306H52.6583V19.4064H56.1868L57 18.8485V13.6001L56.1868 13Z" fill="#0C7489"/>
</svg>
