<svg xmlns="http://www.w3.org/2000/svg" width="343" height="380" viewBox="0 0 343 380">
    <g fill="none" fill-rule="evenodd">
        <g fill-rule="nonzero">
            <g>
                <path fill="#244A6E" d="M157.81 117.655s-30.837-10.133-42.213 14.614c-1.827 3.963-3.148 8.816-3.768 14.752 0 0-5.124-5.122-8.628-12.915-1.02-2.27-1.9-4.763-2.475-7.426-.797-3.64-1.021-7.6-.249-11.712.459-2.469 1.28-4.993 2.555-7.545.514-1.039 1.11-2.082 1.787-3.13 10.954-16.958 39.191-21.349 49.415-5.2 2.862 4.52 4.313 10.65 3.576 18.562z" transform="translate(-194 -4523) translate(194 4523)"/>
                <path fill="#0A2239" d="M111.032 147.02s-4.655-4.653-8.173-11.855c-.004-.005-.007-.01-.007-.015-.015-.024-.025-.048-.036-.072l-.01-.02-.032-.067-.01-.019c-.01-.023-.021-.047-.035-.07 0-.006-.004-.013-.007-.019-.01-.023-.025-.046-.035-.07-.004-.005-.004-.012-.007-.017l-.127-.264-.01-.024-.028-.063c-.007-.01-.01-.019-.014-.029l-.028-.06c-.004-.008-.007-.018-.014-.027-.007-.02-.018-.04-.028-.061-.004-.01-.007-.02-.014-.03-.007-.019-.014-.037-.025-.055-.004-.012-.01-.023-.018-.036l-.02-.051c-.008-.013-.015-.025-.018-.037l-.025-.053c-.003-.012-.01-.024-.014-.036l-.042-.087c-1.038-2.309-1.933-4.845-2.518-7.554-.467-2.14-.74-4.39-.737-6.716 0-1.696.15-3.433.484-5.198.467-2.512 1.301-5.079 2.6-7.675.522-1.057 1.129-2.118 1.816-3.184l.074-.112c.007-.01.014-.02.018-.029.02-.028.038-.056.056-.084.007-.009.01-.018.017-.026.018-.03.039-.058.056-.087l.021-.028c.018-.028.035-.056.056-.084.004-.009.011-.018.018-.026.018-.03.039-.058.056-.087.007-.008.014-.017.018-.025.02-.03.042-.058.06-.088.006-.007.01-.014.017-.021.017-.03.042-.062.063-.092l.01-.019c.025-.033.046-.065.07-.098 0-.003.004-.006.008-.01.024-.034.045-.068.07-.102.003-.003.007-.006.007-.008.449-.635.919-1.249 1.417-1.846 2.473-2.983 5.507-5.49 8.853-7.466.007-.005.015-.01.025-.014l.088-.054.035-.019.077-.046c.018-.009.032-.017.046-.027l.066-.038.053-.03.06-.034.063-.035c.017-.01.031-.02.052-.03.021-.011.039-.023.06-.035l.049-.028c.025-.013.05-.026.07-.039l.039-.021c.024-.015.052-.03.077-.044l.031-.017c.032-.016.06-.032.088-.048.004-.001.007-.003.007-.004 4.774-2.625 10.116-4.194 15.35-4.554.775-.053 1.543-.08 2.312-.08 3.777 0 7.446.653 10.747 2.018-1.582-.252-3.206-.376-4.851-.376-11.144 0-23.246 5.683-29.612 15.535-.688 1.067-1.291 2.127-1.817 3.184-1.298 2.597-2.133 5.164-2.6 7.675-.785 4.183-.554 8.21.253 11.915.586 2.708 1.484 5.244 2.522 7.554.568 1.269 1.182 2.466 1.81 3.586.723-3.642 1.744-6.816 3.006-9.56 6.363-13.84 18.71-16.955 28.54-16.955 8.046 0 14.405 2.09 14.405 2.09.748-8.05-.73-14.285-3.637-18.883-.07-.104-.137-.205-.207-.307.2.22.393.447.586.678h-.004c.414.502.807 1.027 1.179 1.577.01.014.02.028.028.042.007.008.01.016.017.024.014.024.032.048.046.072.004.002.004.005.007.007l.179.275c.021.031.038.062.06.094 2.41 3.807 3.837 8.738 3.83 14.892 0 1.277-.063 2.607-.193 3.99l-.003-.001c-.004 0-.007-.002-.011-.003-.333-.108-6.556-2.082-14.375-2.085h-.101c-9.566.017-21.478 2.996-27.953 15.915-.018.034-.036.07-.05.103l-.073.145-.214.446c-.018.04-.035.075-.056.115-.004.014-.01.029-.018.044-.003.004-.007.008-.007.013l-.01.024c-.004.003-.004.006-.007.01l-.021.049-.043.091c-.017.04-.038.08-.056.12-.003.01-.01.022-.014.033l-.052.113v.005c-1.796 3.982-3.094 8.833-3.711 14.736z" transform="translate(-194 -4523) translate(194 4523)"/>
                <path fill="#0C7489" d="M246 158.268l-1.477 7.753L219 164.143c2.249-2.162 4.494-4.527 6.698-7.122L246 158.268z" transform="translate(-194 -4523) translate(194 4523)"/>
                <path fill="#0A6578" d="M243.703 166.02L219 164.144c2.177-2.162 4.35-4.527 6.483-7.122l1.737.11c-1.72 2.004-3.457 3.87-5.197 5.598L244 164.4l-.297 1.622z" transform="translate(-194 -4523) translate(194 4523)"/>
                <path fill="#0C8F9B" d="M116.305 199.02c-2.24 0-4.587-.072-7.047-.225-2.08-.132-4.238-.319-6.481-.57-.244-.25-.48-.498-.72-.747-.243-12.246.252-25.863 2.159-56.39.116-1.942-.574-3.266-.49-5.067 3.93 8.778 10.471 14.002 10.471 14.002s16.912 27.63 37.803 39.883c-6.238 4.288-17.33 9.11-35.66 9.115h-.035z" transform="translate(-194 -4523) translate(194 4523)"/>
                <path fill="#0C7489" d="M101.918 198.02c-1.555-1.568-3.111-3.134-4.674-4.684-.154-3.81-.244-7.477-.244-11.531 0-10.36.581-23.25 2.148-47.514.113-1.824.218-3.58.296-5.27 3.809 8.243 9.38 13.66 9.38 13.66s22.324 35.342 47.055 41.827c.214.058.424.11.637.163.162.037.32.079.484.115-.037.058-.214.326-.562.752-.015.178-.038.351-.06.525-.03-.105-.064-.21-.102-.32-.007.007-.01.014-.018.022l-.012.013-.003.006-.027.03c-.003.006-.01.012-.014.02-.02.018-.034.037-.05.056-.966 1.136-2.81 3.016-5.821 5.02-20.251-11.508-36.645-37.456-36.645-37.456s-5.567-5.418-9.376-13.662c-.082 1.692-.187 3.447-.3 5.27-1.848 28.669-2.328 41.458-2.092 52.959z" transform="translate(-194 -4523) translate(194 4523)"/>
                <path fill="#244A6E" d="M217.379 218.427c-11.022 22.05-24.401 27.388-27.648 28.39-.473.15-.731.204-.731.204.227-.258.454-.518.669-.779 15.808-18.657 16.024-50.007 16.024-50.007s18.84-3.967 11.686 22.192z" transform="translate(-194 -4523) translate(194 4523)"/>
                <path fill="#0A2239" d="M192 243.02c.197-.229.394-.46.58-.693l.027-.033.204-.248c.003-.006.01-.01.014-.02l.05-.06.041-.05c.01-.012.02-.028.034-.041l.061-.08.007-.007c.77-.972 1.5-1.978 2.185-3.011 3.852-1.533 13.432-6.764 21.797-22.756-.109.46-.224.93-.35 1.413-.01.034-.02.068-.027.102-9.563 19.653-21.172 24.41-23.988 25.304-.411.132-.635.18-.635.18z" transform="translate(-194 -4523) translate(194 4523)"/>
                <path fill="#273D38" d="M200 227.02c5.424-14.973 5.626-30.233 5.633-30.81v-.017l.004-.001c.043-.01.56-.118 1.363-.171-.419 6.184-1.885 19.102-7 31z" transform="translate(-194 -4523) translate(194 4523)"/>
                <path fill="#244A6E" d="M208 133.963c-6.358 1.27-19.222 4.561-31.548 12.058 0 0-.415-1.02-1.452-2.956.449-1.98 1.695-4.246 4.02-6.836 15.294-17.039 28.98-2.266 28.98-2.266z" transform="translate(-194 -4523) translate(194 4523)"/>
                <path fill="#182824" d="M176.452 147.02s-.415-1.064-1.452-3.083l.01-.047c0-.002 0-.004.004-.005.003-.015.003-.029.007-.043.003-.002.003-.003.003-.005l.01-.044v-.004c.02-.095.048-.192.072-.289 0-.002 0-.005.004-.008l.01-.038c0-.004 0-.009.003-.014 0-.009.004-.018.007-.027.004-.008.004-.015.007-.022l.003-.021c.463-1.641 1.418-3.464 2.996-5.485-.873 1.43-1.42 2.75-1.684 3.965 1.037 2.019 1.452 3.083 1.452 3.083 10.645-6.755 21.687-10.235 28.6-11.912.965.822 1.496 1.42 1.496 1.42-6.358 1.325-19.222 4.758-31.548 12.58z" transform="translate(-194 -4523) translate(194 4523)"/>
                <path fill="#244A6E" d="M161.835 319.238c-5.092 3.37-11.538 5.984-18.66 6.902-12.404 1.596-21.803.807-28.552-.65-.662-3.196-1.22-6.642-1.623-10.316 15.101-6.695 33.676-22.57 33.676-22.57s8.12-1.803 16.324.929c-.396 2.717-.796 5.595-1.202 8.651-.948 7.224-.81 12.783.037 17.054z" transform="translate(-194 -4523) translate(194 4523)"/>
                <path fill="#0A2239" d="M130.057 327.02h-.024c-6.107-.003-11.171-.631-15.267-1.507l-.141-.032c-.662-3.211-1.221-6.674-1.625-10.366.041-.018.083-.036.124-.058.038-.014.073-.032.107-.046.017-.008.028-.015.045-.018l.166-.076v-.003l.134-.058c.017-.01.035-.018.052-.025.024-.01.045-.021.065-.032.045-.018.09-.04.135-.061.003 0 .007-.004.014-.004 14.963-6.929 32.878-22.3 32.878-22.3h.004c.055-.012 1.132-.245 2.86-.413-4.281 3.552-19.679 15.975-32.565 21.705.407 3.692.966 7.155 1.629 10.37 4.126.89 9.242 1.536 15.428 1.536 3.947 0 8.325-.262 13.162-.886 2.336-.302 4.595-.79 6.762-1.425-2.915 1.163-6.058 2.067-9.36 2.605-.055.007-.11.018-.165.025-.007.004-.018.004-.028.004l-.135.021c-.017.004-.034.008-.048.008-.041.007-.08.014-.117.017l-.066.011-.096.015-.08.01c-.03.008-.062.011-.093.015l-.08.01c-.03.004-.058.008-.086.015l-.086.01-.086.011-.086.011c-.059.01-.114.018-.173.025l-.359.043c-.269.036-.538.068-.803.1-4.368.521-8.353.74-11.972.744h-.024z" transform="translate(-194 -4523) translate(194 4523)"/>
                <path fill="#244A6E" d="M156 198.353c-19.609 7.003-30.718 18.668-30.718 18.668-2.837-2.574-5.672-5.307-8.516-8.132-3.9-3.875-7.816-7.925-11.766-11.963 33.368 3.677 45.872-8.464 48.703-11.905.034.1.065.197.092.293 1.314 4.459 1.926 9.212 2.205 13.039z" transform="translate(-194 -4523) translate(194 4523)"/>
                <path fill="#0A2239" d="M125.282 217.02c-2.837-2.54-5.672-5.236-8.516-8.023-3.9-3.824-7.816-7.82-11.766-11.804l.405.043c1.827.193 3.593.339 5.298.442 2.664 2.692 5.314 5.364 7.958 7.956 2.841 2.787 5.675 5.483 8.516 8.023 0 0 10.31-10.675 28.588-17.636.089.834.164 1.648.221 2.42.004.053.007.107.014.16-19.609 6.91-30.718 18.42-30.718 18.42z" transform="translate(-194 -4523) translate(194 4523)"/>
                <path fill="#244A6E" d="M211.94 322.095c-12.617 7.084-22.822 9.177-31.94 8.902 17.902-16.388 29.495-40.061 29.495-40.061s9.768-4.45 16.173 6.274c6.409 10.72-1.118 17.804-13.728 24.885z" transform="translate(-194 -4523) translate(194 4523)"/>
                <path fill="#0A2239" d="M183 331.02c1.333-1.276 2.633-2.593 3.893-3.936 8.429-.12 17.854-2.437 29.28-8.987 3.37-1.931 6.365-3.863 8.827-5.868-2.653 3.318-6.885 6.346-12.052 9.36-.003.004-.006.004-.013.007-.079.047-.155.094-.234.137l-.02.01c-.032.02-.068.04-.105.06l-.03.02-.101.06c-.01.004-.02.01-.027.014l-.105.06c-.01.007-.02.01-.026.017-.04.02-.076.043-.112.063-11.38 6.524-20.773 8.847-29.175 8.984zm27.429-38.437c.494-.803 1.002-1.605 1.481-2.396.625-.06 1.279-.113 1.947-.166-1.046.784-2.179 1.64-3.428 2.562z" transform="translate(-194 -4523) translate(194 4523)"/>
                <path fill="#0C8F9B" d="M210.495 291.505s-11.54 24.242-29.36 41.023c0 0-15.09 4.311-18.466-12.571-.817-4.06-.95-9.35-.037-16.224.392-2.912.777-5.65 1.159-8.236 4.17-28.396 7.674-37.36 7.78-37.635l.003-.006.007-.004c7.604-4.087 14.836-8.769 21.494-13.998l.01-.003s.216-.051.62-.187c2.757-.941 14.113-5.953 23.47-26.643 0 0 7.09 19.576-6.68 74.484z" transform="translate(-194 -4523) translate(194 4523)"/>
                <path fill="#0B6779" d="M167.599 329.02c-2.586-1.89-4.84-5.062-5.918-10.286-.437-2.102-.681-4.536-.681-7.352-.003-2.562.2-5.446.644-8.682.4-2.874.793-5.58 1.183-8.134 4.257-28.06 7.832-36.916 7.94-37.188l.008-.007.003-.003c7.761-4.039 15.143-8.669 21.938-13.832l.01-.003s.224-.05.634-.188c2.813-.93 14.408-5.879 23.959-26.324 0 0 .312.838.681 2.656-9.364 18.864-20.318 23.53-23.043 24.433-.414.134-.634.185-.634.185l-.01.003c-6.796 5.167-14.177 9.793-21.939 13.832l-.007.003-.003.007c-.108.272-3.684 9.128-7.94 37.188-.39 2.554-.784 5.26-1.184 8.137-.932 6.792-.796 12.02.038 16.031.705 3.424 1.915 5.966 3.392 7.843.292.604.6 1.161.929 1.682z" transform="translate(-194 -4523) translate(194 4523)"/>
                <path fill="#0C7489" d="M165.138 327.02c-1.5-1.9-2.73-4.472-3.445-7.94-.847-4.061-.984-9.353-.038-16.23.406-2.912.805-5.652 1.201-8.238 4.322-28.409 7.953-37.375 8.063-37.65l.004-.007.006-.004c7.881-4.089 15.376-8.773 22.276-14.004l.01-.003s.224-.051.644-.187c2.767-.914 13.89-5.639 23.398-24.736.247 1.215.52 2.862.743 4.981-9.257 17.38-19.67 21.801-22.334 22.682-.42.136-.647.187-.647.187l-.007.003c-6.903 5.23-14.399 9.915-22.28 14.004l-.003.006-.007.004c-.106.275-3.737 9.242-8.063 37.653-.395 2.584-.795 5.327-1.197 8.236-.95 6.876-.809 12.165.034 16.23.403 1.937.964 3.596 1.642 5.014z" transform="translate(-194 -4523) translate(194 4523)"/>
                <path fill="#0C8F9B" d="M206 196.358s-.184 29.283-13.743 46.71c-.185.244-.38.488-.574.728h-.013c-.342.02-.678.054-1.017.101h-.026c-4.495.355-22.904.805-46.255-12.064-4.478-2.465-8.9-5.719-13.303-9.485-1.691-1.442-3.378-2.964-5.069-4.544 0 0 10.952-11.877 30.284-19.007 4.008-1.477 8.386-2.753 13.096-3.676 27.415-5.364 36.62 1.237 36.62 1.237z" transform="translate(-194 -4523) translate(194 4523)"/>
                <path fill="#0C7489" d="M186.96 244.02c-2.928 0-7.16-.226-12.39-1.13-.003 0-.003.004-.003.004-6.987-1.207-15.756-3.62-25.582-8.31l.048.016c-1.719-.818-3.468-1.701-5.251-2.665v-.003l-.02-.01-.16-.089c-4.534-2.465-9.01-5.72-13.47-9.486-1.712-1.442-3.42-2.964-5.132-4.545 0 0 11.09-11.878 30.662-19.01 4.06-1.477 8.491-2.753 13.26-3.676.76-.146 1.501-.282 2.231-.41.703-.123 1.386-.236 2.062-.344l.017-.004h-.004c6.077-.972 11.154-1.337 15.355-1.337 12.7 0 17.417 3.333 17.417 3.333v.017c-.007.674-.279 21.589-8.712 38.398 6.552-16.1 6.664-33.893 6.664-33.893s-4.71-3.338-17.413-3.338c-5.163 0-11.643.552-19.662 2.101-4.772.923-9.2 2.199-13.263 3.677-6.239 2.272-11.602 5.026-16.027 7.725-4.181 3.25-6.395 5.616-6.395 5.616 1.711 1.58 3.423 3.102 5.131 4.545 4.46 3.765 8.936 7.019 13.47 9.488 18.891 10.283 34.579 12.059 42.448 12.177l-.129.17-.027.033c-.187.244-.384.487-.58.727h-.014c-.347.02-.686.054-1.03.102h-.027c-.017 0-.034.003-.05.003l-.174.014h-.003c-.184.013-.39.027-.615.037-.696.04-1.58.068-2.632.068z" transform="translate(-194 -4523) translate(194 4523)"/>
                <path fill="#143449" d="M226 158.613c.404-.523.812-1.052 1.216-1.595.024-.008-.005-.228.016-.236.174-.058.98-1.117 1.168-1.186.206-.076-.153 1.048.063.96.021-.008-.021-.631 0-.64 1.69-.687 3.849-1.096 6.085-2.077 3.3-1.448 6.896-2.799 9.915-2.818H244.538c.858 0 1.673.11 2.417.359 3.682 1.234 4.947 4.069 7.045 5.136l-7.109 3.505L226 158.613z" transform="translate(-194 -4523) translate(194 4523)"/>
                <path fill="#143449" d="M260.932 154.132c0-.003.004-.006.004-.01.013-.02.024-.039.034-.059.004-.004.004-.008.007-.013l.032-.059c.003-.004.007-.008.007-.012.01-.02.024-.04.035-.06 0-.004.003-.007.003-.01l.032-.058.003-.009.031-.06c.004-.005.004-.01.007-.016.01-.019.021-.038.028-.057l.01-.018c.008-.018.018-.037.029-.056 0-.006.003-.012.007-.018.007-.018.017-.035.024-.053.003-.004.003-.01.007-.014l.024-.055.01-.02c.008-.018.015-.037.025-.056.004-.006.007-.014.007-.02.01-.019.018-.038.025-.056l.01-.024.021-.047.01-.027c.007-.015.014-.03.018-.046l.01-.023.021-.053.01-.027.022-.052.01-.029c.004-.015.01-.03.018-.045l.01-.034.014-.039.014-.038c.003-.013.01-.027.014-.04l.01-.03c.007-.017.01-.035.018-.052l.01-.032.014-.047.014-.036.01-.035c.004-.015.011-.031.015-.047l.01-.034.014-.047.01-.035.011-.037c.003-.016.01-.033.014-.05l.01-.035c.004-.01.004-.02.007-.031.007-.019.01-.037.014-.056l.01-.028c.004-.018.008-.036.015-.055 0-.01.003-.02.007-.03l.01-.045.01-.043c.004-.013.008-.026.008-.039.003-.01.007-.02.007-.029.007-.02.01-.04.014-.06.003-.009.003-.018.006-.026l.014-.062c0-.009.004-.018.004-.027.007-.02.01-.04.014-.061.003-.01.003-.019.007-.029 0-.013.003-.026.007-.04.003-.014.007-.029.007-.043l.01-.047c0-.01.004-.02.004-.03l.01-.058c.004-.011.004-.022.007-.032l.01-.054c0-.013.004-.025.004-.037.004-.013.004-.025.007-.038.004-.018.007-.036.007-.054.004-.013.004-.025.007-.038.004-.013.004-.027.007-.04 0-.017.004-.034.007-.052 0-.011.003-.023.003-.035.004-.018.007-.036.007-.054.004-.013.004-.027.007-.04 0-.012.004-.023.004-.035.003-.019.003-.038.007-.057 0-.012.003-.024.003-.037.004-.02.004-.039.007-.058 0-.011.004-.023.004-.033 0-.016.003-.032.003-.047.004-.015.004-.03.007-.045 0-.016 0-.032.004-.048 0-.01 0-.019.003-.028 0-.022.004-.044.004-.066.003-.01.003-.02.003-.03 0-.021.004-.043.004-.065.003-.01.003-.019.003-.028 0-.022.004-.044.004-.065.003-.01.003-.02.003-.03 0-.019.004-.038.004-.057v-.027c.003-.022.003-.045.003-.068 0-.007.004-.015.004-.023 0-.024 0-.049.003-.073v-.022c0-.026 0-.05.004-.076v-.018c0-.027 0-.054.003-.082v-.098c0-.028 0-.057.004-.087v-.105c0-.513-.028-1.047-.088-1.6-.205-1.92-1.046-4.109-2.263-6.482-2.303-4.492-6.508-7.242-10.697-10.602l65.066.46-53.155 22.838c.014-.021.024-.042.038-.063z" transform="translate(-194 -4523) translate(194 4523) rotate(3 281.516 142.546)"/>
                <path fill="#244A6E" d="M159 185.173s17.723-20.01 17.875-38.545c.012-1.015.972-.593.859-1.607l.074.005h.008c.288.524 1.196 2.245 2.284 4.772 2.985 6.963 7.26 20.06 3.3 31.216-14.579 17.458-24.4 4.16-24.4 4.16z" transform="translate(-194 -4523) translate(194 4523)"/>
                <path fill="#0A2239" d="M183.966 174.02c-.315-7.498-2.775-14.666-4.687-19.187-.983-2.324-1.813-3.937-2.14-4.547v-.121c0-.01.004-.02.004-.032v-.415c.003-.898-.042-1.8-.143-2.697l.071.005h.008c.278.512 1.153 2.193 2.2 4.662l.034.08v.001c.012.025.023.05.03.075.004.003.004.005.004.008.023.051.045.103.064.154.004.005.004.01.007.014.008.023.02.046.03.068 0 .003 0 .006.004.01.019.051.042.103.064.156.004.007.004.013.008.02l.022.054.011.028c.008.017.015.032.02.049.003.01.007.02.014.03.008.021.015.043.026.065.004.014.012.027.015.04.004.013.012.026.016.04.007.011.01.023.015.034.003.013.01.027.015.04 2.114 5.218 4.645 13.287 4.288 21.367zM161.375 186.02c-.807-.787-1.273-1.443-1.361-1.569l-.003-.006c-.004-.004-.004-.007-.007-.009v-.001l-.004-.005v-.002l.004-.002v-.003c.217-.237 6.606-7.296 11.49-16.954 0-.005.003-.011.007-.017.038-.079.08-.16.119-.24.007-.011.014-.023.018-.035l.042-.081c.01-.023.02-.046.035-.068.01-.025.02-.049.035-.073l.031-.068.021-.037c.039-.084.081-.169.123-.253.004-.005.004-.01.007-.014 1.8-3.693 3.354-7.737 4.249-11.906.004-.003.004-.005.004-.008.02-.102.042-.204.063-.305.003-.005.003-.009.003-.013l.021-.096c0-.008.004-.016.004-.024.02-.095.038-.191.056-.287.003-.01.003-.02.007-.032.007-.03.01-.06.017-.09v-.007c.014-.059.025-.117.036-.176.003-.016.007-.031.007-.047.007-.027.01-.052.017-.08 0-.014.004-.03.007-.045.007-.045.018-.09.025-.134l.01-.055.01-.07.011-.064c.007-.023.01-.046.014-.069.007-.037.014-.075.018-.113l.01-.059.014-.077c.004-.019.007-.036.007-.055l.021-.119c.004-.016.004-.033.007-.05.004-.027.011-.056.014-.084l.011-.061.01-.087c.004-.014.008-.03.008-.043l.02-.124c0-.016.004-.033.008-.05.003-.031.007-.064.014-.096 0-.013.003-.025.003-.038l.021-.132c0-.01 0-.02.004-.03.003-.037.01-.075.014-.11 0-.013.003-.024.003-.036l.021-.136v-.009c.004-.043.01-.086.018-.13 0-.01 0-.022.003-.033l.014-.121c0-.006 0-.012.004-.018.003-.047.01-.092.014-.139.003-.008.003-.017.003-.025.007-.042.011-.082.014-.123 0-.007.004-.015.004-.022.003-.048.01-.095.014-.143 0-.003 0-.005.004-.007.003-.045.007-.088.014-.133v-.026c.01-.096.02-.19.028-.285 0-.007.003-.015.003-.023l.01-.135c0-.002.004-.004.004-.006l.01-.145c0-.007.004-.014.004-.021l.01-.125v-.022l.022-.288c0-.006.003-.013.003-.02.007-.097.01-.192.018-.29v-.015l.01-.136v-.012c0-.033.004-.069.007-.102.032.59.05 1.18.042 1.768-.112 15.181-11.602 30.376-15.623 35.232zM167.17 87.02c.524-.755 1.034-1.539 1.534-2.353C157.068 79.805 146.985 73.691 143 65.63c3.026-2.103 4.276-6.847 4.718-13.12.262-3.73-.596-6.176-1.973-7.754 3.86-5.663 9.24-9.252 14.464-11.531-4.848 1.505-10.331 4.038-14.898 8.3 10.776-10.057 26.645-10.49 27.288-10.503 3.716 7.788 5.39 16.015 5.401 23.563.004 4.999-.722 9.7-2.07 13.778-2.605 7.861-5.419 13.834-8.76 18.659z" transform="translate(-194 -4523) translate(194 4523)"/>
                <path fill="#244A6E" d="M167.244 87.02h-.014c-1.468-.612-2.917-1.246-4.333-1.902-9.956-4.61-18.43-10.346-21.897-17.778 2.782-2.05 3.936-6.68 4.343-12.798 0-.028.003-.056.003-.083 0-.004.004-.008.004-.011l.003-.073v-.01c.003-.026.003-.05.003-.076v-.003c.057-1.033.027-1.962-.072-2.798 0-.004-.004-.008-.004-.013 0-.017-.003-.034-.006-.05v-.02c-.004-.014-.007-.028-.007-.043l-.003-.024c-.004-.012-.004-.024-.007-.037 0-.01 0-.02-.003-.03 0-.009-.004-.017-.004-.026l-.006-.039v-.009c-.268-1.844-.893-3.213-1.72-4.22.784-1.222 1.64-2.344 2.543-3.375.043-.048.086-.096.126-.143.003-.001.003-.002.003-.004l.06-.067.007-.005c.016-.02.036-.043.056-.063l.01-.012.056-.06c0-.003.003-.006.007-.008.016-.02.036-.041.056-.06l.01-.014.053-.056c.003-.005.01-.01.013-.016.016-.017.033-.034.046-.051.01-.008.017-.015.023-.023.014-.015.03-.03.043-.046l.02-.023c.017-.015.03-.03.043-.045l.027-.027c.01-.013.023-.027.036-.04l.03-.03.033-.038c.013-.011.023-.023.033-.034l.033-.033.033-.035.03-.031.04-.04c.006-.01.016-.017.023-.027.013-.013.026-.027.043-.041.006-.008.013-.017.023-.025.013-.015.03-.03.043-.046l.02-.019.046-.047c.007-.007.013-.012.017-.018l.056-.054.006-.01.06-.056.007-.01.06-.06c.002 0 .002-.002.002-.003.024-.02.043-.041.063-.062.004-.001.004-.002.004-.003 4.204-4.157 9.251-6.628 13.714-8.096-4.81 2.223-9.762 5.724-13.314 11.25 1.267 1.539 2.057 3.924 1.816 7.564-.407 6.12-1.558 10.747-4.343 12.799 3.668 7.865 12.95 13.83 23.66 18.573-.46.794-.93 1.559-1.412 2.296l-.014.02-.046.069-.04.06c-.006.013-.016.025-.023.037-.02.031-.04.062-.063.094l-.02.032c-.016.025-.033.051-.052.076-.004.01-.01.018-.017.027l-.07.103z" transform="translate(-194 -4523) translate(194 4523)"/>
                <path fill="#0C8F9B" d="M153.053 99.96c-10.158-16.091-37.859-11.22-48.742 5.68-.672 1.044-1.594 1.345-2.104 2.38-1.443-15.686-4.998-15.344-4.998-15.344-7.314-4.163-38.858-7.074-38.858-7.074-.517-.02-1.041-.03-1.569-.03-2.946-7.642-6.008-21.106-1.49-38.737 7.239-28.294 47.066-55.187 82.995-44.366C156.14 7.84 167.2 19.244 173 31.792c-.699.015-20.41.57-30.098 15.201-2.039-2.44-5.276-2.777-7.393-2.648-11.939.733-8.794 22.65-1.391 24.106 2.624.515 4.638.143 6.17-.965 4.1 8.543 14.224 14.634 26.42 19.58-3.796 5.479-7.924 9.188-13.655 12.895z" transform="translate(-194 -4523) translate(194 4523)"/>
                <path fill="#0C7489" d="M131.944 68.02c-.612 0-1.272-.076-1.978-.232-6.72-1.494-9.575-23.992 1.263-24.744.218-.015.448-.023.687-.023.641 0 1.356.061 2.084.23-4.239 1.09-5.946 5.986-5.94 11.127.01 5.805 2.202 11.925 5.405 13.233l.003.001.04.017.007.001c.028.012.059.023.09.034l.003.002.037.013.013.005.031.01.016.005.03.01.013.004.037.012.007.001.043.013c-.575.186-1.203.282-1.89.282zM143.365 47.02l-.04-.046-.028-.032c-.003-.005-.006-.01-.013-.014l-.03-.038c-.004-.002-.007-.004-.007-.007-.014-.013-.027-.027-.037-.04 0-.002-.004-.003-.004-.004-.796-.88-1.76-1.461-2.759-1.834 9.93-12.357 27.493-12.858 28.148-12.872-5.71-12.29-16.602-23.459-34.179-28.719-4.766-1.427-9.6-2.18-14.416-2.353.745-.027 1.49-.04 2.24-.04 5.531 0 11.104.752 16.581 2.393 17.577 5.26 28.469 16.43 34.179 28.719-.604.012-15.499.43-25.615 10.098 0 0 0 .002-.003.002-.02.021-.04.041-.064.062 0 0 0 .002-.003.003l-.061.06c-.004.003-.004.005-.007.008l-.06.056-.007.01c-.02.017-.037.036-.058.053-.003.006-.01.011-.017.017l-.047.047-.02.02c-.013.015-.03.03-.044.045-.01.007-.017.016-.023.024-.017.013-.03.027-.044.04-.007.01-.017.018-.024.027l-.04.04-.03.03c-.01.011-.024.023-.034.035-.01.01-.024.021-.034.032-.01.011-.02.022-.034.034l-.034.037-.03.029c-.014.013-.027.027-.037.04-.01.008-.017.018-.027.026-.014.016-.027.03-.044.045l-.02.022-.044.046c-.007.008-.014.014-.024.022-.013.017-.03.034-.047.05-.003.006-.01.011-.013.017l-.054.055-.01.013-.058.06c-.003.002-.007.005-.007.008l-.057.059-.01.011c-.02.02-.04.042-.057.063l-.007.005-.06.066c0 .001 0 .002-.004.004-.04.046-.085.093-.128.14-.921 1.017-1.795 2.123-2.594 3.327zM156.161 101.02c-.822-.912-1.698-1.785-2.613-2.615.915.83 1.79 1.703 2.613 2.616zm6.653-14.82C151.473 81.6 141.43 75.821 137 68.204c1.402-.021 2.588-.356 3.585-.97.377.46.774.911 1.19 1.356-.311-.515-.6-1.038-.862-1.57 3.655 7.425 12.59 13.154 23.087 17.76-.387.485-.785.958-1.186 1.42zM106.455 110.02c.18-.281.36-.568.541-.847-.18.28-.36.566-.541.848zm.09-.135c.103-.191.232-.385.36-.576-.128.19-.257.385-.36.576zm0-1.776c.103-.186.232-.38.36-.566-.128.189-.257.375-.36.566zm0 .003c.129-.194.232-.377.36-.571 0 .024-.025.055-.05.08l-.31.49zm-.013.014c.129-.202.258-.398.387-.6-.13.205-.258.396-.387.6zm-.013-.001c.129-.202.258-.398.413-.598-.155.205-.258.39-.413.598zm.013.005l.387-.608-.387.608zm-.013.012c.129-.212.258-.42.413-.632-.155.21-.284.42-.413.632zm-.013.014c.155-.22.31-.439.438-.66-.128.219-.283.442-.438.66zm-.026.02c.155-.234.336-.468.49-.7-.154.232-.335.466-.49.7zm-.025.037c.18-.255.36-.516.541-.773-.18.257-.36.518-.541.773zm-1.018.941c.853-.895 1.706-1.778 2.577-2.656-.871.875-1.724 1.763-2.577 2.656zm2.71-2.71c.206-.26.387-.52.593-.778-.206.255-.387.521-.593.779zm.026-.023c.18-.245.36-.486.541-.73-.18.238-.36.488-.541.73zm0-.008c.18-.242.36-.476.541-.715-.18.231-.36.481-.541.715zm0 .004c.18-.245.36-.481.541-.723-.18.24-.36.484-.541.723zm0 0c.18-.242.36-.484.541-.723-.18.237-.36.484-.541.723zm-.026.018c.18-.252.387-.507.593-.76-.206.253-.412.508-.593.76zm-.992.949c.844-.897 1.703-1.783 2.577-2.657-.874.877-1.733 1.757-2.577 2.657zm-4.866-3.542c-.092-.553-.19-1.076-.289-1.572 6.214-9.677 17.825-15.25 28.529-15.25 8.103 0 15.69 3.2 20.01 10.233 4.412-2.931 8.1-6.031 11.292-9.88.387.165.775.33 1.169.493-3.083 4.575-6.652 8.124-10.965 11.335-4.45-5.579-11.282-8.14-18.536-8.144h-.057c-.731 0-1.465.028-2.206.08-.724-.053-1.455-.08-2.193-.08-9.755 0-20.265 4.634-26.754 12.785zm5.845.823l.619-.76c-.206.258-.412.5-.619.76zm0-.015l.619-.73-.619.73zm.013-.012c.18-.236.387-.473.593-.706-.206.233-.412.47-.593.706zm.013-.023c.206-.223.387-.438.567-.66-.18.22-.36.44-.567.66zm0-.007c.18-.216.361-.433.567-.646-.18.21-.386.433-.567.646zm.86.006c.18-.22.386-.44.566-.659-.18.218-.386.439-.567.66zm-.014.001c.207-.22.387-.44.593-.66-.18.217-.386.443-.593.66zm-.012.02c.206-.235.412-.466.618-.7-.206.237-.412.46-.618.7zm-.98.978c.843-.893 1.71-1.777 2.578-2.656-.868.874-1.735 1.767-2.578 2.656zm.954-.978c.232-.233.438-.467.67-.7-.232.233-.438.467-.67.7zm.077-.073c.18-.186.335-.369.516-.555-.18.184-.336.37-.516.555zm.026-.035c.154-.163.31-.322.464-.484-.155.154-.31.327-.464.484zm.026-.022c.154-.148.283-.292.412-.44-.129.148-.258.292-.412.44zm0-1.768c.128-.146.283-.297.412-.446-.129.149-.284.297-.412.446zm-.013.003c.154-.149.309-.3.438-.452-.155.157-.284.298-.438.452zm0-.007c.154-.146.283-.292.438-.438-.155.149-.284.29-.438.438zm.013-.004c.128-.146.257-.284.412-.43-.129.14-.284.29-.412.43zm46.78.077c-.128-.199-.231-.388-.36-.584.129.194.232.388.36.584zm-46.767-.09l.386-.404c-.129.133-.258.271-.386.404zm0-.017l.386-.37c-.129.12-.258.25-.386.37zm46.69-.015c-.077-.114-.129-.226-.206-.34.077.114.129.229.206.34zm-44.074-.016l.309-.308c-.103.106-.206.205-.31.308z" transform="translate(-194 -4523) translate(194 4523)"/>
                <path fill="#0B6779" d="M100.83 111.906c-.132-1.452-.284-2.79-.45-4.02l-.012-.087v-.012c-.116-.853-.24-1.653-.368-2.407 5.847-7.236 14.548-12.223 23.434-13.904 2.357-.446 4.735-.455 7.067-.455.84 0 1.674.03 2.499.089-8.49.596-17.24 4.117-23.882 10.019v.003c-.035.029-.066.056-.097.086-.008.004-.011.007-.015.011l-.093.085-.012.011-.093.082c-.004.006-.012.012-.015.017-.031.026-.062.054-.09.08-.007.005-.011.012-.019.016-.027.027-.058.054-.085.08l-.023.021-.082.076c-.008.008-.015.016-.027.025-.023.024-.054.05-.077.075l-.028.022-.081.076c-.004.007-.012.014-.02.021-.089.083-.174.166-.263.25-.008.01-.015.018-.027.027l-.058.058-.047.045c-.019.017-.035.034-.05.05l-.058.054-.047.047-.058.059-.042.042c-.024.021-.043.042-.062.063-.016.014-.031.028-.043.042l-.066.064c-.012.013-.023.026-.039.04-.019.022-.042.044-.066.066l-.038.04c-.02.022-.043.044-.062.066-.016.014-.027.027-.043.04-.02.023-.039.044-.062.065-.012.015-.027.029-.039.043l-.07.07-.03.033-.078.082-.023.026c-.035.034-.066.068-.1.103-.14.15-.28.299-.416.449l-.003.006-.093.103-.016.016-.089.098-.012.013-.085.097c-.004.006-.012.013-.015.02-.031.031-.059.063-.086.095-.004.006-.007.01-.015.016-.027.033-.054.065-.085.098l-.012.015c-.031.035-.062.07-.09.104-.003.002-.007.006-.007.008l-.093.107c0 .002-.004.006-.008.008l-.093.112c-.232.274-.457.548-.678.826-.004.001-.004.004-.004.005-.03.037-.062.075-.089.112l-.011.012-.082.106c-.004.006-.008.009-.011.015l-.082.106-.011.013-.082.105c-.004.006-.008.01-.011.017l-.082.107c-.004.003-.008.007-.008.01-.03.038-.058.077-.089.115-.186.25-.364.495-.542.743 0 .003-.004.005-.004.008l-.081.114-.012.018c-.023.034-.05.069-.074.103-.004.009-.011.018-.02.027-.018.032-.042.064-.065.097-.008.01-.012.019-.02.028-.023.031-.042.062-.061.093-.012.012-.02.023-.027.034l-.059.09-.023.036c-.023.029-.042.058-.062.088-.008.01-.015.025-.023.037l-.058.088c-.008.012-.02.025-.027.037-.02.029-.035.056-.055.084-.007.014-.019.029-.027.043-.02.027-.038.056-.054.083-.012.014-.02.028-.027.042-.02.028-.039.057-.054.085-.012.014-.02.027-.027.041l-.082.125c-.76 1.196-1.43 2.386-2.007 3.572l-.012-.115zM153.427 99.02c-.017-.025-.03-.05-.047-.074l-.016-.027c-.01-.015-.017-.03-.027-.044l-.03-.046-.01-.016c-.053-.086-.109-.17-.162-.256-.357-.55-.738-1.075-1.135-1.575 4.2-3.132 7.675-6.594 10.677-11.057-.384-.16-.76-.32-1.138-.482.38-.462.758-.936 1.125-1.422 1.42.657 2.866 1.29 4.336 1.904-3.667 5.45-8.036 9.408-13.573 13.096z" transform="translate(-194 -4523) translate(194 4523)"/>
                <path fill="#0C7489" d="M99 92.02c-1.056-.575-2.584-1.126-4.438-1.648l-.003-.001-.152-.042-.01-.003-.068-.02c-.003 0-.007 0-.01-.002-.018-.005-.04-.01-.057-.016l-.032-.008c-.014-.005-.031-.009-.049-.013l-.028-.008c-.014-.004-.032-.01-.05-.014l-.035-.01c-.01-.002-.025-.006-.035-.01-.014-.003-.032-.007-.046-.012l-.028-.007-.06-.016-.011-.003c-.025-.006-.05-.013-.07-.02l-.011-.001-.16-.042c-11.399-2.997-33.001-5.002-34.565-5.145l-.014-.001-.035-.004-.018-.001-.021-.002c-.533-.02-1.073-.03-1.617-.03-.01-.034-.025-.068-.039-.102l-.01-.026-.032-.082-.01-.022c-.012-.03-.022-.062-.036-.093 0-.004-.004-.008-.004-.011-.423-1.085-.844-2.281-1.246-3.584 1.776.161 32.645 3.021 39.964 7.062 0 0 1.521.156 3.036 3.938z" transform="translate(-194 -4523) translate(194 4523)"/>
                <path fill="#0C8F9B" d="M176.998 149.261c-.131 17.86-16.346 35.755-16.346 35.755-2.105.043-4.21-.196-6.295-.667l.003-.01-.438-.11-.574-.138v.005C131.091 178.216 111 146.164 111 146.164c.607-5.695 1.9-10.35 3.688-14.153 11.13-23.741 41.302-14.02 41.302-14.02 11.467 12.276 17.088 21.125 19.436 25.356 1.023 1.845 1.43 2.817 1.43 2.817l.014.162c.098.977.139 1.958.128 2.935z" transform="translate(-194 -4523) translate(194 4523)"/>
                <path fill="#0C7489" d="M160.864 185.02c-1.818-.003-3.64-.208-5.449-.585l-.15-.032c-.042-.008-.083-.017-.12-.026l-.13-.028.003-.01-.445-.11-.583-.138v.005c-22.594-5.88-42.99-37.933-42.99-37.933.616-5.695 1.928-10.35 3.744-14.153l.04-.085.021-.048c.01-.015.017-.03.024-.044l.02-.042c.494-1.019 1.028-1.971 1.59-2.868l-.017.016.072-.109c.102-.162.209-.32.311-.479.107-.162.213-.322.322-.48.106-.154.216-.305.322-.455.113-.155.226-.31.34-.46.109-.145.219-.288.328-.429.12-.15.24-.3.36-.446.11-.133.219-.266.329-.397.13-.15.26-.297.39-.443.106-.118.212-.24.319-.356.15-.16.3-.315.452-.47l.277-.286c.247-.243.493-.48.743-.708.041-.039.082-.074.124-.111.215-.194.431-.385.65-.57.09-.074.178-.144.264-.217.178-.143.353-.286.53-.424.097-.076.2-.15.299-.226.168-.128.339-.255.514-.379.099-.073.202-.144.304-.214.175-.121.35-.24.528-.356l.301-.197c.185-.116.367-.228.552-.34l.287-.173c.199-.116.401-.229.6-.339.085-.046.164-.092.25-.137.236-.127.472-.25.712-.369.041-.02.079-.042.12-.062l-.01.006c5.1-2.519 10.672-3.292 15.597-3.292 2.326 0 4.364.081 6.292.3 4.475.505 7.7 1.423 7.843 1.468l.866.237c11.642 12.276 16.41 21.089 18.793 25.32 1.038 1.845 1.453 2.817 1.453 2.817.003.052.01.11.013.162.093.886.134 1.774.131 2.66v.41c0 .01-.004.02-.004.032v.136l-.003.135v.026c0 .038-.004.076-.004.114v.028c-.003.046-.003.091-.003.137-.004.049-.004.093-.007.138v.024l-.01.275c-.004.008-.004.018-.004.025 0 .043-.003.086-.007.128v.01c-.003.047-.003.094-.006.142v.01l-.01.133v.015c-.008.094-.011.188-.018.282 0 .006-.003.013-.003.02l-.02.279v.02l-.011.122c0 .006-.004.014-.004.02l-.01.14c0 .003-.003.005-.003.007l-.01.131c0 .008-.004.015-.004.023-.007.092-.017.184-.027.276v.025c-.007.043-.01.086-.014.129-.003.002-.003.004-.003.007l-.014.139c0 .006-.004.014-.004.021-.003.04-.01.08-.013.12 0 .007 0 .016-.004.024-.003.045-.01.09-.013.135-.004.005-.004.012-.004.017-.003.04-.01.079-.014.118-.003.011-.003.021-.003.032-.007.042-.014.084-.017.126v.009l-.02.132c0 .012-.004.022-.004.034l-.014.107c-.003.01-.003.019-.003.03l-.02.128c0 .012-.004.024-.004.036-.007.032-.01.063-.014.095-.003.016-.007.03-.007.047l-.02.121c0 .014-.004.027-.007.041l-.01.085-.01.059c-.004.027-.011.055-.014.082-.004.016-.004.032-.007.048l-.02.115c0 .017-.004.037-.008.054-.003.025-.01.05-.013.075l-.01.057c-.004.037-.01.073-.018.11-.003.023-.007.044-.013.067l-.01.061-.011.069-.01.053c-.007.044-.017.086-.024.13-.004.015-.007.03-.007.045-.007.025-.01.05-.017.077 0 .014-.004.03-.007.045-.01.057-.02.114-.034.171-.007.036-.01.065-.017.094-.004.011-.004.02-.007.032-.017.092-.035.186-.055.278 0 .008-.004.016-.004.023l-.02.093c0 .004 0 .008-.003.012l-.062.297c0 .003 0 .005-.004.008-.873 4.045-2.39 7.972-4.147 11.557-.004.004-.004.008-.007.013-.041.081-.082.164-.12.246-.007.012-.014.023-.02.036l-.031.065c-.014.024-.024.048-.035.071-.013.023-.024.044-.034.066l-.04.079c-.004.011-.011.023-.018.034-.038.078-.079.155-.116.233-.004.006-.007.01-.007.017-2.596 5.102-5.628 9.458-7.885 12.404 4.778-6.858 10.858-17.691 10.94-28.52.01-.977-.031-1.958-.13-2.935l-.014-.162s-.415-.972-1.452-2.817c-2.387-4.232-8.09-13.08-19.732-25.357 0 0-6.199-1.966-14.052-1.966-6.552 0-14.255 1.37-20.461 6.395-1.25 1.593-2.387 3.41-3.374 5.485-1.815 3.803-3.127 8.459-3.743 14.153 0 0 20.399 32.053 42.99 37.934v-.005l.582.138.449.11-.007.009c1.822.405 3.655.625 5.494.656-.5.584-.805.916-.826.939-.082.003-.164.005-.246.005-.079.002-.158.002-.236.002H160.864z" transform="translate(-194 -4523) translate(194 4523)"/>
                <path fill="#244A6E" d="M144.954 54.42c-.438 6.827-1.684 11.99-4.684 14.278-1.595 1.228-3.692 1.64-6.425 1.07-7.71-1.613-10.985-25.91 1.448-26.721 2.205-.143 5.576.23 7.7 2.935 1.366 1.718 2.218 4.379 1.961 8.439z" transform="translate(-194 -4523) translate(194 4523)"/>
                <path fill="#1D302B" d="M136.447 70.02h-.02c-.674-.001-1.4-.09-2.173-.269l-.048-.012c-.007 0-.014-.002-.017-.004l-.03-.008-.022-.005-.03-.008c-.004-.002-.01-.004-.018-.005-.01-.004-.02-.006-.034-.01l-.014-.004-.048-.015-.007-.002-.041-.013-.014-.005-.034-.012c-.007-.001-.01-.003-.017-.005-.01-.004-.02-.008-.035-.012l-.013-.005-.042-.016-.003-.001c-.034-.013-.069-.026-.1-.04l-.007-.001-.044-.02-.004-.001c-1.962-.837-3.577-3.38-4.632-6.62 1.117 2.3 2.577 3.933 4.258 4.324.783.181 1.512.27 2.192.27 1.598 0 2.914-.492 3.993-1.414 2.894-2.444 4.09-7.961 4.516-15.255.134-2.361-.048-4.278-.457-5.831.642 1.116 1.123 2.54 1.35 4.346v.01c.004.016.004.031.007.047 0 .01.004.02.004.03.003.013.003.025.003.037.003.014.003.029.007.044l.003.028c0 .017.004.035.007.052v.023c.004.02.007.04.007.06 0 .005.003.01.003.016.07.672.107 1.396.107 2.175 0 .373-.01.76-.03 1.16v.003c0 .03 0 .06-.004.09v.013c0 .028-.004.057-.004.086 0 .004-.003.008-.003.013 0 .033-.004.066-.004.099-.422 7.293-1.622 12.81-4.512 15.254-.106.09-.213.175-.323.256-.983.732-2.15 1.131-3.532 1.156l-.103.002h-.038z" transform="translate(-194 -4523) translate(194 4523)"/>
                <path fill="#0C8F9B" d="M228 155.885c-.387.41-.777.81-1.163 1.206-2.171 2.216-4.382 4.234-6.597 6.08-18.919 15.782-38.295 18.85-38.295 18.85 3.446-11.438-.275-24.864-2.873-32.002-.946-2.59-1.736-4.355-1.987-4.892h-.007c-.047-.117-.078-.178-.078-.178 12.21-7.6 24.952-10.936 31.25-12.224.903-.182 1.676-.325 2.29-.436h.003c1.12-.193 1.74-.268 1.74-.268 2.306.71 4.277 1.723 5.952 2.94 1.734 1.252 3.151 2.713 4.328 4.28C228 146.5 228 155.884 228 155.884z" transform="translate(-194 -4523) translate(194 4523)"/>
                <path fill="#0C7489" d="M181.945 182.02c.997-3.335 1.394-6.839 1.394-10.308-.003-7.987-2.12-15.793-3.907-20.958l-.014-.043c-.003-.012-.007-.024-.013-.036l-.014-.042c-.003-.014-.01-.028-.013-.042-.01-.024-.017-.047-.024-.07-.007-.01-.01-.021-.014-.031-.003-.018-.01-.034-.017-.052l-.01-.03-.02-.057c-.004-.007-.004-.014-.007-.02-.02-.057-.04-.112-.058-.167-.003-.003-.003-.006-.003-.01-.01-.023-.02-.048-.027-.071-.004-.006-.004-.01-.007-.015-.017-.055-.037-.11-.058-.163 0-.004 0-.006-.003-.01-.007-.025-.017-.052-.027-.078v-.002l-.03-.084c-.947-2.614-1.737-4.394-1.988-4.936h-.007c-.047-.118-.078-.18-.078-.18.885-.554 1.77-1.084 2.656-1.594.329.799.715 1.79 1.14 2.958 2.597 7.203 6.318 20.75 2.872 32.29 0 0 19.376-3.095 38.295-19.02 1.987-1.671 3.971-3.493 5.928-5.465.109 1.164.109 1.866.109 1.866-.387.414-.777.818-1.163 1.217-2.171 2.236-4.382 4.272-6.597 6.134-18.919 15.925-38.295 19.02-38.295 19.02z" transform="translate(-194 -4523) translate(194 4523)"/>
                <path fill="#A12507" d="M101.738 138.077c-1.93 31.415-2.175 42.338-1.687 54.944-6.857-7.149-13.852-14.029-21.117-19.632v-.005c-4.53-3.491-9.161-6.488-13.93-8.747-2.632-31.054.741-65.295.741-65.295 10.383-8.321 30.93-8.321 30.93-8.321s3.764.39 5.162 15.886c-1.228 2.512-2.018 4.996-2.46 7.427-.744 4.047-.528 7.945.239 11.529.555 2.62 1.401 5.076 2.384 7.31-.07 1.574-.163 3.207-.262 4.904z" transform="translate(-194 -4523) translate(194 4523)"/>
                <path fill="#742216" d="M97.668 189.8c-.202-10.728.2-22.619 1.761-49.383.095-1.697.183-3.33.253-4.904-.934-2.234-1.742-4.69-2.27-7.31-.725-3.584-.933-7.48-.226-11.53.42-2.43 1.17-4.913 2.338-7.426-1.325-15.495-4.907-15.886-4.907-15.886s-16.276 0-26.617 6.335c.003-.05.01-.096.013-.136l.019-.218.066-.054c.006-.007.016-.014.022-.02.016-.012.028-.022.04-.034l.03-.024c.012-.01.025-.019.034-.028l.035-.027.031-.028.032-.025.035-.027c.022-.018.04-.035.063-.052l.028-.022.038-.032.025-.018c.013-.011.029-.022.041-.033l.025-.02.041-.032c.007-.004.01-.008.016-.013l.161-.124.01-.007c.019-.014.034-.027.053-.04l.01-.007.053-.043c5.245-3.949 12.717-5.849 18.697-6.763l.041-.006.032-.005c.87-.133 1.707-.244 2.502-.337 3.323-.393 5.885-.477 6.832-.495h.006l.032-.001h.031l.032-.001h.038l.025-.001h.06l.01-.001h.012l.022-.001h.132s4.247 1.71 5.575 17.206c-1.42 2.562-2.586 3.676-3.006 6.107-.3 1.707-.435 3.388-.435 5.03-.004 2.25.243 4.427.662 6.499.527 2.62 1.332 5.076 2.266 7.31-.066 1.574-.155 3.207-.25 4.904-1.318 22.58-1.807 34.573-1.807 44.213 0 3.773.075 7.185.205 10.73-.985-1.08-1.973-2.154-2.967-3.22z" transform="translate(-194 -4523) translate(194 4523)"/>
                <path fill="#244A6E" d="M261.92 151.57c-.859 1.272-2.231 2.236-4.137 2.888-1.91.652-3.152.605-4.187.208-1.962-.752-3.145-2.75-6.59-3.62-5.257-1.324-14.15 2.916-18.463 3.975 0 0 0-8.75-5.313-15.518-1.15-1.46-2.536-2.823-4.23-3.99.11-.137 2.214-2.84 6.596-5.166h.014c1.892-.997 4.21-1.929 6.974-2.553 1.565-.35 3.272-.605 5.125-.719 6.36-.392 11.426 1.352 15.3 4.042h.014c3.98 2.766 6.696 6.537 8.267 10.016 2.032 4.505 2.267 8.022.63 10.437z" transform="translate(-194 -4523) translate(194 4523)"/>
                <path fill="#0A2239" d="M228.074 156.676v-.007c0-.286-.083-9.503-5.335-16.658-1.155-1.569-2.546-3.032-4.247-4.284.05-.066.489-.673 1.351-1.546 1.105.983 2.064 2.057 2.896 3.188 5.335 7.27 5.335 16.665 5.335 16.665 3.754-.985 10.967-4.54 16.259-4.54.812 0 1.578.083 2.28.272 3.458.934 4.646 3.08 6.617 3.888.476.197 1.001.313 1.614.313.719 0 1.558-.16 2.59-.537 1.913-.7 3.291-1.735 4.153-3.1.526-.831.859-1.784 1.002-2.851.057.49.083.96.083 1.414v.093c-.003.026-.003.051-.003.077v.086c-.004.024-.004.048-.004.073v.015c-.003.022-.003.045-.003.067v.02c-.003.022-.003.043-.003.064l-.003.021c0 .02 0 .04-.004.06v.023l-.003.051c0 .009 0 .018-.003.026 0 .02-.004.038-.004.058 0 .008 0 .016-.003.025 0 .02-.003.039-.003.058 0 .009 0 .017-.004.026 0 .02-.003.039-.003.058-.003.009-.003.017-.003.025-.004.014-.004.028-.004.042-.003.013-.003.027-.006.04 0 .014-.004.027-.004.041l-.003.03c-.003.017-.003.034-.007.051l-.003.033c-.003.016-.003.033-.007.05 0 .01-.003.02-.003.031-.003.012-.003.024-.007.035 0 .016-.003.032-.006.048 0 .01-.004.02-.004.031-.003.015-.006.03-.006.046-.004.012-.004.024-.007.035 0 .011-.003.023-.007.034 0 .016-.003.032-.006.047-.004.012-.004.022-.007.034l-.003.033-.01.047c-.004.01-.004.019-.007.028l-.01.052-.003.027-.01.04c0 .014-.004.027-.007.04-.003.011-.007.023-.007.035-.003.008-.003.017-.006.025-.004.018-.007.036-.014.054l-.003.024c-.003.018-.01.036-.013.054-.004.008-.004.016-.007.024-.003.018-.006.035-.013.053 0 .008-.003.017-.007.025 0 .012-.003.023-.006.034l-.01.039-.01.039c-.004.009-.007.018-.007.027-.007.016-.01.033-.013.048l-.01.025c-.004.017-.007.033-.014.05l-.006.027-.01.032-.014.043-.01.033-.01.03c-.003.015-.01.029-.013.043l-.01.03c-.003.014-.01.028-.013.041l-.01.031-.014.032c-.003.014-.01.028-.013.042l-.01.028-.016.045-.01.027-.014.036c-.003.01-.01.022-.013.033-.003.012-.01.023-.013.035l-.01.03c-.007.013-.014.026-.017.04l-.01.025-.02.046-.01.024-.02.047-.01.02c-.003.014-.01.027-.017.04l-.01.024-.02.043-.01.02c-.006.017-.013.033-.023.05 0 .005-.003.011-.006.018-.01.016-.017.033-.024.05l-.01.017c-.006.016-.016.032-.023.048-.003.005-.003.009-.007.013-.006.015-.016.03-.023.046-.003.005-.007.011-.007.016-.01.017-.02.034-.026.05l-.01.016c-.007.017-.017.034-.027.05-.003.005-.003.01-.007.015l-.03.053-.003.007-.03.05c0 .004-.003.007-.003.01-.01.018-.023.036-.033.053 0 .004-.004.007-.007.011l-.03.052c-.003.004-.003.008-.007.012-.01.017-.02.035-.033.052 0 .003-.003.006-.003.008-.014.019-.024.037-.037.056-.862 1.366-2.24 2.402-4.154 3.102l-.093.034-.003.001c-.972.347-1.77.497-2.46.502h-.05c-.566-.002-1.055-.104-1.504-.275l-.093-.038c-1.97-.808-3.159-2.955-6.617-3.89-.699-.187-1.465-.27-2.27-.271h-.07l-.126.001c-2.81.043-6.134 1.053-9.187 2.133-2.1.743-4.07 1.52-5.658 2.04l-.056.017c-.203.067-.403.13-.596.188-.176.052-.346.1-.51.144l-.066.018z" transform="translate(-194 -4523) translate(194 4523) rotate(1 240.582 145.429)"/>
                <path fill="#0C8F9B" d="M311.96 134.02l-59.29-2.867h-.013c-3.537-2.495-8.057-4.196-13.642-4.196-.58 0-1.172.02-1.777.057-1.867.117-3.587.377-5.164.736-2.785.639-5.12 1.593-7.027 2.614h-.014l-8.033-.228 22.002-73.023L338 52.021l-26.04 82zm-86.378-10.113h81.379l19.883-62.473-82.794 4.375-18.468 58.098z" transform="translate(-194 -4523) translate(194 4523)"/>
                <path fill="#D5330D" d="M308.579 124.021L225 124.021 243.968 64.503 329 60.021z" transform="translate(-194 -4523) translate(194 4523)"/>
                <path fill="#0C7489" d="M343 53.465l-27.232 87.339L243 165.02l1.463-6.368 6.84-2.552c1.063.41 2.341.459 4.305-.215 1.96-.673 3.372-1.668 4.255-2.982l51.964-19.4 25.984-81.483L343 53.465z" transform="translate(-194 -4523) translate(194 4523)"/>
                <path fill="#0A6578" d="M244 165.021L244.432 163.104 315.227 139.069 341.829 52.021 343 52.352 316.041 140.562z" transform="translate(-194 -4523) translate(194 4523)"/>
                <path fill="#A12507" d="M98 91.425s-20.761 0-31.253 7.596l-.01-.005c-.117-.053-1.174-.521-2.982-1.186C57.5 95.526 42.275 90.862 26 92.889l.044-.019c1.144-.512 17.865-7.836 32.363-7.85.516 0 1.03.01 1.536.027 0 0 30.894 2.624 38.057 6.378z" transform="translate(-194 -4523) translate(194 4523)"/>
                <path fill="#8D2007" d="M57.21 85.63c-.48-.018-.965-.026-1.456-.026-.37 0-.745.008-1.118.018 1.75-.213 3.505-.348 5.232-.372h.016l.058-.002h.079l.058-.001H60.17l.236-.002c.49 0 .978.009 1.46.026 0 0 29.342 2.54 36.146 6.175H97.863l-.02.001h-.037l-.032.001h-.064l-.029.001h-.035l-.032.001c-.72.012-2.342.057-4.515.222C85.846 88.11 57.21 85.63 57.21 85.63z" transform="translate(-194 -4523) translate(194 4523) rotate(1 76.324 88.459)"/>
                <path fill="#A12F1F" d="M66.727 99.02l-.01-.005-.007-.004h-.003c-.15-.074-1.1-.53-2.707-1.181 8.559-5.242 21.338-6.506 27-6.81-.871.096-1.787.21-2.738.345l-.034.005-.045.007c-6.55.934-14.736 2.878-20.477 6.916l-.004.002-.059.043-.01.007-.059.041-.01.008-.176.127-.018.013-.045.032c-.01.007-.017.014-.027.02-.014.012-.031.023-.045.034l-.028.02-.041.031-.032.023-.069.053-.038.028c-.01.009-.024.017-.034.026-.01.01-.024.019-.035.028l-.038.027c-.01.01-.024.02-.038.03l-.031.024-.045.035-.024.02-.073.056z" transform="translate(-194 -4523) translate(194 4523)"/>
                <path fill="#D5330D" d="M67.234 165.02c-1.356-.629-2.726-1.2-4.106-1.707-5.256-1.938-10.424-3.36-15.395-4.24-8.535-1.515-16.504-1.432-23.426.383-2.19-14.187-4.614-40.751 1.974-66.882l.021-.005c16.655-2.233 32.236 2.907 38.635 5.446 1.851.733 2.933 1.25 3.053 1.308l.01.005s-3.488 34.45-.766 65.693z" transform="translate(-194 -4523) translate(194 4523)"/>
                <path fill="#244A6E" d="M43.134 366.632C37.325 362.912 34 358.6 34 354.003c0-12.437 24.314-22.792 56.43-24.982-4.896 16.263-10.255 23.91-10.255 23.91s11.276 8.319 24.003 8.336h.057c1.467-.003 2.947-.115 4.434-.361 1.524.226 3.092.358 4.68.358 7.465 0 15.42-2.858 21.891-11.934 0 0-5.123-7.119-8.573-19.261-2.565-.354-4.464-.517-7.16-.757 28.331 2.524 49.84 11.469 52.493 22.403-1.487-6.132-8.908-11.639-20.134-15.736 5.816 3.719 9.141 8.035 9.141 12.632 0 14.031-30.95 25.41-69.133 25.41-19.019 0-36.24-2.823-48.74-7.39z" transform="translate(-194 -4523) translate(194 4523)"/>
                <path fill="#0A2239" d="M110.46 362.02c-1.853 0-3.682-.135-5.46-.367 6.324-.925 12.71-3.704 18.317-9.594.095-.1.193-.204.288-.307l.008-.008.063-.067c.004-.008.008-.011.012-.015.023-.025.043-.046.063-.071.007-.004.011-.007.015-.014.067-.072.134-.147.201-.222.004-.003.008-.007.008-.01.02-.018.04-.043.06-.061.007-.011.015-.022.027-.032l.051-.058c.008-.01.02-.025.032-.035l.043-.05c.016-.018.032-.033.044-.05.027-.029.05-.058.078-.086l.036-.043c.016-.014.028-.032.043-.05.012-.014.024-.029.04-.043l.04-.046c.015-.018.027-.036.043-.05.011-.015.027-.032.039-.047l.043-.05c.024-.028.048-.053.071-.082.012-.018.028-.032.044-.05l.035-.043.047-.057c.012-.014.024-.025.036-.04l.047-.06c.012-.01.024-.025.032-.036l.04-.046s0-.004.003-.004c.008-.01.016-.021.024-.028l.035-.043.036-.043s0-.003.004-.003c.004-.011.012-.018.02-.025.007-.011.02-.025.03-.036.013-.018.029-.036.04-.05.004-.007.008-.014.016-.018.008-.014.016-.021.028-.036l.047-.06c.008-.008.012-.015.02-.022l.012-.014c.027-.036.055-.068.082-.104 0 0-5.405-7.586-9.473-20.723l.303.021c.028 0 .055.004.087.004l.28.021c.031.004.059.004.09.007.087.007.174.014.257.018.023.004.047.004.07.007l.288.022.052.003c.106.007.213.018.32.025.01 0 .019 0 .027.004 3.146.246 6.22.553 9.213.918 4.026 12.49 9.143 19.673 9.143 19.673-7.55 9.337-16.83 12.277-25.54 12.277z" transform="translate(-194 -4523) translate(194 4523)"/>
                <path fill="#0A2239" d="M101.028 379.02l-.172-.003h-.256c-.065 0-.132 0-.196-.003h-.253c-.068 0-.129-.004-.196-.004h-.243c-.068-.003-.142-.003-.21-.003h-.027c-.06-.004-.118-.004-.182-.004h-.03c-.068 0-.132-.003-.2-.003h-.033c-.057 0-.118-.004-.176-.004h-.037l-.192-.003h-.047c-.051-.004-.105-.004-.156-.004h-.047c-.064-.003-.128-.003-.189-.003-.017 0-.034-.003-.05-.003-.055 0-.109 0-.16-.004h-.043l-.196-.003H97.7c-.05-.004-.108-.004-.162-.004l-.047-.003c-.068 0-.129-.004-.196-.004h-.027c-.06-.003-.118-.003-.179-.007h-.037c-.064 0-.125-.003-.19-.003-.016 0-.036-.004-.053-.004-.047 0-.095 0-.142-.003h-.06c-.065-.003-.122-.003-.183-.007h-.054c-.047-.003-.095-.003-.138-.003-.024-.004-.044-.004-.068-.004-.06-.003-.121-.003-.182-.007h-.047c-.048 0-.095-.003-.139-.003-.027-.004-.047-.004-.074-.004-.058-.003-.115-.003-.172-.007h-.054c-.048-.003-.098-.003-.145-.006h-.061c-.061-.004-.122-.007-.182-.007-.014 0-.027 0-.041-.004l-.149-.003c-.023 0-.043-.004-.067-.004-.06 0-.118-.003-.179-.007h-.04c-.051-.003-.105-.003-.152-.007-.02 0-.044 0-.064-.003-.061 0-.122-.003-.183-.007h-.027c-.054-.003-.108-.003-.162-.007l-.06-.003c-.061-.004-.115-.004-.173-.007h-.044c-.054-.004-.104-.007-.158-.007-.02-.004-.04-.004-.061-.004l-.186-.01h-.003c-.06-.003-.118-.003-.179-.007-.024 0-.044-.003-.067-.003-.058-.004-.112-.007-.17-.007-.006 0-.013 0-.016-.004-.064 0-.128-.003-.192-.007-.017 0-.03-.003-.044-.003-.132-.007-.26-.014-.389-.017-.013-.004-.03-.004-.043-.004l-.18-.01h-.016l-.19-.01c-.016 0-.033 0-.053-.004-.048-.003-.095-.003-.142-.007-.017 0-.034-.003-.054-.003l-.169-.01c-.023 0-.047 0-.074-.004-.044 0-.091-.003-.135-.007-.017 0-.034-.003-.05-.003l-.173-.01c-.024 0-.047 0-.07-.004-.048-.004-.092-.004-.14-.007-.013 0-.026-.004-.043-.004l-.176-.01c-.023 0-.043-.003-.064-.003l-.152-.01h-.033c-.065-.008-.129-.011-.193-.015-.01 0-.02 0-.034-.003l-.168-.01h-.03c-.065-.004-.122-.007-.183-.014-.02 0-.037 0-.057-.004l-.149-.01h-.04c-.061-.007-.122-.01-.183-.014-.017 0-.033-.003-.05-.003l-.156-.01c-.01 0-.023 0-.033-.004l-.183-.01c-.02-.004-.04-.004-.06-.007-.048 0-.092-.004-.139-.007-.017-.004-.034-.004-.047-.004-.064-.007-.122-.01-.182-.014-.02-.003-.034-.003-.054-.003l-.129-.01c-.02 0-.047-.004-.067-.004-.054-.007-.111-.01-.169-.014l-.057-.003-.135-.01c-.02-.004-.04-.004-.061-.007l-.172-.01c-.017-.004-.034-.004-.05-.008l-.143-.01c-.016 0-.033 0-.05-.003l-.176-.014c-.02 0-.034-.004-.05-.004l-.146-.01c-.016-.003-.033-.003-.05-.007-.06-.003-.122-.007-.182-.014h-.024c-.054-.007-.108-.01-.162-.014l-.054-.006-.139-.01-.1-.011c-.038 0-.075-.004-.112-.007-.027-.004-.05-.007-.078-.007-.047-.003-.098-.01-.148-.014l-.061-.003c-.047-.007-.095-.01-.142-.014-.017 0-.037-.004-.054-.004-.05-.006-.101-.01-.152-.013-.023-.004-.047-.007-.074-.007l-.132-.014c-.023 0-.044-.004-.064-.004-.05-.006-.101-.01-.152-.013-.017-.004-.037-.004-.054-.007-.047-.004-.094-.007-.142-.014-.023 0-.047-.004-.07-.004-.044-.006-.081-.01-.125-.013-.03-.004-.061-.004-.088-.007-.047-.007-.091-.01-.138-.014-.02-.004-.041-.004-.061-.007-.047-.003-.095-.007-.142-.014l-.047-.003c-.054-.004-.112-.01-.162-.018-.02 0-.04-.003-.061-.003-.047-.007-.095-.01-.142-.014-.013-.003-.027-.003-.044-.007-.054-.003-.114-.01-.168-.013-.017-.004-.041-.007-.058-.007-.047-.007-.098-.01-.148-.014-.01-.004-.02-.004-.034-.004-.058-.007-.112-.013-.169-.017-.024-.003-.04-.007-.064-.007-.04-.003-.081-.01-.122-.014-.027-.003-.054-.007-.084-.007-.044-.006-.094-.01-.138-.017-.024 0-.051-.003-.078-.007l-.101-.01c-.024-.004-.05-.007-.071-.007-.05-.007-.108-.014-.159-.017-.023-.004-.047-.007-.07-.007-.038-.007-.078-.01-.112-.014-.024-.003-.047-.003-.074-.007-.051-.007-.105-.014-.156-.017-.023-.004-.047-.007-.07-.007-.038-.007-.068-.01-.105-.014-.024-.003-.05-.003-.074-.007-.051-.007-.098-.01-.149-.017l-.094-.01-.075-.01-.114-.011c-.044-.007-.085-.01-.129-.017-.027-.004-.057-.007-.088-.007l-.077-.01-.095-.011c-.047-.007-.094-.014-.141-.017l-.092-.01-.077-.011-.101-.01c-.044-.007-.092-.01-.135-.018l-.092-.01-.08-.01-.088-.01c-.048-.008-.098-.015-.146-.018l-.087-.01-.081-.01c-.03-.004-.064-.011-.098-.015-.047-.003-.091-.01-.139-.017l-.077-.01-.095-.01-.08-.01c-.051-.008-.102-.015-.15-.018l-.07-.01-.101-.014-.085-.01c-.04-.004-.084-.011-.125-.018l-.094-.01-.091-.014-.088-.01-.081-.01-.166-.022-.054-.01c-.037-.003-.077-.007-.114-.014-.007 0-.014-.003-.024-.003l-.192-.024-.075-.01c-.033-.008-.064-.011-.098-.015l-.067-.01c-.057-.007-.115-.014-.172-.024-.017 0-.034-.004-.05-.007-.038-.003-.075-.01-.112-.014-.017-.003-.034-.007-.048-.007-.06-.01-.121-.017-.182-.027-.02 0-.04-.004-.06-.007l-.102-.014-.057-.01c-.071-.007-.135-.018-.203-.028-.01 0-.017-.004-.023-.004-.04-.006-.081-.01-.118-.017l-.03-.003-.207-.031c-.017-.004-.03-.004-.047-.007l-.101-.014-.064-.01c-.058-.007-.119-.018-.176-.025-.017-.003-.034-.006-.047-.01-.037-.003-.074-.01-.112-.014-.017-.003-.027-.003-.04-.007-.118-.017-.236-.034-.355-.055l-.03-.003c-.125-.018-.243-.038-.368-.056l-.013-.003c-.122-.02-.247-.038-.368-.059-.01 0-.02-.003-.027-.003-.122-.021-.243-.038-.365-.059-.01 0-.013 0-.02-.003-.122-.018-.24-.038-.358-.056-.013-.003-.027-.007-.037-.007-.122-.02-.24-.041-.361-.058-.004-.004-.01-.004-.014-.004-.125-.02-.246-.041-.368-.062-.006 0-.013-.003-.017-.003l-.37-.063c-.004 0-.008 0-.011-.003l-.371-.062c-.004 0-.007 0-.01-.004-.503-.086-1-.176-1.496-.269-.007 0-.017 0-.023-.003-10.87-2.017-20.082-5.053-26.701-8.766 0-.003-.003-.003-.007-.003-.074-.041-.145-.083-.22-.128-.003 0-.006 0-.006-.003-.074-.042-.145-.08-.216-.121-.003-.004-.01-.007-.017-.01-.067-.042-.135-.08-.202-.121l-.024-.01c-.064-.039-.132-.077-.196-.118-.01-.004-.02-.01-.027-.014l-.192-.114c-.01-.007-.017-.014-.027-.017-.02-.014-.04-.024-.058-.035l-.054-.034-.07-.042-.041-.024-.05-.031c-.024-.017-.051-.031-.075-.045-.017-.01-.03-.02-.047-.027-.017-.01-.03-.021-.047-.032-.014-.006-.027-.017-.044-.027-.024-.017-.05-.031-.078-.049-.013-.006-.024-.017-.037-.024l-.054-.03-.04-.028c-.028-.018-.055-.035-.082-.049l-.033-.024c-.017-.01-.037-.024-.058-.034-.01-.007-.023-.018-.037-.025 0 0-.007-.003-.01-.007 12.486 4.542 29.688 7.35 48.686 7.35 38.14 0 69.057-11.318 69.057-25.274 0-4.572-3.444-8.668-9.253-12.366 11.213 4.075 18.748 9.355 20.233 15.454.01.028.014.055.02.08.02.082.038.162.054.241.007.028.01.052.017.076v.014c.007.02.01.045.014.066.003.003.003.01.003.013l.014.066v.01c.006.024.01.049.013.073 0 .003 0 .007.004.007.006.055.016.107.023.159.007.03.01.055.014.076 0 .006 0 .01.003.017 0 .02.003.041.007.059 0 .01.003.017.003.024.004.017.004.038.007.055 0 .007.003.014.003.02.004.021.007.042.007.063 0 .007.003.01.003.017.007.052.01.104.017.156v.01c.004.02.007.045.007.066.003.006.003.013.003.02.004.021.004.038.004.059.003.007.003.014.003.024.004.017.004.035.004.052.003.01.003.017.003.028 0 .017.003.03.003.048 0 .01.004.02.004.028 0 .02.003.041.003.058v.018c.003.027.003.051.003.079.004.003.004.007.004.014 0 .02 0 .041.003.062v.076c.004.01.004.02.004.031v.076c.003.017.003.035.003.048v.187c0 13.956-30.917 25.27-69.057 25.27h-.915z" transform="translate(-194 -4523) translate(194 4523)"/>
                <path fill="#0C8F9B" d="M113 317.009c.293-.12.586-.24.878-.384-.292.144-.585.264-.878.384zm1.907-.132c.122-.048.22-.096.317-.12-.122.024-.195.072-.317.12zm-.024.024c.122-.072.244-.12.365-.168-.121.048-.243.096-.365.168zm-.293.12c.317-.12.634-.264.951-.408-.317.144-.634.288-.951.408zm-.744-2.204c1.518-.676 3.072-1.44 4.632-2.258-.267-9.55.702-20.3 3.788-31.96 8.448-1.294 16.983-3.288 25.404-5.906l.33-8.672-1.036 27.245s-18.046 14.855-33.118 21.55z" transform="translate(-194 -4523) translate(194 4523)"/>
                <path fill="#0C7489" d="M113.685 315.02c-.26-2.224-.45-4.533-.566-6.93-.078-1.611-.119-3.257-.119-4.943-.003-8.572 1.043-18.068 3.758-28.282 10.408-1.585 20.956-4.236 31.242-7.844l-.324 8.467c-8.255 2.556-16.622 4.502-24.905 5.765-3.025 11.386-3.976 21.88-3.713 31.205-1.53.799-3.053 1.543-4.542 2.204-.007 0-.01.003-.014.003-.044.02-.088.04-.132.058l-.065.03c-.017.007-.034.014-.051.024-.045.017-.089.037-.133.054v.003l-.164.071-.044.017-.106.044c-.04.02-.081.038-.122.055z" transform="translate(-194 -4523) translate(194 4523)"/>
                <path fill="#416581" d="M125 351.3c-17.16 24.12-45 3.536-45 3.536s5.25-7.508 10.048-23.48c1.791-5.953 3.52-13.08 4.89-21.433 2.712-16.541.239-27.016-2.635-33.164 4.867.113 9.85-.06 14.902-.514 3.234-.294 6.499-.7 9.776-1.224-3.155 12.305-3.992 23.575-3.536 33.463.113 2.414.298 4.74.55 6.98.387 3.508.924 6.799 1.56 9.85.456 2.193.956 4.262 1.49 6.203C120.46 344.057 125 351.3 125 351.3z" transform="translate(-194 -4523) translate(194 4523)"/>
                <path fill="#35536B" d="M119.501 356.02c.551-.663 1.09-1.367 1.62-2.115 0 0-4.442-7.12-7.786-19.453-.521-1.904-1.01-3.939-1.458-6.094-.622-3-1.147-6.235-1.53-9.685-.242-2.202-.427-4.488-.534-6.862-.447-9.721.373-20.8 3.46-32.899-3.207.517-6.402.916-9.567 1.2-3.095.282-6.16.44-9.19.503-.447-1.38-.936-2.618-1.435-3.714-.003-.003-.006-.01-.01-.013-.003-.014-.01-.027-.016-.04-.003-.01-.01-.017-.013-.027-.003-.01-.01-.02-.013-.03l-.029-.06c.272.003.544.01.82.013l.583.01c.476.006.956.006 1.435.006h.046c3.178 0 6.4-.124 9.655-.368.104-.007.208-.017.308-.024.16-.013.318-.023.477-.037.418-.033.839-.07 1.26-.107 3.166-.288 6.36-.687 9.568-1.203-2.582 10.113-3.577 19.516-3.574 28.004 0 1.67.04 3.299.114 4.894.11 2.374.291 4.66.538 6.862.379 3.45.904 6.685 1.526 9.685.447 2.155.936 4.19 1.458 6.098 3.344 12.33 7.786 19.45 7.786 19.45l-.078.11c-.003.003-.003.007-.006.01-.007.01-.013.02-.02.027l-.052.07c0 .004 0 .004-.003.004-.006.013-.016.026-.026.036l-.052.074-.019.027c-.023.03-.042.06-.065.087-.003.007-.006.01-.013.017-1.636 2.236-3.37 4.063-5.165 5.545z" transform="translate(-194 -4523) translate(194 4523)"/>
                <path fill="#0FA3B1" d="M93.361 278.02c-15.144-.356-29.172-3.386-40.621-9.428C19.016 250.794.007 224.344 0 196.359c0-2.63.167-5.275.503-7.927 2.148-16.827 11.38-26.512 24.373-29.962 3.668-.973 7.631-1.45 11.82-1.45 3.636 0 7.444.36 11.373 1.066 4.868.872 9.92 2.274 15.062 4.18-1.546-.572-3.083-1.095-4.612-1.576 3.895 2.062 7.706 4.568 11.448 7.407v.005c7.438 5.648 14.6 12.583 21.62 19.789 1.625 1.67 3.25 3.361 4.868 5.052h.003c3.947 4.13 7.86 8.27 11.755 12.232 2.842 2.889 5.673 5.683 8.508 8.315 1.713 1.587 3.423 3.115 5.136 4.564 4.464 3.78 8.944 7.049 13.482 9.528 6.068 3.315 11.802 5.744 17.058 7.523 9.834 4.711 18.61 7.133 25.603 8.346-5.306 3.695-10.915 7.085-16.731 10.138l-.007.007-.003.003c-7.41 3.9-15.154 7.266-23.061 10.054-10.26 3.624-20.783 6.28-31.168 7.873-3.365.52-6.717.924-10.038 1.216-4.158.364-8.267.547-12.306.547-1.002 0-2.002-.013-2.994-.034-10.134-.238-19.76-1.681-28.452-4.415 11.357 5.872 25.195 8.83 40.121 9.18z" transform="translate(-194 -4523) translate(194 4523)"/>
                <path fill="#244A6E" d="M152 235.02c-5.318-1.793-11.121-4.24-17.261-7.582-4.593-2.499-9.127-5.793-13.643-9.602-1.734-1.461-3.464-3-5.198-4.6-2.869-2.653-5.734-5.47-8.61-8.38-3.942-3.994-7.901-8.167-11.895-12.33h-.004c-1.637-1.703-3.281-3.407-4.926-5.091-7.103-7.262-14.35-14.252-21.877-19.944v-.005c-3.788-2.861-7.644-5.388-11.586-7.465 1.548.485 3.103 1.011 4.668 1.588.058.023.12.046.182.068 1.383.512 2.756 1.089 4.114 1.725 4.94 2.294 9.739 5.34 14.43 8.886v.005c7.527 5.693 14.775 12.682 21.879 19.944 1.647 1.684 3.288 3.387 4.926 5.091h.003c3.994 4.162 7.953 8.335 11.895 12.329 2.876 2.911 5.741 5.728 8.61 8.38 1.734 1.6 3.464 3.14 5.198 4.6 4.517 3.812 9.05 7.105 13.643 9.6.051.031.106.062.161.09.007.003.014.006.021.013 1.789.965 3.543 1.859 5.27 2.68zM94.2 278.02h-.01c-.504 0-1.008 0-1.51-.007l-.612-.01c-.29-.004-.576-.012-.862-.015-14.958-.374-28.825-3.538-40.206-9.818 8.71 2.924 18.357 4.468 28.512 4.722.994.022 1.996.036 3 .036 4.048 0 8.166-.196 12.332-.584 3.328-.313 6.687-.745 10.06-1.3 10.406-1.704 20.952-4.544 31.233-8.42 7.923-2.982 15.683-6.581 23.109-10.75l.003-.004.007-.008c5.828-3.265 11.449-6.89 16.766-10.841 5.24.966 9.477 1.209 12.41 1.209 1.11 0 2.034-.033 2.752-.076.283-.018.535-.037.753-.055h.027c.597-.047.944-.094 1.026-.105h.01c-6.83 5.586-14.25 10.595-22.05 14.964l-.003.004-.007.007c-7.423 4.166-15.186 7.769-23.106 10.75-10.284 3.873-20.83 6.717-31.237 8.416-3.372.56-6.73.992-10.059 1.304-.443.04-.885.08-1.325.117-.167.014-.334.025-.5.04-.106.007-.215.018-.324.025-3.424.265-6.81.4-10.151.4H94.2z" transform="translate(-194 -4523) translate(194 4523)"/>
                <path fill="#2BC8D7" d="M63.912 75.02c-6.402-5.601 1.068-69 56.679-69 3.895 0 8.027.312 12.409.976 0 0-54.032 1.55-49.4 48.251 0 0-8.566 14.666-19.688 19.774zM170.904 163.02S149.531 153.82 136 121.774c0 0 3.01-1.752 8.932-1.752 2.307 0 5.05.265 8.236 1.004 0 0 16.4 18.688 19.48 29.103 0 0 1.515 5.903-1.744 12.893zM184.698 151.02s-.706-3.879-2.698-5.788c0 0 19.014-8.622 30.546-9.211 0 0 3.428.236 5.454 4.606 0 0-12.57 7.322-33.302 10.394zM141 214.02s26.874-11 46.805-11c5.367 0 10.23.797 13.933 2.822 0 0 1.049 3.786-1.052 7.497 0 0-8.506-3.509-25.268-3.509-9.07 0-20.552 1.027-34.418 4.19zM195 305.02s11.619-47.997 2.126-54.36c0 0 11.088-3.963 15.874-12.64 0 0-1.215 30.402-6.987 53.04 0 0-4.632 9.004-11.013 13.96z" transform="translate(-194 -4523) translate(194 4523)"/>
                <path fill="#507B9E" d="M97.884 356.02c-3.045 0-6.917-.757-10.884-3.547 0 0 19.5-43.268 8.828-71.452 0 0 1.498.661 3.918.661 1.21 0 2.652-.164 4.254-.661 0 0-4.64 49.136 0 73.906 0 0-2.465 1.094-6.116 1.094z" transform="translate(-194 -4523) translate(194 4523)"/>
            </g>
        </g>
    </g>
</svg>
