<svg xmlns="http://www.w3.org/2000/svg" width="307" height="279" viewBox="0 0 307 279">
    <g fill="none" fill-rule="evenodd">
        <g>
            <g>
                <path fill="#C7D6DD" fill-rule="nonzero" d="M101.494 87.07s-5.275 16.955-21.44 30.644C63.881 131.406 55.832 134.186 50.51 135c-5.228.8-12.213 1.36-12.45 1.378h-.005c-11.035-3.877-19.907-11.772-25.246-21.624-4.2-7.75-10.793-20.21-10.287-34.608 0 0 9.317-14.21 25.143-21.184 15.83-6.978 49.142-13.817 59.874-8.934 10.74 4.88 13.955 37.043 13.955 37.043z" transform="translate(-265 -3746) rotate(42 -4597.517 2435.671)"/>
                <path fill="#0A2239" fill-rule="nonzero" d="M26.821 131.654c-6.41-4.314-11.64-10.12-15.276-16.806C7.375 107.181.913 95.018.933 80.916c0-.502.009-1.01.026-1.518 1.135-1.625 6.15-8.464 14.264-14.61 12.937-4.822 32.733-9.134 46.208-9.134 4.645 0 8.538.514 11.14 1.693 11.053 5.004 14.362 37.978 14.362 37.978s-5.429 17.382-22.064 31.42c-1.576 1.327-3.072 2.552-4.5 3.684l-.085-.094c-2.886-3.148-6.75-3.914-9.83-3.914-2.077 0-3.794.349-4.615.547-.197.046-.374.094-.514.14-.38-.367-1.001-.514-1.757-.514-2.808 0-7.448 2.036-8.231 2.388-.04.017-.078.034-.112.051-.003 0-.003.003-.003.003-.755-.247-1.493-.36-2.208-.36-2.325 0-4.433 1.197-6.193 2.978zm.887-64.032c-10.59 0-17.893 9.034-18.157 19.497-.294 11.628 13.837 29.831 13.837 29.831 1.223 1.86 1.934 2.672 2.292 2.672 1.876 0-6.12-22.555-1.114-32.978 5.96-12.402 19.327-16.337 6.795-18.677-1.255-.234-2.472-.345-3.653-.345z" transform="translate(-265 -3746) rotate(42 -4597.517 2435.671)"/>
                <path fill="#A12507" fill-rule="nonzero" d="M126.494 29.526s33.161 30.446 37.085 58.613c3.924 28.167-68.868-41.399-69.847-55.552 0 0 25.55-12.99 32.762-3.061z" transform="translate(-265 -3746) rotate(42 -4597.517 2435.671)"/>
                <path fill="#244A6E" fill-rule="nonzero" d="M53.993 203.146s-.746 4.138-4.596 9.647c-.09.132-.187.27-.276.406-1.141 1.69-2.309 3.768-3.385 5.847v.005c-.746 1.44-1.446 2.885-2.063 4.189-1.422 3.027-2.386 5.36-2.386 5.36.324 4.61 3.195 12.928 4.948 17.102.075.169.14.332.207.493 1.586 3.827 2.014 5.59.295 6.621-1.795 1.076-5.18-.673-8.735-7.787-3.555-7.115-8.346-19.052-4.714-33.464 3.632-14.415 12.222-18.457 12.222-18.457l8.483 10.038zM56.202 228.159s-6.382 3.139-1.368 12l16.078-4.5-14.71-7.5z" transform="translate(-265 -3746) rotate(42 -4597.517 2435.671)"/>
                <path fill="#0A2239" fill-rule="nonzero" d="M53.924 240.28s-3.965 5.118 1.19 8.828c5.157 3.71 15.354-13.476 15.354-13.476s-15.09.6-16.544 4.649z" transform="translate(-265 -3746) rotate(42 -4597.517 2435.671)"/>
                <path fill="#D5330D" fill-rule="nonzero" d="M152.46.743s68.011 73.073 92.329 170.182c0 0-1.92 13.731-25.78 26.83-23.86 13.098-52.17-108.23-52.17-108.23s-30.41-46.784-40.05-59.363c0 0-.078-15.743 25.67-29.419z" transform="translate(-265 -3746) rotate(42 -4597.517 2435.671)"/>
                <path fill="#0C8F9B" fill-rule="nonzero" d="M217.787 186.46s-1.456-15.872-16.14-41.686c-14.682-25.816-33.089-65.721-60.243-76.738-27.155-11.016-46.617-3.59-46.617-3.59L129.125 196l88.662-9.54z" transform="translate(-265 -3746) rotate(42 -4597.517 2435.671)"/>
                <path fill="#0A6A7D" fill-rule="nonzero" d="M219.024 186.795c-.486-.858-3.066-2.832-15.109-3.27h-.003c-.92-2.73-1.35-6.43-1.888-10.522l12.007-4.208c2.6 7.312 4.097 13.319 4.993 18zm-20.06-27.275c-.61-1.704-1.346-3.37-2.246-4.965-7.378-13.042-16.48-27.366-27.152-39.814-.114-.258-.184-.395-.184-.395l-.086.078-.79-.908c-.033-.117-.066-.238-.1-.355l-.002-.006c-.006-.022-.012-.042-.02-.064 0-.003 0-.006-.003-.009-.005-.022-.01-.045-.02-.064v-.006c-.013-.048-.027-.092-.044-.14 0-.003 0-.008-.003-.011-.005-.02-.01-.04-.016-.056-.003-.006-.006-.011-.006-.017-.005-.02-.011-.036-.017-.056-.002-.003-.005-.008-.005-.014-.009-.022-.014-.045-.022-.067v-.003l-.023-.065-.008-.022c-.006-.017-.008-.03-.014-.045l-.008-.025c-.006-.014-.012-.03-.014-.045-.003-.008-.009-.017-.011-.025-.006-.017-.012-.036-.017-.056-.006-.009-.009-.017-.011-.025l-.017-.05c-.003-.01-.006-.02-.011-.029-.003-.014-.009-.028-.014-.039l-.009-.03-.013-.037c-.006-.011-.009-.023-.012-.031l-.014-.04c-.008-.019-.013-.036-.022-.055l-.011-.034c-.006-.014-.008-.025-.014-.04l-.011-.03c-.006-.011-.008-.022-.014-.036l-.011-.031c-.006-.011-.011-.025-.014-.037-.006-.008-.008-.02-.011-.028-.011-.025-.02-.053-.03-.078l-.01-.02-.016-.045c-.003-.005-.006-.014-.008-.022l-.017-.045c-.006-.005-.008-.014-.011-.022l-.017-.045-.008-.017c-.011-.034-.025-.064-.04-.098l-.002-.011c-.008-.014-.014-.031-.02-.045-.002-.008-.005-.014-.008-.02-.006-.016-.014-.03-.02-.047l-.008-.023c-.005-.014-.014-.03-.02-.044l-.005-.014c-.022-.054-.045-.107-.07-.16l-.008-.02c-.006-.017-.014-.033-.02-.047l-.008-.017c-.005-.02-.014-.037-.022-.053 0-.003-.003-.003-.003-.006-.025-.059-.05-.118-.078-.177 0-.002-.003-.005-.003-.008l-.025-.053-.005-.014c-.037-.079-.073-.16-.112-.238 0-.003 0-.006-.003-.006-.008-.02-.016-.04-.025-.056l-.005-.014-.028-.056v-.003c-.03-.062-.062-.123-.092-.188-.009-.02-.02-.039-.028-.058-.003-.003-.003-.006-.006-.012-.041-.08-.08-.165-.125-.249-.008-.02-.02-.04-.03-.062 0 0-.003-.002-.003-.005-.053-.104-.11-.21-.165-.314l-.003-.011-.033-.06v-.002c-.034-.062-.067-.126-.103-.188 0-.002 0-.005-.003-.008-.011-.017-.02-.036-.03-.056-.004-.003-.006-.008-.01-.014-.007-.02-.019-.037-.03-.056 0-.003-.003-.006-.005-.011-.034-.062-.067-.124-.103-.185 0-.003 0-.003-.003-.006l-.03-.056c-.004-.006-.006-.011-.012-.017l-.03-.056-.006-.008c-.034-.062-.07-.123-.106-.185-.003-.003-.003-.006-.006-.011-.01-.017-.022-.037-.03-.054-.006-.005-.009-.01-.012-.016-.01-.02-.022-.037-.03-.054-.006-.008-.009-.014-.011-.02-.037-.058-.07-.114-.103-.173-.006-.006-.009-.011-.012-.017-.008-.017-.02-.033-.03-.05l-.014-.025-.03-.048-.015-.028c-.011-.014-.02-.03-.03-.048-.003-.008-.009-.014-.014-.022-.017-.03-.037-.059-.053-.09-.009-.01-.014-.02-.02-.03-.008-.015-.017-.029-.028-.043-.005-.01-.01-.022-.02-.033l-.024-.042c-.009-.011-.017-.023-.023-.034-.008-.014-.016-.028-.028-.045-.005-.008-.01-.02-.019-.028-.014-.025-.03-.05-.047-.075l-.025-.042c-.009-.012-.014-.023-.023-.037l-.028-.042c-.008-.011-.014-.022-.022-.036-.011-.014-.02-.028-.028-.042-.008-.011-.014-.023-.022-.037l-.034-.053c-.01-.014-.022-.03-.03-.045l-.036-.053-.02-.034c-.011-.014-.02-.03-.03-.044l-.023-.034-.033-.05-.017-.029c-.02-.025-.036-.053-.053-.078l-.092-.137c-.025-.034-.047-.068-.07-.101-.19-.278-.384-.546-.585-.81 3.272-5.256 1.338-12.185-3.049-17.2.006-.079.008-.157.008-.236v-.053c-.005-6.203-4.119-10.569-9.4-12.732-2.804-3.933-6.829-5.413-11.302-5.418h-.061c-5.435.01-11.525 2.193-16.885 4.794.407-2.976.728-7.484.04-12.407h.005c13.05 2.163 21.951 6.685 21.951 6.685 5.669 2.841 10.948 6.932 15.884 11.855 6.156 6.77 10.752 12.28 15.724 19.59 9.94 14.777 18.29 31.474 25.697 44.575l.276.485c1.625 3.02 3.094 5.917 4.423 8.688-.908.653-3.904 2.696-8.91 5.122z" transform="translate(-265 -3746) rotate(42 -4597.517 2435.671)"/>
                <path fill="#244A6E" fill-rule="nonzero" d="M208.615 153.621s-22.292 17.092-64.425 16.493l9.354 19.507 61.646-20.93-6.575-15.07z" transform="translate(-265 -3746) rotate(42 -4597.517 2435.671)"/>
                <path fill="#0C8F9B" fill-rule="nonzero" d="M120.281 230.223s26.605 7.201 54.61 4.029c28.004-3.175 50.641-16.364 43.487-47.598 0 0-.788-3.676-22.004-3.457-8.42.083-15.356-1.742-22.626-3.568-11.044-2.776-22.854-5.553-41.784-1.612-31.388 6.53-52.114 12.514-48.93 22.46 3.187 9.944 37.247 29.746 37.247 29.746z" transform="translate(-265 -3746) rotate(42 -4597.517 2435.671)"/>
                <path fill="#244A6E" fill-rule="nonzero" d="M84.287 304.396s-8.548-7.812-24.34 4.624c-15.79 12.438-7.761 26.823 1.026 31.016 8.79 4.193 27.153 2.783 47.617-16.38 20.464-19.166-24.303-19.26-24.303-19.26z" transform="translate(-265 -3746) rotate(42 -4597.517 2435.671)"/>
                <path fill="#0A2239" fill-rule="nonzero" d="M89.632 192.907s12.52 6.465 19.879 22.098c7.36 15.633-39.212-20.756-39.212-20.756l19.333-1.342z" transform="translate(-265 -3746) rotate(42 -4597.517 2435.671)"/>
                <path fill="#244A6E" fill-rule="nonzero" d="M49.37 217.194s-3.43-9.483 3.536-10.327c0 0 10.861-13.035 24.155-9.876 13.295 3.162 27.641 16.004 34.915 22.107 7.273 6.102-59.928 6.207-62.605-1.904z" transform="translate(-265 -3746) rotate(42 -4597.517 2435.671)"/>
                <path fill="#0A2239" fill-rule="nonzero" d="M54.121 226.555s-5.966-1.338-3.925-8.39c0 0 17.961-29.615 62.575 1.925l-58.65 6.465z" transform="translate(-265 -3746) rotate(42 -4597.517 2435.671)"/>
                <path fill="#497A91" fill-rule="nonzero" d="M218.543 186.828c-.363-.554-2.535-2.584-15-3 11.95.398 14.51 2.185 14.992 2.962l.008.038z" transform="translate(-265 -3746) rotate(42 -4597.517 2435.671)"/>
                <path fill="#0F1715" fill-rule="nonzero" d="M178.031 180.814c-1.464-.364-2.926-.745-4.404-1.123-6.498-1.675-13.264-3.346-21.596-3.609.003-.09.009-.18.011-.268 8.355.695 17.095 2.248 25.99 5z" transform="translate(-265 -3746) rotate(42 -4597.517 2435.671)"/>
                <path fill="#0A6A7D" fill-rule="nonzero" d="M160.303 236.255c-14.31 0-26.931-2.087-34.074-3.567-4.615-5.724-9.128-10.37-13.047-12.744-1.261-1.073-2.733-2.347-4.373-3.736-5.133-11.091-12.744-17.71-17.002-20.769 1.752-.077 3.571-.12 5.455-.12 1.727 0 3.502.035 5.338.109 1.505.501 2.935.747 4.202.747 2.17 0 3.86-.721 4.628-2.118 0 0 .466.083 1.14.083.823 0 1.952-.123 2.947-.673h-.003c.763-.418 1.444-1.082 1.842-2.136.082.003.166.003.247.003 6.105 0 8.326-8.778 8.326-8.778.992-.908 2.282-1.941 3.897-3.387 3.798.555 9.396 1.26 13.284 1.26 2.89 0 4.836-.39 4.402-1.52-.026-.067-.05-.132-.082-.204 2.551-.095 4.573-.424 4.662-1.228.096-.822.157-1.57.19-2.222 8.47.266 15.346 1.961 21.95 3.659 1.503.384 2.99.77 4.478 1.14-.065-.01-7.729-.857-14.311-.857-3.958 0-7.524.307-8.814 1.289-3.288 2.508-2.56 4.498-12.713 4.498-.457 0-.939-.006-1.444-.015-6.826-.111-8.889-.18-9.424-.217-.068.492-.99 6.152-7.861 9.285 0 0-.74 2.823-5.4 2.823-.15 0-.307-.003-.464-.01 0 0-1.915 1.81-4.763 1.81-.564 0-1.161-.071-1.789-.24 0 0-.832 1.795-3.549 1.795-.714 0-1.564-.126-2.56-.44 0 0 7.553 4.451 11.262 15.176 0 0 6.618 13.926 26.626 16.076 3.922-.086 7.947-.33 12.004-.799 27.9-3.23 54.507-16.368 48.368-47.55 12.887.465 15.132 2.732 15.508 3.35.914 4.725 1.21 8.106 1.399 10.13.801 25.203-20.145 36.338-45.397 39.261-5.125.595-10.204.836-15.085.836zm-21.897-4.057c.562.06 1.124.09 1.691.09.765 0 1.533-.06 2.31-.21-.554.09-1.428.15-2.516.15-.459 0-.958 0-1.485-.03z" transform="translate(-265 -3746) rotate(42 -4597.517 2435.671)"/>
                <path fill="#0B1210" fill-rule="nonzero" d="M109.31 216.145c-1.54-1.277-3.222-2.652-5.014-4.062-5.75-5.833-11.573-12.002-15.986-16.741 1.11-.078 2.244-.145 3.413-.197 4.405 3.092 12.278 9.785 17.587 21z" transform="translate(-265 -3746) rotate(42 -4597.517 2435.671)"/>
                <path fill="#C7D6DD" fill-rule="nonzero" d="M53.814 185.36s-18.109-11.53-19.353-22.018c0 0 21.745 4.77 26.885-10.981 0 0 13.869 3.772 21.143 13.377 7.275 9.605-28.675 19.623-28.675 19.623z" transform="translate(-265 -3746) rotate(42 -4597.517 2435.671)"/>
                <path fill="#000" d="M52.338 185.3c-3.615-2.542-12.195-9.059-15.98-16 3.818 6.952 12.425 13.47 16 15.981l-.02.02z" transform="translate(-265 -3746) rotate(42 -4597.517 2435.671)"/>
                <path fill="#0C7489" fill-rule="nonzero" d="M52.223 186.957c-3.912-3.044-13.33-10.942-17.509-19.367-.717-1.45-1.275-2.918-1.62-4.382.636 1.61 2.38 3.62 7.098 3.62 1.459 0 3.203-.19 5.286-.648 5.24-1.145 15.452-3.479 22.29-9.03.162-.132.447-.193.828-.193 3.167 0 13.048 4.148 15.48 5.37.005.008.011.014.017.021-8.824 4.583-21.638 12.61-31.87 24.609zm30.998-25.52c-.886-.771-2.222-1.837-4-3 1.385.888 2.742 1.883 4 3zm-30.724 3.181c.22-.187.44-.382.661-.583.85-.736 1.626-1.546 2.34-2.417-.894 1.105-1.89 2.116-3 3z" transform="translate(-265 -3746) rotate(42 -4597.517 2435.671) rotate(3 58.593 171.957)"/>
                <path fill="#C7D6DD" fill-rule="nonzero" d="M91.211 160.372s-29.994 9.763-45.21 32.478c0 0-2.824 12.016 7.976 14.522 0 0 14.15-13.547 50.691-11.593l-13.457-35.407z" transform="translate(-265 -3746) rotate(42 -4597.517 2435.671)"/>
                <path fill="#A12507" fill-rule="nonzero" d="M111.404 12.869s23.784-9.67 40.982-12.112c0 0-20.25 15.966-25.635 29.436 0 0-24.294.485-32.529 3.113 0 0 5.763-13.496 17.182-20.437z" transform="translate(-265 -3746) rotate(42 -4597.517 2435.671)"/>
                <path fill="#0C7489" fill-rule="nonzero" d="M149.422 169.652c-1.602-2.32-3.69-5.251-5.1-7.227 2.354-3.143 4.922-6.806 7.72-11.096 6.693-10.26 9.626-17.072 9.687-22.26 3.441-2.934 8.097-7.18 6.863-13.975.236-.209.408-.357.503-.442.092.104.187.206.28.31.914 1.96 4.571 10.936-1.89 17.034 0 0-2.39 21.081-10.734 28.637 0 0 3.71 2.713 14.351 2.713 6.539 0 15.694-1.025 28.22-4.328l-.208.129c-9.75 4.407-26.468 9.941-49.692 10.505z" transform="translate(-265 -3746) rotate(42 -4597.517 2435.671)"/>
                <path fill="#356B85" fill-rule="nonzero" d="M170.858 116.67c-.96-.808-1.95-1.595-2.91-2.404.6-.383.93-.596.93-.596s.75 1.043 1.98 3z" transform="translate(-265 -3746) rotate(42 -4597.517 2435.671)"/>
                <path fill="#000" d="M149.916 170.805l-.414-.614c22.434-.557 38.582-6.029 48-10.386-1.775 1.11-15.6 9.133-47.586 11z" transform="translate(-265 -3746) rotate(42 -4597.517 2435.671)"/>
                <path fill="#A12507" fill-rule="nonzero" d="M143.559 160.308s8.228 13.047 8.41 13.886c.183.835.159 2.538-.086 4.825-.244 2.29-14.794.832-14.794.832s.137-11.892 6.47-19.543z" transform="translate(-265 -3746) rotate(42 -4597.517 2435.671)"/>
                <path fill="#D5330D" fill-rule="nonzero" d="M139.172 164.969s7.705 11.004 9.11 14.526c1.404 3.525-21.94-.382-21.94-.382l12.83-14.144z" transform="translate(-265 -3746) rotate(42 -4597.517 2435.671)"/>
                <path fill="#C7D6DD" fill-rule="nonzero" d="M74.72 132.779s.996 8.069 7.504 12.837c6.505 4.768 40.07-9.833 40.487-13.773.419-3.943-14.204-26.09-47.991.936z" transform="translate(-265 -3746) rotate(42 -4597.517 2435.671)"/>
                <path fill="#0C7489" fill-rule="nonzero" d="M83.346 303.463l-.006-.002c-.13-.093-2.105-1.428-5.832-1.428-.986 0-2.094.093-3.322.326-7.893-14.859-17.883-54.201-17.883-54.201.875-3.566 4.266-6.137 7.038-7.695 1.369 1.57 35.008 40.241 30.556 50.07-5.21 4.33-8.607 8.76-10.551 12.93zm16.252-15.548c.961-1.023 1.911-2.012 2.872-3 .043.017.086.034.128.034-1.014.988-2.007 1.96-3 2.966zm1.358-1.673c1.47-1.246 2.896-2.35 4-3-1.401.985-2.732 1.985-4 3zm3.972-3.16s-1.091-1.09-2.952-3c.986.993 1.987 1.993 3 2.991l-.048.01zM74.52 249.927c-3.06-3.618-6.104-7.32-9-11 2.595 3.26 5.611 6.966 9 11z" transform="translate(-265 -3746) rotate(42 -4597.517 2435.671)"/>
                <path fill="#000" d="M83.773 304.001s-.03 0-.06-.03c.03 0 .06.03.06.03z" transform="translate(-265 -3746) rotate(42 -4597.517 2435.671)"/>
                <path fill="#5D5D5D" fill-rule="nonzero" d="M79.207 143.875c-1.226-1.293-2.205-2.665-2.984-4 .786 1.331 1.768 2.7 3 3.99l-.016.01z" transform="translate(-265 -3746) rotate(42 -4597.517 2435.671)"/>
                <path fill="#0C7489" fill-rule="nonzero" d="M78.883 144.534c-1.054-1.168-1.894-2.408-2.566-3.613-.815-1.478-1.378-2.905-1.76-4.096 2.156-.57 4.315-1.223 6.443-1.957-.152.082-.304.164-.458.244 7.552-2.505 14.807-6.036 20.66-10.578.32 3.747.916 6.876 1.428 9.057.491 2.119.91 3.33.927 3.378-.059.1-.118.196-.18.295l-17.933 4.045s-4.717 2.048-6.56 3.225z" transform="translate(-265 -3746) rotate(42 -4597.517 2435.671)"/>
                <path fill="#D5330D" fill-rule="nonzero" d="M77.75 144.793s2.874 8.722 10.156 17.845c7.28 9.126 13.844-22.34 13.844-22.34l-24 4.495z" transform="translate(-265 -3746) rotate(42 -4597.517 2435.671)"/>
                <path fill="#0C8F9B" fill-rule="nonzero" d="M90.983 160.372s-30.502 9.97-45.976 33.169c0 0-2.872 12.271 8.111 14.83 0 0 14.39-13.834 51.55-11.839l-13.685-36.16z" transform="translate(-265 -3746) rotate(42 -4597.517 2435.671)"/>
                <path fill="#2C4640" fill-rule="nonzero" d="M52.824 207.828s7.33-6.748 25-10c-17.67 3.252-25 10-25 10z" transform="translate(-265 -3746) rotate(42 -4597.517 2435.671)"/>
                <path fill="#0C7489" fill-rule="nonzero" d="M52.814 208.306c-.004-.001-.422-.11-.828-.26-.393-.144-.782-.316-.784-.316-.573-.192-1.05-.533-1.506-.796-1.458-.75-3.053-2.066-4.186-4.071 1.16.758 2.607 1.37 4.41 1.754 0 0 13.224-11.659 46.866-11.659.664 0 1.57-.098 2.248-.09 2.226 1.629 5.32 2.617 7.487 3.286-.834-.031-1.625.032-2.65.068-1.352.048-2.947.078-3.982.078-1.984 0-3.9.042-5.746.117-1.19.05-2.344.114-3.475.19-4.275.295-8.145.783-11.626 1.394-18.393 3.238-25.924 10.37-25.924 10.37l-.304-.065zm38.905-44.743l-.473-1.62c1.67-.797 2.718-1.252 3-1.38-.036.04-.084.088-.144.144-.24.208-.665.614-1.204 1.333-.347.414-.748.925-1.18 1.523z" transform="translate(-265 -3746) rotate(42 -4597.517 2435.671)"/>
                <path fill="#7F7F7F" fill-rule="nonzero" d="M62.663 131.454c-.036-.043-.072-.084-.107-.128 4.63-2.476 10.59-6.526 18.532-13.235 6.46-5.458 11.161-11.444 14.468-16.637-2.31 3.677-5.325 7.773-9.179 11.81-1.647 1.715-3.443 3.417-5.402 5.072-7.818 6.603-13.712 10.63-18.312 13.118z" transform="translate(-265 -3746) rotate(42 -4597.517 2435.671)"/>
                <path fill="#244A6E" fill-rule="nonzero" d="M60.865 131.927c-.328-.39-.682-.793-1.062-1.213 1.414-1.126 2.895-2.345 4.456-3.665 16.476-13.96 21.853-31.248 21.853-31.248s-3.278-32.793-14.224-37.77c-2.578-1.173-6.433-1.684-11.034-1.684-13.346 0-32.952 4.288-45.765 9.084 3.26-2.483 7.031-4.85 11.252-6.711 12.334-5.44 35.074-10.793 49.992-10.793 3.17 0 5.988.242 8.274.775-5.705 6.824 3.04 27.124 6.828 32.53 2.467 3.52 6.578 7.094 9.654 7.562-.833 2.203-2.76 6.77-6.184 12.235-3.41 5.37-8.26 11.563-14.924 17.208-8.192 6.94-14.34 11.128-19.116 13.69z" transform="translate(-265 -3746) rotate(42 -4597.517 2435.671)"/>
                <path fill="#0C8F9B" fill-rule="nonzero" d="M122.857 79.053s-5.511 31.698-20.223 44.442C87.916 136.243 62 141.816 46.438 139.815c-3.306-.429-6.484-1.19-9.497-2.251.239-.014 7.308-.582 12.602-1.391 5.385-.826 13.531-3.636 29.897-17.49 16.361-13.85 21.703-31.003 21.703-31.003S97.886 55.14 87.02 50.2c-10.861-4.939-44.576 1.98-60.599 9.04C10.405 66.297.976 80.674.976 80.674c.315-8.952 4.788-22.886 12.957-32.49 17.36-20.406 38.997-27.818 62.39-24.012 23.394 3.807 37.726 16.224 44.014 28.384 6.287 12.16 2.52 26.497 2.52 26.497z" transform="translate(-265 -3746) rotate(42 -4597.517 2435.671)"/>
                <path fill="#356B85" fill-rule="nonzero" d="M122.514 75.245c1.26-2.826 2.312-7.213.124-12l1.682.079c2.046 4.627 1.094 8.864-.116 11.66-.564.087-1.135.174-1.69.261z" transform="translate(-265 -3746) rotate(42 -4597.517 2435.671)"/>
                <path fill="#000" d="M94.39 30.5c-5.41-2.623-11.61-4.67-18.637-5.889-3.897-.676-7.74-1.016-11.528-1.016-3.275 0-6.509.254-9.686.773 3.356-.58 6.775-.868 10.243-.868 3.782 0 7.625.344 11.516 1.016 6.853 1.189 12.926 3.168 18.24 5.7-.05.094-.1.189-.147.284z" transform="translate(-265 -3746) rotate(42 -4597.517 2435.671)"/>
                <path fill="#7F0000" fill-rule="nonzero" d="M98.406 32.509c-1.105-.891-2.245-1.746-3.419-2.564.05-.146.104-.291.158-.436 1.322.904 2.606 1.859 3.842 2.859-.196.045-.39.095-.58.14z" transform="translate(-265 -3746) rotate(42 -4597.517 2435.671)"/>
                <path fill="#7197A9" fill-rule="nonzero" d="M80.265 134.96c.158-.08.312-.164.466-.247 7.534-2.582 14.729-6.173 20.506-10.754.008.109.017.215.028.324-5.948 4.584-13.322 8.148-21 10.676z" transform="translate(-265 -3746) rotate(42 -4597.517 2435.671)"/>
                <path fill="#095D6E" fill-rule="nonzero" d="M81.14 135.16c3.742-1.988 7.203-4.277 10.196-6.868 3.884-3.361 7.12-8.056 9.778-13.133-.125 1.574-.18 3.107-.18 4.581 0 1.763.077 3.442.205 5.01-5.634 4.434-12.651 7.91-20 10.41zm30.837-50.744c.181-.888.268-1.383.268-1.383s2.75-10.383-.413-20.88c.282.016.57.024.86.024 2.53 0 5.26-.572 6.993-.954.954-.212 2.439-.542 4.405-.807.123.608.226 1.214.315 1.81.737 5.002.383 9.585-.041 12.537-1.473.715-2.885 1.458-4.207 2.19-.042.025-.087.05-.128.071-.037.02-.07.039-.106.061-3.027 1.686-5.678 4.237-7.946 7.331zm-6.586-32.982C98.015 41.157 84.873 31.7 65.37 28.445c-3.876-.648-7.702-.974-11.466-.974-6.042 0-11.93.844-17.613 2.563 6.18-3.467 12.677-5.734 19.417-6.86 3.163-.496 6.382-.74 9.642-.74 3.77 0 7.596.326 11.474.974 6.994 1.168 13.167 3.13 18.552 5.645 1.097.512 2.163 1.046 3.196 1.603 7.679 4.137 13.554 9.418 17.719 14.984h-.008c-3.445.739-6.07 1.918-8.044 2.807-1.44.645-2.317 1.77-2.848 2.987z" transform="translate(-265 -3746) rotate(42 -4597.517 2435.671)"/>
                <path fill="#000" d="M1.805 80.664c.198-2.93 1.21-6.356 2.976-9.99.006-.004.012-.007.024-.01-1.773 3.634-2.779 7.054-2.988 9.991-.012.006-.012.01-.012.01z" transform="translate(-265 -3746) rotate(42 -4597.517 2435.671)"/>
                <path fill="#0FA3B1" fill-rule="nonzero" d="M1.355 80.23c.096-2.622.558-5.676 1.372-8.922 3.327-2.603 7.23-5.114 11.645-7.059 2.324-1.021 5.027-2.038 7.983-3.018-13.09 7.165-20.77 18.65-21 19z" transform="translate(-265 -3746) rotate(42 -4597.517 2435.671)"/>
                <path fill="#2C5985" fill-rule="nonzero" d="M100.49 44.822s6.32-.489 4.755 10.124C103.68 65.56 95.04 84.95 89.054 88.924c-5.986 3.977-8.266-6.182-7.373-13.344.892-7.162 8.937-30.422 18.808-30.758z" transform="translate(-265 -3746) rotate(42 -4597.517 2435.671) rotate(-42 93.494 67.318)"/>
                <path fill="#B9CCD4" fill-rule="nonzero" d="M104.606 86.096c1.64-.73 2.406-1.612 2.406-2.615 0 1.003-.767 1.886-2.406 2.615zm-14.6-35.386c-.85-1.919-1.614-2.614-2.274-2.614-.699 0-1.277.78-1.72 1.69.443-.91 1.021-1.69 1.72-1.69.66 0 1.425.695 2.274 2.614z" transform="translate(-265 -3746) rotate(42 -4597.517 2435.671)"/>
                <path fill="#143449" fill-rule="nonzero" d="M84.393 88.426c-.959-.798-1.696-2.118-2.22-3.708.957.21 2.062-.004 3.322-.788 6.243-3.874 15.16-22.892 16.726-33.323.337-2.253.293-4 .018-5.351.545.152 1.184.427 1.788.93.57.475 1.109 1.154 1.502 2.116.607 1.477.876 3.632.406 6.766-1.398 9.29-8.62 25.393-14.595 31.541-.734.754-1.45 1.36-2.132 1.782-1.981 1.23-3.58 1.063-4.815.035z" transform="translate(-265 -3746) rotate(42 -4597.517 2435.671) rotate(-42 94.174 67.256)"/>
                <path fill="#244A6E" fill-rule="nonzero" d="M103.328 137.44s-3.695-10.754-2.199-24.16c1.497-13.408 7.385-29.54 17.655-35.405 10.27-5.867 26.176-12.49 33.353-1.608 7.18 10.882-48.81 61.172-48.81 61.172z" transform="translate(-265 -3746) rotate(42 -4597.517 2435.671)"/>
                <path fill="#8AA9B8" fill-rule="nonzero" d="M123.968 74.848c5.08-2.17 10.85-3.99 16-4-5.15.01-10.92 1.83-16 4z" transform="translate(-265 -3746) rotate(42 -4597.517 2435.671)"/>
                <path fill="#2C5A71" fill-rule="nonzero" d="M123.148 78.906c.985-.99 1.999-1.98 3-2.97-1.001.99-2.015 1.98-3 2.97z" transform="translate(-265 -3746) rotate(42 -4597.517 2435.671)"/>
                <path fill="#7DA0B0" fill-rule="nonzero" d="M118.783 78.364c1.257-1.002 2.6-2.02 4-3-1.4.98-2.743 1.998-4 3z" transform="translate(-265 -3746) rotate(42 -4597.517 2435.671)"/>
                <path fill="#143449" fill-rule="nonzero" d="M103.38 134.39c-.953-2.3-2.058-5.622-2.626-9.61-.233-1.646-.375-3.408-.375-5.256 0-2.143.193-4.402.654-6.736.091-.465.193-.93.3-1.398-2.18 10.102.217 18.526 2.046 23zm-.624-27.792c-.29-1.49-.155-3.403-.155-3.403l-.017.068c2.718-10.867 8.018-21.555 15.897-26.119.036-.023.07-.042.105-.062.042-.023.086-.049.128-.074 1.314-.757 2.718-1.524 4.182-2.264l.566-.281c5.333-2.639 11.393-4.854 16.8-4.865h.062c4.45.006 8.455 1.507 11.245 5.499-.513-.213-1.037-.407-1.572-.58-2.552-2.232-5.719-3.122-9.152-3.122-7.2 0-15.561 3.915-21.826 7.543-8.248 4.78-13.672 16.273-16.263 27.66z" transform="translate(-265 -3746) rotate(42 -4597.517 2435.671)"/>
                <path fill="#4A746A" fill-rule="nonzero" d="M103.249 137.276s-1.829-18.75 4.697-35.524c6.526-16.773 20.763-23.607 30.202-26.63 9.442-3.022 22.898 2.187 22.865 13.458-.033 11.274-57.764 48.696-57.764 48.696z" transform="translate(-265 -3746) rotate(42 -4597.517 2435.671)"/>
                <path fill="#244A6E" fill-rule="nonzero" d="M85.434 113.473s11.353-15.158 27.664-23.256c16.312-8.099 31.688-3.651 40.86.419 9.172 4.072 15.783 16.947 8.105 25.3-7.68 8.356-76.63-2.463-76.63-2.463z" transform="translate(-265 -3746) rotate(42 -4597.517 2435.671) rotate(-42 125.434 102.398)"/>
                <path fill="#2D4C44" fill-rule="nonzero" d="M138.703 76.576c1.28-1.506 2.625-2.502 4-3-1.375.498-2.72 1.494-4 3z" transform="translate(-265 -3746) rotate(42 -4597.517 2435.671)"/>
                <path fill="#244A6E" fill-rule="nonzero" d="M101.742 92.219c-.488-1.65 2.741-5.002 2.741-5.002l-.002-.001c.808-.503 1.635-.992 2.478-1.463.146.917.66 1.785 1.342 2.501-2.3 1.204-4.494 2.548-6.559 3.965zm58.77 11.861c-.366-4.607-2.95-9.222-6.548-12.468-.878-.792-1.815-1.503-2.799-2.113-.14-1.543-.886-3.091-1.909-4.388l.1.045.098.044c1.104.513 2.17 1.156 3.176 1.904.505.378.997.781 1.47 1.207 4.462 4.025 7.36 10.159 6.412 15.77z" transform="translate(-265 -3746) rotate(42 -4597.517 2435.671) rotate(-42 131.192 94.595)"/>
                <path fill="#244A6E" fill-rule="nonzero" d="M92.648 111.919s19.343-15.102 33.51-19.576c14.166-4.473 28.698.808 37.74 8.519 9.039 7.709 7.135 26.139-3.695 29.16-10.83 3.022-67.555-18.103-67.555-18.103z" transform="translate(-265 -3746) rotate(42 -4597.517 2435.671) rotate(-42 131.148 110.51)"/>
                <path fill="#3E6159" fill-rule="nonzero" d="M150.256 83.943c-.1-.02-.179-.02-.258-.02.079 0 .178 0 .258.02zm-.162-.02h-.238.238zm-.057-.001h-.218.218zm.036-.002h-.397.397zm-.098-.002h-.298.298zm-.068-.003h-.258.258zm.018.01c-.139 0-.258-.02-.397-.02.139 0 .258.02.397.02zm-.112-.012h-.278.278zm-.028.01c-.1 0-.199-.02-.318-.02.12 0 .219.02.318.02zm-.01-.012h-.398.398zm-.101 0h-.298.298zm-.004 0h-.397.397z" transform="translate(-265 -3746) rotate(42 -4597.517 2435.671)"/>
                <path fill="#143449" fill-rule="nonzero" d="M108.739 93.93c.385-1.627 2.807-3.777 2.807-3.777 2.219-1.192 4.456-2.29 6.633-3.219.99.483 2.024.883 3.003 1.386l-.173.053c-3.869 1.229-8.128 3.258-12.27 5.557zm54.268 23.794c2.49-6.72 1.257-15.695-4.196-20.624-.095-.085-.189-.167-.283-.248-1.018-.87-2.108-1.711-3.257-2.508.366-1.068 1.128-1.926 1.905-2.78 1.004.713 1.953 1.457 2.852 2.228.023.017.046.037.07.058l.003.004.065.055.304.275c.013.01.021.022.032.032l.062.057c.015.013.026.027.04.04l.045.04c.004.007.01.013.016.019l.032.028c.004.004.008.008.01.014l.043.037c.004.008.012.016.019.022l.023.02c.006.01.012.016.02.023l.026.023c.01.014.021.023.034.034.004.008.012.016.019.021.008.008.017.016.02.023l.022.02.023.024c.009.008.017.015.026.027.012.011.02.023.033.034l.017.015c.007.01.015.018.023.025.005.008.011.014.017.02.015.017.032.032.047.05l.01.009c.009.011.02.02.026.03l.012.012c.01.01.017.019.028.028.002.002.006.006.006.01.032.032.064.069.095.101l.005.004c5.4 5.95 5.754 16.302 1.706 22.698z" transform="translate(-265 -3746) rotate(42 -4597.517 2435.671) rotate(-42 137.239 102.33)"/>
                <path fill="#244A6E" fill-rule="nonzero" d="M102.651 111.743s20.023-12.251 38.194-10.56c18.169 1.691 30.523 16.179 28.612 30.325-1.911 14.147-11.137 14.398-17.172 14.322-6.034-.078-49.634-34.087-49.634-34.087z" transform="translate(-265 -3746) rotate(42 -4597.517 2435.671) rotate(-42 136.151 123.43)"/>
                <path fill="#8AA9B8" fill-rule="nonzero" d="M169.033 112.616c-.024-.085-.049-.15-.073-.236.024.086.049.15.073.236zm-.01-.054c-.024-.086-.072-.172-.096-.236.024.064.048.15.096.236zm.02.03c-.072-.15-.12-.279-.192-.43.072.151.12.28.192.43zm-.062-.13c-.049-.107-.073-.193-.12-.3.047.107.071.193.12.3zm-.023-.066c-.048-.086-.073-.172-.12-.279.047.107.072.193.12.28zm-.023-.054c-.048-.086-.096-.193-.12-.28.024.087.072.194.12.28zm.042.092c-.097-.193-.169-.408-.265-.601.096.193.168.408.265.601zm-.09-.194c-.048-.108-.096-.215-.144-.344.048.129.096.236.144.344zm-.022-.055c-.049-.107-.097-.236-.145-.343.048.129.096.236.145.343zm-.026-.054c-.048-.107-.096-.236-.144-.343.048.129.096.236.144.343zm.064.133c-.097-.258-.217-.494-.338-.751.12.257.241.493.338.751zm-.114-.27c-.072-.108-.12-.237-.169-.344.049.107.097.236.169.343zm-.025-.043c-.049-.129-.12-.236-.17-.365.05.129.121.236.17.365zm-.026-.066c-.072-.107-.12-.236-.168-.344.048.108.12.237.168.344zm.172.346c-.193-.408-.386-.816-.603-1.223.217.407.41.815.603 1.223zm-.266-.529c-.048-.128-.12-.257-.168-.365.048.108.12.237.168.365zm-.014-.032c-.048-.13-.12-.28-.193-.408.072.129.145.257.193.408zm.193.375c-.217-.451-.434-.902-.675-1.353.24.451.458.902.675 1.353zm-.279-.572c-.072-.129-.144-.279-.217-.408.073.129.145.28.217.408zm.307.58c-.314-.601-.627-1.202-.965-1.825.338.601.651 1.224.965 1.825zm-.439-.821c-.072-.15-.144-.3-.217-.43.073.13.145.28.217.43zm-.017-.057c-.072-.128-.145-.279-.241-.429.096.15.169.3.241.43zm.223.404c-.265-.472-.53-.944-.796-1.438.265.494.53.966.796 1.438zm-.332-.593c-.072-.15-.169-.3-.241-.45.072.15.169.3.241.45zm.347.597c-.337-.623-.7-1.267-1.085-1.91.386.643.723 1.287 1.085 1.91zm-.48-.845c-.073-.15-.17-.322-.266-.472.096.172.193.322.265.472zm.486.668c-.458-.71-.916-1.438-1.422-2.147.482.71.964 1.438 1.422 2.147zm-.659-.994l-.29-.45.29.45zm.24.392c-.29-.472-.58-.966-.893-1.438.314.472.603.966.892 1.438zm-.377-.61c-.073-.128-.17-.278-.266-.429.097.15.17.3.266.43zm-.036-.056c-.072-.15-.169-.279-.265-.43.096.151.193.28.265.43zm.247.388c-.289-.472-.578-.945-.892-1.417.314.472.603.945.892 1.417zm-.376-.596c-.097-.15-.17-.279-.266-.429.097.15.17.28.266.43zm-.038-.058c-.073-.13-.17-.28-.266-.43.097.15.193.3.266.43zm.258.39c-.29-.473-.603-.945-.916-1.417.313.472.626.944.916 1.416zm-.393-.61c-.096-.129-.193-.28-.265-.408.072.129.169.28.265.408zm-.038-.057c-.096-.15-.193-.279-.265-.408.072.13.169.258.265.408zm.242.355c-.289-.451-.602-.88-.892-1.331.29.45.579.88.892 1.33zm-.384-.577c-.097-.128-.169-.257-.265-.386.096.129.193.258.265.386zm-.04-.07c-.073-.13-.17-.258-.266-.365.097.129.169.236.265.365zm-.041-.061c-.097-.108-.169-.236-.265-.365.096.129.168.257.265.365zm.045.087c-.144-.236-.313-.45-.458-.687.145.236.314.451.458.687zm-.163-.26c-.072-.107-.144-.215-.24-.322.096.107.168.215.24.322zm-.054-.061l-.217-.322.217.322zm-.032-.052c-.072-.107-.145-.214-.241-.343.096.129.169.236.241.343zm.032.047c-.12-.193-.265-.386-.41-.58.145.194.29.387.41.58zm-.163-.229c-.072-.086-.12-.193-.192-.28.072.108.12.194.192.28zm-.045-.063c-.048-.086-.12-.193-.193-.28.072.108.12.194.193.28zm-.046-.064c-.072-.085-.12-.171-.193-.279.073.108.12.194.193.28zm-.018-.043c-.097-.107-.193-.236-.266-.344.073.108.17.237.266.344zm-.104-.118c-.049-.085-.12-.171-.17-.257.05.086.121.172.17.257zm-.035-.063c-.073-.086-.12-.172-.193-.257.072.085.12.171.193.257zm-.015-.034c-.217-.257-.41-.515-.603-.773.193.258.386.516.603.773z" transform="translate(-265 -3746) rotate(42 -4597.517 2435.671)"/>
                <path fill="#204160" fill-rule="nonzero" d="M100.784 111.708c1.246-.082 2.507-.131 3.774-.15-.147.028-.296.06-.436.094-1.115.009-2.23.03-3.338.056zm58.279 32.587c2.059-2.112 3.661-5.37 4.327-10.386.512-3.873-.056-7.775-1.53-11.436.362.027.721.036 1.071 0 1.798-.176 3.204-1.464 4.16-3.02 1.422 3.554 1.99 7.337 1.544 11.099l-.014.12-.021.164c-.004.03-.01.062-.012.094l-.006.032-.008.06-.006.04c-.002.019-.005.035-.006.053l-.007.038-.008.063c-.003.016-.006.036-.007.054l-.01.062c-.003.016-.006.028-.007.042l-.007.05c0 .013-.004.03-.007.041l-.007.05c0 .014-.006.028-.007.042l-.009.048c-.004.03-.008.06-.014.088 0 .011-.002.023-.004.033-.002.02-.005.036-.008.052-.003.012-.004.026-.006.04l-.008.048-.008.038c0 .018-.004.034-.007.05-.003.012-.006.024-.005.035-.008.034-.012.068-.02.102.001.008-.002.02-.004.026-.003.02-.007.038-.008.056-.001.01-.005.022-.008.03-.001.018-.004.038-.008.056l-.007.028c-.002.02-.007.038-.01.057-.001.006-.003.012-.002.02-.014.066-.024.132-.037.198-.002.006-.005.014-.005.022-.005.018-.007.038-.012.06-.002.006-.003.012-.003.02-.005.018-.009.04-.012.06l-.003.011c-.013.07-.027.14-.042.208l-.002.01-.013.062c0 .008-.002.014-.003.02l-.014.062c-.002.002-.002.006-.002.006-.013.07-.028.138-.044.206-.002.006-.001.01-.003.012-.005.022-.007.041-.014.061l-.003.016-.014.062c0 .004-.002.006-.003.008-.014.07-.031.14-.047.208l-.001.002-.014.066-.005.01c-.025.116-.055.23-.084.342l-.001.006c-.005.022-.011.046-.018.066-.022.092-.046.182-.07.268-.002.006-.004.008-.003.012-.007.02-.012.042-.018.062l-.055.2-.002.003c-.004.022-.01.042-.016.06-.001.006-.003.008-.005.014l-.018.058c.002.002 0 .004-.002.006-.024.086-.048.168-.073.25-.001.006-.003.008-.005.014l-.016.056-.004.009c-.018.062-.037.122-.057.182-.002.002 0 .004-.002.006l-.018.054-.005.018c-.005.014-.01.032-.017.048-.002.006-.003.012-.007.02-.016.057-.034.11-.053.165-.003.004-.003.008-.005.014-.005.014-.012.03-.015.046-.003.008-.007.016-.008.022-.007.016-.01.032-.017.048-.002.006-.003.012-.007.02-.005.015-.012.03-.015.047l-.005.01c-.012.034-.021.066-.035.098l-.005.018-.017.044c-.004.008-.005.018-.007.024l-.017.045-.008.022-.017.044c-.002.006-.003.012-.007.02-.008.026-.02.052-.029.078-.003.009-.008.019-.01.029-.005.01-.01.024-.013.036-.006.01-.009.022-.012.03l-.014.036-.012.03-.015.039c-.006.01-.009.022-.014.032-.007.02-.014.036-.02.056-.006.01-.01.024-.016.038-.003.008-.006.02-.012.03-.005.01-.01.025-.013.037l-.014.028c-.004.012-.009.026-.016.038-.001.01-.006.02-.01.028l-.02.049c-.004.008-.005.018-.009.026l-.024.052c-.002.01-.007.016-.009.026-.007.012-.014.029-.019.043l-.01.024c-.005.014-.01.028-.02.042 0 .006-.004.014-.008.022l-.026.063-.002.002c-.008.022-.019.042-.027.064-.004.004-.006.01-.005.014l-.025.053c-.001.006-.005.01-.007.016l-.024.052-.005.01c-.02.047-.04.091-.06.133l-.003.004c-.007.02-.017.04-.028.061 0 .004-.002.006-.004.008-.008.022-.017.04-.027.06 0 0-.002.003-.002.007-1.86 3.937-4.7 5.818-7.682 6.704zm-40.667-39.264c1.723-1.572 4.39-2.87 4.402-2.874 1.755-.447 3.562-.836 5.398-1.135-.3.37-.558.824-.764 1.391-.153.428-.238.813-.253 1.164-2.99.246-5.951.769-8.783 1.454z" transform="translate(-265 -3746) rotate(42 -4597.517 2435.671) rotate(-42 134.784 122.658)"/>
                <path fill="#35536B" fill-rule="nonzero" d="M157.35 31.657c-.535.132-1.08.275-1.648.432-8.038 2.24-13.92-.365-13.307-5.193.53-4.265 2.816-8.286 11.233-9.994 0 0-10.958 10.128 3.723 14.755z" transform="translate(-265 -3746) rotate(42 -4597.517 2435.671)"/>
                <path fill="#35536B" fill-rule="nonzero" d="M162.687 31.5c-2.105.06-4.6.027-7.13.597-15.626-4.434-3.296-13.834-3.296-13.834 1.197-.22 2.507-.4 3.95-.538 1.541-.14 3.115-.257 4.704-.325 0 0-9.494 7.028 1.772 14.1z" transform="translate(-265 -3746) rotate(42 -4597.517 2435.671)"/>
                <path fill="#35536B" fill-rule="nonzero" d="M162.25 31.523c-12.579-7.94-2.415-15.757-2.415-15.757 3.012-.13 5.927.268 8.974.516 0 0-4.105 5.78-3.292 12.976.095.833.06 1.669.306 2.534-1.266-.154-2.272-.317-3.574-.269z" transform="translate(-265 -3746) rotate(42 -4597.517 2435.671)"/>
                <path fill="#35536B" fill-rule="nonzero" d="M169.817 32.728c-1.36-.455-2.68-.76-3.994-.936-2.115-7.957 2.567-15.064 2.567-15.064 2.588.228 5.164.657 7.657 1.354 0 0 2.062 9.92-6.23 14.646z" transform="translate(-265 -3746) rotate(42 -4597.517 2435.671)"/>
                <path fill="#35536B" fill-rule="nonzero" d="M174.965 35.308L173.75 35c-.599-.597-.502-.442-.801-.72-1.478-1.375-2.278-1.236-3.766-1.756 7.655-4.587 5.751-14.216 5.751-14.216 2.39.696 4.7 1.68 6.87 3.013l.006.006c.152.299 5.76 11.164-6.846 13.981z" transform="translate(-265 -3746) rotate(42 -4597.517 2435.671)"/>
                <path fill="#35536B" fill-rule="nonzero" d="M177.677 39.015c-.89-1.434-2.137-2.896-3.926-4.015 13.871-2.962 7.635-14.257 7.467-14.571 2.765 1.616 5.326 3.74 7.572 6.473.151.185.296.37.435.556 3.225 15.345-11.548 11.557-11.548 11.557z" transform="translate(-265 -3746) rotate(42 -4597.517 2435.671)"/>
                <path fill="#35536B" fill-rule="nonzero" d="M178.315 44.819c.385-2.253-.007-4.656-1.3-6.831 0 0 14.692 3.952 11.479-12.074 4.064 5.39 6.482 11.552 6.52 17.8-7.673 11.026-16.7 1.105-16.7 1.105z" transform="translate(-265 -3746) rotate(42 -4597.517 2435.671)"/>
                <path fill="#35536B" fill-rule="nonzero" d="M189.611 57.796c-13.27 2.433-14.056-7.939-14.056-7.939.24-.195.46-.408.664-.624 1.322-1.419 1.788-2.564 2.096-4.414 0 0 8.957 8.818 16.24-1.653.03 4.937-1.487 9.938-4.944 14.63z" transform="translate(-265 -3746) rotate(42 -4597.517 2435.671)"/>
                <path fill="#35536B" fill-rule="nonzero" d="M184.615 62.286c-2.387 2.127-5.082 3.527-7.92 4.388-9.631-5.239-5.693-14.677-5.693-14.677 1.942-.527 3.329-1.103 4.553-2.14 0 0 1.041 9.74 13.65 7.412-1.253 1.724-2.772 3.402-4.59 5.017z" transform="translate(-265 -3746) rotate(42 -4597.517 2435.671)"/>
                <path fill="#35536B" fill-rule="nonzero" d="M177.836 66.916c-3.758 1.142-7.756 1.359-11.631 1.089-11.374-8.715-1.615-14.777-1.185-15.03l.792-.472c2.36-.101 3.373-.018 5.375-.56 0 0-3.092 9.688 6.65 14.973z" transform="translate(-265 -3746) rotate(42 -4597.517 2435.671)"/>
                <path fill="#35536B" fill-rule="nonzero" d="M166.876 68.003c-3.935-.271-7.75-1.024-11.075-1.833-9.543-10.089 1.319-14.167 1.319-14.167 2.842.418 5.95.607 8.947.482-.448.263-11.054 6.475.81 15.518z" transform="translate(-265 -3746) rotate(42 -4597.517 2435.671)"/>
                <path fill="#35536B" fill-rule="nonzero" d="M156.257 66.147c-3.263-.859-6.024-1.785-7.879-2.263-9.042-9.55.968-13.76.968-13.76 2.25.493 3.716 1.016 6.251 1.535.548.114 1.175.297 1.748.39 0 0-9.913 3.967-1.088 14.098zM143.09 63.508c-.185-.038-.37-.077-.556-.112l-.006-.006c-2.71-.548-5.79-1.115-9.096-1.497-14.474-8.702-3.083-16.385-3.083-16.385 3.477.795 6.423 1.455 9.004 2.028 0 0-8.109 8.517 3.737 15.972z" transform="translate(-265 -3746) rotate(42 -4597.517 2435.671)"/>
                <path fill="#35536B" fill-rule="nonzero" d="M149.285 64.621c-.419-.105-.792-.183-1.13-.245-1.642-.289-3.716-.77-6.114-1.262l-.007-.003c-11.421-7.23-3.024-15.643-3.024-15.643 4.263.952 6.941 1.923 9.977 2.566.29.061.605.16.892.217 0 0-10.99 4.247-.594 14.37zM134.338 62.474c-2.484-.323-5.112-.515-7.805-.456-16.322-10.394-3.608-17.31-3.608-17.31 2.487.157 5.61.34 8.6 1.099 0 0-10.39 7.815 2.813 16.667z" transform="translate(-265 -3746) rotate(42 -4597.517 2435.671)"/>
                <path fill="#35536B" fill-rule="nonzero" d="M126.254 61.82c-2.24.04-4.536.285-6.824.828h-.005c-17-6.068-5.223-16.914-4.89-17.226h.005c2.484-.6 5.397-.936 8.809-.695 0 0-11.816 6.967 2.905 17.093z" transform="translate(-265 -3746) rotate(42 -4597.517 2435.671)"/>
                <path fill="#35536B" fill-rule="nonzero" d="M120.416 61.495c-.48.1-.962.217-1.441.344-11.575 3.082-14.517.28-15.502-4.904 0 0-.81-6.755 3.659-8.831 2.023-.945 4.714-2.198 8.244-2.982-.342.295-12.48 10.605 5.04 16.373z" transform="translate(-265 -3746) rotate(42 -4597.517 2435.671) rotate(2 111.916 54.122)"/>
                <path fill="#A12507" fill-rule="nonzero" d="M77.75 144.793l24.552-4.305 2.99-3.62-20.467 4.315s-6.573 2.776-7.075 3.61z" transform="translate(-265 -3746) rotate(42 -4597.517 2435.671)"/>
                <path fill="#244A6E" fill-rule="nonzero" d="M33.789 163.814s-7.959-7.154-10.69-11.37c-2.735-4.213-2.582-6.01-1.335-12.075 1.248-6.066 6.717-14.551 13.56-12.334 0 0 8.236-3.792 10.178-1.933 0 0 9.413-2.91 15.07 3.235 5.656 6.146 5.575 8.968 5.17 11.129-.407 2.157-.897 3.155-2.868 3.837l-4.691 1.626s3.683 3.874 3.942 6.606c0 0-2.072 15.023-28.336 11.28z" transform="translate(-265 -3746) rotate(42 -4597.517 2435.671)"/>
                <path fill="#0A2239" fill-rule="nonzero" d="M46.434 246.12c-.076-.161-.151-.325-.236-.494-2.003-4.183-5.285-12.516-5.656-17.136 0 0 1.199-2.284 2.825-5.318-.079 3.073 2.247 10.909 3.86 15.61.416 1.233.784 2.247 1.033 2.898 1.203 3.136-1.826 4.44-1.826 4.44z" transform="translate(-265 -3746) rotate(42 -4597.517 2435.671)"/>
                <path fill="#0A2239" fill-rule="nonzero" d="M43.492 223.44c.597-1.316 1.645-2.44 2.367-3.893.11 2.726 1.317 7.878 2.341 13.179.014.054.023.102.03.156 1.014 5.212-1.262 6.275-1.387 6.332-1.366-4.735-3.418-12.679-3.351-15.774z" transform="translate(-265 -3746) rotate(42 -4597.517 2435.671) rotate(-3 45.99 229.38)"/>
                <path fill="#BFBFBF" fill-rule="nonzero" d="M47.684 241.905c.36-.15 1.14-.54 2.22-1.29-.78.57-1.56 1.05-2.22 1.29z" transform="translate(-265 -3746) rotate(42 -4597.517 2435.671)"/>
                <path fill="#0A2239" fill-rule="nonzero" d="M49.186 229.662c.327 2.898-1.293 3.668-1.293 3.668-1.006-5.186-2.554-10.554-2.664-13.22v-.006c1.023-2.053 2.133-4.105 3.218-5.774-1.249 3.36.409 12.431.739 15.332z" transform="translate(-265 -3746) rotate(42 -4597.517 2435.671) rotate(-3 47.23 223.83)"/>
                <path fill="#0C8F9B" fill-rule="nonzero" d="M157.419 279.124s-27.197-49.886-43.683-59.704c-16.487-9.817-41.226-13.663-59.317 6.42 0 0 20.304 27.64 50.546 56.92 0 0 35.926 26.198 52.454-3.636z" transform="translate(-265 -3746) rotate(42 -4597.517 2435.671)"/>
                <path fill="#0B1210" fill-rule="nonzero" d="M60.422 218.83c6.922-5.125 14.487-7.521 22-8-7.306.502-14.659 2.825-21.412 7.717-.196.092-.392.187-.588.284z" transform="translate(-265 -3746) rotate(42 -4597.517 2435.671)"/>
                <path fill="#0C7489" fill-rule="nonzero" d="M149.825 285.642c.397-.627.783-1.282 1.16-1.966 0 0-27.45-50.687-44.092-60.663-7.959-4.771-17.82-8.15-27.94-8.15-6.147 0-12.388 1.246-18.359 4.184 6.938-5.266 14.492-7.766 21.997-8.306.99-.067 1.98-.099 2.967-.099 10.124 0 19.984 3.382 27.943 8.15 16.642 9.976 44.093 60.664 44.093 60.664-.062.113-.126.226-.187.339-2.61 2.486-5.132 4.401-7.582 5.847z" transform="translate(-265 -3746) rotate(42 -4597.517 2435.671)"/>
                <path fill="#244A6E" fill-rule="nonzero" d="M157.484 278.508s1.694.375 2.829 3.115c0 0-13.718 24.282-32.818 35.381-19.098 11.103-32.69 10.024-41.882 4.213-9.19-5.807-8.514-24.545 18.952-39.08 0 0 6.222-1.277 16.78 2.828 10.56 4.105 22.153 6.887 36.14-6.457z" transform="translate(-265 -3746) rotate(42 -4597.517 2435.671)"/>
                <path fill="#578499" fill-rule="nonzero" d="M100.206 284.856c-.012 0-.023-.004-.034-.008l.02-.014c1.243-1.003 2.548-1.99 3.922-2.964 0 0 .02-.003.055-.014 0 .003.003.003.003.007-1.388.984-2.712 1.983-3.966 2.993z" transform="translate(-265 -3746) rotate(42 -4597.517 2435.671)"/>
                <path fill="#ABC1CC" fill-rule="nonzero" d="M104.549 284.452c0-.03-.012-.03-.012-.06.417-.18 1.425-.6 3-1.02-1.969.54-2.988 1.08-2.988 1.08z" transform="translate(-265 -3746) rotate(42 -4597.517 2435.671)"/>
                <path fill="#0A2239" fill-rule="nonzero" d="M125.062 289.954c-5.117 0-9.92-1.473-14.517-3.19-3.795-1.419-7.017-2.152-9.577-2.518 1.237-.715 2.543-1.423 3.912-2.12 0 0 .241-.047.707-.094.43-.04 1.04-.078 1.82-.078 2.714 0 7.475.457 13.852 2.84 4.356 1.627 8.893 3.03 13.709 3.173-3.445 1.423-6.736 1.987-9.906 1.987z" transform="translate(-265 -3746) rotate(42 -4597.517 2435.671)"/>
                <path fill="#ABC1CC" fill-rule="nonzero" d="M147.625 287.902l.062-.163c.844-.716 1.688-1.464 2.54-2.255-.028.065-.049.13-.076.195-.844.78-1.689 1.518-2.526 2.223zm8.4-5.582c.109-.195.234-.39.344-.57l2.021-1.848s.078.015.235.06l-2.6 2.358z" transform="translate(-265 -3746) rotate(42 -4597.517 2435.671)"/>
                <path fill="#6790A3" fill-rule="nonzero" d="M149.236 284.283c.012-.014.02-.028.032-.043 2.575-1.226 5.226-2.85 7.968-4.957-.02.03-.044.06-.064.091-2.73 2.089-5.37 3.698-7.936 4.91z" transform="translate(-265 -3746) rotate(42 -4597.517 2435.671)"/>
                <path fill="#0A2239" fill-rule="nonzero" d="M101.942 325.357c4.288-1.372 8.927-3.437 13.952-6.344 16.363-9.467 28.799-28.493 32.144-33.953.343-.18.69-.37 1.035-.57 2.457-1.406 4.983-3.273 7.597-5.696l.467-.437c.267.078 1.767.617 2.805 3.11 0 0-13.812 24.328-33.036 35.448-8.123 4.702-15.252 7.22-21.481 8.123 0 0-.003 0-.006.003-.402.058-.802.108-1.198.155-.585.061-1.362.125-2.28.161z" transform="translate(-265 -3746) rotate(42 -4597.517 2435.671)"/>
                <path fill="#ABC1CC" fill-rule="nonzero" d="M74.63 302.86c-.03-.031-.06-.091-.06-.12.03.029.06.089.06.12z" transform="translate(-265 -3746) rotate(42 -4597.517 2435.671)"/>
                <path fill="#0A2239" fill-rule="nonzero" d="M67.147 341.741c-1.188-.088-2.089-.258-2.7-.507-3.278-.541-5.005-2.14-5.478-2.331-.039-.016-.193-.153-.23-.172.394.008 1.014.01 1.44.01 14.083 0 43.591-4.178 26.719-10.214-17.383-6.219-10.6-21.031-10.6-21.031-.681-1.71-3.24-2.173-5.817-2.173-3.055 0-6.14.635-6.14.635 2.784-1.533 5.121-2.77 7.326-3.25.318-.124.79-.24 1.13-.295.052.09 1.431-.403 1.502-.325 2.27 2.52 3.715 3.53 7.076 4.28-.377 1.411-1.02 4.464-1.011 5.75-.02 1.522.233 2.903.723 4.149.885 2.41 2.54 4.36 4.742 5.645 1.187.694 2.447 1.317 3.781 1.853 1.205.507 2.441.903 3.672 1.209 2.54.657 4.546.66 7.552.66 1.707 0 4.71-.926 6.571-1.174-.034.042-1.324 1.803-1.863 2.286-2.867 2.225-5.086 3.829-7.839 5.486-1.23.721-2.754 1.858-4.31 2.692-6.875 3.907-13.618 6.171-19.177 6.834-1.761.198-3.188.169-4.6.169-.57 0-1.961-.164-2.469-.186z" transform="translate(-265 -3746) rotate(42 -4597.517 2435.671)"/>
                <path fill="#000" d="M80.984 307.175c-3.462-.483-6.214-1.859-8.013-4.526-.055-.081.163-.757.108-.841.662-.094 1.103-.193 1.53-.14.348.044.678.127 1.263.135 2.993.04 5.5.977 6.929 1.555.003.003-.33-.104-.33-.104-.753 1.301-1.117 2.692-1.487 3.921z" transform="translate(-265 -3746) rotate(42 -4597.517 2435.671) rotate(-7 77.881 304.414)"/>
                <path fill="#E18A57" fill-rule="nonzero" d="M186.916 49.464c.986 0 1.993-.119 3-.356-1.007.237-2.014.356-3 .356z" transform="translate(-265 -3746) rotate(42 -4597.517 2435.671)"/>
                <path fill="#FFF" fill-rule="nonzero" d="M183.07 40.665c1.378-.307 2.826-1.142 4-3-1.174 1.858-2.622 2.693-4 3z" transform="translate(-265 -3746) rotate(42 -4597.517 2435.671)"/>
                <path fill="#0C8F9B" fill-rule="nonzero" d="M148.959 29.688c-1.548-.833-2.251-2.952-1.52-4.385.578-1.136 1.102-1.917 2.425-2.382-.305.735.108 1.58.11 2.377.003 1.348.577 2.733 2.174 3.971-.713.343-1.372.71-2.097.71-.343 0-.705-.082-1.092-.291z" transform="translate(-265 -3746) rotate(42 -4597.517 2435.671)"/>
                <path fill="#0C8F9B" fill-rule="nonzero" d="M149.257 25.5c-.003-.877.208-1.742.533-2.55 1.136-.411 2.404-.64 3.602-.776 1.572-.179 3.162-.283 4.752-.307-.173.586-.278 1.217-.281 1.883 0 1.271.353 2.551 1.372 4.001-.368.045-.81.158-1.174.218-2.013.336-3.885.853-5.686 1.54-.202.075-.814.202-1.222.283-.153.03-.153.03-.331.04-1.704-1.363-1.562-2.85-1.565-4.332z" transform="translate(-265 -3746) rotate(42 -4597.517 2435.671)"/>
                <path fill="#0C8F9B" fill-rule="nonzero" d="M156.916 23.817c.003-.665.113-1.296.295-1.882.264-.005.636-.067.9-.067 2.66 0 4.705-.266 7.303.172-.297.99-.387 2.761-.27 5.315-.796-.05-2.352-.051-3.167-.051-1.44 0-2.474.502-3.916.665-1.07-1.449-1.145-2.881-1.145-4.152z" transform="translate(-265 -3746) rotate(42 -4597.517 2435.671)"/>
                <path fill="#0C8F9B" fill-rule="nonzero" d="M172.637 29.04c-1.924-.73-3.96-1.233-6.018-1.499-.647-.084-1.305-.147-1.973-.194v-.096c-.003-1.917.328-3.692.768-5.21 2.862.5 5.65 1.299 8.285 2.437.319.136.634.279.947.426-.376 1.376-1.001 2.81-2.009 4.136z" transform="translate(-265 -3746) rotate(42 -4597.517 2435.671)"/>
                <path fill="#0C8F9B" fill-rule="nonzero" d="M172.49 28.987c1.013-1.274 1.777-2.761 2.156-4.083 2.973 1.34 5.525 3.418 7.802 5.534-.604 1.014-1.556 1.97-2.991 2.769-1.972-1.723-4.345-3.267-6.967-4.22z" transform="translate(-265 -3746) rotate(42 -4597.517 2435.671)"/>
                <path fill="#0C8F9B" fill-rule="nonzero" d="M182.586 37.995c-.39-.92-.498-1.728-1.107-2.553-.71-.964-1.558-1.836-2.49-2.638 1.432-.784 2.443-1.747 3.046-2.742 2.128 1.947 3.585 3.418 4.745 5.87-1.181.843-2.806 1.924-4.194 2.063z" transform="translate(-265 -3746) rotate(42 -4597.517 2435.671)"/>
                <path fill="#0C8F9B" fill-rule="nonzero" d="M187.156 48.898h-.017c-1.502-.003-2.908-.441-4.127-1.036.842-3.327.618-6.96-.55-10.237 1.483-.177 3.041-.657 4.303-1.727.25.631.478 1.276.677 1.927 1.083 3.541 1.3 7.365.667 11.014-.31.04-.618.06-.92.06h-.033z" transform="translate(-265 -3746) rotate(42 -4597.517 2435.671)"/>
                <path fill="#0C8F9B" fill-rule="nonzero" d="M177.582 54.243c1.076-.846 2.051-1.85 2.89-3.028 1.14-1.599 2.4-3.158 2.853-5.096 1.132.598 1.962.763 3.357.766h.046c.28 0 1.382.574 1.669.535-.656 4.106-3.116 7.398-5.735 10.422-2.44-.664-4.038-2.083-5.08-3.6z" transform="translate(-265 -3746) rotate(42 -4597.517 2435.671)"/>
                <path fill="#0C8F9B" fill-rule="nonzero" d="M171.437 57.65c2.657-.561 4.232-1.931 6.332-3.507.97 1.343 2.776 2.908 5.047 3.496-.104.114-.492.642-.596.753-2.39 2.48-4.902 4.038-8.052 5.03-.352.111-.713.215-1.081.312-1.033-2.83-1.582-4.858-1.65-6.083z" transform="translate(-265 -3746) rotate(42 -4597.517 2435.671)"/>
                <path fill="#0C8F9B" fill-rule="nonzero" d="M163.354 63.847c-.94-1.556-1.001-2.458-1.004-3.746 0-.744.203-1.64.406-2.282.643.035 1.246.12 1.892.134.344.01.688.032 1.035.032 2.252 0 4.533-.059 6.75-.538.102 1.878.563 3.906 1.884 5.917-.421.112-.824.283-1.23.37-.99.212-1.962.282-3.008.39-1.253.127-2.687-.023-3.943-.023-.84 0-1.941-.21-2.782-.254z" transform="translate(-265 -3746) rotate(42 -4597.517 2435.671)"/>
                <path fill="#0C8F9B" fill-rule="nonzero" d="M164.464 63.93c-3.22-.149-6.577-.874-9.779-1.264-.972-1.576-1.22-2.607-1.22-3.805-.004-.708.13-1.351.353-1.932 3.174.438 6.357.769 9.562.92-.223.614-.354 1.28-.354 1.991.003 1.232.404 2.601 1.438 4.09z" transform="translate(-265 -3746) rotate(42 -4597.517 2435.671)"/>
                <path fill="#0C8F9B" fill-rule="nonzero" d="M155.321 62.742c-.258-.033-.519-.063-.777-.096-2.574-.311-5.32-.824-7.89-1.135-1.836-2.193-2.333-3.86-2.333-5.421 0-.48.06-.527.172-.946 3.246.593 6.488 1.38 9.75 1.827-.238.611-.37.652-.367 1.398 0 1.261.41 2.714 1.445 4.373zM131.964 59.722c-3.615-2.551-4.79-4.638-4.786-6.689 0-.326.03-.643.083-.952 3.118.489 6.232 1.076 9.34 1.685-.023.225-.032.458-.032.694 0 2.011.49 4.057 3.236 6.346-3.399-.494-6.013-.856-7.841-1.084z" transform="translate(-265 -3746) rotate(42 -4597.517 2435.671)"/>
                <path fill="#0C8F9B" fill-rule="nonzero" d="M147.702 61.657l-7.897-.851c-3.122-2.237-4.103-4.505-4.103-6.47 0-.231.01-.46.037-.679 3.188.535 6.372 1.09 9.562 1.612-.116.384-.18.796-.18 1.235 0 1.43.691 3.143 2.58 5.153z" transform="translate(-265 -3746) rotate(42 -4597.517 2435.671)"/>
                <path fill="#0D95A2" fill-rule="nonzero" d="M131.121 59.788c-2.107-.26-4.16-.313-6.289-.43-4.05-2.751-5.374-5.191-5.368-7.21 0-.301.034-.592.089-.874 3.07.226 6.124.604 9.17 1.073-.054.308-.085.624-.085.948-.003 2.04 1.208 4.077 4.862 6.615-1.083-.02-1.876-.06-2.379-.122z" transform="translate(-265 -3746) rotate(42 -4597.517 2435.671)"/>
                <path fill="#0C8F9B" fill-rule="nonzero" d="M116.123 60.587c-4.314-2.13-5.126-4.361-5.132-6.672-.003-1.001.221-1.498.618-2.398 1.09-.165 7.403-.28 9.093-.149-.056.31-.159.334-.159.665-.006 2.216 1.717 4.404 5.828 7.424-.759-.046-2.129.147-2.885.147-1.843 0-3.48.276-5.283.681-.51.117-1.576.16-2.08.302z" transform="translate(-265 -3746) rotate(42 -4597.517 2435.671)"/>
                <path fill="#0C8F9B" fill-rule="nonzero" d="M105.561 58.779c-1.137-2.183.363-4.897 2.652-6.158 1.045-.577 2.194-.91 3.396-1.104.145-.023.283-.03.43-.05-.4.815-.641 1.669-.638 2.576.006 2.096 1.422 4.34 5.772 6.272-1.816.463-3.613 1.005-5.487 1.108-.167.009-.335.014-.505.014-2.265 0-4.672-.832-5.62-2.658z" transform="translate(-265 -3746) rotate(42 -4597.517 2435.671)"/>
                <path fill="#AD0000" fill-rule="nonzero" d="M185.73 60.25c.91-.16 1.909-1.098 3-3-1.091 1.902-2.09 2.84-3 3z" transform="translate(-265 -3746) rotate(42 -4597.517 2435.671)"/>
                <path fill="#000" d="M190.818 47.779c1.172-.69 2.36-1.77 3.515-3.38-1.156 1.61-2.343 2.693-3.515 3.38zm4.893-.998c.027-.105.027-.21.027-.316 0 .106 0 .211-.027.316zm-.119.197c.19-.877.273-1.755.3-2.633-.027.898-.11 1.776-.3 2.633zm-.251-1.11c.163-.237.326-.447.49-.684-.164.237-.327.447-.49.684zm-.128.203l.98-1.422-.98 1.422zm-5.193-12.05c2.166-1.497 2.104-3.397-1.25-5.808 3.354 2.41 3.416 4.311 1.25 5.808zm-3.116-8.225c-1.46-1.59-3.039-2.917-4.71-4.017 1.789 1.155 3.371 2.5 4.71 4.017zM167.01 19.188c.555-1.688 1.046-2.69 1.046-2.69-.97-.112-1.943-.182-2.916-.21-.018-.033-.042-.068-.063-.1 1.367.077 2.711.23 4 .448-.34-.051-.679-.096-1.02-.138 0 0-.492 1.002-1.047 2.69z" transform="translate(-265 -3746) rotate(42 -4597.517 2435.671)"/>
                <path fill="#AD0000" fill-rule="nonzero" d="M151.93 19.95c1.023-1.706 2.15-2.849 2.15-2.849-1.112.248-2.112.54-3.014.874 3.76-1.411 8.241-2.025 12.639-2.025.767 0 1.534.02 2.292.056.023.03.05.062.07.092-.449-.015-.897-.021-1.345-.021-.95 0-1.896.027-2.838.076 0 0-1.215 1.134-2.132 2.97.917-1.836 2.132-2.97 2.132-2.97-1.433.074-2.852.204-4.243.358-1.301.15-2.482.348-3.562.59 0 0-1.126 1.143-2.148 2.849z" transform="translate(-265 -3746) rotate(42 -4597.517 2435.671)"/>
                <path fill="#0A2239" fill-rule="nonzero" d="M141.494 19.408c.002-.003 1.052-.784 2.047-1.16 2.204-.73 4.842-.657 8.123.786l.044.017c.212.095.425.195.638.295.988.48 2.03 1.078 3.136 1.81 0 0-1.737.031-3.778.638l-.01-.01c-4.138-3.525-9.598-2.484-10.2-2.376z" transform="translate(-265 -3746) rotate(42 -4597.517 2435.671) rotate(-42 148.488 19.794)"/>
                <path fill="#0A2239" fill-rule="nonzero" d="M151.256 15.416c1.966-.648 3.453-.593 3.453-.593.977.536 1.998 1.175 3.075 1.932 1.147.815 2.099 1.775 3.221 2.68 0 0-1.492-.047-3.47.775-2.68-2.04-4.932-3.802-6.28-4.794z" transform="translate(-265 -3746) rotate(42 -4597.517 2435.671) rotate(-42 156.13 17.516)"/>
                <path fill="#0A2239" fill-rule="nonzero" d="M161.038 15.68c1.09-.048 2.185-.075 3.286-.075.519 0 .83.031 1.35.046.278.006.712.082.972.108.391.04.798.107 1.156.216.455.14.807.162 1.404.356 0 0-.259.396-.96 1.93-.014.03-.24.458-.681.34-.441-.119-1.38-.11-1.633-.117-.251-.007-.52-.109-.886-.109-2.252 0-4.447.096-6.477.23 1.062-1.808 2.469-2.924 2.469-2.924z" transform="translate(-265 -3746) rotate(42 -4597.517 2435.671)"/>
                <path fill="#0A2239" fill-rule="nonzero" d="M167.726 18.614c.022-.06 1.24-2.34 1.24-2.34.358.037.556.086.91.132.78.117 1.538.25 2.273.401 1.136.239 2.24.535 3.31.884.035.218.181 1.2.19 2.59-2.499-.833-5.177-1.521-7.923-1.667z" transform="translate(-265 -3746) rotate(42 -4597.517 2435.671)"/>
                <path fill="#0A2239" fill-rule="nonzero" d="M183.64 24.679c-1.28-1.028-2.734-1.983-4.38-2.828-1.108-.569-2.344-1.142-3.612-1.57-.271-.091-.517-.183-.794-.26-.01-1.344.428-2.19.386-2.4 2.766.746 4.73 1.813 7.02 3.056.1.183 1.029 1.851 1.38 4.002z" transform="translate(-265 -3746) rotate(42 -4597.517 2435.671)"/>
                <path fill="#0A2239" fill-rule="nonzero" d="M183.44 24.495c-3.11-2.704-1.696-3.96-1.79-4.145.098.059.32.151.61.327.312.19.694.464.798.529 1.776 1.134 2.882 1.856 4.432 3.496.262.291.591.686.835.989.066.08.132.167.2.256.37.493.755 1.086 1.077 1.517 0 .009.556 4.127.239 5.67-1.344-3.029-3.29-5.936-6.4-8.64z" transform="translate(-265 -3746) rotate(42 -4597.517 2435.671)"/>
                <path fill="#0A2239" fill-rule="nonzero" d="M191.356 40.05c-.29-1.86-.655-4.62-1.633-7.17.258-1.45.091-2.956-.308-5.292-.003-.005-.003-.013-.003-.021-.002-.006.157-.134.157-.142 1.538 2.37 2.758 4.705 3.526 6.618.469 1.167.9 2.818 1.175 3.775.228.793.378 1.706.483 2.502.134 1.018.19 1.176.197 2.097-.03.048-.602.668-.632.716l-.035.054-.045.07c-.002.002-.005.007-.007.013-1 1.56-1.917 2.624-2.932 3.293.39-2.457.333-4.77.057-6.512z" transform="translate(-265 -3746) rotate(42 -4597.517 2435.671)"/>
                <path fill="#0A2239" fill-rule="nonzero" d="M187.204 57.462c2.212-3.489 3.624-7.87 4.26-11.88 1.179-.772 2.635-3.608 2.638-3.611.017-.028.354-.221.371-.25.014-.021.516.26.496.664.05.824.073 1.24.07 1.248-.212 4.244-1.316 6.895-2.416 9.408-.752 1.473-2.214 3.514-3.012 4.755-1.123.22-1.468-.353-2.407-.334z" transform="translate(-265 -3746) rotate(42 -4597.517 2435.671)"/>
                <path fill="#0A2239" fill-rule="nonzero" d="M174.807 65.172c3.881-.867 7.433-2.506 10.27-5.688.573-.646 1.632-1.28 2.127-2.022.95-.018 1.47.187 2.606-.025-1.86 2.754-3.854 4.556-6.009 6.24-1.82 1.33-3.957 2.524-6.417 3.382-.999-.586-1.852-1.22-2.577-1.887z" transform="translate(-265 -3746) rotate(42 -4597.517 2435.671)"/>
                <path fill="#0A2239" fill-rule="nonzero" d="M168.96 68.144c-1.107 0-2.246-.048-3.414-.142-.861-.664-1.598-1.315-2.222-1.946.426.02.84.029 1.234.029.213 0 .423-.003.624-.009 3.25-.096 6.487-.295 9.524-.932.737.634 1.604 1.236 2.618 1.793-.78.256-1.597.48-2.443.665-1.87.37-3.84.542-5.922.542z" transform="translate(-265 -3746) rotate(42 -4597.517 2435.671)"/>
                <path fill="#0A2239" fill-rule="nonzero" d="M165.76 67.06c-2.344.13-4.637-.115-7.037-.407-3.054-.372-6.09-.826-9.345-1.297-.687-.457-1.276-1.023-1.825-1.455.308.035.504-.045.82-.01 4.964.564 11.078 1.354 15.09 1.464.942.589.657.727 1.956 1.348l.34.356z" transform="translate(-265 -3746) rotate(42 -4597.517 2435.671) rotate(6 156.656 65.489)"/>
                <path fill="#0A2239" fill-rule="nonzero" d="M143.212 65.288c-1.792-.762-3.482-1.409-5.077-1.95-1.799-.685-3.525-1.195-5.171-1.568-.632-.838-1.212-1.66-1.752-2.482 4.518 1.12 8.263 2.825 10.606 3.875.43.716.894 1.424 1.394 2.125z" transform="translate(-265 -3746) rotate(42 -4597.517 2435.671) rotate(-12 137.212 62.288)"/>
                <path fill="#0A2239" fill-rule="nonzero" d="M149.515 65.596c-.23-.088-.552-.176-.756-.24-1.88-.601-3.562-1.087-5.116-1.652-.635-.231-1.081-.703-1.717-.894-.458-.45-.882-.906-1.277-1.366.976.309 1.172.096 1.563.16.772.117 3.46 1.134 6.402 2.108.205.336.506.964.9 1.884z" transform="translate(-265 -3746) rotate(42 -4597.517 2435.671) rotate(-11 145.082 63.52)"/>
                <path fill="#0A2239" fill-rule="nonzero" d="M132.67 62.49c-.821-.165-1.658-.298-2.506-.38-1.083-.127-2.093-.068-2.941-.068-.12 0-.197-.11-.312-.104-.54-.704-1.11-.806-1.585-1.491.205-.007 5.507-.228 7.653.324.434.685.901 1.37 1.409 2.068-.587-.14-1.157-.254-1.717-.349z" transform="translate(-265 -3746) rotate(42 -4597.517 2435.671)"/>
                <path fill="#0A2239" fill-rule="nonzero" d="M119.357 62.792c-1.064-.499-1.45-.313-2.332-.846 3.133-.982 6.043-1.616 9.05-1.666.536.538.745.932 1.353 1.485-3.379.04-5.43.403-5.644.448-.803.174-1.575.466-2.42.579h-.007z" transform="translate(-265 -3746) rotate(42 -4597.517 2435.671) rotate(3 122.226 61.536)"/>
                <path fill="#0A2239" fill-rule="nonzero" d="M110.07 63.481c-1.932-.138-3.164-.835-4.262-1.567-.774-.474-1.332-1.227-1.683-1.954-.21-.436-.499-.972-.612-1.46-.064-.312-.225-.636-.252-.893-.081-.256-.161-.714-.156-1.111.137.916 1.942 5.702 8.302 5.7 1.3 0 2.822-.2 4.606-.668.505-.135 1.012-.254 1.52-.362.717.295 1.504.585 2.368.861-.45.091-.904.199-1.356.315-3.115.808-5.57 1.172-7.504 1.172-.34 0-.663-.01-.972-.033z" transform="translate(-265 -3746) rotate(42 -4597.517 2435.671) rotate(4 111.503 60.005)"/>
                <path fill="#183047" fill-rule="nonzero" d="M126.113 183.08s-2.377 9.158-8.648 8.91c-6.271-.25-21.957-7.65-25.145-14.485-2.761-5.915-2.527-12.488-1.664-15.896.134-.528.59-1.283.728-1.628l34.73 23.099z" transform="translate(-265 -3746) rotate(42 -4597.517 2435.671)"/>
                <path fill="#244A6E" fill-rule="nonzero" d="M119.858 187.54c-2.552-.108-6.542-1.261-10.732-3.07.199-.231.324-.519.327-.85.013-1.046-1.075-1.618-1.978-1.966-5.397-2.08-10.447-5.223-14.842-9.226-.193-.331-.362-.662-.509-.993-.83-1.88-1.406-3.886-1.782-5.889.156.11.337.348.548.753 7.081 15.673 23.449 17.666 31.31 17.666 2.099 0 .098 2.12.646 2.056-1.433 2.047.035 1.525-2.713 1.525-.091 0-.184-.003-.275-.007z" transform="translate(-265 -3746) rotate(42 -4597.517 2435.671)"/>
                <path fill="#204160" fill-rule="nonzero" d="M111.89 194.302s4.528.792 5.853-2.6c0 0-27.73-5.997-26.306-30.32 0 0-2.537 1.208-3.58 7.6-1.044 6.393 4.917 22.965 24.033 25.32z" transform="translate(-265 -3746) rotate(42 -4597.517 2435.671)"/>
                <path fill="#82A3B3" fill-rule="nonzero" d="M115.74 193.241h.005c1.233-.587 2.338-1.528 2.982-3h.014c-.649 1.48-1.758 2.413-3 3z" transform="translate(-265 -3746) rotate(42 -4597.517 2435.671)"/>
                <path fill="#29453E" fill-rule="nonzero" d="M116.88 190.946h-.01s-6.905-1.523-13.614-6.14l.003-.006c6.709 4.62 13.62 6.146 13.62 6.146zm-22.393-18.379c-.013 0-.026 0-.04-.004-.93-.85-1.782-1.726-2.568-2.617.04.027.079.06.118.091.76.863 1.586 1.708 2.49 2.53z" transform="translate(-265 -3746) rotate(42 -4597.517 2435.671)"/>
                <path fill="#0C8F9B" fill-rule="nonzero" d="M91.373 160.54s10.36-26.863 21.596-36.91c11.234-10.046 25.873-19.698 37.86-10.744 11.986 8.955 15.5 14.876 1.252 38.202s-22.336 28.617-26.105 32.058c0 0-30.056 3.842-34.603-22.605z" transform="translate(-265 -3746) rotate(42 -4597.517 2435.671)"/>
                <path fill="#628CA0" fill-rule="nonzero" d="M145.615 163.206c2.164-3.204 4.524-6.937 7.096-11.31 6.152-10.458 8.848-17.401 8.904-22.69-.056 5.289-2.752 12.232-8.904 22.69-2.572 4.373-4.932 8.106-7.096 11.31z" transform="translate(-265 -3746) rotate(42 -4597.517 2435.671)"/>
                <path fill="#2C4640" fill-rule="nonzero" d="M161.946 129.786c.071-6.657-3.919-10.774-10.44-15.829-1.164-.902-2.352-1.62-3.559-2.171 1.207.552 2.395 1.269 3.558 2.171 6.522 5.055 10.512 9.172 10.441 15.829z" transform="translate(-265 -3746) rotate(42 -4597.517 2435.671)"/>
                <path fill="#0C7489" fill-rule="nonzero" d="M122.957 183.081c-1.01 0-2.18-.037-3.461-.138 3.907-3.48 11.73-9.337 25.023-31.546 13.963-23.326 10.52-29.25-1.227-38.205-2.505-1.91-5.129-2.971-7.812-3.362 1.805-.482 3.607-.749 5.39-.749 2.3 0 4.568.442 6.773 1.432 1.194.538 2.37 1.236 3.52 2.114 6.454 4.919 10.402 8.926 10.332 15.404-.057 5.313-2.813 12.29-9.104 22.797-2.63 4.393-5.043 8.145-7.256 11.364-1.454 2.116-2.821 4.004-4.105 5.693-4.448 5.856-7.89 9.32-10.466 11.673-1.556 1.42-2.8 2.437-3.756 3.329h-.003c-.075.008-1.548.194-3.848.194z" transform="translate(-265 -3746) rotate(42 -4597.517 2435.671)"/>
                <path fill="#183047" fill-rule="nonzero" d="M92.213 159.44s-8.644 6.113-2.807 21.147c5.837 15.034 20.27 18.806 22.976 13.712 0 0-13.52-4.562-19.425-15.37-5.908-10.81-.744-19.489-.744-19.489z" transform="translate(-265 -3746) rotate(42 -4597.517 2435.671) rotate(-2 99.882 177.94)"/>
                <path fill="#BACCD5" fill-rule="nonzero" d="M91.858 162.09h.06-.06z" transform="translate(-265 -3746) rotate(42 -4597.517 2435.671)"/>
                <path fill="#244A6E" fill-rule="nonzero" d="M26.434 121.337c-.385 0-1.15-.859-2.462-2.826 0 0-15.179-19.253-14.863-31.553.284-11.066 8.128-20.621 19.503-20.621 1.268 0 2.575.117 3.923.365 13.46 2.475-.898 6.636-7.298 19.755-5.377 11.024 3.21 34.88 1.197 34.88z" transform="translate(-265 -3746) rotate(42 -4597.517 2435.671)"/>
                <path fill="#2C5985" fill-rule="nonzero" d="M45.557 249.578s-1.06-.909-2.733-2.66c.894.882 1.798 1.765 2.733 2.66zm-2.733-2.66c-18.867-28.803.463-45.34.463-45.34-11.502 24.34-3.153 40.987-.463 45.34zM37.711 161.7s-9.947-5.778-13.262-13.079c-3.312-7.304 5.596-15.92 5.596-15.92-7.304 20.048 7.666 29 7.666 29z" transform="translate(-265 -3746) rotate(42 -4597.517 2435.671)"/>
                <path fill="#BFBFBF" fill-rule="nonzero" d="M57.902 148.434s1.406-1.403 3-3l-3 3z" transform="translate(-265 -3746) rotate(42 -4597.517 2435.671)"/>
                <path fill="#0A2239" fill-rule="nonzero" d="M57.681 145.996s-2.173-2.911-3.567-3.885c0 0 .278-.396.53-2.346.254-1.951.6-2.214-1.416-5.77 0 0 2.663.576 3.213 4.962.55 4.385 1.188 2.57 3.787 6.14l-2.547.899zM44.68 195.252c-.004.046-.01.095-.012.144-.037.44-.06.936-.06 1.474 0 .121 0 .245.004.372.025 1.258.182 2.373.438 3.364.617 2.436 2.013 4.933 4.941 6.5.879.489 1.655.852 2.225 1.016-.045.127-.06.187-.11.322-1.657.47-2.581 1.532-3.055 2.808-9.625-8.904-4.372-16-4.372-16z" transform="translate(-265 -3746) rotate(42 -4597.517 2435.671)"/>
                <path fill="#0A2239" fill-rule="nonzero" d="M49.817 212.127c-.438-.359-.776-.938-1.165-1.294.47-1.241 1.304-2.056 2.94-2.513.158-.044.148-.238.32-.272.157-.03.415.163.584.141-1.507 2.209-2.679 3.938-2.679 3.938z" transform="translate(-265 -3746) rotate(42 -4597.517 2435.671)"/>
                <path fill="#B9CCD4" fill-rule="nonzero" d="M51.285 206.4c-2.963-1.473-4.375-3.818-5-6.107.233.839.549 1.58.918 2.235l-.031-.02c.818 1.502 2.11 2.893 4.105 3.888.003 0 .005.003.008.003zm-4.463-8.43c-.027-.177-.027-.35-.027-.518 0-.75.216-1.44.567-2.053-.486.898-.648 1.757-.54 2.57z" transform="translate(-265 -3746) rotate(42 -4597.517 2435.671)"/>
                <path fill="#9DB8C3" fill-rule="nonzero" d="M50.674 205.018c-1.943-1.025-3.203-2.456-4-4l.03.02c1.064 2 2.603 3.23 3.97 3.98z" transform="translate(-265 -3746) rotate(42 -4597.517 2435.671)"/>
                <path fill="#6891A2" fill-rule="nonzero" d="M36.366 129.741c.36-.18.75-.36 1.17-.54-.66.3-1.05.48-1.17.54z" transform="translate(-265 -3746) rotate(42 -4597.517 2435.671)"/>
                <path fill="#143449" fill-rule="nonzero" d="M31.97 126.955c1.428-.925 3.182-.273 3.182-.273.001-.002.003 0 .003 0l.11.038c.79.284 2.182.902 3.34 1.434-3.586-1.402-6.634-1.2-6.634-1.2zm5.459 2.504c1.219-.136 2.418-.16 3.542-.023 0 0-1.572-.015-3.542.023z" transform="translate(-265 -3746) rotate(42 -4597.517 2435.671) rotate(-54 36.47 127.959)"/>
                <path fill="#6891A2" fill-rule="nonzero" d="M45.41 129.312c.818-.48 1.85-.99 3-1.47-1.916.87-3 1.47-3 1.47z" transform="translate(-265 -3746) rotate(42 -4597.517 2435.671)"/>
                <path fill="#143449" fill-rule="nonzero" d="M40.032 127.226c1.544-1.08 3.828.387 3.828.387s.175.091.474.268c1.065.662 2.698 1.948 2.698 1.948-3.483-2.21-7-2.603-7-2.603z" transform="translate(-265 -3746) rotate(42 -4597.517 2435.671) rotate(-74 43.532 128.329)"/>
                <path fill="#BFBFBF" fill-rule="nonzero" d="M46.255 248.868s1.24-.84 3-2.58c-1.105 1.2-2.21 2.22-3 2.58zM49.077 235.728c.818-.66 1.854-1.62 3-2.91-.11.12-1.255 1.53-3 2.91z" transform="translate(-265 -3746) rotate(42 -4597.517 2435.671)"/>
                <path fill="#A6BEC9" fill-rule="nonzero" d="M104.01 136.531c-.054-.042-1.408-1.118-3-3 1.6 1.87 2.946 2.958 3 3z" transform="translate(-265 -3746) rotate(42 -4597.517 2435.671)"/>
                <path fill="#B9CCD4" fill-rule="nonzero" d="M100.67 111.753c.613-2.566 1.578-5.244 3-8-1.329 2.689-2.33 5.386-3 8z" transform="translate(-265 -3746) rotate(42 -4597.517 2435.671)"/>
                <path fill="#143449" fill-rule="nonzero" d="M103.137 136.28c-.988-3.587-2.836-12.039-1.687-21.97.303-2.604.778-5.316 1.429-8.03.187.92.552 1.673 1.242 1.673.482 0 1.118-.361 1.964-1.29-2.646 8.936-3.18 17.8-3.18 23.49 0 3.385.186 5.644.232 6.127z" transform="translate(-265 -3746) rotate(42 -4597.517 2435.671)"/>
                <path fill="#061422" fill-rule="nonzero" d="M103.413 135.922c-.02-.046-.51-1.225-1.094-3.249-1.197-4.199-2.764-12.105-1.34-21.585.428-2.647 1.068-5.378 1.917-8.1l.02-.066s-.163 1.836.185 3.266c-.762 2.682-1.32 5.36-1.674 7.933-1.345 9.814.819 18.165 1.976 21.709l.01.092z" transform="translate(-265 -3746) rotate(42 -4597.517 2435.671)"/>
                <path fill="#204160" fill-rule="nonzero" d="M105.264 126.14c.23-4.11.753-8.964 1.841-13.954.136.092.287.142.457.142.437 0 .994-.34 1.702-1.187-1.69 5.156-3.034 10.593-4 15z" transform="translate(-265 -3746) rotate(42 -4597.517 2435.671)"/>
                <path fill="#143449" fill-rule="nonzero" d="M103.508 137.432c-.007-.078-.213-2.476-.213-6.282 0-5.746.474-14.696 2.816-23.718h.002s-.145 4.709 1.182 5.618c-1.14 5.272-1.688 10.4-1.928 14.743-1.198 5.524-1.839 9.51-1.859 9.639zM107.812 126.779c.763-3.472 1.69-7.276 2.768-10.997.199.435.483.719.888.719.351 0 .792-.212 1.344-.722-2.055 3.787-3.715 7.63-5 11z" transform="translate(-265 -3746) rotate(42 -4597.517 2435.671)"/>
                <path fill="#061422" fill-rule="nonzero" d="M103.097 137.124c.04-.232 2.368-13.319 6.582-25 0 0-.354 3.107.418 4.521-1.23 3.553-2.285 7.185-3.154 10.5-2.549 5.6-3.8 9.823-3.844 9.977l-.002.002z" transform="translate(-265 -3746) rotate(42 -4597.517 2435.671)"/>
                <path fill="#204160" fill-rule="nonzero" d="M103.824 135.229c1.503-3.969 3.72-9.066 6.696-14-.14 1.609.097 3.015 1.304 3.141-1.817 1.758-3.608 4.046-5.323 6.612-.893 1.287-1.814 2.715-2.677 4.247z" transform="translate(-265 -3746) rotate(42 -4597.517 2435.671)"/>
                <path fill="#204160" fill-rule="nonzero" d="M103.306 136.276c.075-.247 3.278-10.84 10-21-.005.011-1.12 2.793-1.345 5.143-3.417 5.032-5.963 10.228-7.689 14.275-.326.508-.643 1.027-.948 1.554l-.018.028z" transform="translate(-265 -3746) rotate(42 -4597.517 2435.671)"/>
                <path fill="#B9CCD4" fill-rule="nonzero" d="M104.345 138.797v-.027l.024-.027c.048-.08.096-.186.144-.266-.072.106-.12.213-.168.32zm2.583-7.256c1.745-2.617 3.568-4.952 5.417-6.744 0 0-2.588 2.668-5.417 6.744z" transform="translate(-265 -3746) rotate(42 -4597.517 2435.671)"/>
                <path fill="#204160" fill-rule="nonzero" d="M105.951 104.484c-.319-.251-.59-.555-.799-.913-.56-.968-.55-2.145-.424-3.248.54-4.618 2.96-8.892 6.189-12.305 3.231-3.414 7.245-6.036 11.4-8.305 4.115-2.25 8.598-4.23 13.301-4.23.133 0 .263.003.395.006.543.011 1.096.063 1.644.157-9.637 2.997-24.09 9.75-30.728 26.226-.35.866-.675 1.74-.978 2.612z" transform="translate(-265 -3746) rotate(42 -4597.517 2435.671)"/>
                <path fill="#2C5985" fill-rule="nonzero" d="M110.587 104.857c-.16 0-.322-.005-.483-.016.126-.334.254-.663.388-.995 6.436-16.046 20.486-22.584 29.8-25.478.688-.211 1.395-.382 2.116-.51.652.593 1.152 1.318 1.422 2.18.298.952.279 1.968.27 2.98-10.624 1.21-22.444 6.716-28.968 17.56-.72 1.198-1.411 2.5-2.069 3.878-.461.128-.925.24-1.4.316-.35.056-.713.085-1.076.085z" transform="translate(-265 -3746) rotate(42 -4597.517 2435.671)"/>
                <path fill="#2C5985" fill-rule="nonzero" d="M109.405 105.169c-1.004-.075-1.983-.378-2.717-.966.301-.878.624-1.758.973-2.63 6.61-16.589 21.001-23.387 30.597-26.404 1.657.28 3.274.935 4.43 1.996-.742.133-1.47.31-2.18.53-9.596 3.003-24.072 9.788-30.704 26.44-.137.345-.27.687-.4 1.034zM115.756 111.9c-.135-2.378 1.807-3.91 2.473-6.28.171-.61.025-1.368-.526-1.687-.213-.126-.454-.167-.704-.167-.198 0-.4.027-.596.061-.334.059-.661.137-.99.224 6.615-11.072 18.423-16.778 29.153-18.151.025.059.053.12.081.179.908 1.868 3.043 2.71 4.822 3.784 3.073 1.852 5.449 4.828 6.575 8.233.154.464.28.948.37 1.44-3.681-1.86-7.914-2.842-12.35-2.845h-.047c-6.547.006-13.517 2.149-19.748 6.744-.064.048-.129.093-.19.14l-.107.081c-.025.02-.05.037-.075.056-3.06 2.316-5.771 5.156-8.141 8.188z" transform="translate(-265 -3746) rotate(42 -4597.517 2435.671)"/>
                <path fill="#204160" fill-rule="nonzero" d="M109.879 90.066c1.436-.613 2.846-1.145 4.207-1.575 12.318-3.893 24.972.018 33.793 6.429-.75.838-1.487 1.681-1.835 2.735-8.763-6.215-21.148-9.946-33.231-6.197-.957-.505-1.967-.908-2.934-1.392z" transform="translate(-265 -3746) rotate(42 -4597.517 2435.671) rotate(-42 128.879 92.297)"/>
                <path fill="#2C5985" fill-rule="nonzero" d="M159.083 116.572c-.965 0-2.873-2.089-4.058-2.446-1.45-.443-2.712-1.85-3.892-2.79-2.884-2.301-6.268-3.512-10.377-3.512-1.95 0-4.061.272-6.36.83-3.076.747-5.95 1.104-8.937 2.183-2.023.732-3.77 2.114-5.794 2.804-.505.171-.96.262-1.367.262-.686 0-1.244-.253-1.693-.804 1.66-1.78 3.456-3.437 5.392-4.887 6.307-4.717 13.406-6.908 20.065-6.908 4.399 0 8.605.955 12.262 2.772-1.16.905-2.574 1.61-2.9 2.988-.307 1.296 1.146.328 2.206 1.15 1.063.823 2.697 1.217 3.716 2.092 1.018.872 2.722 4.665 2.228 5.903-.103.256-.273.363-.49.363zm-43.42-6.038c2.359-2.983 5.059-5.776 8.105-8.054.025-.02.05-.036.076-.056-.025.02-.05.036-.076.056-3.046 2.278-5.746 5.071-8.106 8.054zm8.667-6.435c.583-.444 1.19-.863 1.8-1.307-.61.444-1.217.863-1.8 1.307zm31.816-5.728c-3.663-1.83-7.883-2.796-12.296-2.799 4.416.003 8.63.969 12.296 2.799z" transform="translate(-265 -3746) rotate(42 -4597.517 2435.671)"/>
                <path fill="#375E54" fill-rule="nonzero" d="M126.021 104.981c.333-.25.64-.475.974-.725-.333.25-.64.475-.974.725zm-.424-1.652c5.994-4.326 12.7-6.343 19-6.348-6.3.008-13.006 2.022-19 6.348z" transform="translate(-265 -3746) rotate(42 -4597.517 2435.671)"/>
                <path fill="#2C5985" fill-rule="nonzero" d="M117.512 115.37c-.216-.277-.406-.628-.573-1.057-.22-.571-.33-1.091-.355-1.577 2.324-3.064 4.982-5.932 7.98-8.273.025-.02.05-.036.075-.056l.104-.082c.06-.048.124-.093.187-.141 6.108-4.644 12.94-6.806 19.358-6.814h.047c4.344.003 8.5.995 12.105 2.874.324 1.834.151 3.77-1.024 5.13-.228.265-.492.503-.77.729-3.6-1.866-7.74-2.846-12.071-2.846-6.556 0-13.545 2.25-19.754 7.093-1.906 1.49-3.674 3.191-5.309 5.02z" transform="translate(-265 -3746) rotate(42 -4597.517 2435.671)"/>
                <path fill="#999" fill-rule="nonzero" d="M37.209 167.016c-3.106-1.5-2.609-2.719-2.609-2.719.547.903 1.416 1.81 2.609 2.719zm46.362-.258l-.87-.979c.342.381.632.68.87.98zm-41.658.258c-4.196 0-7.339-2.719-7.339-2.719 2.83 1.68 5.37 2.431 7.647 2.431 2.138 0 4.045-.663 5.747-1.812-2.104 1.558-4.184 2.1-6.055 2.1zm32.405-8.358c-5.564-3.545-11.003-5.285-12.197-5.642 4.967 1.465 9.049 3.582 12.197 5.642z" transform="translate(-265 -3746) rotate(42 -4597.517 2435.671)"/>
                <path fill="#B1C6CF" fill-rule="nonzero" d="M34.908 166.711c-.017-.036-.03-.075-.044-.114-.134-.587-.232-1.175-.293-1.759 0 0 3.157.799 7.37.799 1.88 0 3.969-.16 6.082-.617 1.414-.282 2.689-.665 3.835-1.12-3.324 1.393-6.874 1.802-9.886 1.802-4.214 0-7.37-.799-7.37-.799.06.6.164 1.204.306 1.808zm48.663.305c-.022-.006-.038-.017-.059-.022-.833-.963-1.699-1.893-2.59-2.79 1.105 1.09 1.869 1.92 2.28 2.391l.176.2c.118.138.182.215.193.22zm-6.941-6.557c-6.986-5.213-14.602-7.384-14.602-7.384l-.1.305c.05-.234.067-.364.067-.364.08.023.161.047.242.074 1.2.37 6.662 2.168 12.25 5.834.77.518 1.484 1.035 2.143 1.535z" transform="translate(-265 -3746) rotate(42 -4597.517 2435.671)"/>
                <path fill="#095D6E" fill-rule="nonzero" d="M33.68 165.237c-.146-.565-.252-1.13-.315-1.693 0 0 3.244.748 7.575.748 3.096 0 6.745-.383 10.162-1.688 1.097-.401 2.083-.86 2.966-1.362 5.678-3.193 7.092-8.07 7.384-9.45l.103-.313s7.828 2.231 15.008 7.589c1.96 1.493 5.83 3.013 6.808 4.002.479.492-.228-.286.219.243-2.322-1.095-12.983-3.67-16.007-3.67-.364 0-.636.054-.791.173-6.53 4.968-16.28 7.057-21.286 8.082-1.989.41-3.654.58-5.047.58-4.506 0-6.171-1.8-6.78-3.24z" transform="translate(-265 -3746) rotate(42 -4597.517 2435.671)"/>
                <path fill="#2C4640" fill-rule="nonzero" d="M54.233 163.53c6.21-3.826 7-10 7-10s-.017.136-.065.38c-.275 1.405-1.602 6.37-6.935 9.62z" transform="translate(-265 -3746) rotate(42 -4597.517 2435.671)"/>
                <path fill="#D9D9D9" fill-rule="nonzero" d="M219.68 196.633c3.029-1.673 5.683-3.35 8-5-2.348 1.713-5.273 3.673-8 5z" transform="translate(-265 -3746) rotate(42 -4597.517 2435.671)"/>
                <path fill="#9D3C29" fill-rule="nonzero" d="M164.246 83.932c-.6-.63-1.26-1.26-1.89-1.89.09.06.45.27 1.08.63l.81 1.26z" transform="translate(-265 -3746) rotate(42 -4597.517 2435.671)"/>
                <path fill="#C62E0B" fill-rule="nonzero" d="M220.232 196.721c-.016-.495-.041-.995-.077-1.498-.169-2.562-.57-5.27-1.215-8.127-.003-.016-.008-.03-.01-.05-.006-.013-.01-.03-.012-.044 0 0 0 .003-.003.003-.052-.531-.772-6.96-4.845-17.92l.202-.068-3.074-7.045c-.066-.156-.135-.311-.202-.467l-3.19-7.312-.172.125c-1.342-2.702-2.841-5.547-4.515-8.527h-.003c-12.155-22.56-19.294-35.166-25.782-44.696-4.757-7.067-9.878-13.69-15.437-19.257l-.075-.117c1.422.848 17.855 11.111 41.513 46.094 24.77 36.622 29.487 59.898 29.487 59.898s-1.926 1.718-4.607 3.775c-2.313 1.726-4.961 3.482-7.983 5.233z" transform="translate(-265 -3746) rotate(42 -4597.517 2435.671)"/>
                <path fill="#BFD0D8" fill-rule="nonzero" d="M221.47 197.975c-.18-.985-.45-1.992-.81-3 .39 1.008.66 2.01.84 3h-.03z" transform="translate(-265 -3746) rotate(42 -4597.517 2435.671)"/>
                <path fill="#AA130C" fill-rule="nonzero" d="M220.386 195.05c-.422-2.51-1.4-5.163-2.987-7.962 0 0-.006-.011-.013-.036.007 0 .007-.002.007-.002.006.013.013.03.026.043.007.019.02.032.027.049 1.56 2.78 2.531 5.414 2.94 7.908z" transform="translate(-265 -3746) rotate(42 -4597.517 2435.671)"/>
                <path fill="#203731" fill-rule="nonzero" d="M66.544 240.082l.03-.03s-.03 0-.03.03z" transform="translate(-265 -3746) rotate(42 -4597.517 2435.671)"/>
                <path fill="#095D6E" fill-rule="nonzero" d="M93.373 289.569c1.843-3.697-2.171-11.15-7.756-19.2-9.195-13.25-22.927-27.946-23.86-28.917.958-.49 2.201-1.41 2.987-1.593 3.165 3.574 4.478 5.119 7.698 8.802 7.836 8.965 18.007 19.163 29.572 29.66 2.383 2.2 3.78 3.457 3.78 3.457-1.187.487-2.72 1.317-4.3 2.253-.01.003-.015.009-.024.011h.003c-.274.163-.545.326-.819.494-2.76 1.584-5.111 3.399-7.28 5.033z" transform="translate(-265 -3746) rotate(42 -4597.517 2435.671) rotate(1 83.775 264.714)"/>
                <path fill="#B1C6CF" fill-rule="nonzero" d="M101.47 278.347c-10.47-10.402-19.63-20.463-27-29 10.712 12.312 21.629 23.564 27 29z" transform="translate(-265 -3746) rotate(42 -4597.517 2435.671)"/>
                <path fill="#2C4640" fill-rule="nonzero" d="M93.507 289.334v-.003c2.057-1.35 4.384-2.69 7-3.997-3.504 1.854-7 4-7 4z" transform="translate(-265 -3746) rotate(42 -4597.517 2435.671)"/>
                <path fill="#345370" fill-rule="nonzero" d="M101.637 285.163h-.03c.09-.03.15-.09.24-.12-.06.03-.15.09-.21.12z" transform="translate(-265 -3746) rotate(42 -4597.517 2435.671)"/>
                <path fill="#2C5985" fill-rule="nonzero" d="M99.048 289.187s-21.927 16.295-12.76 29c0 0-4.393-14.08 12.76-29z" transform="translate(-265 -3746) rotate(42 -4597.517 2435.671)"/>
                <path fill="#C62E0B" fill-rule="nonzero" d="M168.502 73.394c-4.431 0-9-.378-13.782-1.165-1.536-2.258-3.163-4.647-4.835-7.094 6.898 1.75 13.327 3.275 19.194 3.275 1.82 0 3.587-.148 5.296-.48.19-.038.379-.075.566-.116.819-.161 1.627-.36 2.427-.606-.003-.003-.008-.006-.011-.006.003 0 .008.003.011.006 2.734-.833 5.33-2.186 7.628-4.243l.115-.102c2.781-2.283 4.565-4.763 5.379-6.34.437-.703.833-1.415 1.184-2.13l2.21 3.367s-2.238 12.914-13.227 14.666c-3.977.636-8.007.968-12.155.968z" transform="translate(-265 -3746) rotate(42 -4597.517 2435.671)"/>
                <path fill="#BFD0D8" fill-rule="nonzero" d="M175.325 69.618c.024-.026.045-.04.07-.066.995-.78 1.966-1.758 2.916-2.934.004 0 .01.013.014.027-.988 1.202-1.987 2.18-3 2.973z" transform="translate(-265 -3746) rotate(42 -4597.517 2435.671)"/>
                <path fill="#2BC8D7" fill-rule="nonzero" d="M59.342 224.8s32.77 45.967 45.84 52.376c13.067 6.41 35.18 9.123 34.123 10.514-1.054 1.395-38.859-9.934-79.963-62.89z" transform="translate(-265 -3746) rotate(42 -4597.517 2435.671)"/>
                <path fill="#0C8F9B" fill-rule="nonzero" d="M58.39 248.349s10.44 37.794 16.679 48.45c0 0 2.67.604 5.322 2.55 0 0-14.037-22.25-22-51z" transform="translate(-265 -3746) rotate(42 -4597.517 2435.671)"/>
                <path fill="#2BC8D7" fill-rule="nonzero" d="M48.011 197.978s-1.286-3.165-.863-5.63c0 0 15.745-19.882 37.915-26.37 0 0-36.18 22.176-37.052 32zM93.249 158.536s.37 2.686 3.693 6.985c0 0 2.005-26.341 32.307-51 0 0-16.31 5.925-36 44.015zM6.088 66.301s19.487-33.265 64-26.254c0 0-9.122-12.628-38.244-3.33-9.252 2.957-20.06 13.87-25.756 29.584zM149.267 26.864s13.652-9.233 27 1.241c0 0-10.585-6.178-27-1.24zM158.525 59.529s20.434 2.228 25-7.836c0 0-7.25 18.134-25 7.836z" transform="translate(-265 -3746) rotate(42 -4597.517 2435.671)"/>
                <path fill="#B9CCD4" fill-rule="nonzero" d="M91.843 162.12c.06-.03.09-.06.09-.06s-.03.03-.09.06z" transform="translate(-265 -3746) rotate(42 -4597.517 2435.671)"/>
                <path fill="#A9BFCA" fill-rule="nonzero" d="M91.768 162.12c.09-.03.18-.06.24-.06-.06 0-.15.03-.24.06z" transform="translate(-265 -3746) rotate(42 -4597.517 2435.671)"/>
                <path fill="#2A423D" fill-rule="nonzero" d="M90.926 174.145s-.03 0-.03-.014c-.21-1-.42-2-.57-2.986.15.986.36 1.986.6 3z" transform="translate(-265 -3746) rotate(42 -4597.517 2435.671)"/>
                <path fill="#244A6E" fill-rule="nonzero" d="M99.912 189.838c-5.04-3.152-9.978-7.669-12.59-14 .934.244 1.748.882 2.51 1.473l.312.242c2.827 4.048 10.262 7.989 17.177 10.488-.36.346-.95.541-1.515.541-.105 0-.21-.006-.312-.02-.96-.134-1.8-.661-2.73-.923-.285-.082-.597-.126-.903-.126-.699 0-1.378.228-1.678.778-.255.472-.153 1.034-.271 1.547z" transform="translate(-265 -3746) rotate(42 -4597.517 2435.671) rotate(15 97.321 182.838)"/>
                <path fill="#204160" fill-rule="nonzero" d="M109.126 184.47c-7.895-3.813-15.693-9.706-18.92-15.882 5.226 5.319 11.231 9.495 17.648 12.26 1.074.461 2.367 1.221 2.352 2.612-.003.44-.047 1.032-.284 1.339l-.796-.33z" transform="translate(-265 -3746) rotate(42 -4597.517 2435.671) rotate(3 100.206 176.694)"/>
                <path fill="#244A6E" fill-rule="nonzero" d="M101.158 187.91c-2.96-2.104-5.865-4.804-7.89-8.154-1.146-1.894-1.88-3.72-2.322-5.43.28.128.606.226 1.004.285-.412-.562-.081-1.28.503-1.7 2.201 6.337 6.815 10.77 11.493 13.797-.208.09-.425.154-.645.192-.208.032-.417.048-.625.048-.562 0-1.129-.102-1.67-.19.18.421.219.815.152 1.153z" transform="translate(-265 -3746) rotate(42 -4597.517 2435.671)"/>
                <path fill="#32554C" fill-rule="nonzero" d="M103.224 186.035c-4.4-3.152-8.717-7.666-10.998-14 .003.003.006.003.009.003 2.28 6.328 6.591 10.842 10.991 13.992l-.002.005z" transform="translate(-265 -3746) rotate(42 -4597.517 2435.671)"/>
                <path fill="#204160" fill-rule="nonzero" d="M101.297 187.81c-4.438-3.21-8.816-7.91-10.905-14.63.28-.226.622-.37.965-.37h.026c.204.006.401.04.594.096 2.16 6.14 6.248 10.515 10.415 13.57-.005.037-.013.073-.024.107-.148.562-.57.985-1.07 1.228z" transform="translate(-265 -3746) rotate(42 -4597.517 2435.671)"/>
            </g>
        </g>
    </g>
</svg>
