<svg width="78" height="71" viewBox="0 0 78 71" fill="none" xmlns="http://www.w3.org/2000/svg">
<path d="M75.7136 52.8983C75.1595 54.6908 73.9964 56.0872 72.1202 56.0872C45.3355 56.0872 26.5 56.0872 5.93123 56.0872C4.06024 56.0872 2.90771 55.2877 2.3557 53.5C2.04052 52.4792 2.3557 50.1627 2.3557 50.1627H75.7136C75.7136 50.1627 76.029 51.8776 75.7136 52.8983ZM45.3355 63.9656H32.665V58.2287H45.3355V63.9656ZM52 69H26L29 66.1072H49L52 69ZM2.3557 5.40858C2.35572 3.52125 4.04389 2.15715 5.93123 2.15715C28 2.15717 49.4267 2.15711 72.1202 2.15715C74.0127 2.15715 75.6182 3.51849 75.7136 5.40858C76.5 21 75.7136 48.0055 75.7136 48.0055H2.3557C2.3557 48.0055 2.35556 22.9997 2.3557 5.40858ZM72.1202 3.12777e-08C68.5 0.000353779 26.5 5.71325e-05 5.93123 3.12777e-08C2.7965 -8.67108e-06 -2.0538e-05 2.27386 1.51557e-09 5.40858C0.000141472 26.9997 -6.62804e-05 37 1.51557e-09 52.8983C1.29852e-05 56.0125 2.81698 58.2287 5.93123 58.2287C13.5 58.2287 30.2926 58.2287 30.2926 58.2287V63.9656H28.5733L20.5 71H23.2779H54.7908H57L49.4267 63.9656H47.7767V58.2287C47.7767 58.2287 61.5 58.2287 72.1202 58.2287C75.2195 58.2287 78 55.9976 78 52.8983C78 37.5 78 5.40858 78 5.40858C78 3 75.7404 -0.000353716 72.1202 3.12777e-08Z" fill="#0FA3B1"/>
<path d="M26.2939 39.1327V43.0669L30.7921 39.1327H26.2939ZM25.6469 45C25.5651 45 25.4787 44.9887 25.4011 44.9585C25.1595 44.8716 25 44.664 25 44.4337V38.5663C25 38.253 25.2889 38 25.6469 38H32.3534C32.6121 38 32.8494 38.1397 32.9486 38.3511C33.052 38.5625 32.996 38.8042 32.8105 38.9666L26.1041 44.8376C25.9833 44.9434 25.8151 45 25.6469 45Z" fill="#0FA3B1"/>
<path d="M8.29978 22.1998V43.8002L24.963 43.7882V38.1691C24.963 37.8372 25.2532 37.5692 25.6129 37.5692H31.7002V22.1998H8.29978ZM7.64989 45C7.47655 45 7.31195 44.94 7.1906 44.828C7.06499 44.716 7 44.56 7 44.4001V21.5999C7 21.2719 7.29032 21 7.64989 21H32.3501C32.7097 21 33 21.2719 33 21.5999V38.1691C33 38.501 32.7097 38.769 32.3501 38.769H26.2628V44.3841C26.2628 44.716 25.9725 44.984 25.6129 44.984L7.64989 45Z" fill="#0FA3B1"/>
<path d="M18.58 39.6414H20.4199V28.7408C20.4199 28.3694 20.728 28.0615 21.1098 28.0615H26.6201V26.3586H12.3799V28.0615H17.8901C18.2719 28.0615 18.58 28.3694 18.58 28.7408V39.6414ZM21.1098 41H17.8901C17.5084 41 17.2001 40.6966 17.2001 40.3207V29.4201H11.6899C11.3127 29.4201 11 29.1166 11 28.7408V25.6793C11 25.3035 11.3127 25 11.6899 25H27.3101C27.6918 25 28 25.3035 28 25.6793V28.7408C28 29.1166 27.6918 29.4201 27.3101 29.4201H21.7997V40.3207C21.7997 40.6966 21.4917 41 21.1098 41Z" fill="#D5330D"/>
<path d="M53.7636 43.2877H69.2364V31.7123H53.7636V43.2877ZM70.1182 45H52.8818C52.3939 45 52 44.6175 52 44.1438V30.8562C52 30.3881 52.3939 30 52.8818 30H70.1182C70.6061 30 71 30.3881 71 30.8562V44.1438C71 44.6175 70.6061 45 70.1182 45Z" fill="#0FA3B1"/>
<path d="M68.5444 21H38.4556C37.0966 21 36 20.5533 36 20C36 19.4466 37.0966 19 38.4556 19H68.5444C69.9034 19 71 19.4466 71 20C71 20.5533 69.9034 21 68.5444 21Z" fill="#0FA3B1"/>
<path d="M70 8.00002C50.5 8.00002 9.00029 8.00002 9.00029 8.00002C8.50045 8.00002 8 7.55238 8 7.00002C8 6.44765 8.5 6.00002 9.00029 6.00002C9.00029 6.00002 49 5.99998 70 6.00002C70.5523 6.00002 71 6.44773 71 7.00002C71 7.5523 70.5523 8.00002 70 8.00002Z" fill="#2BC8D7"/>
<path d="M70 15C70 15 10.0009 15 9.00046 15C8 15 8 14 8 14C8 14 8.00043 13 9.00046 13H70C70.5 13 71 13.4467 71 14C71 14.5533 70.5 15 70 15Z" fill="#2BC8D7"/>
<path d="M49.0178 33H36.9822C36.4386 33 36 32.5533 36 32C36 31.4466 36.4386 31 36.9822 31H49.0178C49.5614 31 50 31.4466 50 32C50 32.5533 49.5614 33 49.0178 33Z" fill="#2BC8D7"/>
<path d="M49.0178 39H36.9822C36.4386 39 36 38.5533 36 38C36 37.4466 36.4386 37 36.9822 37H49.0178C49.5614 37 50 37.4466 50 38C50 38.5533 49.5614 39 49.0178 39Z" fill="#2BC8D7"/>
<path d="M49.0178 45H36.9822C36.4386 45 36 44.5533 36 44C36 43.4466 36.4386 43 36.9822 43H49.0178C49.5614 43 50 43.4466 50 44C50 44.5533 49.5614 45 49.0178 45Z" fill="#2BC8D7"/>
<path d="M70 21H37.0001C36.5 21 36 20.5533 36 20C36 19.4466 36.5 19 37.0003 19H70C70.5 19 71 19.4466 71 20C71 20.5533 70.5 21 70 21Z" fill="#2BC8D7"/>
<path d="M70 27H37.0001C36.5 27 36 26.5533 36 26C36 25.4466 36.5 25 37.0003 25H70C70.5 25 71 25.4466 71 26C71 26.5533 70.5 27 70 27Z" fill="#2BC8D7"/>
</svg>
