<svg width="118" height="85" viewBox="0 0 118 85" fill="none" xmlns="http://www.w3.org/2000/svg">
<path d="M115.606 69.8638H105.769L105.925 69.721L106.133 67.8805L104.988 66.4208L102.456 65.1039L103.392 62.1212H106.202L108.805 59.6778V55.7748L106.202 53.3314H103.392L102.456 50.3644L104.988 49.0952L106.133 47.6513L105.925 45.7951L103.756 42.3521L102.16 41.2256L100.131 41.4953L97.6843 42.8122L95.2901 40.6385L96.7477 38.3222L96.9557 36.5452L95.7936 35.0855L92.0462 33.1022L88.5069 33.959L87.0499 36.2754L83.8055 35.4187V32.8325L81.1339 30.4526H76.7967L74.194 32.8325V35.4187L70.9326 36.2754L69.4925 33.959L65.9538 33.1022L62.1889 35.0855L60.9569 36.5452L61.2523 38.3222L62.6919 40.6385L60.2458 42.8122L57.7824 41.4953L55.7525 41.2256L54.1737 42.3521L52.0744 45.7951L51.7795 47.6513L53.0116 49.0952L55.5444 50.3644L54.5904 53.3314H51.7795L49.108 55.7748V59.6778L51.7795 62.1212H54.5904L55.5444 65.1039L53.0116 66.4208L51.7795 67.8805L52.0744 69.721L52.2132 69.8638H42.3767V25.9626H115.606V69.8638ZM101.657 71.9739L101.518 72.1009H101.362L97.9622 70.3239L96.4528 70.5936L93.0522 73.7669L92.7573 75.1472L94.6484 78.1935L94.7178 78.3838L94.5791 78.5266L90.8142 80.494H90.6755L90.5193 80.367L88.6456 77.3208L87.1193 76.8607L82.4348 78.0506L81.342 79.1137V82.6201L81.1339 82.8105H76.7967L76.6405 82.6201V79.1137L75.5647 78.0506L70.7939 76.8607L70.4297 76.7972L69.3538 77.3208L67.4627 80.367L67.324 80.494H67.0984L63.351 78.5266L63.2817 78.3838V78.1935L65.2247 75.1472L64.9298 73.7669L61.4604 70.5936L59.951 70.3239L56.6197 72.1009H56.4116L56.2554 71.9739L54.1737 68.5945L54.0869 68.4675L54.1737 68.2772L57.5568 66.5478L58.0598 65.1675L56.7589 60.8677L55.6138 59.9475H51.7795L51.4846 59.6778V55.7748L51.7795 55.5844H55.6138L56.7589 54.6483L58.0598 50.2851L57.5568 48.9682L54.1737 47.1754L54.0869 47.0484L54.1737 46.858L56.2554 43.4786L56.4116 43.4151H56.6197L59.951 45.1287L61.4604 44.9383L64.9298 41.7016L65.2247 40.3054L63.2817 37.275V37.0687L63.351 36.9417L67.0984 35.022L67.4627 35.0855L69.3538 38.1318L70.7939 38.5919L75.5647 37.4654L76.6405 36.3389V32.8325L76.7967 32.6421H81.1339L81.342 32.8325V36.3389L82.4348 37.4654L87.1193 38.5919L88.6456 38.1318L90.5193 35.0855L90.8836 35.022L94.5791 36.9417L94.7178 37.0687L94.6484 37.275L92.7573 40.3054L93.0522 41.7016L96.4528 44.9383L97.9622 45.1287L101.362 43.4151H101.518L101.657 43.4786L103.895 46.858V47.0484L103.756 47.1754L100.426 48.9682L99.9222 50.2851L101.154 54.6483L102.386 55.5844H106.202L106.428 55.7748V59.6778L106.202 59.9475H102.386L101.154 60.8677L99.9222 65.1675L100.426 66.5478L103.756 68.2772L103.895 68.4675L103.826 68.5945L101.657 71.9739ZM42.3767 15.1895H115.606V23.773H42.3767V15.1895ZM116.768 13H41.1621L40 14.063V70.9903L41.1621 72.0374H53.5839L54.1737 73.1005L55.7525 74.227L57.7824 73.9571L60.2458 72.6403L62.6919 74.8775L61.2523 77.1304L60.9569 78.9074L62.1889 80.367L65.9538 82.3503L67.8968 82.6201L69.4925 81.4936L70.9326 79.2405L74.194 80.0339V82.6201L76.7967 85H81.1339L83.8055 82.6201V80.0339L87.0499 79.2405L88.5069 81.4936L90.0857 82.6201L92.0462 82.3503L95.7936 80.367L96.9557 78.9074L96.7477 77.1304L95.2901 74.8775L97.6843 72.6403L100.131 73.9571L102.16 74.227L103.756 73.1005L104.399 72.0374H116.768L118 70.9903V14.063L116.768 13Z" fill="#0FA3B1"/>
<path d="M31.5064 1C19.2389 1 8.90533 9.3155 7.47774 20.1546L1.25996 26.9962L1 27.2823V27.6688V32.1659V32.6126L1.33277 32.9107L9.33626 40.0802L9.62109 40.3353H10.0035H10.874H11.2518L11.5352 40.0855L15.1081 36.9366L15.4469 36.6379V36.1863V23.6483V23.2011L15.1136 22.903L11.5407 19.7073L11.3884 19.5712C13.098 11.1726 21.3943 4.60358 31.5064 4.60358C41.6058 4.60358 49.9019 11.1724 51.6114 19.5713L51.4593 19.7073L47.8862 22.9029L47.5529 23.2011V23.6483V36.1863V36.579L47.82 36.8667L50.4195 39.6668C50.0065 42.2418 48.8518 44.1706 46.8695 45.5904C44.784 47.084 41.7014 48.0721 37.3945 48.5186L34.2776 46.3985L34.023 46.2254H33.7152H29.3887H29.0068L28.7221 46.48L25.1489 49.6756L24.8156 49.9738V50.421V50.8044V51.2516L25.1489 51.5498L28.7221 54.7454L29.0068 55H29.3887H33.7152H34.0689L34.3439 54.7776L37.6323 52.1188C42.6658 51.6047 46.5882 50.3935 49.3778 48.3318C52.1689 46.269 53.7401 43.4183 54.2061 39.8187L61.6794 32.8997L62 32.6028V32.1659V27.6688V27.2823L61.74 26.9962L55.5221 20.1546C54.0945 9.31581 43.7615 1 31.5064 1ZM51.8795 23.6127V30.1788V30.6433L52.2346 30.943L53.157 31.7215L53.802 32.2659L54.447 31.7215L55.3695 30.943L55.7245 30.6433V30.1788V25.0824L58.2199 28.0348V31.7186L52.5624 36.7784H52.5079L51.3459 35.7391V24.0934L51.8795 23.6127ZM4.77992 28.0316L7.27551 25.045V30.1788V30.6433L7.63053 30.943L8.553 31.7215L9.21699 32.2819L9.86462 31.7027L10.7352 30.9242L11.0685 30.626V30.1788V23.5659L11.6539 24.0934V35.7391L10.492 36.7784H10.3878L4.77992 31.7211V28.0316ZM33.3251 49.771L34.2312 50.6049L33.3332 51.4079H29.7706L28.8727 50.6049L29.7788 49.771H33.3251Z" fill="#D5330D" stroke="#0A2239" stroke-width="2"/>
<path d="M93 58.5C93 65.9242 86.7642 72 79 72C71.2358 72 65 65.9242 65 58.5C65 51.0758 71.2358 45 79 45C86.7642 45 93 51.0758 93 58.5Z" stroke="#2BC8D7" stroke-width="2"/>
<path d="M77.4383 64.4942L78.357 65H78.5039L79.4961 64.3591L86 53.5342L85.4671 52L83.7952 52.4888L78.1916 61.7626L73.9842 56.839L72.2205 56.6368L72 58.2553L77.4383 64.4942Z" fill="#2BC8D7"/>
</svg>
