<svg xmlns="http://www.w3.org/2000/svg" xmlns:xlink="http://www.w3.org/1999/xlink" width="239" height="180" viewBox="0 0 239 180">
    <defs>
        <linearGradient id="9zlzprpvac" x1="105.685%" x2="-8.68%" y1="37.59%" y2="64.24%">
            <stop offset="0%" stop-color="#0C7489"/>
            <stop offset="100%" stop-color="#0C7489"/>
        </linearGradient>
        <linearGradient id="t96vv37lid" x1="103.172%" x2="10.181%" y1="78.847%" y2="43.867%">
            <stop offset="0%" stop-color="#0C7489"/>
            <stop offset="100%" stop-color="#A9DCE6"/>
        </linearGradient>
        <linearGradient id="34bfmik87g" x1="7.066%" x2="96.861%" y1="47.657%" y2="49.805%">
            <stop offset="0%" stop-color="#D5330D"/>
            <stop offset="100%" stop-color="#D5330D"/>
        </linearGradient>
        <filter id="gd576ssowa" width="127%" height="126.6%" x="-13.5%" y="-11.7%" filterUnits="objectBoundingBox">
            <feOffset dy="2" in="SourceAlpha" result="shadowOffsetOuter1"/>
            <feGaussianBlur in="shadowOffsetOuter1" result="shadowBlurOuter1" stdDeviation="5"/>
            <feColorMatrix in="shadowBlurOuter1" values="0 0 0 0 0 0 0 0 0 0 0 0 0 0 0 0 0 0 0.812254152 0"/>
        </filter>
        <filter id="y8xea80jme" width="113.8%" height="136.4%" x="-6.9%" y="-15.7%" filterUnits="objectBoundingBox">
            <feOffset dy="2" in="SourceAlpha" result="shadowOffsetOuter1"/>
            <feGaussianBlur in="shadowOffsetOuter1" result="shadowBlurOuter1" stdDeviation="4.5"/>
            <feColorMatrix in="shadowBlurOuter1" values="0 0 0 0 0 0 0 0 0 0 0 0 0 0 0 0 0 0 0.324874344 0"/>
        </filter>
        <path id="hilfb3z45b" d="M121.472 79.936c16.78 22.27 16.125 53.34-1.578 74.897-2.884 3.379-6.108 6.442-9.621 9.142-21.282 16.463-50.8 16.477-72.066.033-4.17-3.239-7.882-7.04-11.036-11.295-5.23-7.124-8.835-15.334-10.556-24.04-2.368-11.06-1.538-22.58 2.39-33.181 6.958-19.071 22.959-33.3 42.532-37.82 19.573-4.521 40.068 1.278 54.477 15.414 1.989 2.139 3.813 4.429 5.458 6.85z"/>
        <path id="uk4qotu2wf" d="M141.237 72.342c-7.486.136-14.959.693-22.382 1.668 2.812 3.694 5.243 7.66 7.256 11.838 25.121-2.617 39.05-.019 41.905 2.703 0 .71-1.43 3.08-6.908 7.108-24.982 15.305-52.407 26.25-81.09 32.364-55.722 13.999-91.674 11.884-96.196 7.031 0-.71 1.43-3.08 6.79-7.108 6.85-4.798 14.244-8.776 22.03-11.85-.528-4.683-.526-9.41.006-14.092-10.651 4.16-20.765 9.572-30.128 16.118-9.408 6.99-13.34 13.86-11.914 20.372 2.495 9.59 15.232 13.966 39.161 13.362 24.54-1.12 48.888-4.864 72.627-11.164 30.422-6.537 59.499-18.205 85.971-34.498 9.408-6.99 13.221-13.86 11.915-20.372-2.734-9.708-15.232-14.083-39.043-13.48z"/>
    </defs>
    <g fill="none" fill-rule="evenodd">
        <g>
            <g transform="translate(-130 -3607) translate(120 3607)">
                <g fill-rule="nonzero">
                    <g transform="rotate(91 96.654 129.932) rotate(-106 74.461 116.248)">
                        <use fill="#000" filter="url(#gd576ssowa)" xlink:href="#hilfb3z45b"/>
                        <use fill="#0FA3B1" xlink:href="#hilfb3z45b"/>
                    </g>
                    <path fill="#0C7489" d="M128.894 69.67c9.514 12.662 13.594 28.582 11.343 44.258-2.252 15.676-10.65 29.823-23.347 39.329-21.447 16.352-51.195 16.366-72.627.034-4.2-3.218-7.942-6.993-11.122-11.219-5.27-7.075-8.903-15.229-10.637-23.875h.837c1.5.363 2.843 1.2 3.828 2.386 2.656 3.516 5.574 6.828 8.73 9.906 3.336 3.213 8.625 3.21 11.964-.006.719-.836 1.198-2.03 2.155-2.628.958-.597 4.666.715 6.46 2.505 3.663 3.67 8.57 5.84 13.757 6.083 5.207-.01 9.912-3.11 11.968-7.886 1.917-5.494.006-11.94 3.358-16.599 3.4-2.753 8.13-3.18 11.966-1.08 3.775 2.286 7.41 4.796 10.884 7.517 3.472 2.477 7.941 3.1 11.964 1.666 4.069-2.825 5.974-7.858 4.792-12.658-1.39-4.61-3.443-8.993-6.096-13.012-2.589-5.226-3.86-11.005-3.701-16.834-.18-5.867 2.61-11.433 7.425-14.81 2.187 2.168 4.225 4.48 6.099 6.923z" transform="rotate(91 96.654 129.932) rotate(-106 81.673 114.139)"/>
                    <path fill="#0FA3B1" d="M42.306 127.647c1.92-1.766 4.222-3.07 6.73-3.813 11.153-2.402 22.807-.355 32.439 5.699 2.522 1.308 6.126 2.497 7.69-.004 1.562-2.5-1.68-5.713-1.559-8.332.015-1.752 1.134-3.309 2.8-3.895 1.668-.587 3.526-.078 4.65 1.273 2.043 1.785 3.724 4.284 6.246 5.235 6.487 2.258 10.095-5.362 12.981-9.53 2.886-4.167 3.006-5.357 4.93-7.858 1.923-2.5 6.25-4.645 9.255-7.385 3.81-4.146 5.764-9.645 5.414-15.24-.358-5.548-.356-11.115.008-16.664.348-2.104.996-4.149 1.925-6.072 8.547 24.86-.373 52.347-21.95 67.637-21.576 15.29-50.706 14.766-71.679-1.29l.12.239z" transform="rotate(91 96.654 129.932) rotate(-106 90.606 100.44)"/>
                    <path fill="url(#9zlzprpvac)" d="M83.24 121.96c-1.381 1.164-2.626 2.48-3.71 3.921-4.43 6.653-.007 15.915-3.002 23.755-1.945 4.409-6.082 7.479-10.89 8.081-4.762.56-9.548-.808-13.279-3.794-2.453-2.26-5.049-4.361-7.773-6.29-3.396-1.684-7.34-1.912-10.912-.631-3.573 1.28-6.462 3.958-7.994 7.409-1.078 2.613-.842 8.076-3.355 10.096-5.266 4.16-5.261-6.292-8.73-8.784-2.324-1.36-5.21-1.36-7.537.003-.797.365-1.558.803-2.273 1.308 5.676-15.225 17.38-27.485 32.389-33.931 15.01-6.446 32.016-6.516 47.067-.192v-.95z" transform="rotate(91 96.654 129.932) rotate(-106 43.513 141.846)"/>
                    <path fill="url(#t96vv37lid)" d="M144.004 142.23c-2.942 3.368-6.232 6.422-9.817 9.112-21.715 16.41-51.834 16.425-73.533.034-4.255-3.228-8.043-7.016-11.261-11.258-5.337-7.1-9.015-15.284-10.771-23.961-2.416-11.025-1.57-22.507 2.438-33.074 1.24-3.366 2.782-6.615 4.608-9.709 4.483-.96-7.16 28.523 4.46 50.207 33.89 63.613 93.15 18.17 93.876 18.65z" transform="rotate(91 96.654 129.932) rotate(-106 90.64 118.505)"/>
                    <g transform="rotate(91 96.654 129.932) rotate(-106 75.425 112.1)">
                        <use fill="#000" filter="url(#y8xea80jme)" xlink:href="#uk4qotu2wf"/>
                        <use fill="url(#34bfmik87g)" xlink:href="#uk4qotu2wf"/>
                    </g>
                </g>
                <circle cx="214" cy="140" r="6" fill="#0A2239"/>
                <circle cx="171" cy="12" r="3" fill="#0A2239"/>
                <circle cx="146" cy="2" r="2" fill="#0A2239"/>
                <ellipse cx="18.5" cy="77" fill="#0A2239" rx="4.5" ry="4"/>
                <circle cx="242" cy="109" r="7" fill="#0A2239"/>
                <circle cx="226.5" cy="61.5" r="1.5" fill="#0A2239"/>
            </g>
        </g>
    </g>
</svg>
