<svg xmlns="http://www.w3.org/2000/svg" width="90" height="90" viewBox="0 0 90 90">
    <g fill="none" fill-rule="evenodd" stroke-linecap="round" stroke-linejoin="round" stroke-width="2">
        <path stroke="#0FA3B1" d="M82.94 58.937C93.4 42.842 90.02 21.446 75.104 9.362 60.189-2.72 38.557-1.59 24.983 11.983 11.41 25.557 10.28 47.19 22.363 62.105 34.445 77.02 55.842 80.4 71.936 69.939L88.998 76 82.94 58.936z"/>
        <path stroke="#0C7489" d="M49 84.764a32.195 32.195 0 0 1-33.414-.904L1 89l5.18-14.471A31.508 31.508 0 0 1 5.497 41"/>
        <path stroke="#D5330D" d="M28 38h8.471c4.702-3.523 8.951-6.765 11.295-12.233 1.78-4.228 1.412-5.877 1.412-10.316 0 0 4.236-2.819 5.648 5.637.465 2.819 0 9.865-1.412 12.684M66 39a3 3 0 0 1 0 6h-3M65 45a3 3 0 0 1 0 6h-3M63.182 51C64.738 51 66 52.12 66 53.5S64.738 56 63.182 56H53.98a55.664 55.664 0 0 1-9.68-.85l-2.255-.4H35"/>
        <path stroke="#D5330D" d="M53 34h13.09c1.608 0 2.91 1.12 2.91 2.5S67.698 39 66.09 39h-2.908"/>
    </g>
</svg>
