<svg width="581" height="455" viewBox="0 0 581 455" fill="none" xmlns="http://www.w3.org/2000/svg">
<path fill-rule="evenodd" clip-rule="evenodd" d="M144.7 454.845C115.612 454.845 86.4951 446.422 62.4041 429.838C42.8428 416.363 28.7055 399.855 18.896 381.423C8.08827 361.158 2.49685 338.514 0.679202 314.878C-0.728751 296.608 0.125253 277.744 2.56609 258.926C5.39354 236.76 12.9526 212.319 32.687 202.402C39.9749 198.745 46.9166 197.129 53.5005 197.129C53.9506 197.129 54.3949 197.135 54.845 197.152C62.4041 197.386 69.4958 199.661 76.1951 203.219C79.9458 205.202 83.6388 207.594 87.1587 210.219C92.4096 214.127 97.3721 218.619 102.161 223.285C106.431 227.368 110.528 231.685 114.51 235.768C116.068 237.343 117.568 238.918 119.068 240.435C120.915 242.301 122.704 244.11 124.492 245.801C125.531 246.793 126.57 247.784 127.724 248.718C132.802 252.976 138.918 256.768 144.862 257.817C146.01 258.039 147.158 258.156 148.295 258.156C151.382 258.156 154.377 257.281 157.037 255.193C159.287 253.443 160.788 251.226 161.769 248.718C164.423 242.185 163.442 233.61 162.23 226.202C161.076 219.26 160.153 212.202 159.403 205.144C155.537 167.753 158.191 129.429 173.078 95.2468C190.851 54.5896 228.589 21.0488 272.328 17.8406C274.866 17.6597 277.417 17.5781 279.956 17.5781C289.881 17.5781 299.794 18.8147 309.719 20.3488C324.462 22.5596 339.211 25.377 353.989 25.377C357.543 25.377 361.092 25.2137 364.652 24.8404C370.342 24.2337 375.927 23.1079 381.45 21.6788C398.259 17.3331 414.502 10.1816 431.53 6.40754C440.468 4.41259 449.632 3.43262 458.801 3.43262C470.878 3.43262 482.967 5.1359 494.571 8.46665C513.087 13.7865 530.375 23.2479 544.455 36.5651C574.056 64.5643 587.905 109.246 577.634 148.97C568.69 183.444 537.588 201.469 518.892 229.643C503.601 252.568 498.754 279.925 491.541 306.175C488.829 315.858 485.829 325.366 481.905 334.465C480.116 338.49 478.212 342.399 476.019 346.248C472.73 352.023 468.864 357.565 464.305 362.815L463.555 363.573C462.055 365.265 460.439 366.898 458.766 368.356C446.706 379.264 430.665 386.031 413.579 390.289C411.905 390.697 410.18 391.106 408.449 391.456C388.311 395.889 367.191 396.939 349.534 397.23C343.937 397.347 338.34 397.347 332.737 397.405C323.279 397.464 313.758 397.697 304.41 398.514L302.852 398.689C298.813 398.98 294.774 399.505 290.792 400.147C282.426 401.547 274.174 403.647 266.205 406.855C263.378 408.022 260.614 409.247 257.902 410.647C253.545 412.84 249.321 415.284 245.161 417.851C234.255 424.576 223.765 432.142 212.49 438.179C191.699 449.338 168.208 454.845 144.7 454.845ZM410.502 185.662C423.723 185.662 437.025 188.386 448.532 194.909C461.461 202.246 471.895 214.71 475.107 229.38C476.708 236.671 476.518 244.282 475.256 251.643C470.863 277.246 452.662 299.963 428.851 309.565C435.568 310.624 442.28 311.677 448.997 312.736C450.608 312.992 452.249 313.242 453.878 313.242C454.79 313.242 455.696 313.167 456.591 312.957C459.499 312.294 461.966 310.379 464.237 308.412C479.289 295.378 490.474 277.305 493.52 257.462C496.566 237.625 490.905 216.171 477.046 201.833C460.813 185.028 436.222 179.82 413.06 178.738C409.928 178.592 406.785 178.505 403.647 178.505C392.691 178.505 381.741 179.535 371.232 182.567C351.993 188.112 334.733 200.483 323.158 217.026C312.368 232.441 306.546 252.434 311.726 270.595C315.512 283.892 324.959 295.163 336.632 302.337C348.299 309.506 362.043 312.771 375.683 313.062C376.355 313.079 377.031 313.085 377.703 313.085C393.821 313.085 410.008 308.954 423.786 300.487C438.138 291.66 449.737 278.038 455.41 262.018C457.721 255.484 459.063 248.466 458.157 241.588C456.654 230.218 448.888 220.203 438.907 214.815C432.104 211.138 424.394 209.479 416.662 209.479C413.054 209.479 409.435 209.84 405.895 210.527C396.695 212.319 387.896 216.247 380.381 221.926C373.389 227.204 367.383 234.215 364.739 242.641C362.1 251.067 363.276 260.994 369.047 267.622C373.148 272.341 379.372 274.89 385.567 274.89C388.481 274.89 391.389 274.325 394.073 273.161C402.465 269.519 410.387 263.071 408.104 251.148C406.509 259.743 401.278 265.975 394.658 265.975C393.442 265.975 392.18 265.766 390.89 265.318C382.349 262.391 379.171 250.549 383.284 242.408C387.397 234.274 396.672 229.904 405.666 229.264C406.429 229.211 407.203 229.182 407.978 229.182C413.243 229.182 418.612 230.503 422.456 234.082C426.924 238.248 428.57 244.759 428.576 250.922C428.587 262.14 423.718 273.202 415.744 280.982C407.765 288.756 396.844 293.237 385.79 293.673C385.205 293.696 384.62 293.708 384.029 293.708C374.45 293.708 364.739 290.601 357.666 284.072C346.504 273.767 343.636 256.723 346.091 241.611C347.898 230.52 352.206 219.854 358.601 210.672C363.666 203.393 370.114 196.98 377.852 192.75C386.312 188.124 396.006 186.262 405.603 185.785C407.232 185.703 408.867 185.662 410.502 185.662Z" fill="url(#paint0_linear)"/>
<path d="M204.893 169.552C205.146 172.454 206.301 175.245 208.239 177.635C210.845 179.024 213.839 179.789 216.907 179.851C213.843 180.04 210.874 180.844 208.239 182.197C205.349 184.152 204.893 190.149 204.893 190.149C204.788 187.303 203.733 184.543 201.851 182.197C199.874 180.372 192.878 179.851 192.878 179.851C192.878 179.851 199.874 179.851 201.851 177.635C203.73 175.238 204.784 172.438 204.893 169.552Z" fill="#FFE6F7"/>
<path d="M244.799 81.1577C245.125 84.0213 246.233 86.7693 248.025 89.1603C250.544 90.5656 253.42 91.3779 256.384 91.5217C253.439 91.6577 250.572 92.4224 248.025 93.7519C245.239 95.7197 244.799 101.754 244.799 101.754C244.682 98.8932 243.665 96.1195 241.865 93.7519C239.959 91.9153 233.213 91.5217 233.213 91.5217C233.213 91.5217 239.959 91.5217 241.865 89.1603C243.665 86.7927 244.682 84.0189 244.799 81.1577Z" fill="#FFE6F7"/>
<path d="M280.64 111.195C280.873 113.44 281.709 115.587 283.066 117.426C284.83 118.547 286.883 119.176 288.995 119.243C287.037 119.176 285.093 119.578 283.335 120.411C281.179 121.969 280.91 126.642 280.91 126.642C280.864 124.423 280.163 122.261 278.888 120.411C277.541 118.984 272.689 118.724 272.689 118.724C274.878 118.613 277.006 117.989 278.888 116.907C279.975 115.18 280.578 113.213 280.64 111.195Z" fill="#FFE6F7"/>
<path d="M541.736 154.963C541.736 154.963 541.946 157.104 542.814 157.971C543.563 158.719 545.597 158.826 545.597 158.826C545.597 158.826 543.756 158.935 542.814 159.68C541.863 160.428 541.736 162.687 541.736 162.687C541.736 162.687 541.63 160.59 540.767 159.68C540.109 158.982 537.873 158.826 537.873 158.826C537.873 158.826 540.101 158.654 540.767 157.952C541.641 157.032 541.736 154.963 541.736 154.963Z" fill="white"/>
<path d="M518.562 184.142C518.562 184.142 518.869 188.186 520.12 189.821C521.202 191.237 524.142 191.435 524.142 191.435C524.142 191.435 521.483 191.641 520.12 193.048C518.749 194.461 518.562 198.731 518.562 198.731C518.562 198.731 518.409 194.77 517.166 193.048C516.213 191.734 512.985 191.435 512.985 191.435C512.985 191.435 516.201 191.111 517.166 189.784C518.426 188.05 518.562 184.142 518.562 184.142Z" fill="white"/>
<path d="M496.251 130.075C496.251 130.075 496.556 132.69 497.808 133.75C498.891 134.667 501.828 134.794 501.828 134.794C501.828 134.794 499.17 134.928 497.808 135.838C496.435 136.753 496.251 139.515 496.251 139.515C496.251 139.515 496.098 136.952 494.852 135.838C493.902 134.988 490.672 134.794 490.672 134.794C490.672 134.794 493.89 134.585 494.852 133.726C496.115 132.604 496.251 130.075 496.251 130.075Z" fill="white"/>
<path d="M182.251 391.338C181.248 391.338 180.711 390.192 181.369 389.459C192.095 377.498 202.821 365.538 213.547 353.577H523.645C534.372 365.538 545.097 377.498 555.823 389.459C556.481 390.193 555.944 391.338 554.942 391.338" fill="#143449"/>
<path d="M509.77 329.548H223.99V158.883C223.99 155.027 227.103 151.901 230.942 151.901C321.567 151.901 412.192 151.901 502.818 151.901C506.656 151.901 509.769 155.027 509.77 158.883C509.77 215.772 509.77 272.66 509.77 329.548" fill="#0A2239"/>
<path d="M502.046 310.667C413.08 310.667 324.113 310.667 235.147 310.667L235.146 163.916C324.113 163.916 413.079 163.916 502.046 163.916V310.667H502.046Z" fill="#0C7489"/>
<rect x="235.146" y="167.349" width="266.9" height="5.14919" fill="#E2F2EB"/>
<mask id="mask0" mask-type="alpha" maskUnits="userSpaceOnUse" x="323" y="172" width="91" height="47">
<rect x="323.702" y="172.55" width="89.8709" height="46.1" fill="white"/>
</mask>
<g mask="url(#mask0)">
<path d="M393.75 219.899C393.587 218.077 393.415 216.221 392.651 214.531C391.887 212.842 390.421 211.314 388.48 210.863C388.276 210.816 387.888 210.72 387.361 210.587C386.586 210.359 385.795 210.174 385.023 209.99C379.59 208.594 369.954 206.078 369.954 206.078C369.951 206.082 369.947 206.086 369.943 206.09C369.93 206.086 369.917 206.082 369.904 206.078C369.66 206.344 369.225 206.592 368.648 206.825C368.071 206.592 367.636 206.344 367.391 206.078C367.378 206.082 367.365 206.086 367.353 206.09C367.349 206.086 367.345 206.082 367.341 206.078C367.341 206.078 357.706 208.594 352.272 209.99C351.501 210.174 350.709 210.359 349.935 210.587C349.407 210.72 349.02 210.816 348.816 210.863C346.875 211.314 345.408 212.842 344.645 214.531C343.88 216.221 343.709 218.077 343.546 219.899C343.134 224.512 342.722 229.125 342.31 233.738H394.986C394.574 229.125 394.162 224.512 393.75 219.899Z" fill="#D5330D"/>
<path d="M374.473 207.257L374.447 207.276C371.06 209.828 366.211 209.818 362.837 207.253C363.006 204.699 363.175 202.146 363.344 199.593C365.113 198.946 366.883 198.298 368.653 197.65V197.645C370.424 198.293 372.195 198.941 373.965 199.589C374.135 202.145 374.304 204.701 374.473 207.257Z" fill="#35536B"/>
<path d="M363.305 200.196C366.222 203.391 370.148 205.664 374.451 206.913C374.29 204.472 374.128 202.031 373.966 199.589C372.195 198.941 370.425 198.293 368.653 197.645V197.65C366.884 198.298 365.114 198.945 363.345 199.593L363.305 200.196H363.305Z" fill="#0A2239"/>
<path d="M378.491 184.474C378.305 182.413 377.349 180.323 375.644 178.932C373.747 177.386 371.104 177.156 368.678 177.124C366.705 177.098 364.682 177.361 362.872 178.119C360.211 179.234 359.025 181.904 358.792 184.474C358.59 186.706 359.047 188.938 359.501 191.138C359.501 191.138 368.631 191.697 368.631 191.698C368.635 191.698 368.638 191.698 368.642 191.697C368.642 191.697 368.653 191.698 368.653 191.697C371.696 191.51 374.739 191.324 377.783 191.138C378.237 188.938 378.693 186.706 378.491 184.474Z" fill="#3D3535"/>
<path d="M376.469 186.149C375.552 183.463 373.63 181.486 371.512 181.047C371.25 180.993 370.985 180.963 370.72 180.96C370.016 180.949 367.287 180.949 366.582 180.96C366.317 180.963 366.053 180.993 365.791 181.047C363.672 181.486 361.751 183.463 360.833 186.149C360.058 188.421 359.992 191.05 360.253 193.538C360.475 195.651 360.804 196.517 361.784 198.164C362.867 199.986 364.32 201.344 365.865 202.302C366.561 202.734 370.741 202.734 371.438 202.302C372.983 201.344 374.435 199.986 375.519 198.164C376.498 196.517 376.828 195.651 377.049 193.538C377.31 191.05 377.245 188.421 376.469 186.149Z" fill="#35536B"/>
<path d="M360.604 189.968C360.571 189.516 360.36 189.111 360.04 188.891C359.773 188.707 359.493 188.557 359.194 188.457C358.7 188.292 358.121 188.373 357.759 188.822C357.357 189.323 357.329 190.128 357.456 190.817C357.723 192.273 358.547 193.506 359.504 194.391C359.677 194.55 359.893 194.628 360.105 194.588C360.638 194.486 360.712 193.795 360.716 193.23C360.722 192.141 360.685 191.052 360.604 189.968Z" fill="#35536B"/>
<path d="M376.692 189.968C376.726 189.516 376.936 189.111 377.256 188.891C377.523 188.707 377.803 188.557 378.102 188.457C378.596 188.292 379.176 188.373 379.537 188.822C379.939 189.323 379.967 190.128 379.841 190.817C379.574 192.273 378.749 193.506 377.792 194.391C377.62 194.55 377.404 194.628 377.192 194.588C376.659 194.486 376.584 193.795 376.581 193.23C376.574 192.141 376.611 191.052 376.692 189.968Z" fill="#35536B"/>
<path d="M358.743 184.382C359.654 181.66 360.197 179.378 363.029 177.785C365.845 176.201 369.598 176.407 372.479 177.728C373.214 178.065 376.867 179.857 375.303 180.843C375.247 180.879 375.181 180.912 375.105 180.94C374.799 181.056 374.477 181.462 374.697 181.849C375.02 182.417 374.618 183.124 374.086 183.535C373.313 184.131 372.28 184.378 371.276 184.37C370.273 184.361 369.288 184.114 368.339 183.813C367.545 183.561 366.677 183.269 365.895 183.55C365.016 183.866 364.599 184.772 363.993 185.443C362.832 186.73 360.707 187.167 359.069 186.456C359.211 186.199 359.128 184.507 358.743 184.382" fill="#0A2239"/>
<path d="M378.548 184.672C378.545 184.603 378.54 184.535 378.539 184.467C378.534 183.915 378.486 183.363 378.397 182.817C378.141 181.234 377.533 179.667 376.43 178.421C374.776 176.552 372.266 175.878 369.749 175.733C368.985 175.689 368.22 175.694 367.478 175.729C365.554 175.821 363.6 176.233 362.045 177.346C360.658 178.338 359.74 179.769 359.243 181.314C358.916 182.33 358.751 183.399 358.743 184.46H358.743L358.742 185.576C358.839 185.575 358.925 185.633 358.952 185.719C359.263 186.703 359.851 188.541 359.913 188.592C360.326 186.436 361.546 184.497 363.555 183.311C366.31 181.684 370.165 181.584 373.064 182.959C373.47 183.152 373.859 183.376 374.224 183.629C374.986 184.157 375.641 184.812 376.148 185.559C376.443 185.994 376.688 186.458 376.884 186.938C376.992 187.203 377.085 187.472 377.165 187.746C377.194 187.844 377.425 188.486 377.375 188.584C377.458 188.45 377.976 186.836 378.286 185.857L378.536 185.906C378.537 185.889 378.537 185.872 378.537 185.856C378.538 185.812 378.539 185.769 378.54 185.725C378.541 185.666 378.542 185.605 378.543 185.546C378.544 185.479 378.545 185.412 378.546 185.345C378.547 185.282 378.549 185.218 378.55 185.154C378.551 185.104 378.552 185.054 378.552 185.003C378.553 184.973 378.554 184.943 378.554 184.912C378.554 184.832 378.552 184.752 378.548 184.672Z" fill="#0A2239"/>
<path d="M368.74 199.271C370.293 199.271 371.552 198.101 371.552 196.658H365.928C365.928 198.101 367.187 199.271 368.74 199.271Z" fill="white"/>
</g>
<mask id="mask1" mask-type="alpha" maskUnits="userSpaceOnUse" x="412" y="218" width="90" height="47">
<rect x="412.905" y="218.348" width="89.0119" height="46.1032" fill="white"/>
</mask>
<g mask="url(#mask1)">
<rect x="412.885" y="219.237" width="89.8711" height="45.8616" fill="#0C7489"/>
<path d="M473.685 239.278C472.946 236.454 474.675 234.114 473.685 231.379C473.031 229.57 469.687 228.45 468.897 226.7C467.376 223.334 462.749 222.813 459.334 222.196C457.552 221.874 455.702 221.955 453.945 222.394C453.831 222.422 453.719 222.452 453.606 222.483C452.046 222.919 451.352 222.196 451.352 222.196L448.307 224.658C448.307 224.658 444.944 225.035 444.541 226.7C444.207 228.076 441.797 230.047 441.315 231.379C440.325 234.114 442.053 238.915 441.314 241.74C440.982 243.01 441.014 244.498 441.823 245.496C442.492 246.32 443.544 246.645 444.541 246.889C447.349 247.578 450.226 247.95 453.108 247.997C454.467 248.019 455.911 247.941 457.032 247.123C457.048 247.111 457.064 247.098 457.081 247.086C457.097 247.098 457.113 247.111 457.13 247.123C458.251 247.941 459.695 248.019 461.053 247.997C463.935 247.95 466.812 247.578 469.621 246.889C470.618 246.645 471.669 246.32 472.338 245.496C473.147 244.498 474.018 240.548 473.685 239.278Z" fill="#0A2239"/>
<path d="M463.43 259.557C463.108 254.72 462.786 249.883 462.464 245.045C460.877 244.467 459.289 243.89 457.702 243.312V243.317C456.116 243.894 454.531 244.471 452.945 245.049C452.623 249.886 452.301 254.723 451.979 259.56C453.888 259.324 455.797 259.088 457.706 258.851V258.848C459.614 259.085 461.522 259.321 463.43 259.557Z" fill="#0D95A2"/>
<path d="M452.906 245.586C455.521 248.434 459.039 250.46 462.896 251.574C462.751 249.398 462.606 247.221 462.461 245.044C460.874 244.467 459.287 243.889 457.7 243.311V243.316C456.114 243.893 454.528 244.47 452.942 245.048C452.93 245.227 452.918 245.406 452.906 245.586" fill="#0C7489"/>
<path d="M482.228 280.239H433.399C433.822 275.691 434.245 271.143 434.669 266.595C434.836 264.799 435.012 262.969 435.797 261.303C436.581 259.637 438.087 258.131 440.08 257.686C440.956 257.491 444.87 256.46 448.81 255.41C449.027 255.352 449.245 255.294 449.462 255.236C449.588 255.203 449.713 255.169 449.838 255.136C449.854 255.132 449.871 255.127 449.887 255.123C450.029 255.085 450.171 255.047 450.313 255.009C453.893 254.054 457.172 253.172 457.813 253C458.466 253.175 461.853 254.086 465.508 255.061C465.649 255.098 465.788 255.136 465.929 255.173C466.292 255.27 466.658 255.368 467.023 255.464C470.893 256.495 474.686 257.494 475.547 257.686C477.54 258.131 479.046 259.637 479.83 261.303C480.615 262.969 480.791 264.799 480.958 266.595C481.381 271.143 481.805 275.691 482.228 280.239Z" fill="#0D95A2"/>
<path d="M464.708 233.062C463.886 230.667 462.164 228.905 460.266 228.514C460.031 228.465 459.793 228.439 459.556 228.435C458.924 228.426 456.479 228.426 455.847 228.435C455.61 228.439 455.373 228.465 455.138 228.514C453.239 228.905 451.518 230.667 450.695 233.062C450 235.087 449.942 237.432 450.175 239.65C450.374 241.534 450.669 242.306 451.547 243.774C452.518 245.398 453.82 246.61 455.205 247.464C455.829 247.849 456.503 248.258 457.194 248.411C457.268 248.433 457.344 248.449 457.424 248.458C457.517 248.469 457.61 248.473 457.702 248.472C457.794 248.473 457.887 248.469 457.979 248.458C458.059 248.449 458.136 248.433 458.21 248.411C458.901 248.258 459.575 247.849 460.199 247.464C461.584 246.61 462.886 245.398 463.856 243.774C464.734 242.306 465.029 241.534 465.228 239.65C465.462 237.432 465.403 235.087 464.708 233.062Z" fill="#0D95A2"/>
<path d="M450.488 236.467C450.458 236.064 450.27 235.702 449.983 235.506C449.743 235.342 449.492 235.209 449.224 235.12C448.782 234.973 448.262 235.045 447.939 235.445C447.578 235.891 447.553 236.609 447.666 237.224C447.906 238.521 448.645 239.621 449.503 240.41C449.657 240.552 449.851 240.622 450.041 240.585C450.518 240.495 450.585 239.878 450.588 239.375C450.594 238.404 450.561 237.433 450.488 236.467Z" fill="#0D95A2"/>
<path d="M464.906 236.467C464.936 236.064 465.125 235.702 465.412 235.506C465.651 235.342 465.902 235.209 466.17 235.12C466.612 234.973 467.132 235.045 467.456 235.445C467.817 235.891 467.841 236.609 467.728 237.224C467.489 238.521 466.75 239.621 465.892 240.41C465.738 240.552 465.544 240.622 465.354 240.585C464.877 240.495 464.81 239.878 464.806 239.375C464.8 238.404 464.834 237.433 464.906 236.467Z" fill="#0D95A2"/>
<path d="M451 231.535C451 231.535 454.038 229 456.909 229C459.781 229 465.706 231.535 465.706 231.535C464.596 229.995 463.486 228.455 462.375 226.915C460.554 226.61 458.731 226.305 456.909 226C455.614 226.305 454.319 226.61 453.024 226.915C452.349 228.455 451.675 229.995 451 231.535Z" fill="#0A2239"/>
<path d="M472.732 270.023C472.053 268.627 470.931 267.611 469.973 266.453C469.234 265.561 468.566 264.411 467.996 263.133C467.394 260.637 467.064 258.054 467.024 255.463C466.659 255.367 466.293 255.269 465.93 255.172C465.789 255.135 465.649 255.097 465.509 255.06C465.273 256.474 465.038 257.889 464.855 259.004C464.709 259.885 464.596 260.581 464.541 260.942C464.095 263.865 463.319 266.876 461.406 268.826C460.55 269.698 459.524 270.278 458.448 270.601C458.271 270.654 458.091 270.7 457.912 270.739C457.732 270.7 457.553 270.654 457.376 270.601C456.302 270.278 455.276 269.699 454.421 268.826C452.511 266.876 451.734 263.865 451.289 260.942C451.233 260.572 451.116 259.854 450.967 258.944C450.785 257.836 450.553 256.443 450.321 255.053C450.319 255.038 450.316 255.023 450.314 255.008C450.172 255.046 450.03 255.084 449.888 255.122C449.872 255.126 449.855 255.131 449.839 255.135C449.714 255.168 449.589 255.202 449.463 255.235C449.246 255.293 449.028 255.35 448.811 255.409C448.775 257.977 448.455 260.538 447.868 263.014C447.284 264.34 446.598 265.534 445.836 266.453C444.877 267.611 443.752 268.627 443.073 270.023C442.207 271.804 442.185 274.002 442.629 275.979C442.966 277.475 443.547 278.873 444.184 280.238H471.622C472.258 278.873 472.839 277.475 473.175 275.979C473.619 274.002 473.598 271.804 472.732 270.023Z" fill="#D5330D"/>
<path d="M457.64 244.879C459.194 244.879 460.453 243.715 460.453 242.279H454.828C454.828 243.715 456.087 244.879 457.64 244.879Z" fill="white"/>
</g>
<mask id="mask2" mask-type="alpha" maskUnits="userSpaceOnUse" x="412" y="264" width="90" height="47">
<rect x="412.884" y="264.414" width="89.0119" height="46.1" fill="white"/>
</mask>
<g mask="url(#mask2)">
<rect x="412.884" y="264.416" width="89.8711" height="45.2393" fill="#0FA3B1"/>
<path d="M482.902 311.905C482.74 310.085 482.568 308.23 481.805 306.542C481.041 304.853 479.576 303.327 477.637 302.877C477.433 302.829 477.046 302.733 476.519 302.6C475.745 302.373 474.954 302.188 474.183 302.004C468.753 300.609 459.125 298.095 459.126 298.095C459.122 298.099 459.118 298.103 459.114 298.107C459.101 298.103 459.088 298.099 459.076 298.095C458.831 298.361 458.397 298.608 457.82 298.841C457.243 298.608 456.809 298.361 456.564 298.095C456.552 298.099 456.539 298.103 456.526 298.107C456.522 298.103 456.518 298.099 456.514 298.095C456.514 298.095 446.887 300.609 441.457 302.004C440.686 302.188 439.895 302.373 439.121 302.6C438.594 302.733 438.207 302.829 438.003 302.877C436.064 303.327 434.598 304.853 433.835 306.542C433.072 308.23 432.9 310.085 432.738 311.905C432.326 316.515 431.914 321.124 431.502 325.734H484.138C483.726 321.124 483.314 316.515 482.902 311.905Z" fill="#143449"/>
<path d="M463.64 299.273L463.614 299.292C460.23 301.842 455.385 301.831 452.013 299.269C452.182 296.717 452.35 294.166 452.52 291.615C454.287 290.968 456.056 290.321 457.824 289.674V289.668C459.593 290.316 461.363 290.964 463.133 291.611C463.302 294.165 463.471 296.719 463.64 299.273Z" fill="#2C5985"/>
<path d="M452.479 292.217C455.395 295.409 459.317 297.68 463.618 298.929C463.456 296.489 463.294 294.05 463.133 291.61L457.824 289.667V289.673C456.056 290.32 454.288 290.967 452.52 291.614C452.506 291.815 452.493 292.016 452.479 292.217" fill="#204160"/>
<path d="M467.656 276.507C467.469 274.448 466.514 272.359 464.81 270.969C462.915 269.424 460.274 269.194 457.85 269.162C455.879 269.136 453.857 269.399 452.048 270.157C449.389 271.271 448.205 273.94 447.972 276.507C447.77 278.737 448.226 280.968 448.68 283.166C448.68 283.166 457.803 283.724 457.803 283.725C457.807 283.725 457.81 283.725 457.814 283.725C457.814 283.725 457.825 283.725 457.825 283.724C460.866 283.538 463.907 283.352 466.948 283.166C467.402 280.968 467.858 278.737 467.656 276.507Z" fill="#2BC8D7"/>
<path d="M465.636 278.181C464.719 275.497 462.8 273.522 460.683 273.083C460.421 273.029 460.156 273 459.892 272.996C459.188 272.985 456.461 272.985 455.757 272.996C455.492 273 455.228 273.029 454.966 273.083C452.849 273.522 450.929 275.497 450.013 278.181C449.237 280.451 449.172 283.079 449.433 285.565C449.654 287.676 449.983 288.541 450.962 290.187C452.045 292.007 453.496 293.365 455.04 294.322C455.736 294.754 459.912 294.754 460.609 294.322C462.152 293.365 463.604 292.007 464.687 290.187C465.665 288.541 465.995 287.676 466.216 285.565C466.477 283.079 466.412 280.451 465.636 278.181Z" fill="#2C5985"/>
<path d="M449.783 281.996C449.749 281.545 449.539 281.14 449.219 280.92C448.952 280.737 448.672 280.587 448.373 280.487C447.88 280.322 447.3 280.403 446.94 280.852C446.537 281.352 446.51 282.156 446.636 282.845C446.903 284.3 447.727 285.531 448.683 286.416C448.855 286.575 449.072 286.653 449.283 286.613C449.816 286.511 449.89 285.82 449.894 285.255C449.9 284.168 449.863 283.08 449.783 281.996Z" fill="#2C5985"/>
<path d="M465.858 281.996C465.892 281.545 466.102 281.14 466.421 280.92C466.688 280.737 466.968 280.587 467.267 280.487C467.761 280.322 468.34 280.403 468.701 280.852C469.103 281.352 469.131 282.156 469.004 282.845C468.738 284.3 467.914 285.531 466.957 286.416C466.785 286.575 466.569 286.653 466.357 286.613C465.825 286.511 465.75 285.82 465.747 285.255C465.74 284.168 465.777 283.08 465.858 281.996Z" fill="#2C5985"/>
<path d="M467.705 277.624C467.652 274.776 467.82 272.446 465.584 270.18C463.361 267.928 459.7 267.148 456.538 267.664C455.731 267.796 451.687 268.563 452.889 269.916C452.933 269.966 452.986 270.014 453.051 270.061C453.309 270.251 453.495 270.725 453.168 271.038C452.686 271.499 452.859 272.283 453.245 272.815C453.806 273.587 454.723 274.094 455.688 274.347C456.653 274.6 457.672 274.62 458.673 274.579C459.51 274.544 460.431 274.49 461.097 274.963C461.844 275.495 461.971 276.473 462.349 277.274C463.075 278.811 464.981 279.784 466.766 279.529C466.708 279.245 467.298 277.644 467.705 277.624" fill="#2BC8D7"/>
<path d="M457.84 291.385C459.136 291.385 460.186 290.409 460.186 289.205H455.494C455.494 290.409 456.545 291.385 457.84 291.385Z" fill="white"/>
</g>
<mask id="mask3" mask-type="alpha" maskUnits="userSpaceOnUse" x="412" y="172" width="90" height="47">
<rect x="412.884" y="172.55" width="89.0119" height="46.1" fill="white"/>
</mask>
<g mask="url(#mask3)">
<rect x="412.884" y="172.551" width="89.8711" height="46.0998" fill="#0FA3B1"/>
<path d="M448.869 184.815L446.878 213.809H457.696V184.341L448.869 184.815Z" fill="#0A2239"/>
<path d="M466.506 184.815L468.497 213.809H457.679V184.341L466.506 184.815Z" fill="#0A2239"/>
<path d="M482.234 233.738H433.404C433.828 229.166 434.251 224.594 434.674 220.022C434.842 218.217 435.018 216.378 435.802 214.703C436.586 213.028 438.093 211.515 440.085 211.068C441.879 210.665 456.391 206.743 457.819 206.357C459.247 206.743 473.76 210.665 475.553 211.068C477.546 211.515 479.051 213.029 479.836 214.703C480.62 216.378 480.797 218.217 480.963 220.022C481.387 224.594 481.81 229.166 482.234 233.738Z" fill="#244A6E"/>
<path d="M466.523 184.815C466.356 182.968 465.5 181.095 463.971 179.849C462.271 178.463 459.903 178.257 457.729 178.228C455.961 178.205 454.147 178.44 452.525 179.12C450.14 180.119 449.078 182.513 448.869 184.815C448.688 186.815 449.097 188.816 449.504 190.787C449.504 190.788 457.687 191.288 457.687 191.29C457.69 191.289 457.693 191.289 457.696 191.289C457.696 191.289 457.706 191.289 457.706 191.288C460.434 191.121 463.161 190.954 465.889 190.787C466.296 188.816 466.705 186.815 466.523 184.815Z" fill="#0A2239"/>
<path d="M463.083 207.645C462.878 204.55 462.673 201.456 462.468 198.361C460.881 197.78 459.294 197.199 457.707 196.619V196.623C456.121 197.204 454.535 197.784 452.949 198.364C452.744 201.458 452.539 204.551 452.334 207.645C452.279 208.482 452.756 209.235 453.447 209.878C455.792 212.061 459.646 212.061 461.982 209.871C462.667 209.23 463.139 208.479 463.083 207.645Z" fill="#D5330D"/>
<path d="M452.913 198.905C455.528 201.768 459.046 203.805 462.903 204.925C462.758 202.737 462.613 200.549 462.468 198.361C460.881 197.78 459.294 197.199 457.707 196.619V196.623C456.121 197.204 454.535 197.784 452.949 198.364C452.937 198.544 452.925 198.725 452.913 198.905" fill="#B32B0C"/>
<path d="M464.713 186.316C463.891 183.91 462.169 182.138 460.27 181.744C460.035 181.696 459.798 181.669 459.561 181.666C458.929 181.656 456.484 181.656 455.852 181.666C455.615 181.669 455.378 181.696 455.143 181.744C453.244 182.138 451.522 183.91 450.7 186.316C450.005 188.352 449.947 190.709 450.18 192.939C450.379 194.832 450.674 195.608 451.552 197.084C452.523 198.717 453.825 199.935 455.209 200.793C455.834 201.18 456.507 201.592 457.199 201.745C457.272 201.767 457.349 201.784 457.429 201.793C457.522 201.804 457.614 201.808 457.707 201.807C457.799 201.808 457.891 201.804 457.984 201.793C458.064 201.784 458.141 201.767 458.214 201.745C458.906 201.592 459.579 201.18 460.204 200.793C461.588 199.935 462.89 198.717 463.861 197.084C464.739 195.608 465.034 194.832 465.233 192.939C465.467 190.709 465.408 188.352 464.713 186.316Z" fill="#D5330D"/>
<path d="M450.492 189.739C450.462 189.334 450.274 188.971 449.987 188.774C449.747 188.609 449.496 188.475 449.228 188.385C448.785 188.237 448.266 188.31 447.943 188.712C447.582 189.161 447.557 189.882 447.67 190.5C447.909 191.805 448.649 192.91 449.506 193.703C449.661 193.846 449.854 193.916 450.045 193.879C450.522 193.788 450.589 193.169 450.592 192.662C450.598 191.687 450.564 190.711 450.492 189.739Z" fill="#D5330D"/>
<path d="M464.912 189.739C464.942 189.334 465.13 188.971 465.417 188.774C465.657 188.609 465.908 188.475 466.176 188.385C466.618 188.237 467.138 188.31 467.462 188.712C467.822 189.161 467.847 189.882 467.734 190.5C467.495 191.805 466.756 192.91 465.898 193.703C465.744 193.846 465.55 193.916 465.36 193.879C464.882 193.788 464.815 193.169 464.812 192.662C464.806 191.687 464.84 190.711 464.912 189.739Z" fill="#D5330D"/>
<path d="M453.807 179.911C454.101 179.629 454.561 179.581 454.983 179.562C456.455 179.495 457.935 179.583 459.386 179.823C461.202 180.124 463.075 180.727 464.235 182.059C465.365 183.356 465.51 185.124 465.847 186.762C465.899 187.017 465.952 187.271 466.004 187.526C464.403 187.754 462.693 186.882 462.042 185.503C461.703 184.784 461.589 183.908 460.919 183.431C460.322 183.006 459.496 183.055 458.745 183.086C457.847 183.123 456.933 183.105 456.067 182.878C455.202 182.651 454.38 182.197 453.877 181.504C453.53 181.026 453.375 180.324 453.807 179.911Z" fill="#0A2239"/>
<path d="M457.687 198.18C459.24 198.18 460.5 197.01 460.5 195.567H454.875C454.875 197.01 456.134 198.18 457.687 198.18" fill="white"/>
</g>
<mask id="mask4" mask-type="alpha" maskUnits="userSpaceOnUse" x="235" y="171" width="91" height="48">
<rect x="235.146" y="171.64" width="90.1108" height="47.2009" fill="white"/>
</mask>
<g mask="url(#mask4)">
<rect x="235.201" y="172.564" width="89.8711" height="45.8092" fill="#0FA3B1"/>
<path d="M304.551 233.651H255.722C256.146 229.022 256.569 224.392 256.991 219.763C257.159 217.935 257.335 216.072 258.119 214.377C258.904 212.681 260.41 211.148 262.403 210.696C264.196 210.288 278.709 206.316 280.136 205.925C281.564 206.316 296.077 210.288 297.87 210.696C299.863 211.148 301.369 212.682 302.153 214.377C302.938 216.072 303.114 217.935 303.281 219.763C303.705 224.392 304.128 229.022 304.551 233.651Z" fill="#143449"/>
<path d="M288.841 184.112C288.674 182.242 287.817 180.345 286.288 179.083C284.589 177.68 282.22 177.471 280.046 177.442C278.278 177.419 276.465 177.657 274.843 178.345C272.458 179.357 271.395 181.78 271.187 184.112C271.006 186.137 271.415 188.164 271.822 190.16C271.822 190.16 280.004 190.667 280.004 190.668C280.007 190.668 280.01 190.667 280.014 190.667C280.014 190.667 280.024 190.668 280.023 190.667C282.751 190.498 285.478 190.329 288.206 190.16C288.613 188.164 289.022 186.137 288.841 184.112Z" fill="#D5330D"/>
<path d="M285.4 207.23C285.195 204.096 284.99 200.962 284.785 197.829C283.198 197.241 281.61 196.652 280.023 196.064V196.069C278.438 196.657 276.851 197.244 275.266 197.832C275.061 200.965 274.856 204.097 274.651 207.23C274.595 208.077 275.073 208.84 275.763 209.491C278.108 211.701 281.962 211.702 284.299 209.484C284.983 208.834 285.455 208.074 285.4 207.23Z" fill="#2BC8D7"/>
<path d="M275.229 198.38C277.844 201.279 281.362 203.341 285.219 204.475C285.074 202.26 284.929 200.044 284.784 197.829C283.197 197.241 281.61 196.652 280.023 196.064V196.069C278.437 196.657 276.851 197.244 275.265 197.832L275.229 198.38Z" fill="#0D95A2"/>
<path d="M287.03 185.632C286.207 183.195 284.485 181.4 282.587 181.002C282.352 180.953 282.115 180.926 281.877 180.923C281.246 180.913 278.8 180.913 278.169 180.923C277.931 180.926 277.694 180.953 277.459 181.002C275.561 181.4 273.839 183.195 273.017 185.632C272.321 187.693 272.263 190.08 272.497 192.338C272.695 194.255 272.99 195.041 273.868 196.535C274.839 198.188 276.141 199.422 277.526 200.291C278.15 200.683 278.824 201.1 279.515 201.255C279.589 201.277 279.665 201.294 279.746 201.303C279.838 201.314 279.931 201.318 280.023 201.317C280.115 201.318 280.208 201.314 280.3 201.303C280.38 201.294 280.457 201.277 280.531 201.255C281.222 201.1 281.896 200.683 282.52 200.291C283.905 199.422 285.207 198.188 286.178 196.535C287.056 195.041 287.351 194.255 287.549 192.338C287.783 190.08 287.725 187.693 287.029 185.632" fill="#2BC8D7"/>
<path d="M272.81 189.098C272.779 188.688 272.591 188.32 272.304 188.12C272.065 187.954 271.814 187.818 271.546 187.727C271.103 187.577 270.583 187.651 270.26 188.058C269.899 188.512 269.874 189.243 269.988 189.868C270.227 191.189 270.966 192.308 271.824 193.112C271.978 193.256 272.172 193.327 272.362 193.29C272.839 193.198 272.906 192.571 272.909 192.058C272.915 191.07 272.882 190.082 272.81 189.098Z" fill="#2BC8D7"/>
<path d="M287.228 189.098C287.258 188.688 287.447 188.32 287.734 188.12C287.973 187.954 288.224 187.818 288.492 187.727C288.935 187.577 289.454 187.651 289.778 188.058C290.139 188.512 290.163 189.243 290.05 189.868C289.811 191.189 289.072 192.308 288.214 193.112C288.06 193.256 287.866 193.327 287.676 193.29C287.199 193.198 287.132 192.571 287.129 192.058C287.123 191.07 287.156 190.082 287.228 189.098Z" fill="#2BC8D7"/>
<path d="M284.155 179.146C283.861 178.861 283.4 178.812 282.979 178.793C281.507 178.725 280.027 178.814 278.576 179.057C276.76 179.361 274.887 179.973 273.727 181.321C272.597 182.634 272.452 184.425 272.115 186.084C272.063 186.341 272.01 186.599 271.958 186.857C273.559 187.088 275.269 186.205 275.92 184.809C276.259 184.081 276.373 183.193 277.043 182.71C277.64 182.28 278.466 182.329 279.217 182.361C280.115 182.399 281.029 182.381 281.895 182.151C282.76 181.921 283.582 181.461 284.085 180.759C284.432 180.276 284.586 179.564 284.155 179.146" fill="#D5330D"/>
<path d="M280.005 197.646C281.558 197.646 282.817 196.461 282.817 195H277.192C277.192 196.461 278.451 197.646 280.005 197.646Z" fill="white"/>
<path d="M278.34 176.75C278.34 179.05 276.456 180.916 274.134 180.916C271.811 180.916 269.928 179.05 269.928 176.75C269.928 174.449 271.811 172.583 274.134 172.583C276.456 172.583 278.34 174.449 278.34 176.75Z" fill="#D5330D"/>
</g>
<rect x="235.146" y="218.84" width="177.647" height="91.8272" fill="#2BC8D7"/>
<mask id="mask5" mask-type="alpha" maskUnits="userSpaceOnUse" x="235" y="218" width="178" height="93">
<rect x="235.146" y="218.84" width="177.647" height="91.8272" fill="white"/>
</mask>
<g mask="url(#mask5)">
<rect x="235.146" y="218.84" width="177.242" height="91.5607" fill="#1DD1E3"/>
<path d="M344.272 267.81C344.363 268.037 344.234 268.257 344.054 268.398C343.653 268.708 343.193 268.945 342.766 269.218C342.314 269.504 341.867 269.796 341.423 270.092C341.401 270.107 341.378 270.122 341.356 270.137C340.847 270.478 340.337 270.821 339.829 271.164C339.363 271.479 338.897 271.794 338.432 272.11C338.279 272.213 338.127 272.317 337.975 272.421C337.919 272.459 337.903 272.53 337.936 272.587C337.967 272.639 338.034 272.657 338.086 272.626C338.232 272.541 338.379 272.455 338.525 272.37C338.925 272.135 339.326 271.9 339.726 271.665C340.23 271.371 340.733 271.076 341.235 270.781C341.706 270.506 342.177 270.23 342.65 269.953C342.923 269.793 343.197 269.632 343.477 269.48C343.616 269.402 343.768 269.336 343.927 269.321C344.188 269.296 344.451 269.435 344.482 269.71C344.507 269.944 344.325 270.126 344.143 270.245C343.488 270.678 342.815 271.082 342.161 271.518C341.229 272.14 340.299 272.767 339.371 273.397C339.17 273.532 338.971 273.668 338.771 273.803C338.72 273.838 338.705 273.906 338.736 273.958C338.777 274.029 338.87 274.054 338.943 274.013C339.728 273.561 340.513 273.11 341.297 272.659C341.543 272.518 341.787 272.377 342.032 272.237C342.25 272.111 342.459 271.963 342.696 271.874C342.944 271.779 343.415 271.738 343.555 272.031C343.734 272.402 343.135 272.674 342.896 272.823C342.617 272.995 342.339 273.171 342.062 273.347C341.383 273.78 340.707 274.215 340.033 274.654C339.742 274.842 339.453 275.031 339.163 275.222C338.919 275.382 338.663 275.523 338.414 275.675C338.135 275.848 337.837 275.988 337.548 276.145C337.244 276.31 336.944 276.484 336.634 276.642C335.791 277.069 334.909 277.521 333.976 277.717C333.417 277.835 332.831 277.797 332.307 278.079C331.93 278.283 331.55 278.49 331.174 278.698C330.588 279.021 330.007 279.352 329.427 279.686C328.715 278.341 328.003 276.997 327.291 275.652C327.74 275.362 328.189 275.073 328.638 274.784C329.088 274.494 329.409 274.315 329.675 273.838C330.134 273.016 330.551 272.259 331.177 271.544C331.72 270.924 332.302 270.333 332.765 269.65C333.242 268.947 333.723 268.243 334.202 267.539C334.385 267.27 334.754 266.814 335.13 267.071C335.133 267.063 335.593 267.339 335.278 268.059C335.281 268.069 334.474 269.94 334.108 270.788C334.051 270.918 334.196 271.043 334.319 270.97C334.982 270.58 335.646 270.19 336.31 269.8C336.459 269.712 336.609 269.625 336.757 269.538C337.127 269.322 337.496 269.105 337.866 268.889C338.34 268.61 338.814 268.334 339.288 268.055C339.752 267.784 340.215 267.512 340.677 267.242C341.014 267.044 341.35 266.848 341.687 266.651C341.858 266.55 342.071 266.462 342.279 266.46C342.468 266.459 342.696 266.56 342.761 266.752C342.845 266.995 342.618 267.207 342.439 267.335C342.185 267.517 341.912 267.667 341.651 267.837C341.239 268.105 340.827 268.377 340.417 268.65C339.936 268.97 339.454 269.292 338.973 269.616C338.529 269.915 338.084 270.214 337.641 270.515C337.444 270.648 337.248 270.78 337.053 270.912C337.015 270.938 337.003 270.988 337.026 271.027C337.06 271.085 337.136 271.106 337.194 271.07C337.236 271.046 337.277 271.022 337.319 270.998C337.69 270.78 338.06 270.563 338.431 270.346C338.922 270.058 339.412 269.772 339.903 269.484C340.811 268.952 341.721 268.423 342.623 267.88C342.641 267.869 342.66 267.859 342.677 267.847C343.024 267.639 343.404 267.433 343.825 267.479C344.016 267.5 344.201 267.63 344.272 267.81Z" fill="#455868"/>
<path d="M289.136 257.692L293.225 259.658C297.175 261.557 300.529 264.475 302.93 268.102L312.027 281.844L328.483 274.085L330.867 279.395L315.527 290.382C312.316 292.523 307.995 292.008 305.396 289.173L292.426 275.03L289.136 257.692V257.692Z" fill="#0C7B86"/>
<path d="M282.26 237.025C282.838 236.857 283.254 237.583 282.82 238.003C281.261 239.514 280.117 241.531 279.428 243.62C278.313 247.005 278.194 250.627 277.922 254.185C277.65 257.742 277.183 261.391 275.47 264.51C273.756 267.63 270.527 270.135 267 269.994C267.003 263.703 267.029 257.269 269.101 251.336C271.173 245.403 276.179 238.367 282.26 237.025Z" fill="#0A2239"/>
<path d="M298.027 301.577H294.914V264.534C293.642 263.08 292.369 261.625 291.097 260.17C291.097 259.717 285.385 257.771 283.42 257.811C281.455 257.771 275.743 259.717 275.743 260.17C274.471 261.625 273.199 263.08 271.927 264.534V301.577H268.813C267.229 321.739 265.645 341.902 264.062 362.065H302.779C301.195 341.902 299.611 321.739 298.027 301.577Z" fill="#3D3535"/>
<path d="M285.161 302.285C286.506 302.386 287.85 302.486 289.195 302.587C289.195 302.356 289.195 302.125 289.196 301.895C287.851 302.025 286.506 302.155 285.161 302.285Z" fill="#262D2B"/>
<path d="M297.136 266.189C294.282 263.518 292.102 260.526 289.249 257.856C289.247 259.582 289.245 261.307 289.243 263.033L282.845 265.654L277.144 263.003C277.141 261.232 277.139 259.461 277.136 257.689C274.638 261.506 271.145 265.574 268.647 269.39C268.505 275.508 268.647 298.986 268.162 309.878H298.681C298.681 307.606 297.136 277.852 297.136 266.189Z" fill="#0C7B86"/>
<path d="M277.205 300.949C277.206 301.388 277.206 301.826 277.207 302.265C277.422 302.267 277.638 302.291 277.85 302.334L278.51 302.469C279.202 302.611 279.915 302.631 280.615 302.53C282.485 302.26 284.354 301.991 286.224 301.721C286.33 301.334 286.435 300.946 286.54 300.56C283.429 300.689 280.317 300.819 277.205 300.949" fill="#262D2B"/>
<path d="M268.329 304.735C269.002 304.545 269.676 304.355 270.349 304.165C270.58 304.528 270.989 304.77 271.457 304.77H290.726V304.577V304.43V301.839V301.418V279.094H271.457C270.734 279.094 270.148 279.671 270.148 280.383V301.242C269.565 301.266 268.982 301.291 268.398 301.315C268.378 302.498 268.355 303.643 268.329 304.735Z" fill="#B32B0C"/>
<path d="M271.457 277.158C270.734 277.158 270.148 277.764 270.148 278.511V302.759C270.148 303.507 270.734 304.112 271.457 304.112H290.726V303.909V303.755V301.035V300.593V277.158H271.457Z" fill="#D5330D"/>
<path d="M272.706 303.461H272.004V277.811H272.706V303.461Z" fill="#B32B0C"/>
<rect x="275.176" y="295.619" width="10.7232" height="1.2841" fill="#B32B0C"/>
<rect x="276.62" y="292.992" width="7.83363" height="1.28393" fill="#B32B0C"/>
<path d="M274.549 302.871L274.525 302.677L270.148 302.72V302.759C270.148 303.117 270.284 303.441 270.503 303.683L274.59 303.271L274.549 302.871Z" fill="#E0563F"/>
<path d="M284.972 298.411C285.152 298.368 285.332 298.325 285.513 298.282C286.062 298.152 286.611 298.022 287.161 297.893C287.761 297.752 288.361 297.613 288.96 297.474C288.986 297.468 289.013 297.462 289.039 297.456C289.562 297.336 290.085 297.222 290.611 297.115C290.649 297.107 290.688 297.1 290.726 297.092V295.857C289.765 296.028 288.803 296.189 287.842 296.351C287.279 296.446 286.717 296.54 286.154 296.636C285.729 296.707 285.304 296.779 284.879 296.851C284.831 296.858 284.784 296.866 284.736 296.874C284.668 296.886 284.605 296.841 284.595 296.774C284.587 296.73 284.617 296.688 284.661 296.677C284.892 296.622 285.123 296.568 285.355 296.514C285.878 296.389 286.403 296.267 286.926 296.145C287.493 296.014 288.06 295.883 288.626 295.754C289.108 295.644 289.591 295.536 290.074 295.431C290.29 295.384 290.509 295.348 290.726 295.303V294.316C290.662 294.32 290.599 294.327 290.539 294.337C290.153 294.402 289.768 294.467 289.382 294.532C288.851 294.621 288.32 294.71 287.789 294.8C287.245 294.892 286.701 294.983 286.158 295.075C285.733 295.146 285.31 295.218 284.886 295.289C284.716 295.318 284.544 295.347 284.373 295.376C283.612 295.505 282.85 295.635 282.088 295.764C281.947 295.789 281.857 295.621 281.958 295.52C282.608 294.858 284.043 293.397 284.043 293.386C284.601 292.825 284.272 292.405 284.265 292.412C284.009 292.039 283.498 292.334 283.23 292.52C282.526 293.008 281.82 293.495 281.119 293.983C280.438 294.457 279.679 294.803 278.946 295.19C278.102 295.635 277.437 296.194 276.709 296.8C276.287 297.151 275.923 297.204 275.397 297.317C274.872 297.427 274.348 297.538 273.823 297.65C273.998 299.157 274.173 300.664 274.348 302.17C275.011 302.064 275.674 301.961 276.338 301.866C276.765 301.804 277.195 301.746 277.621 301.689C278.214 301.61 278.746 301.853 279.311 301.941C280.253 302.087 281.242 301.977 282.184 301.876C282.531 301.839 282.874 301.782 283.218 301.736C283.545 301.691 283.874 301.666 284.197 301.604C284.485 301.549 284.775 301.508 285.061 301.445C285.401 301.37 285.74 301.296 286.08 301.222C286.869 301.052 287.659 300.884 288.451 300.72C288.773 300.653 289.097 300.588 289.42 300.526C289.697 300.471 290.355 300.429 290.324 300.019C290.299 299.696 289.844 299.568 289.579 299.569C289.325 299.569 289.075 299.633 288.827 299.673C288.547 299.717 288.267 299.763 287.987 299.807C287.091 299.951 286.194 300.094 285.296 300.239C285.213 300.252 285.135 300.195 285.123 300.115C285.113 300.054 285.152 299.997 285.212 299.983C285.448 299.927 285.684 299.871 285.92 299.815C287.016 299.555 288.112 299.299 289.209 299.048C289.713 298.933 290.22 298.833 290.726 298.729V297.679C290.562 297.705 290.398 297.732 290.235 297.76C289.693 297.851 289.153 297.942 288.613 298.033C288.036 298.131 287.46 298.228 286.882 298.325C286.423 298.402 285.964 298.48 285.505 298.558L285.001 298.642C284.942 298.652 284.886 298.612 284.875 298.552C284.865 298.488 284.907 298.427 284.972 298.411Z" fill="#E0563F"/>
<path d="M292.531 296.033C292.533 296.277 292.333 296.437 292.114 296.505C291.626 296.653 291.111 296.712 290.612 296.815C290.086 296.923 289.563 297.037 289.04 297.157C289.014 297.162 288.987 297.169 288.961 297.175C288.361 297.313 287.762 297.453 287.161 297.594C286.612 297.722 286.063 297.852 285.513 297.983C285.334 298.025 285.153 298.068 284.973 298.112C284.908 298.127 284.866 298.188 284.876 298.253C284.886 298.312 284.943 298.352 285.002 298.342L285.506 298.258C285.965 298.18 286.424 298.103 286.883 298.025C287.461 297.929 288.037 297.831 288.614 297.734C289.154 297.643 289.694 297.552 290.236 297.461C290.55 297.407 290.864 297.354 291.18 297.311C291.339 297.288 291.504 297.28 291.659 297.322C291.911 297.391 292.105 297.614 292.035 297.881C291.973 298.108 291.736 298.214 291.523 298.261C290.755 298.433 289.979 298.573 289.21 298.748C288.113 299 287.017 299.256 285.921 299.516C285.685 299.571 285.449 299.628 285.213 299.683C285.153 299.698 285.114 299.755 285.124 299.815C285.136 299.896 285.214 299.952 285.297 299.939C286.194 299.795 287.092 299.652 287.988 299.508C288.268 299.463 288.547 299.418 288.827 299.374C289.076 299.334 289.326 299.269 289.579 299.269C289.845 299.268 290.3 299.397 290.325 299.72C290.356 300.13 289.698 300.172 289.421 300.226C289.098 300.289 288.774 300.354 288.451 300.42C287.66 300.585 286.87 300.752 286.081 300.923C285.741 300.996 285.402 301.07 285.062 301.146C284.776 301.209 284.486 301.25 284.197 301.304C283.874 301.366 283.546 301.392 283.219 301.436C282.875 301.483 282.531 301.539 282.185 301.577C281.242 301.678 280.254 301.788 279.312 301.642C278.747 301.554 278.214 301.311 277.622 301.39C277.196 301.446 276.766 301.505 276.339 301.566C275.675 301.661 275.012 301.765 274.349 301.871C274.174 300.364 273.999 298.858 273.824 297.351C274.349 297.239 274.873 297.128 275.398 297.017C275.924 296.905 276.288 296.852 276.71 296.5C277.438 295.895 278.103 295.336 278.947 294.89C279.68 294.503 280.439 294.157 281.12 293.684C281.821 293.196 282.527 292.709 283.231 292.221C283.499 292.035 284.01 291.74 284.266 292.112C284.273 292.106 284.602 292.526 284.045 293.087C284.045 293.097 282.609 294.559 281.959 295.221C281.858 295.322 281.949 295.489 282.089 295.465C282.851 295.335 283.613 295.206 284.374 295.077C284.545 295.048 284.717 295.019 284.887 294.99C285.311 294.919 285.734 294.847 286.159 294.776C286.702 294.684 287.246 294.593 287.79 294.501C288.321 294.411 288.852 294.321 289.383 294.233C289.769 294.167 290.154 294.103 290.54 294.037C290.737 294.004 290.968 293.997 291.162 294.069C291.339 294.135 291.515 294.31 291.506 294.512C291.496 294.768 291.206 294.886 290.992 294.942C290.69 295.022 290.38 295.065 290.075 295.132C289.592 295.236 289.109 295.345 288.627 295.455C288.061 295.583 287.494 295.714 286.928 295.846C286.404 295.968 285.879 296.09 285.356 296.214C285.124 296.269 284.893 296.323 284.663 296.377C284.617 296.388 284.588 296.431 284.596 296.475C284.606 296.541 284.669 296.587 284.737 296.575C284.785 296.567 284.832 296.559 284.88 296.551C285.305 296.479 285.73 296.407 286.155 296.336C286.718 296.241 287.28 296.147 287.843 296.051C288.884 295.876 289.926 295.704 290.967 295.516C290.987 295.512 291.008 295.509 291.028 295.504C291.428 295.432 291.858 295.375 292.234 295.567C292.405 295.654 292.53 295.841 292.531 296.033Z" fill="#455868"/>
<path d="M269.412 276.269C267.769 282.926 265.985 289.743 264.442 296.516H273.762C274.029 298.67 274.295 300.824 274.562 302.978C270.039 303.372 265.516 303.767 260.993 304.161C257.319 304.482 254.311 301.507 254.909 298.146C256.52 289.096 258.13 280.046 259.741 270.995C260.303 267.833 262.415 265.087 265.464 263.554C269.355 261.597 273.246 259.641 277.137 257.684C277.129 257.791 277.123 257.9 277.117 258.007C274.549 264.095 271.98 270.182 269.412 276.269Z" fill="#0C7B86"/>
<path d="M291.713 258.931L289.137 257.692C289.137 257.692 277.137 257.691 277.138 257.685C276.315 258.098 275.493 258.512 274.67 258.926C276.966 264.091 280.075 267.081 283.186 267.03C286.299 267.088 289.413 264.102 291.713 258.931Z" fill="#A12507"/>
<path d="M288.774 250.249C286.912 249.526 285.049 248.804 283.186 248.081V248.087C281.325 248.809 279.463 249.531 277.602 250.253C277.448 252.723 277.293 255.193 277.139 257.663C277.099 258.298 279.62 261.364 280.217 262.08C280.298 262.178 280.381 262.273 280.473 262.362C281.983 263.819 284.405 263.826 285.924 262.377C286.016 262.289 286.099 262.194 286.18 262.096C286.772 261.383 289.279 258.331 289.242 257.725C289.086 255.233 288.93 252.741 288.774 250.249Z" fill="#35536B"/>
<path d="M277.601 250.254C277.582 250.558 277.563 250.862 277.544 251.166C280.681 254.186 284.766 256.371 289.235 257.637C289.081 255.175 288.927 252.713 288.773 250.251C287.758 249.857 286.743 249.463 285.727 249.069C284.86 248.75 283.992 248.431 283.125 248.111C281.283 248.826 279.442 249.54 277.601 250.254Z" fill="#0A2239"/>
<path d="M297.774 280.379C297.677 278.311 297.58 276.243 297.483 274.175C297.473 273.969 297.062 273.968 297.071 274.175C297.168 276.243 297.265 278.311 297.362 280.379C297.372 280.585 297.783 280.586 297.774 280.379Z" fill="#095D6E"/>
<path d="M268.868 279.495C268.787 277.754 268.657 276.015 268.575 274.273C268.566 274.068 268.156 274.067 268.166 274.273C268.248 276.015 268.378 277.754 268.459 279.495C268.469 279.701 268.878 279.702 268.868 279.495Z" fill="#095D6E"/>
<path d="M295.938 233.07C295.702 230.808 294.495 228.514 292.341 226.987C289.946 225.289 286.609 225.037 283.545 225.002C281.054 224.973 278.499 225.262 276.213 226.094C272.853 227.318 271.356 230.25 271.062 233.07C270.807 235.52 271.383 237.971 271.957 240.385C271.957 240.385 283.486 240.999 283.486 241C283.491 241 283.496 241 283.5 240.999C283.5 240.999 283.514 241 283.514 240.999C287.357 240.794 291.2 240.59 295.043 240.385C295.617 237.971 296.193 235.52 295.938 233.07Z" fill="#0A2239"/>
<path d="M291.451 235.262C290.486 232.267 288.465 230.063 286.237 229.574C285.961 229.513 285.683 229.48 285.404 229.476C284.663 229.464 281.793 229.464 281.052 229.476C280.773 229.48 280.495 229.513 280.219 229.574C277.991 230.063 275.97 232.267 275.005 235.262C274.189 237.795 274.121 240.727 274.395 243.501C274.628 245.857 274.975 246.822 276.005 248.658C277.144 250.689 278.672 252.204 280.297 253.272C281.03 253.754 281.82 254.266 282.632 254.456C282.718 254.484 282.808 254.505 282.902 254.516C283.011 254.529 283.12 254.535 283.228 254.533C283.336 254.535 283.445 254.529 283.554 254.516C283.647 254.505 283.738 254.484 283.824 254.456C284.635 254.266 285.426 253.754 286.159 253.272C287.784 252.204 289.312 250.689 290.451 248.658C291.481 246.822 291.828 245.857 292.061 243.501C292.335 240.727 292.267 237.795 291.451 235.262" fill="#35536B"/>
<path d="M274.763 239.52C274.728 239.016 274.507 238.564 274.17 238.319C273.889 238.114 273.595 237.947 273.28 237.836C272.76 237.652 272.151 237.742 271.771 238.242C271.347 238.8 271.318 239.698 271.451 240.467C271.732 242.09 272.6 243.464 273.606 244.452C273.787 244.629 274.015 244.716 274.238 244.671C274.798 244.557 274.877 243.787 274.88 243.157C274.887 241.943 274.848 240.728 274.763 239.52Z" fill="#35536B"/>
<path d="M291.684 239.52C291.72 239.016 291.941 238.564 292.277 238.319C292.558 238.114 292.853 237.947 293.168 237.836C293.687 237.652 294.297 237.742 294.677 238.242C295.1 238.8 295.129 239.698 294.996 240.467C294.715 242.09 293.848 243.464 292.841 244.452C292.66 244.629 292.433 244.716 292.21 244.671C291.65 244.557 291.571 243.787 291.567 243.157C291.56 241.943 291.599 240.728 291.684 239.52Z" fill="#35536B"/>
<path d="M288.077 227.293C287.732 226.943 287.191 226.882 286.697 226.859C284.969 226.775 283.232 226.885 281.529 227.184C279.399 227.558 277.2 228.309 275.838 229.966C274.513 231.579 274.342 233.778 273.947 235.817C273.885 236.134 273.824 236.45 273.763 236.766C275.642 237.051 277.648 235.966 278.412 234.25C278.81 233.356 278.944 232.265 279.731 231.672C280.431 231.143 281.401 231.204 282.282 231.243C283.336 231.289 284.408 231.267 285.424 230.985C286.44 230.702 287.405 230.137 287.995 229.275C288.402 228.681 288.584 227.807 288.077 227.293" fill="#0A2239"/>
<path d="M283.421 250.391C284.983 250.391 286.249 249.144 286.249 247.605H280.594C280.594 249.144 281.86 250.391 283.421 250.391Z" fill="white"/>
</g>
<path d="M551.935 377.669C536.082 360.516 522.769 346.11 511.43 333.839H225.741C214.402 346.11 201.09 360.516 185.236 377.669H181.08C182.103 378.061 183.126 378.453 184.148 378.845C184.148 378.845 184.148 378.845 184.148 378.846L188.193 380.397C189.694 380.972 191.196 381.548 192.698 382.124C198.222 384.242 204.123 385.331 210.08 385.331H527.113C533.069 385.331 538.97 384.242 544.494 382.124C547.339 381.033 550.183 379.943 553.028 378.852C553.033 378.85 553.039 378.848 553.044 378.846C554.067 378.453 555.09 378.061 556.113 377.669H551.935H551.935Z" fill="#0A2239"/>
<path d="M549.858 381.04H188.192C183.083 381.04 180.051 379.839 181.401 378.376C199.276 358.999 214.042 342.993 226.444 329.548H511.607C524.009 342.992 538.774 358.999 556.65 378.376C558 379.839 554.967 381.04 549.859 381.04" fill="#0C7489"/>
<path d="M521.785 360.443C418.515 360.443 315.245 360.443 211.976 360.443C220.771 349.294 228.622 339.343 235.672 330.406H498.088C505.137 339.342 512.989 349.293 521.785 360.443" fill="#0FA3B1"/>
<path d="M429.134 359.585C385.07 359.585 341 359.585 296.937 359.585C297.389 358.136 297.834 356.706 298.274 355.293C298.421 354.819 299.758 354.436 301.255 354.436C344.329 354.436 387.402 354.436 430.473 354.436C430.864 355.837 431.261 357.256 431.662 358.694C431.799 359.185 430.666 359.585 429.134 359.585Z" fill="#0A2239"/>
<path d="M241.438 359.585C235.622 359.585 229.807 359.585 223.99 359.585C224.932 358.136 225.862 356.706 226.781 355.293C227.089 354.819 228.578 354.436 230.108 354.436H247.162C246.374 355.837 245.578 357.256 244.771 358.694C244.493 359.185 243.005 359.585 241.438 359.585Z" fill="#0A2239"/>
<path d="M251.053 338.988H236.005C236.736 338.265 237.459 337.55 238.173 336.843C238.413 336.606 239.679 336.413 241.001 336.414C245.916 336.414 250.83 336.414 255.743 336.414C255.13 337.115 254.511 337.825 253.884 338.543C253.668 338.789 252.404 338.989 251.053 338.988Z" fill="#0A2239"/>
<path d="M274.31 353.577H225.706C226.568 352.13 227.419 350.699 228.261 349.287C228.543 348.812 229.938 348.428 231.377 348.428C247.224 348.428 263.07 348.428 278.914 348.428C278.386 349.83 277.851 351.249 277.309 352.687C277.125 353.178 275.783 353.577 274.31 353.577Z" fill="#0A2239"/>
<path d="M269.845 348.428H228.281C229.131 346.981 229.972 345.55 230.802 344.138C231.08 343.663 232.489 343.279 233.948 343.279H274.624C274.058 344.681 273.485 346.101 272.904 347.538C272.706 348.028 271.336 348.428 269.845 348.428Z" fill="#0A2239"/>
<path d="M507.573 353.577H480.063C479.383 352.13 478.711 350.699 478.048 349.287C477.825 348.812 478.816 348.428 480.263 348.428C489.232 348.428 498.201 348.428 507.169 348.428C508.01 349.83 508.859 351.249 509.717 352.687C510.012 353.178 509.051 353.577 507.573 353.577Z" fill="#0A2239"/>
<path d="M265.049 359.585C259.086 359.585 253.125 359.585 247.161 359.585C247.962 358.136 248.753 356.706 249.535 355.293C249.797 354.819 251.279 354.436 252.848 354.436H270.332C269.684 355.837 269.029 357.256 268.365 358.694C268.137 359.185 266.653 359.585 265.049 359.585Z" fill="#0A2239"/>
<path d="M454.241 359.585C448.847 359.585 443.454 359.585 438.057 359.585C437.647 358.136 437.24 356.706 436.835 355.293C436.7 354.819 437.739 354.436 439.159 354.436H454.978C455.492 355.837 456.013 357.256 456.541 358.694C456.723 359.185 455.691 359.585 454.241 359.585Z" fill="#0A2239"/>
<path d="M475.66 357.01C471.509 357.01 467.356 357.01 463.204 357.01C462.998 356.465 462.794 355.923 462.593 355.383C462.395 354.859 463.453 354.436 464.953 354.436C469.061 354.436 473.17 354.436 477.279 354.436C477.513 354.971 477.749 355.509 477.985 356.05C478.216 356.579 477.175 357.01 475.66 357.01Z" fill="#0A2239"/>
<path d="M255.759 335.555H241.154C241.419 334.992 241.683 334.432 241.945 333.874C242.177 333.38 243.417 332.98 244.714 332.98H259.176C258.951 333.535 258.725 334.091 258.498 334.65C258.293 335.149 257.071 335.555 255.759 335.555Z" fill="#0A2239"/>
<path d="M491.398 335.555H476.183C475.945 334.992 475.708 334.432 475.472 333.874C475.263 333.38 476.187 332.98 477.54 332.98H492.606C492.879 333.535 493.152 334.091 493.424 334.65C493.67 335.149 492.762 335.555 491.398 335.555Z" fill="#0A2239"/>
<path d="M510.983 357.01C506.869 357.01 502.756 357.01 498.643 357.01C498.36 356.465 498.08 355.923 497.8 355.383C497.528 354.859 498.512 354.436 500 354.436C504.072 354.436 508.143 354.436 512.211 354.436C512.523 354.971 512.834 355.509 513.145 356.05C513.454 356.579 512.485 357.01 510.983 357.01Z" fill="#0A2239"/>
<path d="M492.894 357.01C488.76 357.01 484.627 357.01 480.494 357.01C480.252 356.465 480.009 355.923 479.767 355.383C479.531 354.859 480.554 354.436 482.047 354.436C486.138 354.436 490.225 354.436 494.316 354.436C494.589 354.971 494.862 355.509 495.137 356.05C495.407 356.579 494.402 357.01 492.894 357.01Z" fill="#0A2239"/>
<path d="M489.454 356.152H477.051C476.812 355.607 476.572 355.065 476.333 354.525C476.1 354.001 477.126 353.578 478.619 353.577H490.894C491.163 354.113 491.433 354.651 491.705 355.191C491.971 355.721 490.963 356.152 489.454 356.152Z" fill="#0A2239"/>
<path d="M289.542 359.585C283.425 359.585 277.307 359.585 271.19 359.585C271.844 358.136 272.488 356.706 273.125 355.293C273.338 354.819 274.817 354.436 276.424 354.436H294.362C293.862 355.837 293.355 357.256 292.84 358.694C292.666 359.185 291.186 359.585 289.542 359.585Z" fill="#0A2239"/>
<path d="M300.753 353.577H284.922C285.413 352.13 285.897 350.699 286.373 349.287C286.531 348.812 287.789 348.428 289.177 348.428C294.339 348.428 299.499 348.428 304.66 348.428C304.296 349.83 303.928 351.249 303.554 352.687C303.427 353.178 302.173 353.577 300.753 353.577" fill="#0A2239"/>
<path d="M327.772 353.577H311.526C311.883 352.13 312.236 350.699 312.584 349.287C312.701 348.812 313.952 348.428 315.376 348.428C320.672 348.428 325.969 348.428 331.265 348.428C331.031 349.83 330.795 351.249 330.558 352.687C330.477 353.178 329.228 353.577 327.772 353.577Z" fill="#0A2239"/>
<path d="M260.526 343.279C252.065 343.279 243.605 343.279 235.146 343.279C235.915 342.556 236.674 341.841 237.425 341.134C237.677 340.896 238.979 340.705 240.332 340.705H265.183C264.596 341.406 264.002 342.116 263.402 342.834C263.196 343.079 261.909 343.279 260.526 343.279Z" fill="#0A2239"/>
<path d="M502.493 348.428C491.213 348.428 479.928 348.428 468.645 348.428C468.052 346.981 467.466 345.55 466.885 344.138C466.69 343.663 467.664 343.279 469.057 343.279H502.181C502.97 344.682 503.768 346.101 504.572 347.538C504.85 348.029 503.917 348.428 502.493 348.428Z" fill="#0A2239"/>
<path d="M348.806 353.577H332.123C332.341 352.13 332.555 350.699 332.767 349.287C332.838 348.812 334.083 348.428 335.545 348.428C340.984 348.428 346.423 348.428 351.862 348.428C351.767 349.83 351.671 351.249 351.575 352.687C351.542 353.178 350.304 353.577 348.806 353.577Z" fill="#0A2239"/>
<path d="M372.303 353.577H355.294C355.363 352.13 355.432 350.699 355.499 349.286C355.523 348.811 356.752 348.428 358.241 348.428H374.877C374.928 349.83 374.98 351.249 375.032 352.687C375.05 353.178 373.827 353.577 372.303 353.577Z" fill="#0A2239"/>
<path d="M399.019 353.577H382.143C382.06 352.13 381.979 350.699 381.899 349.287C381.872 348.812 383.049 348.428 384.53 348.428C390.031 348.428 395.533 348.428 401.036 348.428C401.233 349.83 401.432 351.249 401.634 352.687C401.703 353.178 400.533 353.577 399.019 353.577Z" fill="#0A2239"/>
<path d="M419.749 353.577H403.178C402.949 352.13 402.722 350.699 402.499 349.287C402.423 348.812 403.54 348.428 404.994 348.428C410.396 348.428 415.799 348.428 421.201 348.428C421.537 349.83 421.88 351.249 422.225 352.687C422.343 353.178 421.237 353.577 419.749 353.577Z" fill="#0A2239"/>
<path d="M447.336 353.577H431.065C430.694 352.13 430.327 350.699 429.967 349.287C429.845 348.812 430.903 348.428 432.33 348.428C437.635 348.428 442.94 348.428 448.245 348.428C448.717 349.83 449.194 351.249 449.678 352.687C449.844 353.178 448.795 353.577 447.336 353.577Z" fill="#0A2239"/>
<path d="M468.91 353.577H452.933C452.426 352.13 451.925 350.699 451.43 349.287C451.264 348.812 452.268 348.428 453.666 348.428C458.875 348.428 464.085 348.428 469.293 348.428C469.896 349.83 470.505 351.249 471.122 352.687C471.334 353.178 470.344 353.577 468.91 353.577Z" fill="#0A2239"/>
<path d="M296.365 348.428H280.631C281.148 346.981 281.66 345.55 282.165 344.138C282.335 343.663 283.592 343.279 284.972 343.279H300.369C299.974 344.681 299.574 346.101 299.17 347.538C299.034 348.028 297.775 348.428 296.365 348.428Z" fill="#0A2239"/>
<path d="M318.219 348.428H302.086C302.476 346.981 302.861 345.55 303.242 344.138C303.371 343.663 304.622 343.279 306.037 343.279H321.824C321.556 344.681 321.284 346.101 321.008 347.538C320.914 348.028 319.666 348.428 318.219 348.428Z" fill="#0A2239"/>
<path d="M341.81 348.428H325.258C325.514 346.981 325.767 345.55 326.016 344.138C326.099 343.663 327.347 343.279 328.798 343.279H344.996C344.86 344.681 344.723 346.101 344.584 347.538C344.537 348.028 343.295 348.428 341.81 348.428Z" fill="#0A2239"/>
<path d="M366.51 348.428H351.003C351.108 346.981 351.211 345.55 351.313 344.138C351.348 343.663 352.477 343.279 353.839 343.279C358.898 343.279 363.955 343.279 369.014 343.279C369.02 344.681 369.024 346.101 369.025 347.538C369.028 348.028 367.9 348.428 366.51 348.428Z" fill="#0A2239"/>
<path d="M389.765 348.428H374.266C374.235 346.981 374.205 345.55 374.175 344.138C374.164 343.663 375.26 343.279 376.619 343.279H391.787C391.921 344.681 392.056 346.101 392.195 347.538C392.243 348.028 391.152 348.428 389.765 348.428Z" fill="#0A2239"/>
<path d="M413.694 348.428H397.018C396.84 346.981 396.664 345.55 396.489 344.138C396.431 343.663 397.569 343.279 399.033 343.279H415.352C415.638 344.681 415.927 346.101 416.22 347.538C416.319 348.028 415.19 348.428 413.694 348.428Z" fill="#0A2239"/>
<path d="M436.991 348.428H420.608C420.29 346.981 419.976 345.55 419.666 344.138C419.563 343.663 420.64 343.279 422.08 343.279H438.112C438.533 344.681 438.958 346.101 439.385 347.538C439.53 348.028 438.459 348.428 436.991 348.428Z" fill="#0A2239"/>
<path d="M458.564 348.428H442.47C442.018 346.981 441.57 345.55 441.129 344.138C440.98 343.663 442.004 343.279 443.417 343.279H459.166C459.714 344.681 460.268 346.101 460.829 347.538C461.022 348.028 460.005 348.428 458.564 348.428Z" fill="#0A2239"/>
<path d="M285.875 343.279C280.695 343.279 275.514 343.279 270.333 343.279C270.909 342.556 271.478 341.841 272.04 341.134C272.229 340.896 273.488 340.705 274.853 340.705H290.072C289.616 341.406 289.154 342.116 288.688 342.834C288.528 343.079 287.267 343.279 285.875 343.279Z" fill="#0A2239"/>
<path d="M305.134 343.279C299.825 343.279 294.522 343.279 289.213 343.279C289.667 342.556 290.117 341.841 290.561 341.134C290.709 340.896 291.964 340.705 293.362 340.705H308.951C308.616 341.406 308.276 342.116 307.932 342.834C307.814 343.079 306.562 343.279 305.134 343.279Z" fill="#0A2239"/>
<path d="M328.704 343.279C323.265 343.279 317.824 343.279 312.385 343.279C312.711 342.556 313.035 341.841 313.356 341.134C313.462 340.896 314.71 340.705 316.144 340.705H332.123C331.913 341.406 331.701 342.116 331.487 342.834C331.413 343.079 330.168 343.279 328.704 343.279" fill="#0A2239"/>
<path d="M352.555 343.279C347.461 343.279 342.366 343.279 337.272 343.279C337.45 342.556 337.624 341.841 337.797 341.134C337.856 340.896 338.991 340.705 340.331 340.705H355.295C355.225 341.406 355.154 342.116 355.08 342.834C355.056 343.079 353.924 343.279 352.555 343.279Z" fill="#0A2239"/>
<path d="M375.979 343.279C370.8 343.279 365.622 343.279 360.443 343.279C360.491 342.556 360.538 341.841 360.585 341.134C360.599 340.896 361.72 340.705 363.083 340.705H378.294C378.352 341.406 378.409 342.116 378.465 342.834C378.487 343.079 377.372 343.279 375.979 343.279Z" fill="#0A2239"/>
<path d="M399.252 343.279C394.121 343.279 388.992 343.279 383.863 343.279C383.78 342.556 383.697 341.841 383.616 341.134C383.589 340.896 384.663 340.705 386.012 340.705H401.081C401.264 341.406 401.448 342.116 401.635 342.834C401.699 343.079 400.631 343.279 399.252 343.279Z" fill="#0A2239"/>
<path d="M422.538 343.279C417.497 343.279 412.453 343.279 407.413 343.279C407.203 342.556 406.995 341.841 406.789 341.134C406.722 340.896 407.739 340.705 409.069 340.705H423.878C424.182 341.406 424.49 342.116 424.801 342.834C424.906 343.079 423.893 343.279 422.538 343.279Z" fill="#0A2239"/>
<path d="M443.038 343.279C437.611 343.279 432.185 343.279 426.757 343.279C426.392 342.556 426.032 341.841 425.676 341.134C425.554 340.896 426.618 340.705 428.047 340.705H443.988C444.45 341.406 444.917 342.116 445.388 342.834C445.549 343.079 444.498 343.279 443.038 343.279Z" fill="#0A2239"/>
<path d="M466.324 343.279C460.99 343.279 455.657 343.279 450.323 343.279C449.83 342.556 449.34 341.841 448.855 341.134C448.692 340.896 449.701 340.705 451.105 340.705H466.772C467.358 341.406 467.951 342.116 468.55 342.834C468.754 343.079 467.759 343.279 466.324 343.279Z" fill="#0A2239"/>
<path d="M278.882 338.988H263.467C264.08 338.265 264.687 337.55 265.287 336.843C265.488 336.606 266.749 336.413 268.103 336.414C273.138 336.414 278.171 336.414 283.205 336.414C282.709 337.115 282.208 337.825 281.699 338.543C281.526 338.789 280.264 338.989 278.882 338.988Z" fill="#0A2239"/>
<path d="M298.126 338.988H282.348C282.845 338.265 283.337 337.55 283.823 336.843C283.987 336.606 285.241 336.413 286.628 336.414C291.781 336.414 296.934 336.414 302.086 336.414C301.705 337.115 301.319 337.825 300.929 338.543C300.795 338.789 299.542 338.989 298.126 338.988Z" fill="#0A2239"/>
<path d="M320.272 338.988H305.519C305.863 338.265 306.202 337.55 306.536 336.843C306.648 336.606 307.793 336.413 309.086 336.414C313.903 336.414 318.722 336.414 323.541 336.414C323.303 337.115 323.062 337.825 322.819 338.543C322.735 338.789 321.596 338.989 320.272 338.988Z" fill="#0A2239"/>
<path d="M343.809 338.988H328.69C328.917 338.265 329.14 337.55 329.361 336.843C329.435 336.606 330.574 336.413 331.901 336.414C336.837 336.414 341.775 336.414 346.713 336.414C346.589 337.115 346.466 337.825 346.342 338.543C346.299 338.789 345.164 338.989 343.809 338.988Z" fill="#0A2239"/>
<path d="M366.506 338.988H351.003C351.107 338.265 351.209 337.55 351.31 336.843C351.344 336.606 352.478 336.413 353.838 336.414C358.899 336.414 363.964 336.414 369.025 336.414C369.025 337.115 369.024 337.825 369.023 338.543C369.021 338.789 367.896 338.989 366.506 338.988Z" fill="#0A2239"/>
<path d="M389.757 338.988H374.248C374.224 338.265 374.199 337.55 374.175 336.843C374.167 336.606 375.264 336.413 376.627 336.414C381.692 336.414 386.755 336.414 391.82 336.414C391.944 337.115 392.069 337.825 392.196 338.543C392.239 338.789 391.149 338.989 389.757 338.988Z" fill="#0A2239"/>
<path d="M407.894 338.988H392.646C392.495 338.265 392.346 337.55 392.199 336.843C392.15 336.606 393.195 336.413 394.535 336.414C399.515 336.414 404.494 336.414 409.473 336.414C409.718 337.115 409.965 337.825 410.215 338.543C410.298 338.789 409.262 338.989 407.894 338.988Z" fill="#0A2239"/>
<path d="M431.174 338.988H416.181C415.909 338.265 415.64 337.55 415.374 336.843C415.283 336.606 416.281 336.413 417.597 336.414C422.492 336.414 427.388 336.414 432.285 336.414C432.646 337.115 433.011 337.825 433.379 338.543C433.506 338.789 432.519 338.989 431.174 338.988Z" fill="#0A2239"/>
<path d="M453.592 338.988H438.851C438.46 338.265 438.074 337.55 437.693 336.843C437.564 336.606 438.512 336.413 439.806 336.414C444.62 336.414 449.432 336.414 454.247 336.414C454.721 337.115 455.2 337.825 455.685 338.543C455.85 338.789 454.912 338.989 453.592 338.988Z" fill="#0A2239"/>
<path d="M500.763 343.279C492.674 343.279 484.588 343.279 476.497 343.279C475.863 342.556 475.234 341.841 474.613 341.134C474.402 340.896 475.368 340.705 476.764 340.705H500.524C501.295 341.406 502.073 342.116 502.858 342.834C503.129 343.079 502.19 343.279 500.763 343.279Z" fill="#0A2239"/>
<path d="M496.497 338.988H462.512C461.96 338.265 461.414 337.55 460.875 336.843C460.692 336.606 461.662 336.413 463.036 336.414C474.135 336.414 485.234 336.414 496.33 336.414C497.07 337.115 497.817 337.825 498.57 338.543C498.829 338.789 497.901 338.989 496.497 338.988Z" fill="#0A2239"/>
<path d="M302.468 335.555H287.497C287.67 334.992 287.842 334.432 288.013 333.874C288.164 333.38 289.365 332.98 290.694 332.98H305.519C305.386 333.535 305.252 334.091 305.117 334.65C304.996 335.149 303.811 335.555 302.468 335.555Z" fill="#0A2239"/>
<path d="M324.1 335.555H308.951C309.08 334.992 309.208 334.432 309.333 333.874C309.447 333.38 310.627 332.98 311.972 332.98H326.973C326.883 333.535 326.793 334.091 326.705 334.65C326.624 335.149 325.458 335.555 324.1 335.555" fill="#0A2239"/>
<path d="M345.737 335.555H330.406C330.488 334.992 330.57 334.432 330.652 333.874C330.725 333.38 331.884 332.98 333.247 332.98H348.428C348.385 333.535 348.341 334.091 348.297 334.65C348.258 335.149 347.113 335.555 345.737 335.555Z" fill="#0A2239"/>
<path d="M375.979 335.555H360.443C360.459 334.992 360.476 334.432 360.491 333.874C360.507 333.379 361.636 332.981 363.014 332.98C368.143 332.981 373.271 332.981 378.399 332.98C378.422 333.534 378.444 334.091 378.465 334.65C378.486 335.149 377.372 335.555 375.979 335.555Z" fill="#0A2239"/>
<path d="M399.229 335.555H383.711C383.681 334.992 383.649 334.432 383.616 333.874C383.587 333.38 384.68 332.981 386.06 332.981C391.181 332.98 396.305 332.98 401.426 332.981C401.496 333.535 401.565 334.091 401.635 334.65C401.697 335.149 400.621 335.555 399.229 335.555Z" fill="#0A2239"/>
<path d="M419.049 335.555H403.594C403.514 334.992 403.435 334.432 403.357 333.874C403.287 333.38 404.344 332.981 405.716 332.981C410.817 332.98 415.918 332.98 421.019 332.981C421.135 333.535 421.252 334.091 421.369 334.65C421.472 335.149 420.436 335.555 419.049 335.555Z" fill="#0A2239"/>
<path d="M449.196 335.555H433.836C433.693 334.992 433.547 334.432 433.402 333.874C433.274 333.38 434.276 332.981 435.64 332.981C440.71 332.98 445.781 332.98 450.851 332.981C451.032 333.535 451.213 334.091 451.395 334.65C451.558 335.149 450.572 335.555 449.196 335.555Z" fill="#0A2239"/>
<path d="M472.444 335.555H457.155C456.963 334.992 456.772 334.432 456.581 333.874C456.41 333.38 457.377 332.981 458.734 332.981C463.781 332.98 468.829 332.98 473.874 332.981C474.1 333.535 474.328 334.091 474.556 334.65C474.759 335.149 473.815 335.555 472.444 335.555Z" fill="#0A2239"/>
<path d="M409.399 377.607H327.795C325.29 377.607 323.389 377.001 323.551 376.259C324.32 372.7 325.064 369.262 325.784 365.936C325.928 365.27 327.95 364.734 330.302 364.734C355.831 364.734 381.362 364.734 406.892 364.734C409.243 364.734 411.267 365.271 411.409 365.936C412.126 369.261 412.87 372.701 413.643 376.259C413.799 377.001 411.903 377.607 409.399 377.607Z" fill="#0FA3B1"/>
<path fill-rule="evenodd" clip-rule="evenodd" d="M496.966 119.676C495.406 119.676 493.83 119.574 492.24 119.366C474.525 117.03 461.536 102.123 461.044 84.7844C470.45 91.5441 481.033 98.4107 492.047 104.616C499.704 108.931 506.877 112.558 513.533 115.592C508.533 118.213 502.877 119.676 496.966 119.676ZM522.729 108.705C516.684 106.275 508.633 102.275 497.999 96.1444C479.668 85.5779 468.852 77.9813 462.814 72.5195C467.592 57.8613 481.347 47.7632 496.877 47.7632C498.437 47.7632 500.013 47.8649 501.602 48.0747C521.253 50.6641 535.087 68.7223 532.502 88.4079C531.458 96.3563 527.898 103.355 522.729 108.705Z" fill="url(#paint1_linear)"/>
<path fill-rule="evenodd" clip-rule="evenodd" d="M561.35 129.254C552.477 129.254 535.974 125.817 513.532 115.592C516.943 113.802 520.051 111.474 522.727 108.705C528.315 110.95 532.187 111.852 534.806 111.852C545.548 111.852 535.142 96.6498 535.142 96.6498C535.142 96.6498 565.524 116.413 568.711 126.236C569.283 128.003 566.707 129.254 561.35 129.254ZM461.043 84.7845C436.24 66.9625 419.628 49.8865 424.942 47.6467C425.67 47.3395 426.642 47.2007 427.806 47.2007C438.359 47.2007 464.518 58.5681 464.518 58.5681C464.518 58.5681 464.417 58.5649 464.239 58.5649C462.035 58.5649 447.947 59.0724 462.812 72.5196C462.133 74.6026 461.635 76.7799 461.339 79.0314C461.085 80.9692 460.989 82.8911 461.043 84.7845Z" fill="url(#paint2_linear)"/>
<path fill-rule="evenodd" clip-rule="evenodd" d="M513.533 115.592C506.878 112.558 499.704 108.93 492.048 104.616C481.034 98.4106 470.451 91.544 461.045 84.7843C460.991 82.891 461.087 80.9691 461.341 79.0312C461.637 76.7798 462.135 74.6025 462.814 72.5195C468.852 77.9813 479.668 85.5779 497.999 96.1443C508.633 102.275 516.684 106.275 522.729 108.705C520.052 111.474 516.945 113.802 513.533 115.592Z" fill="url(#paint3_linear)"/>
<path fill-rule="evenodd" clip-rule="evenodd" d="M579.989 69.8645C579.437 76.5097 573.612 81.4481 566.977 80.894C560.344 80.3409 555.415 74.5052 555.967 67.86C556.52 61.2137 562.345 56.2753 568.978 56.8284C575.613 57.3825 580.542 63.2183 579.989 69.8645Z" fill="url(#paint4_linear)"/>
<g filter="url(#filter0_d)">
<path d="M171.435 38.1034C159.67 45.4313 154.438 59.9367 158.821 73.0696C159.559 75.1471 160.511 77.1396 161.662 79.0146C168.616 90.4253 182.328 95.6832 195.139 91.8515C197.653 91.0932 200.055 89.9939 202.279 88.584C205.978 86.2154 209.116 83.0548 211.467 79.3293C214.539 74.6285 216.206 69.1459 216.27 63.5375C216.436 53.4678 211.537 44.032 203.249 38.4561C194.961 32.8801 184.405 31.9194 175.192 35.9023C173.886 36.5392 172.631 37.275 171.435 38.1034Z" fill="#0FA3B1"/>
</g>
<path d="M171.433 37.7609C164.757 41.9323 160.024 48.5791 158.276 56.239C156.529 63.899 157.91 71.9446 162.115 78.6059C169.166 89.9943 182.984 95.2932 195.852 91.5428C198.377 90.7998 200.788 89.7176 203.019 88.3261C206.728 85.9873 209.869 82.8576 212.216 79.1619L211.827 79.0127C211.065 78.9142 210.292 79.0629 209.623 79.4368C207.763 80.5928 205.817 81.6072 203.802 82.4713C201.679 83.3658 199.222 82.4236 198.244 80.34C198.059 79.825 198.049 79.1867 197.711 78.7397C197.373 78.2927 195.416 78.2403 194.263 78.7502C191.907 79.7979 189.241 79.9297 186.788 79.1198C184.37 78.1888 182.737 75.916 182.632 73.3384C182.721 70.4534 184.758 67.8079 184.03 65.0542C182.941 63.1744 180.82 62.1352 178.663 62.4252C176.502 62.8121 174.366 63.328 172.267 63.97C170.212 64.4991 168.025 63.9923 166.411 62.613C165.024 60.5808 165.036 57.9108 166.441 55.8981C167.908 54.0104 169.643 52.3459 171.592 50.9568C173.726 48.9973 175.346 46.5472 176.311 43.8194C177.44 41.1345 177.136 38.0603 175.501 35.6401C174.098 36.2547 172.739 36.9632 171.433 37.7609Z" fill="#0C7489"/>
<path d="M195.862 91.7692C195.285 90.6103 194.448 89.5965 193.415 88.8063C188.661 85.7096 182.882 84.5843 177.328 85.6742C175.923 85.8313 174.037 85.7406 173.756 84.3045C173.475 82.8684 175.554 81.9576 175.965 80.7232C176.27 79.9092 176.028 78.9891 175.358 78.4208C174.688 77.8525 173.734 77.7576 172.97 78.1832C171.704 78.6464 170.477 79.5047 169.136 79.4963C165.719 79.3882 165.401 75.2174 164.803 72.774C164.205 70.3305 164.361 69.7578 163.913 68.2575C163.465 66.7572 161.837 64.9942 160.929 63.191C159.897 60.5927 159.969 57.6989 161.129 55.1704C162.285 52.6643 163.275 50.086 164.095 47.4513C164.309 46.4151 164.372 45.353 164.283 44.2969C155.882 54.2892 155.128 68.6054 162.428 79.5249C169.728 90.4444 183.355 95.3842 195.961 91.6803L195.862 91.7692Z" fill="#0FA3B1"/>
<path d="M185.919 32.8216C186.354 33.6063 186.698 34.437 186.944 35.2976C187.817 39.1667 184.112 42.669 184.106 46.8325C184.224 49.2202 185.599 51.3779 187.726 52.5126C189.838 53.6189 192.306 53.8371 194.571 53.1177C196.114 52.5075 197.694 51.9963 199.304 51.5874C201.182 51.4121 203.055 52.0083 204.486 53.237C205.918 54.4657 206.783 56.2197 206.88 58.0901C206.915 59.4922 205.832 61.9801 206.639 63.3628C208.345 66.2258 210.205 61.3849 212.261 60.8477C213.583 60.6312 214.924 61.1454 215.762 62.1903C216.067 62.501 216.343 62.8391 216.585 63.2003C216.661 55.1399 213.408 47.3798 207.583 41.7243C201.759 36.0689 193.869 33.011 185.75 33.2617L185.919 32.8216Z" fill="url(#paint5_linear)"/>
<path d="M158.203 72.8693C158.97 74.9522 159.954 76.9518 161.14 78.8354C168.305 90.2986 182.296 95.6637 195.299 91.9339C197.851 91.1956 200.286 90.1155 202.537 88.7234C206.282 86.3846 209.449 83.2494 211.811 79.5432C214.899 74.8677 216.552 69.3994 216.573 63.7927C216.596 62.0136 216.459 60.2345 216.162 58.4769C214.25 57.2345 214.406 72.9599 205.143 80.9344C178.061 104.365 158.626 72.7768 158.203 72.8693Z" fill="url(#paint6_linear)"/>
<g filter="url(#filter1_d)">
<path d="M161.214 33.4596C164.668 34.8545 168.041 36.4419 171.316 38.2142C169.352 39.4245 167.515 40.8285 165.835 42.4052C154.63 36.7241 147.696 35.4495 145.884 36.202C145.757 36.5311 146 37.8825 147.827 40.7227C156.706 52.2548 167.498 62.203 179.735 70.1372C203.129 86.5335 220.21 91.9506 223.176 90.5078C223.302 90.1787 223.06 88.8273 221.288 86.0083C218.961 82.5675 216.234 79.4098 213.165 76.6005C214.244 74.5262 215.085 72.337 215.673 70.0739C219.88 73.8955 223.615 78.2007 226.798 82.8981C229.923 87.8093 230.526 91.6902 228.703 94.4522C225.835 98.4494 219.138 98.2096 208.127 93.6729C196.926 88.7881 186.28 82.7228 176.373 75.5816C163.404 67.1419 151.974 56.5655 142.578 44.3104C139.452 39.3992 138.905 35.5396 140.672 32.7563C143.673 28.7467 150.259 28.9441 161.214 33.4596Z" fill="url(#paint7_linear)"/>
</g>
<circle r="3.00369" transform="matrix(-1 0 0 1 135.166 76.8089)" fill="#0A2239"/>
<circle r="2.14549" transform="matrix(-1 0 0 1 159.195 5.57811)" fill="#0A2239"/>
<circle r="0.858198" transform="matrix(-1 0 0 1 172.497 0.858198)" fill="#0A2239"/>
<ellipse rx="3.00369" ry="2.14549" transform="matrix(-1 0 0 1 242.441 42.4809)" fill="#0A2239"/>
<circle r="3.86189" transform="matrix(-1 0 0 1 120.577 60.503)" fill="#0A2239"/>
<circle r="0.858198" transform="matrix(-1 0 0 1 129.588 34.3279)" fill="#0A2239"/>
<path d="M321.924 232.6H318.984V241H321.924C324.36 241 326.22 239.224 326.22 236.8C326.22 234.364 324.372 232.6 321.924 232.6ZM321.936 239.704H320.34V233.896H321.936C323.628 233.896 324.864 235.096 324.864 236.8C324.864 238.516 323.628 239.704 321.936 239.704ZM328.218 231.424C327.726 231.424 327.342 231.772 327.342 232.252C327.342 232.744 327.726 233.104 328.218 233.104C328.734 233.104 329.106 232.744 329.106 232.252C329.106 231.772 328.734 231.424 328.218 231.424ZM327.546 241H328.902V234.4H327.546V241ZM335.612 234.4V235.528C335.132 234.772 334.328 234.256 333.308 234.256C331.568 234.256 330.26 235.684 330.26 237.664C330.26 239.644 331.544 241.072 333.308 241.072C334.328 241.072 335.12 240.568 335.612 239.836V240.964C335.612 242.248 334.952 242.932 333.74 242.932C332.852 242.932 332.12 242.536 331.892 241.684H330.488C330.776 243.328 332.204 244.144 333.776 244.144C335.732 244.144 336.968 242.884 336.968 240.916V234.4H335.612ZM333.596 239.776C332.456 239.776 331.628 238.9 331.628 237.664C331.628 236.44 332.444 235.552 333.596 235.552C334.748 235.552 335.624 236.44 335.624 237.664C335.624 238.9 334.748 239.776 333.596 239.776ZM339.222 231.424C338.73 231.424 338.346 231.772 338.346 232.252C338.346 232.744 338.73 233.104 339.222 233.104C339.738 233.104 340.11 232.744 340.11 232.252C340.11 231.772 339.738 231.424 339.222 231.424ZM338.55 241H339.906V234.4H338.55V241ZM346.256 239.56C345.74 239.74 345.272 239.884 344.852 239.884C344 239.884 343.556 239.356 343.556 238.396V235.672H346.268V234.4H343.556V232.6L342.2 232.9V234.4H340.976V235.672H342.2V238.468C342.2 240.292 343.256 241.144 344.612 241.144C345.368 241.144 346.136 240.88 346.496 240.664L346.256 239.56ZM352.557 234.4V235.528C352.077 234.772 351.285 234.256 350.241 234.256C348.513 234.256 347.205 235.684 347.205 237.7C347.205 239.716 348.489 241.144 350.253 241.144C351.285 241.144 352.077 240.652 352.557 239.896V241H353.913V234.4H352.557ZM350.541 239.848C349.401 239.848 348.573 238.972 348.573 237.7C348.573 236.44 349.389 235.552 350.541 235.552C351.693 235.552 352.569 236.44 352.569 237.7C352.569 238.972 351.693 239.848 350.541 239.848ZM355.507 241H356.875V231.76H355.507V241ZM325.164 255H326.604L323.352 246.6H321.624L318.372 255H319.812L320.664 252.744H324.312L325.164 255ZM321.156 251.46L322.488 247.944L323.82 251.46H321.156ZM330.539 255.144C332.087 255.144 333.479 254.22 333.791 252.588H332.387C332.135 253.404 331.403 253.884 330.539 253.884C329.351 253.884 328.487 252.984 328.487 251.7C328.487 250.428 329.327 249.516 330.551 249.516C331.403 249.516 332.135 249.972 332.387 250.8H333.791C333.491 249.204 332.111 248.256 330.551 248.256C328.583 248.256 327.119 249.732 327.119 251.7C327.119 253.668 328.583 255.144 330.539 255.144ZM338.238 255.144C339.786 255.144 341.178 254.22 341.49 252.588H340.086C339.834 253.404 339.102 253.884 338.238 253.884C337.05 253.884 336.186 252.984 336.186 251.7C336.186 250.428 337.026 249.516 338.25 249.516C339.102 249.516 339.834 249.972 340.086 250.8H341.49C341.19 249.204 339.81 248.256 338.25 248.256C336.282 248.256 334.818 249.732 334.818 251.7C334.818 253.668 336.282 255.144 338.238 255.144ZM345.925 248.256C343.933 248.256 342.517 249.72 342.517 251.712C342.517 253.704 343.945 255.144 345.949 255.144C347.353 255.144 348.613 254.448 349.129 252.972H347.725C347.413 253.62 346.753 253.956 345.961 253.956C344.857 253.956 344.005 253.284 343.897 252.072H349.261C349.393 249.9 348.049 248.256 345.925 248.256ZM345.925 249.432C346.921 249.432 347.605 250.068 347.809 250.968H343.969C344.197 250.08 344.893 249.432 345.925 249.432ZM353.501 255.144C355.061 255.144 356.333 254.448 356.333 253.032C356.333 251.748 355.301 251.436 353.513 251.016C352.361 250.74 351.953 250.632 351.953 250.212C351.953 249.756 352.469 249.456 353.345 249.456C354.185 249.456 354.689 249.72 354.881 250.26H356.249C356.009 249.06 355.061 248.256 353.369 248.256C351.713 248.256 350.585 249.024 350.585 250.356C350.585 251.46 351.365 251.832 353.213 252.288C354.317 252.552 354.941 252.636 354.941 253.188C354.941 253.68 354.401 253.944 353.525 253.944C352.385 253.944 351.845 253.608 351.641 252.876H350.261C350.513 254.304 351.761 255.144 353.501 255.144ZM360.509 255.144C362.069 255.144 363.341 254.448 363.341 253.032C363.341 251.748 362.309 251.436 360.521 251.016C359.369 250.74 358.961 250.632 358.961 250.212C358.961 249.756 359.477 249.456 360.353 249.456C361.193 249.456 361.697 249.72 361.889 250.26H363.257C363.017 249.06 362.069 248.256 360.377 248.256C358.721 248.256 357.593 249.024 357.593 250.356C357.593 251.46 358.373 251.832 360.221 252.288C361.325 252.552 361.949 252.636 361.949 253.188C361.949 253.68 361.409 253.944 360.533 253.944C359.393 253.944 358.853 253.608 358.649 252.876H357.269C357.521 254.304 358.769 255.144 360.509 255.144ZM365.273 245.424C364.781 245.424 364.397 245.772 364.397 246.252C364.397 246.744 364.781 247.104 365.273 247.104C365.789 247.104 366.161 246.744 366.161 246.252C366.161 245.772 365.789 245.424 365.273 245.424ZM364.601 255H365.957V248.4H364.601V255ZM371.202 248.256C370.158 248.256 369.366 248.772 368.886 249.528V245.76H367.53V255H368.886V253.896C369.366 254.64 370.158 255.144 371.19 255.144C372.954 255.144 374.238 253.716 374.238 251.7C374.238 249.684 372.93 248.256 371.202 248.256ZM370.902 253.848C369.75 253.848 368.874 252.972 368.874 251.7C368.874 250.44 369.75 249.552 370.902 249.552C372.054 249.552 372.87 250.44 372.87 251.7C372.87 252.972 372.042 253.848 370.902 253.848ZM376.277 245.424C375.785 245.424 375.401 245.772 375.401 246.252C375.401 246.744 375.785 247.104 376.277 247.104C376.793 247.104 377.165 246.744 377.165 246.252C377.165 245.772 376.793 245.424 376.277 245.424ZM375.604 255H376.961V248.4H375.604V255ZM378.546 255H379.914V245.76H378.546V255ZM382.136 245.424C381.644 245.424 381.26 245.772 381.26 246.252C381.26 246.744 381.644 247.104 382.136 247.104C382.652 247.104 383.024 246.744 383.024 246.252C383.024 245.772 382.652 245.424 382.136 245.424ZM381.464 255H382.82V248.4H381.464V255ZM389.17 253.56C388.654 253.74 388.186 253.884 387.766 253.884C386.914 253.884 386.47 253.356 386.47 252.396V249.672H389.182V248.4H386.47V246.6L385.114 246.9V248.4H383.89V249.672H385.114V252.468C385.114 254.292 386.17 255.144 387.526 255.144C388.282 255.144 389.05 254.88 389.41 254.664L389.17 253.56ZM395.239 248.4L393.331 252.696L391.459 248.4H390.007L392.611 254.16L390.871 258H392.323L396.691 248.4H395.239Z" fill="black"/>
<path d="M311.949 82.4811C311.949 82.4811 311.321 79.1934 310.065 77.5456C307.179 73.7667 304 69.1322 304 64.26C304 56.3844 310.406 50 318.308 50C326.21 50 332.615 56.3844 332.615 64.26L335 71.39H331.026V76.1433C331.026 77.8935 329.602 79.3122 327.846 79.3122H326.527C325.433 79.3122 324.48 80.0534 324.214 81.1106V81.1106C323.989 82.0206 323.874 82.9541 323.872 83.8913V85.65H311.949" stroke="#D5330D" stroke-width="2" stroke-linecap="round" stroke-linejoin="round"/>
<path d="M316.401 77.9C316.401 73.25 316.401 68.6 313.301 65.5H324.151C321.051 68.6 321.051 73.25 321.051 77.9" stroke="#0FA3B1" stroke-width="2" stroke-linecap="round" stroke-linejoin="round"/>
<path d="M311.75 90.3003V90.3003C311.75 92.8684 313.601 94.9503 315.883 94.9503H320.017C322.299 94.9503 324.15 92.8684 324.15 90.3003V90.3003" stroke="#0FA3B1" stroke-width="2" stroke-linecap="square" stroke-linejoin="round"/>
<path d="M407.805 102L419 113.817L407.805 125.634" stroke="#D5330D" stroke-width="2" stroke-linecap="round" stroke-linejoin="round"/>
<path d="M379.195 102L368 113.817L379.195 125.634" stroke="#D5330D" stroke-width="2" stroke-linecap="round" stroke-linejoin="round"/>
<path d="M396.61 102L389.146 125.634" stroke="#0FA3B1" stroke-width="2" stroke-linecap="round" stroke-linejoin="round"/>
<defs>
<filter id="filter0_d" x="147.284" y="24.4736" width="78.9904" height="79.6182" filterUnits="userSpaceOnUse" color-interpolation-filters="sRGB">
<feFlood flood-opacity="0" result="BackgroundImageFix"/>
<feColorMatrix in="SourceAlpha" type="matrix" values="0 0 0 0 0 0 0 0 0 0 0 0 0 0 0 0 0 0 127 0"/>
<feOffset dy="1"/>
<feGaussianBlur stdDeviation="5"/>
<feColorMatrix type="matrix" values="0 0 0 0 0 0 0 0 0 0 0 0 0 0 0 0 0 0 0.389205 0"/>
<feBlend mode="normal" in2="BackgroundImageFix" result="effect1_dropShadow"/>
<feBlend mode="normal" in="SourceGraphic" in2="effect1_dropShadow" result="shape"/>
</filter>
<filter id="filter1_d" x="130.675" y="22.9023" width="108.051" height="85.3721" filterUnits="userSpaceOnUse" color-interpolation-filters="sRGB">
<feFlood flood-opacity="0" result="BackgroundImageFix"/>
<feColorMatrix in="SourceAlpha" type="matrix" values="0 0 0 0 0 0 0 0 0 0 0 0 0 0 0 0 0 0 127 0"/>
<feOffset dy="2"/>
<feGaussianBlur stdDeviation="4.5"/>
<feColorMatrix type="matrix" values="0 0 0 0 0 0 0 0 0 0 0 0 0 0 0 0 0 0 0.324874 0"/>
<feBlend mode="normal" in2="BackgroundImageFix" result="effect1_dropShadow"/>
<feBlend mode="normal" in="SourceGraphic" in2="effect1_dropShadow" result="shape"/>
</filter>
<linearGradient id="paint0_linear" x1="164.197" y1="698.732" x2="679.744" y2="194.51" gradientUnits="userSpaceOnUse">
<stop stop-color="#0F3356"/>
<stop offset="0.6" stop-color="#0B2945"/>
<stop offset="1" stop-color="#0A2239"/>
</linearGradient>
<linearGradient id="paint1_linear" x1="473.372" y1="131.611" x2="542.568" y2="106.389" gradientUnits="userSpaceOnUse">
<stop stop-color="#0FA3B1"/>
<stop offset="0.7" stop-color="#095767"/>
<stop offset="1" stop-color="#085463"/>
</linearGradient>
<linearGradient id="paint2_linear" x1="374.876" y1="105.637" x2="469.391" y2="205.789" gradientUnits="userSpaceOnUse">
<stop stop-color="#0E2F50"/>
<stop offset="1" stop-color="#0A2239"/>
</linearGradient>
<linearGradient id="paint3_linear" x1="440.126" y1="103.194" x2="489.261" y2="145.447" gradientUnits="userSpaceOnUse">
<stop stop-color="#0A6577"/>
<stop offset="1" stop-color="#0A2239"/>
</linearGradient>
<linearGradient id="paint4_linear" x1="551.542" y1="71.6162" x2="568.268" y2="97.2132" gradientUnits="userSpaceOnUse">
<stop stop-color="#0FA3B1"/>
<stop offset="1" stop-color="white"/>
</linearGradient>
<linearGradient id="paint5_linear" x1="201.937" y1="26.3621" x2="217.469" y2="66.8412" gradientUnits="userSpaceOnUse">
<stop stop-color="#0C7489"/>
<stop offset="1" stop-color="#0C7489"/>
</linearGradient>
<linearGradient id="paint6_linear" x1="149.743" y1="54.0012" x2="202.285" y2="43.8823" gradientUnits="userSpaceOnUse">
<stop stop-color="#0C7489"/>
<stop offset="1" stop-color="#A9DCE6"/>
</linearGradient>
<linearGradient id="paint7_linear" x1="229.887" y1="92.9945" x2="141.732" y2="97.3764" gradientUnits="userSpaceOnUse">
<stop stop-color="#D5330D"/>
<stop offset="1" stop-color="#D5330D"/>
</linearGradient>
</defs>
</svg>
