<?xml version="1.0" encoding="utf-8"?>
<!-- Generator: Adobe Illustrator 16.0.0, SVG Export Plug-In . SVG Version: 6.00 Build 0)  -->
<!DOCTYPE svg PUBLIC "-//W3C//DTD SVG 1.1//EN" "http://www.w3.org/Graphics/SVG/1.1/DTD/svg11.dtd">
<svg version="1.1" id="Layer_1" xmlns="http://www.w3.org/2000/svg" xmlns:xlink="http://www.w3.org/1999/xlink" x="0px" y="0px"
	 width="190px" height="31.75px" viewBox="-1.25 0 190 31.75" enable-background="new -1.25 0 190 31.75" xml:space="preserve">
<g>
	<path fill="#FFFFFF" d="M36.988,18.763c3.214-0.844,4.789-2.833,4.789-7.486c0-6.475-3.133-7.896-9.427-7.896h-7.195v0.003
		c-1.132,0.071-2.031,1.006-2.031,2.158l0.024,22.063c0.12,1.083,1.031,1.933,2.152,1.933c1.116,0,2.093-0.823,2.166-1.938
		l0.009-8.386h4.758l5.378,9.377c0.643,0.877,1.853,1.166,2.823,0.61c0.974-0.55,1.343-1.733,0.911-2.738L36.988,18.763z
		 M32.35,15.354h-4.875V8.213c0.07-0.522,0.489-0.926,1.015-0.975h3.86c4.222,0,4.839,0.764,4.839,4.038
		C37.189,14.59,36.572,15.354,32.35,15.354z"/>
	<path fill="#FFFFFF" d="M70.763,5.547c0-1.203,0.974-2.174,2.174-2.174c1.202,0,2.173,0.971,2.173,2.174L75.09,27.609
		c0.019,1.137-1.034,1.933-2.153,1.933c-1.116,0-2.03-0.848-2.149-1.933L70.763,5.547z"/>
	<path fill="#FFFFFF" d="M63.671,28.242c0.535,1.094,1.75,1.615,2.854,1.142c1.09-0.469,1.597-1.721,1.156-2.813l0.011-0.004
		L58.177,4.541c-0.549-1.115-1.911-1.186-1.911-1.186s-1.246-0.053-1.947,1.157L44.858,26.57c-0.443,1.093,0.064,2.345,1.152,2.813
		c1.103,0.474,2.379-0.033,2.854-1.142l2.309-5.39h10.195L63.671,28.242z M52.801,19.065l3.465-8.072l3.473,8.072H52.801z"/>
	<path fill="#FFFFFF" d="M97.98,28.83c0.476,0.449,0.976,0.722,1.617,0.722c1.204,0,2.163-0.875,2.177-2.177V5.538
		c0-1.203-0.973-2.174-2.177-2.174c-1.198,0-2.17,0.971-2.17,2.174V21.28L83.37,4.494c-0.548-0.626-1.138-1.058-1.931-1.058
		c-1.221,0-2.211,0.989-2.211,2.21l0.02,21.955c0.124,1.085,1.036,1.933,2.152,1.933c1.116,0,2.027-0.848,2.148-1.933l0.021-16.037
		L97.98,28.83z"/>
	<path fill="#FFFFFF" d="M187.987,25.689c0.693,0.94,0.516,2.265-0.412,2.981c-0.938,0.729-2.294,0.552-3.019-0.389l-6.739-8.728
		l-6.741,8.728c-0.725,0.94-2.078,1.118-3.021,0.389c-0.928-0.717-1.063-2.001-0.408-2.981l7.448-9.657l-7.11-9.196
		c-0.821-1.017-0.738-1.964-0.738-1.964c0.184-1.176,1.287-1.978,2.455-1.797c0.496,0.075,0.92,0.322,1.238,0.663l6.877,8.775
		l6.878-8.775c0.313-0.341,0.738-0.588,1.233-0.663c1.177-0.18,2.272,0.621,2.458,1.797c0,0,0.083,0.915-0.738,1.964l-7.11,9.196
		L187.987,25.689z"/>
	<path fill="#FFFFFF" d="M10.395,29.539c6.609,0.181,8.894-2.743,8.802-7.383v-0.288c0-2.438-1.633-5.213-3.45-5.831
		c1.456-0.62,2.911-3.093,2.911-5.313c0-4.878-2.292-7.35-8.264-7.35L1.587,3.37c-1.203,0-2.179,0.97-2.179,2.173l0.028,22.063
		c0.121,1.084,1.031,1.933,2.151,1.933H10.395z M10.395,7.229c2.877,0,3.824,0.986,3.824,3.457c0,2.548-0.947,3.604-3.824,3.604
		H3.776V8.363l0,0c0-0.625,0.507-1.135,1.131-1.135H10.395z M14.692,22.261c-0.033,2.495-1.13,3.42-4.186,3.42h-6.73v-6.394l0,0
		c0-0.627,0.507-1.137,1.131-1.137v-0.002h5.858c2.872,0,3.927,1.094,3.927,3.566V22.261z"/>
	<path fill="#FFFFFF" d="M125.206,29.165c6.609,0.181,8.895-2.742,8.804-7.382v-0.288c0-2.438-1.634-5.212-3.448-5.831
		c1.428-0.744,2.866-2.723,2.91-5.313C133.555,5.518,131.18,3,125.206,3l-8.808-0.003c-1.202,0-2.178,0.97-2.178,2.173l0.027,22.063
		c0.121,1.084,1.03,1.932,2.15,1.932H125.206z M125.206,6.856c2.878,0,3.823,0.986,3.823,3.457c0,2.548-0.945,3.604-3.823,3.604
		h-6.619V7.991l0,0c0-0.625,0.508-1.135,1.132-1.135H125.206z M129.504,21.888c-0.034,2.496-1.13,3.42-4.184,3.42h-6.733v-6.395l0,0
		c0-0.625,0.508-1.136,1.132-1.136v-0.002h5.858c2.872,0,3.927,1.093,3.927,3.567V21.888z"/>
	<path fill="#FFFFFF" d="M164.901,8.997c-0.004-0.703-0.377-1.353-0.989-1.703l-11.567-6.665c-0.61-0.352-1.36-0.352-1.97,0.001
		l-11.558,6.688c-0.608,0.354-0.983,1.003-0.983,1.707l0.014,13.353c0,0.704,0.375,1.354,0.987,1.706l11.569,6.664
		c0.304,0.176,0.644,0.263,0.983,0.263c0.339,0,0.681-0.087,0.986-0.264l11.557-6.688c0.611-0.353,0.986-1.004,0.982-1.708
		L164.901,8.997z M160.695,21.901l-8.579,4.963c-0.226,0.131-0.479,0.195-0.732,0.195c-0.253,0-0.504-0.064-0.729-0.194
		l-8.589-4.946c-0.454-0.261-0.73-0.742-0.73-1.265l-0.012-9.912c0-0.522,0.278-1.004,0.729-1.267l8.579-4.964
		c0.451-0.262,1.01-0.262,1.462-0.002l8.587,4.947c0.454,0.261,0.732,0.742,0.732,1.265l0.01,9.914
		C161.423,21.156,161.146,21.638,160.695,21.901z"/>
	<path fill="#FFFFFF" d="M151.976,6.333c-0.379-0.217-0.845-0.216-1.224,0.002l-7.764,4.505l8.382,4.802l8.373-4.837L151.976,6.333z
		"/>
</g>
</svg>
