<svg width="404" height="396" viewBox="0 0 404 396" fill="none" xmlns="http://www.w3.org/2000/svg">
<g filter="url(#filter0_d)">
<path fill-rule="evenodd" clip-rule="evenodd" d="M25.1489 209.822C36.0958 305.285 122.359 373.798 217.822 362.851C313.285 351.903 381.798 265.641 370.851 170.178C359.903 74.7154 273.641 6.20194 178.178 17.1489C82.7154 28.0958 14.2019 114.359 25.1489 209.822Z" fill="url(#paint0_linear)"/>
<path fill-rule="evenodd" clip-rule="evenodd" d="M154.06 25.1964C155.288 27.9248 160.752 30.8184 163.174 32.5746C169.022 36.8194 174.853 41.08 180.826 45.1439C205.483 61.9192 232.984 76.8809 263.283 78.5236C270.519 78.9157 279.332 79.1454 286.256 76.4702C292.692 73.983 295.069 65.3268 292.444 59.3818C290.392 54.7292 285.463 50.9266 281.587 47.8191C270.448 38.8944 257.252 32.6234 243.364 29.5647C240.078 28.841 236.755 28.2824 233.409 27.9191C231.976 27.7626 230.538 27.6434 229.099 27.5644C224.158 27.2916 222.863 26.5391 219.676 30.8126C216.933 34.4873 216.712 34.6151 219.413 38.0127C220.944 39.9384 223.165 41.584 225.112 43.0818C228.745 45.8734 232.77 48.2485 236.934 50.1412C241.366 52.1544 253.338 57.6026 258.391 55.4472C258.886 54.6861 259.381 53.9264 259.875 53.1668C262.284 51.1018 261.789 49.8942 258.391 49.5466C256.866 48.3347 254.228 47.6712 252.45 46.8671C248.472 45.0706 244.567 43.2326 240.72 41.1619C239.884 40.7124 240.415 39.4674 241.314 39.7991C243.399 40.5674 277.611 52.9543 262.952 57.6414C256.368 59.7465 246.079 56.079 239.931 53.8374C232.167 51.0071 222.735 46.1792 217.474 39.4803C215.122 36.4863 212.623 31.6139 215 27.9349C218.564 22.4221 230.23 25.0773 235.211 25.7005C253.938 28.0469 272.214 36.0885 286.385 48.7396C296.562 57.8252 303.067 73.5695 286.02 78.9588C268.634 84.4543 246.989 79.3881 230.343 73.6441C208.954 66.2631 189.812 53.9609 171.305 41.0987C164.175 36.1459 153.296 30.0027 151.012 22.3661C151.916 22.1105 152.827 21.8721 153.738 21.6309C153.611 23.0597 153.673 24.3363 154.06 25.1964Z" fill="url(#paint1_linear)"/>
<path fill-rule="evenodd" clip-rule="evenodd" d="M330.771 111.053C314.214 119.654 295.076 115.749 277.726 112.129C257.777 107.967 237.75 103.998 218.184 98.2562C185.033 88.5302 152.027 72.5346 130.979 44.2294C128.376 40.7289 125.958 36.9709 123.881 33.0361C125.632 32.214 127.39 31.4047 129.175 30.6406C129.523 31.2632 129.869 31.8928 130.234 32.4913C145.829 58.0078 173.574 74.4334 200.933 84.8627C217.032 90.9992 233.779 95.2199 250.584 98.9368C266.344 102.422 282.416 106.638 298.476 108.441C313.69 110.151 334.717 106.754 340.894 90.8704C342.46 93.1088 343.977 95.384 345.438 97.7002C342.043 103.293 336.854 107.892 330.771 111.053Z" fill="url(#paint2_linear)"/>
<path fill-rule="evenodd" clip-rule="evenodd" d="M292.668 145.678C264.631 142.997 237.244 134.876 211.181 124.388C185.547 114.073 158.274 102.494 137.044 84.4075C123.903 73.2136 112.568 59.1959 104.007 43.7535C104.982 43.1246 105.97 42.5127 106.96 41.9023C116.913 57.2506 129.371 70.6907 144.712 81.8789C169.037 99.6174 198.345 112.101 226.5 122.355C255.374 132.87 286.057 140.073 316.94 139.259C324.468 139.059 331.964 138.355 339.404 137.204C346.467 136.111 355.432 135.21 361.386 130.679C362.193 132.898 362.975 135.132 363.696 137.396C355.251 142.971 343.356 144.246 333.832 145.39C320.189 147.027 306.337 146.986 292.668 145.678Z" fill="url(#paint3_linear)"/>
<path fill-rule="evenodd" clip-rule="evenodd" d="M314.808 163.203C279.221 165.375 247.277 166.459 212.49 156.444C184.251 148.312 155.639 134.802 134.466 114.176C123.334 103.332 115.923 90.0636 105.594 78.6561C98.5242 70.8468 91.5694 64.7273 87.8389 55.6533C88.3976 55.1973 88.9549 54.7385 89.5207 54.291C96.7101 65.7931 108.517 72.25 119.646 79.976C129.016 86.4808 137.309 94.1983 146.347 101.128C167.952 117.692 191.367 130.126 217.415 138.277C245.742 147.141 277.818 152.121 307.408 153.533C323.502 154.301 339.827 152.504 355.841 150.892C359.63 150.509 363.491 150.22 367.356 149.878C368.06 152.872 368.691 155.894 369.239 158.952C350.906 162.389 331.028 162.213 314.808 163.203Z" fill="url(#paint4_linear)"/>
<path fill-rule="evenodd" clip-rule="evenodd" d="M342.191 253.087C323.878 254.671 305.773 257.922 287.618 260.695C255.379 265.618 221.809 269.338 189.706 261.466C162.135 254.704 136.457 240.269 113.005 224.669C87.7031 207.842 64.399 189.236 50.7182 161.445C44.8154 149.454 40.3612 136.748 36.9492 123.838C38.6396 119.721 40.502 115.689 42.4952 111.729C44.133 116.2 45.7736 120.318 46.7119 123.047C58.6071 157.631 81.543 177.345 110.203 198.312C136.33 217.425 164.14 233.22 195.168 242.83C235.626 255.361 275.856 249.182 317.131 245.672C330.814 244.507 347.491 242.5 363.447 243.354C362.513 246.216 361.511 249.045 360.434 251.844C354.16 252.023 347.955 252.588 342.191 253.087Z" fill="url(#paint5_linear)"/>
<path fill-rule="evenodd" clip-rule="evenodd" d="M173.802 282.372C154.21 276.301 136.133 266.185 118.22 256.359C104.319 248.733 91.6586 240.885 81.6628 228.401C68.5294 211.997 51.9512 199.618 38.2405 183.869C33.5532 178.484 29.5469 172.618 25.5449 166.793C26.1491 162.273 26.9623 157.814 27.912 153.397C29.5185 155.743 31.0952 158.138 32.6675 160.591C43.4396 177.403 56.7735 189.978 70.7642 204.077C83.0475 216.456 91.3913 231.768 106.015 241.741C124.367 254.256 143.631 263.265 165.039 269.046C200.653 278.662 240.362 273.966 277.064 275.495C300.138 276.456 325.586 278.864 349.412 275.617C348.159 277.825 346.855 280 345.511 282.149C329.889 284.129 313.846 284.491 298.326 285.458C256.922 288.039 214.27 294.912 173.802 282.372Z" fill="url(#paint6_linear)"/>
<path fill-rule="evenodd" clip-rule="evenodd" d="M24.0918 193.941C31.4348 204.329 40.4041 213.946 49.6194 223.158C71.6697 245.205 95.8226 265.339 116.617 288.545C117.077 289.058 116.381 289.921 115.781 289.6C85.8267 273.556 51.9737 252.951 27.872 226.34C26.7191 220.902 25.7921 215.369 25.1481 209.734C24.5425 204.436 24.2197 199.172 24.0918 193.941Z" fill="url(#paint7_linear)"/>
<path fill-rule="evenodd" clip-rule="evenodd" d="M334.017 224.411C317.081 226.09 300.623 230.449 283.462 229.939C226.379 228.242 164.665 220.142 119.509 182.039C100.37 165.893 82.4697 145.952 70.8745 123.623C65.4153 113.109 61.2355 101.339 54.1982 91.7104C55.5446 89.7205 56.925 87.7564 58.3495 85.8252C74.3107 105.168 81.3111 131.565 97.8594 150.994C120.121 177.133 154.498 188.8 186.873 196.6C221.864 205.027 257.994 205.976 293.462 211.131C316.556 214.49 337.404 217.196 360.809 214.772C363.231 214.521 366.849 214.579 370.369 214.348C370.035 216.785 369.626 219.198 369.191 221.605C357.563 223.35 345.115 223.31 334.017 224.411Z" fill="url(#paint8_linear)"/>
<path fill-rule="evenodd" clip-rule="evenodd" d="M371.194 193.653C371.123 193.382 371.13 193.109 371.092 192.836C340.614 190.011 312.337 206.76 281.642 202.141C249.256 197.267 214.221 192.056 182.915 182.342C152.569 172.928 131.902 151.269 110.993 128.495C100.255 116.799 89.1549 104.316 81.1978 90.5158C77.5114 84.1202 74.8869 76.9773 72.6748 69.686C74.0382 68.2775 75.4556 66.917 76.8673 65.5537C90.7401 86.0048 110.654 105.021 127.961 120.543C151.656 141.793 174.048 160.365 204.98 169.69C234.162 178.486 269.181 194.605 300.069 192.359C325.126 190.535 347.145 180.653 371.821 183.324C371.975 187.414 372.022 191.486 371.888 195.523C371.627 194.963 371.382 194.366 371.194 193.653Z" fill="url(#paint9_linear)"/>
<path fill-rule="evenodd" clip-rule="evenodd" d="M216.071 320.557C186.86 317.221 149.645 312.857 125.09 295.289C123.081 293.852 125.458 290.888 127.464 292.29C153.401 310.414 196.411 313.744 227.146 316.051C244.896 317.383 263.307 317.915 281.073 316.237C295.793 314.848 310.046 310.655 324.708 309.2C320.775 313.401 316.638 317.411 312.301 321.211C280.235 321.015 248.281 324.238 216.071 320.557Z" fill="url(#paint10_linear)"/>
<path fill-rule="evenodd" clip-rule="evenodd" d="M167.034 339.621C192.996 345.512 219.896 346.578 246.332 343.288C260.394 341.537 273.404 336.929 286.867 332.746C292.188 331.091 298.813 329.574 305.255 327.459C294.43 335.984 282.534 343.255 269.766 349.056C241.318 351.296 212.928 351.067 184.589 347.191C132.79 340.102 90.9355 314.718 51.302 283.864C49.2377 280.621 47.2929 277.292 45.4404 273.902C81.7188 303.583 119.894 328.929 167.034 339.621Z" fill="url(#paint11_linear)"/>
</g>
<path d="M151.698 171.653C151.698 171.653 41.7395 206.961 8.063 241.269C-25.6135 275.577 57.0919 317.653 57.0919 317.653C57.0919 317.653 -18.0548 272.771 13.1039 246.017C44.26 219.261 137.456 189.037 168 182.104L151.698 171.653Z" fill="url(#paint12_linear)"/>
<path d="M149.527 167.238L119.371 157.635L147.931 145.356L172.545 153.849C163.18 158.382 155.463 163.129 149.527 167.238Z" fill="#0A2239"/>
<path d="M118.658 158.08L121.764 156.745L148.892 165.453C154.23 161.75 161.009 157.529 169.136 153.416L171.86 154.363C162.495 158.9 154.781 163.655 148.849 167.771L118.658 158.08Z" fill="#061422"/>
<path d="M143.792 212.584L170.592 203.45L183.28 181.512C173.232 184.237 164.141 186.063 156.909 187.279L142.892 210.239L143.792 212.584Z" fill="#0A2239"/>
<path d="M143.494 212.111L142.59 209.758L156.587 186.746C163.822 185.534 172.915 183.713 182.963 180.992L181.017 184.369C172.138 186.664 164.106 188.252 157.585 189.344L143.8 212.006L143.494 212.111Z" fill="#061422"/>
<path d="M235.859 159.586C223.601 149.34 227.089 137.71 227.245 137.185C254.398 132.814 278.637 132.993 278.637 132.993C278.637 132.993 258.51 146.861 235.859 159.586Z" fill="#0FA3B1"/>
<path d="M228.128 149.004C226.759 145.438 226.685 142.257 226.895 140.119C227.013 141.801 227.372 143.744 228.168 145.818C229.411 149.057 231.723 152.615 235.86 155.998C251.771 147.135 266.448 137.73 273.794 132.903C276.714 132.817 278.452 132.81 278.661 132.809C278.661 132.81 278.662 132.81 278.662 132.81C278.665 132.81 278.667 132.809 278.669 132.81L278.671 132.809C278.672 132.809 278.673 132.81 278.673 132.81C278.675 132.809 278.676 132.81 278.677 132.81L278.68 132.809C278.681 132.81 278.681 132.81 278.681 132.81L278.682 132.809C278.682 132.809 258.505 146.547 235.821 159.186C235.358 158.807 234.918 158.426 234.5 158.044C231.852 155.624 230.077 153.144 228.907 150.78C228.61 150.18 228.352 149.587 228.128 149.004Z" fill="#0C7489"/>
<path d="M196.993 177.202C192.414 178.71 187.941 180.032 183.654 181.18C173.691 183.878 164.676 185.683 157.503 186.884C156.066 187.114 154.723 187.323 153.449 187.518C144.143 179.919 146.577 169.616 146.577 169.616C147.757 168.753 149.041 167.849 150.428 166.907C156.398 162.844 164.153 158.14 173.551 153.625C177.395 151.784 181.502 149.972 185.884 148.261C185.686 148.864 181.15 163.576 196.993 177.202V177.202Z" fill="#0FA3B1"/>
<path d="M147.023 179.872L147.02 179.864C144.956 174.48 145.945 169.832 145.99 169.636C145.991 169.631 145.991 169.629 145.991 169.629C146.445 169.295 146.914 168.953 147.397 168.607C147.307 170.509 147.457 173.447 148.685 176.645C149.742 179.398 151.596 182.343 154.785 184.984C156.087 184.789 157.46 184.58 158.931 184.349C166.265 183.145 175.481 181.324 185.662 178.587C188.842 177.741 192.122 176.801 195.47 175.761C195.565 175.854 195.661 175.948 195.757 176.042C195.766 176.051 195.776 176.061 195.785 176.07C195.792 176.076 195.797 176.082 195.803 176.087C195.82 176.104 195.836 176.119 195.852 176.135C195.854 176.136 195.857 176.14 195.859 176.142C196.42 176.684 197.01 177.226 197.63 177.767C192.952 179.304 188.382 180.648 184 181.813C173.819 184.552 164.603 186.372 157.269 187.576C155.8 187.806 154.426 188.014 153.124 188.21C153.076 188.17 153.029 188.132 152.982 188.092C152.97 188.082 152.961 188.074 152.95 188.066C149.872 185.466 148.066 182.581 147.027 179.882L147.023 179.872Z" fill="#0C7489"/>
<path d="M153.652 188.159C145.353 189.361 140.305 189.664 140.305 189.664L135.896 178.178C135.896 178.178 139.535 174.598 146.484 169.487C146.484 169.487 144.08 180.182 153.652 188.159Z" fill="#0A2239"/>
<path d="M140.305 189.664L139.615 187.868C141.866 187.665 145.674 187.268 150.65 186.548C147.46 183.889 145.601 180.928 144.539 178.162C143.655 175.858 143.323 173.689 143.238 171.944C144.225 171.176 145.306 170.353 146.484 169.487C146.484 169.487 145.416 174.235 147.536 179.765L147.543 179.784C148.586 182.498 150.397 185.396 153.478 188.014C153.489 188.022 153.498 188.031 153.509 188.04C153.557 188.081 153.603 188.119 153.652 188.159C145.353 189.361 140.305 189.664 140.305 189.664Z" fill="#061422"/>
<path fill-rule="evenodd" clip-rule="evenodd" d="M227.493 137.495C227.321 138.04 223.732 149.42 235.873 159.284C222.836 166.532 208.961 173.432 197.609 177.193C197.563 177.21 197.513 177.226 197.463 177.241C197.413 177.257 197.363 177.273 197.317 177.29L197.304 177.295C181.401 163.783 186.043 149.09 186.245 148.487L186.258 148.482C188.675 147.525 191.176 146.594 193.754 145.707C204.514 141.999 216.252 139.359 227.493 137.493L227.493 137.495ZM205.093 145.537C199.236 147.785 196.263 154.232 198.452 159.934C200.641 165.637 207.16 168.426 213.017 166.178C218.86 163.934 221.838 157.501 219.649 151.797C217.46 146.095 210.937 143.294 205.093 145.537Z" fill="#0A2239"/>
<path d="M199.122 149.209C200.37 146.534 202.633 144.309 205.63 143.158C211.685 140.834 218.465 143.789 220.758 149.763C222.4 154.041 221.292 158.702 218.306 161.858C219.047 160.266 219.428 158.512 219.389 156.73C219.389 156.73 219.389 156.729 219.389 156.729C219.388 156.718 219.388 156.709 219.388 156.7C219.388 156.697 219.388 156.694 219.388 156.691C219.388 156.685 219.387 156.677 219.387 156.671C219.387 156.665 219.387 156.659 219.387 156.653C219.387 156.65 219.387 156.647 219.387 156.644C219.35 155.392 219.105 154.124 218.631 152.89C216.374 147.009 209.77 144.056 203.788 146.182C203.693 146.216 203.598 146.251 203.504 146.287L203.389 146.331C203.384 146.333 203.379 146.336 203.374 146.338L203.298 146.367C203.289 146.372 203.279 146.376 203.269 146.38L203.262 146.383C203.223 146.399 203.183 146.415 203.144 146.431L203.143 146.431C203.131 146.438 203.119 146.442 203.106 146.447L203.103 146.448C203.091 146.454 203.079 146.459 203.067 146.464L203.063 146.465C201.531 147.124 200.204 148.068 199.122 149.209Z" fill="#061422"/>
<path d="M187.223 163.697C184.045 155.416 186.111 148.883 186.245 148.486L186.258 148.481C186.421 148.416 186.584 148.352 186.748 148.288C187.089 148.154 187.431 148.021 187.775 147.889C187.371 150.577 187.196 155.261 189.284 160.699C190.922 164.967 193.955 169.701 199.364 174.297L199.377 174.292C199.468 174.257 199.578 174.229 199.669 174.194C210.044 170.757 222.526 164.698 234.55 158.147C234.969 158.528 235.409 158.906 235.873 159.284C224.72 165.485 212.954 171.429 202.679 175.374C200.943 176.04 199.249 176.649 197.609 177.193C197.517 177.228 197.408 177.255 197.317 177.29L197.304 177.295C196.698 176.781 196.123 176.265 195.576 175.748C195.574 175.746 195.571 175.743 195.569 175.742C195.553 175.726 195.537 175.712 195.521 175.696C195.516 175.691 195.51 175.686 195.504 175.679C195.495 175.671 195.485 175.662 195.476 175.653C194.135 174.378 192.968 173.1 191.951 171.828C189.719 169.037 188.215 166.281 187.223 163.697Z" fill="#061422"/>
<path fill-rule="evenodd" clip-rule="evenodd" d="M204.064 145.381C209.727 143.207 216.093 146.043 218.271 151.716C220.45 157.392 217.611 163.746 211.948 165.92C206.273 168.098 199.911 165.276 197.733 159.601C195.555 153.927 198.389 147.559 204.064 145.381ZM205.369 148.78C201.565 150.241 199.677 154.504 201.133 158.295C202.588 162.088 206.839 163.98 210.643 162.519C214.435 161.064 216.327 156.814 214.872 153.021C213.416 149.23 209.161 147.325 205.369 148.78Z" fill="#0C7489"/>
<path d="M211.194 163.152C207.316 164.64 202.984 162.712 201.5 158.847C200.017 154.983 201.941 150.637 205.818 149.148C209.683 147.665 214.02 149.607 215.504 153.471C216.987 157.337 215.058 161.668 211.194 163.152Z" fill="#D5330D"/>
<path d="M201.209 158.496C201.204 158.482 201.199 158.468 201.194 158.454C201.193 158.452 201.191 158.449 201.191 158.446C201.185 158.433 201.181 158.42 201.175 158.405C201.175 158.404 201.174 158.401 201.173 158.398C201.168 158.385 201.163 158.372 201.158 158.36L201.157 158.356C201.152 158.342 201.147 158.329 201.143 158.315C201.141 158.311 201.14 158.307 201.139 158.305C201.134 158.291 201.129 158.278 201.125 158.266C201.124 158.263 201.123 158.259 201.122 158.256C201.118 158.245 201.114 158.233 201.11 158.222C201.109 158.22 201.108 158.216 201.107 158.213C201.103 158.201 201.099 158.189 201.095 158.177C201.093 158.171 201.091 158.166 201.09 158.162C201.086 158.149 201.082 158.139 201.078 158.126C201.076 158.121 201.074 158.116 201.073 158.11C201.07 158.102 201.067 158.094 201.065 158.087C201.063 158.08 201.061 158.075 201.06 158.069C201.056 158.059 201.053 158.048 201.049 158.037C201.047 158.03 201.045 158.023 201.043 158.016C201.041 158.011 201.039 158.004 201.037 157.997C201.033 157.986 201.03 157.974 201.026 157.963C201.025 157.959 201.024 157.955 201.023 157.951C201.014 157.923 201.007 157.897 200.999 157.87C200.998 157.869 200.998 157.869 200.998 157.867C200.351 155.635 200.757 153.309 201.958 151.474C201.612 152.94 201.687 154.522 202.268 156.036C203.795 160.014 208.234 162.007 212.2 160.484C213.75 159.889 214.994 158.841 215.841 157.548C215.351 159.626 214.009 161.466 212.051 162.527L212.05 162.528C212.024 162.541 211.999 162.555 211.972 162.568C211.971 162.569 211.969 162.571 211.968 162.572C211.953 162.579 211.938 162.586 211.923 162.595C211.921 162.596 211.917 162.597 211.915 162.599C211.907 162.602 211.899 162.607 211.891 162.61C211.889 162.612 211.887 162.613 211.885 162.614C211.871 162.621 211.857 162.628 211.844 162.634C211.839 162.638 211.834 162.64 211.829 162.643C211.821 162.646 211.814 162.65 211.806 162.654C211.797 162.658 211.788 162.662 211.78 162.666C211.774 162.67 211.768 162.673 211.762 162.675C211.754 162.679 211.746 162.683 211.738 162.687C211.731 162.69 211.724 162.694 211.717 162.697C211.71 162.701 211.701 162.704 211.693 162.709C211.688 162.711 211.682 162.713 211.677 162.717C211.666 162.721 211.656 162.726 211.645 162.732L211.631 162.737C211.622 162.742 211.612 162.746 211.603 162.751L211.592 162.755C211.581 162.761 211.568 162.766 211.557 162.772C211.553 162.774 211.548 162.775 211.544 162.778C211.532 162.783 211.521 162.789 211.508 162.794L211.498 162.797C211.488 162.803 211.478 162.807 211.468 162.811C211.464 162.813 211.46 162.815 211.457 162.816C211.444 162.821 211.432 162.827 211.42 162.832L211.409 162.836C211.398 162.842 211.385 162.847 211.373 162.852L211.369 162.853C211.357 162.859 211.343 162.865 211.33 162.87L211.32 162.874C211.307 162.88 211.294 162.885 211.281 162.89L211.274 162.893C211.262 162.897 211.251 162.903 211.239 162.908L211.141 162.945C207.175 164.468 202.737 162.475 201.209 158.496Z" fill="#A12507"/>
<path d="M267.784 133.686C267.784 133.686 239.451 136.585 228.233 139.228C228.233 139.228 227.381 141.51 229.241 144.407C229.241 144.407 234.792 138.529 267.784 133.686V133.686Z" fill="#2BC8D7"/>
<path d="M183.45 151.896C183.45 151.896 182.203 155.143 183.282 157.195C183.282 157.195 160.033 164.51 149.549 172.408C149.549 172.408 149.317 171.781 149.327 171.173C149.327 171.173 166.128 159.859 183.45 151.896L183.45 151.896Z" fill="#2BC8D7"/>
<defs>
<filter id="filter0_d" x="8" y="0" width="396" height="396" filterUnits="userSpaceOnUse" color-interpolation-filters="sRGB">
<feFlood flood-opacity="0" result="BackgroundImageFix"/>
<feColorMatrix in="SourceAlpha" type="matrix" values="0 0 0 0 0 0 0 0 0 0 0 0 0 0 0 0 0 0 127 0"/>
<feOffset dx="8" dy="8"/>
<feGaussianBlur stdDeviation="12"/>
<feColorMatrix type="matrix" values="0 0 0 0 0.0392157 0 0 0 0 0.133333 0 0 0 0 0.223529 0 0 0 0.4 0"/>
<feBlend mode="normal" in2="BackgroundImageFix" result="effect1_dropShadow"/>
<feBlend mode="normal" in="SourceGraphic" in2="effect1_dropShadow" result="shape"/>
</filter>
<linearGradient id="paint0_linear" x1="-30.9856" y1="270.397" x2="283.01" y2="410.445" gradientUnits="userSpaceOnUse">
<stop stop-color="#0C7489"/>
<stop offset="1" stop-color="#0A2239"/>
</linearGradient>
<linearGradient id="paint1_linear" x1="121.746" y1="88.757" x2="297.895" y2="74.9277" gradientUnits="userSpaceOnUse">
<stop stop-color="#0FA3B1"/>
<stop offset="1" stop-color="#096577"/>
</linearGradient>
<linearGradient id="paint2_linear" x1="-86.2009" y1="43.7122" x2="-35.5536" y2="215.015" gradientUnits="userSpaceOnUse">
<stop stop-color="#0FA3B1"/>
<stop offset="1" stop-color="#096577"/>
</linearGradient>
<linearGradient id="paint3_linear" x1="349.842" y1="102.525" x2="309.473" y2="-10.1398" gradientUnits="userSpaceOnUse">
<stop stop-color="#0C7489"/>
<stop offset="1" stop-color="#0FA3B1"/>
</linearGradient>
<linearGradient id="paint4_linear" x1="346.149" y1="123.554" x2="310.116" y2="7.79325" gradientUnits="userSpaceOnUse">
<stop stop-color="#0C7489"/>
<stop offset="1" stop-color="#0FA3B1"/>
</linearGradient>
<linearGradient id="paint5_linear" x1="-97.9665" y1="198.226" x2="12.6581" y2="403.81" gradientUnits="userSpaceOnUse">
<stop stop-color="#0FA3B1"/>
<stop offset="1" stop-color="#096577"/>
</linearGradient>
<linearGradient id="paint6_linear" x1="-109.632" y1="287.845" x2="70.4316" y2="466.807" gradientUnits="userSpaceOnUse">
<stop stop-color="#0FA3B1"/>
<stop offset="1" stop-color="#096577"/>
</linearGradient>
<linearGradient id="paint7_linear" x1="-6.3014" y1="288.693" x2="81.7351" y2="307.999" gradientUnits="userSpaceOnUse">
<stop stop-color="#0FA3B1"/>
<stop offset="1" stop-color="#096577"/>
</linearGradient>
<linearGradient id="paint8_linear" x1="-84.0191" y1="227.175" x2="90.6818" y2="405.829" gradientUnits="userSpaceOnUse">
<stop stop-color="#0FA3B1"/>
<stop offset="1" stop-color="#085767"/>
</linearGradient>
<linearGradient id="paint9_linear" x1="-109.764" y1="149.133" x2="1.63092" y2="366.269" gradientUnits="userSpaceOnUse">
<stop stop-color="#0FA3B1"/>
<stop offset="1" stop-color="#096577"/>
</linearGradient>
<linearGradient id="paint10_linear" x1="64.8035" y1="323.17" x2="171.215" y2="427.899" gradientUnits="userSpaceOnUse">
<stop stop-color="#0FA3B1"/>
<stop offset="1" stop-color="#096577"/>
</linearGradient>
<linearGradient id="paint11_linear" x1="-6.80961" y1="360.026" x2="305.885" y2="325.866" gradientUnits="userSpaceOnUse">
<stop stop-color="#0FA3B1"/>
<stop offset="1" stop-color="#096577"/>
</linearGradient>
<linearGradient id="paint12_linear" x1="91.091" y1="266.601" x2="229.119" y2="437.441" gradientUnits="userSpaceOnUse">
<stop stop-color="#B42B0B"/>
<stop offset="1" stop-color="#D5330D"/>
</linearGradient>
</defs>
</svg>
