<svg width="359" height="385" viewBox="0 0 359 385" fill="none" xmlns="http://www.w3.org/2000/svg">
<rect x="39" y="102" width="314" height="189" fill="url(#paint0_linear)"/>
<path fill-rule="evenodd" clip-rule="evenodd" d="M159.147 370.066C159.741 369.322 160.312 368.607 160.795 367.893C161.47 369.486 161.86 371.063 162.067 372.564C161.58 373.449 160.913 374.443 159.91 375.215C158.613 376.215 157.093 376.581 155.721 376.671C155.424 375.706 155.245 374.904 155.053 374.055C156.638 373.195 158.633 370.707 159.147 370.066V370.066Z" fill="url(#paint1_linear)"/>
<path fill-rule="evenodd" clip-rule="evenodd" d="M233.754 375.74H168.651L173.868 311.097H227.791L233.485 372.826L233.754 375.74Z" fill="url(#paint2_linear)"/>
<path fill-rule="evenodd" clip-rule="evenodd" d="M242.343 365.343H156.48C152.661 365.407 147 370 147 375.5C148 381.5 150.635 384.525 156.48 384.525H242.773C248.175 384.525 252.288 379.674 251.4 374.342L251.118 372.65C250.407 368.376 246.675 365.269 242.343 365.343Z" fill="url(#paint3_linear)"/>
<path fill-rule="evenodd" clip-rule="evenodd" d="M358.759 312L31.001 311.499C31.001 311.499 31.0267 308.085 31.0267 303.59V140.68H39.0043V192.125C32.5769 205.834 32.5227 221.868 39.0043 235.673V290.695C39.0043 291.349 39.536 291.882 40.1915 291.882H350.145C350.802 291.882 351.334 291.349 351.334 290.695V290.333C351.478 290.128 351.568 289.897 351.568 289.669V182.088C351.645 182.042 351.488 182.133 351.568 182.088L351.334 173.371H358.759V308.819C358.759 310.425 358.759 310 358.759 312ZM358.759 173.371C358.516 173.337 356.767 173.422 356.501 173.371C353.001 173.371 354.115 173.371 351.334 173.371L351.334 106.187C351.334 105.531 350.802 105 350.144 105H225.46C225.454 101.832 225.316 98.7963 225.069 95.8878H355.813C357.422 95.8878 357.001 95.8875 358.759 95.8878V169.444L358.759 173.371ZM31.0267 140.68L31.026 103.745C31.026 99.2483 31.026 95.8878 31.026 95.8878H174.848C174.597 98.7973 174.458 101.831 174.449 105H40.1911C39.5355 105 39.0039 105.531 39.0039 106.187L39.0043 140.68C36.4337 140.708 34.501 140.68 31.0267 140.68Z" fill="url(#paint4_linear)"/>
<path d="M84.2678 96.0431C85.5998 96.0869 86.8607 96.0932 88.0568 96.066C102.154 95.7343 107.065 90.7591 107.065 90.7591C111.215 81.7341 99.1669 79.2324 99.1669 79.2324L99.1648 79.2345C99.076 79.3879 94.1922 87.572 87.5679 93.4423C86.5086 94.3833 85.4044 95.2648 84.2678 96.0431V96.0431Z" fill="#244A6E"/>
<path d="M86.5582 96.0815C86.9186 96.0815 87.2738 96.0784 87.6237 96.0732V96.0742C87.7689 96.0721 87.9141 96.069 88.0573 96.0659C102.154 95.7341 107.065 90.7589 107.065 90.7589C107.115 90.6494 107.16 90.542 107.206 90.4355C104.6 91.9305 99.3345 94.0608 90.2772 94.2746C89.8092 94.2851 89.3318 94.2903 88.8439 94.2903C88.1262 94.2903 87.3855 94.2788 86.6229 94.2559C85.8843 94.8703 85.1259 95.4514 84.3529 95.9856C84.3466 95.9897 84.3403 95.9939 84.3341 95.9981C84.3288 96.0022 84.3226 96.0064 84.3163 96.0106C84.3153 96.0106 84.3142 96.0116 84.3132 96.0127C84.2985 96.0231 84.2829 96.0335 84.2682 96.0429C85.057 96.069 85.8196 96.0815 86.5582 96.0815V96.0815Z" fill="#0A2239"/>
<path d="M32.9759 85.2434C33.5714 83.1642 33.8733 81.5733 33.8733 81.5733L36.6406 69.3769C31.6732 62.0607 39.246 60.597 39.246 60.597C39.9784 49.9456 47.7946 44.0106 47.7946 44.0106C47.7946 44.0106 46.1649 39.7834 51.945 34.7425C53.8119 33.1151 55.7623 32.3003 57.7012 32.0844C56.4194 29.6714 55.4457 27.0455 54.9735 24.3394C53.7586 23.799 52.0704 22.7683 49.9643 20.8133C45.2968 16.4767 41.1724 14.4173 34.1157 28.5082C27.06 42.6012 23.4788 56.1528 21.7416 66.0166C20.0826 75.4349 20.2059 82.2858 32.9759 85.2434V85.2434Z" fill="#D5330D"/>
<path d="M32.9759 85.2431C33.5714 83.1639 33.8733 81.573 33.8733 81.573L36.6406 69.3766C35.4131 67.5686 34.9514 66.1186 34.9514 64.9595C34.9524 61.4261 39.246 60.5967 39.246 60.5967C39.9784 49.9453 47.7946 44.0103 47.7946 44.0103C47.7946 44.0103 47.5815 43.4585 47.5825 42.5154C47.5835 40.8493 48.2532 37.9617 51.945 34.7423C53.8119 33.1148 55.7623 32.3 57.7012 32.0841C56.4194 29.6711 55.4457 27.0453 54.9735 24.3391C54.3729 24.0721 53.6583 23.6861 52.8341 23.1279C53.3637 24.987 54.1065 26.7876 55.007 28.4818C53.0681 28.6988 51.1177 29.5125 49.2508 31.14C43.4707 36.1809 45.1004 40.4081 45.1004 40.4081C45.1004 40.4081 37.2842 46.343 36.5518 56.9955C36.5518 56.9955 28.979 58.4581 33.9464 65.7743L31.1791 77.9707C31.1791 77.9707 30.8772 79.5627 30.2817 81.6408C26.4499 80.753 23.7588 79.5147 21.9108 77.9634C23.2908 81.2214 26.4447 83.6824 32.7116 85.1805C32.7127 85.1805 32.7127 85.1805 32.7137 85.1816C32.7492 85.1899 32.7837 85.1983 32.8192 85.2066C32.8213 85.2066 32.8234 85.2076 32.8255 85.2076C32.8328 85.2097 32.838 85.2108 32.8454 85.2118C32.8516 85.2139 32.8579 85.2149 32.8642 85.217C32.9007 85.2254 32.9383 85.2337 32.9759 85.2431V85.2431Z" fill="#AE2B0C"/>
<path d="M76.8279 59.209L85.5791 56.651C82.4451 55.9322 79.2745 54.5813 76.2429 52.9277L76.8279 59.209V59.209Z" fill="#0FA3B1"/>
<path d="M71.8377 49.874V63.6509L72.0362 62.857H72.0383L72.6432 60.4325L74.7325 59.8212L76.8281 59.2088L75.8691 48.91C75.2047 48.5146 74.5497 48.1078 73.9041 47.6936C73.4403 47.3952 72.9806 47.0938 72.5293 46.7881C72.4228 47.6049 72.2546 48.3905 72.0561 49.1322C71.9882 49.3878 71.915 49.6351 71.8377 49.874V49.874Z" fill="#0FA3B1"/>
<path d="M74.734 75.0432C78.267 74.2848 82.0769 73.7924 85.7354 73.9186L91.1875 59.8652L84.5246 61.3383L84.5204 61.3404L80.5277 62.224H80.5235L77.5932 62.8718L74.734 75.0432V75.0432Z" fill="#2BC8D7"/>
<path d="M68.5804 76.6726C69.8413 76.2773 71.1963 75.8892 72.6149 75.5355C73.3065 75.3613 74.0137 75.1965 74.7335 75.0431L77.5928 62.8717L77.0579 62.6078H77.0558L75.0563 61.6209L74.7335 61.4633L72.6421 60.4326L72.0362 62.8571H72.0351L71.8366 63.651L68.5804 76.6726V76.6726Z" fill="#0B6B7E"/>
<path d="M84.4138 57L87.6695 55.9326C87.6695 55.9326 87.7359 56.0038 87.8528 56.1299C87.9625 54.9865 88 53.8819 88 52.8728V52.7757C82.2852 51.6129 76.4261 48.621 71 45L71.5166 51.228C75.7046 53.7914 80.0845 55.8857 84.4138 57V57Z" fill="#0E6779"/>
<path d="M53.6147 80.5858C53.6597 80.5827 53.7056 80.5795 53.7526 80.5764C54.4338 80.5305 55.3176 80.4366 56.3915 80.2582C56.5983 78.7716 56.661 77.2391 56.4813 75.7473C56.4813 75.7473 63.559 71.8445 68.1942 57.2925C68.7896 57.5887 69.3464 57.7285 69.8646 57.7285C70.1529 57.7285 70.4287 57.6847 70.692 57.6023C71.1046 57.4698 73.15 52.3171 73.5 52L71.8369 49.874C71.1756 51.9146 70.1748 53.3313 68.8596 53.7517C68.8533 53.7538 68.8481 53.7549 68.8418 53.7569C68.8366 53.759 68.8314 53.7601 68.8251 53.7622C68.5744 53.8373 68.3122 53.8769 68.0395 53.878H68.0207C67.5475 53.8759 67.0408 53.758 66.5028 53.5097C66.4704 53.4951 66.4381 53.4794 66.4057 53.4627C66.3911 53.4565 66.3764 53.4492 66.3618 53.4419C61.737 67.9606 54.6814 71.879 54.649 71.8967C54.721 72.4986 54.7545 73.1068 54.7545 73.7161C54.7555 76.1061 54.2499 78.5108 53.6147 80.5858Z" fill="#0E6779"/>
<path d="M52.3177 93.4423C53.283 94.2216 54.3966 95.0249 55.364 96.0431C55.7202 96.4176 55.9636 96.7524 56.1068 97.0498H56.1088C72.4882 99.1206 82.7448 96.4739 84.1112 96.0869H84.1144C84.2157 96.0597 84.2679 96.0431 84.2679 96.0431C85.4045 95.2648 86.5087 94.3833 87.568 93.4423C94.1923 87.572 99.0761 79.3878 99.1649 79.2345L99.167 79.2324C95.8188 75.5289 90.9308 74.0976 85.7346 73.9181C82.0772 73.7919 78.2663 74.2843 74.7332 75.0428C74.0134 75.1972 73.3052 75.3609 72.6146 75.5352C71.196 75.8888 69.841 76.2769 68.5801 76.6723C67.3276 77.0645 66.168 77.4641 65.1337 77.8459C59.4842 79.9324 55.6137 80.4644 53.6142 80.5855C53.2371 81.8238 52.8129 82.9452 52.4243 83.8748C52.0242 84.8283 51.6627 85.5825 51.4246 86.0541C51.3567 86.2335 51.2626 86.414 51.1414 86.5945C51.1362 86.607 51.132 86.6133 51.132 86.6133C48.7847 90.131 50.1992 91.7314 52.3177 93.4423V93.4423Z" fill="#0E9EAC"/>
<path d="M68.2049 97.8331H68.2112C77.4126 97.832 83.0518 96.3861 84.0943 96.093C84.1006 96.0909 84.1069 96.0888 84.1132 96.0867H84.1163C84.2176 96.0596 84.2699 96.0429 84.2699 96.0429C84.2845 96.0335 84.3001 96.0231 84.3148 96.0126C84.3158 96.0116 84.3169 96.0106 84.3179 96.0106C85.3281 95.3147 86.3111 94.5365 87.2607 93.7102C85.4232 94.1724 80.0661 95.3095 71.9041 95.3095C68.3773 95.3095 64.325 95.0967 59.8089 94.526H59.8068C59.6637 94.2287 59.4193 93.8938 59.0641 93.5204C58.0967 92.5011 56.9831 91.6978 56.0178 90.9185C53.8992 89.2076 52.4837 87.6084 54.8311 84.0895C54.8311 84.0895 54.8352 84.0833 54.8415 84.0707C54.9627 83.8903 55.0567 83.7098 55.1246 83.5304C55.3618 83.0588 55.7243 82.3046 56.1233 81.351C56.2696 81.0026 56.42 80.627 56.5715 80.2285C55.4756 80.4173 54.5741 80.5164 53.8721 80.5676C53.8689 80.5676 53.8658 80.5686 53.8637 80.5686H53.8553C53.7728 80.5749 53.6934 80.5801 53.6161 80.5853C53.239 81.8236 52.8149 82.9451 52.4262 83.8746C52.0376 84.801 51.6856 85.5386 51.4474 86.0122C51.4411 86.0268 51.4338 86.0404 51.4265 86.0539C51.3586 86.2334 51.2646 86.4138 51.1434 86.5943C51.1382 86.6068 51.134 86.6131 51.134 86.6131C50.2721 87.9046 49.9169 88.9385 49.918 89.8127C49.9201 91.3212 50.9794 92.3592 52.3197 93.4421C53.285 94.2214 54.3986 95.0247 55.3659 96.0429C55.7222 96.4174 55.9656 96.7523 56.1087 97.0496H56.1108C56.2476 97.0663 56.3845 97.084 56.5203 97.1007C60.8682 97.6328 64.7795 97.8331 68.1976 97.8331H68.2049V97.8331Z" fill="#0C7489"/>
<path d="M72.6425 60.4331L74.734 61.4639L75.0568 61.6214L77.0563 62.6083H77.0583L77.5932 62.8722L80.5235 62.2244H80.5277L84.5204 61.3408L84.5246 61.3387L91.1875 59.8656C90.8344 58.8036 88.6343 56.6368 88.0681 56.0923V56.0902C87.9835 56.0088 87.9354 55.9629 87.9354 55.9629L76.8275 59.2094L74.7319 59.8218L72.6425 60.4331V60.4331Z" fill="#0E98A5"/>
<path fill-rule="evenodd" clip-rule="evenodd" d="M97.9465 7.80381C97.9465 7.80381 81.0124 -7.04766 64.2945 4.22552C55.8087 9.9487 53.7559 17.4068 54.974 24.3391C55.4462 27.0452 56.4198 29.671 57.7016 32.084C58.0599 32.0444 58.4172 32.0235 58.7755 32.0235C62.4632 32.0173 66.0339 34.0516 68.7991 36.6117C70.9135 38.5698 71.9749 40.6542 72.4053 42.6948C72.5756 43.5137 72.6466 44.3274 72.6425 45.1213C72.6404 45.4729 72.6237 45.8193 72.5944 46.1604C72.5756 46.3722 72.5547 46.5808 72.5286 46.7884C72.9799 47.0941 73.4395 47.3956 73.9034 47.6939C74.549 48.1081 75.204 48.515 75.8684 48.9104C79.7964 51.2462 84.0377 53.1761 88.1746 53.9262C92.0451 54.6283 95.8258 54.2945 99.1677 52.2831C78.1635 45.0243 69.7665 33.2806 66.6701 27.1026C65.6902 27.7431 64.6664 27.8819 63.7513 27.425C61.7967 26.4485 61.6348 21.1363 64.1315 18.0473C66.6293 14.9594 69.3967 16.4763 69.3967 16.4763C69.6714 16.6734 69.9232 17.0083 70.1123 17.4652C70.1457 17.5434 70.177 17.627 70.2042 17.7124C75.695 17.0021 89.7604 16.2488 108.444 23.1008C106.836 17.4381 103.43 12.0268 97.9465 7.80381ZM69.6123 19.0265C69.8704 18.9859 70.1284 18.9462 70.3865 18.9066L69.5726 18.8084L69.6123 19.0265Z" fill="#0FA3B1"/>
<path fill-rule="evenodd" clip-rule="evenodd" d="M108.424 23.0319C108.432 23.0548 108.438 23.0778 108.444 23.1007C95.5604 18.3759 84.8714 17.267 77.6767 17.267C74.4383 17.267 71.9091 17.4913 70.2042 17.7124C70.1771 17.627 70.1457 17.5434 70.1123 17.4652C69.9232 17.0082 69.6714 16.6734 69.3967 16.4763C69.3967 16.4763 68.7166 16.1027 67.7273 16.1027C67.6708 16.1027 67.6134 16.1047 67.5549 16.1068L67.5518 16.1069C68.5892 15.1659 69.6255 14.9082 70.4476 14.9082C71.4369 14.9082 72.117 15.2807 72.117 15.2807C72.3918 15.4778 72.6435 15.8127 72.8326 16.2697C72.866 16.349 72.8974 16.4324 72.9245 16.5179C74.6284 16.2969 77.1586 16.0725 80.396 16.0725C86.9241 16.0725 96.3283 16.9853 107.64 20.6835C107.906 21.3825 108.146 22.0867 108.357 22.7961V22.7971L108.375 22.8608C108.377 22.8691 108.38 22.8764 108.382 22.8837L108.382 22.8837L108.394 22.9275C108.396 22.9328 108.398 22.9382 108.399 22.9437C108.401 22.9492 108.403 22.9547 108.405 22.9599C108.408 22.9714 108.411 22.9828 108.414 22.9954C108.415 23.0001 108.417 23.005 108.418 23.01C108.42 23.0171 108.423 23.0245 108.424 23.0319ZM73.1076 17.7167L72.2937 17.6176L72.3334 17.8267C72.57 17.7995 72.8065 17.763 73.0431 17.7266C73.0646 17.7233 73.0861 17.72 73.1076 17.7167Z" fill="#0C7489"/>
<path d="M91.7194 54.26C94.2569 54.26 96.7056 53.7039 98.96 52.3999C97.5006 52.8579 95.9837 53.0644 94.4345 53.0644C93.2696 53.0644 92.0871 52.9476 90.8951 52.7316C86.7582 51.9816 82.5179 50.0505 78.5889 47.7147C77.9245 47.3204 77.2695 46.9125 76.6239 46.4994C76.1601 46.2 75.7004 45.8985 75.2491 45.5938C75.2763 45.3852 75.2961 45.1776 75.3149 44.9658C75.3442 44.6247 75.3609 44.2783 75.363 43.9268C75.3671 43.1328 75.2961 42.3181 75.1258 41.4991C74.6954 39.4586 73.634 37.3742 71.5196 35.4171C68.7586 32.8612 65.1942 30.829 61.5127 30.829H61.496C61.1387 30.829 60.7804 30.8498 60.4221 30.8895C59.1403 28.4765 58.1667 25.8496 57.6945 23.1445C56.4774 16.2122 58.5292 8.75412 67.015 3.03094C67.927 2.41543 68.8401 1.88234 69.751 1.41602C68.0576 2.0357 66.3475 2.88176 64.6373 3.99802C64.6363 3.99802 64.6363 3.99802 64.6353 3.99906C64.6227 4.00741 64.6091 4.01575 64.5966 4.02514C64.5935 4.02723 64.5924 4.02723 64.5893 4.02932C64.5768 4.03766 64.5642 4.04601 64.5517 4.05435C64.5496 4.0554 64.5475 4.05748 64.5454 4.05853C64.5235 4.07313 64.5015 4.08774 64.4796 4.10234C64.4733 4.10547 64.4692 4.1086 64.4629 4.11278C64.4545 4.11799 64.4462 4.12425 64.4378 4.12947C64.4295 4.13468 64.4221 4.1399 64.4138 4.14512C64.4054 4.15033 64.3981 4.15659 64.3898 4.16181C64.3804 4.16807 64.372 4.17328 64.3626 4.17954C64.3563 4.18371 64.349 4.18893 64.3417 4.1931C64.326 4.20458 64.3104 4.21501 64.2947 4.22544C57.2672 8.96486 54.6514 14.8946 54.6524 20.7294C54.6524 21.9406 54.7642 23.1476 54.9742 24.339C55.4463 27.0451 56.42 29.671 57.7018 32.084C58.0601 32.0443 58.4174 32.0235 58.7757 32.0235H58.8081C62.4226 32.0287 65.9233 33.992 68.6614 36.4854C68.6687 36.4916 68.676 36.4989 68.6834 36.5052C68.6938 36.5146 68.7042 36.524 68.7147 36.5334C68.7429 36.5594 68.7711 36.5855 68.7993 36.6116C68.8066 36.6189 68.8139 36.6262 68.8212 36.6325C68.8275 36.6387 68.8348 36.645 68.8411 36.6502C68.8421 36.6512 68.8432 36.6523 68.8432 36.6533C68.8505 36.6596 68.8578 36.6669 68.8651 36.6731C70.9357 38.6125 71.9793 40.675 72.4055 42.6947C72.5706 43.4875 72.6426 44.2773 72.6426 45.0472V45.1213C72.6406 45.4728 72.6238 45.8192 72.5946 46.1603C72.5758 46.3721 72.5549 46.5807 72.5288 46.7883C72.9801 47.094 73.4397 47.3955 73.9036 47.6939C74.5492 48.108 75.2042 48.5149 75.8686 48.9103C79.7965 51.2461 84.0379 53.1761 88.1748 53.9261C89.3689 54.1431 90.5535 54.26 91.7194 54.26V54.26Z" fill="#0C7489"/>
<path d="M39.2459 60.5964C39.2459 60.5964 44.9205 61.4028 50.707 67.1239C51.2481 67.658 51.7892 68.236 52.3283 68.8588C52.9258 69.5505 53.5161 70.2985 54.0969 71.109C54.2839 71.3657 54.4678 71.6286 54.6485 71.8967C54.6485 71.8967 61.7251 67.995 66.3613 53.4419C66.3613 53.4419 65.8588 51.0205 64.4078 48.4166C63.0675 46.0088 60.9186 43.4446 57.6091 42.5057C55.0726 41.7817 51.854 42.0164 47.7944 44.01C47.7944 44.01 39.9782 49.945 39.2459 60.5964V60.5964Z" fill="#0FA3B1"/>
<path d="M41.2204 61.1115C42.4573 51.2706 49.6394 45.8103 49.6394 45.8103C52.3535 44.4781 54.6914 43.9315 56.7014 43.9315C57.698 43.9315 58.6142 44.0661 59.4551 44.306C60.7223 44.6659 61.8182 45.2647 62.7646 46.0013C61.5528 44.5449 59.9754 43.2649 57.9414 42.6055H57.9404C57.9257 42.6003 57.9111 42.5951 57.8954 42.5909C57.8934 42.5899 57.8913 42.5899 57.8892 42.5888C57.8829 42.5868 57.8756 42.5847 57.8683 42.5826C57.8651 42.5805 57.861 42.5794 57.8568 42.5784C57.8474 42.5753 57.838 42.5721 57.8275 42.569C57.8223 42.568 57.8171 42.5659 57.8108 42.5648C57.8056 42.5628 57.8004 42.5607 57.7952 42.5596C57.7878 42.5575 57.7805 42.5544 57.7722 42.5523C57.768 42.5513 57.7638 42.5502 57.7586 42.5482C57.7502 42.5461 57.7408 42.5429 57.7325 42.5409C57.7283 42.5388 57.7241 42.5377 57.7199 42.5367C57.7105 42.5335 57.7011 42.5315 57.6917 42.5283C57.6896 42.5273 57.6876 42.5273 57.6865 42.5273C57.6761 42.5242 57.6646 42.52 57.6541 42.5179C57.651 42.5169 57.6479 42.5158 57.6447 42.5148C57.6332 42.5116 57.6217 42.5085 57.6102 42.5054C57.5726 42.4939 57.534 42.4835 57.4953 42.473C56.6868 42.254 55.8103 42.1309 54.8607 42.1309H54.8325C53.0001 42.135 50.8951 42.593 48.4809 43.6853V43.6863C48.2552 43.7896 48.0265 43.896 47.7956 44.0097C47.7956 44.0097 39.9794 49.9447 39.247 60.5961C39.247 60.5961 39.9929 60.7025 41.2204 61.1104" fill="#0C7489"/>
<path d="M93.4677 133.363C100.876 136.29 109.832 136.616 114.939 136.698C120.045 136.778 121.799 136.698 121.964 133.445C122.126 130.193 121.883 126.209 118.138 123.851C114.391 121.492 107.879 118.891 107.879 118.891C101.365 124.501 88.7468 125.721 88.7468 125.721C88.2569 128.484 86.0599 130.436 93.4677 133.363V133.363Z" fill="#244A6E"/>
<path d="M116.62 136.714C116.754 136.714 116.884 136.713 117.012 136.712H117.044C117.446 136.709 117.818 136.699 118.164 136.681C112.952 136.571 104.579 136.127 97.5841 133.363C90.1763 130.436 92.3733 128.484 92.8622 125.721C92.8622 125.721 103.765 124.666 110.533 120.011C109.012 119.344 107.925 118.909 107.88 118.891H107.879C101.366 124.501 88.7472 125.721 88.7472 125.721C88.5477 126.849 88.063 127.842 88.064 128.821C88.064 130.24 89.0846 131.632 93.4681 133.363C100.877 136.29 109.833 136.616 114.939 136.698C115.546 136.707 116.105 136.714 116.62 136.714V136.714Z" fill="#0A2239"/>
<path d="M31.349 105.069C37.944 108.321 39.8171 107.833 41.0362 104.257C42.2574 100.678 44.6999 96.4515 48.8514 97.9955C52.5265 99.3632 57.2192 99.3298 56.1098 97.0503H56.1077C55.9645 96.753 55.7211 96.4181 55.3649 96.0436C54.3975 95.0254 53.2839 94.2221 52.3187 93.4428C50.2001 91.7319 48.7856 90.1316 51.133 86.6138C50.2586 85.7406 49.3758 84.9958 48.4983 84.3594C46.5291 82.9375 44.5839 82.0737 42.7819 81.5687C37.7591 80.1614 33.874 81.5729 33.874 81.5729C33.874 81.5729 33.5721 83.1638 32.9766 85.243C32.2986 87.6195 31.2351 90.6344 29.8008 92.6301C29.6117 92.8941 29.4247 93.1643 29.244 93.4428C26.8277 97.1244 25.2189 102.045 31.349 105.069V105.069Z" fill="#244A6E"/>
<path d="M53.6287 98.9146C55.4182 98.9146 56.6342 98.3888 56.1735 97.2027C54.7663 97.1922 53.0207 96.8657 51.4568 96.2836C50.853 96.0593 50.2847 95.957 49.7519 95.957C48.3228 95.957 47.1423 96.6936 46.1823 97.7837C46.4894 97.7086 46.8101 97.6679 47.1454 97.6679C47.6448 97.6679 48.1755 97.7587 48.7375 97.9548C48.7751 97.9673 48.8127 97.9809 48.8503 97.9955C50.4372 98.586 52.2121 98.9146 53.6287 98.9146Z" fill="#0A2239"/>
<path d="M37.7768 107.246C39.0785 107.246 39.8891 106.66 40.4961 105.533C40.4585 105.534 40.4219 105.534 40.3833 105.534C38.9563 105.534 36.94 104.83 33.9554 103.358C27.8253 100.335 29.4341 95.4137 31.8494 91.7311C32.0301 91.4526 32.2181 91.1824 32.4072 90.9184C33.8405 88.9238 34.904 85.9088 35.583 83.5313C35.8578 82.5694 36.0698 81.715 36.2182 81.0703C34.7901 81.2497 33.9168 81.5575 33.875 81.5721H33.8739V81.5732C33.8739 81.5732 33.572 83.1641 32.9766 85.2432C32.2986 87.6197 31.2351 90.6347 29.8008 92.6304C29.6117 92.8943 29.4247 93.1645 29.244 93.4431C28.0729 95.226 27.093 97.3009 27.0888 99.3092C27.0846 101.447 28.1888 103.51 31.349 105.069C31.4002 105.094 31.4503 105.119 31.4994 105.143C31.5192 105.152 31.5391 105.163 31.5589 105.172C31.5757 105.18 31.5924 105.189 31.6091 105.197C34.4506 106.582 36.3916 107.246 37.7768 107.246V107.246Z" fill="#0A2239"/>
<path d="M36.6404 69.3765C40.0816 68.5972 45.3655 69.4976 49.3217 70.4302C50.0707 70.6086 50.7717 70.7859 51.4047 70.9539C52.4118 71.222 53.2434 71.4651 53.8117 71.6372C54.3444 71.7979 54.6484 71.897 54.6484 71.897C54.4677 71.6289 54.2838 71.366 54.0969 71.1093C53.516 70.2988 52.9258 69.5508 52.3282 68.8591C51.7892 68.2363 51.248 67.6583 50.7069 67.1242C44.9205 61.4031 39.2458 60.5967 39.2458 60.5967C39.2458 60.5967 31.673 62.0603 36.6404 69.3765V69.3765Z" fill="#244A6E"/>
<path d="M54.6484 71.8968C54.4677 71.6287 54.2838 71.3658 54.0969 71.1092C53.516 70.2986 52.9258 69.5506 52.3282 68.8589C51.7892 68.2361 51.248 67.6582 50.7069 67.1241C50.686 67.1032 50.6651 67.0834 50.6432 67.0625C51.1864 67.702 51.7234 68.3853 52.252 69.1239C52.44 69.3795 52.6228 69.6435 52.8036 69.9105C52.8036 69.9105 52.4996 69.8114 51.9668 69.6508C51.3985 69.4786 50.5669 69.2356 49.5599 68.9674C48.9268 68.7995 48.2258 68.6221 47.4768 68.4437C44.5768 67.7604 40.9643 67.0938 37.8867 67.0938C37.0301 67.0938 36.2152 67.146 35.4694 67.2628C35.7378 67.9065 36.1191 68.6086 36.6404 69.3764C36.6686 69.3701 36.6968 69.3639 36.725 69.3576C37.6224 69.1636 38.641 69.0801 39.7264 69.0801H39.742C42.7559 69.0822 46.2817 69.7207 49.1462 70.3894C49.1493 70.3894 49.1514 70.3904 49.1535 70.3904C49.2099 70.404 49.2653 70.4175 49.3217 70.4301C50.0707 70.6085 50.7717 70.7858 51.4047 70.9538C52.4118 71.2219 53.2434 71.4649 53.8117 71.6371C54.3444 71.7977 54.6484 71.8968 54.6484 71.8968H54.6484Z" fill="#0A2239"/>
<path d="M63.7502 27.4247C64.6653 27.8817 65.6891 27.7429 66.669 27.1024C66.7463 27.0533 66.8215 27.0012 66.8957 26.9448C67.3355 26.6225 67.7596 26.201 68.1587 25.6898C68.6998 24.9982 69.195 24.1417 69.6118 23.1423C69.966 22.292 70.1927 21.5044 70.3191 20.7898C70.4277 20.1889 70.4653 19.6401 70.4465 19.1477C70.4424 19.059 70.4382 18.9693 70.4298 18.8817C70.4194 18.745 70.4047 18.6115 70.3839 18.4854L70.3797 18.4624C70.34 18.1879 70.2794 17.9387 70.2031 17.7122C70.176 17.6268 70.1446 17.5432 70.1112 17.465C69.9221 17.008 69.6703 16.6732 69.3956 16.4761C69.3956 16.4761 66.6283 14.9591 64.1305 18.0471C61.6337 21.1361 61.7956 26.4483 63.7502 27.4247V27.4247Z" fill="#244A6E"/>
<path d="M64.8796 27.6932H64.9005C65.4678 27.689 66.0518 27.496 66.6211 27.135C66.6378 27.1246 66.6545 27.1142 66.6702 27.1027C66.6806 27.0964 66.689 27.0891 66.6994 27.0829C66.5313 27.1142 66.3641 27.1309 66.198 27.1309C65.8115 27.1309 65.4323 27.0432 65.0708 26.8628C63.1162 25.8863 62.9543 20.5741 65.4511 17.4841C65.9128 16.9124 66.385 16.4993 66.8457 16.2051C66.0706 16.3845 65.1993 16.8331 64.3479 17.7918L64.3469 17.7929C64.3333 17.8086 64.3197 17.8242 64.3051 17.8409L64.304 17.8419C64.2967 17.8503 64.2904 17.8576 64.2842 17.8649C64.2831 17.8659 64.2831 17.8659 64.2821 17.8669C64.2758 17.8743 64.2685 17.8826 64.2622 17.89C64.2612 17.8909 64.2601 17.893 64.2591 17.893C64.2539 17.9003 64.2476 17.9076 64.2413 17.914C64.2403 17.9161 64.2393 17.917 64.2382 17.9181C64.2319 17.9264 64.2257 17.9337 64.2184 17.9422C64.2184 17.9422 64.2173 17.9431 64.2173 17.9441C64.211 17.9515 64.2048 17.9577 64.1985 17.9651C64.1975 17.9672 64.1964 17.9682 64.1943 17.9702C64.1881 17.9786 64.1818 17.9859 64.1755 17.9943C64.1745 17.9943 64.1745 17.9953 64.1745 17.9953C64.1682 18.0026 64.1619 18.0099 64.1557 18.0173C64.1546 18.0194 64.1525 18.0213 64.1515 18.0234C64.1452 18.0307 64.1379 18.0391 64.1317 18.0474C62.854 19.6279 62.2721 21.7916 62.2711 23.6569C62.2701 25.4377 62.7966 26.9483 63.7514 27.4251C63.7597 27.4292 63.7671 27.4334 63.7754 27.4376C64.1285 27.6087 64.4973 27.6932 64.8734 27.6932H64.8796V27.6932Z" fill="#0A2239"/>
<path d="M47.7949 44.0102C51.8545 42.0166 55.0732 41.7819 57.6096 42.5059C60.9191 43.4448 63.068 46.009 64.4083 48.4168C65.8594 51.0207 66.3619 53.4421 66.3619 53.4421C67.2885 53.9032 68.1232 53.9846 68.8597 53.7519C70.1749 53.3315 71.1757 51.9148 71.837 49.8742C71.9143 49.6353 71.9874 49.3881 72.0553 49.1325C72.2538 48.3907 72.422 47.6052 72.5285 46.7883C72.5547 46.5807 72.5755 46.3721 72.5943 46.1603C72.6236 45.8192 72.6403 45.4728 72.6424 45.1213C72.6466 44.3274 72.5755 43.5136 72.4053 42.6947C71.9749 40.6541 70.9135 38.5697 68.7991 36.6116C66.0338 34.0515 62.4631 32.0172 58.7755 32.0235C58.4171 32.0235 58.0599 32.0443 57.7015 32.084C55.7626 32.2999 53.8122 33.1147 51.9454 34.7421C46.1653 39.783 47.7949 44.0102 47.7949 44.0102V44.0102Z" fill="#244A6E"/>
<path d="M47.795 44.0102C47.818 43.9987 47.8399 43.9872 47.8629 43.9758C47.8796 43.9685 47.8953 43.9601 47.9109 43.9528C47.9339 43.9424 47.9558 43.9309 47.9788 43.9205C47.983 43.9184 47.9893 43.9153 47.9935 43.9132C48.0123 43.9048 48.029 43.8965 48.0478 43.8871C48.0488 43.8871 48.0488 43.886 48.0499 43.886C48.0666 43.8777 48.0833 43.8704 48.1 43.8621C48.124 43.8516 48.147 43.8401 48.1711 43.8287C48.1773 43.8255 48.1846 43.8224 48.1909 43.8193C48.2881 43.7744 48.3842 43.7296 48.4803 43.6857C48.7174 41.978 49.691 39.5191 52.778 36.8265C54.6449 35.2001 56.5942 34.3843 58.5342 34.1683C58.8914 34.1287 59.2498 34.1089 59.6081 34.1089H59.6259C63.3062 34.1089 66.8706 36.1411 69.6317 38.697C70.7986 39.7778 71.6437 40.8972 72.2402 42.026C71.7357 40.2222 70.7077 38.3997 68.8649 36.6731C68.8576 36.6669 68.8503 36.6596 68.843 36.6533C68.843 36.6523 68.8419 36.6512 68.8409 36.6502C68.8346 36.645 68.8273 36.6387 68.821 36.6324C68.8137 36.6262 68.8064 36.6189 68.7991 36.6116C68.7709 36.5855 68.7427 36.5594 68.7145 36.5333C68.704 36.5239 68.6936 36.5146 68.6831 36.5052C68.6758 36.4989 68.6685 36.4916 68.6612 36.4853C65.9231 33.992 62.4224 32.0287 58.8079 32.0234H58.7755C58.4172 32.0234 58.0599 32.0443 57.7016 32.0839C55.7627 32.2999 53.8123 33.1147 51.9454 34.7421C48.2536 37.9615 47.5839 40.8492 47.5829 42.5152C47.5819 43.4583 47.795 44.0102 47.795 44.0102V44.0102Z" fill="#0A2239"/>
<path d="M33.8735 81.5728C33.8934 81.5655 35.2013 81.095 37.2708 80.9729L39.5879 70.7618C40.5072 70.5542 41.556 70.4655 42.678 70.4655C45.7556 70.4655 49.3691 71.1321 52.2691 71.8154C53.0181 71.9938 53.7191 72.1712 54.3522 72.3391C54.4713 72.3715 54.5883 72.4028 54.7021 72.4341C54.6875 72.2546 54.6698 72.0752 54.6489 71.8968C54.6489 71.8968 54.3449 71.7977 53.8121 71.637C53.2438 71.4649 52.4122 71.2218 51.4052 70.9537C50.7721 70.7858 50.0711 70.6084 49.3221 70.43C49.2657 70.4175 49.2103 70.4039 49.1539 70.3904C49.1518 70.3904 49.1497 70.3893 49.1466 70.3893C46.2821 69.7206 42.7564 69.0822 39.7425 69.0801H39.7268C38.6414 69.0801 37.6228 69.1635 36.7255 69.3576C36.6973 69.3638 36.6691 69.3701 36.6409 69.3764L33.8735 81.5728V81.5728Z" fill="#0C7489"/>
<path d="M84.2676 96.0437C84.2676 96.0437 84.2696 96.1251 84.2738 96.2774C84.3219 98.3712 84.7941 114.123 88.0566 123.862C88.2728 124.509 88.5026 125.131 88.7461 125.721C88.7461 125.721 101.365 124.501 107.878 118.891C107.878 118.891 111.215 99.5417 107.064 90.7598C107.064 90.7598 102.153 95.7349 88.0566 96.0667C86.8604 96.0938 85.5995 96.0876 84.2676 96.0437V96.0437Z" fill="#0FA3B1"/>
<path d="M88.7467 125.72C88.7467 125.72 101.365 124.5 107.879 118.89C107.879 118.89 107.938 118.541 108.031 117.921C101.28 121.72 91.9893 122.618 91.9893 122.618C91.7459 122.028 91.5171 121.407 91.3009 120.758C88.7153 113.045 87.8827 101.558 87.6236 96.0743C87.2883 96.0795 86.9477 96.0826 86.603 96.0826C85.8498 96.0826 85.0715 96.0701 84.2682 96.043C84.2682 96.043 84.2702 96.1243 84.2744 96.2767C84.3225 98.3704 84.7947 114.122 88.0572 123.861C88.2734 124.509 88.5032 125.13 88.7467 125.72Z" fill="#0C7489"/>
<path d="M66.6699 27.1029C69.7663 33.2809 78.1634 45.0246 99.1675 52.2834C100.021 51.7712 100.847 51.1484 101.638 50.4066C104.72 47.5138 106.98 43.7404 108.278 39.5508C108.289 39.5195 108.299 39.4882 108.307 39.4569C108.811 37.9066 109.206 36.2114 109.416 34.3784H109.418C109.652 32.3879 109.67 30.2347 109.383 27.9323V27.9302V27.9239C109.354 27.66 109.323 27.3939 109.285 27.13C109.102 25.7811 108.823 24.4353 108.444 23.101C89.7603 16.2491 75.6948 17.0024 70.204 17.7127C70.2803 17.9392 70.3409 18.1885 70.3806 18.4629L70.4663 18.4733C70.4391 18.4774 70.4119 18.4816 70.3848 18.4859C70.4057 18.612 70.4203 18.7455 70.4307 18.8822C70.4391 18.9698 70.4433 19.0596 70.4474 19.1482C70.4663 19.6406 70.4286 20.1894 70.32 20.7903C70.1936 21.5049 69.9669 22.2925 69.6128 23.1428C69.1959 24.1422 68.7008 24.9987 68.1596 25.6903C67.7606 26.2015 67.3364 26.623 66.8966 26.9454C66.8224 27.0017 66.7472 27.0539 66.6699 27.1029V27.1029Z" fill="#C7D6DD"/>
<path fill-rule="evenodd" clip-rule="evenodd" d="M101.638 50.406C100.848 51.1477 100.021 51.7705 99.1678 52.2827C99.2229 52.2495 99.2773 52.2142 99.3317 52.1788C99.3713 52.153 99.4109 52.1273 99.4509 52.1023C80.4703 44.8038 72.6813 33.8321 69.7248 27.9337C69.8022 27.8836 69.8763 27.8325 69.9515 27.7761C70.3913 27.4538 70.8155 27.0323 71.2146 26.5211C71.7557 25.8284 72.2509 24.973 72.6677 23.9736C73.0208 23.1233 73.2485 22.3357 73.3749 21.6211C73.4836 21.0202 73.5201 20.4714 73.5013 19.979C73.5008 19.9667 73.5002 19.9545 73.4997 19.9422C73.4962 19.865 73.4927 19.7886 73.4846 19.713C73.4742 19.5763 73.4606 19.4428 73.4397 19.3166C73.4669 19.3124 73.494 19.3082 73.5201 19.304L73.4355 19.2936C73.3958 19.0192 73.3352 18.7699 73.2579 18.5435C74.9628 18.3224 77.492 18.0982 80.7294 18.0982C85.9862 18.0982 93.1077 18.6896 101.587 20.8512C91.7572 18.0063 83.5515 17.2666 77.6764 17.2666C74.4381 17.2666 71.9092 17.4909 70.2044 17.7121C71.9082 17.4909 74.4384 17.2666 77.6758 17.2666C77.676 17.2666 77.6762 17.2666 77.6764 17.2666C77.6765 17.2666 77.6767 17.2666 77.6769 17.2666C84.8715 17.2666 95.5606 18.3756 108.444 23.1004C108.824 24.4347 109.103 25.7804 109.285 27.1293C109.323 27.3933 109.354 27.6593 109.384 27.9232V27.9295V27.9316C109.529 29.101 109.596 30.2319 109.596 31.3221C109.596 32.3789 109.533 33.3981 109.418 34.3777H109.416C109.206 36.2107 108.811 37.9059 108.308 39.4562C108.299 39.4875 108.289 39.5188 108.278 39.55L108.278 39.5501C106.98 43.7397 104.72 47.5131 101.638 50.406ZM101.188 23.6926C100.797 23.6384 100.468 23.6123 100.194 23.6123C98.4101 23.6123 98.9687 24.7386 99.9037 26.6239C100.415 27.6552 101.039 28.9137 101.454 30.3391C102.017 32.271 101.261 35.1258 100.683 37.3071C100.209 39.0977 99.8547 40.4345 100.449 40.4345C100.637 40.4345 100.921 40.2999 101.326 40.0046C101.326 40.0046 105.159 37.5958 106.305 32.1001C107.097 28.3016 105.521 24.2956 101.188 23.6926Z" fill="#0A2239"/>
<path d="M99.1675 52.2827C99.2625 52.2254 99.3555 52.1617 99.4506 52.1023C80.47 44.8038 72.6809 33.8321 69.7245 27.9337C69.8018 27.8836 69.876 27.8325 69.9512 27.7761C70.391 27.4538 70.8151 27.0323 71.2142 26.5211C71.7553 25.8284 72.2505 24.973 72.6673 23.9736C73.0204 23.1233 73.2482 22.3357 73.3746 21.6211C73.4832 21.0202 73.5198 20.4714 73.501 19.979C73.4968 19.8893 73.4937 19.8006 73.4843 19.713C73.4738 19.5763 73.4602 19.4428 73.4393 19.3166C73.4665 19.3124 73.4937 19.3082 73.5198 19.304L73.4352 19.2936C73.3955 19.0192 73.3349 18.7699 73.2576 18.5435C74.9625 18.3224 77.4916 18.0982 80.729 18.0982C85.9858 18.0982 93.1073 18.6896 101.587 20.8512C91.7566 18.0063 83.5507 17.2666 77.6755 17.2666C74.438 17.2666 71.9079 17.4909 70.204 17.7121C70.2803 17.9385 70.3409 18.1878 70.3805 18.4623L70.4662 18.4726C70.4391 18.4768 70.4119 18.4809 70.3847 18.4852C70.4056 18.6113 70.4202 18.7449 70.4307 18.8815C70.439 18.9692 70.4432 19.0589 70.4474 19.1476C70.4505 19.2321 70.4516 19.3186 70.4516 19.4063C70.4505 19.8309 70.4098 20.292 70.32 20.7896C70.1936 21.5042 69.9669 22.2919 69.6127 23.1421C69.1959 24.1415 68.7007 24.998 68.1596 25.6897C67.7605 26.2009 67.3364 26.6223 66.8966 26.9447C66.8224 27.001 66.7472 27.0532 66.6699 27.1022C69.7663 33.2802 78.1633 45.0239 99.1675 52.2827V52.2827Z" fill="#1F3E5C"/>
<path d="M54.1024 68.5528C54.1024 68.5528 60.3454 64.0095 64.5596 53.2037C64.5596 53.2037 63.259 48.3203 61.178 47.2812C61.178 47.2812 54.0481 49.7235 51.006 65.2301C51.006 65.2301 53.1664 66.9671 54.1024 68.5528V68.5528Z" fill="#2BC8D7"/>
<path d="M49.9167 83.3431C49.9167 83.3431 52.8094 78.3866 53.2471 73.8987C53.2471 73.8987 51.1003 72.627 49.4288 72.627C49.3651 72.627 49.3024 72.629 49.2408 72.6322C49.2408 72.6322 46.7461 77.1003 46.9383 81.9837C46.9383 81.9837 48.9577 82.6232 49.9167 83.3431Z" fill="#2BC8D7"/>
<path d="M58.8656 85.2427C58.8656 85.2427 69.4387 83.9585 75.8686 82.6075C77.1859 82.33 78.6109 82.2131 80.064 82.2131C85.6979 82.2131 91.7591 83.972 93.698 84.9777C93.698 84.9777 97.2812 79.8064 97.0723 79.2326C97.0723 79.2326 90.3634 76.2803 83.5657 76.2803C82.8919 76.2803 82.2181 76.3095 81.5485 76.3731C73.1869 77.1691 64.4023 80.5857 58.8656 81.8125C58.8656 81.8125 57.3581 83.8917 58.8656 85.2427V85.2427Z" fill="#2BC8D7"/>
<path d="M101.545 118.912C103.175 118.912 105.916 117.416 105.916 117.416C107.165 109.207 105.396 93.2598 105.396 93.2598C103.317 94.7944 99.1677 95.9576 99.1677 95.9576C103.298 108.934 101.234 118.891 101.234 118.891C101.332 118.906 101.437 118.912 101.545 118.912V118.912Z" fill="#2BC8D7"/>
<path d="M103.593 17.2667C103.593 17.2667 95.1299 6.7426 84.5202 3.60664C82.3035 2.95149 80.2956 2.65625 78.4538 2.65625C72.189 2.65625 67.8515 6.0791 63.7783 10.4367C63.7783 10.4367 67.5882 7.59283 75.3136 7.59283C81.8856 7.59283 91.2897 9.65113 103.593 17.2667H103.593Z" fill="#2BC8D7"/>
<path d="M100.449 40.4354C100.637 40.4354 100.921 40.3009 101.325 40.0056C101.325 40.0056 105.159 37.5968 106.305 32.101C107.097 28.3026 105.521 24.2966 101.187 23.6936C100.797 23.6394 100.468 23.6133 100.194 23.6133C97.4338 23.6133 100.281 26.309 101.454 30.3401C102.479 33.8578 99.1304 40.4354 100.449 40.4354V40.4354Z" fill="#244A6E"/>
<path fill-rule="evenodd" clip-rule="evenodd" d="M330.497 125.325C328.762 125.325 327.364 125.272 326.22 125.22C325.078 125.168 324.194 125.115 323.488 125.115C323.097 125.115 322.761 125.131 322.466 125.172C322.36 124.785 322.241 124.375 322.106 123.937C321.603 122.309 320.789 120.874 319.808 119.555C318.407 117.664 316.659 116.013 315.002 114.378C309.427 108.88 305.804 98.0272 309.504 89.1356C310.424 86.9185 311.764 84.9167 313.405 83.1828C317.4 78.9598 323.187 76.3248 329.121 76.0285C329.5 76.0096 329.878 76 330.256 76C336.454 76 342.715 78.5168 347.021 83.1828C347.781 84.0065 348.48 84.8971 349.108 85.8529C354.347 93.8376 353.558 104.837 348.726 111.053C344.543 116.439 342.712 117.73 341.048 119.885C340.843 120.151 340.641 120.453 340.439 120.784C339.868 121.734 339.329 122.925 338.884 124.208C337.383 124.26 335.011 125.315 330.683 125.325C330.622 125.325 330.558 125.325 330.497 125.325Z" fill="url(#paint5_radial)"/>
<path d="M327.172 118.084L327.785 117.706C325.059 113.293 323.617 109.667 322.889 107.402C321.895 104.312 321.77 102.364 321.982 101.572C322.039 101.359 322.116 101.254 322.168 101.226C322.632 100.977 323.411 101.504 324.399 102.172C325.871 103.167 327.884 104.529 330.561 104.401C333.456 104.262 335.463 102.488 336.928 101.192C337.717 100.493 338.464 99.831 338.82 99.9984C338.845 100.011 338.906 100.076 338.964 100.239C339.512 101.797 338.541 107.735 333.626 117.707L334.27 118.025C338.967 108.501 340.346 102.005 339.644 99.9997C339.528 99.6733 339.355 99.4531 339.124 99.3457C338.339 98.9821 337.547 99.6817 336.451 100.653C335.066 101.878 333.168 103.555 330.526 103.681C328.089 103.799 326.268 102.566 324.803 101.576C323.613 100.772 322.674 100.136 321.824 100.591C321.574 100.727 321.392 100.994 321.286 101.385C320.728 103.46 322.187 110.013 327.172 118.084V118.084Z" fill="white"/>
<path fill-rule="evenodd" clip-rule="evenodd" d="M331.218 142.831C328.81 142.831 326.44 142.193 324.85 140.877C323.321 139.61 322.516 136.23 320.981 131.197C319.711 127.04 320.888 126.363 321.09 126.067C321.532 125.416 322.023 125.123 322.818 125.012C323.113 124.971 323.449 124.955 323.84 124.955C324.546 124.955 325.431 125.008 326.572 125.06C327.716 125.113 329.114 125.165 330.849 125.165C330.91 125.165 330.974 125.165 331.035 125.165C335.363 125.155 337.735 124.101 339.236 124.048C339.274 124.047 339.31 124.046 339.348 124.046C339.912 124.046 340.345 124.204 340.717 124.639C342.275 126.468 340.275 139.331 337.623 141.092C335.895 142.239 333.539 142.831 331.218 142.831ZM324.029 133.599C323.908 133.599 323.792 133.675 323.744 133.797C323.686 133.954 323.767 134.129 323.924 134.188C326.713 135.231 329.278 135.554 331.384 135.554C332.494 135.554 333.475 135.465 334.295 135.344C336.883 134.961 338.447 134.208 338.511 134.176C338.662 134.103 338.723 133.921 338.649 133.77C338.598 133.662 338.489 133.599 338.377 133.599C338.332 133.599 338.287 133.609 338.245 133.63C338.229 133.637 336.684 134.38 334.183 134.746C333.394 134.862 332.449 134.947 331.384 134.947C329.342 134.947 326.851 134.633 324.135 133.619C324.1 133.605 324.065 133.599 324.029 133.599ZM331.096 130.63C330.929 130.63 330.794 130.809 330.791 130.976C330.791 131.144 330.926 131.303 331.092 131.304C331.16 131.305 331.224 131.327 331.288 131.327C337.078 131.327 339.762 129.281 339.874 129.194C340.005 129.09 340.031 128.899 339.925 128.767C339.858 128.679 339.752 128.62 339.646 128.62C339.595 128.62 339.544 128.635 339.499 128.67C339.473 128.69 336.95 130.635 331.605 130.636C331.439 130.636 331.272 130.634 331.099 130.63H331.096V130.63ZM322.753 129.432C322.622 129.432 322.5 129.519 322.462 129.653C322.417 129.815 322.51 129.983 322.673 130.028C324.619 130.576 326.514 130.956 328.303 131.156L328.338 131.158C328.492 131.158 328.624 131.043 328.64 130.888C328.659 130.721 328.537 130.57 328.371 130.552C326.614 130.355 324.751 129.982 322.837 129.443C322.808 129.436 322.782 129.432 322.753 129.432V129.432Z" fill="url(#paint6_linear)"/>
<path fill-rule="evenodd" clip-rule="evenodd" d="M349.92 291H237.753V277.151C229.918 275.355 218.363 264.269 214.5 249.201C216.087 248.101 224.068 247.23 226.145 247.23C226.978 247.23 227.786 247.335 228.559 247.53C233.816 233.847 247.071 224.135 262.597 224.135C267.117 224.135 271.444 224.962 275.442 226.467C281.065 218.66 291.432 218.363 291.432 218.363C300.722 200.051 317.263 196.256 329.381 196.256C333.301 196.256 336.76 196.654 339.357 197.085C341.2 190.762 345.428 185.458 351 182.213V290.387C350.75 290.734 350.337 291 349.92 291ZM172.42 267.036C169.448 265.846 166.207 265.195 162.813 265.195C161.979 265.195 161.155 265.24 160.341 265.317C159.179 261.174 155.381 258.137 150.872 258.137C150.039 258.137 149.23 258.242 148.457 258.437C145.095 249.685 138.458 242.556 130.05 238.556C132.545 234.002 134.301 229.142 135.313 224.154C135.72 224.141 136.129 224.134 136.539 224.134C152.064 224.134 165.32 233.847 170.576 247.53C171.349 247.335 172.158 247.23 172.991 247.23C175.208 247.23 186.856 253.762 188.5 255C186.715 261.94 174.975 262.276 172.42 267.036ZM39 191.504V179C41.4049 179.331 43.7014 179.998 45.8425 180.952C43.0895 184.229 40.8071 187.778 39 191.504Z" fill="url(#paint7_linear)"/>
<path d="M211.698 156L199.903 156.016L188.19 156C188.19 156 188.616 280.553 162 287.107V302H238V287.107C211.384 280.553 211.698 156 211.698 156Z" fill="white"/>
<path d="M167.893 260.286C167.215 260.286 166.544 260.327 165.882 260.398C164.937 256.593 161.847 253.804 158.179 253.804C157.501 253.804 156.843 253.9 156.214 254.079C151.937 241.513 141.153 232.593 128.523 232.593C124.845 232.593 121.324 233.351 118.074 234.734C113.5 227.564 105.065 227.29 105.065 227.29C92.156 198.566 62.0352 208.755 62.0352 208.755L62.0133 208.857H39V301.957H153.829C159 301.957 170.097 301.957 175.5 301.957C187.157 301.957 189 297.314 189 284.145C189 270.975 179.55 260.286 167.893 260.286Z" fill="white"/>
<path d="M230.938 260.286C231.579 260.286 232.212 260.327 232.837 260.398C233.732 256.593 236.649 253.804 240.115 253.804C240.756 253.804 241.376 253.9 241.97 254.08C246.01 241.513 256.197 232.593 268.129 232.593C271.602 232.593 274.928 233.351 278 234.734C282.322 227.564 290.289 227.29 290.289 227.29C302.484 198.566 330.936 208.755 330.936 208.755L330.956 208.857H353V301.957H244.224C236.5 301.957 236.043 301.957 230.938 301.957C219.926 301.957 211 297.314 211 284.145C211 270.975 219.926 260.286 230.938 260.286Z" fill="white"/>
<path fill-rule="evenodd" clip-rule="evenodd" d="M200.203 202.344C200.142 202.344 200.084 202.323 200.026 202.286C197.513 200.944 190.8 175.86 188.459 168.421C188.414 168.274 188.369 168.128 188.328 167.984C187.327 164.521 187.501 161.604 188.004 159.434C188.042 159.436 188.078 159.437 188.113 159.437H191.13C190.861 161.013 190.861 163.025 191.595 165.364C193.31 170.816 198.228 189.201 200.072 190.184C200.113 190.211 200.155 190.226 200.2 190.226H200.219C200.264 190.226 200.305 190.211 200.347 190.183C202.187 189.192 207.086 170.815 208.799 165.364C209.536 163.025 209.529 161.013 209.257 159.437H212.277C212.309 159.437 212.344 159.436 212.376 159.434C212.861 161.5 213.05 164.243 212.203 167.489C212.123 167.795 212.033 168.105 211.934 168.421C209.597 175.858 202.915 200.932 200.402 202.285C200.347 202.323 200.286 202.344 200.225 202.344C200.222 202.344 200.219 202.343 200.216 202.343C200.209 202.343 200.206 202.344 200.203 202.344V202.344Z" fill="url(#paint8_linear)"/>
<path fill-rule="evenodd" clip-rule="evenodd" d="M200.504 193C200.458 193 200.415 192.984 200.372 192.954C198.475 191.868 193.413 171.566 191.648 165.545C190.892 162.963 190.892 160.74 191.17 159H209.826C210.106 160.74 210.113 162.963 209.354 165.545C207.592 171.565 202.55 191.858 200.656 192.953C200.613 192.983 200.57 193 200.524 193H200.504Z" fill="url(#paint9_linear)"/>
<path fill-rule="evenodd" clip-rule="evenodd" d="M211.818 159.794H187.654C187.619 159.794 187.584 159.793 187.545 159.791C186.332 159.725 185.275 158.558 185.275 157.335V156.334C185.702 156.498 186.162 156.588 186.638 156.588H212.831C213.284 156.586 213.72 156.504 214.13 156.353V157.335C214.13 158.561 213.133 159.731 211.918 159.791C211.886 159.793 211.85 159.794 211.818 159.794V159.794Z" fill="url(#paint10_linear)"/>
<path fill-rule="evenodd" clip-rule="evenodd" d="M162.275 168.28C161.053 168.28 160.389 166.311 160.487 161.039C160.672 151.039 165.36 141.877 173.059 135.556C173.798 134.949 175.566 133.298 177.122 132.311C178.338 138.259 179.981 144.536 182.118 151.145C178.174 151.344 174.154 155.526 170.666 159.709C167.091 163.995 164.076 168.28 162.275 168.28Z" fill="url(#paint11_linear)"/>
<path fill-rule="evenodd" clip-rule="evenodd" d="M220.718 131.54C222.276 131.415 225.674 134.651 226.777 135.556C234.475 141.878 239.166 151.04 239.348 161.039C239.736 181.999 228.092 150.753 217.223 151.141C217.223 151.141 215.867 131.929 220.718 131.54Z" fill="url(#paint12_linear)"/>
<path d="M216.702 153.918C216.167 155.498 214.682 156.6 213.015 156.6H186.834C185.168 156.6 183.685 155.498 183.149 153.918C168.287 110.049 175.045 80.5611 184.034 62.997C184.733 61.6306 185.443 60.3283 186.161 59.1056C192.733 47.9036 199.671 42.6393 199.979 42.418L199.982 42.4193C200.351 42.6874 207.238 47.9494 213.756 59.0972C214.471 60.3197 215.179 61.6313 215.875 62.9974C224.842 80.5611 231.562 110.049 216.702 153.918V153.918Z" fill="white"/>
<path fill-rule="evenodd" clip-rule="evenodd" d="M199.891 99.5422C192.674 99.5422 186.826 93.6937 186.826 86.4791C186.826 79.2645 192.674 73.416 199.891 73.416C207.104 73.416 212.952 79.2645 212.952 86.4791C212.952 93.6937 207.104 99.5422 199.891 99.5422ZM189.692 88.7064C190.712 93.3991 194.889 96.9148 199.891 96.9148C205.652 96.9148 210.327 92.242 210.327 86.4791C210.327 83.0277 208.65 79.9669 206.066 78.0661C204.338 76.7945 202.202 76.043 199.891 76.043C194.126 76.043 189.452 80.7162 189.452 86.4791C189.452 87.2427 189.535 87.9894 189.692 88.7064Z" fill="url(#paint13_linear)"/>
<path d="M211 86.5002C211 92.2985 206.074 97 200.002 97C194.731 97 190.328 93.4627 189.253 88.7412C189.088 88.0198 189 87.2685 189 86.5002C189 80.7019 193.926 76 200.002 76C202.438 76 204.688 76.7561 206.509 78.0355C209.233 79.948 211 83.0276 211 86.5002V86.5002Z" fill="#D5330D"/>
<path d="M192.523 89C191.487 89 190.391 88.9385 189.246 88.8359C189.085 88.1092 189 87.3523 189 86.5783C189 80.7369 193.783 76 199.682 76C202.047 76 204.232 76.7618 206 78.0506C204.353 78.734 202.71 80.1389 202.014 82.9639C200.856 87.6708 197.339 89 192.523 89Z" fill="#E9421B"/>
<path fill-rule="evenodd" clip-rule="evenodd" d="M215.566 62.9865L183.729 62.9804C184.633 60.6512 187.457 57.0256 188.442 55C189.141 53.557 191.04 51.7917 191.758 50.5C194.776 47 195.5 46 197.5 44.2715C198.204 43.6334 199.709 42.4478 199.674 42.4228L199.671 42.4189L199.674 42.4212C199.856 42.5527 201.607 43.888 204.114 46.5317C206.714 49.2749 210.129 53.4261 213.447 59.1026C214.114 60.2457 214.778 61.5252 215.428 62.7348C215.477 62.8191 215.521 62.9031 215.566 62.9865Z" fill="url(#paint14_linear)"/>
<path fill-rule="evenodd" clip-rule="evenodd" d="M213.028 156.182H186.834C186.358 156.182 185.899 156.093 185.472 155.929C184.4 155.516 183.532 154.63 183.149 153.5C183.091 153.329 183.034 153.158 182.976 152.987C176.792 134.572 174.424 118.699 174.427 105.189C174.427 105.089 174.427 104.991 174.427 104.891C174.436 101.724 174.576 98.6878 174.827 95.7793C176.027 81.8698 179.781 70.8897 184.034 62.5795C184.037 62.5747 184.039 62.5703 184.041 62.5654H188.889C181.522 81.5687 177.604 110.792 190.845 152.068C191.38 153.737 192.862 154.9 194.529 154.9H215.875C215.852 154.924 215.83 154.949 215.807 154.972C215.092 155.586 214.102 156.177 213.028 156.182V156.182Z" fill="url(#paint15_linear)"/>
<path fill-rule="evenodd" clip-rule="evenodd" d="M183.726 62.3795C184.246 61.3702 184.772 60.3969 185.304 59.4658C184.772 60.4122 184.246 61.4183 183.726 62.3795Z" fill="url(#paint16_linear)"/>
<path fill-rule="evenodd" clip-rule="evenodd" d="M204.28 137.051C203.995 134.977 203.113 133.046 201.606 131.652C201.574 131.623 200.972 131.208 200.439 130.878C200.186 130.723 199.872 130.721 199.606 130.878C199.074 131.208 198.471 131.623 198.442 131.652C196.932 133.045 196.05 134.975 195.768 137.048C194.979 142.804 195.432 148.656 196.089 154.399C196.611 158.963 196.826 164.007 198.147 168.413C198.359 169.127 198.984 170.915 199.795 171.176C199.878 171.2 199.952 171.2 200.026 171.172C200.096 171.2 200.173 171.2 200.25 171.176C201.061 170.915 201.687 169.127 201.901 168.413C203.536 162.951 203.867 157.155 204.11 151.471C204.312 146.759 204.921 141.741 204.28 137.051V137.051Z" fill="url(#paint17_linear)"/>
<path fill-rule="evenodd" clip-rule="evenodd" d="M39.0031 239.304C32.5214 225.499 32.5756 209.465 39.0031 195.756V239.304Z" fill="url(#paint18_linear)"/>
<path fill-rule="evenodd" clip-rule="evenodd" d="M36.3008 237C36.1986 236.793 36.0992 236.589 36 236.382V192.617C36.0992 192.41 36.199 192.204 36.3008 191.998V237ZM123.046 227.112C117.287 219.271 106.668 218.971 106.668 218.971C97.1517 200.577 80.2069 196.765 67.7964 196.765C63.8512 196.765 60.3653 197.15 57.7206 197.575C55.5628 190.338 50.2336 184.429 43.3092 181.401C44.6826 179.798 46.1706 178.26 47.7728 176.797C57.8808 167.568 70.712 163 83.5096 163C97.5762 163 111.602 168.515 121.941 179.418C133.934 192.067 138.201 209.058 134.945 224.791C130.769 224.927 126.766 225.738 123.046 227.112Z" fill="url(#paint19_linear)"/>
<path fill-rule="evenodd" clip-rule="evenodd" d="M129.754 240C125.033 237.691 119.751 236.4 114.175 236.4C109.668 236.4 105.354 237.246 101.372 238.788C95.768 230.792 85.4332 230.486 85.4332 230.486C76.1816 211.747 59.7128 207.858 47.6368 207.858C44.356 207.858 41.3997 208.145 39 208.499V191.807C40.8012 187.991 43.0762 184.356 45.8203 181C52.5591 184.089 57.7455 190.114 59.8454 197.494C62.4192 197.061 65.8116 196.669 69.6511 196.669C81.7289 196.669 98.2194 200.556 107.481 219.314C107.481 219.314 117.815 219.62 123.42 227.617C127.04 226.215 130.935 225.388 135 225.25C133.991 230.358 132.241 235.336 129.754 240V240Z" fill="url(#paint20_linear)"/>
<path d="M85.0903 265C71.3636 265 57.6764 259.51 47.5881 248.656C44.0311 244.829 41.1697 240.601 39 236.132V207.626C41.4062 207.28 44.3705 207 47.6603 207C59.7689 207 76.2824 210.797 85.5591 229.09C85.5591 229.09 95.9219 229.388 101.541 237.194C105.534 235.689 109.86 234.863 114.378 234.863C119.97 234.863 125.266 236.124 130 238.377C127.434 243.064 124.086 247.425 119.964 251.265C110.1 260.453 97.5786 265 85.0903 265Z" fill="white"/>
<path fill-rule="evenodd" clip-rule="evenodd" d="M44.3941 245.451L50.9849 252.534L7.43053 293.061L0.839844 285.979L44.3941 245.451V245.451Z" fill="url(#paint21_linear)"/>
<path fill-rule="evenodd" clip-rule="evenodd" d="M51.7318 178.4C42.2146 187.256 36.7159 199.287 36.2482 212.279C35.7804 225.27 40.3994 237.666 49.2548 247.183C67.5348 266.829 98.3902 267.939 118.036 249.66C127.553 240.804 133.052 228.772 133.52 215.781C133.988 202.79 129.368 190.394 120.513 180.877C111.658 171.361 99.6265 165.861 86.6356 165.394C73.644 164.926 61.2484 169.545 51.7318 178.4V178.4ZM45.482 250.693C35.689 240.168 30.5808 226.46 31.0983 212.093C31.6151 197.726 37.6964 184.421 48.2212 174.628C58.7457 164.835 72.4539 159.727 86.8209 160.244C101.188 160.761 114.493 166.842 124.286 177.367C134.079 187.892 139.187 201.6 138.67 215.967C138.153 230.334 132.072 243.639 121.547 253.432C111.022 263.225 97.314 268.333 82.9473 267.817C68.5803 267.297 55.2749 261.218 45.482 250.693Z" fill="url(#paint22_linear)"/>
<defs>
<linearGradient id="paint0_linear" x1="196" y1="102" x2="196" y2="291" gradientUnits="userSpaceOnUse">
<stop stop-color="#0A2239"/>
<stop offset="1" stop-color="#15416A"/>
</linearGradient>
<linearGradient id="paint1_linear" x1="156.279" y1="384.384" x2="162.86" y2="416.333" gradientUnits="userSpaceOnUse">
<stop stop-color="#FF6256"/>
<stop offset="1" stop-color="#D100B8"/>
</linearGradient>
<linearGradient id="paint2_linear" x1="200.674" y1="300.834" x2="201.585" y2="430.177" gradientUnits="userSpaceOnUse">
<stop stop-color="#28AFBC"/>
<stop offset="1" stop-color="#2BC8D7"/>
</linearGradient>
<linearGradient id="paint3_linear" x1="195.345" y1="253.341" x2="201.483" y2="429.05" gradientUnits="userSpaceOnUse">
<stop stop-color="#2BC8D7"/>
<stop offset="1" stop-color="#2DC9D8"/>
</linearGradient>
<linearGradient id="paint4_linear" x1="194.724" y1="390.677" x2="178.23" y2="778.309" gradientUnits="userSpaceOnUse">
<stop stop-color="#2BC8D7"/>
<stop offset="1" stop-color="#0FA3B1"/>
</linearGradient>
<radialGradient id="paint5_radial" cx="0" cy="0" r="1" gradientUnits="userSpaceOnUse" gradientTransform="translate(337.5 92) rotate(121.43) scale(21.095)">
<stop stop-color="#E76344"/>
<stop offset="1" stop-color="#EC390F"/>
</radialGradient>
<linearGradient id="paint6_linear" x1="334.311" y1="157.64" x2="326.713" y2="223.236" gradientUnits="userSpaceOnUse">
<stop stop-color="#2BC8D7"/>
<stop offset="1" stop-color="#0FA3B1"/>
</linearGradient>
<linearGradient id="paint7_linear" x1="194.854" y1="367.453" x2="194.854" y2="14.1082" gradientUnits="userSpaceOnUse">
<stop stop-color="#0C7489"/>
<stop offset="1" stop-color="#0FA3B1"/>
</linearGradient>
<linearGradient id="paint8_linear" x1="187.6" y1="178.764" x2="212.789" y2="178.764" gradientUnits="userSpaceOnUse">
<stop stop-color="#D5330D"/>
<stop offset="1" stop-color="#F03F16"/>
</linearGradient>
<linearGradient id="paint9_linear" x1="187.537" y1="180.342" x2="213.461" y2="180.342" gradientUnits="userSpaceOnUse">
<stop stop-color="#EC3B12"/>
<stop offset="1" stop-color="#F48368"/>
</linearGradient>
<linearGradient id="paint10_linear" x1="214.13" y1="156.107" x2="185.275" y2="156.107" gradientUnits="userSpaceOnUse">
<stop stop-color="#0C8F9B"/>
<stop offset="1" stop-color="#2BC8D7"/>
</linearGradient>
<linearGradient id="paint11_linear" x1="160.478" y1="149.908" x2="182.787" y2="149.908" gradientUnits="userSpaceOnUse">
<stop stop-color="#0FA3B1"/>
<stop offset="1" stop-color="#0C7489"/>
</linearGradient>
<linearGradient id="paint12_linear" x1="239.358" y1="149.909" x2="217.049" y2="149.909" gradientUnits="userSpaceOnUse">
<stop stop-color="#0FA3B1"/>
<stop offset="1" stop-color="#0C7489"/>
</linearGradient>
<linearGradient id="paint13_linear" x1="186.826" y1="86.4791" x2="212.952" y2="86.4791" gradientUnits="userSpaceOnUse">
<stop stop-color="#0C7489"/>
<stop offset="1" stop-color="#0B697C"/>
</linearGradient>
<linearGradient id="paint14_linear" x1="183.726" y1="52.7036" x2="215.566" y2="52.7036" gradientUnits="userSpaceOnUse">
<stop stop-color="#D5330D"/>
<stop offset="1" stop-color="#C2300E"/>
</linearGradient>
<linearGradient id="paint15_linear" x1="174.427" y1="99.0904" x2="215.892" y2="99.0904" gradientUnits="userSpaceOnUse">
<stop stop-color="#B3EFF4"/>
<stop offset="1" stop-color="#F0E6FD"/>
</linearGradient>
<linearGradient id="paint16_linear" x1="173.988" y1="99.1463" x2="215.451" y2="99.1463" gradientUnits="userSpaceOnUse">
<stop stop-color="#F9F2FF"/>
<stop offset="1" stop-color="#F0E6FD"/>
</linearGradient>
<linearGradient id="paint17_linear" x1="195.348" y1="150.978" x2="204.564" y2="150.978" gradientUnits="userSpaceOnUse">
<stop stop-color="#0FA3B1"/>
<stop offset="1" stop-color="#0C7489"/>
</linearGradient>
<linearGradient id="paint18_linear" x1="194.724" y1="394.307" x2="178.229" y2="781.939" gradientUnits="userSpaceOnUse">
<stop stop-color="#2BC8D7"/>
<stop offset="1" stop-color="#DA33C6"/>
</linearGradient>
<linearGradient id="paint19_linear" x1="195.928" y1="368.714" x2="195.928" y2="13.8286" gradientUnits="userSpaceOnUse">
<stop stop-color="#244A6E"/>
<stop offset="1" stop-color="#214261"/>
</linearGradient>
<linearGradient id="paint20_linear" x1="194.348" y1="372.023" x2="194.348" y2="10.1107" gradientUnits="userSpaceOnUse">
<stop stop-color="#497688"/>
<stop offset="1" stop-color="#0B6274"/>
</linearGradient>
<linearGradient id="paint21_linear" x1="64.126" y1="234.538" x2="35.7737" y2="208.78" gradientUnits="userSpaceOnUse">
<stop stop-color="#0A2239"/>
<stop offset="1" stop-color="#244A6E"/>
</linearGradient>
<linearGradient id="paint22_linear" x1="129.287" y1="132.198" x2="46.3479" y2="-20.6523" gradientUnits="userSpaceOnUse">
<stop stop-color="#0A2239"/>
<stop offset="1" stop-color="#244A6E"/>
</linearGradient>
</defs>
</svg>
