<svg width="358" height="385" viewBox="0 0 358 385" fill="none" xmlns="http://www.w3.org/2000/svg">
<rect x="38.1602" y="102" width="314" height="189" fill="url(#paint0_linear)"/>
<rect x="35" y="56" width="44" height="33" fill="#0FA3B1"/>
<path fill-rule="evenodd" clip-rule="evenodd" d="M158.307 370.066C158.901 369.322 159.472 368.607 159.956 367.893C160.63 369.486 161.021 371.063 161.227 372.564C160.74 373.449 160.073 374.443 159.07 375.215C157.773 376.215 156.254 376.581 154.881 376.671C154.584 375.706 154.406 374.904 154.213 374.055C155.798 373.195 157.793 370.707 158.307 370.066Z" fill="url(#paint1_linear)"/>
<path fill-rule="evenodd" clip-rule="evenodd" d="M232.914 375.74H167.812L173.028 311.097H226.951L232.645 372.826L232.914 375.74Z" fill="url(#paint2_linear)"/>
<path fill-rule="evenodd" clip-rule="evenodd" d="M241.503 365.343H155.64C151.821 365.407 146.16 370 146.16 375.5C147.16 381.5 149.795 384.525 155.64 384.525H241.933C247.335 384.525 251.449 379.674 250.561 374.342L250.278 372.65C249.567 368.376 245.835 365.269 241.503 365.343Z" fill="url(#paint3_linear)"/>
<path fill-rule="evenodd" clip-rule="evenodd" d="M357.92 312L30.1611 311.499C30.1611 311.499 30.1869 308.085 30.1869 303.59V140.68H38.1645V192.125C31.737 205.834 31.6828 221.868 38.1645 235.673V290.695C38.1645 291.349 38.6961 291.882 39.3517 291.882H349.305C349.962 291.882 350.494 291.349 350.494 290.695V290.333C350.639 290.128 350.728 289.897 350.728 289.669V182.088C350.805 182.042 350.648 182.133 350.728 182.088L350.494 173.371H357.92V308.819C357.92 310.425 357.92 310 357.92 312ZM357.92 173.371C357.676 173.337 355.927 173.422 355.661 173.371C352.161 173.371 353.275 173.371 350.494 173.371L350.494 106.187C350.494 105.531 349.962 105 349.305 105H224.621C224.614 101.832 224.476 98.7963 224.229 95.8878H354.973C356.582 95.8878 356.161 95.8875 357.919 95.8878V169.444L357.92 173.371ZM30.1869 140.68L30.1862 103.745C30.1862 99.2483 30.1862 95.8878 30.1862 95.8878H174.008C173.757 98.7973 173.618 101.831 173.609 105H39.3512C38.6957 105 38.164 105.531 38.164 106.187L38.1645 140.68C35.5939 140.708 33.6611 140.68 30.1869 140.68Z" fill="url(#paint4_linear)"/>
<path d="M83.428 96.0431C84.7599 96.0869 86.0208 96.0932 87.217 96.066C101.314 95.7343 106.225 90.7591 106.225 90.7591C110.375 81.7341 98.327 79.2324 98.327 79.2324L98.325 79.2345C98.2362 79.3879 93.3523 87.572 86.7281 93.4423C85.6688 94.3833 84.5646 95.2648 83.428 96.0431Z" fill="#244A6E"/>
<path d="M85.7183 96.0815C86.0787 96.0815 86.4339 96.0784 86.7839 96.0732V96.0742C86.9291 96.0721 87.0743 96.069 87.2174 96.0659C101.314 95.7341 106.225 90.7589 106.225 90.7589C106.275 90.6494 106.32 90.542 106.366 90.4355C103.76 91.9305 98.4946 94.0608 89.4373 94.2746C88.9693 94.2851 88.4919 94.2903 88.0041 94.2903C87.2864 94.2903 86.5457 94.2788 85.7831 94.2559C85.0445 94.8703 84.2861 95.4514 83.513 95.9856C83.5068 95.9897 83.5005 95.9939 83.4942 95.9981C83.489 96.0022 83.4827 96.0064 83.4765 96.0106C83.4754 96.0106 83.4744 96.0116 83.4733 96.0127C83.4587 96.0231 83.443 96.0335 83.4284 96.0429C84.2171 96.069 84.9797 96.0815 85.7183 96.0815Z" fill="#0A2239"/>
<path d="M32.1361 85.2434C32.7316 83.1642 33.0335 81.5733 33.0335 81.5733L35.8008 69.3769C30.8334 62.0606 38.4062 60.597 38.4062 60.597C39.1385 49.9456 46.9547 44.0106 46.9547 44.0106C46.9547 44.0106 45.325 39.7834 51.1052 34.7425C52.972 33.1151 54.9224 32.3003 56.8613 32.0844C55.5795 29.6714 54.6059 27.0455 54.1337 24.3394C52.9187 23.799 51.2306 22.7683 49.1245 20.8133C44.4569 16.4767 40.3326 14.4173 33.2758 28.5082C26.2201 42.6012 22.639 56.1528 20.9017 66.0166C19.2428 75.4349 19.3661 82.2858 32.1361 85.2434Z" fill="#D5330D"/>
<path d="M32.1361 85.2431C32.7316 83.1639 33.0335 81.573 33.0335 81.573L35.8008 69.3766C34.5733 67.5686 34.1116 66.1186 34.1116 64.9595C34.1126 61.4261 38.4062 60.5967 38.4062 60.5967C39.1385 49.9453 46.9547 44.0103 46.9547 44.0103C46.9547 44.0103 46.7416 43.4585 46.7427 42.5154C46.7437 40.8493 47.4133 37.9617 51.1052 34.7423C52.972 33.1148 54.9224 32.3 56.8613 32.0841C55.5795 29.6711 54.6059 27.0453 54.1337 24.3391C53.533 24.0721 52.8185 23.6861 51.9942 23.1279C52.5239 24.987 53.2666 26.7876 54.1671 28.4818C52.2282 28.6988 50.2778 29.5125 48.411 31.14C42.6308 36.1809 44.2605 40.4081 44.2605 40.4081C44.2605 40.4081 36.4443 46.343 35.712 56.9955C35.712 56.9955 28.1392 58.4581 33.1066 65.7743L30.3393 77.9707C30.3393 77.9707 30.0373 79.5627 29.4419 81.6408C25.61 80.753 22.919 79.5147 21.071 77.9634C22.451 81.2214 25.6048 83.6824 31.8718 85.1805C31.8728 85.1805 31.8728 85.1805 31.8739 85.1816C31.9094 85.1899 31.9439 85.1983 31.9794 85.2066C31.9815 85.2066 31.9836 85.2076 31.9857 85.2076C31.993 85.2097 31.9982 85.2108 32.0055 85.2118C32.0118 85.2139 32.018 85.2149 32.0243 85.217C32.0609 85.2254 32.0985 85.2337 32.1361 85.2431Z" fill="#AE2B0C"/>
<path d="M75.9881 59.209L84.7393 56.651C81.6052 55.9322 78.4347 54.5813 75.403 52.9277L75.9881 59.209Z" fill="#0FA3B1"/>
<path d="M70.9979 49.874V63.6509L71.1964 62.857H71.1985L71.8033 60.4325L73.8927 59.8212L75.9883 59.2088L75.0293 48.91C74.3649 48.5146 73.7099 48.1078 73.0643 47.6936C72.6004 47.3952 72.1408 47.0938 71.6895 46.7881C71.5829 47.6049 71.4147 48.3905 71.2162 49.1322C71.1483 49.3878 71.0752 49.6351 70.9979 49.874Z" fill="#0FA3B1"/>
<path d="M73.8941 75.0432C77.4272 74.2848 81.2371 73.7924 84.8955 73.9186L90.3477 59.8652L83.6848 61.3383L83.6806 61.3404L79.6878 62.224H79.6837L76.7534 62.8718L73.8941 75.0432Z" fill="#2BC8D7"/>
<path d="M67.7406 76.6726C69.0015 76.2773 70.3564 75.8892 71.7751 75.5355C72.4667 75.3613 73.1739 75.1965 73.8937 75.0431L76.7529 62.8717L76.2181 62.6078H76.216L74.2165 61.6209L73.8937 61.4633L71.8022 60.4326L71.1963 62.8571H71.1953L70.9968 63.651L67.7406 76.6726Z" fill="#0B6B7E"/>
<path d="M83.574 57L86.8297 55.9326C86.8297 55.9326 86.8961 56.0038 87.013 56.1299C87.1226 54.9865 87.1602 53.8819 87.1602 52.8728V52.7757C81.4454 51.6129 75.5863 48.621 70.1602 45L70.6768 51.228C74.8647 53.7914 79.2446 55.8857 83.574 57Z" fill="#0E6779"/>
<path d="M52.7749 80.5858C52.8198 80.5827 52.8658 80.5795 52.9128 80.5764C53.5939 80.5305 54.4777 80.4366 55.5516 80.2582C55.7585 78.7716 55.8212 77.2391 55.6415 75.7473C55.6415 75.7473 62.7191 71.8445 67.3543 57.2925C67.9498 57.5887 68.5066 57.7285 69.0247 57.7285C69.3131 57.7285 69.5889 57.6847 69.8521 57.6023C70.2648 57.4698 72.3102 52.3171 72.6602 52L70.9971 49.874C70.3358 51.9146 69.335 53.3313 68.0198 53.7517C68.0135 53.7538 68.0083 53.7549 68.002 53.7569C67.9968 53.759 67.9916 53.7601 67.9853 53.7622C67.7346 53.8373 67.4724 53.8769 67.1997 53.878H67.1809C66.7077 53.8759 66.201 53.758 65.663 53.5097C65.6306 53.4951 65.5982 53.4794 65.5658 53.4627C65.5512 53.4565 65.5366 53.4492 65.522 53.4419C60.8972 67.9606 53.8415 71.879 53.8091 71.8967C53.8812 72.4986 53.9146 73.1068 53.9146 73.7161C53.9157 76.1061 53.4101 78.5108 52.7749 80.5858Z" fill="#0E6779"/>
<path d="M51.4779 93.4423C52.4432 94.2216 53.5568 95.0249 54.5242 96.0431C54.8804 96.4176 55.1238 96.7524 55.2669 97.0498H55.269C71.6484 99.1206 81.9049 96.4739 83.2714 96.0869H83.2745C83.3758 96.0597 83.4281 96.0431 83.4281 96.0431C84.5647 95.2648 85.6689 94.3833 86.7282 93.4423C93.3524 87.572 98.2363 79.3878 98.3251 79.2345L98.3271 79.2324C94.979 75.5289 90.091 74.0976 84.8948 73.9181C81.2374 73.7919 77.4264 74.2843 73.8934 75.0428C73.1736 75.1972 72.4653 75.3609 71.7748 75.5352C70.3561 75.8888 69.0012 76.2769 67.7403 76.6723C66.4877 77.0645 65.3281 77.4641 64.2939 77.8459C58.6443 79.9324 54.7738 80.4644 52.7743 80.5855C52.3972 81.8238 51.9731 82.9452 51.5845 83.8748C51.1843 84.8283 50.8229 85.5825 50.5847 86.0541C50.5168 86.2335 50.4228 86.414 50.3016 86.5945C50.2964 86.607 50.2922 86.6133 50.2922 86.6133C47.9448 90.131 49.3593 91.7314 51.4779 93.4423Z" fill="#0E9EAC"/>
<path d="M67.3651 97.8331H67.3714C76.5728 97.832 82.2119 96.3861 83.2545 96.093C83.2608 96.0909 83.267 96.0888 83.2733 96.0867H83.2764C83.3778 96.0596 83.43 96.0429 83.43 96.0429C83.4446 96.0335 83.4603 96.0231 83.4749 96.0126C83.476 96.0116 83.477 96.0106 83.4781 96.0106C84.4883 95.3147 85.4713 94.5365 86.4209 93.7102C84.5833 94.1724 79.2263 95.3095 71.0643 95.3095C67.5375 95.3095 63.4852 95.0967 58.9691 94.526H58.967C58.8239 94.2287 58.5794 93.8938 58.2242 93.5204C57.2569 92.5011 56.1432 91.6978 55.178 90.9185C53.0594 89.2076 51.6439 87.6084 53.9912 84.0895C53.9912 84.0895 53.9954 84.0833 54.0017 84.0707C54.1229 83.8903 54.2169 83.7098 54.2848 83.5304C54.5219 83.0588 54.8844 82.3046 55.2835 81.351C55.4297 81.0026 55.5802 80.627 55.7316 80.2285C54.6358 80.4173 53.7342 80.5164 53.0322 80.5676C53.0291 80.5676 53.0259 80.5686 53.0239 80.5686H53.0155C52.933 80.5749 52.8536 80.5801 52.7763 80.5853C52.3992 81.8236 51.975 82.9451 51.5864 83.8746C51.1978 84.801 50.8457 85.5386 50.6075 86.0122C50.6013 86.0268 50.594 86.0404 50.5866 86.0539C50.5187 86.2334 50.4247 86.4138 50.3035 86.5943C50.2983 86.6068 50.2941 86.6131 50.2941 86.6131C49.4323 87.9046 49.0771 88.9385 49.0781 89.8127C49.0802 91.3212 50.1395 92.3592 51.4798 93.4421C52.4451 94.2214 53.5587 95.0247 54.5261 96.0429C54.8823 96.4174 55.1257 96.7523 55.2689 97.0496H55.2709C55.4078 97.0663 55.5446 97.084 55.6805 97.1007C60.0284 97.6328 63.9396 97.8331 67.3578 97.8331H67.3651Z" fill="#0C7489"/>
<path d="M71.8027 60.4331L73.8941 61.4639L74.2169 61.6214L76.2164 62.6083H76.2185L76.7534 62.8722L79.6837 62.2244H79.6878L83.6806 61.3408L83.6848 61.3387L90.3477 59.8656C89.9946 58.8036 87.7945 56.6368 87.2283 56.0923V56.0902C87.1437 56.0088 87.0956 55.9629 87.0956 55.9629L75.9876 59.2094L73.892 59.8218L71.8027 60.4331Z" fill="#0E98A5"/>
<path fill-rule="evenodd" clip-rule="evenodd" d="M97.1066 7.80381C97.1066 7.80381 80.1725 -7.04766 63.4547 4.22552C54.9688 9.9487 52.916 17.4068 54.1341 24.3391C54.6063 27.0452 55.5799 29.671 56.8618 32.084C57.2201 32.0444 57.5774 32.0235 57.9357 32.0235C61.6234 32.0173 65.194 34.0516 67.9593 36.6117C70.0737 38.5698 71.1351 40.6542 71.5655 42.6948C71.7358 43.5137 71.8068 44.3274 71.8026 45.1213C71.8005 45.4729 71.7838 45.8193 71.7546 46.1604C71.7358 46.3722 71.7149 46.5808 71.6888 46.7884C72.1401 47.0941 72.5997 47.3956 73.0635 47.6939C73.7091 48.1081 74.3642 48.515 75.0286 48.9104C78.9565 51.2462 83.1979 53.1761 87.3348 53.9262C91.2053 54.6283 94.9859 54.2945 98.3278 52.2831C77.3237 45.0243 68.9266 33.2806 65.8302 27.1026C64.8503 27.7431 63.8266 27.8819 62.9114 27.425C60.9569 26.4485 60.7949 21.1363 63.2917 18.0473C65.7895 14.9594 68.5568 16.4763 68.5568 16.4763C68.8316 16.6734 69.0833 17.0083 69.2724 17.4652C69.3059 17.5434 69.3372 17.627 69.3644 17.7124C74.8551 17.0021 88.9206 16.2488 107.604 23.1008C105.996 17.4381 102.59 12.0268 97.1066 7.80381ZM68.7725 19.0265C69.0305 18.9859 69.2886 18.9462 69.5466 18.9066L68.7327 18.8084L68.7725 19.0265Z" fill="#0FA3B1"/>
<path fill-rule="evenodd" clip-rule="evenodd" d="M107.585 23.0319C107.592 23.0548 107.598 23.0778 107.604 23.1007C94.7206 18.3759 84.0315 17.267 76.8369 17.267C73.5984 17.267 71.0693 17.4913 69.3644 17.7124C69.3372 17.627 69.3059 17.5434 69.2724 17.4652C69.0834 17.0082 68.8316 16.6734 68.5568 16.4763C68.5568 16.4763 67.8768 16.1027 66.8875 16.1027C66.831 16.1027 66.7735 16.1047 66.7151 16.1068L66.712 16.1069C67.7493 15.1659 68.7856 14.9082 69.6078 14.9082C70.5971 14.9082 71.2772 15.2807 71.2772 15.2807C71.5519 15.4778 71.8037 15.8127 71.9928 16.2697C72.0262 16.349 72.0575 16.4324 72.0847 16.5179C73.7885 16.2969 76.3187 16.0725 79.5562 16.0725C86.0843 16.0725 95.4884 16.9853 106.8 20.6835C107.066 21.3825 107.306 22.0867 107.517 22.7961V22.7971L107.536 22.8608C107.538 22.8691 107.54 22.8764 107.542 22.8837L107.542 22.8837L107.554 22.9275C107.556 22.9328 107.558 22.9382 107.56 22.9437C107.561 22.9492 107.563 22.9547 107.565 22.9599C107.568 22.9714 107.571 22.9828 107.574 22.9954C107.575 23.0001 107.577 23.005 107.578 23.01C107.581 23.0171 107.583 23.0245 107.585 23.0319ZM72.2678 17.7167L71.4539 17.6176L71.4936 17.8267C71.7301 17.7995 71.9667 17.763 72.2032 17.7266C72.2247 17.7233 72.2463 17.72 72.2678 17.7167Z" fill="#0C7489"/>
<path d="M90.8795 54.26C93.417 54.26 95.8657 53.7039 98.1201 52.3999C96.6607 52.8579 95.1439 53.0644 93.5946 53.0644C92.4298 53.0644 91.2472 52.9476 90.0553 52.7316C85.9184 51.9816 81.6781 50.0505 77.7491 47.7147C77.0847 47.3204 76.4296 46.9125 75.784 46.4994C75.3202 46.2 74.8606 45.8985 74.4093 45.5938C74.4364 45.3852 74.4563 45.1776 74.4751 44.9658C74.5043 44.6247 74.521 44.2783 74.5231 43.9268C74.5273 43.1329 74.4563 42.3181 74.286 41.4991C73.8556 39.4586 72.7942 37.3742 70.6798 35.4171C67.9187 32.8612 64.3543 30.829 60.6729 30.829H60.6562C60.2989 30.829 59.9406 30.8498 59.5823 30.8895C58.3005 28.4765 57.3268 25.8496 56.8546 23.1445C55.6376 16.2122 57.6893 8.75412 66.1752 3.03094C67.0872 2.41543 68.0002 1.88234 68.9112 1.41602C67.2178 2.0357 65.5076 2.88176 63.7975 3.99802C63.7965 3.99802 63.7965 3.99802 63.7954 3.99906C63.7829 4.00741 63.7693 4.01575 63.7568 4.02514C63.7536 4.02723 63.7526 4.02723 63.7495 4.02932C63.7369 4.03766 63.7244 4.04601 63.7118 4.05435C63.7098 4.0554 63.7077 4.05748 63.7056 4.05853C63.6836 4.07313 63.6617 4.08774 63.6398 4.10234C63.6335 4.10547 63.6293 4.1086 63.623 4.11278C63.6147 4.11799 63.6063 4.12425 63.598 4.12947C63.5896 4.13468 63.5823 4.1399 63.5739 4.14512C63.5656 4.15033 63.5583 4.15659 63.5499 4.16181C63.5405 4.16807 63.5322 4.17328 63.5228 4.17954C63.5165 4.18372 63.5092 4.18893 63.5019 4.1931C63.4862 4.20458 63.4705 4.21501 63.4549 4.22544C56.4274 8.96486 53.8115 14.8946 53.8126 20.7294C53.8126 21.9406 53.9243 23.1476 54.1343 24.339C54.6065 27.0451 55.5801 29.671 56.8619 32.084C57.2203 32.0443 57.5775 32.0235 57.9359 32.0235H57.9683C61.5828 32.0287 65.0835 33.992 67.8216 36.4854C67.8289 36.4916 67.8362 36.4989 67.8435 36.5052C67.854 36.5146 67.8644 36.524 67.8748 36.5334C67.9031 36.5594 67.9313 36.5855 67.9595 36.6116C67.9668 36.6189 67.9741 36.6262 67.9814 36.6325C67.9877 36.6387 67.995 36.645 68.0013 36.6502C68.0023 36.6512 68.0033 36.6523 68.0033 36.6533C68.0107 36.6596 68.018 36.6669 68.0253 36.6731C70.0958 38.6125 71.1394 40.675 71.5657 42.6947C71.7307 43.4875 71.8028 44.2773 71.8028 45.0472V45.1213C71.8007 45.4728 71.784 45.8192 71.7548 46.1603C71.7359 46.3721 71.7151 46.5807 71.6889 46.7883C72.1402 47.094 72.5999 47.3955 73.0637 47.6939C73.7093 48.108 74.3643 48.5149 75.0287 48.9103C78.9567 51.2461 83.1981 53.1761 87.335 53.9261C88.529 54.1431 89.7137 54.26 90.8795 54.26Z" fill="#0C7489"/>
<path d="M38.406 60.5964C38.406 60.5964 44.0807 61.4028 49.8671 67.1239C50.4082 67.658 50.9494 68.236 51.4884 68.8588C52.086 69.5505 52.6762 70.2985 53.2571 71.109C53.4441 71.3657 53.6279 71.6286 53.8086 71.8967C53.8086 71.8967 60.8852 67.995 65.5215 53.4419C65.5215 53.4419 65.019 51.0205 63.568 48.4166C62.2276 46.0088 60.0788 43.4446 56.7692 42.5057C54.2328 41.7817 51.0142 42.0164 46.9546 44.01C46.9546 44.01 39.1384 49.945 38.406 60.5964Z" fill="#0FA3B1"/>
<path d="M40.3806 61.1115C41.6175 51.2706 48.7996 45.8103 48.7996 45.8103C51.5136 44.4781 53.8516 43.9315 55.8615 43.9315C56.8582 43.9315 57.7743 44.0661 58.6153 44.306C59.8825 44.6659 60.9783 45.2647 61.9248 46.0013C60.713 44.5449 59.1355 43.2649 57.1016 42.6055H57.1005C57.0859 42.6003 57.0713 42.5951 57.0556 42.5909C57.0535 42.5899 57.0514 42.5899 57.0493 42.5888C57.0431 42.5868 57.0358 42.5847 57.0284 42.5826C57.0253 42.5805 57.0211 42.5794 57.0169 42.5784C57.0075 42.5753 56.9981 42.5721 56.9877 42.569C56.9825 42.568 56.9773 42.5659 56.971 42.5648C56.9658 42.5628 56.9605 42.5607 56.9553 42.5596C56.948 42.5575 56.9407 42.5544 56.9323 42.5523C56.9282 42.5513 56.924 42.5502 56.9187 42.5482C56.9104 42.5461 56.901 42.5429 56.8926 42.5409C56.8885 42.5388 56.8843 42.5377 56.8801 42.5367C56.8707 42.5335 56.8613 42.5315 56.8519 42.5283C56.8498 42.5273 56.8477 42.5273 56.8467 42.5273C56.8362 42.5242 56.8247 42.52 56.8143 42.5179C56.8111 42.5169 56.808 42.5158 56.8049 42.5148C56.7934 42.5116 56.7819 42.5085 56.7704 42.5054C56.7328 42.4939 56.6941 42.4835 56.6555 42.473C55.8469 42.254 54.9704 42.1309 54.0208 42.1309H53.9926C52.1603 42.135 50.0553 42.593 47.641 43.6853V43.6863C47.4154 43.7896 47.1866 43.896 46.9557 44.0097C46.9557 44.0097 39.1395 49.9447 38.4072 60.5961C38.4072 60.5961 39.1531 60.7025 40.3806 61.1104" fill="#0C7489"/>
<path d="M92.6278 133.363C100.037 136.29 108.993 136.616 114.099 136.698C119.205 136.778 120.959 136.698 121.124 133.445C121.286 130.193 121.043 126.209 117.298 123.851C113.552 121.492 107.039 118.891 107.039 118.891C100.526 124.501 87.907 125.721 87.907 125.721C87.417 128.484 85.2201 130.436 92.6278 133.363Z" fill="#244A6E"/>
<path d="M115.78 136.714C115.914 136.714 116.044 136.713 116.172 136.712H116.204C116.607 136.709 116.978 136.699 117.324 136.681C112.112 136.571 103.739 136.127 96.7442 133.363C89.3365 130.436 91.5334 128.484 92.0223 125.721C92.0223 125.721 102.926 124.666 109.693 120.011C108.172 119.344 107.085 118.909 107.04 118.891H107.039C100.526 124.501 87.9074 125.721 87.9074 125.721C87.7078 126.849 87.2231 127.842 87.2242 128.821C87.2242 130.24 88.2448 131.632 92.6282 133.363C100.037 136.29 108.993 136.616 114.099 136.698C114.706 136.707 115.265 136.714 115.78 136.714Z" fill="#0A2239"/>
<path d="M30.5092 105.069C37.1042 108.321 38.9772 107.833 40.1964 104.257C41.4176 100.678 43.86 96.4515 48.0116 97.9955C51.6867 99.3632 56.3794 99.3298 55.2699 97.0503H55.2678C55.1247 96.753 54.8813 96.4181 54.5251 96.0436C53.5577 95.0254 52.4441 94.2221 51.4788 93.4428C49.3602 91.7319 47.9457 90.1316 50.2931 86.6138C49.4187 85.7406 48.536 84.9958 47.6585 84.3594C45.6893 82.9375 43.7441 82.0737 41.942 81.5687C36.9193 80.1614 33.0341 81.5729 33.0341 81.5729C33.0341 81.5729 32.7322 83.1638 32.1368 85.243C31.4588 87.6195 30.3953 90.6344 28.961 92.6301C28.7719 92.8941 28.5849 93.1643 28.4042 93.4428C25.9878 97.1244 24.379 102.045 30.5092 105.069Z" fill="#244A6E"/>
<path d="M52.7888 98.9146C54.5783 98.9146 55.7943 98.3888 55.3336 97.2027C53.9265 97.1922 52.1808 96.8657 50.6169 96.2836C50.0131 96.0593 49.4448 95.957 48.912 95.957C47.4829 95.957 46.3025 96.6936 45.3424 97.7837C45.6495 97.7086 45.9703 97.6679 46.3056 97.6679C46.8049 97.6679 47.3356 97.7587 47.8977 97.9548C47.9353 97.9673 47.9729 97.9809 48.0105 97.9955C49.5973 98.586 51.3722 98.9146 52.7888 98.9146Z" fill="#0A2239"/>
<path d="M36.937 107.246C38.2386 107.246 39.0493 106.66 39.6562 105.533C39.6186 105.534 39.5821 105.534 39.5434 105.534C38.1164 105.534 36.1002 104.83 33.1156 103.358C26.9855 100.335 28.5942 95.4137 31.0095 91.7311C31.1902 91.4526 31.3783 91.1824 31.5674 90.9184C33.0007 88.9238 34.0641 85.9088 34.7432 83.5313C35.0179 82.5694 35.23 81.715 35.3783 81.0703C33.9503 81.2497 33.0769 81.5575 33.0351 81.5721H33.0341V81.5732C33.0341 81.5732 32.7322 83.1641 32.1367 85.2432C31.4587 87.6197 30.3953 90.6347 28.9609 92.6304C28.7718 92.8943 28.5848 93.1645 28.4041 93.4431C27.233 95.226 26.2531 97.3009 26.249 99.3092C26.2448 101.447 27.349 103.51 30.5091 105.069C30.5603 105.094 30.6105 105.119 30.6596 105.143C30.6794 105.152 30.6993 105.163 30.7191 105.172C30.7358 105.18 30.7525 105.189 30.7692 105.197C33.6107 106.582 35.5517 107.246 36.937 107.246Z" fill="#0A2239"/>
<path d="M35.8006 69.3765C39.2417 68.5972 44.5257 69.4976 48.4818 70.4302C49.2309 70.6086 49.9318 70.7859 50.5649 70.9539C51.572 71.222 52.4035 71.4651 52.9718 71.6372C53.5046 71.7979 53.8086 71.897 53.8086 71.897C53.6279 71.6289 53.444 71.366 53.257 71.1093C52.6762 70.2988 52.0859 69.5508 51.4884 68.8591C50.9493 68.2363 50.4082 67.6583 49.8671 67.1242C44.0806 61.4031 38.406 60.5967 38.406 60.5967C38.406 60.5967 30.8332 62.0603 35.8006 69.3765Z" fill="#244A6E"/>
<path d="M53.8086 71.8968C53.6279 71.6287 53.444 71.3658 53.257 71.1092C52.6762 70.2986 52.0859 69.5506 51.4884 68.8589C50.9493 68.2361 50.4082 67.6582 49.8671 67.1241C49.8462 67.1032 49.8253 67.0834 49.8033 67.0625C50.3466 67.702 50.8835 68.3853 51.4121 69.1239C51.6002 69.3795 51.783 69.6435 51.9637 69.9105C51.9637 69.9105 51.6597 69.8114 51.1269 69.6508C50.5586 69.4786 49.7271 69.2356 48.72 68.9674C48.0869 68.7995 47.386 68.6221 46.6369 68.4437C43.7369 67.7604 40.1245 67.0938 37.0469 67.0938C36.1902 67.0938 35.3754 67.146 34.6295 67.2628C34.898 67.9065 35.2793 68.6086 35.8006 69.3764C35.8288 69.3701 35.857 69.3639 35.8852 69.3576C36.7826 69.1636 37.8011 69.0801 38.8865 69.0801H38.9022C41.9161 69.0822 45.4418 69.7207 48.3063 70.3894C48.3095 70.3894 48.3115 70.3904 48.3136 70.3904C48.37 70.404 48.4254 70.4175 48.4818 70.4301C49.2309 70.6085 49.9318 70.7858 50.5649 70.9538C51.572 71.2219 52.4035 71.4649 52.9718 71.6371C53.5046 71.7977 53.8086 71.8968 53.8086 71.8968H53.8086Z" fill="#0A2239"/>
<path d="M62.9104 27.4247C63.8255 27.8817 64.8493 27.7429 65.8292 27.1024C65.9065 27.0533 65.9817 27.0012 66.0559 26.9448C66.4957 26.6225 66.9198 26.201 67.3189 25.6898C67.86 24.9982 68.3552 24.1417 68.772 23.1423C69.1261 22.292 69.3528 21.5044 69.4792 20.7898C69.5879 20.1889 69.6255 19.6401 69.6067 19.1477C69.6025 19.059 69.5983 18.9693 69.59 18.8817C69.5795 18.745 69.5649 18.6115 69.544 18.4854L69.5398 18.4624C69.5001 18.1879 69.4395 17.9387 69.3633 17.7122C69.3361 17.6268 69.3048 17.5432 69.2714 17.465C69.0823 17.008 68.8305 16.6732 68.5558 16.4761C68.5558 16.4761 65.7884 14.9591 63.2906 18.0471C60.7939 21.1361 60.9558 26.4483 62.9104 27.4247Z" fill="#244A6E"/>
<path d="M64.0398 27.6932H64.0607C64.6279 27.689 65.2119 27.496 65.7813 27.135C65.798 27.1246 65.8147 27.1142 65.8304 27.1027C65.8408 27.0964 65.8492 27.0891 65.8596 27.0829C65.6914 27.1142 65.5243 27.1309 65.3582 27.1309C64.9716 27.1309 64.5924 27.0432 64.231 26.8628C62.2764 25.8863 62.1145 20.5741 64.6112 17.4841C65.073 16.9124 65.5452 16.4993 66.0059 16.2051C65.2307 16.3845 64.3595 16.8331 63.5081 17.7918L63.507 17.7929C63.4934 17.8086 63.4798 17.8242 63.4652 17.8409L63.4642 17.8419C63.4569 17.8503 63.4506 17.8576 63.4443 17.8649C63.4433 17.8659 63.4433 17.8659 63.4422 17.8669C63.436 17.8743 63.4287 17.8826 63.4224 17.89C63.4213 17.8909 63.4203 17.893 63.4193 17.893C63.414 17.9003 63.4078 17.9076 63.4015 17.914C63.4005 17.9161 63.3994 17.917 63.3984 17.9181C63.3921 17.9264 63.3858 17.9337 63.3785 17.9422C63.3785 17.9422 63.3775 17.9431 63.3775 17.9441C63.3712 17.9515 63.3649 17.9577 63.3587 17.9651C63.3576 17.9672 63.3566 17.9682 63.3545 17.9702C63.3482 17.9786 63.342 17.9859 63.3357 17.9943C63.3346 17.9943 63.3346 17.9953 63.3346 17.9953C63.3284 18.0026 63.3221 18.0099 63.3158 18.0173C63.3148 18.0194 63.3127 18.0213 63.3117 18.0234C63.3054 18.0307 63.2981 18.0391 63.2918 18.0474C62.0142 19.6279 61.4323 21.7916 61.4313 23.6569C61.4302 25.4377 61.9567 26.9483 62.9115 27.4251C62.9199 27.4292 62.9272 27.4334 62.9356 27.4376C63.2887 27.6087 63.6574 27.6932 64.0335 27.6932H64.0398Z" fill="#0A2239"/>
<path d="M46.9551 44.0102C51.0147 42.0166 54.2333 41.7819 56.7698 42.5059C60.0793 43.4448 62.2282 46.009 63.5685 48.4168C65.0195 51.0207 65.522 53.4421 65.522 53.4421C66.4486 53.9032 67.2833 53.9846 68.0198 53.7519C69.3351 53.3315 70.3358 51.9148 70.9971 49.8742C71.0744 49.6353 71.1476 49.3881 71.2155 49.1325C71.4139 48.3907 71.5821 47.6052 71.6887 46.7883C71.7148 46.5807 71.7357 46.3721 71.7545 46.1603C71.7838 45.8192 71.8005 45.4728 71.8026 45.1213C71.8067 44.3274 71.7357 43.5136 71.5654 42.6947C71.135 40.6541 70.0736 38.5697 67.9592 36.6116C65.194 34.0515 61.6233 32.0172 57.9356 32.0235C57.5773 32.0235 57.22 32.0443 56.8617 32.084C54.9228 32.2999 52.9724 33.1147 51.1056 34.7421C45.3254 39.783 46.9551 44.0102 46.9551 44.0102Z" fill="#244A6E"/>
<path d="M46.9551 44.0102C46.9781 43.9987 47 43.9872 47.023 43.9758C47.0397 43.9685 47.0554 43.9601 47.0711 43.9528C47.0941 43.9424 47.116 43.9309 47.139 43.9205C47.1432 43.9184 47.1494 43.9153 47.1536 43.9132C47.1724 43.9048 47.1891 43.8965 47.2079 43.8871C47.209 43.8871 47.209 43.886 47.21 43.886C47.2267 43.8777 47.2435 43.8704 47.2602 43.8621C47.2842 43.8516 47.3072 43.8401 47.3312 43.8287C47.3375 43.8255 47.3448 43.8224 47.3511 43.8193C47.4482 43.7744 47.5443 43.7296 47.6404 43.6857C47.8776 41.978 48.8512 39.5191 51.9382 36.8265C53.805 35.2001 55.7544 34.3843 57.6943 34.1683C58.0516 34.1287 58.4099 34.1089 58.7682 34.1089H58.786C62.4664 34.1089 66.0308 36.1411 68.7919 38.697C69.9587 39.7778 70.8039 40.8972 71.4004 42.026C70.8958 40.2222 69.8679 38.3997 68.0251 36.6731C68.0178 36.6669 68.0104 36.6596 68.0031 36.6533C68.0031 36.6523 68.0021 36.6512 68.001 36.6502C67.9948 36.645 67.9875 36.6387 67.9812 36.6324C67.9739 36.6262 67.9666 36.6189 67.9592 36.6116C67.931 36.5855 67.9028 36.5594 67.8746 36.5333C67.8642 36.5239 67.8537 36.5146 67.8433 36.5052C67.836 36.4989 67.8287 36.4916 67.8214 36.4853C65.0833 33.992 61.5826 32.0287 57.968 32.0234H57.9356C57.5773 32.0234 57.22 32.0443 56.8617 32.0839C54.9228 32.2999 52.9724 33.1147 51.1056 34.7421C47.4137 37.9615 46.7441 40.8492 46.7431 42.5152C46.742 43.4583 46.9551 44.0102 46.9551 44.0102Z" fill="#0A2239"/>
<path d="M33.0337 81.5728C33.0535 81.5655 34.3615 81.095 36.431 80.9729L38.748 70.7618C39.6673 70.5542 40.7162 70.4655 41.8382 70.4655C44.9158 70.4655 48.5293 71.1321 51.4293 71.8154C52.1783 71.9938 52.8793 72.1712 53.5123 72.3391C53.6314 72.3715 53.7484 72.4028 53.8623 72.4341C53.8477 72.2546 53.8299 72.0752 53.809 71.8968C53.809 71.8968 53.505 71.7977 52.9722 71.637C52.4039 71.4649 51.5724 71.2218 50.5653 70.9537C49.9323 70.7858 49.2313 70.6084 48.4823 70.43C48.4258 70.4175 48.3705 70.4039 48.3141 70.3904C48.312 70.3904 48.3099 70.3893 48.3068 70.3893C45.4423 69.7206 41.9165 69.0822 38.9026 69.0801H38.887C37.8016 69.0801 36.783 69.1635 35.8856 69.3576C35.8574 69.3638 35.8292 69.3701 35.801 69.3764L33.0337 81.5728Z" fill="#0C7489"/>
<path d="M83.4277 96.0437C83.4277 96.0437 83.4298 96.1251 83.434 96.2774C83.482 98.3712 83.9542 114.123 87.2167 123.862C87.433 124.509 87.6628 125.131 87.9062 125.721C87.9062 125.721 100.525 124.501 107.038 118.891C107.038 118.891 110.375 99.5417 106.224 90.7598C106.224 90.7598 101.313 95.7349 87.2167 96.0667C86.0206 96.0938 84.7597 96.0876 83.4277 96.0437Z" fill="#0FA3B1"/>
<path d="M87.9068 125.72C87.9068 125.72 100.525 124.5 107.039 118.89C107.039 118.89 107.098 118.541 107.191 117.921C100.44 121.72 91.1495 122.618 91.1495 122.618C90.9061 122.028 90.6773 121.407 90.461 120.758C87.8755 113.045 87.0429 101.558 86.7838 96.0743C86.4484 96.0795 86.1079 96.0826 85.7631 96.0826C85.0099 96.0826 84.2317 96.0701 83.4283 96.043C83.4283 96.043 83.4304 96.1243 83.4346 96.2767C83.4826 98.3704 83.9548 114.122 87.2173 123.861C87.4336 124.509 87.6634 125.13 87.9068 125.72Z" fill="#0C7489"/>
<path d="M65.8301 27.1029C68.9265 33.2809 77.3235 45.0246 98.3277 52.2834C99.1812 51.7712 100.007 51.1484 100.798 50.4066C103.88 47.5138 106.14 43.7404 107.438 39.5508C107.449 39.5195 107.459 39.4882 107.467 39.4569C107.971 37.9066 108.366 36.2114 108.576 34.3784H108.578C108.812 32.3879 108.83 30.2347 108.543 27.9323V27.9302V27.9239C108.514 27.66 108.483 27.3939 108.445 27.13C108.262 25.7811 107.984 24.4353 107.604 23.101C88.9204 16.2491 74.855 17.0024 69.3642 17.7127C69.4405 17.9392 69.501 18.1885 69.5407 18.4629L69.6264 18.4733C69.5992 18.4774 69.5721 18.4816 69.5449 18.4859C69.5658 18.612 69.5804 18.7455 69.5909 18.8822C69.5992 18.9698 69.6034 19.0596 69.6076 19.1482C69.6264 19.6406 69.5888 20.1894 69.4802 20.7903C69.3538 21.5049 69.1271 22.2925 68.7729 23.1428C68.3561 24.1422 67.8609 24.9987 67.3198 25.6903C66.9207 26.2015 66.4966 26.623 66.0568 26.9454C65.9826 27.0017 65.9074 27.0539 65.8301 27.1029Z" fill="#C7D6DD"/>
<path fill-rule="evenodd" clip-rule="evenodd" d="M100.799 50.406C100.008 51.1477 99.1815 51.7705 98.328 52.2827C98.383 52.2495 98.4374 52.2142 98.4919 52.1788C98.5315 52.153 98.5711 52.1273 98.6111 52.1023C79.6305 44.8038 71.8414 33.8321 68.885 27.9337C68.9623 27.8836 69.0365 27.8325 69.1117 27.7761C69.5515 27.4538 69.9756 27.0323 70.3747 26.5211C70.9158 25.8284 71.411 24.973 71.8278 23.9736C72.1809 23.1233 72.4087 22.3357 72.5351 21.6211C72.6437 21.0202 72.6803 20.4714 72.6615 19.979C72.6609 19.9667 72.6604 19.9545 72.6598 19.9422C72.6563 19.865 72.6529 19.7886 72.6448 19.713C72.6343 19.5763 72.6207 19.4428 72.5998 19.3166C72.627 19.3124 72.6542 19.3082 72.6803 19.304L72.5957 19.2936C72.556 19.0192 72.4954 18.7699 72.4181 18.5435C74.123 18.3224 76.6521 18.0982 79.8896 18.0982C85.1463 18.0982 92.2678 18.6896 100.747 20.8512C90.9174 18.0063 82.7117 17.2666 76.8365 17.2666C73.5983 17.2666 71.0693 17.4909 69.3645 17.7121C71.0684 17.4909 73.5986 17.2666 76.836 17.2666C76.8362 17.2666 76.8363 17.2666 76.8365 17.2666C76.8367 17.2666 76.8369 17.2666 76.837 17.2666C84.0317 17.2666 94.7207 18.3756 107.605 23.1004C107.984 24.4347 108.263 25.7804 108.446 27.1293C108.483 27.3933 108.515 27.6593 108.544 27.9232V27.9295V27.9316C108.689 29.101 108.756 30.2319 108.756 31.3221C108.756 32.3789 108.693 33.3981 108.578 34.3777H108.576C108.366 36.2107 107.971 37.9059 107.468 39.4562C107.459 39.4875 107.449 39.5188 107.439 39.55L107.439 39.5501C106.14 43.7397 103.88 47.5131 100.799 50.406ZM100.348 23.6926C99.9571 23.6384 99.628 23.6123 99.3543 23.6123C97.5703 23.6123 98.1289 24.7386 99.0638 26.6239C99.5753 27.6552 100.199 28.9137 100.614 30.3391C101.177 32.271 100.421 35.1258 99.8432 37.3071C99.3689 39.0977 99.0149 40.4345 99.6092 40.4345C99.7973 40.4345 100.081 40.2999 100.486 40.0046C100.486 40.0046 104.32 37.5958 105.466 32.1001C106.258 28.3016 104.681 24.2956 100.348 23.6926Z" fill="#0A2239"/>
<path d="M98.3276 52.2827C98.4227 52.2254 98.5157 52.1617 98.6107 52.1023C79.6301 44.8038 71.8411 33.8321 68.8847 27.9337C68.962 27.8836 69.0361 27.8325 69.1113 27.7761C69.5512 27.4538 69.9753 27.0323 70.3744 26.5211C70.9155 25.8284 71.4107 24.973 71.8275 23.9736C72.1806 23.1233 72.4083 22.3357 72.5347 21.6211C72.6434 21.0202 72.6799 20.4714 72.6611 19.979C72.657 19.8893 72.6538 19.8006 72.6444 19.713C72.634 19.5763 72.6204 19.4428 72.5995 19.3166C72.6267 19.3124 72.6538 19.3082 72.6799 19.304L72.5953 19.2936C72.5556 19.0192 72.495 18.7699 72.4177 18.5435C74.1226 18.3224 76.6518 18.0982 79.8892 18.0982C85.146 18.0982 92.2675 18.6896 100.747 20.8512C90.9167 18.0063 82.7109 17.2666 76.8356 17.2666C73.5982 17.2666 71.068 17.4909 69.3642 17.7121C69.4404 17.9385 69.501 18.1878 69.5407 18.4623L69.6264 18.4726C69.5992 18.4768 69.572 18.4809 69.5449 18.4852C69.5658 18.6113 69.5804 18.7449 69.5908 18.8815C69.5992 18.9692 69.6034 19.0589 69.6076 19.1476C69.6107 19.2321 69.6117 19.3186 69.6117 19.4063C69.6107 19.8309 69.57 20.292 69.4801 20.7896C69.3537 21.5042 69.127 22.2919 68.7729 23.1421C68.356 24.1415 67.8609 24.998 67.3197 25.6897C66.9207 26.2009 66.4965 26.6223 66.0567 26.9447C65.9826 27.001 65.9073 27.0532 65.83 27.1022C68.9264 33.2802 77.3235 45.0239 98.3276 52.2827Z" fill="#1F3E5C"/>
<path d="M53.2626 68.5528C53.2626 68.5528 59.5055 64.0095 63.7197 53.2037C63.7197 53.2037 62.4191 48.3203 60.3381 47.2812C60.3381 47.2812 53.2083 49.7235 50.1662 65.2301C50.1662 65.2301 52.3266 66.9671 53.2626 68.5528Z" fill="#2BC8D7"/>
<path d="M49.0768 83.3431C49.0768 83.3431 51.9695 78.3866 52.4072 73.8987C52.4072 73.8987 50.2604 72.627 48.589 72.627C48.5252 72.627 48.4626 72.629 48.4009 72.6322C48.4009 72.6322 45.9062 77.1003 46.0985 81.9837C46.0985 81.9837 48.1178 82.6232 49.0768 83.3431Z" fill="#2BC8D7"/>
<path d="M58.0257 85.2427C58.0257 85.2427 68.5988 83.9585 75.0288 82.6075C76.3461 82.33 77.771 82.2131 79.2242 82.2131C84.8581 82.2131 90.9192 83.972 92.8581 84.9777C92.8581 84.9777 96.4414 79.8064 96.2324 79.2326C96.2324 79.2326 89.5235 76.2803 82.7259 76.2803C82.0521 76.2803 81.3783 76.3095 80.7086 76.3731C72.3471 77.1691 63.5625 80.5857 58.0257 81.8125C58.0257 81.8125 56.5183 83.8917 58.0257 85.2427Z" fill="#2BC8D7"/>
<path d="M100.706 118.912C102.335 118.912 105.076 117.416 105.076 117.416C106.325 109.207 104.556 93.2598 104.556 93.2598C102.477 94.7944 98.3279 95.9576 98.3279 95.9576C102.459 108.934 100.394 118.891 100.394 118.891C100.492 118.906 100.597 118.912 100.706 118.912Z" fill="#2BC8D7"/>
<path d="M102.753 17.2667C102.753 17.2667 94.2901 6.7426 83.6804 3.60664C81.4636 2.95149 79.4558 2.65625 77.614 2.65625C71.3491 2.65625 67.0117 6.0791 62.9385 10.4367C62.9385 10.4367 66.7484 7.59283 74.4737 7.59283C81.0457 7.59283 90.4499 9.65113 102.753 17.2667H102.753Z" fill="#2BC8D7"/>
<path d="M99.6089 40.4354C99.7969 40.4354 100.081 40.3008 100.485 40.0056C100.485 40.0056 104.319 37.5968 105.465 32.101C106.257 28.3026 104.681 24.2966 100.347 23.6936C99.9568 23.6394 99.6277 23.6133 99.354 23.6133C96.594 23.6133 99.4407 26.309 100.614 30.3401C101.639 33.8578 98.2905 40.4354 99.6089 40.4354Z" fill="#244A6E"/>
<path fill-rule="evenodd" clip-rule="evenodd" d="M329.657 125.325C327.922 125.325 326.525 125.272 325.38 125.22C324.239 125.168 323.354 125.115 322.648 125.115C322.257 125.115 321.921 125.131 321.626 125.172C321.52 124.785 321.401 124.375 321.267 123.937C320.763 122.309 319.949 120.874 318.968 119.555C317.567 117.664 315.82 116.013 314.162 114.378C308.587 108.88 304.964 98.0272 308.664 89.1356C309.584 86.9185 310.924 84.9167 312.565 83.1828C316.56 78.9598 322.347 76.3248 328.282 76.0285C328.66 76.0096 329.038 76 329.416 76C335.614 76 341.875 78.5168 346.181 83.1828C346.941 84.0065 347.64 84.8971 348.268 85.8529C353.507 93.8376 352.718 104.837 347.887 111.053C343.703 116.439 341.872 117.73 340.208 119.885C340.003 120.151 339.801 120.453 339.599 120.784C339.028 121.734 338.49 122.925 338.044 124.208C336.544 124.26 334.171 125.315 329.843 125.325C329.782 125.325 329.718 125.325 329.657 125.325Z" fill="url(#paint5_radial)"/>
<path d="M326.332 118.084L326.945 117.706C324.22 113.293 322.777 109.667 322.049 107.402C321.055 104.312 320.93 102.364 321.142 101.572C321.199 101.359 321.276 101.254 321.328 101.226C321.793 100.977 322.572 101.504 323.559 102.172C325.031 103.167 327.044 104.529 329.721 104.401C332.616 104.262 334.623 102.488 336.088 101.192C336.877 100.493 337.624 99.831 337.98 99.9984C338.006 100.011 338.067 100.076 338.124 100.239C338.672 101.797 337.701 107.735 332.786 117.707L333.431 118.025C338.127 108.501 339.506 102.005 338.804 99.9997C338.689 99.6733 338.515 99.4531 338.285 99.3457C337.499 98.9821 336.707 99.6817 335.611 100.653C334.226 101.878 332.328 103.555 329.686 103.681C327.249 103.799 325.428 102.566 323.963 101.576C322.774 100.772 321.834 100.136 320.985 100.591C320.735 100.727 320.552 100.994 320.446 101.385C319.888 103.46 321.347 110.013 326.332 118.084Z" fill="white"/>
<path fill-rule="evenodd" clip-rule="evenodd" d="M330.378 142.831C327.97 142.831 325.601 142.193 324.01 140.877C322.481 139.61 321.676 136.23 320.141 131.197C318.871 127.04 320.048 126.363 320.25 126.067C320.692 125.416 321.183 125.123 321.978 125.012C322.273 124.971 322.609 124.955 323.001 124.955C323.706 124.955 324.591 125.008 325.732 125.06C326.877 125.113 328.274 125.165 330.009 125.165C330.07 125.165 330.134 125.165 330.195 125.165C334.523 125.155 336.896 124.101 338.396 124.048C338.434 124.047 338.47 124.046 338.508 124.046C339.073 124.046 339.505 124.204 339.877 124.639C341.435 126.468 339.435 139.331 336.783 141.092C335.055 142.239 332.699 142.831 330.378 142.831ZM323.19 133.599C323.068 133.599 322.952 133.675 322.904 133.797C322.847 133.954 322.927 134.129 323.084 134.188C325.873 135.231 328.438 135.554 330.544 135.554C331.654 135.554 332.635 135.465 333.455 135.344C336.043 134.961 337.607 134.208 337.671 134.176C337.822 134.103 337.883 133.921 337.809 133.77C337.758 133.662 337.649 133.599 337.537 133.599C337.492 133.599 337.447 133.609 337.405 133.63C337.389 133.637 335.844 134.38 333.343 134.746C332.555 134.862 331.609 134.947 330.544 134.947C328.502 134.947 326.011 134.633 323.295 133.619C323.26 133.605 323.225 133.599 323.19 133.599ZM330.256 130.63C330.089 130.63 329.954 130.809 329.951 130.976C329.951 131.144 330.086 131.303 330.253 131.304C330.32 131.305 330.384 131.327 330.448 131.327C336.238 131.327 338.922 129.281 339.034 129.194C339.165 129.09 339.191 128.899 339.085 128.767C339.018 128.679 338.912 128.62 338.806 128.62C338.755 128.62 338.704 128.635 338.659 128.67C338.633 128.69 336.11 130.635 330.766 130.636C330.599 130.636 330.432 130.634 330.259 130.63H330.256ZM321.914 129.432C321.782 129.432 321.66 129.519 321.622 129.653C321.577 129.815 321.67 129.983 321.833 130.028C323.779 130.576 325.674 130.956 327.463 131.156L327.499 131.158C327.652 131.158 327.784 131.043 327.8 130.888C327.819 130.721 327.697 130.57 327.531 130.552C325.774 130.355 323.911 129.982 321.997 129.443C321.968 129.436 321.942 129.432 321.914 129.432Z" fill="url(#paint6_linear)"/>
<path fill-rule="evenodd" clip-rule="evenodd" d="M349.08 291H236.913V277.151C229.078 275.355 217.523 264.269 213.66 249.201C215.247 248.101 223.228 247.23 225.305 247.23C226.138 247.23 226.946 247.335 227.719 247.53C232.976 233.847 246.232 224.135 261.757 224.135C266.277 224.135 270.605 224.962 274.602 226.467C280.225 218.66 290.592 218.363 290.592 218.363C299.882 200.051 316.423 196.256 328.541 196.256C332.462 196.256 335.92 196.654 338.517 197.085C340.36 190.762 344.589 185.458 350.16 182.213V290.387C349.91 290.734 349.497 291 349.08 291ZM171.58 267.036C168.608 265.846 165.367 265.195 161.973 265.195C161.139 265.195 160.315 265.24 159.501 265.317C158.34 261.174 154.541 258.137 150.032 258.137C149.199 258.137 148.39 258.242 147.617 258.437C144.255 249.685 137.619 242.556 129.21 238.556C131.705 234.002 133.461 229.142 134.473 224.154C134.88 224.141 135.289 224.134 135.699 224.134C151.224 224.134 164.48 233.847 169.736 247.53C170.509 247.335 171.318 247.23 172.151 247.23C174.368 247.23 186.016 253.762 187.66 255C185.876 261.94 174.136 262.276 171.58 267.036ZM38.1602 191.504V179C40.565 179.331 42.8616 179.998 45.0027 180.952C42.2496 184.229 39.9672 187.778 38.1602 191.504Z" fill="url(#paint7_linear)"/>
<path d="M210.858 156L199.064 156.016L187.35 156C187.35 156 187.776 280.553 161.16 287.107V302H237.16V287.107C210.544 280.553 210.858 156 210.858 156Z" fill="white"/>
<path d="M167.053 260.286C166.375 260.286 165.705 260.327 165.042 260.398C164.097 256.593 161.007 253.804 157.339 253.804C156.661 253.804 156.003 253.9 155.374 254.079C151.098 241.513 140.313 232.593 127.684 232.593C124.005 232.593 120.484 233.351 117.234 234.734C112.66 227.564 104.225 227.29 104.225 227.29C91.3161 198.566 61.1953 208.755 61.1953 208.755L61.1734 208.857H38.1602V301.957H152.989C158.16 301.957 169.257 301.957 174.66 301.957C186.317 301.957 188.16 297.314 188.16 284.145C188.16 270.975 178.711 260.286 167.053 260.286Z" fill="white"/>
<path d="M230.098 260.286C230.739 260.286 231.372 260.327 231.998 260.398C232.892 256.593 235.809 253.804 239.275 253.804C239.916 253.804 240.537 253.9 241.13 254.08C245.171 241.513 255.358 232.593 267.289 232.593C270.763 232.593 274.088 233.351 277.16 234.734C281.482 227.564 289.449 227.29 289.449 227.29C301.644 198.566 330.096 208.755 330.096 208.755L330.116 208.857H352.16V301.957H243.384C235.66 301.957 235.203 301.957 230.098 301.957C219.086 301.957 210.16 297.314 210.16 284.145C210.16 270.975 219.086 260.286 230.098 260.286Z" fill="white"/>
<path fill-rule="evenodd" clip-rule="evenodd" d="M199.363 202.344C199.302 202.344 199.245 202.323 199.187 202.286C196.673 200.944 189.96 175.86 187.619 168.421C187.575 168.274 187.53 168.128 187.488 167.984C186.488 164.521 186.661 161.604 187.164 159.434C187.203 159.436 187.238 159.437 187.273 159.437H190.29C190.021 161.013 190.021 163.025 190.755 165.364C192.47 170.816 197.388 189.201 199.232 190.184C199.273 190.211 199.315 190.226 199.36 190.226H199.379C199.424 190.226 199.466 190.211 199.507 190.183C201.347 189.192 206.247 170.815 207.959 165.364C208.696 163.025 208.69 161.013 208.417 159.437H211.437C211.469 159.437 211.505 159.436 211.537 159.434C212.021 161.5 212.21 164.243 211.363 167.489C211.283 167.795 211.194 168.105 211.094 168.421C208.757 175.858 202.076 200.932 199.562 202.285C199.507 202.323 199.447 202.344 199.385 202.344C199.382 202.344 199.379 202.343 199.376 202.343C199.37 202.343 199.366 202.344 199.363 202.344Z" fill="url(#paint8_linear)"/>
<path fill-rule="evenodd" clip-rule="evenodd" d="M199.665 193C199.618 193 199.575 192.984 199.533 192.954C197.635 191.868 192.574 171.566 190.808 165.545C190.053 162.963 190.053 160.74 190.33 159H208.986C209.267 160.74 209.273 162.963 208.514 165.545C206.752 171.565 201.71 191.858 199.816 192.953C199.773 192.983 199.73 193 199.684 193H199.665Z" fill="url(#paint9_linear)"/>
<path fill-rule="evenodd" clip-rule="evenodd" d="M210.978 159.794H186.814C186.779 159.794 186.744 159.793 186.705 159.791C185.493 159.725 184.436 158.558 184.436 157.335V156.334C184.863 156.498 185.322 156.588 185.798 156.588H211.992C212.444 156.586 212.88 156.504 213.29 156.353V157.335C213.29 158.561 212.293 159.731 211.078 159.791C211.046 159.793 211.011 159.794 210.978 159.794Z" fill="url(#paint10_linear)"/>
<path fill-rule="evenodd" clip-rule="evenodd" d="M161.435 168.28C160.214 168.28 159.55 166.311 159.647 161.039C159.832 151.039 164.52 141.877 172.219 135.556C172.958 134.949 174.726 133.298 176.282 132.311C177.498 138.259 179.141 144.536 181.278 151.145C177.335 151.344 173.314 155.526 169.826 159.709C166.252 163.995 163.237 168.28 161.435 168.28Z" fill="url(#paint11_linear)"/>
<path fill-rule="evenodd" clip-rule="evenodd" d="M219.878 131.54C221.436 131.415 224.835 134.651 225.938 135.556C233.635 141.878 238.326 151.04 238.508 161.039C238.896 181.999 227.252 150.753 216.383 151.141C216.383 151.141 215.027 131.929 219.878 131.54Z" fill="url(#paint12_linear)"/>
<path d="M215.862 153.918C215.327 155.498 213.842 156.6 212.175 156.6H185.994C184.328 156.6 182.845 155.498 182.309 153.918C167.447 110.049 174.205 80.5611 183.194 62.997C183.893 61.6306 184.603 60.3283 185.322 59.1056C191.894 47.9036 198.832 42.6393 199.139 42.418L199.142 42.4193C199.511 42.6874 206.398 47.9494 212.916 59.0972C213.631 60.3197 214.339 61.6313 215.035 62.9974C224.002 80.5611 230.722 110.049 215.862 153.918V153.918Z" fill="white"/>
<path fill-rule="evenodd" clip-rule="evenodd" d="M199.051 99.5422C191.834 99.5422 185.986 93.6937 185.986 86.4791C185.986 79.2645 191.834 73.416 199.051 73.416C206.265 73.416 212.112 79.2645 212.112 86.4791C212.112 93.6937 206.265 99.5422 199.051 99.5422ZM188.853 88.7064C189.872 93.3991 194.05 96.9148 199.051 96.9148C204.812 96.9148 209.487 92.242 209.487 86.4791C209.487 83.0277 207.81 79.9669 205.226 78.0661C203.498 76.7945 201.362 76.043 199.051 76.043C193.287 76.043 188.612 80.7162 188.612 86.4791C188.612 87.2427 188.695 87.9894 188.853 88.7064Z" fill="url(#paint13_linear)"/>
<path d="M210.16 86.5002C210.16 92.2985 205.234 97 199.162 97C193.891 97 189.488 93.4627 188.414 88.7412C188.248 88.0198 188.16 87.2685 188.16 86.5002C188.16 80.7019 193.087 76 199.162 76C201.598 76 203.848 76.7561 205.67 78.0355C208.393 79.948 210.16 83.0276 210.16 86.5002Z" fill="#D5330D"/>
<path d="M191.684 89C190.647 89 189.551 88.9385 188.406 88.8359C188.245 88.1092 188.16 87.3523 188.16 86.5783C188.16 80.7369 192.943 76 198.842 76C201.207 76 203.392 76.7618 205.16 78.0506C203.513 78.734 201.87 80.1389 201.174 82.9639C200.016 87.6708 196.499 89 191.684 89Z" fill="#E9421B"/>
<path fill-rule="evenodd" clip-rule="evenodd" d="M214.726 62.9865L182.889 62.9804C183.793 60.6512 186.617 57.0256 187.602 55C188.301 53.557 190.2 51.7917 190.918 50.5C193.936 47 194.66 46 196.66 44.2715C197.364 43.6334 198.869 42.4478 198.834 42.4228L198.831 42.4189L198.834 42.4212C199.016 42.5527 200.767 43.888 203.274 46.5317C205.874 49.2749 209.289 53.4261 212.607 59.1026C213.274 60.2457 213.938 61.5252 214.589 62.7348C214.637 62.8191 214.681 62.9031 214.726 62.9865Z" fill="url(#paint14_linear)"/>
<path fill-rule="evenodd" clip-rule="evenodd" d="M212.188 156.182H185.994C185.519 156.182 185.059 156.093 184.632 155.929C183.56 155.516 182.692 154.63 182.309 153.5C182.251 153.329 182.194 153.158 182.136 152.987C175.952 134.572 173.584 118.699 173.587 105.189C173.587 105.089 173.587 104.991 173.587 104.891C173.596 101.724 173.736 98.6878 173.987 95.7793C175.187 81.8698 178.941 70.8897 183.194 62.5795C183.197 62.5747 183.199 62.5703 183.201 62.5654H188.05C180.682 81.5687 176.764 110.792 190.005 152.068C190.541 153.737 192.022 154.9 193.689 154.9H215.035C215.012 154.924 214.99 154.949 214.968 154.972C214.253 155.586 213.262 156.177 212.188 156.182Z" fill="url(#paint15_linear)"/>
<path fill-rule="evenodd" clip-rule="evenodd" d="M182.886 62.3795C183.406 61.3702 183.932 60.3969 184.464 59.4658C183.932 60.4122 183.406 61.4183 182.886 62.3795Z" fill="url(#paint16_linear)"/>
<path fill-rule="evenodd" clip-rule="evenodd" d="M203.44 137.051C203.155 134.977 202.273 133.046 200.767 131.652C200.735 131.623 200.132 131.208 199.6 130.878C199.346 130.723 199.032 130.721 198.766 130.878C198.234 131.208 197.631 131.623 197.602 131.652C196.092 133.045 195.211 134.975 194.928 137.048C194.139 142.804 194.592 148.656 195.249 154.399C195.772 158.963 195.986 164.007 197.307 168.413C197.519 169.127 198.144 170.915 198.955 171.176C199.039 171.2 199.112 171.2 199.186 171.172C199.257 171.2 199.333 171.2 199.41 171.176C200.222 170.915 200.847 169.127 201.062 168.413C202.697 162.951 203.027 157.155 203.271 151.471C203.472 146.759 204.082 141.741 203.44 137.051Z" fill="url(#paint17_linear)"/>
<path fill-rule="evenodd" clip-rule="evenodd" d="M38.1632 239.304C31.6816 225.499 31.7357 209.465 38.1632 195.756V239.304Z" fill="url(#paint18_linear)"/>
<path fill-rule="evenodd" clip-rule="evenodd" d="M35.4609 237C35.3588 236.793 35.2594 236.589 35.1602 236.382V192.617C35.2594 192.41 35.3591 192.204 35.4609 191.998V237ZM122.206 227.112C116.448 219.271 105.828 218.971 105.828 218.971C96.3118 200.577 79.367 196.765 66.9566 196.765C63.0113 196.765 59.5255 197.15 56.8807 197.575C54.723 190.338 49.3938 184.429 42.4693 181.401C43.8428 179.798 45.3307 178.26 46.933 176.797C57.0409 167.568 69.8721 163 82.6697 163C96.7364 163 110.763 168.515 121.101 179.418C133.095 192.067 137.361 209.058 134.106 224.791C129.929 224.927 125.927 225.738 122.206 227.112Z" fill="url(#paint19_linear)"/>
<path fill-rule="evenodd" clip-rule="evenodd" d="M128.914 240C124.193 237.691 118.911 236.4 113.335 236.4C108.828 236.4 104.514 237.246 100.532 238.788C94.9282 230.792 84.5934 230.486 84.5934 230.486C75.3417 211.747 58.8729 207.858 46.797 207.858C43.5161 207.858 40.5598 208.145 38.1602 208.499V191.807C39.9614 187.991 42.2364 184.356 44.9804 181C51.7193 184.089 56.9056 190.114 59.0055 197.494C61.5794 197.061 64.9718 196.669 68.8112 196.669C80.889 196.669 97.3796 200.556 106.641 219.314C106.641 219.314 116.976 219.62 122.58 227.617C126.2 226.215 130.095 225.388 134.16 225.25C133.151 230.358 131.401 235.336 128.914 240Z" fill="url(#paint20_linear)"/>
<path d="M84.2505 265C70.5238 265 56.8365 259.51 46.7483 248.656C43.1913 244.829 40.3299 240.601 38.1602 236.132V207.626C40.5663 207.28 43.5306 207 46.8204 207C58.9291 207 75.4425 210.797 84.7192 229.09C84.7192 229.09 95.082 229.388 100.701 237.194C104.694 235.689 109.02 234.863 113.539 234.863C119.13 234.863 124.426 236.124 129.16 238.377C126.594 243.064 123.246 247.425 119.124 251.265C109.26 260.453 96.7388 265 84.2505 265Z" fill="white"/>
<path fill-rule="evenodd" clip-rule="evenodd" d="M43.5543 245.451L50.145 252.534L6.59069 293.061L0 285.979L43.5543 245.451Z" fill="url(#paint21_linear)"/>
<path fill-rule="evenodd" clip-rule="evenodd" d="M50.892 178.4C41.3748 187.256 35.8761 199.287 35.4083 212.279C34.9406 225.27 39.5596 237.666 48.415 247.183C66.695 266.829 97.5504 267.939 117.197 249.66C126.713 240.804 132.212 228.772 132.68 215.781C133.148 202.79 128.529 190.394 119.673 180.877C110.818 171.361 98.7867 165.861 85.7958 165.394C72.8041 164.926 60.4085 169.545 50.892 178.4ZM44.6421 250.693C34.8492 240.168 29.7409 226.46 30.2585 212.093C30.7752 197.726 36.8565 184.421 47.3814 174.628C57.9059 164.835 71.614 159.727 85.9811 160.244C100.348 160.761 113.653 166.842 123.446 177.367C133.239 187.892 138.348 201.6 137.83 215.967C137.313 230.334 131.232 243.639 120.707 253.432C110.183 263.225 96.4742 268.333 82.1075 267.817C67.7404 267.297 54.435 261.218 44.6421 250.693Z" fill="url(#paint22_linear)"/>
<defs>
<linearGradient id="paint0_linear" x1="195.16" y1="102" x2="195.16" y2="291" gradientUnits="userSpaceOnUse">
<stop stop-color="#0A2239"/>
<stop offset="1" stop-color="#15416A"/>
</linearGradient>
<linearGradient id="paint1_linear" x1="155.44" y1="384.384" x2="162.02" y2="416.333" gradientUnits="userSpaceOnUse">
<stop stop-color="#FF6256"/>
<stop offset="1" stop-color="#D100B8"/>
</linearGradient>
<linearGradient id="paint2_linear" x1="199.834" y1="300.834" x2="200.745" y2="430.177" gradientUnits="userSpaceOnUse">
<stop stop-color="#28AFBC"/>
<stop offset="1" stop-color="#2BC8D7"/>
</linearGradient>
<linearGradient id="paint3_linear" x1="194.505" y1="253.341" x2="200.644" y2="429.05" gradientUnits="userSpaceOnUse">
<stop stop-color="#2BC8D7"/>
<stop offset="1" stop-color="#2DC9D8"/>
</linearGradient>
<linearGradient id="paint4_linear" x1="193.885" y1="390.677" x2="177.39" y2="778.309" gradientUnits="userSpaceOnUse">
<stop stop-color="#2BC8D7"/>
<stop offset="1" stop-color="#0FA3B1"/>
</linearGradient>
<radialGradient id="paint5_radial" cx="0" cy="0" r="1" gradientUnits="userSpaceOnUse" gradientTransform="translate(336.66 92) rotate(121.43) scale(21.095)">
<stop stop-color="#E76344"/>
<stop offset="1" stop-color="#EC390F"/>
</radialGradient>
<linearGradient id="paint6_linear" x1="333.472" y1="157.64" x2="325.873" y2="223.236" gradientUnits="userSpaceOnUse">
<stop stop-color="#2BC8D7"/>
<stop offset="1" stop-color="#0FA3B1"/>
</linearGradient>
<linearGradient id="paint7_linear" x1="194.014" y1="367.453" x2="194.014" y2="14.1082" gradientUnits="userSpaceOnUse">
<stop stop-color="#0C7489"/>
<stop offset="1" stop-color="#0FA3B1"/>
</linearGradient>
<linearGradient id="paint8_linear" x1="186.76" y1="178.764" x2="211.949" y2="178.764" gradientUnits="userSpaceOnUse">
<stop stop-color="#D5330D"/>
<stop offset="1" stop-color="#F03F16"/>
</linearGradient>
<linearGradient id="paint9_linear" x1="186.697" y1="180.342" x2="212.621" y2="180.342" gradientUnits="userSpaceOnUse">
<stop stop-color="#EC3B12"/>
<stop offset="1" stop-color="#F48368"/>
</linearGradient>
<linearGradient id="paint10_linear" x1="213.29" y1="156.107" x2="184.435" y2="156.107" gradientUnits="userSpaceOnUse">
<stop stop-color="#0C8F9B"/>
<stop offset="1" stop-color="#2BC8D7"/>
</linearGradient>
<linearGradient id="paint11_linear" x1="159.638" y1="149.908" x2="181.947" y2="149.908" gradientUnits="userSpaceOnUse">
<stop stop-color="#0FA3B1"/>
<stop offset="1" stop-color="#0C7489"/>
</linearGradient>
<linearGradient id="paint12_linear" x1="238.518" y1="149.909" x2="216.209" y2="149.909" gradientUnits="userSpaceOnUse">
<stop stop-color="#0FA3B1"/>
<stop offset="1" stop-color="#0C7489"/>
</linearGradient>
<linearGradient id="paint13_linear" x1="185.986" y1="86.4791" x2="212.112" y2="86.4791" gradientUnits="userSpaceOnUse">
<stop stop-color="#0C7489"/>
<stop offset="1" stop-color="#0B697C"/>
</linearGradient>
<linearGradient id="paint14_linear" x1="182.886" y1="52.7036" x2="214.727" y2="52.7036" gradientUnits="userSpaceOnUse">
<stop stop-color="#D5330D"/>
<stop offset="1" stop-color="#C2300E"/>
</linearGradient>
<linearGradient id="paint15_linear" x1="173.587" y1="99.0904" x2="215.052" y2="99.0904" gradientUnits="userSpaceOnUse">
<stop stop-color="#B3EFF4"/>
<stop offset="1" stop-color="#F0E6FD"/>
</linearGradient>
<linearGradient id="paint16_linear" x1="173.148" y1="99.1463" x2="214.611" y2="99.1463" gradientUnits="userSpaceOnUse">
<stop stop-color="#F9F2FF"/>
<stop offset="1" stop-color="#F0E6FD"/>
</linearGradient>
<linearGradient id="paint17_linear" x1="194.509" y1="150.978" x2="203.724" y2="150.978" gradientUnits="userSpaceOnUse">
<stop stop-color="#0FA3B1"/>
<stop offset="1" stop-color="#0C7489"/>
</linearGradient>
<linearGradient id="paint18_linear" x1="193.884" y1="394.307" x2="177.389" y2="781.939" gradientUnits="userSpaceOnUse">
<stop stop-color="#2BC8D7"/>
<stop offset="1" stop-color="#DA33C6"/>
</linearGradient>
<linearGradient id="paint19_linear" x1="195.088" y1="368.714" x2="195.088" y2="13.8286" gradientUnits="userSpaceOnUse">
<stop stop-color="#244A6E"/>
<stop offset="1" stop-color="#214261"/>
</linearGradient>
<linearGradient id="paint20_linear" x1="193.508" y1="372.023" x2="193.508" y2="10.1107" gradientUnits="userSpaceOnUse">
<stop stop-color="#497688"/>
<stop offset="1" stop-color="#0B6274"/>
</linearGradient>
<linearGradient id="paint21_linear" x1="63.2862" y1="234.538" x2="34.9338" y2="208.78" gradientUnits="userSpaceOnUse">
<stop stop-color="#0A2239"/>
<stop offset="1" stop-color="#244A6E"/>
</linearGradient>
<linearGradient id="paint22_linear" x1="128.447" y1="132.198" x2="45.5081" y2="-20.6523" gradientUnits="userSpaceOnUse">
<stop stop-color="#0A2239"/>
<stop offset="1" stop-color="#244A6E"/>
</linearGradient>
</defs>
</svg>
