<svg xmlns="http://www.w3.org/2000/svg" width="74" height="66" viewBox="0 0 74 66">
    <g fill="none" fill-rule="evenodd">
        <g>
            <g>
                <g>
                    <g>
                        <path stroke="#0FA3B1" stroke-width="2" d="M52 48H4V17.538C4 16.135 5.13 15 6.526 15h42.948C50.87 15 52 16.135 52 17.538V48z" transform="translate(-557 -2457) translate(0 2193) translate(558 267)"/>
                        <path fill="#0A2239" stroke="#0A2239" stroke-width="5" d="M61 16.5C61 25.613 53.39 33 44 33s-17-7.387-17-16.5C27 7.386 34.61 0 44 0s17 7.386 17 16.5z" transform="translate(-557 -2457) translate(0 2193) translate(558 267)"/>
                        <path fill="#0A2239" stroke="#0C7489" stroke-width="2" d="M61 16.5C61 25.613 53.39 33 44 33s-17-7.387-17-16.5C27 7.386 34.61 0 44 0s17 7.386 17 16.5z" transform="translate(-557 -2457) translate(0 2193) translate(558 267)"/>
                        <path stroke="#0C7489" stroke-width="2" d="M70.753 41.552c-.947 1.272-2.682 1.454-3.874.407l-7.192-6.313c-1.19-1.047-1.388-2.928-.441-4.2.948-1.27 2.683-1.452 3.875-.407l7.19 6.318c1.193 1.047 1.39 2.924.442 4.195zM60 32L56 29" transform="translate(-557 -2457) translate(0 2193) translate(558 267)"/>
                        <path stroke="#0FA3B1" stroke-width="2" d="M51.934 48H4.066L.13 58.93C-.41 60.438.803 62 2.524 62h50.952c1.721 0 2.935-1.561 2.394-3.07L51.934 48zM25 59L32 59" transform="translate(-557 -2457) translate(0 2193) translate(558 267)"/>
                        <path stroke="#D5330D" stroke-width="2" d="M53 10L48.13 16.81 43.957 15.571 37 23M37.5 9L37.5 25M53 23.5L36 23.5" transform="translate(-557 -2457) translate(0 2193) translate(558 267)"/>
                    </g>
                </g>
            </g>
        </g>
    </g>
</svg>
