<svg width="639" height="644" xmlns="http://www.w3.org/2000/svg" fill="none">
 <defs>
  <radialGradient gradientTransform="matrix(-324.9010925292969,190.40492248535156,-397.9283752441406,-679.0126953125,535.1945190429688,206.29400634765625)" gradientUnits="userSpaceOnUse" r="1" cy="0" cx="0" id="paint0_radial">
   <stop stop-color="#0E3051" offset="0.038"/>
   <stop stop-color="#0A2239" offset="0.967"/>
  </radialGradient>
 </defs>
 <g>
  <title>Layer 1</title>
  <path id="svg_1" fill="url(#paint0_radial)" d="m631.23753,113.092c-25.949,-55.4971 -74.055,-85.7066 -102.259,-86.7368c-35.444,-1.2922 -37.859,55.1066 -65.75,69.0674c-28.306,14.1644 -72.415,-2.1129 -115.279,-28.9813c-47.19,-29.5793 -126.669,-96.6285 -143.626,-48.3325c-9.875,28.1285 9.363,81.5095 23.214,125.2622c12.92,40.801 23.533,85.3 10.512,103.883c-10.391,14.834 -33.343,8.805 -55.878,-2.003c-22.536,-10.808 -46.505,-26.16 -66.694,-29.467c-20.1885,-3.306 -36.1311,9.337 -30.4405,39.791c2.3012,12.326 7.8549,26.175 11.0631,38.978c9.0404,36.079 -1.6286,58.419 -15.9979,71.661c-14.3693,13.242 -57.601,-4.463 -73.71887,5.968c-36.86273,23.859 94.54717,244.621 173.08917,122.081c18.541,-28.927 63.268,-13.937 105.665,18.014c33.57,25.302 65.73,66.686 98.918,97.419c36.129,33.453 77.73,51.191 84.777,13.16c8.689,-46.864 -17.599,-112.106 -32.771,-174.255c-8.102,-33.188 -7.387,-37.352 -12.478,-63.08c-5.091,-25.727 -6.728,-54.769 3.624,-64.828c17.193,-16.709 54.354,7.299 86.929,28.332c32.574,21.032 57.5,20.862 67.862,-5.169c6.735,-16.924 3.296,-45.201 -3.139,-73.488c-7.28,-32.009 -9.545,-61.921 -0.678,-80.019c6.642,-13.563 18.69,-18.982 31.578,-22.466c11.785,-3.187 27.593,-6.153 28.899,-24.965c0.599,-8.656 -2.394,-19.076 -7.421,-29.826z"/>
  <g>
   <path fill="white" d="m72.80806,468.07313c-0.1458,-0.1237 -0.2658,-0.2748 -0.3531,-0.4448c-0.0874,-0.1701 -0.1404,-0.3557 -0.1561,-0.5463c-0.0156,-0.1905 0.0065,-0.3822 0.0649,-0.5643c0.0585,-0.182 0.1522,-0.3507 0.2759,-0.4965c0.1236,-0.1457 0.2748,-0.2657 0.4448,-0.3531c0.1701,-0.0873 0.3557,-0.1404 0.5462,-0.156c0.1905,-0.0157 0.3823,0.0064 0.5643,0.0649c0.182,0.0584 0.3507,0.1521 0.4965,0.2758c0.2945,0.2498 0.4776,0.6063 0.5092,0.9911c0.0316,0.3848 -0.0909,0.7663 -0.3407,1.0608c-0.2497,0.2944 -0.6062,0.4775 -0.991,0.5091c-0.3848,0.0316 -0.7665,-0.091 -1.0609,-0.3407z"/>
   <path fill="white" d="m114.46476,456.37092c-0.276,-0.2381 -0.4464,-0.576 -0.4738,-0.9395c-0.0275,-0.3635 0.0903,-0.7231 0.3275,-0.9999c0.2393,-0.2765 0.5786,-0.4466 0.9433,-0.4728c0.3648,-0.0263 0.725,0.0933 1.0015,0.3327c0.2765,0.2393 0.4466,0.5786 0.4729,0.9433c0.0262,0.3647 -0.0934,0.725 -0.3327,1.0014c-0.2398,0.2742 -0.5783,0.4423 -0.9416,0.4676c-0.3632,0.0252 -0.7218,-0.0945 -0.9971,-0.3328z"/>
   <path fill="white" d="m66.12846,396.14263c-0.2885,-0.0182 -0.5651,-0.1218 -0.7947,-0.2975c-0.2296,-0.1757 -0.4018,-0.4157 -0.4948,-0.6895c-0.093,-0.2737 -0.1026,-0.5689 -0.0275,-0.8481c0.075,-0.2792 0.2313,-0.5298 0.449,-0.72c0.2177,-0.1903 0.487,-0.3116 0.7738,-0.3486c0.2867,-0.0369 0.578,0.0121 0.8368,0.141c0.2588,0.1288 0.4735,0.3316 0.6169,0.5827c0.1433,0.251 0.2089,0.539 0.1883,0.8274c-0.0121,0.1907 -0.0617,0.3772 -0.1462,0.5486c-0.0845,0.1714 -0.202,0.3244 -0.3459,0.4501c-0.1439,0.1257 -0.3113,0.2218 -0.4925,0.2825c-0.1811,0.0608 -0.3726,0.085 -0.5632,0.0714z"/>
   <path fill="white" d="m86.78456,426.50462c-0.2026,0.0053 -0.404,-0.0316 -0.5915,-0.1084c-0.1875,-0.0768 -0.357,-0.1918 -0.4976,-0.3377c-0.1406,-0.1459 -0.2493,-0.3195 -0.3191,-0.5097c-0.0698,-0.1902 -0.0993,-0.3928 -0.0865,-0.5951c0.0128,-0.2022 0.0675,-0.3995 0.1608,-0.5794c0.0933,-0.1799 0.223,-0.3384 0.3808,-0.4654c0.1579,-0.1271 0.3405,-0.2198 0.5362,-0.2724c0.1957,-0.0526 0.4002,-0.0638 0.6004,-0.033c0.3603,0.0555 0.6867,0.2437 0.9151,0.5276c0.2285,0.284 0.3424,0.6432 0.3194,1.0069c-0.023,0.3637 -0.1813,0.7056 -0.4437,0.9585c-0.2624,0.253 -0.61,0.3985 -0.9743,0.4081z"/>
   <path fill="white" d="m102.75366,398.93923c-0.2881,-0.0182 -0.5642,-0.1214 -0.7936,-0.2966c-0.2294,-0.1752 -0.4017,-0.4144 -0.4951,-0.6875c-0.0934,-0.2731 -0.1037,-0.5677 -0.0296,-0.8467c0.0741,-0.279 0.2292,-0.5297 0.4458,-0.7205c0.2165,-0.1908 0.4848,-0.3131 0.7708,-0.3514c0.2861,-0.0383 0.5771,0.009 0.8363,0.1361c0.2591,0.127 0.4747,0.3282 0.6196,0.5778c0.1449,0.2496 0.2125,0.5366 0.1943,0.8246c-0.0106,0.1918 -0.0593,0.3796 -0.1431,0.5524c-0.0839,0.1728 -0.2013,0.3271 -0.3454,0.4541c-0.1441,0.127 -0.3121,0.224 -0.4941,0.2854c-0.182,0.0614 -0.3743,0.086 -0.5659,0.0723z"/>
   <path fill="white" d="m123.79966,421.97542c-0.0509,0.8043 0.5599,1.4976 1.3642,1.5485c0.8043,0.0509 1.4976,-0.5599 1.5485,-1.3642c0.0509,-0.8043 -0.5599,-1.4976 -1.3642,-1.5485c-0.8044,-0.0509 -1.4976,0.5599 -1.5485,1.3642z"/>
   <path fill="white" d="m121.39966,487.43613c-0.2747,-0.242 -0.443,-0.583 -0.468,-0.948c-0.0251,-0.365 0.0949,-0.725 0.3341,-1.003c0.2393,-0.276 0.5786,-0.446 0.9433,-0.472c0.3648,-0.027 0.725,0.093 1.0015,0.332c0.2764,0.24 0.4465,0.579 0.4728,0.944c0.0263,0.364 -0.0934,0.725 -0.3327,1.001c-0.2403,0.277 -0.5801,0.447 -0.9455,0.475c-0.3654,0.027 -0.7268,-0.091 -1.0055,-0.329z"/>
   <path fill="white" d="m94.05436,461.93943c-0.1369,-0.1185 -0.2491,-0.2628 -0.3303,-0.4246c-0.0811,-0.1619 -0.1296,-0.3381 -0.1426,-0.5187c-0.013,-0.1806 0.0097,-0.362 0.0668,-0.5338c0.0571,-0.1718 0.1474,-0.3307 0.2659,-0.4676c0.1185,-0.1369 0.2628,-0.2491 0.4247,-0.3303c0.1618,-0.0811 0.3381,-0.1295 0.5187,-0.1425c0.1806,-0.013 0.362,0.0096 0.5338,0.0667c0.1718,0.0571 0.3307,0.1475 0.4676,0.266c0.2765,0.2393 0.4466,0.5786 0.4729,0.9433c0.0263,0.3647 -0.0934,0.7249 -0.3327,1.0014c-0.2393,0.2764 -0.5787,0.4465 -0.9434,0.4728c-0.3647,0.0263 -0.725,-0.0934 -1.0014,-0.3327z"/>
   <path fill="#FFE6F7" d="m87.07366,444.86102c-2.2913,0.042 -4.5309,0.687 -6.4935,1.8702c-1.2251,1.6735 -1.9763,3.6465 -2.1745,5.7111c0.0093,-2.0655 -0.4797,-4.1027 -1.4256,-5.9389c-1.4578,-2.1042 -6.206,-2.6737 -6.206,-2.6737c2.2709,0.0621 4.5144,-0.5089 6.4794,-1.6488c1.5558,-1.2936 2.1805,-5.9916 2.1805,-5.9916c0,0 0.0664,4.6832 1.4663,6.2223c1.7845,1.3843 3.9252,2.2337 6.1734,2.4494z"/>
   <path fill="#FFE6F7" d="m64.95806,411.52162c-1.7827,0.0353 -3.52481,0.5383 -5.05204,1.4584c-0.95571,1.3136 -1.53865,2.861 -1.68709,4.4787c0.01005,-1.6185 -0.37041,-3.2155 -1.10914,-4.6556c-1.13622,-1.6393 -4.82793,-2.0835 -4.82793,-2.0835c1.7649,0.046 3.50849,-0.394 5.04022,-1.272c1.23365,-1.0098 1.69884,-4.665 1.69884,-4.665c0,0 0.04818,3.676 1.13233,4.8442c1.39162,1.0707 3.05691,1.7274 4.80481,1.8948z"/>
   <path fill="#FFE6F7" d="m118.21796,380.96742c-1.7781,0.02979 -3.5168,0.52916 -5.0397,1.44748c-0.9593,1.3116 -1.5426,2.86013 -1.687,4.47873c0.0098,-1.6201 -0.3749,-3.21824 -1.1208,-4.65638c-1.0671,-1.62327 -4.8171,-2.07109 -4.8171,-2.07109c1.7632,0.04691 3.5046,-0.39772 5.0293,-1.28428c1.2337,-1.00981 1.7098,-4.65274 1.7098,-4.65274c-0.0293,1.67992 0.3601,3.34077 1.1331,4.8326c1.3869,1.07248 3.0477,1.73284 4.7924,1.90568z"/>
  </g>
  <g>
   <path fill="white" d="m342.24947,513.62195c-0.1458,-0.1237 -0.2658,-0.2748 -0.3531,-0.4448c-0.0874,-0.1701 -0.1404,-0.3557 -0.1561,-0.5463c-0.0156,-0.1905 0.0065,-0.3822 0.0649,-0.5643c0.0585,-0.182 0.1522,-0.3507 0.2759,-0.4965c0.1236,-0.1457 0.2748,-0.2657 0.4448,-0.3531c0.1701,-0.0873 0.3557,-0.1404 0.5462,-0.156c0.1905,-0.0157 0.3823,0.0064 0.5643,0.0649c0.182,0.0584 0.3508,0.1521 0.4965,0.2758c0.2945,0.2498 0.4776,0.6063 0.5092,0.9911c0.0316,0.3848 -0.0909,0.7663 -0.3407,1.0608c-0.2497,0.2944 -0.6062,0.4775 -0.991,0.5091c-0.3848,0.0316 -0.7664,-0.091 -1.0609,-0.3407z"/>
   <path fill="white" d="m383.90617,501.91975c-0.276,-0.2381 -0.4464,-0.576 -0.4738,-0.9395c-0.0275,-0.3635 0.0903,-0.7231 0.3275,-0.9999c0.2393,-0.2765 0.5786,-0.4466 0.9434,-0.4728c0.3647,-0.0263 0.7249,0.0933 1.0014,0.3327c0.2765,0.2393 0.4466,0.5786 0.4729,0.9433c0.0263,0.3647 -0.0934,0.725 -0.3327,1.0014c-0.2398,0.2742 -0.5783,0.4423 -0.9416,0.4676c-0.3632,0.0252 -0.7218,-0.0945 -0.9971,-0.3328z"/>
   <path fill="white" d="m331.77857,440.38185c-0.2885,-0.0183 -0.56512,-0.1218 -0.79471,-0.2975c-0.22958,-0.1757 -0.40179,-0.4158 -0.49479,-0.6895c-0.093,-0.2738 -0.10259,-0.569 -0.02755,-0.8482c0.07504,-0.2792 0.23133,-0.5297 0.44903,-0.72c0.2177,-0.1902 0.48702,-0.3116 0.77372,-0.3485c0.2868,-0.037 0.578,0.0121 0.8369,0.1409c0.2588,0.1289 0.4735,0.3317 0.6168,0.5827c0.1434,0.2511 0.209,0.5391 0.1884,0.8275c-0.0121,0.1907 -0.0618,0.3771 -0.1462,0.5485c-0.0845,0.1714 -0.2021,0.3244 -0.346,0.4502c-0.1438,0.1257 -0.3112,0.2218 -0.4924,0.2825c-0.1812,0.0608 -0.3726,0.085 -0.5632,0.0714z"/>
   <path fill="white" d="m356.22597,472.05345c-0.2025,0.0053 -0.404,-0.0316 -0.5915,-0.1084c-0.1875,-0.0768 -0.357,-0.1918 -0.4976,-0.3377c-0.1406,-0.1459 -0.2493,-0.3195 -0.3191,-0.5097c-0.0698,-0.1902 -0.0993,-0.3928 -0.0865,-0.5951c0.0128,-0.2022 0.0676,-0.3995 0.1608,-0.5794c0.0933,-0.1799 0.223,-0.3384 0.3808,-0.4654c0.1579,-0.1271 0.3405,-0.2198 0.5362,-0.2724c0.1957,-0.0526 0.4002,-0.0638 0.6005,-0.033c0.3602,0.0555 0.6866,0.2437 0.915,0.5276c0.2285,0.284 0.3424,0.6432 0.3194,1.0069c-0.023,0.3637 -0.1813,0.7056 -0.4437,0.9585c-0.2624,0.253 -0.61,0.3985 -0.9743,0.4081z"/>
   <path fill="white" d="m372.19507,444.48805c-0.2881,-0.0182 -0.5642,-0.1214 -0.7936,-0.2966c-0.2294,-0.1752 -0.4017,-0.4144 -0.4951,-0.6875c-0.0934,-0.2731 -0.1037,-0.5677 -0.0296,-0.8467c0.0741,-0.279 0.2292,-0.5297 0.4458,-0.7205c0.2165,-0.1908 0.4848,-0.3131 0.7709,-0.3514c0.286,-0.0383 0.577,0.009 0.8362,0.1361c0.2591,0.127 0.4747,0.3282 0.6196,0.5778c0.1449,0.2496 0.2125,0.5366 0.1943,0.8246c-0.0106,0.1918 -0.0593,0.3796 -0.1431,0.5524c-0.0839,0.1728 -0.2013,0.3271 -0.3454,0.4541c-0.1441,0.127 -0.3121,0.224 -0.4941,0.2854c-0.182,0.0614 -0.3743,0.086 -0.5659,0.0723z"/>
   <path fill="white" d="m393.24107,467.52425c-0.0509,0.8043 0.5599,1.4976 1.3642,1.5485c0.8043,0.0509 1.4976,-0.5599 1.5485,-1.3642c0.0509,-0.8043 -0.5599,-1.4976 -1.3642,-1.5485c-0.8044,-0.0509 -1.4976,0.5599 -1.5485,1.3642z"/>
   <path fill="white" d="m418.87777,545.88795c-0.2748,-0.242 -0.443,-0.582 -0.4681,-0.947c-0.0251,-0.366 0.095,-0.726 0.3341,-1.003c0.2393,-0.277 0.5787,-0.447 0.9434,-0.473c0.3647,-0.026 0.7249,0.093 1.0014,0.333c0.2765,0.239 0.4466,0.578 0.4729,0.943c0.0263,0.365 -0.0934,0.725 -0.3327,1.002c-0.2403,0.276 -0.5801,0.447 -0.9456,0.474c-0.3654,0.027 -0.7268,-0.091 -1.0054,-0.329z"/>
   <path fill="white" d="m373.88297,533.88195c-0.1369,-0.118 -0.2491,-0.262 -0.3302,-0.424c-0.0812,-0.162 -0.1296,-0.338 -0.1426,-0.519c-0.0131,-0.181 0.0096,-0.362 0.0667,-0.534c0.0571,-0.172 0.1475,-0.33 0.266,-0.467c0.1185,-0.137 0.2628,-0.249 0.4246,-0.331c0.1619,-0.081 0.3381,-0.129 0.5187,-0.142c0.1806,-0.013 0.362,0.009 0.5338,0.067c0.1719,0.057 0.3308,0.147 0.4677,0.266c0.2765,0.239 0.4465,0.578 0.4728,0.943c0.0263,0.365 -0.0934,0.725 -0.3327,1.001c-0.2393,0.277 -0.5786,0.447 -0.9434,0.473c-0.3647,0.026 -0.7249,-0.093 -1.0014,-0.333z"/>
   <path fill="#FFE6F7" d="m338.13417,492.56385c-2.2912,0.042 -4.5309,0.6871 -6.4935,1.8702c-1.22512,1.6736 -1.97631,3.6466 -2.17445,5.7112c0.00933,-2.0655 -0.47972,-4.1028 -1.42566,-5.939c-1.45774,-2.1042 -6.20598,-2.6736 -6.20598,-2.6736c2.27095,0.062 4.51438,-0.5089 6.47946,-1.6489c1.55573,-1.2935 2.18049,-5.9915 2.18049,-5.9915c0,0 0.06632,4.6832 1.46624,6.2223c1.7845,1.3842 3.9253,2.2336 6.1734,2.4493z"/>
   <path fill="#FFE6F7" d="m418.39947,512.51705c-1.7827,0.0353 -3.5248,0.5382 -5.052,1.4584c-0.9557,1.3135 -1.5387,2.861 -1.6871,4.4786c0.01,-1.6184 -0.3704,-3.2155 -1.1092,-4.6555c-1.1362,-1.6394 -4.8279,-2.0835 -4.8279,-2.0835c1.7649,0.046 3.5085,-0.3941 5.0402,-1.272c1.2337,-1.0098 1.6989,-4.6651 1.6989,-4.6651c0,0 0.0481,3.676 1.1323,4.8442c1.3916,1.0707 3.0569,1.7275 4.8048,1.8949z"/>
   <path fill="#FFE6F7" d="m387.65937,426.51624c-1.7781,0.02979 -3.5167,0.52916 -5.0396,1.44748c-0.9594,1.3116 -1.5427,2.86013 -1.6871,4.47873c0.0098,-1.6201 -0.3749,-3.21824 -1.1208,-4.65638c-1.0671,-1.62327 -4.8171,-2.07109 -4.8171,-2.07109c1.7632,0.04691 3.5046,-0.39772 5.0294,-1.28428c1.2336,-1.00981 1.7097,-4.65274 1.7097,-4.65274c-0.0292,1.67992 0.3601,3.34077 1.1331,4.8326c1.3869,1.07248 3.0477,1.73284 4.7924,1.90568z"/>
  </g>
  <g>
   <path fill="white" d="m480.89938,192.48302c-0.1458,-0.1237 -0.2658,-0.2748 -0.3531,-0.4448c-0.0874,-0.1701 -0.1404,-0.3557 -0.156,-0.5463c-0.0157,-0.1905 0.0064,-0.3822 0.0648,-0.5642c0.0585,-0.1821 0.1522,-0.3508 0.2759,-0.4965c0.1237,-0.1458 0.2748,-0.2658 0.4449,-0.3531c0.17,-0.0874 0.3556,-0.1405 0.5461,-0.1561c0.1905,-0.0157 0.3823,0.0064 0.5643,0.0649c0.1821,0.0584 0.3508,0.1522 0.4966,0.2758c0.2944,0.2498 0.4775,0.6063 0.5091,0.9911c0.0316,0.3848 -0.0909,0.7663 -0.3407,1.0608c-0.2497,0.2944 -0.6062,0.4775 -0.991,0.5091c-0.3848,0.0316 -0.7664,-0.091 -1.0609,-0.3407z"/>
   <path fill="white" d="m460.88038,249.37092c-0.2761,-0.2381 -0.4464,-0.576 -0.4739,-0.9395c-0.0274,-0.3635 0.0904,-0.7231 0.3275,-0.9999c0.2394,-0.2765 0.5787,-0.4466 0.9434,-0.4728c0.3647,-0.0263 0.725,0.0933 1.0015,0.3327c0.2765,0.2393 0.4466,0.5786 0.4728,0.9433c0.0263,0.3647 -0.0934,0.725 -0.3327,1.0014c-0.2397,0.2742 -0.5782,0.4423 -0.9415,0.4676c-0.3633,0.0252 -0.7218,-0.0945 -0.9971,-0.3328z"/>
   <path fill="white" d="m433.20015,219.50462c-0.20255,0.0053 -0.404,-0.0316 -0.59151,-0.1084c-0.1875,-0.0768 -0.35695,-0.1918 -0.49756,-0.3377c-0.14061,-0.1459 -0.2493,-0.3195 -0.31913,-0.5097c-0.06984,-0.1902 -0.09931,-0.3928 -0.08652,-0.5951c0.01279,-0.2022 0.06757,-0.3995 0.16082,-0.5794c0.09326,-0.1799 0.22295,-0.3384 0.38083,-0.4654c0.15788,-0.1271 0.34048,-0.2198 0.53617,-0.2724c0.19569,-0.0526 0.40018,-0.0638 0.60045,-0.033c0.36021,0.0555 0.68665,0.2437 0.91509,0.5276c0.22845,0.284 0.34237,0.6432 0.31936,1.0069c-0.02301,0.3637 -0.18129,0.7056 -0.44371,0.9585c-0.26241,0.253 -0.60996,0.3985 -0.97429,0.4081z"/>
   <path fill="white" d="m449.16918,191.93923c-0.288,-0.0182 -0.5642,-0.1214 -0.7935,-0.2966c-0.2294,-0.1752 -0.4017,-0.4144 -0.4951,-0.6875c-0.0934,-0.2731 -0.1037,-0.5677 -0.0296,-0.8467c0.074,-0.279 0.2292,-0.5297 0.4457,-0.7205c0.2166,-0.1908 0.4849,-0.3131 0.7709,-0.3514c0.2861,-0.0383 0.5771,0.009 0.8362,0.1361c0.2592,0.127 0.4748,0.3282 0.6197,0.5778c0.1449,0.2496 0.2125,0.5366 0.1942,0.8246c-0.0105,0.1918 -0.0592,0.3796 -0.1431,0.5524c-0.0838,0.1728 -0.2012,0.3271 -0.3453,0.4541c-0.1442,0.127 -0.3121,0.224 -0.4941,0.2854c-0.182,0.0614 -0.3744,0.086 -0.566,0.0723z"/>
   <path fill="white" d="m470.21518,214.97542c-0.0508,0.8043 0.5599,1.4976 1.3642,1.5485c0.8044,0.0509 1.4977,-0.5599 1.5485,-1.3642c0.0509,-0.8043 -0.5598,-1.4976 -1.3642,-1.5485c-0.8043,-0.0509 -1.4976,0.5599 -1.5485,1.3642z"/>
   <path fill="white" d="m467.81528,280.43613c-0.2748,-0.242 -0.443,-0.583 -0.4681,-0.948c-0.025,-0.365 0.095,-0.725 0.3341,-1.003c0.2393,-0.276 0.5787,-0.446 0.9434,-0.472c0.3647,-0.027 0.725,0.093 1.0014,0.332c0.2765,0.24 0.4466,0.579 0.4729,0.944c0.0263,0.364 -0.0934,0.725 -0.3327,1.001c-0.2403,0.277 -0.5801,0.447 -0.9455,0.475c-0.3655,0.027 -0.7268,-0.091 -1.0055,-0.329z"/>
   <path fill="white" d="m440.46992,254.93943c-0.1369,-0.1185 -0.24912,-0.2628 -0.33025,-0.4246c-0.08114,-0.1619 -0.12958,-0.3381 -0.1426,-0.5187c-0.01301,-0.1806 0.00967,-0.362 0.06675,-0.5338c0.05709,-0.1718 0.14745,-0.3307 0.26595,-0.4676c0.11849,-0.1369 0.2628,-0.2491 0.42466,-0.3303c0.16187,-0.0811 0.33813,-0.1295 0.51872,-0.1425c0.18059,-0.013 0.36193,0.0096 0.53383,0.0667c0.1718,0.0571 0.3307,0.1475 0.4676,0.266c0.2765,0.2393 0.4466,0.5786 0.4728,0.9433c0.0263,0.3647 -0.0933,0.7249 -0.3327,1.0014c-0.2393,0.2764 -0.5786,0.4465 -0.94333,0.4728c-0.36473,0.0263 -0.72495,-0.0934 -1.00143,-0.3327z"/>
   <path fill="#FFE6F7" d="m481.10838,237.01502c-2.2913,0.042 -4.531,0.6871 -6.4935,1.8702c-1.2252,1.6736 -1.9764,3.6466 -2.1745,5.7112c0.0093,-2.0655 -0.4797,-4.1028 -1.4257,-5.939c-1.4577,-2.1042 -6.2059,-2.6736 -6.2059,-2.6736c2.2709,0.062 4.5143,-0.5089 6.4794,-1.6489c1.5558,-1.2935 2.1805,-5.9915 2.1805,-5.9915c0,0 0.0663,4.6832 1.4662,6.2223c1.7845,1.3842 3.9253,2.2336 6.1735,2.4493z"/>
   <path fill="#FFE6F7" d="m464.63348,173.96742c-1.7781,0.02979 -3.5167,0.52916 -5.0396,1.44748c-0.9593,1.3116 -1.5426,2.86013 -1.6871,4.47873c0.0099,-1.6201 -0.3748,-3.21824 -1.1208,-4.65638c-1.067,-1.62327 -4.817,-2.07109 -4.817,-2.07109c1.7632,0.04691 3.5046,-0.39772 5.0293,-1.28428c1.2337,-1.00981 1.7098,-4.65274 1.7098,-4.65274c-0.0293,1.67992 0.3601,3.34077 1.133,4.8326c1.387,1.07248 3.0478,1.73284 4.7924,1.90568z"/>
  </g>
  <g>
   <path fill="white" d="m237.89802,69.22912c-0.1458,-0.1237 -0.2658,-0.2748 -0.3532,-0.4448c-0.0874,-0.1701 -0.1404,-0.3557 -0.156,-0.5463c-0.0157,-0.1905 0.0064,-0.3822 0.0649,-0.5642c0.0584,-0.1821 0.1522,-0.3508 0.2758,-0.4965c0.1237,-0.1458 0.2749,-0.2658 0.4449,-0.3531c0.17,-0.0874 0.3556,-0.1405 0.5461,-0.1561c0.1906,-0.0157 0.3824,0.0064 0.5644,0.0649c0.182,0.0584 0.3507,0.1522 0.4965,0.2758c0.2944,0.2498 0.4776,0.6063 0.5092,0.9911c0.0316,0.3848 -0.091,0.7663 -0.3407,1.0608c-0.2498,0.2944 -0.6063,0.4775 -0.9911,0.5091c-0.3848,0.0316 -0.7664,-0.091 -1.0608,-0.3407z"/>
   <path fill="white" d="m285.87872,126.11692c-0.276,-0.2381 -0.4464,-0.576 -0.4738,-0.9395c-0.0275,-0.3635 0.0903,-0.723 0.3275,-0.9999c0.2393,-0.2764 0.5786,-0.4465 0.9433,-0.4728c0.3648,-0.0263 0.725,0.0934 1.0015,0.3327c0.2765,0.2393 0.4466,0.5786 0.4729,0.9433c0.0262,0.3648 -0.0934,0.725 -0.3327,1.0015c-0.2398,0.2741 -0.5783,0.4423 -0.9416,0.4675c-0.3632,0.0252 -0.7218,-0.0944 -0.9971,-0.3328z"/>
   <path fill="white" d="m326.75092,86.57902c-0.288,-0.0183 -0.565,-0.1218 -0.795,-0.2975c-0.229,-0.1757 -0.401,-0.4158 -0.494,-0.6895c-0.093,-0.2738 -0.103,-0.569 -0.028,-0.8482c0.075,-0.2792 0.231,-0.5297 0.449,-0.72c0.218,-0.1902 0.487,-0.3116 0.774,-0.3485c0.287,-0.037 0.578,0.0121 0.837,0.1409c0.258,0.1288 0.473,0.3317 0.617,0.5827c0.143,0.2511 0.208,0.5391 0.188,0.8275c-0.012,0.1907 -0.062,0.3771 -0.146,0.5485c-0.085,0.1714 -0.202,0.3244 -0.346,0.4501c-0.144,0.1258 -0.311,0.2218 -0.493,0.2826c-0.181,0.0607 -0.372,0.085 -0.563,0.0714z"/>
   <path fill="white" d="m258.19852,96.25062c-0.2026,0.0053 -0.404,-0.0316 -0.5915,-0.1084c-0.1875,-0.0768 -0.357,-0.1919 -0.4976,-0.3378c-0.1406,-0.1459 -0.2493,-0.3195 -0.3191,-0.5097c-0.0698,-0.1902 -0.0993,-0.3928 -0.0865,-0.595c0.0128,-0.2022 0.0675,-0.3996 0.1608,-0.5794c0.0933,-0.1799 0.2229,-0.3384 0.3808,-0.4655c0.1579,-0.127 0.3405,-0.2198 0.5362,-0.2723c0.1957,-0.0526 0.4002,-0.0638 0.6004,-0.033c0.3603,0.0554 0.6867,0.2436 0.9151,0.5276c0.2285,0.284 0.3424,0.6432 0.3194,1.0069c-0.023,0.3637 -0.1813,0.7056 -0.4437,0.9585c-0.2624,0.2529 -0.61,0.3985 -0.9743,0.4081z"/>
   <path fill="white" d="m274.16762,68.68522c-0.2881,-0.0182 -0.5642,-0.1214 -0.7936,-0.2966c-0.2294,-0.1752 -0.4017,-0.4145 -0.4951,-0.6875c-0.0934,-0.2731 -0.1037,-0.5678 -0.0296,-0.8467c0.0741,-0.279 0.2292,-0.5297 0.4458,-0.7205c0.2165,-0.1908 0.4848,-0.3131 0.7708,-0.3514c0.2861,-0.0383 0.5771,0.009 0.8362,0.1361c0.2592,0.127 0.4748,0.3281 0.6197,0.5778c0.1449,0.2496 0.2125,0.5365 0.1943,0.8246c-0.0106,0.1918 -0.0593,0.3796 -0.1431,0.5524c-0.0839,0.1728 -0.2013,0.3271 -0.3454,0.4541c-0.1441,0.1269 -0.3121,0.2239 -0.4941,0.2854c-0.182,0.0614 -0.3744,0.086 -0.5659,0.0723z"/>
   <path fill="white" d="m295.21352,91.72132c-0.0509,0.8044 0.5599,1.4977 1.3642,1.5485c0.8043,0.0509 1.4976,-0.5599 1.5485,-1.3642c0.0509,-0.8043 -0.5599,-1.4976 -1.3642,-1.5485c-0.8043,-0.0509 -1.4976,0.5599 -1.5485,1.3642z"/>
   <path fill="white" d="m260.85042,34.08547c-0.2748,-0.24187 -0.443,-0.58242 -0.4681,-0.94762c-0.0251,-0.36521 0.095,-0.72555 0.3341,-1.00272c0.2393,-0.2765 0.5787,-0.44667 0.9434,-0.47295c0.3647,-0.02629 0.7249,0.09339 1.0014,0.33271c0.2765,0.23932 0.4466,0.57873 0.4729,0.94346c0.0263,0.36474 -0.0934,0.72498 -0.3327,1.00147c-0.2403,0.27668 -0.5801,0.44723 -0.9456,0.47451c-0.3654,0.02727 -0.7268,-0.09091 -1.0054,-0.32886z"/>
   <path fill="white" d="m265.46832,131.68522c-0.1369,-0.118 -0.2492,-0.263 -0.3303,-0.424c-0.0811,-0.162 -0.1296,-0.338 -0.1426,-0.519c-0.013,-0.181 0.0097,-0.362 0.0668,-0.534c0.0571,-0.172 0.1474,-0.331 0.2659,-0.467c0.1185,-0.137 0.2628,-0.25 0.4247,-0.331c0.1618,-0.081 0.3381,-0.129 0.5187,-0.142c0.1806,-0.013 0.362,0.009 0.5338,0.066c0.1718,0.058 0.3307,0.148 0.4676,0.266c0.2765,0.24 0.4466,0.579 0.4729,0.944c0.0263,0.364 -0.0934,0.725 -0.3327,1.001c-0.2393,0.277 -0.5787,0.447 -0.9434,0.473c-0.3647,0.026 -0.725,-0.093 -1.0014,-0.333z"/>
   <path fill="#FFE6F7" d="m261.10682,117.76112c-2.2912,0.042 -4.5309,0.6871 -6.4935,1.8702c-1.2251,1.6736 -1.9763,3.6466 -2.1744,5.7112c0.0093,-2.0655 -0.4798,-4.1028 -1.4257,-5.939c-1.4577,-2.1042 -6.206,-2.6736 -6.206,-2.6736c2.271,0.062 4.5144,-0.5089 6.4795,-1.6489c1.5557,-1.2935 2.1805,-5.9915 2.1805,-5.9915c0,0 0.0663,4.6832 1.4662,6.2223c1.7845,1.3842 3.9253,2.2336 6.1734,2.4493z"/>
   <path fill="#FFE6F7" d="m237.37212,34.71429c-1.7827,0.03531 -3.52481,0.53822 -5.05204,1.4584c-0.9557,1.31357 -1.53864,2.86103 -1.68709,4.47863c0.01006,-1.6184 -0.37041,-3.21546 -1.10914,-4.65555c-1.13622,-1.63935 -4.82793,-2.08348 -4.82793,-2.08348c1.76491,0.04598 3.50849,-0.39405 5.04023,-1.272c1.23364,-1.00982 1.69884,-4.66507 1.69884,-4.66507c0,0 0.04818,3.67604 1.13232,4.8442c1.39163,1.07072 3.05691,1.72748 4.80481,1.89487z"/>
   <path fill="#FFE6F7" d="m305.35952,63.71342c-1.7781,0.0298 -3.5167,0.5292 -5.0396,1.4475c-0.9594,1.3116 -1.5427,2.8602 -1.6871,4.4787c0.0098,-1.62 -0.3748,-3.2182 -1.1208,-4.6563c-1.067,-1.6233 -4.817,-2.0711 -4.817,-2.0711c1.7631,0.0469 3.5045,-0.3978 5.0293,-1.2843c1.2336,-1.0098 1.7098,-4.6528 1.7098,-4.6528c-0.0293,1.68 0.3601,3.3408 1.133,4.8327c1.3869,1.0724 3.0477,1.7328 4.7924,1.9056z"/>
  </g>
 </g>
</svg>