<svg xmlns="http://www.w3.org/2000/svg" width="88" height="66" viewBox="0 0 88 66">
    <g fill="none" fill-rule="evenodd">
        <g>
            <g>
                <g>
                    <g>
                        <path stroke="#0FA3B1" stroke-width="2" d="M61.435 61H8.565C5.505 61 3 58.417 3 55.235v-37.47C3 14.583 5.504 12 8.565 12h52.87C64.495 12 67 14.583 67 17.765v37.47C67 58.417 64.496 61 61.435 61z" transform="translate(-53 -2643) translate(0 2193) translate(55 450)"/>
                        <path fill="#0A2239" d="M86 13.5S78.87 27 65.5 27C52.13 27 45 13.5 45 13.5S52.13 0 65.5 0C78.87 0 86 13.5 86 13.5z" transform="translate(-53 -2643) translate(0 2193) translate(55 450)"/>
                        <path fill="#0A2239" stroke="#D5330D" stroke-width="2" d="M82 13s-5.74 11-16.5 11S49 13 49 13 54.74 2 65.5 2 82 13 82 13z" transform="translate(-53 -2643) translate(0 2193) translate(55 450)"/>
                        <path stroke="#D5330D" stroke-width="2" d="M72 13c0 3.313-2.903 6-6.5 6S59 16.313 59 13s2.903-6 6.5-6S72 9.687 72 13z" transform="translate(-53 -2643) translate(0 2193) translate(55 450)"/>
                        <path stroke="#0FA3B1" stroke-width="2" d="M3 42L18 22M52 61L17 22M31 39L39 30M65 59L38 30" transform="translate(-53 -2643) translate(0 2193) translate(55 450)"/>
                        <g>
                            <path stroke="#0A2239" stroke-width="5" d="M0 26.875L16.471 10" transform="translate(-53 -2643) translate(0 2193) translate(55 450) translate(0 37)"/>
                            <path stroke="#0C7489" stroke-width="2" d="M0 27L16.471 10.125" transform="translate(-53 -2643) translate(0 2193) translate(55 450) translate(0 37)"/>
                            <path stroke="#D5330D" d="M17.294 0L17.294 3.375M17.294 15.188L17.294 18.885M23.882 2.01L21 4.38M26.765 8.499L22.647 9.02M11.529 9.603L8.235 9.603M23.882 15.51L21.412 12.978M13.176 4.541L10.706 2.01" transform="translate(-53 -2643) translate(0 2193) translate(55 450) translate(0 37)"/>
                        </g>
                    </g>
                </g>
            </g>
        </g>
    </g>
</svg>
