<svg xmlns="http://www.w3.org/2000/svg" width="62" height="83" viewBox="0 0 62 83">
    <g fill="none" fill-rule="evenodd">
        <g>
            <g>
                <g fill-rule="nonzero">
                    <path stroke="#0C7489" stroke-width="2" d="M0 45H17V64H0z" transform="translate(-1023 -2659) translate(1024 2660)"/>
                    <path stroke="#D5330D" stroke-width="2" d="M27.143 36.407c-.32-1.712-1.778-2.964-3.497-3.004l-12.416-.29 2.341-10.04 2.193 3.472c.312.494.794.853 1.353 1.007l10.014 2.76c.205.056.41.084.613.084 1.027 0 1.968-.693 2.25-1.746.338-1.26-.395-2.56-1.64-2.903l-9.145-2.52-4.258-6.746c-.091-1.59-1.194-2.996-2.8-3.381-1.959-.47-3.923.76-4.386 2.746L3.098 35.853c-.253 1.085-.01 2.228.663 3.11.672.882 1.702 1.41 2.801 1.436l13.97.325 3.24 17.27C24.105 59.766 25.634 61 27.35 61c.226 0 .455-.021.685-.066 1.978-.381 3.277-2.316 2.9-4.322l-3.792-20.205h0z" transform="translate(-1023 -2659) translate(1024 2660)"/>
                    <path fill="#0C7489" d="M39.414 23.064c-.479-.183-1.021.04-1.213.499l-3.185 7.646h-9.083c-.515 0-.933.4-.933.895s.418.896.933.896h9.715c.381 0 .724-.223.866-.563l3.42-8.209c.19-.459-.042-.98-.52-1.164z" transform="translate(-1023 -2659) translate(1024 2660)"/>
                    <path stroke="#D5330D" stroke-width="2" d="M15 13c3.313 0 6-2.91 6-6.5S18.313 0 15 0 9 2.91 9 6.5s2.687 6.5 6 6.5z" transform="translate(-1023 -2659) translate(1024 2660)"/>
                </g>
                <g>
                    <path fill="#0A2239" stroke="#0A2239" stroke-width="6" d="M31 15.5C31 24.06 24.06 31 15.5 31 6.94 31 0 24.06 0 15.5 0 6.94 6.94 0 15.5 0 24.06 0 31 6.94 31 15.5z" transform="translate(-1023 -2659) translate(1024 2660) translate(27 35)"/>
                    <path fill="#0A2239" stroke="#0C7489" stroke-width="2" d="M31 15.5C31 24.06 24.06 31 15.5 31 6.94 31 0 24.06 0 15.5 0 6.94 6.94 0 15.5 0 24.06 0 31 6.94 31 15.5z" transform="translate(-1023 -2659) translate(1024 2660) translate(27 35)"/>
                    <path stroke="#0C7489" stroke-width="2" d="M23 15.5c0 4.142-3.358 7.5-7.5 7.5-4.142 0-7.5-3.358-7.5-7.5C8 11.358 11.358 8 15.5 8c4.142 0 7.5 3.358 7.5 7.5zM14 30.778L7.821 44 5.523 37.478 0 38.333 5.25 27M25.375 27L31 38.333 25.082 37.478 22.508 44 16 30.778" transform="translate(-1023 -2659) translate(1024 2660) translate(27 35)"/>
                </g>
            </g>
        </g>
    </g>
</svg>
